%TF.GenerationSoftware,KiCad,Pcbnew,5.1.9-73d0e3b20d~88~ubuntu20.04.1*%
%TF.CreationDate,2021-04-10T15:21:01+02:00*%
%TF.ProjectId,pcb_central_unit,7063625f-6365-46e7-9472-616c5f756e69,rev?*%
%TF.SameCoordinates,Original*%
%TF.FileFunction,Copper,L2,Bot*%
%TF.FilePolarity,Positive*%
%FSLAX46Y46*%
G04 Gerber Fmt 4.6, Leading zero omitted, Abs format (unit mm)*
G04 Created by KiCad (PCBNEW 5.1.9-73d0e3b20d~88~ubuntu20.04.1) date 2021-04-10 15:21:01*
%MOMM*%
%LPD*%
G01*
G04 APERTURE LIST*
%TA.AperFunction,ComponentPad*%
%ADD10C,1.524000*%
%TD*%
%TA.AperFunction,ComponentPad*%
%ADD11R,1.524000X1.524000*%
%TD*%
%TA.AperFunction,ComponentPad*%
%ADD12O,1.700000X1.700000*%
%TD*%
%TA.AperFunction,ComponentPad*%
%ADD13R,1.700000X1.700000*%
%TD*%
%TA.AperFunction,ComponentPad*%
%ADD14O,1.600000X1.600000*%
%TD*%
%TA.AperFunction,ComponentPad*%
%ADD15C,1.600000*%
%TD*%
%TA.AperFunction,ViaPad*%
%ADD16C,6.300000*%
%TD*%
%TA.AperFunction,Conductor*%
%ADD17C,0.250000*%
%TD*%
%TA.AperFunction,Conductor*%
%ADD18C,0.750000*%
%TD*%
%TA.AperFunction,Conductor*%
%ADD19C,0.254000*%
%TD*%
%TA.AperFunction,Conductor*%
%ADD20C,0.100000*%
%TD*%
G04 APERTURE END LIST*
D10*
%TO.P,U1,JP3_1*%
%TO.N,Net-(U1-PadJP3_1)*%
X123571000Y-76581000D03*
%TO.P,U1,JP4_1*%
%TO.N,Net-(U1-PadJP4_1)*%
X124841000Y-74930000D03*
%TO.P,U1,JP5_1*%
%TO.N,Net-(U1-PadJP5_1)*%
X122301000Y-74930000D03*
D11*
%TO.P,U1,JP1_1*%
%TO.N,DIR_0*%
X119761000Y-92710000D03*
D10*
%TO.P,U1,JP1_2*%
%TO.N,PULS_0*%
X119761000Y-90170000D03*
%TO.P,U1,JP1_3*%
%TO.N,Net-(U1-PadJP1_3)*%
X119761000Y-87630000D03*
%TO.P,U1,JP1_4*%
%TO.N,UART_0*%
X119761000Y-85090000D03*
%TO.P,U1,JP1_5*%
%TO.N,Net-(U1-PadJP1_5)*%
X119761000Y-82550000D03*
%TO.P,U1,JP1_6*%
%TO.N,Net-(U1-PadJP1_6)*%
X119761000Y-80010000D03*
%TO.P,U1,JP1_7*%
%TO.N,Net-(U1-PadJP1_7)*%
X119761000Y-77470000D03*
%TO.P,U1,JP1_8*%
%TO.N,EN_0*%
X119761000Y-74930000D03*
%TO.P,U1,JP2_1*%
%TO.N,+12V*%
X132461000Y-74930000D03*
%TO.P,U1,JP2_2*%
%TO.N,GND*%
X132461000Y-77470000D03*
%TO.P,U1,JP2_3*%
%TO.N,Net-(J4-Pad1)*%
X132461000Y-80010000D03*
%TO.P,U1,JP2_4*%
%TO.N,Net-(J4-Pad2)*%
X132461000Y-82550000D03*
%TO.P,U1,JP2_5*%
%TO.N,Net-(J4-Pad3)*%
X132461000Y-85090000D03*
%TO.P,U1,JP2_6*%
%TO.N,Net-(J4-Pad4)*%
X132461000Y-87630000D03*
%TO.P,U1,JP2_7*%
%TO.N,+3.3V*%
X132461000Y-90170000D03*
%TO.P,U1,JP2_8*%
%TO.N,GND*%
X132461000Y-92710000D03*
%TD*%
D12*
%TO.P,J2,8*%
%TO.N,S1_0*%
X85471000Y-120269000D03*
%TO.P,J2,7*%
%TO.N,S2_0*%
X85471000Y-122809000D03*
%TO.P,J2,6*%
%TO.N,P_DATA_0*%
X88011000Y-120269000D03*
%TO.P,J2,5*%
%TO.N,Net-(J2-Pad5)*%
X88011000Y-122809000D03*
%TO.P,J2,4*%
%TO.N,P_CLK_0*%
X90551000Y-120269000D03*
%TO.P,J2,3*%
%TO.N,GND*%
X90551000Y-122809000D03*
%TO.P,J2,2*%
%TO.N,+3.3V*%
X93091000Y-120269000D03*
D13*
%TO.P,J2,1*%
%TO.N,+5V*%
X93091000Y-122809000D03*
%TD*%
D11*
%TO.P,U3,1*%
%TO.N,Net-(U3-Pad1)*%
X57404000Y-105537000D03*
D10*
%TO.P,U3,2*%
%TO.N,Net-(J8-Pad2)*%
X59944000Y-105537000D03*
%TO.P,U3,3*%
%TO.N,Net-(J9-Pad2)*%
X62484000Y-105537000D03*
%TO.P,U3,4*%
%TO.N,S1_1*%
X65024000Y-105537000D03*
%TO.P,U3,5*%
%TO.N,Net-(U3-Pad5)*%
X67564000Y-105537000D03*
%TO.P,U3,6*%
%TO.N,P_CLK_1*%
X70104000Y-105537000D03*
%TO.P,U3,7*%
%TO.N,P_DATA_1*%
X72644000Y-105537000D03*
%TO.P,U3,8*%
%TO.N,P_DATA_0*%
X75184000Y-105537000D03*
%TO.P,U3,9*%
%TO.N,S1_0*%
X77724000Y-105537000D03*
%TO.P,U3,10*%
%TO.N,S2_0*%
X80264000Y-105537000D03*
%TO.P,U3,11*%
%TO.N,P_CLK_0*%
X82804000Y-105537000D03*
%TO.P,U3,12*%
%TO.N,B1*%
X85344000Y-105537000D03*
%TO.P,U3,13*%
%TO.N,B2*%
X87884000Y-105537000D03*
%TO.P,U3,14*%
%TO.N,GND*%
X90424000Y-105537000D03*
%TO.P,U3,15*%
%TO.N,+5V*%
X92964000Y-105537000D03*
%TO.P,U3,16*%
%TO.N,+3.3V*%
X92964000Y-80137000D03*
%TO.P,U3,17*%
%TO.N,GND*%
X90424000Y-80137000D03*
%TO.P,U3,18*%
%TO.N,EN_0*%
X87884000Y-80137000D03*
%TO.P,U3,19*%
%TO.N,DIR_0*%
X85344000Y-80137000D03*
%TO.P,U3,20*%
%TO.N,PULS_0*%
X82804000Y-80137000D03*
%TO.P,U3,21*%
%TO.N,UART_1*%
X80264000Y-80137000D03*
%TO.P,U3,22*%
%TO.N,Net-(R2-Pad2)*%
X77724000Y-80137000D03*
%TO.P,U3,23*%
%TO.N,EN_1*%
X75184000Y-80137000D03*
%TO.P,U3,24*%
%TO.N,DIR_1*%
X72644000Y-80137000D03*
%TO.P,U3,25*%
%TO.N,PULS_1*%
X70104000Y-80137000D03*
%TO.P,U3,26*%
%TO.N,Net-(U3-Pad26)*%
X67564000Y-80137000D03*
%TO.P,U3,27*%
%TO.N,UART_0*%
X65024000Y-80137000D03*
%TO.P,U3,28*%
%TO.N,Net-(R1-Pad2)*%
X62484000Y-80137000D03*
%TO.P,U3,29*%
%TO.N,I2C_DATA*%
X59944000Y-80137000D03*
%TO.P,U3,30*%
%TO.N,I2C_CLK*%
X57404000Y-80137000D03*
%TD*%
%TO.P,U2,JP3_1*%
%TO.N,Net-(U2-PadJP3_1)*%
X147701000Y-76581000D03*
%TO.P,U2,JP4_1*%
%TO.N,Net-(U2-PadJP4_1)*%
X148971000Y-74930000D03*
%TO.P,U2,JP5_1*%
%TO.N,Net-(U2-PadJP5_1)*%
X146431000Y-74930000D03*
D11*
%TO.P,U2,JP1_1*%
%TO.N,DIR_1*%
X143891000Y-92710000D03*
D10*
%TO.P,U2,JP1_2*%
%TO.N,PULS_1*%
X143891000Y-90170000D03*
%TO.P,U2,JP1_3*%
%TO.N,Net-(U2-PadJP1_3)*%
X143891000Y-87630000D03*
%TO.P,U2,JP1_4*%
%TO.N,UART_1*%
X143891000Y-85090000D03*
%TO.P,U2,JP1_5*%
%TO.N,Net-(U2-PadJP1_5)*%
X143891000Y-82550000D03*
%TO.P,U2,JP1_6*%
%TO.N,Net-(U2-PadJP1_6)*%
X143891000Y-80010000D03*
%TO.P,U2,JP1_7*%
%TO.N,Net-(U2-PadJP1_7)*%
X143891000Y-77470000D03*
%TO.P,U2,JP1_8*%
%TO.N,EN_1*%
X143891000Y-74930000D03*
%TO.P,U2,JP2_1*%
%TO.N,+12V*%
X156591000Y-74930000D03*
%TO.P,U2,JP2_2*%
%TO.N,GND*%
X156591000Y-77470000D03*
%TO.P,U2,JP2_3*%
%TO.N,Net-(J5-Pad1)*%
X156591000Y-80010000D03*
%TO.P,U2,JP2_4*%
%TO.N,Net-(J5-Pad2)*%
X156591000Y-82550000D03*
%TO.P,U2,JP2_5*%
%TO.N,Net-(J5-Pad3)*%
X156591000Y-85090000D03*
%TO.P,U2,JP2_6*%
%TO.N,Net-(J5-Pad4)*%
X156591000Y-87630000D03*
%TO.P,U2,JP2_7*%
%TO.N,+3.3V*%
X156591000Y-90170000D03*
%TO.P,U2,JP2_8*%
%TO.N,GND*%
X156591000Y-92710000D03*
%TD*%
D12*
%TO.P,J6,4*%
%TO.N,+5V*%
X106807000Y-110236000D03*
%TO.P,J6,3*%
%TO.N,GND*%
X106807000Y-107696000D03*
%TO.P,J6,2*%
%TO.N,+12V*%
X106807000Y-105156000D03*
D13*
%TO.P,J6,1*%
%TO.N,GND*%
X106807000Y-102616000D03*
%TD*%
D12*
%TO.P,J7,2*%
%TO.N,+5V*%
X102235000Y-122428000D03*
D13*
%TO.P,J7,1*%
%TO.N,GND*%
X102235000Y-119888000D03*
%TD*%
D14*
%TO.P,R2,2*%
%TO.N,Net-(R2-Pad2)*%
X81915000Y-71120000D03*
D15*
%TO.P,R2,1*%
%TO.N,UART_1*%
X89535000Y-71120000D03*
%TD*%
D14*
%TO.P,R1,2*%
%TO.N,Net-(R1-Pad2)*%
X73025000Y-66675000D03*
D15*
%TO.P,R1,1*%
%TO.N,UART_0*%
X80645000Y-66675000D03*
%TD*%
D12*
%TO.P,J9,2*%
%TO.N,Net-(J9-Pad2)*%
X60198000Y-114554000D03*
D13*
%TO.P,J9,1*%
%TO.N,GND*%
X62738000Y-114554000D03*
%TD*%
D12*
%TO.P,J8,2*%
%TO.N,Net-(J8-Pad2)*%
X52705000Y-114427000D03*
D13*
%TO.P,J8,1*%
%TO.N,GND*%
X55245000Y-114427000D03*
%TD*%
D12*
%TO.P,J5,4*%
%TO.N,Net-(J5-Pad4)*%
X161544000Y-66421000D03*
%TO.P,J5,3*%
%TO.N,Net-(J5-Pad3)*%
X159004000Y-66421000D03*
%TO.P,J5,2*%
%TO.N,Net-(J5-Pad2)*%
X156464000Y-66421000D03*
D13*
%TO.P,J5,1*%
%TO.N,Net-(J5-Pad1)*%
X153924000Y-66421000D03*
%TD*%
D12*
%TO.P,J4,4*%
%TO.N,Net-(J4-Pad4)*%
X145796000Y-66421000D03*
%TO.P,J4,3*%
%TO.N,Net-(J4-Pad3)*%
X143256000Y-66421000D03*
%TO.P,J4,2*%
%TO.N,Net-(J4-Pad2)*%
X140716000Y-66421000D03*
D13*
%TO.P,J4,1*%
%TO.N,Net-(J4-Pad1)*%
X138176000Y-66421000D03*
%TD*%
D12*
%TO.P,J3,8*%
%TO.N,S1_1*%
X69723000Y-120142000D03*
%TO.P,J3,7*%
%TO.N,S2_1*%
X69723000Y-122682000D03*
%TO.P,J3,6*%
%TO.N,P_DATA_1*%
X72263000Y-120142000D03*
%TO.P,J3,5*%
%TO.N,Net-(J3-Pad5)*%
X72263000Y-122682000D03*
%TO.P,J3,4*%
%TO.N,P_CLK_1*%
X74803000Y-120142000D03*
%TO.P,J3,3*%
%TO.N,GND*%
X74803000Y-122682000D03*
%TO.P,J3,2*%
%TO.N,+3.3V*%
X77343000Y-120142000D03*
D13*
%TO.P,J3,1*%
%TO.N,+5V*%
X77343000Y-122682000D03*
%TD*%
D12*
%TO.P,J1,8*%
%TO.N,I2C_DATA*%
X54102000Y-65786000D03*
%TO.P,J1,7*%
%TO.N,I2C_CLK*%
X54102000Y-68326000D03*
%TO.P,J1,6*%
%TO.N,B2*%
X56642000Y-65786000D03*
%TO.P,J1,5*%
%TO.N,B1*%
X56642000Y-68326000D03*
%TO.P,J1,4*%
%TO.N,Net-(J1-Pad4)*%
X59182000Y-65786000D03*
%TO.P,J1,3*%
%TO.N,GND*%
X59182000Y-68326000D03*
%TO.P,J1,2*%
%TO.N,+3.3V*%
X61722000Y-65786000D03*
D13*
%TO.P,J1,1*%
%TO.N,+5V*%
X61722000Y-68326000D03*
%TD*%
D16*
%TO.N,*%
X118194000Y-100634000D03*
X155194000Y-119634000D03*
%TD*%
D17*
%TO.N,GND*%
X100551999Y-121444001D02*
X102235000Y-119761000D01*
%TO.N,+5V*%
X101727000Y-122809000D02*
X102235000Y-122301000D01*
X53351598Y-64160990D02*
X49243999Y-68268589D01*
X61835992Y-64160990D02*
X53351598Y-64160990D01*
X62897001Y-65221999D02*
X61835992Y-64160990D01*
X49243999Y-68268589D02*
X49243999Y-114991001D01*
X62897001Y-67150999D02*
X62897001Y-65221999D01*
X61722000Y-68326000D02*
X62897001Y-67150999D01*
X91915999Y-123984001D02*
X92011500Y-123888500D01*
X92011500Y-123888500D02*
X93091000Y-122809000D01*
X58109999Y-123857001D02*
X58109999Y-123895999D01*
X102108000Y-105537000D02*
X106807000Y-110236000D01*
X92964000Y-105537000D02*
X102108000Y-105537000D01*
D18*
X102235000Y-122428000D02*
X105029000Y-122428000D01*
X106807000Y-120650000D02*
X106807000Y-110236000D01*
X105029000Y-122428000D02*
X106807000Y-120650000D01*
X77343000Y-122682000D02*
X80010000Y-125349000D01*
X90551000Y-125349000D02*
X93091000Y-122809000D01*
X80010000Y-125349000D02*
X90551000Y-125349000D01*
X93472000Y-122428000D02*
X93091000Y-122809000D01*
X102235000Y-122428000D02*
X93472000Y-122428000D01*
D17*
X59982998Y-125730000D02*
X57994999Y-123742001D01*
X74295000Y-125730000D02*
X59982998Y-125730000D01*
X77343000Y-122682000D02*
X74295000Y-125730000D01*
X57994999Y-123742001D02*
X58109999Y-123857001D01*
X49243999Y-114991001D02*
X57994999Y-123742001D01*
%TO.N,I2C_CLK*%
X54102000Y-76835000D02*
X57404000Y-80137000D01*
X54102000Y-68326000D02*
X54102000Y-76835000D01*
%TO.N,I2C_DATA*%
X55277001Y-75470001D02*
X59944000Y-80137000D01*
X55277001Y-66961001D02*
X55277001Y-75470001D01*
X54102000Y-65786000D02*
X55277001Y-66961001D01*
%TO.N,B2*%
X86346989Y-103999989D02*
X87884000Y-105537000D01*
X61031001Y-73326001D02*
X61031001Y-80658761D01*
X61031001Y-80658761D02*
X84372229Y-103999989D01*
X57817001Y-70112001D02*
X61031001Y-73326001D01*
X57817001Y-66961001D02*
X57817001Y-70112001D01*
X84372229Y-103999989D02*
X86346989Y-103999989D01*
X56642000Y-65786000D02*
X57817001Y-66961001D01*
%TO.N,B1*%
X55466999Y-66514589D02*
X56642000Y-67689590D01*
X56642000Y-67689590D02*
X56642000Y-68326000D01*
X55466999Y-65411997D02*
X55466999Y-66514589D01*
X54666001Y-64610999D02*
X55466999Y-65411997D01*
X53537999Y-64610999D02*
X54666001Y-64610999D01*
X52926999Y-65221999D02*
X53537999Y-64610999D01*
X52926999Y-77268761D02*
X52926999Y-65221999D01*
X80108237Y-104449999D02*
X52926999Y-77268761D01*
X84256999Y-104449999D02*
X80108237Y-104449999D01*
X85344000Y-105537000D02*
X84256999Y-104449999D01*
%TO.N,+12V*%
X106934000Y-105283000D02*
X106807000Y-105156000D01*
%TO.N,S1_0*%
X86646001Y-121444001D02*
X85471000Y-120269000D01*
X88575001Y-121444001D02*
X86646001Y-121444001D01*
X89186001Y-120833001D02*
X88575001Y-121444001D01*
X89186001Y-116999001D02*
X89186001Y-120833001D01*
X77724000Y-105537000D02*
X89186001Y-116999001D01*
%TO.N,S2_0*%
X74096999Y-111434999D02*
X85471000Y-122809000D01*
X74096999Y-105015239D02*
X74096999Y-111434999D01*
X74662239Y-104449999D02*
X74096999Y-105015239D01*
X79176999Y-104449999D02*
X74662239Y-104449999D01*
X80264000Y-105537000D02*
X79176999Y-104449999D01*
%TO.N,P_DATA_0*%
X75184000Y-107442000D02*
X88011000Y-120269000D01*
X75184000Y-105537000D02*
X75184000Y-107442000D01*
%TO.N,P_CLK_0*%
X91876999Y-114609999D02*
X82804000Y-105537000D01*
X91876999Y-118943001D02*
X91876999Y-114609999D01*
X90551000Y-120269000D02*
X91876999Y-118943001D01*
%TO.N,S1_1*%
X65024000Y-115443000D02*
X69723000Y-120142000D01*
X65024000Y-105537000D02*
X65024000Y-115443000D01*
%TO.N,P_DATA_1*%
X72644000Y-119761000D02*
X72263000Y-120142000D01*
X72644000Y-105537000D02*
X72644000Y-119761000D01*
%TO.N,P_CLK_1*%
X73627999Y-121317001D02*
X74803000Y-120142000D01*
X71698999Y-121317001D02*
X73627999Y-121317001D01*
X71087999Y-120706001D02*
X71698999Y-121317001D01*
X71087999Y-106520999D02*
X71087999Y-120706001D01*
X70104000Y-105537000D02*
X71087999Y-106520999D01*
%TO.N,EN_1*%
X144978001Y-76017001D02*
X143891000Y-74930000D01*
X143735237Y-88717001D02*
X144412761Y-88717001D01*
X144978001Y-88151761D02*
X144978001Y-76017001D01*
X138655237Y-93797001D02*
X143735237Y-88717001D01*
X144412761Y-88717001D02*
X144978001Y-88151761D01*
X88844001Y-93797001D02*
X138655237Y-93797001D01*
X75184000Y-80137000D02*
X88844001Y-93797001D01*
%TO.N,DIR_1*%
X151828500Y-84772500D02*
X143891000Y-92710000D01*
X151828500Y-64706500D02*
X151828500Y-84772500D01*
X80095257Y-63456981D02*
X150578981Y-63456981D01*
X63936999Y-79615239D02*
X80095257Y-63456981D01*
X64952248Y-81674010D02*
X63936999Y-80658761D01*
X150578981Y-63456981D02*
X151828500Y-64706500D01*
X71106990Y-81674010D02*
X64952248Y-81674010D01*
X63936999Y-80658761D02*
X63936999Y-79615239D01*
X72644000Y-80137000D02*
X71106990Y-81674010D01*
%TO.N,PULS_1*%
X151193500Y-82867500D02*
X143891000Y-90170000D01*
X151193500Y-65087500D02*
X151193500Y-82867500D01*
X150012990Y-63906990D02*
X151193500Y-65087500D01*
X81748008Y-63906990D02*
X150012990Y-63906990D01*
X70104000Y-75550998D02*
X81748008Y-63906990D01*
X70104000Y-80137000D02*
X70104000Y-75550998D01*
%TO.N,EN_0*%
X88815238Y-80137000D02*
X87884000Y-80137000D01*
X94022238Y-74930000D02*
X88815238Y-80137000D01*
X119761000Y-74930000D02*
X94022238Y-74930000D01*
%TO.N,DIR_0*%
X86275238Y-80137000D02*
X85344000Y-80137000D01*
X120848001Y-91622999D02*
X119761000Y-92710000D01*
X120848001Y-74408239D02*
X120848001Y-91622999D01*
X120282761Y-73842999D02*
X120848001Y-74408239D01*
X91638001Y-73842999D02*
X120282761Y-73842999D01*
X85344000Y-80137000D02*
X91638001Y-73842999D01*
%TO.N,PULS_0*%
X92837000Y-90170000D02*
X82804000Y-80137000D01*
X119761000Y-90170000D02*
X92837000Y-90170000D01*
%TO.N,Net-(J4-Pad1)*%
X138176000Y-66421000D02*
X136652000Y-67945000D01*
X136652000Y-75819000D02*
X132461000Y-80010000D01*
X136652000Y-67945000D02*
X136652000Y-75819000D01*
%TO.N,Net-(J4-Pad2)*%
X132461000Y-82296000D02*
X132461000Y-82550000D01*
X140716000Y-66421000D02*
X138303000Y-68834000D01*
X138303000Y-76708000D02*
X132461000Y-82550000D01*
X138303000Y-68834000D02*
X138303000Y-76708000D01*
%TO.N,Net-(J4-Pad3)*%
X143256000Y-66421000D02*
X140081000Y-69596000D01*
X140081000Y-77470000D02*
X132461000Y-85090000D01*
X140081000Y-69596000D02*
X140081000Y-77470000D01*
%TO.N,Net-(J4-Pad4)*%
X145796000Y-66421000D02*
X141986000Y-70231000D01*
X141986000Y-78105000D02*
X132461000Y-87630000D01*
X141986000Y-70231000D02*
X141986000Y-78105000D01*
%TO.N,Net-(J5-Pad4)*%
X161544000Y-82677000D02*
X156591000Y-87630000D01*
X161544000Y-66421000D02*
X161544000Y-82677000D01*
%TO.N,Net-(J5-Pad3)*%
X156591000Y-84158762D02*
X156591000Y-85090000D01*
X159004000Y-66421000D02*
X160147000Y-67564000D01*
X160147000Y-81534000D02*
X156591000Y-85090000D01*
X160147000Y-67564000D02*
X160147000Y-81534000D01*
%TO.N,Net-(J5-Pad2)*%
X158128011Y-81012989D02*
X156591000Y-82550000D01*
X158877000Y-80264000D02*
X156591000Y-82550000D01*
X158877000Y-80010000D02*
X158877000Y-80264000D01*
X158750000Y-68707000D02*
X158877000Y-68834000D01*
X156464000Y-66421000D02*
X158750000Y-68707000D01*
X158877000Y-68834000D02*
X158877000Y-80010000D01*
%TO.N,Net-(J5-Pad1)*%
X157678001Y-78922999D02*
X156591000Y-80010000D01*
X157678001Y-69921001D02*
X157678001Y-78922999D01*
X154178000Y-66421000D02*
X157678001Y-69921001D01*
X153924000Y-66421000D02*
X154178000Y-66421000D01*
%TO.N,Net-(J8-Pad2)*%
X59944000Y-105537000D02*
X52832000Y-112649000D01*
X52832000Y-114300000D02*
X52705000Y-114427000D01*
X52832000Y-112649000D02*
X52832000Y-114300000D01*
%TO.N,Net-(J9-Pad2)*%
X62484000Y-112268000D02*
X60198000Y-114554000D01*
X62484000Y-105537000D02*
X62484000Y-112268000D01*
%TO.N,UART_0*%
X66111001Y-81224001D02*
X65024000Y-80137000D01*
X70625761Y-81224001D02*
X66111001Y-81224001D01*
X71191001Y-80658761D02*
X70625761Y-81224001D01*
X71191001Y-76128999D02*
X71191001Y-80658761D01*
X80645000Y-66675000D02*
X71191001Y-76128999D01*
%TO.N,UART_1*%
X81462999Y-78938001D02*
X80264000Y-80137000D01*
X81716999Y-78938001D02*
X81462999Y-78938001D01*
X89535000Y-71120000D02*
X81716999Y-78938001D01*
X92144009Y-68510991D02*
X89535000Y-71120000D01*
X132305237Y-89082999D02*
X129921000Y-86698762D01*
X139898001Y-89082999D02*
X132305237Y-89082999D01*
X143891000Y-85090000D02*
X139898001Y-89082999D01*
X120030753Y-68510991D02*
X92144009Y-68510991D01*
X129921000Y-78401238D02*
X120030753Y-68510991D01*
X129921000Y-86698762D02*
X129921000Y-78401238D01*
%TO.N,Net-(R1-Pad2)*%
X62484000Y-77216000D02*
X73025000Y-66675000D01*
X62484000Y-80137000D02*
X62484000Y-77216000D01*
%TO.N,Net-(R2-Pad2)*%
X81915000Y-75946000D02*
X77724000Y-80137000D01*
X81915000Y-71120000D02*
X81915000Y-75946000D01*
%TD*%
D19*
%TO.N,GND*%
X63425997Y-79051440D02*
X63397490Y-79074835D01*
X63374535Y-79051880D01*
X63244000Y-78964659D01*
X63244000Y-77530801D01*
X72701114Y-68073688D01*
X72883665Y-68110000D01*
X73166335Y-68110000D01*
X73443574Y-68054853D01*
X73704727Y-67946680D01*
X73939759Y-67789637D01*
X74139637Y-67589759D01*
X74296680Y-67354727D01*
X74404853Y-67093574D01*
X74460000Y-66816335D01*
X74460000Y-66533665D01*
X74404853Y-66256426D01*
X74296680Y-65995273D01*
X74139637Y-65760241D01*
X73939759Y-65560363D01*
X73704727Y-65403320D01*
X73443574Y-65295147D01*
X73166335Y-65240000D01*
X72883665Y-65240000D01*
X72606426Y-65295147D01*
X72345273Y-65403320D01*
X72110241Y-65560363D01*
X71910363Y-65760241D01*
X71753320Y-65995273D01*
X71645147Y-66256426D01*
X71590000Y-66533665D01*
X71590000Y-66816335D01*
X71626312Y-66998886D01*
X61972998Y-76652201D01*
X61944000Y-76675999D01*
X61920202Y-76704997D01*
X61920201Y-76704998D01*
X61849026Y-76791724D01*
X61791001Y-76900280D01*
X61791001Y-73363323D01*
X61794677Y-73326000D01*
X61791001Y-73288677D01*
X61791001Y-73288668D01*
X61780004Y-73177015D01*
X61736547Y-73033754D01*
X61665975Y-72901725D01*
X61652812Y-72885686D01*
X61594800Y-72814997D01*
X61594796Y-72814993D01*
X61571002Y-72786000D01*
X61542010Y-72762207D01*
X58577001Y-69797200D01*
X58577001Y-69674765D01*
X58677901Y-69722825D01*
X58825110Y-69767476D01*
X59055000Y-69646155D01*
X59055000Y-68453000D01*
X59035000Y-68453000D01*
X59035000Y-68199000D01*
X59055000Y-68199000D01*
X59055000Y-68179000D01*
X59309000Y-68179000D01*
X59309000Y-68199000D01*
X59329000Y-68199000D01*
X59329000Y-68453000D01*
X59309000Y-68453000D01*
X59309000Y-69646155D01*
X59538890Y-69767476D01*
X59686099Y-69722825D01*
X59948920Y-69597641D01*
X60182269Y-69423588D01*
X60258034Y-69339534D01*
X60282498Y-69420180D01*
X60341463Y-69530494D01*
X60420815Y-69627185D01*
X60517506Y-69706537D01*
X60627820Y-69765502D01*
X60747518Y-69801812D01*
X60872000Y-69814072D01*
X62572000Y-69814072D01*
X62696482Y-69801812D01*
X62816180Y-69765502D01*
X62926494Y-69706537D01*
X63023185Y-69627185D01*
X63102537Y-69530494D01*
X63161502Y-69420180D01*
X63197812Y-69300482D01*
X63210072Y-69176000D01*
X63210072Y-67912730D01*
X63408005Y-67714797D01*
X63437002Y-67691000D01*
X63531975Y-67575275D01*
X63602547Y-67443246D01*
X63646004Y-67299985D01*
X63657001Y-67188332D01*
X63657001Y-67188323D01*
X63660677Y-67151000D01*
X63657001Y-67113677D01*
X63657001Y-65259321D01*
X63660677Y-65221998D01*
X63657001Y-65184675D01*
X63657001Y-65184666D01*
X63646004Y-65073013D01*
X63602547Y-64929752D01*
X63531975Y-64797723D01*
X63437002Y-64681998D01*
X63408004Y-64658200D01*
X62399796Y-63649992D01*
X62375993Y-63620989D01*
X62260268Y-63526016D01*
X62128239Y-63455444D01*
X61984978Y-63411987D01*
X61873325Y-63400990D01*
X61873314Y-63400990D01*
X61835992Y-63397314D01*
X61798670Y-63400990D01*
X53388920Y-63400990D01*
X53351597Y-63397314D01*
X53314274Y-63400990D01*
X53314265Y-63400990D01*
X53202612Y-63411987D01*
X53059351Y-63455444D01*
X52927322Y-63526016D01*
X52811597Y-63620989D01*
X52787799Y-63649987D01*
X48733002Y-67704785D01*
X48703998Y-67728588D01*
X48653897Y-67789637D01*
X48609025Y-67844313D01*
X48571415Y-67914676D01*
X48538453Y-67976343D01*
X48494996Y-68119604D01*
X48483999Y-68231257D01*
X48483999Y-68231267D01*
X48480323Y-68268589D01*
X48483999Y-68305911D01*
X48484000Y-114953668D01*
X48480323Y-114991001D01*
X48484000Y-115028334D01*
X48494997Y-115139987D01*
X48498263Y-115150754D01*
X48538453Y-115283247D01*
X48609025Y-115415277D01*
X48662416Y-115480333D01*
X48703999Y-115531002D01*
X48732997Y-115554800D01*
X57448102Y-124269906D01*
X57475025Y-124320275D01*
X57569998Y-124436000D01*
X57685724Y-124530973D01*
X57736093Y-124557896D01*
X59419199Y-126241003D01*
X59442997Y-126270001D01*
X59471995Y-126293799D01*
X59528290Y-126340000D01*
X47648702Y-126340000D01*
X47524300Y-63144000D01*
X79333436Y-63144000D01*
X63425997Y-79051440D01*
%TA.AperFunction,Conductor*%
D20*
G36*
X63425997Y-79051440D02*
G01*
X63397490Y-79074835D01*
X63374535Y-79051880D01*
X63244000Y-78964659D01*
X63244000Y-77530801D01*
X72701114Y-68073688D01*
X72883665Y-68110000D01*
X73166335Y-68110000D01*
X73443574Y-68054853D01*
X73704727Y-67946680D01*
X73939759Y-67789637D01*
X74139637Y-67589759D01*
X74296680Y-67354727D01*
X74404853Y-67093574D01*
X74460000Y-66816335D01*
X74460000Y-66533665D01*
X74404853Y-66256426D01*
X74296680Y-65995273D01*
X74139637Y-65760241D01*
X73939759Y-65560363D01*
X73704727Y-65403320D01*
X73443574Y-65295147D01*
X73166335Y-65240000D01*
X72883665Y-65240000D01*
X72606426Y-65295147D01*
X72345273Y-65403320D01*
X72110241Y-65560363D01*
X71910363Y-65760241D01*
X71753320Y-65995273D01*
X71645147Y-66256426D01*
X71590000Y-66533665D01*
X71590000Y-66816335D01*
X71626312Y-66998886D01*
X61972998Y-76652201D01*
X61944000Y-76675999D01*
X61920202Y-76704997D01*
X61920201Y-76704998D01*
X61849026Y-76791724D01*
X61791001Y-76900280D01*
X61791001Y-73363323D01*
X61794677Y-73326000D01*
X61791001Y-73288677D01*
X61791001Y-73288668D01*
X61780004Y-73177015D01*
X61736547Y-73033754D01*
X61665975Y-72901725D01*
X61652812Y-72885686D01*
X61594800Y-72814997D01*
X61594796Y-72814993D01*
X61571002Y-72786000D01*
X61542010Y-72762207D01*
X58577001Y-69797200D01*
X58577001Y-69674765D01*
X58677901Y-69722825D01*
X58825110Y-69767476D01*
X59055000Y-69646155D01*
X59055000Y-68453000D01*
X59035000Y-68453000D01*
X59035000Y-68199000D01*
X59055000Y-68199000D01*
X59055000Y-68179000D01*
X59309000Y-68179000D01*
X59309000Y-68199000D01*
X59329000Y-68199000D01*
X59329000Y-68453000D01*
X59309000Y-68453000D01*
X59309000Y-69646155D01*
X59538890Y-69767476D01*
X59686099Y-69722825D01*
X59948920Y-69597641D01*
X60182269Y-69423588D01*
X60258034Y-69339534D01*
X60282498Y-69420180D01*
X60341463Y-69530494D01*
X60420815Y-69627185D01*
X60517506Y-69706537D01*
X60627820Y-69765502D01*
X60747518Y-69801812D01*
X60872000Y-69814072D01*
X62572000Y-69814072D01*
X62696482Y-69801812D01*
X62816180Y-69765502D01*
X62926494Y-69706537D01*
X63023185Y-69627185D01*
X63102537Y-69530494D01*
X63161502Y-69420180D01*
X63197812Y-69300482D01*
X63210072Y-69176000D01*
X63210072Y-67912730D01*
X63408005Y-67714797D01*
X63437002Y-67691000D01*
X63531975Y-67575275D01*
X63602547Y-67443246D01*
X63646004Y-67299985D01*
X63657001Y-67188332D01*
X63657001Y-67188323D01*
X63660677Y-67151000D01*
X63657001Y-67113677D01*
X63657001Y-65259321D01*
X63660677Y-65221998D01*
X63657001Y-65184675D01*
X63657001Y-65184666D01*
X63646004Y-65073013D01*
X63602547Y-64929752D01*
X63531975Y-64797723D01*
X63437002Y-64681998D01*
X63408004Y-64658200D01*
X62399796Y-63649992D01*
X62375993Y-63620989D01*
X62260268Y-63526016D01*
X62128239Y-63455444D01*
X61984978Y-63411987D01*
X61873325Y-63400990D01*
X61873314Y-63400990D01*
X61835992Y-63397314D01*
X61798670Y-63400990D01*
X53388920Y-63400990D01*
X53351597Y-63397314D01*
X53314274Y-63400990D01*
X53314265Y-63400990D01*
X53202612Y-63411987D01*
X53059351Y-63455444D01*
X52927322Y-63526016D01*
X52811597Y-63620989D01*
X52787799Y-63649987D01*
X48733002Y-67704785D01*
X48703998Y-67728588D01*
X48653897Y-67789637D01*
X48609025Y-67844313D01*
X48571415Y-67914676D01*
X48538453Y-67976343D01*
X48494996Y-68119604D01*
X48483999Y-68231257D01*
X48483999Y-68231267D01*
X48480323Y-68268589D01*
X48483999Y-68305911D01*
X48484000Y-114953668D01*
X48480323Y-114991001D01*
X48484000Y-115028334D01*
X48494997Y-115139987D01*
X48498263Y-115150754D01*
X48538453Y-115283247D01*
X48609025Y-115415277D01*
X48662416Y-115480333D01*
X48703999Y-115531002D01*
X48732997Y-115554800D01*
X57448102Y-124269906D01*
X57475025Y-124320275D01*
X57569998Y-124436000D01*
X57685724Y-124530973D01*
X57736093Y-124557896D01*
X59419199Y-126241003D01*
X59442997Y-126270001D01*
X59471995Y-126293799D01*
X59528290Y-126340000D01*
X47648702Y-126340000D01*
X47524300Y-63144000D01*
X79333436Y-63144000D01*
X63425997Y-79051440D01*
G37*
%TD.AperFunction*%
D19*
X166978700Y-126340000D02*
X90763449Y-126340000D01*
X90939380Y-126286632D01*
X91114840Y-126192847D01*
X91268633Y-126066633D01*
X91300261Y-126028094D01*
X93031284Y-124297072D01*
X93941000Y-124297072D01*
X94065482Y-124284812D01*
X94185180Y-124248502D01*
X94295494Y-124189537D01*
X94392185Y-124110185D01*
X94471537Y-124013494D01*
X94530502Y-123903180D01*
X94566812Y-123783482D01*
X94579072Y-123659000D01*
X94579072Y-123438000D01*
X101144893Y-123438000D01*
X101288368Y-123581475D01*
X101531589Y-123743990D01*
X101801842Y-123855932D01*
X102088740Y-123913000D01*
X102381260Y-123913000D01*
X102668158Y-123855932D01*
X102938411Y-123743990D01*
X103181632Y-123581475D01*
X103325107Y-123438000D01*
X104979392Y-123438000D01*
X105029000Y-123442886D01*
X105226994Y-123423385D01*
X105352177Y-123385411D01*
X105417380Y-123365632D01*
X105592840Y-123271847D01*
X105746633Y-123145633D01*
X105778261Y-123107094D01*
X107486099Y-121399256D01*
X107524633Y-121367633D01*
X107650847Y-121213840D01*
X107744632Y-121038380D01*
X107763996Y-120974545D01*
X107802385Y-120847995D01*
X107821886Y-120650000D01*
X107817000Y-120600392D01*
X107817000Y-119261210D01*
X151409000Y-119261210D01*
X151409000Y-120006790D01*
X151554455Y-120738044D01*
X151839777Y-121426870D01*
X152253999Y-122046797D01*
X152781203Y-122574001D01*
X153401130Y-122988223D01*
X154089956Y-123273545D01*
X154821210Y-123419000D01*
X155566790Y-123419000D01*
X156298044Y-123273545D01*
X156986870Y-122988223D01*
X157606797Y-122574001D01*
X158134001Y-122046797D01*
X158548223Y-121426870D01*
X158833545Y-120738044D01*
X158979000Y-120006790D01*
X158979000Y-119261210D01*
X158833545Y-118529956D01*
X158548223Y-117841130D01*
X158134001Y-117221203D01*
X157606797Y-116693999D01*
X156986870Y-116279777D01*
X156298044Y-115994455D01*
X155566790Y-115849000D01*
X154821210Y-115849000D01*
X154089956Y-115994455D01*
X153401130Y-116279777D01*
X152781203Y-116693999D01*
X152253999Y-117221203D01*
X151839777Y-117841130D01*
X151554455Y-118529956D01*
X151409000Y-119261210D01*
X107817000Y-119261210D01*
X107817000Y-111326107D01*
X107960475Y-111182632D01*
X108122990Y-110939411D01*
X108234932Y-110669158D01*
X108292000Y-110382260D01*
X108292000Y-110089740D01*
X108234932Y-109802842D01*
X108122990Y-109532589D01*
X107960475Y-109289368D01*
X107753632Y-109082525D01*
X107571466Y-108960805D01*
X107688355Y-108891178D01*
X107904588Y-108696269D01*
X108078641Y-108462920D01*
X108203825Y-108200099D01*
X108248476Y-108052890D01*
X108127155Y-107823000D01*
X106934000Y-107823000D01*
X106934000Y-107843000D01*
X106680000Y-107843000D01*
X106680000Y-107823000D01*
X106660000Y-107823000D01*
X106660000Y-107569000D01*
X106680000Y-107569000D01*
X106680000Y-107549000D01*
X106934000Y-107549000D01*
X106934000Y-107569000D01*
X108127155Y-107569000D01*
X108248476Y-107339110D01*
X108203825Y-107191901D01*
X108078641Y-106929080D01*
X107904588Y-106695731D01*
X107688355Y-106500822D01*
X107571466Y-106431195D01*
X107753632Y-106309475D01*
X107960475Y-106102632D01*
X108122990Y-105859411D01*
X108234932Y-105589158D01*
X108292000Y-105302260D01*
X108292000Y-105009740D01*
X108234932Y-104722842D01*
X108122990Y-104452589D01*
X107960475Y-104209368D01*
X107828620Y-104077513D01*
X107901180Y-104055502D01*
X108011494Y-103996537D01*
X108108185Y-103917185D01*
X108187537Y-103820494D01*
X108246502Y-103710180D01*
X108282812Y-103590482D01*
X108295072Y-103466000D01*
X108292000Y-102901750D01*
X108133250Y-102743000D01*
X106934000Y-102743000D01*
X106934000Y-102763000D01*
X106680000Y-102763000D01*
X106680000Y-102743000D01*
X105480750Y-102743000D01*
X105322000Y-102901750D01*
X105318928Y-103466000D01*
X105331188Y-103590482D01*
X105367498Y-103710180D01*
X105426463Y-103820494D01*
X105505815Y-103917185D01*
X105602506Y-103996537D01*
X105712820Y-104055502D01*
X105785380Y-104077513D01*
X105653525Y-104209368D01*
X105491010Y-104452589D01*
X105379068Y-104722842D01*
X105322000Y-105009740D01*
X105322000Y-105302260D01*
X105379068Y-105589158D01*
X105491010Y-105859411D01*
X105653525Y-106102632D01*
X105860368Y-106309475D01*
X106042534Y-106431195D01*
X105925645Y-106500822D01*
X105709412Y-106695731D01*
X105535359Y-106929080D01*
X105410175Y-107191901D01*
X105365524Y-107339110D01*
X105486844Y-107568998D01*
X105322000Y-107568998D01*
X105322000Y-107676199D01*
X102671804Y-105026003D01*
X102648001Y-104996999D01*
X102532276Y-104902026D01*
X102400247Y-104831454D01*
X102256986Y-104787997D01*
X102145333Y-104777000D01*
X102145322Y-104777000D01*
X102108000Y-104773324D01*
X102070678Y-104777000D01*
X94136341Y-104777000D01*
X94049120Y-104646465D01*
X93854535Y-104451880D01*
X93625727Y-104298995D01*
X93371490Y-104193686D01*
X93101592Y-104140000D01*
X92826408Y-104140000D01*
X92556510Y-104193686D01*
X92302273Y-104298995D01*
X92073465Y-104451880D01*
X91878880Y-104646465D01*
X91725995Y-104875273D01*
X91696308Y-104946943D01*
X91691636Y-104933977D01*
X91629656Y-104818020D01*
X91389565Y-104751040D01*
X90603605Y-105537000D01*
X91389565Y-106322960D01*
X91629656Y-106255980D01*
X91693485Y-106120240D01*
X91725995Y-106198727D01*
X91878880Y-106427535D01*
X92073465Y-106622120D01*
X92302273Y-106775005D01*
X92556510Y-106880314D01*
X92826408Y-106934000D01*
X93101592Y-106934000D01*
X93371490Y-106880314D01*
X93625727Y-106775005D01*
X93854535Y-106622120D01*
X94049120Y-106427535D01*
X94136341Y-106297000D01*
X101793199Y-106297000D01*
X105365790Y-109869592D01*
X105322000Y-110089740D01*
X105322000Y-110382260D01*
X105379068Y-110669158D01*
X105491010Y-110939411D01*
X105653525Y-111182632D01*
X105797001Y-111326108D01*
X105797000Y-120231644D01*
X104610645Y-121418000D01*
X103325107Y-121418000D01*
X103256620Y-121349513D01*
X103329180Y-121327502D01*
X103439494Y-121268537D01*
X103536185Y-121189185D01*
X103615537Y-121092494D01*
X103674502Y-120982180D01*
X103710812Y-120862482D01*
X103723072Y-120738000D01*
X103720000Y-120173750D01*
X103561250Y-120015000D01*
X102362000Y-120015000D01*
X102362000Y-120035000D01*
X102108000Y-120035000D01*
X102108000Y-120015000D01*
X100908750Y-120015000D01*
X100750000Y-120173750D01*
X100746928Y-120738000D01*
X100759188Y-120862482D01*
X100795498Y-120982180D01*
X100854463Y-121092494D01*
X100933815Y-121189185D01*
X101030506Y-121268537D01*
X101140820Y-121327502D01*
X101213380Y-121349513D01*
X101144893Y-121418000D01*
X94275919Y-121418000D01*
X94185180Y-121369498D01*
X94112620Y-121347487D01*
X94244475Y-121215632D01*
X94406990Y-120972411D01*
X94518932Y-120702158D01*
X94576000Y-120415260D01*
X94576000Y-120122740D01*
X94518932Y-119835842D01*
X94406990Y-119565589D01*
X94244475Y-119322368D01*
X94037632Y-119115525D01*
X93921608Y-119038000D01*
X100746928Y-119038000D01*
X100750000Y-119602250D01*
X100908750Y-119761000D01*
X102108000Y-119761000D01*
X102108000Y-118561750D01*
X102362000Y-118561750D01*
X102362000Y-119761000D01*
X103561250Y-119761000D01*
X103720000Y-119602250D01*
X103723072Y-119038000D01*
X103710812Y-118913518D01*
X103674502Y-118793820D01*
X103615537Y-118683506D01*
X103536185Y-118586815D01*
X103439494Y-118507463D01*
X103329180Y-118448498D01*
X103209482Y-118412188D01*
X103085000Y-118399928D01*
X102520750Y-118403000D01*
X102362000Y-118561750D01*
X102108000Y-118561750D01*
X101949250Y-118403000D01*
X101385000Y-118399928D01*
X101260518Y-118412188D01*
X101140820Y-118448498D01*
X101030506Y-118507463D01*
X100933815Y-118586815D01*
X100854463Y-118683506D01*
X100795498Y-118793820D01*
X100759188Y-118913518D01*
X100746928Y-119038000D01*
X93921608Y-119038000D01*
X93794411Y-118953010D01*
X93524158Y-118841068D01*
X93237260Y-118784000D01*
X92944740Y-118784000D01*
X92657842Y-118841068D01*
X92636999Y-118849701D01*
X92636999Y-114647321D01*
X92640675Y-114609998D01*
X92636999Y-114572675D01*
X92636999Y-114572666D01*
X92626002Y-114461013D01*
X92582545Y-114317752D01*
X92511973Y-114185723D01*
X92417000Y-114069998D01*
X92388002Y-114046200D01*
X85275801Y-106934000D01*
X85481592Y-106934000D01*
X85751490Y-106880314D01*
X86005727Y-106775005D01*
X86234535Y-106622120D01*
X86429120Y-106427535D01*
X86582005Y-106198727D01*
X86614000Y-106121485D01*
X86645995Y-106198727D01*
X86798880Y-106427535D01*
X86993465Y-106622120D01*
X87222273Y-106775005D01*
X87476510Y-106880314D01*
X87746408Y-106934000D01*
X88021592Y-106934000D01*
X88291490Y-106880314D01*
X88545727Y-106775005D01*
X88774535Y-106622120D01*
X88894090Y-106502565D01*
X89638040Y-106502565D01*
X89705020Y-106742656D01*
X89954048Y-106859756D01*
X90221135Y-106926023D01*
X90496017Y-106938910D01*
X90768133Y-106897922D01*
X91027023Y-106804636D01*
X91142980Y-106742656D01*
X91209960Y-106502565D01*
X90424000Y-105716605D01*
X89638040Y-106502565D01*
X88894090Y-106502565D01*
X88969120Y-106427535D01*
X89122005Y-106198727D01*
X89151692Y-106127057D01*
X89156364Y-106140023D01*
X89218344Y-106255980D01*
X89458435Y-106322960D01*
X90244395Y-105537000D01*
X89458435Y-104751040D01*
X89218344Y-104818020D01*
X89154515Y-104953760D01*
X89122005Y-104875273D01*
X88969120Y-104646465D01*
X88894090Y-104571435D01*
X89638040Y-104571435D01*
X90424000Y-105357395D01*
X91209960Y-104571435D01*
X91142980Y-104331344D01*
X90893952Y-104214244D01*
X90626865Y-104147977D01*
X90351983Y-104135090D01*
X90079867Y-104176078D01*
X89820977Y-104269364D01*
X89705020Y-104331344D01*
X89638040Y-104571435D01*
X88894090Y-104571435D01*
X88774535Y-104451880D01*
X88545727Y-104298995D01*
X88291490Y-104193686D01*
X88021592Y-104140000D01*
X87746408Y-104140000D01*
X87592430Y-104170628D01*
X86910793Y-103488992D01*
X86886990Y-103459988D01*
X86771265Y-103365015D01*
X86639236Y-103294443D01*
X86495975Y-103250986D01*
X86384322Y-103239989D01*
X86384311Y-103239989D01*
X86346989Y-103236313D01*
X86309667Y-103239989D01*
X84687031Y-103239989D01*
X83213042Y-101766000D01*
X105318928Y-101766000D01*
X105322000Y-102330250D01*
X105480750Y-102489000D01*
X106680000Y-102489000D01*
X106680000Y-101289750D01*
X106934000Y-101289750D01*
X106934000Y-102489000D01*
X108133250Y-102489000D01*
X108292000Y-102330250D01*
X108295072Y-101766000D01*
X108282812Y-101641518D01*
X108246502Y-101521820D01*
X108187537Y-101411506D01*
X108108185Y-101314815D01*
X108011494Y-101235463D01*
X107901180Y-101176498D01*
X107781482Y-101140188D01*
X107657000Y-101127928D01*
X107092750Y-101131000D01*
X106934000Y-101289750D01*
X106680000Y-101289750D01*
X106521250Y-101131000D01*
X105957000Y-101127928D01*
X105832518Y-101140188D01*
X105712820Y-101176498D01*
X105602506Y-101235463D01*
X105505815Y-101314815D01*
X105426463Y-101411506D01*
X105367498Y-101521820D01*
X105331188Y-101641518D01*
X105318928Y-101766000D01*
X83213042Y-101766000D01*
X81708252Y-100261210D01*
X114409000Y-100261210D01*
X114409000Y-101006790D01*
X114554455Y-101738044D01*
X114839777Y-102426870D01*
X115253999Y-103046797D01*
X115781203Y-103574001D01*
X116401130Y-103988223D01*
X117089956Y-104273545D01*
X117821210Y-104419000D01*
X118566790Y-104419000D01*
X119298044Y-104273545D01*
X119986870Y-103988223D01*
X120606797Y-103574001D01*
X121134001Y-103046797D01*
X121548223Y-102426870D01*
X121833545Y-101738044D01*
X121979000Y-101006790D01*
X121979000Y-100261210D01*
X121833545Y-99529956D01*
X121548223Y-98841130D01*
X121134001Y-98221203D01*
X120606797Y-97693999D01*
X119986870Y-97279777D01*
X119298044Y-96994455D01*
X118566790Y-96849000D01*
X117821210Y-96849000D01*
X117089956Y-96994455D01*
X116401130Y-97279777D01*
X115781203Y-97693999D01*
X115253999Y-98221203D01*
X114839777Y-98841130D01*
X114554455Y-99529956D01*
X114409000Y-100261210D01*
X81708252Y-100261210D01*
X62916850Y-81469809D01*
X63145727Y-81375005D01*
X63374535Y-81222120D01*
X63397490Y-81199165D01*
X63426001Y-81222565D01*
X64388449Y-82185013D01*
X64412247Y-82214011D01*
X64441245Y-82237809D01*
X64527971Y-82308984D01*
X64660001Y-82379556D01*
X64803262Y-82423013D01*
X64914915Y-82434010D01*
X64914925Y-82434010D01*
X64952248Y-82437686D01*
X64989571Y-82434010D01*
X71069668Y-82434010D01*
X71106990Y-82437686D01*
X71144312Y-82434010D01*
X71144323Y-82434010D01*
X71255976Y-82423013D01*
X71399237Y-82379556D01*
X71531266Y-82308984D01*
X71646991Y-82214011D01*
X71670793Y-82185008D01*
X72352430Y-81503372D01*
X72506408Y-81534000D01*
X72781592Y-81534000D01*
X73051490Y-81480314D01*
X73305727Y-81375005D01*
X73534535Y-81222120D01*
X73729120Y-81027535D01*
X73882005Y-80798727D01*
X73914000Y-80721485D01*
X73945995Y-80798727D01*
X74098880Y-81027535D01*
X74293465Y-81222120D01*
X74522273Y-81375005D01*
X74776510Y-81480314D01*
X75046408Y-81534000D01*
X75321592Y-81534000D01*
X75475571Y-81503372D01*
X88280202Y-94308004D01*
X88304000Y-94337002D01*
X88419725Y-94431975D01*
X88551754Y-94502547D01*
X88695015Y-94546004D01*
X88806668Y-94557001D01*
X88806676Y-94557001D01*
X88844001Y-94560677D01*
X88881326Y-94557001D01*
X138617915Y-94557001D01*
X138655237Y-94560677D01*
X138692559Y-94557001D01*
X138692570Y-94557001D01*
X138804223Y-94546004D01*
X138947484Y-94502547D01*
X139079513Y-94431975D01*
X139195238Y-94337002D01*
X139219041Y-94307998D01*
X142669945Y-90857095D01*
X142805880Y-91060535D01*
X143000465Y-91255120D01*
X143088465Y-91313920D01*
X143004518Y-91322188D01*
X142884820Y-91358498D01*
X142774506Y-91417463D01*
X142677815Y-91496815D01*
X142598463Y-91593506D01*
X142539498Y-91703820D01*
X142503188Y-91823518D01*
X142490928Y-91948000D01*
X142490928Y-93472000D01*
X142503188Y-93596482D01*
X142539498Y-93716180D01*
X142598463Y-93826494D01*
X142677815Y-93923185D01*
X142774506Y-94002537D01*
X142884820Y-94061502D01*
X143004518Y-94097812D01*
X143129000Y-94110072D01*
X144653000Y-94110072D01*
X144777482Y-94097812D01*
X144897180Y-94061502D01*
X145007494Y-94002537D01*
X145104185Y-93923185D01*
X145183537Y-93826494D01*
X145242502Y-93716180D01*
X145254822Y-93675565D01*
X155805040Y-93675565D01*
X155872020Y-93915656D01*
X156121048Y-94032756D01*
X156388135Y-94099023D01*
X156663017Y-94111910D01*
X156935133Y-94070922D01*
X157194023Y-93977636D01*
X157309980Y-93915656D01*
X157376960Y-93675565D01*
X156591000Y-92889605D01*
X155805040Y-93675565D01*
X145254822Y-93675565D01*
X145278812Y-93596482D01*
X145291072Y-93472000D01*
X145291072Y-92782017D01*
X155189090Y-92782017D01*
X155230078Y-93054133D01*
X155323364Y-93313023D01*
X155385344Y-93428980D01*
X155625435Y-93495960D01*
X156411395Y-92710000D01*
X156770605Y-92710000D01*
X157556565Y-93495960D01*
X157796656Y-93428980D01*
X157913756Y-93179952D01*
X157980023Y-92912865D01*
X157992910Y-92637983D01*
X157951922Y-92365867D01*
X157858636Y-92106977D01*
X157796656Y-91991020D01*
X157556565Y-91924040D01*
X156770605Y-92710000D01*
X156411395Y-92710000D01*
X155625435Y-91924040D01*
X155385344Y-91991020D01*
X155268244Y-92240048D01*
X155201977Y-92507135D01*
X155189090Y-92782017D01*
X145291072Y-92782017D01*
X145291072Y-92384729D01*
X152339503Y-85336299D01*
X152368501Y-85312501D01*
X152394832Y-85280417D01*
X152463474Y-85196777D01*
X152534046Y-85064747D01*
X152568123Y-84952408D01*
X152577503Y-84921486D01*
X152588500Y-84809833D01*
X152588500Y-84809824D01*
X152592176Y-84772501D01*
X152588500Y-84735178D01*
X152588500Y-77542017D01*
X155189090Y-77542017D01*
X155230078Y-77814133D01*
X155323364Y-78073023D01*
X155385344Y-78188980D01*
X155625435Y-78255960D01*
X156411395Y-77470000D01*
X155625435Y-76684040D01*
X155385344Y-76751020D01*
X155268244Y-77000048D01*
X155201977Y-77267135D01*
X155189090Y-77542017D01*
X152588500Y-77542017D01*
X152588500Y-67680372D01*
X152622815Y-67722185D01*
X152719506Y-67801537D01*
X152829820Y-67860502D01*
X152949518Y-67896812D01*
X153074000Y-67909072D01*
X154591271Y-67909072D01*
X156918001Y-70235803D01*
X156918001Y-73570676D01*
X156728592Y-73533000D01*
X156453408Y-73533000D01*
X156183510Y-73586686D01*
X155929273Y-73691995D01*
X155700465Y-73844880D01*
X155505880Y-74039465D01*
X155352995Y-74268273D01*
X155247686Y-74522510D01*
X155194000Y-74792408D01*
X155194000Y-75067592D01*
X155247686Y-75337490D01*
X155352995Y-75591727D01*
X155505880Y-75820535D01*
X155700465Y-76015120D01*
X155929273Y-76168005D01*
X156000943Y-76197692D01*
X155987977Y-76202364D01*
X155872020Y-76264344D01*
X155805040Y-76504435D01*
X156591000Y-77290395D01*
X156605143Y-77276253D01*
X156784748Y-77455858D01*
X156770605Y-77470000D01*
X156784748Y-77484143D01*
X156605143Y-77663748D01*
X156591000Y-77649605D01*
X155805040Y-78435565D01*
X155872020Y-78675656D01*
X156007760Y-78739485D01*
X155929273Y-78771995D01*
X155700465Y-78924880D01*
X155505880Y-79119465D01*
X155352995Y-79348273D01*
X155247686Y-79602510D01*
X155194000Y-79872408D01*
X155194000Y-80147592D01*
X155247686Y-80417490D01*
X155352995Y-80671727D01*
X155505880Y-80900535D01*
X155700465Y-81095120D01*
X155929273Y-81248005D01*
X156006515Y-81280000D01*
X155929273Y-81311995D01*
X155700465Y-81464880D01*
X155505880Y-81659465D01*
X155352995Y-81888273D01*
X155247686Y-82142510D01*
X155194000Y-82412408D01*
X155194000Y-82687592D01*
X155247686Y-82957490D01*
X155352995Y-83211727D01*
X155505880Y-83440535D01*
X155700465Y-83635120D01*
X155927907Y-83787093D01*
X155885454Y-83866516D01*
X155879839Y-83885026D01*
X155700465Y-84004880D01*
X155505880Y-84199465D01*
X155352995Y-84428273D01*
X155247686Y-84682510D01*
X155194000Y-84952408D01*
X155194000Y-85227592D01*
X155247686Y-85497490D01*
X155352995Y-85751727D01*
X155505880Y-85980535D01*
X155700465Y-86175120D01*
X155929273Y-86328005D01*
X156006515Y-86360000D01*
X155929273Y-86391995D01*
X155700465Y-86544880D01*
X155505880Y-86739465D01*
X155352995Y-86968273D01*
X155247686Y-87222510D01*
X155194000Y-87492408D01*
X155194000Y-87767592D01*
X155247686Y-88037490D01*
X155352995Y-88291727D01*
X155505880Y-88520535D01*
X155700465Y-88715120D01*
X155929273Y-88868005D01*
X156006515Y-88900000D01*
X155929273Y-88931995D01*
X155700465Y-89084880D01*
X155505880Y-89279465D01*
X155352995Y-89508273D01*
X155247686Y-89762510D01*
X155194000Y-90032408D01*
X155194000Y-90307592D01*
X155247686Y-90577490D01*
X155352995Y-90831727D01*
X155505880Y-91060535D01*
X155700465Y-91255120D01*
X155929273Y-91408005D01*
X156000943Y-91437692D01*
X155987977Y-91442364D01*
X155872020Y-91504344D01*
X155805040Y-91744435D01*
X156591000Y-92530395D01*
X157376960Y-91744435D01*
X157309980Y-91504344D01*
X157174240Y-91440515D01*
X157252727Y-91408005D01*
X157481535Y-91255120D01*
X157676120Y-91060535D01*
X157829005Y-90831727D01*
X157934314Y-90577490D01*
X157988000Y-90307592D01*
X157988000Y-90032408D01*
X157934314Y-89762510D01*
X157829005Y-89508273D01*
X157676120Y-89279465D01*
X157481535Y-89084880D01*
X157252727Y-88931995D01*
X157175485Y-88900000D01*
X157252727Y-88868005D01*
X157481535Y-88715120D01*
X157676120Y-88520535D01*
X157829005Y-88291727D01*
X157934314Y-88037490D01*
X157988000Y-87767592D01*
X157988000Y-87492408D01*
X157957372Y-87338429D01*
X162055003Y-83240799D01*
X162084001Y-83217001D01*
X162178974Y-83101276D01*
X162249546Y-82969247D01*
X162293003Y-82825986D01*
X162304000Y-82714333D01*
X162304000Y-82714325D01*
X162307676Y-82677000D01*
X162304000Y-82639675D01*
X162304000Y-67699178D01*
X162490632Y-67574475D01*
X162697475Y-67367632D01*
X162859990Y-67124411D01*
X162971932Y-66854158D01*
X163029000Y-66567260D01*
X163029000Y-66274740D01*
X162971932Y-65987842D01*
X162859990Y-65717589D01*
X162697475Y-65474368D01*
X162490632Y-65267525D01*
X162247411Y-65105010D01*
X161977158Y-64993068D01*
X161690260Y-64936000D01*
X161397740Y-64936000D01*
X161110842Y-64993068D01*
X160840589Y-65105010D01*
X160597368Y-65267525D01*
X160390525Y-65474368D01*
X160274000Y-65648760D01*
X160157475Y-65474368D01*
X159950632Y-65267525D01*
X159707411Y-65105010D01*
X159437158Y-64993068D01*
X159150260Y-64936000D01*
X158857740Y-64936000D01*
X158570842Y-64993068D01*
X158300589Y-65105010D01*
X158057368Y-65267525D01*
X157850525Y-65474368D01*
X157734000Y-65648760D01*
X157617475Y-65474368D01*
X157410632Y-65267525D01*
X157167411Y-65105010D01*
X156897158Y-64993068D01*
X156610260Y-64936000D01*
X156317740Y-64936000D01*
X156030842Y-64993068D01*
X155760589Y-65105010D01*
X155517368Y-65267525D01*
X155385513Y-65399380D01*
X155363502Y-65326820D01*
X155304537Y-65216506D01*
X155225185Y-65119815D01*
X155128494Y-65040463D01*
X155018180Y-64981498D01*
X154898482Y-64945188D01*
X154774000Y-64932928D01*
X153074000Y-64932928D01*
X152949518Y-64945188D01*
X152829820Y-64981498D01*
X152719506Y-65040463D01*
X152622815Y-65119815D01*
X152588500Y-65161628D01*
X152588500Y-64743825D01*
X152592176Y-64706500D01*
X152588500Y-64669175D01*
X152588500Y-64669167D01*
X152577503Y-64557514D01*
X152534046Y-64414253D01*
X152463474Y-64282224D01*
X152368501Y-64166499D01*
X152339504Y-64142702D01*
X151340801Y-63144000D01*
X166854298Y-63144000D01*
X166978700Y-126340000D01*
%TA.AperFunction,Conductor*%
D20*
G36*
X166978700Y-126340000D02*
G01*
X90763449Y-126340000D01*
X90939380Y-126286632D01*
X91114840Y-126192847D01*
X91268633Y-126066633D01*
X91300261Y-126028094D01*
X93031284Y-124297072D01*
X93941000Y-124297072D01*
X94065482Y-124284812D01*
X94185180Y-124248502D01*
X94295494Y-124189537D01*
X94392185Y-124110185D01*
X94471537Y-124013494D01*
X94530502Y-123903180D01*
X94566812Y-123783482D01*
X94579072Y-123659000D01*
X94579072Y-123438000D01*
X101144893Y-123438000D01*
X101288368Y-123581475D01*
X101531589Y-123743990D01*
X101801842Y-123855932D01*
X102088740Y-123913000D01*
X102381260Y-123913000D01*
X102668158Y-123855932D01*
X102938411Y-123743990D01*
X103181632Y-123581475D01*
X103325107Y-123438000D01*
X104979392Y-123438000D01*
X105029000Y-123442886D01*
X105226994Y-123423385D01*
X105352177Y-123385411D01*
X105417380Y-123365632D01*
X105592840Y-123271847D01*
X105746633Y-123145633D01*
X105778261Y-123107094D01*
X107486099Y-121399256D01*
X107524633Y-121367633D01*
X107650847Y-121213840D01*
X107744632Y-121038380D01*
X107763996Y-120974545D01*
X107802385Y-120847995D01*
X107821886Y-120650000D01*
X107817000Y-120600392D01*
X107817000Y-119261210D01*
X151409000Y-119261210D01*
X151409000Y-120006790D01*
X151554455Y-120738044D01*
X151839777Y-121426870D01*
X152253999Y-122046797D01*
X152781203Y-122574001D01*
X153401130Y-122988223D01*
X154089956Y-123273545D01*
X154821210Y-123419000D01*
X155566790Y-123419000D01*
X156298044Y-123273545D01*
X156986870Y-122988223D01*
X157606797Y-122574001D01*
X158134001Y-122046797D01*
X158548223Y-121426870D01*
X158833545Y-120738044D01*
X158979000Y-120006790D01*
X158979000Y-119261210D01*
X158833545Y-118529956D01*
X158548223Y-117841130D01*
X158134001Y-117221203D01*
X157606797Y-116693999D01*
X156986870Y-116279777D01*
X156298044Y-115994455D01*
X155566790Y-115849000D01*
X154821210Y-115849000D01*
X154089956Y-115994455D01*
X153401130Y-116279777D01*
X152781203Y-116693999D01*
X152253999Y-117221203D01*
X151839777Y-117841130D01*
X151554455Y-118529956D01*
X151409000Y-119261210D01*
X107817000Y-119261210D01*
X107817000Y-111326107D01*
X107960475Y-111182632D01*
X108122990Y-110939411D01*
X108234932Y-110669158D01*
X108292000Y-110382260D01*
X108292000Y-110089740D01*
X108234932Y-109802842D01*
X108122990Y-109532589D01*
X107960475Y-109289368D01*
X107753632Y-109082525D01*
X107571466Y-108960805D01*
X107688355Y-108891178D01*
X107904588Y-108696269D01*
X108078641Y-108462920D01*
X108203825Y-108200099D01*
X108248476Y-108052890D01*
X108127155Y-107823000D01*
X106934000Y-107823000D01*
X106934000Y-107843000D01*
X106680000Y-107843000D01*
X106680000Y-107823000D01*
X106660000Y-107823000D01*
X106660000Y-107569000D01*
X106680000Y-107569000D01*
X106680000Y-107549000D01*
X106934000Y-107549000D01*
X106934000Y-107569000D01*
X108127155Y-107569000D01*
X108248476Y-107339110D01*
X108203825Y-107191901D01*
X108078641Y-106929080D01*
X107904588Y-106695731D01*
X107688355Y-106500822D01*
X107571466Y-106431195D01*
X107753632Y-106309475D01*
X107960475Y-106102632D01*
X108122990Y-105859411D01*
X108234932Y-105589158D01*
X108292000Y-105302260D01*
X108292000Y-105009740D01*
X108234932Y-104722842D01*
X108122990Y-104452589D01*
X107960475Y-104209368D01*
X107828620Y-104077513D01*
X107901180Y-104055502D01*
X108011494Y-103996537D01*
X108108185Y-103917185D01*
X108187537Y-103820494D01*
X108246502Y-103710180D01*
X108282812Y-103590482D01*
X108295072Y-103466000D01*
X108292000Y-102901750D01*
X108133250Y-102743000D01*
X106934000Y-102743000D01*
X106934000Y-102763000D01*
X106680000Y-102763000D01*
X106680000Y-102743000D01*
X105480750Y-102743000D01*
X105322000Y-102901750D01*
X105318928Y-103466000D01*
X105331188Y-103590482D01*
X105367498Y-103710180D01*
X105426463Y-103820494D01*
X105505815Y-103917185D01*
X105602506Y-103996537D01*
X105712820Y-104055502D01*
X105785380Y-104077513D01*
X105653525Y-104209368D01*
X105491010Y-104452589D01*
X105379068Y-104722842D01*
X105322000Y-105009740D01*
X105322000Y-105302260D01*
X105379068Y-105589158D01*
X105491010Y-105859411D01*
X105653525Y-106102632D01*
X105860368Y-106309475D01*
X106042534Y-106431195D01*
X105925645Y-106500822D01*
X105709412Y-106695731D01*
X105535359Y-106929080D01*
X105410175Y-107191901D01*
X105365524Y-107339110D01*
X105486844Y-107568998D01*
X105322000Y-107568998D01*
X105322000Y-107676199D01*
X102671804Y-105026003D01*
X102648001Y-104996999D01*
X102532276Y-104902026D01*
X102400247Y-104831454D01*
X102256986Y-104787997D01*
X102145333Y-104777000D01*
X102145322Y-104777000D01*
X102108000Y-104773324D01*
X102070678Y-104777000D01*
X94136341Y-104777000D01*
X94049120Y-104646465D01*
X93854535Y-104451880D01*
X93625727Y-104298995D01*
X93371490Y-104193686D01*
X93101592Y-104140000D01*
X92826408Y-104140000D01*
X92556510Y-104193686D01*
X92302273Y-104298995D01*
X92073465Y-104451880D01*
X91878880Y-104646465D01*
X91725995Y-104875273D01*
X91696308Y-104946943D01*
X91691636Y-104933977D01*
X91629656Y-104818020D01*
X91389565Y-104751040D01*
X90603605Y-105537000D01*
X91389565Y-106322960D01*
X91629656Y-106255980D01*
X91693485Y-106120240D01*
X91725995Y-106198727D01*
X91878880Y-106427535D01*
X92073465Y-106622120D01*
X92302273Y-106775005D01*
X92556510Y-106880314D01*
X92826408Y-106934000D01*
X93101592Y-106934000D01*
X93371490Y-106880314D01*
X93625727Y-106775005D01*
X93854535Y-106622120D01*
X94049120Y-106427535D01*
X94136341Y-106297000D01*
X101793199Y-106297000D01*
X105365790Y-109869592D01*
X105322000Y-110089740D01*
X105322000Y-110382260D01*
X105379068Y-110669158D01*
X105491010Y-110939411D01*
X105653525Y-111182632D01*
X105797001Y-111326108D01*
X105797000Y-120231644D01*
X104610645Y-121418000D01*
X103325107Y-121418000D01*
X103256620Y-121349513D01*
X103329180Y-121327502D01*
X103439494Y-121268537D01*
X103536185Y-121189185D01*
X103615537Y-121092494D01*
X103674502Y-120982180D01*
X103710812Y-120862482D01*
X103723072Y-120738000D01*
X103720000Y-120173750D01*
X103561250Y-120015000D01*
X102362000Y-120015000D01*
X102362000Y-120035000D01*
X102108000Y-120035000D01*
X102108000Y-120015000D01*
X100908750Y-120015000D01*
X100750000Y-120173750D01*
X100746928Y-120738000D01*
X100759188Y-120862482D01*
X100795498Y-120982180D01*
X100854463Y-121092494D01*
X100933815Y-121189185D01*
X101030506Y-121268537D01*
X101140820Y-121327502D01*
X101213380Y-121349513D01*
X101144893Y-121418000D01*
X94275919Y-121418000D01*
X94185180Y-121369498D01*
X94112620Y-121347487D01*
X94244475Y-121215632D01*
X94406990Y-120972411D01*
X94518932Y-120702158D01*
X94576000Y-120415260D01*
X94576000Y-120122740D01*
X94518932Y-119835842D01*
X94406990Y-119565589D01*
X94244475Y-119322368D01*
X94037632Y-119115525D01*
X93921608Y-119038000D01*
X100746928Y-119038000D01*
X100750000Y-119602250D01*
X100908750Y-119761000D01*
X102108000Y-119761000D01*
X102108000Y-118561750D01*
X102362000Y-118561750D01*
X102362000Y-119761000D01*
X103561250Y-119761000D01*
X103720000Y-119602250D01*
X103723072Y-119038000D01*
X103710812Y-118913518D01*
X103674502Y-118793820D01*
X103615537Y-118683506D01*
X103536185Y-118586815D01*
X103439494Y-118507463D01*
X103329180Y-118448498D01*
X103209482Y-118412188D01*
X103085000Y-118399928D01*
X102520750Y-118403000D01*
X102362000Y-118561750D01*
X102108000Y-118561750D01*
X101949250Y-118403000D01*
X101385000Y-118399928D01*
X101260518Y-118412188D01*
X101140820Y-118448498D01*
X101030506Y-118507463D01*
X100933815Y-118586815D01*
X100854463Y-118683506D01*
X100795498Y-118793820D01*
X100759188Y-118913518D01*
X100746928Y-119038000D01*
X93921608Y-119038000D01*
X93794411Y-118953010D01*
X93524158Y-118841068D01*
X93237260Y-118784000D01*
X92944740Y-118784000D01*
X92657842Y-118841068D01*
X92636999Y-118849701D01*
X92636999Y-114647321D01*
X92640675Y-114609998D01*
X92636999Y-114572675D01*
X92636999Y-114572666D01*
X92626002Y-114461013D01*
X92582545Y-114317752D01*
X92511973Y-114185723D01*
X92417000Y-114069998D01*
X92388002Y-114046200D01*
X85275801Y-106934000D01*
X85481592Y-106934000D01*
X85751490Y-106880314D01*
X86005727Y-106775005D01*
X86234535Y-106622120D01*
X86429120Y-106427535D01*
X86582005Y-106198727D01*
X86614000Y-106121485D01*
X86645995Y-106198727D01*
X86798880Y-106427535D01*
X86993465Y-106622120D01*
X87222273Y-106775005D01*
X87476510Y-106880314D01*
X87746408Y-106934000D01*
X88021592Y-106934000D01*
X88291490Y-106880314D01*
X88545727Y-106775005D01*
X88774535Y-106622120D01*
X88894090Y-106502565D01*
X89638040Y-106502565D01*
X89705020Y-106742656D01*
X89954048Y-106859756D01*
X90221135Y-106926023D01*
X90496017Y-106938910D01*
X90768133Y-106897922D01*
X91027023Y-106804636D01*
X91142980Y-106742656D01*
X91209960Y-106502565D01*
X90424000Y-105716605D01*
X89638040Y-106502565D01*
X88894090Y-106502565D01*
X88969120Y-106427535D01*
X89122005Y-106198727D01*
X89151692Y-106127057D01*
X89156364Y-106140023D01*
X89218344Y-106255980D01*
X89458435Y-106322960D01*
X90244395Y-105537000D01*
X89458435Y-104751040D01*
X89218344Y-104818020D01*
X89154515Y-104953760D01*
X89122005Y-104875273D01*
X88969120Y-104646465D01*
X88894090Y-104571435D01*
X89638040Y-104571435D01*
X90424000Y-105357395D01*
X91209960Y-104571435D01*
X91142980Y-104331344D01*
X90893952Y-104214244D01*
X90626865Y-104147977D01*
X90351983Y-104135090D01*
X90079867Y-104176078D01*
X89820977Y-104269364D01*
X89705020Y-104331344D01*
X89638040Y-104571435D01*
X88894090Y-104571435D01*
X88774535Y-104451880D01*
X88545727Y-104298995D01*
X88291490Y-104193686D01*
X88021592Y-104140000D01*
X87746408Y-104140000D01*
X87592430Y-104170628D01*
X86910793Y-103488992D01*
X86886990Y-103459988D01*
X86771265Y-103365015D01*
X86639236Y-103294443D01*
X86495975Y-103250986D01*
X86384322Y-103239989D01*
X86384311Y-103239989D01*
X86346989Y-103236313D01*
X86309667Y-103239989D01*
X84687031Y-103239989D01*
X83213042Y-101766000D01*
X105318928Y-101766000D01*
X105322000Y-102330250D01*
X105480750Y-102489000D01*
X106680000Y-102489000D01*
X106680000Y-101289750D01*
X106934000Y-101289750D01*
X106934000Y-102489000D01*
X108133250Y-102489000D01*
X108292000Y-102330250D01*
X108295072Y-101766000D01*
X108282812Y-101641518D01*
X108246502Y-101521820D01*
X108187537Y-101411506D01*
X108108185Y-101314815D01*
X108011494Y-101235463D01*
X107901180Y-101176498D01*
X107781482Y-101140188D01*
X107657000Y-101127928D01*
X107092750Y-101131000D01*
X106934000Y-101289750D01*
X106680000Y-101289750D01*
X106521250Y-101131000D01*
X105957000Y-101127928D01*
X105832518Y-101140188D01*
X105712820Y-101176498D01*
X105602506Y-101235463D01*
X105505815Y-101314815D01*
X105426463Y-101411506D01*
X105367498Y-101521820D01*
X105331188Y-101641518D01*
X105318928Y-101766000D01*
X83213042Y-101766000D01*
X81708252Y-100261210D01*
X114409000Y-100261210D01*
X114409000Y-101006790D01*
X114554455Y-101738044D01*
X114839777Y-102426870D01*
X115253999Y-103046797D01*
X115781203Y-103574001D01*
X116401130Y-103988223D01*
X117089956Y-104273545D01*
X117821210Y-104419000D01*
X118566790Y-104419000D01*
X119298044Y-104273545D01*
X119986870Y-103988223D01*
X120606797Y-103574001D01*
X121134001Y-103046797D01*
X121548223Y-102426870D01*
X121833545Y-101738044D01*
X121979000Y-101006790D01*
X121979000Y-100261210D01*
X121833545Y-99529956D01*
X121548223Y-98841130D01*
X121134001Y-98221203D01*
X120606797Y-97693999D01*
X119986870Y-97279777D01*
X119298044Y-96994455D01*
X118566790Y-96849000D01*
X117821210Y-96849000D01*
X117089956Y-96994455D01*
X116401130Y-97279777D01*
X115781203Y-97693999D01*
X115253999Y-98221203D01*
X114839777Y-98841130D01*
X114554455Y-99529956D01*
X114409000Y-100261210D01*
X81708252Y-100261210D01*
X62916850Y-81469809D01*
X63145727Y-81375005D01*
X63374535Y-81222120D01*
X63397490Y-81199165D01*
X63426001Y-81222565D01*
X64388449Y-82185013D01*
X64412247Y-82214011D01*
X64441245Y-82237809D01*
X64527971Y-82308984D01*
X64660001Y-82379556D01*
X64803262Y-82423013D01*
X64914915Y-82434010D01*
X64914925Y-82434010D01*
X64952248Y-82437686D01*
X64989571Y-82434010D01*
X71069668Y-82434010D01*
X71106990Y-82437686D01*
X71144312Y-82434010D01*
X71144323Y-82434010D01*
X71255976Y-82423013D01*
X71399237Y-82379556D01*
X71531266Y-82308984D01*
X71646991Y-82214011D01*
X71670793Y-82185008D01*
X72352430Y-81503372D01*
X72506408Y-81534000D01*
X72781592Y-81534000D01*
X73051490Y-81480314D01*
X73305727Y-81375005D01*
X73534535Y-81222120D01*
X73729120Y-81027535D01*
X73882005Y-80798727D01*
X73914000Y-80721485D01*
X73945995Y-80798727D01*
X74098880Y-81027535D01*
X74293465Y-81222120D01*
X74522273Y-81375005D01*
X74776510Y-81480314D01*
X75046408Y-81534000D01*
X75321592Y-81534000D01*
X75475571Y-81503372D01*
X88280202Y-94308004D01*
X88304000Y-94337002D01*
X88419725Y-94431975D01*
X88551754Y-94502547D01*
X88695015Y-94546004D01*
X88806668Y-94557001D01*
X88806676Y-94557001D01*
X88844001Y-94560677D01*
X88881326Y-94557001D01*
X138617915Y-94557001D01*
X138655237Y-94560677D01*
X138692559Y-94557001D01*
X138692570Y-94557001D01*
X138804223Y-94546004D01*
X138947484Y-94502547D01*
X139079513Y-94431975D01*
X139195238Y-94337002D01*
X139219041Y-94307998D01*
X142669945Y-90857095D01*
X142805880Y-91060535D01*
X143000465Y-91255120D01*
X143088465Y-91313920D01*
X143004518Y-91322188D01*
X142884820Y-91358498D01*
X142774506Y-91417463D01*
X142677815Y-91496815D01*
X142598463Y-91593506D01*
X142539498Y-91703820D01*
X142503188Y-91823518D01*
X142490928Y-91948000D01*
X142490928Y-93472000D01*
X142503188Y-93596482D01*
X142539498Y-93716180D01*
X142598463Y-93826494D01*
X142677815Y-93923185D01*
X142774506Y-94002537D01*
X142884820Y-94061502D01*
X143004518Y-94097812D01*
X143129000Y-94110072D01*
X144653000Y-94110072D01*
X144777482Y-94097812D01*
X144897180Y-94061502D01*
X145007494Y-94002537D01*
X145104185Y-93923185D01*
X145183537Y-93826494D01*
X145242502Y-93716180D01*
X145254822Y-93675565D01*
X155805040Y-93675565D01*
X155872020Y-93915656D01*
X156121048Y-94032756D01*
X156388135Y-94099023D01*
X156663017Y-94111910D01*
X156935133Y-94070922D01*
X157194023Y-93977636D01*
X157309980Y-93915656D01*
X157376960Y-93675565D01*
X156591000Y-92889605D01*
X155805040Y-93675565D01*
X145254822Y-93675565D01*
X145278812Y-93596482D01*
X145291072Y-93472000D01*
X145291072Y-92782017D01*
X155189090Y-92782017D01*
X155230078Y-93054133D01*
X155323364Y-93313023D01*
X155385344Y-93428980D01*
X155625435Y-93495960D01*
X156411395Y-92710000D01*
X156770605Y-92710000D01*
X157556565Y-93495960D01*
X157796656Y-93428980D01*
X157913756Y-93179952D01*
X157980023Y-92912865D01*
X157992910Y-92637983D01*
X157951922Y-92365867D01*
X157858636Y-92106977D01*
X157796656Y-91991020D01*
X157556565Y-91924040D01*
X156770605Y-92710000D01*
X156411395Y-92710000D01*
X155625435Y-91924040D01*
X155385344Y-91991020D01*
X155268244Y-92240048D01*
X155201977Y-92507135D01*
X155189090Y-92782017D01*
X145291072Y-92782017D01*
X145291072Y-92384729D01*
X152339503Y-85336299D01*
X152368501Y-85312501D01*
X152394832Y-85280417D01*
X152463474Y-85196777D01*
X152534046Y-85064747D01*
X152568123Y-84952408D01*
X152577503Y-84921486D01*
X152588500Y-84809833D01*
X152588500Y-84809824D01*
X152592176Y-84772501D01*
X152588500Y-84735178D01*
X152588500Y-77542017D01*
X155189090Y-77542017D01*
X155230078Y-77814133D01*
X155323364Y-78073023D01*
X155385344Y-78188980D01*
X155625435Y-78255960D01*
X156411395Y-77470000D01*
X155625435Y-76684040D01*
X155385344Y-76751020D01*
X155268244Y-77000048D01*
X155201977Y-77267135D01*
X155189090Y-77542017D01*
X152588500Y-77542017D01*
X152588500Y-67680372D01*
X152622815Y-67722185D01*
X152719506Y-67801537D01*
X152829820Y-67860502D01*
X152949518Y-67896812D01*
X153074000Y-67909072D01*
X154591271Y-67909072D01*
X156918001Y-70235803D01*
X156918001Y-73570676D01*
X156728592Y-73533000D01*
X156453408Y-73533000D01*
X156183510Y-73586686D01*
X155929273Y-73691995D01*
X155700465Y-73844880D01*
X155505880Y-74039465D01*
X155352995Y-74268273D01*
X155247686Y-74522510D01*
X155194000Y-74792408D01*
X155194000Y-75067592D01*
X155247686Y-75337490D01*
X155352995Y-75591727D01*
X155505880Y-75820535D01*
X155700465Y-76015120D01*
X155929273Y-76168005D01*
X156000943Y-76197692D01*
X155987977Y-76202364D01*
X155872020Y-76264344D01*
X155805040Y-76504435D01*
X156591000Y-77290395D01*
X156605143Y-77276253D01*
X156784748Y-77455858D01*
X156770605Y-77470000D01*
X156784748Y-77484143D01*
X156605143Y-77663748D01*
X156591000Y-77649605D01*
X155805040Y-78435565D01*
X155872020Y-78675656D01*
X156007760Y-78739485D01*
X155929273Y-78771995D01*
X155700465Y-78924880D01*
X155505880Y-79119465D01*
X155352995Y-79348273D01*
X155247686Y-79602510D01*
X155194000Y-79872408D01*
X155194000Y-80147592D01*
X155247686Y-80417490D01*
X155352995Y-80671727D01*
X155505880Y-80900535D01*
X155700465Y-81095120D01*
X155929273Y-81248005D01*
X156006515Y-81280000D01*
X155929273Y-81311995D01*
X155700465Y-81464880D01*
X155505880Y-81659465D01*
X155352995Y-81888273D01*
X155247686Y-82142510D01*
X155194000Y-82412408D01*
X155194000Y-82687592D01*
X155247686Y-82957490D01*
X155352995Y-83211727D01*
X155505880Y-83440535D01*
X155700465Y-83635120D01*
X155927907Y-83787093D01*
X155885454Y-83866516D01*
X155879839Y-83885026D01*
X155700465Y-84004880D01*
X155505880Y-84199465D01*
X155352995Y-84428273D01*
X155247686Y-84682510D01*
X155194000Y-84952408D01*
X155194000Y-85227592D01*
X155247686Y-85497490D01*
X155352995Y-85751727D01*
X155505880Y-85980535D01*
X155700465Y-86175120D01*
X155929273Y-86328005D01*
X156006515Y-86360000D01*
X155929273Y-86391995D01*
X155700465Y-86544880D01*
X155505880Y-86739465D01*
X155352995Y-86968273D01*
X155247686Y-87222510D01*
X155194000Y-87492408D01*
X155194000Y-87767592D01*
X155247686Y-88037490D01*
X155352995Y-88291727D01*
X155505880Y-88520535D01*
X155700465Y-88715120D01*
X155929273Y-88868005D01*
X156006515Y-88900000D01*
X155929273Y-88931995D01*
X155700465Y-89084880D01*
X155505880Y-89279465D01*
X155352995Y-89508273D01*
X155247686Y-89762510D01*
X155194000Y-90032408D01*
X155194000Y-90307592D01*
X155247686Y-90577490D01*
X155352995Y-90831727D01*
X155505880Y-91060535D01*
X155700465Y-91255120D01*
X155929273Y-91408005D01*
X156000943Y-91437692D01*
X155987977Y-91442364D01*
X155872020Y-91504344D01*
X155805040Y-91744435D01*
X156591000Y-92530395D01*
X157376960Y-91744435D01*
X157309980Y-91504344D01*
X157174240Y-91440515D01*
X157252727Y-91408005D01*
X157481535Y-91255120D01*
X157676120Y-91060535D01*
X157829005Y-90831727D01*
X157934314Y-90577490D01*
X157988000Y-90307592D01*
X157988000Y-90032408D01*
X157934314Y-89762510D01*
X157829005Y-89508273D01*
X157676120Y-89279465D01*
X157481535Y-89084880D01*
X157252727Y-88931995D01*
X157175485Y-88900000D01*
X157252727Y-88868005D01*
X157481535Y-88715120D01*
X157676120Y-88520535D01*
X157829005Y-88291727D01*
X157934314Y-88037490D01*
X157988000Y-87767592D01*
X157988000Y-87492408D01*
X157957372Y-87338429D01*
X162055003Y-83240799D01*
X162084001Y-83217001D01*
X162178974Y-83101276D01*
X162249546Y-82969247D01*
X162293003Y-82825986D01*
X162304000Y-82714333D01*
X162304000Y-82714325D01*
X162307676Y-82677000D01*
X162304000Y-82639675D01*
X162304000Y-67699178D01*
X162490632Y-67574475D01*
X162697475Y-67367632D01*
X162859990Y-67124411D01*
X162971932Y-66854158D01*
X163029000Y-66567260D01*
X163029000Y-66274740D01*
X162971932Y-65987842D01*
X162859990Y-65717589D01*
X162697475Y-65474368D01*
X162490632Y-65267525D01*
X162247411Y-65105010D01*
X161977158Y-64993068D01*
X161690260Y-64936000D01*
X161397740Y-64936000D01*
X161110842Y-64993068D01*
X160840589Y-65105010D01*
X160597368Y-65267525D01*
X160390525Y-65474368D01*
X160274000Y-65648760D01*
X160157475Y-65474368D01*
X159950632Y-65267525D01*
X159707411Y-65105010D01*
X159437158Y-64993068D01*
X159150260Y-64936000D01*
X158857740Y-64936000D01*
X158570842Y-64993068D01*
X158300589Y-65105010D01*
X158057368Y-65267525D01*
X157850525Y-65474368D01*
X157734000Y-65648760D01*
X157617475Y-65474368D01*
X157410632Y-65267525D01*
X157167411Y-65105010D01*
X156897158Y-64993068D01*
X156610260Y-64936000D01*
X156317740Y-64936000D01*
X156030842Y-64993068D01*
X155760589Y-65105010D01*
X155517368Y-65267525D01*
X155385513Y-65399380D01*
X155363502Y-65326820D01*
X155304537Y-65216506D01*
X155225185Y-65119815D01*
X155128494Y-65040463D01*
X155018180Y-64981498D01*
X154898482Y-64945188D01*
X154774000Y-64932928D01*
X153074000Y-64932928D01*
X152949518Y-64945188D01*
X152829820Y-64981498D01*
X152719506Y-65040463D01*
X152622815Y-65119815D01*
X152588500Y-65161628D01*
X152588500Y-64743825D01*
X152592176Y-64706500D01*
X152588500Y-64669175D01*
X152588500Y-64669167D01*
X152577503Y-64557514D01*
X152534046Y-64414253D01*
X152463474Y-64282224D01*
X152368501Y-64166499D01*
X152339504Y-64142702D01*
X151340801Y-63144000D01*
X166854298Y-63144000D01*
X166978700Y-126340000D01*
G37*
%TD.AperFunction*%
D19*
X52166999Y-77231439D02*
X52163323Y-77268761D01*
X52166999Y-77306083D01*
X52166999Y-77306093D01*
X52177996Y-77417746D01*
X52215246Y-77540546D01*
X52221453Y-77561007D01*
X52292025Y-77693037D01*
X52331870Y-77741587D01*
X52386998Y-77808762D01*
X52416002Y-77832565D01*
X78273434Y-103689999D01*
X74699561Y-103689999D01*
X74662238Y-103686323D01*
X74624915Y-103689999D01*
X74624906Y-103689999D01*
X74513253Y-103700996D01*
X74369992Y-103744453D01*
X74237962Y-103815025D01*
X74194122Y-103851004D01*
X74122238Y-103909998D01*
X74098441Y-103938995D01*
X73586001Y-104451436D01*
X73557490Y-104474835D01*
X73534535Y-104451880D01*
X73305727Y-104298995D01*
X73051490Y-104193686D01*
X72781592Y-104140000D01*
X72506408Y-104140000D01*
X72236510Y-104193686D01*
X71982273Y-104298995D01*
X71753465Y-104451880D01*
X71558880Y-104646465D01*
X71405995Y-104875273D01*
X71374000Y-104952515D01*
X71342005Y-104875273D01*
X71189120Y-104646465D01*
X70994535Y-104451880D01*
X70765727Y-104298995D01*
X70511490Y-104193686D01*
X70241592Y-104140000D01*
X69966408Y-104140000D01*
X69696510Y-104193686D01*
X69442273Y-104298995D01*
X69213465Y-104451880D01*
X69018880Y-104646465D01*
X68865995Y-104875273D01*
X68834000Y-104952515D01*
X68802005Y-104875273D01*
X68649120Y-104646465D01*
X68454535Y-104451880D01*
X68225727Y-104298995D01*
X67971490Y-104193686D01*
X67701592Y-104140000D01*
X67426408Y-104140000D01*
X67156510Y-104193686D01*
X66902273Y-104298995D01*
X66673465Y-104451880D01*
X66478880Y-104646465D01*
X66325995Y-104875273D01*
X66294000Y-104952515D01*
X66262005Y-104875273D01*
X66109120Y-104646465D01*
X65914535Y-104451880D01*
X65685727Y-104298995D01*
X65431490Y-104193686D01*
X65161592Y-104140000D01*
X64886408Y-104140000D01*
X64616510Y-104193686D01*
X64362273Y-104298995D01*
X64133465Y-104451880D01*
X63938880Y-104646465D01*
X63785995Y-104875273D01*
X63754000Y-104952515D01*
X63722005Y-104875273D01*
X63569120Y-104646465D01*
X63374535Y-104451880D01*
X63145727Y-104298995D01*
X62891490Y-104193686D01*
X62621592Y-104140000D01*
X62346408Y-104140000D01*
X62076510Y-104193686D01*
X61822273Y-104298995D01*
X61593465Y-104451880D01*
X61398880Y-104646465D01*
X61245995Y-104875273D01*
X61214000Y-104952515D01*
X61182005Y-104875273D01*
X61029120Y-104646465D01*
X60834535Y-104451880D01*
X60605727Y-104298995D01*
X60351490Y-104193686D01*
X60081592Y-104140000D01*
X59806408Y-104140000D01*
X59536510Y-104193686D01*
X59282273Y-104298995D01*
X59053465Y-104451880D01*
X58858880Y-104646465D01*
X58800080Y-104734465D01*
X58791812Y-104650518D01*
X58755502Y-104530820D01*
X58696537Y-104420506D01*
X58617185Y-104323815D01*
X58520494Y-104244463D01*
X58410180Y-104185498D01*
X58290482Y-104149188D01*
X58166000Y-104136928D01*
X56642000Y-104136928D01*
X56517518Y-104149188D01*
X56397820Y-104185498D01*
X56287506Y-104244463D01*
X56190815Y-104323815D01*
X56111463Y-104420506D01*
X56052498Y-104530820D01*
X56016188Y-104650518D01*
X56003928Y-104775000D01*
X56003928Y-106299000D01*
X56016188Y-106423482D01*
X56052498Y-106543180D01*
X56111463Y-106653494D01*
X56190815Y-106750185D01*
X56287506Y-106829537D01*
X56397820Y-106888502D01*
X56517518Y-106924812D01*
X56642000Y-106937072D01*
X57469126Y-106937072D01*
X52321003Y-112085196D01*
X52291999Y-112108999D01*
X52236871Y-112176174D01*
X52197026Y-112224724D01*
X52173894Y-112268001D01*
X52126454Y-112356754D01*
X52082997Y-112500015D01*
X52072000Y-112611668D01*
X52072000Y-112611678D01*
X52068324Y-112649000D01*
X52072000Y-112686323D01*
X52072000Y-113081845D01*
X52001589Y-113111010D01*
X51758368Y-113273525D01*
X51551525Y-113480368D01*
X51389010Y-113723589D01*
X51277068Y-113993842D01*
X51220000Y-114280740D01*
X51220000Y-114573260D01*
X51277068Y-114860158D01*
X51389010Y-115130411D01*
X51551525Y-115373632D01*
X51758368Y-115580475D01*
X52001589Y-115742990D01*
X52271842Y-115854932D01*
X52558740Y-115912000D01*
X52851260Y-115912000D01*
X53138158Y-115854932D01*
X53408411Y-115742990D01*
X53651632Y-115580475D01*
X53783487Y-115448620D01*
X53805498Y-115521180D01*
X53864463Y-115631494D01*
X53943815Y-115728185D01*
X54040506Y-115807537D01*
X54150820Y-115866502D01*
X54270518Y-115902812D01*
X54395000Y-115915072D01*
X54959250Y-115912000D01*
X55118000Y-115753250D01*
X55118000Y-114554000D01*
X55372000Y-114554000D01*
X55372000Y-115753250D01*
X55530750Y-115912000D01*
X56095000Y-115915072D01*
X56219482Y-115902812D01*
X56339180Y-115866502D01*
X56449494Y-115807537D01*
X56546185Y-115728185D01*
X56625537Y-115631494D01*
X56684502Y-115521180D01*
X56720812Y-115401482D01*
X56733072Y-115277000D01*
X56730000Y-114712750D01*
X56571250Y-114554000D01*
X55372000Y-114554000D01*
X55118000Y-114554000D01*
X55098000Y-114554000D01*
X55098000Y-114300000D01*
X55118000Y-114300000D01*
X55118000Y-113100750D01*
X55372000Y-113100750D01*
X55372000Y-114300000D01*
X56571250Y-114300000D01*
X56730000Y-114141250D01*
X56733072Y-113577000D01*
X56720812Y-113452518D01*
X56684502Y-113332820D01*
X56625537Y-113222506D01*
X56546185Y-113125815D01*
X56449494Y-113046463D01*
X56339180Y-112987498D01*
X56219482Y-112951188D01*
X56095000Y-112938928D01*
X55530750Y-112942000D01*
X55372000Y-113100750D01*
X55118000Y-113100750D01*
X54959250Y-112942000D01*
X54395000Y-112938928D01*
X54270518Y-112951188D01*
X54150820Y-112987498D01*
X54040506Y-113046463D01*
X53943815Y-113125815D01*
X53864463Y-113222506D01*
X53805498Y-113332820D01*
X53783487Y-113405380D01*
X53651632Y-113273525D01*
X53592000Y-113233680D01*
X53592000Y-112963801D01*
X59652430Y-106903372D01*
X59806408Y-106934000D01*
X60081592Y-106934000D01*
X60351490Y-106880314D01*
X60605727Y-106775005D01*
X60834535Y-106622120D01*
X61029120Y-106427535D01*
X61182005Y-106198727D01*
X61214000Y-106121485D01*
X61245995Y-106198727D01*
X61398880Y-106427535D01*
X61593465Y-106622120D01*
X61724000Y-106709341D01*
X61724001Y-111953197D01*
X60564408Y-113112791D01*
X60344260Y-113069000D01*
X60051740Y-113069000D01*
X59764842Y-113126068D01*
X59494589Y-113238010D01*
X59251368Y-113400525D01*
X59044525Y-113607368D01*
X58882010Y-113850589D01*
X58770068Y-114120842D01*
X58713000Y-114407740D01*
X58713000Y-114700260D01*
X58770068Y-114987158D01*
X58882010Y-115257411D01*
X59044525Y-115500632D01*
X59251368Y-115707475D01*
X59494589Y-115869990D01*
X59764842Y-115981932D01*
X60051740Y-116039000D01*
X60344260Y-116039000D01*
X60631158Y-115981932D01*
X60901411Y-115869990D01*
X61144632Y-115707475D01*
X61276487Y-115575620D01*
X61298498Y-115648180D01*
X61357463Y-115758494D01*
X61436815Y-115855185D01*
X61533506Y-115934537D01*
X61643820Y-115993502D01*
X61763518Y-116029812D01*
X61888000Y-116042072D01*
X62452250Y-116039000D01*
X62611000Y-115880250D01*
X62611000Y-114681000D01*
X62865000Y-114681000D01*
X62865000Y-115880250D01*
X63023750Y-116039000D01*
X63588000Y-116042072D01*
X63712482Y-116029812D01*
X63832180Y-115993502D01*
X63942494Y-115934537D01*
X64039185Y-115855185D01*
X64118537Y-115758494D01*
X64177502Y-115648180D01*
X64213812Y-115528482D01*
X64226072Y-115404000D01*
X64223000Y-114839750D01*
X64064250Y-114681000D01*
X62865000Y-114681000D01*
X62611000Y-114681000D01*
X62591000Y-114681000D01*
X62591000Y-114427000D01*
X62611000Y-114427000D01*
X62611000Y-114407000D01*
X62865000Y-114407000D01*
X62865000Y-114427000D01*
X64064250Y-114427000D01*
X64223000Y-114268250D01*
X64226072Y-113704000D01*
X64213812Y-113579518D01*
X64177502Y-113459820D01*
X64118537Y-113349506D01*
X64039185Y-113252815D01*
X63942494Y-113173463D01*
X63832180Y-113114498D01*
X63712482Y-113078188D01*
X63588000Y-113065928D01*
X63023750Y-113069000D01*
X62865002Y-113227748D01*
X62865002Y-113069000D01*
X62757802Y-113069000D01*
X62995003Y-112831799D01*
X63024001Y-112808001D01*
X63118974Y-112692276D01*
X63189546Y-112560247D01*
X63233003Y-112416986D01*
X63244000Y-112305333D01*
X63244000Y-112305324D01*
X63247676Y-112268001D01*
X63244000Y-112230678D01*
X63244000Y-106709341D01*
X63374535Y-106622120D01*
X63569120Y-106427535D01*
X63722005Y-106198727D01*
X63754000Y-106121485D01*
X63785995Y-106198727D01*
X63938880Y-106427535D01*
X64133465Y-106622120D01*
X64264000Y-106709341D01*
X64264001Y-115405668D01*
X64260324Y-115443000D01*
X64274998Y-115591985D01*
X64318454Y-115735246D01*
X64389026Y-115867276D01*
X64460201Y-115954002D01*
X64484000Y-115983001D01*
X64512998Y-116006799D01*
X68281790Y-119775592D01*
X68238000Y-119995740D01*
X68238000Y-120288260D01*
X68295068Y-120575158D01*
X68407010Y-120845411D01*
X68569525Y-121088632D01*
X68776368Y-121295475D01*
X68950760Y-121412000D01*
X68776368Y-121528525D01*
X68569525Y-121735368D01*
X68407010Y-121978589D01*
X68295068Y-122248842D01*
X68238000Y-122535740D01*
X68238000Y-122828260D01*
X68295068Y-123115158D01*
X68407010Y-123385411D01*
X68569525Y-123628632D01*
X68776368Y-123835475D01*
X69019589Y-123997990D01*
X69289842Y-124109932D01*
X69576740Y-124167000D01*
X69869260Y-124167000D01*
X70156158Y-124109932D01*
X70426411Y-123997990D01*
X70669632Y-123835475D01*
X70876475Y-123628632D01*
X70993000Y-123454240D01*
X71109525Y-123628632D01*
X71316368Y-123835475D01*
X71559589Y-123997990D01*
X71829842Y-124109932D01*
X72116740Y-124167000D01*
X72409260Y-124167000D01*
X72696158Y-124109932D01*
X72966411Y-123997990D01*
X73209632Y-123835475D01*
X73416475Y-123628632D01*
X73538195Y-123446466D01*
X73607822Y-123563355D01*
X73802731Y-123779588D01*
X74036080Y-123953641D01*
X74298901Y-124078825D01*
X74446110Y-124123476D01*
X74675998Y-124002156D01*
X74675998Y-124167000D01*
X74783199Y-124167000D01*
X73980199Y-124970000D01*
X60297800Y-124970000D01*
X58673802Y-123346003D01*
X58650000Y-123317000D01*
X58620998Y-123293199D01*
X58558802Y-123231003D01*
X58558798Y-123230998D01*
X50003999Y-114676200D01*
X50003999Y-68583390D01*
X52167000Y-66420390D01*
X52166999Y-77231439D01*
%TA.AperFunction,Conductor*%
D20*
G36*
X52166999Y-77231439D02*
G01*
X52163323Y-77268761D01*
X52166999Y-77306083D01*
X52166999Y-77306093D01*
X52177996Y-77417746D01*
X52215246Y-77540546D01*
X52221453Y-77561007D01*
X52292025Y-77693037D01*
X52331870Y-77741587D01*
X52386998Y-77808762D01*
X52416002Y-77832565D01*
X78273434Y-103689999D01*
X74699561Y-103689999D01*
X74662238Y-103686323D01*
X74624915Y-103689999D01*
X74624906Y-103689999D01*
X74513253Y-103700996D01*
X74369992Y-103744453D01*
X74237962Y-103815025D01*
X74194122Y-103851004D01*
X74122238Y-103909998D01*
X74098441Y-103938995D01*
X73586001Y-104451436D01*
X73557490Y-104474835D01*
X73534535Y-104451880D01*
X73305727Y-104298995D01*
X73051490Y-104193686D01*
X72781592Y-104140000D01*
X72506408Y-104140000D01*
X72236510Y-104193686D01*
X71982273Y-104298995D01*
X71753465Y-104451880D01*
X71558880Y-104646465D01*
X71405995Y-104875273D01*
X71374000Y-104952515D01*
X71342005Y-104875273D01*
X71189120Y-104646465D01*
X70994535Y-104451880D01*
X70765727Y-104298995D01*
X70511490Y-104193686D01*
X70241592Y-104140000D01*
X69966408Y-104140000D01*
X69696510Y-104193686D01*
X69442273Y-104298995D01*
X69213465Y-104451880D01*
X69018880Y-104646465D01*
X68865995Y-104875273D01*
X68834000Y-104952515D01*
X68802005Y-104875273D01*
X68649120Y-104646465D01*
X68454535Y-104451880D01*
X68225727Y-104298995D01*
X67971490Y-104193686D01*
X67701592Y-104140000D01*
X67426408Y-104140000D01*
X67156510Y-104193686D01*
X66902273Y-104298995D01*
X66673465Y-104451880D01*
X66478880Y-104646465D01*
X66325995Y-104875273D01*
X66294000Y-104952515D01*
X66262005Y-104875273D01*
X66109120Y-104646465D01*
X65914535Y-104451880D01*
X65685727Y-104298995D01*
X65431490Y-104193686D01*
X65161592Y-104140000D01*
X64886408Y-104140000D01*
X64616510Y-104193686D01*
X64362273Y-104298995D01*
X64133465Y-104451880D01*
X63938880Y-104646465D01*
X63785995Y-104875273D01*
X63754000Y-104952515D01*
X63722005Y-104875273D01*
X63569120Y-104646465D01*
X63374535Y-104451880D01*
X63145727Y-104298995D01*
X62891490Y-104193686D01*
X62621592Y-104140000D01*
X62346408Y-104140000D01*
X62076510Y-104193686D01*
X61822273Y-104298995D01*
X61593465Y-104451880D01*
X61398880Y-104646465D01*
X61245995Y-104875273D01*
X61214000Y-104952515D01*
X61182005Y-104875273D01*
X61029120Y-104646465D01*
X60834535Y-104451880D01*
X60605727Y-104298995D01*
X60351490Y-104193686D01*
X60081592Y-104140000D01*
X59806408Y-104140000D01*
X59536510Y-104193686D01*
X59282273Y-104298995D01*
X59053465Y-104451880D01*
X58858880Y-104646465D01*
X58800080Y-104734465D01*
X58791812Y-104650518D01*
X58755502Y-104530820D01*
X58696537Y-104420506D01*
X58617185Y-104323815D01*
X58520494Y-104244463D01*
X58410180Y-104185498D01*
X58290482Y-104149188D01*
X58166000Y-104136928D01*
X56642000Y-104136928D01*
X56517518Y-104149188D01*
X56397820Y-104185498D01*
X56287506Y-104244463D01*
X56190815Y-104323815D01*
X56111463Y-104420506D01*
X56052498Y-104530820D01*
X56016188Y-104650518D01*
X56003928Y-104775000D01*
X56003928Y-106299000D01*
X56016188Y-106423482D01*
X56052498Y-106543180D01*
X56111463Y-106653494D01*
X56190815Y-106750185D01*
X56287506Y-106829537D01*
X56397820Y-106888502D01*
X56517518Y-106924812D01*
X56642000Y-106937072D01*
X57469126Y-106937072D01*
X52321003Y-112085196D01*
X52291999Y-112108999D01*
X52236871Y-112176174D01*
X52197026Y-112224724D01*
X52173894Y-112268001D01*
X52126454Y-112356754D01*
X52082997Y-112500015D01*
X52072000Y-112611668D01*
X52072000Y-112611678D01*
X52068324Y-112649000D01*
X52072000Y-112686323D01*
X52072000Y-113081845D01*
X52001589Y-113111010D01*
X51758368Y-113273525D01*
X51551525Y-113480368D01*
X51389010Y-113723589D01*
X51277068Y-113993842D01*
X51220000Y-114280740D01*
X51220000Y-114573260D01*
X51277068Y-114860158D01*
X51389010Y-115130411D01*
X51551525Y-115373632D01*
X51758368Y-115580475D01*
X52001589Y-115742990D01*
X52271842Y-115854932D01*
X52558740Y-115912000D01*
X52851260Y-115912000D01*
X53138158Y-115854932D01*
X53408411Y-115742990D01*
X53651632Y-115580475D01*
X53783487Y-115448620D01*
X53805498Y-115521180D01*
X53864463Y-115631494D01*
X53943815Y-115728185D01*
X54040506Y-115807537D01*
X54150820Y-115866502D01*
X54270518Y-115902812D01*
X54395000Y-115915072D01*
X54959250Y-115912000D01*
X55118000Y-115753250D01*
X55118000Y-114554000D01*
X55372000Y-114554000D01*
X55372000Y-115753250D01*
X55530750Y-115912000D01*
X56095000Y-115915072D01*
X56219482Y-115902812D01*
X56339180Y-115866502D01*
X56449494Y-115807537D01*
X56546185Y-115728185D01*
X56625537Y-115631494D01*
X56684502Y-115521180D01*
X56720812Y-115401482D01*
X56733072Y-115277000D01*
X56730000Y-114712750D01*
X56571250Y-114554000D01*
X55372000Y-114554000D01*
X55118000Y-114554000D01*
X55098000Y-114554000D01*
X55098000Y-114300000D01*
X55118000Y-114300000D01*
X55118000Y-113100750D01*
X55372000Y-113100750D01*
X55372000Y-114300000D01*
X56571250Y-114300000D01*
X56730000Y-114141250D01*
X56733072Y-113577000D01*
X56720812Y-113452518D01*
X56684502Y-113332820D01*
X56625537Y-113222506D01*
X56546185Y-113125815D01*
X56449494Y-113046463D01*
X56339180Y-112987498D01*
X56219482Y-112951188D01*
X56095000Y-112938928D01*
X55530750Y-112942000D01*
X55372000Y-113100750D01*
X55118000Y-113100750D01*
X54959250Y-112942000D01*
X54395000Y-112938928D01*
X54270518Y-112951188D01*
X54150820Y-112987498D01*
X54040506Y-113046463D01*
X53943815Y-113125815D01*
X53864463Y-113222506D01*
X53805498Y-113332820D01*
X53783487Y-113405380D01*
X53651632Y-113273525D01*
X53592000Y-113233680D01*
X53592000Y-112963801D01*
X59652430Y-106903372D01*
X59806408Y-106934000D01*
X60081592Y-106934000D01*
X60351490Y-106880314D01*
X60605727Y-106775005D01*
X60834535Y-106622120D01*
X61029120Y-106427535D01*
X61182005Y-106198727D01*
X61214000Y-106121485D01*
X61245995Y-106198727D01*
X61398880Y-106427535D01*
X61593465Y-106622120D01*
X61724000Y-106709341D01*
X61724001Y-111953197D01*
X60564408Y-113112791D01*
X60344260Y-113069000D01*
X60051740Y-113069000D01*
X59764842Y-113126068D01*
X59494589Y-113238010D01*
X59251368Y-113400525D01*
X59044525Y-113607368D01*
X58882010Y-113850589D01*
X58770068Y-114120842D01*
X58713000Y-114407740D01*
X58713000Y-114700260D01*
X58770068Y-114987158D01*
X58882010Y-115257411D01*
X59044525Y-115500632D01*
X59251368Y-115707475D01*
X59494589Y-115869990D01*
X59764842Y-115981932D01*
X60051740Y-116039000D01*
X60344260Y-116039000D01*
X60631158Y-115981932D01*
X60901411Y-115869990D01*
X61144632Y-115707475D01*
X61276487Y-115575620D01*
X61298498Y-115648180D01*
X61357463Y-115758494D01*
X61436815Y-115855185D01*
X61533506Y-115934537D01*
X61643820Y-115993502D01*
X61763518Y-116029812D01*
X61888000Y-116042072D01*
X62452250Y-116039000D01*
X62611000Y-115880250D01*
X62611000Y-114681000D01*
X62865000Y-114681000D01*
X62865000Y-115880250D01*
X63023750Y-116039000D01*
X63588000Y-116042072D01*
X63712482Y-116029812D01*
X63832180Y-115993502D01*
X63942494Y-115934537D01*
X64039185Y-115855185D01*
X64118537Y-115758494D01*
X64177502Y-115648180D01*
X64213812Y-115528482D01*
X64226072Y-115404000D01*
X64223000Y-114839750D01*
X64064250Y-114681000D01*
X62865000Y-114681000D01*
X62611000Y-114681000D01*
X62591000Y-114681000D01*
X62591000Y-114427000D01*
X62611000Y-114427000D01*
X62611000Y-114407000D01*
X62865000Y-114407000D01*
X62865000Y-114427000D01*
X64064250Y-114427000D01*
X64223000Y-114268250D01*
X64226072Y-113704000D01*
X64213812Y-113579518D01*
X64177502Y-113459820D01*
X64118537Y-113349506D01*
X64039185Y-113252815D01*
X63942494Y-113173463D01*
X63832180Y-113114498D01*
X63712482Y-113078188D01*
X63588000Y-113065928D01*
X63023750Y-113069000D01*
X62865002Y-113227748D01*
X62865002Y-113069000D01*
X62757802Y-113069000D01*
X62995003Y-112831799D01*
X63024001Y-112808001D01*
X63118974Y-112692276D01*
X63189546Y-112560247D01*
X63233003Y-112416986D01*
X63244000Y-112305333D01*
X63244000Y-112305324D01*
X63247676Y-112268001D01*
X63244000Y-112230678D01*
X63244000Y-106709341D01*
X63374535Y-106622120D01*
X63569120Y-106427535D01*
X63722005Y-106198727D01*
X63754000Y-106121485D01*
X63785995Y-106198727D01*
X63938880Y-106427535D01*
X64133465Y-106622120D01*
X64264000Y-106709341D01*
X64264001Y-115405668D01*
X64260324Y-115443000D01*
X64274998Y-115591985D01*
X64318454Y-115735246D01*
X64389026Y-115867276D01*
X64460201Y-115954002D01*
X64484000Y-115983001D01*
X64512998Y-116006799D01*
X68281790Y-119775592D01*
X68238000Y-119995740D01*
X68238000Y-120288260D01*
X68295068Y-120575158D01*
X68407010Y-120845411D01*
X68569525Y-121088632D01*
X68776368Y-121295475D01*
X68950760Y-121412000D01*
X68776368Y-121528525D01*
X68569525Y-121735368D01*
X68407010Y-121978589D01*
X68295068Y-122248842D01*
X68238000Y-122535740D01*
X68238000Y-122828260D01*
X68295068Y-123115158D01*
X68407010Y-123385411D01*
X68569525Y-123628632D01*
X68776368Y-123835475D01*
X69019589Y-123997990D01*
X69289842Y-124109932D01*
X69576740Y-124167000D01*
X69869260Y-124167000D01*
X70156158Y-124109932D01*
X70426411Y-123997990D01*
X70669632Y-123835475D01*
X70876475Y-123628632D01*
X70993000Y-123454240D01*
X71109525Y-123628632D01*
X71316368Y-123835475D01*
X71559589Y-123997990D01*
X71829842Y-124109932D01*
X72116740Y-124167000D01*
X72409260Y-124167000D01*
X72696158Y-124109932D01*
X72966411Y-123997990D01*
X73209632Y-123835475D01*
X73416475Y-123628632D01*
X73538195Y-123446466D01*
X73607822Y-123563355D01*
X73802731Y-123779588D01*
X74036080Y-123953641D01*
X74298901Y-124078825D01*
X74446110Y-124123476D01*
X74675998Y-124002156D01*
X74675998Y-124167000D01*
X74783199Y-124167000D01*
X73980199Y-124970000D01*
X60297800Y-124970000D01*
X58673802Y-123346003D01*
X58650000Y-123317000D01*
X58620998Y-123293199D01*
X58558802Y-123231003D01*
X58558798Y-123230998D01*
X50003999Y-114676200D01*
X50003999Y-68583390D01*
X52167000Y-66420390D01*
X52166999Y-77231439D01*
G37*
%TD.AperFunction*%
D19*
X90678000Y-122682000D02*
X90698000Y-122682000D01*
X90698000Y-122936000D01*
X90678000Y-122936000D01*
X90678000Y-122956000D01*
X90424000Y-122956000D01*
X90424000Y-122936000D01*
X90404000Y-122936000D01*
X90404000Y-122682000D01*
X90424000Y-122682000D01*
X90424000Y-122662000D01*
X90678000Y-122662000D01*
X90678000Y-122682000D01*
%TA.AperFunction,Conductor*%
D20*
G36*
X90678000Y-122682000D02*
G01*
X90698000Y-122682000D01*
X90698000Y-122936000D01*
X90678000Y-122936000D01*
X90678000Y-122956000D01*
X90424000Y-122956000D01*
X90424000Y-122936000D01*
X90404000Y-122936000D01*
X90404000Y-122682000D01*
X90424000Y-122682000D01*
X90424000Y-122662000D01*
X90678000Y-122662000D01*
X90678000Y-122682000D01*
G37*
%TD.AperFunction*%
D19*
X74930000Y-122555000D02*
X74950000Y-122555000D01*
X74950000Y-122809000D01*
X74930000Y-122809000D01*
X74930000Y-122829000D01*
X74676000Y-122829000D01*
X74676000Y-122809000D01*
X74656000Y-122809000D01*
X74656000Y-122555000D01*
X74676000Y-122555000D01*
X74676000Y-122535000D01*
X74930000Y-122535000D01*
X74930000Y-122555000D01*
%TA.AperFunction,Conductor*%
D20*
G36*
X74930000Y-122555000D02*
G01*
X74950000Y-122555000D01*
X74950000Y-122809000D01*
X74930000Y-122809000D01*
X74930000Y-122829000D01*
X74676000Y-122829000D01*
X74676000Y-122809000D01*
X74656000Y-122809000D01*
X74656000Y-122555000D01*
X74676000Y-122555000D01*
X74676000Y-122535000D01*
X74930000Y-122535000D01*
X74930000Y-122555000D01*
G37*
%TD.AperFunction*%
D19*
X129161001Y-78716042D02*
X129161000Y-86661440D01*
X129157324Y-86698762D01*
X129161000Y-86736084D01*
X129161000Y-86736094D01*
X129171997Y-86847747D01*
X129208558Y-86968273D01*
X129215454Y-86991008D01*
X129286026Y-87123038D01*
X129325871Y-87171588D01*
X129380999Y-87238763D01*
X129410003Y-87262566D01*
X131401391Y-89253954D01*
X131375880Y-89279465D01*
X131222995Y-89508273D01*
X131117686Y-89762510D01*
X131064000Y-90032408D01*
X131064000Y-90307592D01*
X131117686Y-90577490D01*
X131222995Y-90831727D01*
X131375880Y-91060535D01*
X131570465Y-91255120D01*
X131799273Y-91408005D01*
X131870943Y-91437692D01*
X131857977Y-91442364D01*
X131742020Y-91504344D01*
X131675040Y-91744435D01*
X132461000Y-92530395D01*
X133246960Y-91744435D01*
X133179980Y-91504344D01*
X133044240Y-91440515D01*
X133122727Y-91408005D01*
X133351535Y-91255120D01*
X133546120Y-91060535D01*
X133699005Y-90831727D01*
X133804314Y-90577490D01*
X133858000Y-90307592D01*
X133858000Y-90032408D01*
X133820324Y-89842999D01*
X139860679Y-89842999D01*
X139898001Y-89846675D01*
X139935323Y-89842999D01*
X139935334Y-89842999D01*
X140046987Y-89832002D01*
X140190248Y-89788545D01*
X140322277Y-89717973D01*
X140438002Y-89623000D01*
X140461805Y-89593996D01*
X142494000Y-87561802D01*
X142494000Y-87767592D01*
X142547686Y-88037490D01*
X142652995Y-88291727D01*
X142805880Y-88520535D01*
X142831391Y-88546046D01*
X138340436Y-93037001D01*
X133819224Y-93037001D01*
X133850023Y-92912865D01*
X133862910Y-92637983D01*
X133821922Y-92365867D01*
X133728636Y-92106977D01*
X133666656Y-91991020D01*
X133426565Y-91924040D01*
X132640605Y-92710000D01*
X132654748Y-92724143D01*
X132475143Y-92903748D01*
X132461000Y-92889605D01*
X132446858Y-92903748D01*
X132267253Y-92724143D01*
X132281395Y-92710000D01*
X131495435Y-91924040D01*
X131255344Y-91991020D01*
X131138244Y-92240048D01*
X131071977Y-92507135D01*
X131059090Y-92782017D01*
X131097497Y-93037001D01*
X121161072Y-93037001D01*
X121161072Y-92384730D01*
X121359004Y-92186798D01*
X121388002Y-92163000D01*
X121482975Y-92047275D01*
X121553547Y-91915246D01*
X121597004Y-91771985D01*
X121608001Y-91660332D01*
X121611678Y-91622999D01*
X121608001Y-91585666D01*
X121608001Y-76147110D01*
X121639273Y-76168005D01*
X121893510Y-76273314D01*
X122163408Y-76327000D01*
X122197155Y-76327000D01*
X122174000Y-76443408D01*
X122174000Y-76718592D01*
X122227686Y-76988490D01*
X122332995Y-77242727D01*
X122485880Y-77471535D01*
X122680465Y-77666120D01*
X122909273Y-77819005D01*
X123163510Y-77924314D01*
X123433408Y-77978000D01*
X123708592Y-77978000D01*
X123978490Y-77924314D01*
X124232727Y-77819005D01*
X124461535Y-77666120D01*
X124656120Y-77471535D01*
X124809005Y-77242727D01*
X124914314Y-76988490D01*
X124968000Y-76718592D01*
X124968000Y-76443408D01*
X124944845Y-76327000D01*
X124978592Y-76327000D01*
X125248490Y-76273314D01*
X125502727Y-76168005D01*
X125731535Y-76015120D01*
X125926120Y-75820535D01*
X126062055Y-75617095D01*
X129161001Y-78716042D01*
%TA.AperFunction,Conductor*%
D20*
G36*
X129161001Y-78716042D02*
G01*
X129161000Y-86661440D01*
X129157324Y-86698762D01*
X129161000Y-86736084D01*
X129161000Y-86736094D01*
X129171997Y-86847747D01*
X129208558Y-86968273D01*
X129215454Y-86991008D01*
X129286026Y-87123038D01*
X129325871Y-87171588D01*
X129380999Y-87238763D01*
X129410003Y-87262566D01*
X131401391Y-89253954D01*
X131375880Y-89279465D01*
X131222995Y-89508273D01*
X131117686Y-89762510D01*
X131064000Y-90032408D01*
X131064000Y-90307592D01*
X131117686Y-90577490D01*
X131222995Y-90831727D01*
X131375880Y-91060535D01*
X131570465Y-91255120D01*
X131799273Y-91408005D01*
X131870943Y-91437692D01*
X131857977Y-91442364D01*
X131742020Y-91504344D01*
X131675040Y-91744435D01*
X132461000Y-92530395D01*
X133246960Y-91744435D01*
X133179980Y-91504344D01*
X133044240Y-91440515D01*
X133122727Y-91408005D01*
X133351535Y-91255120D01*
X133546120Y-91060535D01*
X133699005Y-90831727D01*
X133804314Y-90577490D01*
X133858000Y-90307592D01*
X133858000Y-90032408D01*
X133820324Y-89842999D01*
X139860679Y-89842999D01*
X139898001Y-89846675D01*
X139935323Y-89842999D01*
X139935334Y-89842999D01*
X140046987Y-89832002D01*
X140190248Y-89788545D01*
X140322277Y-89717973D01*
X140438002Y-89623000D01*
X140461805Y-89593996D01*
X142494000Y-87561802D01*
X142494000Y-87767592D01*
X142547686Y-88037490D01*
X142652995Y-88291727D01*
X142805880Y-88520535D01*
X142831391Y-88546046D01*
X138340436Y-93037001D01*
X133819224Y-93037001D01*
X133850023Y-92912865D01*
X133862910Y-92637983D01*
X133821922Y-92365867D01*
X133728636Y-92106977D01*
X133666656Y-91991020D01*
X133426565Y-91924040D01*
X132640605Y-92710000D01*
X132654748Y-92724143D01*
X132475143Y-92903748D01*
X132461000Y-92889605D01*
X132446858Y-92903748D01*
X132267253Y-92724143D01*
X132281395Y-92710000D01*
X131495435Y-91924040D01*
X131255344Y-91991020D01*
X131138244Y-92240048D01*
X131071977Y-92507135D01*
X131059090Y-92782017D01*
X131097497Y-93037001D01*
X121161072Y-93037001D01*
X121161072Y-92384730D01*
X121359004Y-92186798D01*
X121388002Y-92163000D01*
X121482975Y-92047275D01*
X121553547Y-91915246D01*
X121597004Y-91771985D01*
X121608001Y-91660332D01*
X121611678Y-91622999D01*
X121608001Y-91585666D01*
X121608001Y-76147110D01*
X121639273Y-76168005D01*
X121893510Y-76273314D01*
X122163408Y-76327000D01*
X122197155Y-76327000D01*
X122174000Y-76443408D01*
X122174000Y-76718592D01*
X122227686Y-76988490D01*
X122332995Y-77242727D01*
X122485880Y-77471535D01*
X122680465Y-77666120D01*
X122909273Y-77819005D01*
X123163510Y-77924314D01*
X123433408Y-77978000D01*
X123708592Y-77978000D01*
X123978490Y-77924314D01*
X124232727Y-77819005D01*
X124461535Y-77666120D01*
X124656120Y-77471535D01*
X124809005Y-77242727D01*
X124914314Y-76988490D01*
X124968000Y-76718592D01*
X124968000Y-76443408D01*
X124944845Y-76327000D01*
X124978592Y-76327000D01*
X125248490Y-76273314D01*
X125502727Y-76168005D01*
X125731535Y-76015120D01*
X125926120Y-75820535D01*
X126062055Y-75617095D01*
X129161001Y-78716042D01*
G37*
%TD.AperFunction*%
D19*
X118675880Y-75820535D02*
X118870465Y-76015120D01*
X119099273Y-76168005D01*
X119176515Y-76200000D01*
X119099273Y-76231995D01*
X118870465Y-76384880D01*
X118675880Y-76579465D01*
X118522995Y-76808273D01*
X118417686Y-77062510D01*
X118364000Y-77332408D01*
X118364000Y-77607592D01*
X118417686Y-77877490D01*
X118522995Y-78131727D01*
X118675880Y-78360535D01*
X118870465Y-78555120D01*
X119099273Y-78708005D01*
X119176515Y-78740000D01*
X119099273Y-78771995D01*
X118870465Y-78924880D01*
X118675880Y-79119465D01*
X118522995Y-79348273D01*
X118417686Y-79602510D01*
X118364000Y-79872408D01*
X118364000Y-80147592D01*
X118417686Y-80417490D01*
X118522995Y-80671727D01*
X118675880Y-80900535D01*
X118870465Y-81095120D01*
X119099273Y-81248005D01*
X119176515Y-81280000D01*
X119099273Y-81311995D01*
X118870465Y-81464880D01*
X118675880Y-81659465D01*
X118522995Y-81888273D01*
X118417686Y-82142510D01*
X118364000Y-82412408D01*
X118364000Y-82687592D01*
X118417686Y-82957490D01*
X118522995Y-83211727D01*
X118675880Y-83440535D01*
X118870465Y-83635120D01*
X119099273Y-83788005D01*
X119176515Y-83820000D01*
X119099273Y-83851995D01*
X118870465Y-84004880D01*
X118675880Y-84199465D01*
X118522995Y-84428273D01*
X118417686Y-84682510D01*
X118364000Y-84952408D01*
X118364000Y-85227592D01*
X118417686Y-85497490D01*
X118522995Y-85751727D01*
X118675880Y-85980535D01*
X118870465Y-86175120D01*
X119099273Y-86328005D01*
X119176515Y-86360000D01*
X119099273Y-86391995D01*
X118870465Y-86544880D01*
X118675880Y-86739465D01*
X118522995Y-86968273D01*
X118417686Y-87222510D01*
X118364000Y-87492408D01*
X118364000Y-87767592D01*
X118417686Y-88037490D01*
X118522995Y-88291727D01*
X118675880Y-88520535D01*
X118870465Y-88715120D01*
X119099273Y-88868005D01*
X119176515Y-88900000D01*
X119099273Y-88931995D01*
X118870465Y-89084880D01*
X118675880Y-89279465D01*
X118588659Y-89410000D01*
X93151802Y-89410000D01*
X85275801Y-81534000D01*
X85481592Y-81534000D01*
X85751490Y-81480314D01*
X86005727Y-81375005D01*
X86234535Y-81222120D01*
X86429120Y-81027535D01*
X86548974Y-80848161D01*
X86567485Y-80842546D01*
X86646908Y-80800093D01*
X86798880Y-81027535D01*
X86993465Y-81222120D01*
X87222273Y-81375005D01*
X87476510Y-81480314D01*
X87746408Y-81534000D01*
X88021592Y-81534000D01*
X88291490Y-81480314D01*
X88545727Y-81375005D01*
X88774535Y-81222120D01*
X88894090Y-81102565D01*
X89638040Y-81102565D01*
X89705020Y-81342656D01*
X89954048Y-81459756D01*
X90221135Y-81526023D01*
X90496017Y-81538910D01*
X90768133Y-81497922D01*
X91027023Y-81404636D01*
X91142980Y-81342656D01*
X91209960Y-81102565D01*
X90424000Y-80316605D01*
X89638040Y-81102565D01*
X88894090Y-81102565D01*
X88969120Y-81027535D01*
X89088974Y-80848161D01*
X89107485Y-80842546D01*
X89188124Y-80799443D01*
X89218344Y-80855980D01*
X89458435Y-80922960D01*
X90244395Y-80137000D01*
X90603605Y-80137000D01*
X91389565Y-80922960D01*
X91629656Y-80855980D01*
X91693485Y-80720240D01*
X91725995Y-80798727D01*
X91878880Y-81027535D01*
X92073465Y-81222120D01*
X92302273Y-81375005D01*
X92556510Y-81480314D01*
X92826408Y-81534000D01*
X93101592Y-81534000D01*
X93371490Y-81480314D01*
X93625727Y-81375005D01*
X93854535Y-81222120D01*
X94049120Y-81027535D01*
X94202005Y-80798727D01*
X94307314Y-80544490D01*
X94361000Y-80274592D01*
X94361000Y-79999408D01*
X94307314Y-79729510D01*
X94202005Y-79475273D01*
X94049120Y-79246465D01*
X93854535Y-79051880D01*
X93625727Y-78898995D01*
X93371490Y-78793686D01*
X93101592Y-78740000D01*
X92826408Y-78740000D01*
X92556510Y-78793686D01*
X92302273Y-78898995D01*
X92073465Y-79051880D01*
X91878880Y-79246465D01*
X91725995Y-79475273D01*
X91696308Y-79546943D01*
X91691636Y-79533977D01*
X91629656Y-79418020D01*
X91389565Y-79351040D01*
X90603605Y-80137000D01*
X90244395Y-80137000D01*
X90230253Y-80122858D01*
X90409858Y-79943253D01*
X90424000Y-79957395D01*
X91209960Y-79171435D01*
X91142980Y-78931344D01*
X91110819Y-78916221D01*
X94337040Y-75690000D01*
X118588659Y-75690000D01*
X118675880Y-75820535D01*
%TA.AperFunction,Conductor*%
D20*
G36*
X118675880Y-75820535D02*
G01*
X118870465Y-76015120D01*
X119099273Y-76168005D01*
X119176515Y-76200000D01*
X119099273Y-76231995D01*
X118870465Y-76384880D01*
X118675880Y-76579465D01*
X118522995Y-76808273D01*
X118417686Y-77062510D01*
X118364000Y-77332408D01*
X118364000Y-77607592D01*
X118417686Y-77877490D01*
X118522995Y-78131727D01*
X118675880Y-78360535D01*
X118870465Y-78555120D01*
X119099273Y-78708005D01*
X119176515Y-78740000D01*
X119099273Y-78771995D01*
X118870465Y-78924880D01*
X118675880Y-79119465D01*
X118522995Y-79348273D01*
X118417686Y-79602510D01*
X118364000Y-79872408D01*
X118364000Y-80147592D01*
X118417686Y-80417490D01*
X118522995Y-80671727D01*
X118675880Y-80900535D01*
X118870465Y-81095120D01*
X119099273Y-81248005D01*
X119176515Y-81280000D01*
X119099273Y-81311995D01*
X118870465Y-81464880D01*
X118675880Y-81659465D01*
X118522995Y-81888273D01*
X118417686Y-82142510D01*
X118364000Y-82412408D01*
X118364000Y-82687592D01*
X118417686Y-82957490D01*
X118522995Y-83211727D01*
X118675880Y-83440535D01*
X118870465Y-83635120D01*
X119099273Y-83788005D01*
X119176515Y-83820000D01*
X119099273Y-83851995D01*
X118870465Y-84004880D01*
X118675880Y-84199465D01*
X118522995Y-84428273D01*
X118417686Y-84682510D01*
X118364000Y-84952408D01*
X118364000Y-85227592D01*
X118417686Y-85497490D01*
X118522995Y-85751727D01*
X118675880Y-85980535D01*
X118870465Y-86175120D01*
X119099273Y-86328005D01*
X119176515Y-86360000D01*
X119099273Y-86391995D01*
X118870465Y-86544880D01*
X118675880Y-86739465D01*
X118522995Y-86968273D01*
X118417686Y-87222510D01*
X118364000Y-87492408D01*
X118364000Y-87767592D01*
X118417686Y-88037490D01*
X118522995Y-88291727D01*
X118675880Y-88520535D01*
X118870465Y-88715120D01*
X119099273Y-88868005D01*
X119176515Y-88900000D01*
X119099273Y-88931995D01*
X118870465Y-89084880D01*
X118675880Y-89279465D01*
X118588659Y-89410000D01*
X93151802Y-89410000D01*
X85275801Y-81534000D01*
X85481592Y-81534000D01*
X85751490Y-81480314D01*
X86005727Y-81375005D01*
X86234535Y-81222120D01*
X86429120Y-81027535D01*
X86548974Y-80848161D01*
X86567485Y-80842546D01*
X86646908Y-80800093D01*
X86798880Y-81027535D01*
X86993465Y-81222120D01*
X87222273Y-81375005D01*
X87476510Y-81480314D01*
X87746408Y-81534000D01*
X88021592Y-81534000D01*
X88291490Y-81480314D01*
X88545727Y-81375005D01*
X88774535Y-81222120D01*
X88894090Y-81102565D01*
X89638040Y-81102565D01*
X89705020Y-81342656D01*
X89954048Y-81459756D01*
X90221135Y-81526023D01*
X90496017Y-81538910D01*
X90768133Y-81497922D01*
X91027023Y-81404636D01*
X91142980Y-81342656D01*
X91209960Y-81102565D01*
X90424000Y-80316605D01*
X89638040Y-81102565D01*
X88894090Y-81102565D01*
X88969120Y-81027535D01*
X89088974Y-80848161D01*
X89107485Y-80842546D01*
X89188124Y-80799443D01*
X89218344Y-80855980D01*
X89458435Y-80922960D01*
X90244395Y-80137000D01*
X90603605Y-80137000D01*
X91389565Y-80922960D01*
X91629656Y-80855980D01*
X91693485Y-80720240D01*
X91725995Y-80798727D01*
X91878880Y-81027535D01*
X92073465Y-81222120D01*
X92302273Y-81375005D01*
X92556510Y-81480314D01*
X92826408Y-81534000D01*
X93101592Y-81534000D01*
X93371490Y-81480314D01*
X93625727Y-81375005D01*
X93854535Y-81222120D01*
X94049120Y-81027535D01*
X94202005Y-80798727D01*
X94307314Y-80544490D01*
X94361000Y-80274592D01*
X94361000Y-79999408D01*
X94307314Y-79729510D01*
X94202005Y-79475273D01*
X94049120Y-79246465D01*
X93854535Y-79051880D01*
X93625727Y-78898995D01*
X93371490Y-78793686D01*
X93101592Y-78740000D01*
X92826408Y-78740000D01*
X92556510Y-78793686D01*
X92302273Y-78898995D01*
X92073465Y-79051880D01*
X91878880Y-79246465D01*
X91725995Y-79475273D01*
X91696308Y-79546943D01*
X91691636Y-79533977D01*
X91629656Y-79418020D01*
X91389565Y-79351040D01*
X90603605Y-80137000D01*
X90244395Y-80137000D01*
X90230253Y-80122858D01*
X90409858Y-79943253D01*
X90424000Y-79957395D01*
X91209960Y-79171435D01*
X91142980Y-78931344D01*
X91110819Y-78916221D01*
X94337040Y-75690000D01*
X118588659Y-75690000D01*
X118675880Y-75820535D01*
G37*
%TD.AperFunction*%
D19*
X150433500Y-65402302D02*
X150433501Y-82552697D01*
X145738001Y-87248198D01*
X145738001Y-76147110D01*
X145769273Y-76168005D01*
X146023510Y-76273314D01*
X146293408Y-76327000D01*
X146327155Y-76327000D01*
X146304000Y-76443408D01*
X146304000Y-76718592D01*
X146357686Y-76988490D01*
X146462995Y-77242727D01*
X146615880Y-77471535D01*
X146810465Y-77666120D01*
X147039273Y-77819005D01*
X147293510Y-77924314D01*
X147563408Y-77978000D01*
X147838592Y-77978000D01*
X148108490Y-77924314D01*
X148362727Y-77819005D01*
X148591535Y-77666120D01*
X148786120Y-77471535D01*
X148939005Y-77242727D01*
X149044314Y-76988490D01*
X149098000Y-76718592D01*
X149098000Y-76443408D01*
X149074845Y-76327000D01*
X149108592Y-76327000D01*
X149378490Y-76273314D01*
X149632727Y-76168005D01*
X149861535Y-76015120D01*
X150056120Y-75820535D01*
X150209005Y-75591727D01*
X150314314Y-75337490D01*
X150368000Y-75067592D01*
X150368000Y-74792408D01*
X150314314Y-74522510D01*
X150209005Y-74268273D01*
X150056120Y-74039465D01*
X149861535Y-73844880D01*
X149632727Y-73691995D01*
X149378490Y-73586686D01*
X149108592Y-73533000D01*
X148833408Y-73533000D01*
X148563510Y-73586686D01*
X148309273Y-73691995D01*
X148080465Y-73844880D01*
X147885880Y-74039465D01*
X147732995Y-74268273D01*
X147701000Y-74345515D01*
X147669005Y-74268273D01*
X147516120Y-74039465D01*
X147321535Y-73844880D01*
X147092727Y-73691995D01*
X146838490Y-73586686D01*
X146568592Y-73533000D01*
X146293408Y-73533000D01*
X146023510Y-73586686D01*
X145769273Y-73691995D01*
X145540465Y-73844880D01*
X145345880Y-74039465D01*
X145192995Y-74268273D01*
X145161000Y-74345515D01*
X145129005Y-74268273D01*
X144976120Y-74039465D01*
X144781535Y-73844880D01*
X144552727Y-73691995D01*
X144298490Y-73586686D01*
X144028592Y-73533000D01*
X143753408Y-73533000D01*
X143483510Y-73586686D01*
X143229273Y-73691995D01*
X143000465Y-73844880D01*
X142805880Y-74039465D01*
X142746000Y-74129082D01*
X142746000Y-70545801D01*
X145429592Y-67862210D01*
X145649740Y-67906000D01*
X145942260Y-67906000D01*
X146229158Y-67848932D01*
X146499411Y-67736990D01*
X146742632Y-67574475D01*
X146949475Y-67367632D01*
X147111990Y-67124411D01*
X147223932Y-66854158D01*
X147281000Y-66567260D01*
X147281000Y-66274740D01*
X147223932Y-65987842D01*
X147111990Y-65717589D01*
X146949475Y-65474368D01*
X146742632Y-65267525D01*
X146499411Y-65105010D01*
X146229158Y-64993068D01*
X145942260Y-64936000D01*
X145649740Y-64936000D01*
X145362842Y-64993068D01*
X145092589Y-65105010D01*
X144849368Y-65267525D01*
X144642525Y-65474368D01*
X144526000Y-65648760D01*
X144409475Y-65474368D01*
X144202632Y-65267525D01*
X143959411Y-65105010D01*
X143689158Y-64993068D01*
X143402260Y-64936000D01*
X143109740Y-64936000D01*
X142822842Y-64993068D01*
X142552589Y-65105010D01*
X142309368Y-65267525D01*
X142102525Y-65474368D01*
X141986000Y-65648760D01*
X141869475Y-65474368D01*
X141662632Y-65267525D01*
X141419411Y-65105010D01*
X141149158Y-64993068D01*
X140862260Y-64936000D01*
X140569740Y-64936000D01*
X140282842Y-64993068D01*
X140012589Y-65105010D01*
X139769368Y-65267525D01*
X139637513Y-65399380D01*
X139615502Y-65326820D01*
X139556537Y-65216506D01*
X139477185Y-65119815D01*
X139380494Y-65040463D01*
X139270180Y-64981498D01*
X139150482Y-64945188D01*
X139026000Y-64932928D01*
X137326000Y-64932928D01*
X137201518Y-64945188D01*
X137081820Y-64981498D01*
X136971506Y-65040463D01*
X136874815Y-65119815D01*
X136795463Y-65216506D01*
X136736498Y-65326820D01*
X136700188Y-65446518D01*
X136687928Y-65571000D01*
X136687928Y-66834270D01*
X136141002Y-67381197D01*
X136111999Y-67404999D01*
X136080612Y-67443245D01*
X136017026Y-67520724D01*
X135980126Y-67589759D01*
X135946454Y-67652754D01*
X135902997Y-67796015D01*
X135892000Y-67907668D01*
X135892000Y-67907678D01*
X135888324Y-67945000D01*
X135892000Y-67982322D01*
X135892001Y-75504197D01*
X133856255Y-77539944D01*
X133862910Y-77397983D01*
X133821922Y-77125867D01*
X133728636Y-76866977D01*
X133666656Y-76751020D01*
X133426565Y-76684040D01*
X132640605Y-77470000D01*
X132654748Y-77484143D01*
X132475143Y-77663748D01*
X132461000Y-77649605D01*
X131675040Y-78435565D01*
X131742020Y-78675656D01*
X131877760Y-78739485D01*
X131799273Y-78771995D01*
X131570465Y-78924880D01*
X131375880Y-79119465D01*
X131222995Y-79348273D01*
X131117686Y-79602510D01*
X131064000Y-79872408D01*
X131064000Y-80147592D01*
X131117686Y-80417490D01*
X131222995Y-80671727D01*
X131375880Y-80900535D01*
X131570465Y-81095120D01*
X131799273Y-81248005D01*
X131876515Y-81280000D01*
X131799273Y-81311995D01*
X131570465Y-81464880D01*
X131375880Y-81659465D01*
X131222995Y-81888273D01*
X131117686Y-82142510D01*
X131064000Y-82412408D01*
X131064000Y-82687592D01*
X131117686Y-82957490D01*
X131222995Y-83211727D01*
X131375880Y-83440535D01*
X131570465Y-83635120D01*
X131799273Y-83788005D01*
X131876515Y-83820000D01*
X131799273Y-83851995D01*
X131570465Y-84004880D01*
X131375880Y-84199465D01*
X131222995Y-84428273D01*
X131117686Y-84682510D01*
X131064000Y-84952408D01*
X131064000Y-85227592D01*
X131117686Y-85497490D01*
X131222995Y-85751727D01*
X131375880Y-85980535D01*
X131570465Y-86175120D01*
X131799273Y-86328005D01*
X131876515Y-86360000D01*
X131799273Y-86391995D01*
X131570465Y-86544880D01*
X131375880Y-86739465D01*
X131239945Y-86942906D01*
X130681000Y-86383961D01*
X130681000Y-78438560D01*
X130684676Y-78401237D01*
X130681000Y-78363914D01*
X130681000Y-78363905D01*
X130670003Y-78252252D01*
X130626546Y-78108991D01*
X130555974Y-77976962D01*
X130512767Y-77924314D01*
X130484799Y-77890234D01*
X130484795Y-77890230D01*
X130461001Y-77861237D01*
X130432008Y-77837443D01*
X130136582Y-77542017D01*
X131059090Y-77542017D01*
X131100078Y-77814133D01*
X131193364Y-78073023D01*
X131255344Y-78188980D01*
X131495435Y-78255960D01*
X132281395Y-77470000D01*
X131495435Y-76684040D01*
X131255344Y-76751020D01*
X131138244Y-77000048D01*
X131071977Y-77267135D01*
X131059090Y-77542017D01*
X130136582Y-77542017D01*
X127386973Y-74792408D01*
X131064000Y-74792408D01*
X131064000Y-75067592D01*
X131117686Y-75337490D01*
X131222995Y-75591727D01*
X131375880Y-75820535D01*
X131570465Y-76015120D01*
X131799273Y-76168005D01*
X131870943Y-76197692D01*
X131857977Y-76202364D01*
X131742020Y-76264344D01*
X131675040Y-76504435D01*
X132461000Y-77290395D01*
X133246960Y-76504435D01*
X133179980Y-76264344D01*
X133044240Y-76200515D01*
X133122727Y-76168005D01*
X133351535Y-76015120D01*
X133546120Y-75820535D01*
X133699005Y-75591727D01*
X133804314Y-75337490D01*
X133858000Y-75067592D01*
X133858000Y-74792408D01*
X133804314Y-74522510D01*
X133699005Y-74268273D01*
X133546120Y-74039465D01*
X133351535Y-73844880D01*
X133122727Y-73691995D01*
X132868490Y-73586686D01*
X132598592Y-73533000D01*
X132323408Y-73533000D01*
X132053510Y-73586686D01*
X131799273Y-73691995D01*
X131570465Y-73844880D01*
X131375880Y-74039465D01*
X131222995Y-74268273D01*
X131117686Y-74522510D01*
X131064000Y-74792408D01*
X127386973Y-74792408D01*
X120594557Y-67999994D01*
X120570754Y-67970990D01*
X120455029Y-67876017D01*
X120323000Y-67805445D01*
X120179739Y-67761988D01*
X120068086Y-67750991D01*
X120068075Y-67750991D01*
X120030753Y-67747315D01*
X119993431Y-67750991D01*
X92181332Y-67750991D01*
X92144009Y-67747315D01*
X92106686Y-67750991D01*
X92106676Y-67750991D01*
X91995023Y-67761988D01*
X91864645Y-67801537D01*
X91851762Y-67805445D01*
X91719732Y-67876017D01*
X91637719Y-67943324D01*
X91604008Y-67970990D01*
X91580210Y-67999988D01*
X89858886Y-69721312D01*
X89676335Y-69685000D01*
X89393665Y-69685000D01*
X89116426Y-69740147D01*
X88855273Y-69848320D01*
X88620241Y-70005363D01*
X88420363Y-70205241D01*
X88263320Y-70440273D01*
X88155147Y-70701426D01*
X88100000Y-70978665D01*
X88100000Y-71261335D01*
X88136312Y-71443886D01*
X81399634Y-78180565D01*
X81314013Y-78188998D01*
X81170752Y-78232455D01*
X81038723Y-78303027D01*
X80922998Y-78398000D01*
X80899200Y-78426998D01*
X80555570Y-78770628D01*
X80401592Y-78740000D01*
X80195801Y-78740000D01*
X82426003Y-76509799D01*
X82455001Y-76486001D01*
X82508145Y-76421245D01*
X82549974Y-76370277D01*
X82620546Y-76238247D01*
X82636403Y-76185972D01*
X82664003Y-76094986D01*
X82675000Y-75983333D01*
X82675000Y-75983324D01*
X82678676Y-75946001D01*
X82675000Y-75908678D01*
X82675000Y-72338043D01*
X82829759Y-72234637D01*
X83029637Y-72034759D01*
X83186680Y-71799727D01*
X83294853Y-71538574D01*
X83350000Y-71261335D01*
X83350000Y-70978665D01*
X83294853Y-70701426D01*
X83186680Y-70440273D01*
X83029637Y-70205241D01*
X82829759Y-70005363D01*
X82594727Y-69848320D01*
X82333574Y-69740147D01*
X82056335Y-69685000D01*
X81773665Y-69685000D01*
X81496426Y-69740147D01*
X81235273Y-69848320D01*
X81000241Y-70005363D01*
X80800363Y-70205241D01*
X80643320Y-70440273D01*
X80535147Y-70701426D01*
X80480000Y-70978665D01*
X80480000Y-71261335D01*
X80535147Y-71538574D01*
X80643320Y-71799727D01*
X80800363Y-72034759D01*
X81000241Y-72234637D01*
X81155000Y-72338044D01*
X81155001Y-75631197D01*
X78015571Y-78770628D01*
X77861592Y-78740000D01*
X77586408Y-78740000D01*
X77316510Y-78793686D01*
X77062273Y-78898995D01*
X76833465Y-79051880D01*
X76638880Y-79246465D01*
X76485995Y-79475273D01*
X76454000Y-79552515D01*
X76422005Y-79475273D01*
X76269120Y-79246465D01*
X76074535Y-79051880D01*
X75845727Y-78898995D01*
X75591490Y-78793686D01*
X75321592Y-78740000D01*
X75046408Y-78740000D01*
X74776510Y-78793686D01*
X74522273Y-78898995D01*
X74293465Y-79051880D01*
X74098880Y-79246465D01*
X73945995Y-79475273D01*
X73914000Y-79552515D01*
X73882005Y-79475273D01*
X73729120Y-79246465D01*
X73534535Y-79051880D01*
X73305727Y-78898995D01*
X73051490Y-78793686D01*
X72781592Y-78740000D01*
X72506408Y-78740000D01*
X72236510Y-78793686D01*
X71982273Y-78898995D01*
X71951001Y-78919890D01*
X71951001Y-76443800D01*
X80321114Y-68073688D01*
X80503665Y-68110000D01*
X80786335Y-68110000D01*
X81063574Y-68054853D01*
X81324727Y-67946680D01*
X81559759Y-67789637D01*
X81759637Y-67589759D01*
X81916680Y-67354727D01*
X82024853Y-67093574D01*
X82080000Y-66816335D01*
X82080000Y-66533665D01*
X82024853Y-66256426D01*
X81916680Y-65995273D01*
X81759637Y-65760241D01*
X81559759Y-65560363D01*
X81325778Y-65404022D01*
X82062810Y-64666990D01*
X149698189Y-64666990D01*
X150433500Y-65402302D01*
%TA.AperFunction,Conductor*%
D20*
G36*
X150433500Y-65402302D02*
G01*
X150433501Y-82552697D01*
X145738001Y-87248198D01*
X145738001Y-76147110D01*
X145769273Y-76168005D01*
X146023510Y-76273314D01*
X146293408Y-76327000D01*
X146327155Y-76327000D01*
X146304000Y-76443408D01*
X146304000Y-76718592D01*
X146357686Y-76988490D01*
X146462995Y-77242727D01*
X146615880Y-77471535D01*
X146810465Y-77666120D01*
X147039273Y-77819005D01*
X147293510Y-77924314D01*
X147563408Y-77978000D01*
X147838592Y-77978000D01*
X148108490Y-77924314D01*
X148362727Y-77819005D01*
X148591535Y-77666120D01*
X148786120Y-77471535D01*
X148939005Y-77242727D01*
X149044314Y-76988490D01*
X149098000Y-76718592D01*
X149098000Y-76443408D01*
X149074845Y-76327000D01*
X149108592Y-76327000D01*
X149378490Y-76273314D01*
X149632727Y-76168005D01*
X149861535Y-76015120D01*
X150056120Y-75820535D01*
X150209005Y-75591727D01*
X150314314Y-75337490D01*
X150368000Y-75067592D01*
X150368000Y-74792408D01*
X150314314Y-74522510D01*
X150209005Y-74268273D01*
X150056120Y-74039465D01*
X149861535Y-73844880D01*
X149632727Y-73691995D01*
X149378490Y-73586686D01*
X149108592Y-73533000D01*
X148833408Y-73533000D01*
X148563510Y-73586686D01*
X148309273Y-73691995D01*
X148080465Y-73844880D01*
X147885880Y-74039465D01*
X147732995Y-74268273D01*
X147701000Y-74345515D01*
X147669005Y-74268273D01*
X147516120Y-74039465D01*
X147321535Y-73844880D01*
X147092727Y-73691995D01*
X146838490Y-73586686D01*
X146568592Y-73533000D01*
X146293408Y-73533000D01*
X146023510Y-73586686D01*
X145769273Y-73691995D01*
X145540465Y-73844880D01*
X145345880Y-74039465D01*
X145192995Y-74268273D01*
X145161000Y-74345515D01*
X145129005Y-74268273D01*
X144976120Y-74039465D01*
X144781535Y-73844880D01*
X144552727Y-73691995D01*
X144298490Y-73586686D01*
X144028592Y-73533000D01*
X143753408Y-73533000D01*
X143483510Y-73586686D01*
X143229273Y-73691995D01*
X143000465Y-73844880D01*
X142805880Y-74039465D01*
X142746000Y-74129082D01*
X142746000Y-70545801D01*
X145429592Y-67862210D01*
X145649740Y-67906000D01*
X145942260Y-67906000D01*
X146229158Y-67848932D01*
X146499411Y-67736990D01*
X146742632Y-67574475D01*
X146949475Y-67367632D01*
X147111990Y-67124411D01*
X147223932Y-66854158D01*
X147281000Y-66567260D01*
X147281000Y-66274740D01*
X147223932Y-65987842D01*
X147111990Y-65717589D01*
X146949475Y-65474368D01*
X146742632Y-65267525D01*
X146499411Y-65105010D01*
X146229158Y-64993068D01*
X145942260Y-64936000D01*
X145649740Y-64936000D01*
X145362842Y-64993068D01*
X145092589Y-65105010D01*
X144849368Y-65267525D01*
X144642525Y-65474368D01*
X144526000Y-65648760D01*
X144409475Y-65474368D01*
X144202632Y-65267525D01*
X143959411Y-65105010D01*
X143689158Y-64993068D01*
X143402260Y-64936000D01*
X143109740Y-64936000D01*
X142822842Y-64993068D01*
X142552589Y-65105010D01*
X142309368Y-65267525D01*
X142102525Y-65474368D01*
X141986000Y-65648760D01*
X141869475Y-65474368D01*
X141662632Y-65267525D01*
X141419411Y-65105010D01*
X141149158Y-64993068D01*
X140862260Y-64936000D01*
X140569740Y-64936000D01*
X140282842Y-64993068D01*
X140012589Y-65105010D01*
X139769368Y-65267525D01*
X139637513Y-65399380D01*
X139615502Y-65326820D01*
X139556537Y-65216506D01*
X139477185Y-65119815D01*
X139380494Y-65040463D01*
X139270180Y-64981498D01*
X139150482Y-64945188D01*
X139026000Y-64932928D01*
X137326000Y-64932928D01*
X137201518Y-64945188D01*
X137081820Y-64981498D01*
X136971506Y-65040463D01*
X136874815Y-65119815D01*
X136795463Y-65216506D01*
X136736498Y-65326820D01*
X136700188Y-65446518D01*
X136687928Y-65571000D01*
X136687928Y-66834270D01*
X136141002Y-67381197D01*
X136111999Y-67404999D01*
X136080612Y-67443245D01*
X136017026Y-67520724D01*
X135980126Y-67589759D01*
X135946454Y-67652754D01*
X135902997Y-67796015D01*
X135892000Y-67907668D01*
X135892000Y-67907678D01*
X135888324Y-67945000D01*
X135892000Y-67982322D01*
X135892001Y-75504197D01*
X133856255Y-77539944D01*
X133862910Y-77397983D01*
X133821922Y-77125867D01*
X133728636Y-76866977D01*
X133666656Y-76751020D01*
X133426565Y-76684040D01*
X132640605Y-77470000D01*
X132654748Y-77484143D01*
X132475143Y-77663748D01*
X132461000Y-77649605D01*
X131675040Y-78435565D01*
X131742020Y-78675656D01*
X131877760Y-78739485D01*
X131799273Y-78771995D01*
X131570465Y-78924880D01*
X131375880Y-79119465D01*
X131222995Y-79348273D01*
X131117686Y-79602510D01*
X131064000Y-79872408D01*
X131064000Y-80147592D01*
X131117686Y-80417490D01*
X131222995Y-80671727D01*
X131375880Y-80900535D01*
X131570465Y-81095120D01*
X131799273Y-81248005D01*
X131876515Y-81280000D01*
X131799273Y-81311995D01*
X131570465Y-81464880D01*
X131375880Y-81659465D01*
X131222995Y-81888273D01*
X131117686Y-82142510D01*
X131064000Y-82412408D01*
X131064000Y-82687592D01*
X131117686Y-82957490D01*
X131222995Y-83211727D01*
X131375880Y-83440535D01*
X131570465Y-83635120D01*
X131799273Y-83788005D01*
X131876515Y-83820000D01*
X131799273Y-83851995D01*
X131570465Y-84004880D01*
X131375880Y-84199465D01*
X131222995Y-84428273D01*
X131117686Y-84682510D01*
X131064000Y-84952408D01*
X131064000Y-85227592D01*
X131117686Y-85497490D01*
X131222995Y-85751727D01*
X131375880Y-85980535D01*
X131570465Y-86175120D01*
X131799273Y-86328005D01*
X131876515Y-86360000D01*
X131799273Y-86391995D01*
X131570465Y-86544880D01*
X131375880Y-86739465D01*
X131239945Y-86942906D01*
X130681000Y-86383961D01*
X130681000Y-78438560D01*
X130684676Y-78401237D01*
X130681000Y-78363914D01*
X130681000Y-78363905D01*
X130670003Y-78252252D01*
X130626546Y-78108991D01*
X130555974Y-77976962D01*
X130512767Y-77924314D01*
X130484799Y-77890234D01*
X130484795Y-77890230D01*
X130461001Y-77861237D01*
X130432008Y-77837443D01*
X130136582Y-77542017D01*
X131059090Y-77542017D01*
X131100078Y-77814133D01*
X131193364Y-78073023D01*
X131255344Y-78188980D01*
X131495435Y-78255960D01*
X132281395Y-77470000D01*
X131495435Y-76684040D01*
X131255344Y-76751020D01*
X131138244Y-77000048D01*
X131071977Y-77267135D01*
X131059090Y-77542017D01*
X130136582Y-77542017D01*
X127386973Y-74792408D01*
X131064000Y-74792408D01*
X131064000Y-75067592D01*
X131117686Y-75337490D01*
X131222995Y-75591727D01*
X131375880Y-75820535D01*
X131570465Y-76015120D01*
X131799273Y-76168005D01*
X131870943Y-76197692D01*
X131857977Y-76202364D01*
X131742020Y-76264344D01*
X131675040Y-76504435D01*
X132461000Y-77290395D01*
X133246960Y-76504435D01*
X133179980Y-76264344D01*
X133044240Y-76200515D01*
X133122727Y-76168005D01*
X133351535Y-76015120D01*
X133546120Y-75820535D01*
X133699005Y-75591727D01*
X133804314Y-75337490D01*
X133858000Y-75067592D01*
X133858000Y-74792408D01*
X133804314Y-74522510D01*
X133699005Y-74268273D01*
X133546120Y-74039465D01*
X133351535Y-73844880D01*
X133122727Y-73691995D01*
X132868490Y-73586686D01*
X132598592Y-73533000D01*
X132323408Y-73533000D01*
X132053510Y-73586686D01*
X131799273Y-73691995D01*
X131570465Y-73844880D01*
X131375880Y-74039465D01*
X131222995Y-74268273D01*
X131117686Y-74522510D01*
X131064000Y-74792408D01*
X127386973Y-74792408D01*
X120594557Y-67999994D01*
X120570754Y-67970990D01*
X120455029Y-67876017D01*
X120323000Y-67805445D01*
X120179739Y-67761988D01*
X120068086Y-67750991D01*
X120068075Y-67750991D01*
X120030753Y-67747315D01*
X119993431Y-67750991D01*
X92181332Y-67750991D01*
X92144009Y-67747315D01*
X92106686Y-67750991D01*
X92106676Y-67750991D01*
X91995023Y-67761988D01*
X91864645Y-67801537D01*
X91851762Y-67805445D01*
X91719732Y-67876017D01*
X91637719Y-67943324D01*
X91604008Y-67970990D01*
X91580210Y-67999988D01*
X89858886Y-69721312D01*
X89676335Y-69685000D01*
X89393665Y-69685000D01*
X89116426Y-69740147D01*
X88855273Y-69848320D01*
X88620241Y-70005363D01*
X88420363Y-70205241D01*
X88263320Y-70440273D01*
X88155147Y-70701426D01*
X88100000Y-70978665D01*
X88100000Y-71261335D01*
X88136312Y-71443886D01*
X81399634Y-78180565D01*
X81314013Y-78188998D01*
X81170752Y-78232455D01*
X81038723Y-78303027D01*
X80922998Y-78398000D01*
X80899200Y-78426998D01*
X80555570Y-78770628D01*
X80401592Y-78740000D01*
X80195801Y-78740000D01*
X82426003Y-76509799D01*
X82455001Y-76486001D01*
X82508145Y-76421245D01*
X82549974Y-76370277D01*
X82620546Y-76238247D01*
X82636403Y-76185972D01*
X82664003Y-76094986D01*
X82675000Y-75983333D01*
X82675000Y-75983324D01*
X82678676Y-75946001D01*
X82675000Y-75908678D01*
X82675000Y-72338043D01*
X82829759Y-72234637D01*
X83029637Y-72034759D01*
X83186680Y-71799727D01*
X83294853Y-71538574D01*
X83350000Y-71261335D01*
X83350000Y-70978665D01*
X83294853Y-70701426D01*
X83186680Y-70440273D01*
X83029637Y-70205241D01*
X82829759Y-70005363D01*
X82594727Y-69848320D01*
X82333574Y-69740147D01*
X82056335Y-69685000D01*
X81773665Y-69685000D01*
X81496426Y-69740147D01*
X81235273Y-69848320D01*
X81000241Y-70005363D01*
X80800363Y-70205241D01*
X80643320Y-70440273D01*
X80535147Y-70701426D01*
X80480000Y-70978665D01*
X80480000Y-71261335D01*
X80535147Y-71538574D01*
X80643320Y-71799727D01*
X80800363Y-72034759D01*
X81000241Y-72234637D01*
X81155000Y-72338044D01*
X81155001Y-75631197D01*
X78015571Y-78770628D01*
X77861592Y-78740000D01*
X77586408Y-78740000D01*
X77316510Y-78793686D01*
X77062273Y-78898995D01*
X76833465Y-79051880D01*
X76638880Y-79246465D01*
X76485995Y-79475273D01*
X76454000Y-79552515D01*
X76422005Y-79475273D01*
X76269120Y-79246465D01*
X76074535Y-79051880D01*
X75845727Y-78898995D01*
X75591490Y-78793686D01*
X75321592Y-78740000D01*
X75046408Y-78740000D01*
X74776510Y-78793686D01*
X74522273Y-78898995D01*
X74293465Y-79051880D01*
X74098880Y-79246465D01*
X73945995Y-79475273D01*
X73914000Y-79552515D01*
X73882005Y-79475273D01*
X73729120Y-79246465D01*
X73534535Y-79051880D01*
X73305727Y-78898995D01*
X73051490Y-78793686D01*
X72781592Y-78740000D01*
X72506408Y-78740000D01*
X72236510Y-78793686D01*
X71982273Y-78898995D01*
X71951001Y-78919890D01*
X71951001Y-76443800D01*
X80321114Y-68073688D01*
X80503665Y-68110000D01*
X80786335Y-68110000D01*
X81063574Y-68054853D01*
X81324727Y-67946680D01*
X81559759Y-67789637D01*
X81759637Y-67589759D01*
X81916680Y-67354727D01*
X82024853Y-67093574D01*
X82080000Y-66816335D01*
X82080000Y-66533665D01*
X82024853Y-66256426D01*
X81916680Y-65995273D01*
X81759637Y-65760241D01*
X81559759Y-65560363D01*
X81325778Y-65404022D01*
X82062810Y-64666990D01*
X149698189Y-64666990D01*
X150433500Y-65402302D01*
G37*
%TD.AperFunction*%
%TD*%
M02*
