%TF.GenerationSoftware,KiCad,Pcbnew,5.1.9-73d0e3b20d~88~ubuntu20.04.1*%
%TF.CreationDate,2021-04-10T15:21:01+02:00*%
%TF.ProjectId,pcb_central_unit,7063625f-6365-46e7-9472-616c5f756e69,rev?*%
%TF.SameCoordinates,Original*%
%TF.FileFunction,Other,Fab,Top*%
%FSLAX46Y46*%
G04 Gerber Fmt 4.6, Leading zero omitted, Abs format (unit mm)*
G04 Created by KiCad (PCBNEW 5.1.9-73d0e3b20d~88~ubuntu20.04.1) date 2021-04-10 15:21:01*
%MOMM*%
%LPD*%
G01*
G04 APERTURE LIST*
%ADD10C,0.200000*%
%ADD11C,0.127000*%
%ADD12C,0.100000*%
%ADD13C,0.015000*%
%ADD14C,0.150000*%
G04 APERTURE END LIST*
D10*
%TO.C,U1*%
X117911000Y-92710000D02*
G75*
G03*
X117911000Y-92710000I-100000J0D01*
G01*
D11*
X118491000Y-93980000D02*
X118491000Y-73660000D01*
X133731000Y-93980000D02*
X118491000Y-93980000D01*
X133731000Y-73660000D02*
X133731000Y-93980000D01*
X118491000Y-73660000D02*
X133731000Y-73660000D01*
D12*
%TO.C,J2*%
X94361000Y-118999000D02*
X94361000Y-123079000D01*
X94361000Y-123079000D02*
X93361000Y-124079000D01*
X93361000Y-124079000D02*
X84201000Y-124079000D01*
X84201000Y-124079000D02*
X84201000Y-118999000D01*
X84201000Y-118999000D02*
X94361000Y-118999000D01*
D10*
%TO.C,U2*%
X142041000Y-92710000D02*
G75*
G03*
X142041000Y-92710000I-100000J0D01*
G01*
D11*
X142621000Y-93980000D02*
X142621000Y-73660000D01*
X157861000Y-93980000D02*
X142621000Y-93980000D01*
X157861000Y-73660000D02*
X157861000Y-93980000D01*
X142621000Y-73660000D02*
X157861000Y-73660000D01*
D12*
%TO.C,J6*%
X106172000Y-101346000D02*
X108077000Y-101346000D01*
X108077000Y-101346000D02*
X108077000Y-111506000D01*
X108077000Y-111506000D02*
X105537000Y-111506000D01*
X105537000Y-111506000D02*
X105537000Y-101981000D01*
X105537000Y-101981000D02*
X106172000Y-101346000D01*
%TO.C,J7*%
X100965000Y-119253000D02*
X101600000Y-118618000D01*
X100965000Y-123698000D02*
X100965000Y-119253000D01*
X103505000Y-123698000D02*
X100965000Y-123698000D01*
X103505000Y-118618000D02*
X103505000Y-123698000D01*
X101600000Y-118618000D02*
X103505000Y-118618000D01*
%TO.C,R2*%
X88875000Y-72370000D02*
X88875000Y-69870000D01*
X88875000Y-69870000D02*
X82575000Y-69870000D01*
X82575000Y-69870000D02*
X82575000Y-72370000D01*
X82575000Y-72370000D02*
X88875000Y-72370000D01*
X89535000Y-71120000D02*
X88875000Y-71120000D01*
X81915000Y-71120000D02*
X82575000Y-71120000D01*
%TO.C,R1*%
X79985000Y-67925000D02*
X79985000Y-65425000D01*
X79985000Y-65425000D02*
X73685000Y-65425000D01*
X73685000Y-65425000D02*
X73685000Y-67925000D01*
X73685000Y-67925000D02*
X79985000Y-67925000D01*
X80645000Y-66675000D02*
X79985000Y-66675000D01*
X73025000Y-66675000D02*
X73685000Y-66675000D01*
%TO.C,J9*%
X64008000Y-116689000D02*
X64008000Y-118594000D01*
X64008000Y-118594000D02*
X58928000Y-118594000D01*
X58928000Y-118594000D02*
X58928000Y-116054000D01*
X58928000Y-116054000D02*
X63373000Y-116054000D01*
X63373000Y-116054000D02*
X64008000Y-116689000D01*
X63058000Y-114234000D02*
X63058000Y-116054000D01*
X63058000Y-114234000D02*
X62418000Y-114234000D01*
X62418000Y-114234000D02*
X62418000Y-116054000D01*
X63058000Y-118594000D02*
X63058000Y-124594000D01*
X63058000Y-124594000D02*
X62418000Y-124594000D01*
X62418000Y-118594000D02*
X62418000Y-124594000D01*
X60518000Y-114234000D02*
X60518000Y-116054000D01*
X60518000Y-114234000D02*
X59878000Y-114234000D01*
X59878000Y-114234000D02*
X59878000Y-116054000D01*
X60518000Y-118594000D02*
X60518000Y-124594000D01*
X60518000Y-124594000D02*
X59878000Y-124594000D01*
X59878000Y-118594000D02*
X59878000Y-124594000D01*
%TO.C,J8*%
X56515000Y-116562000D02*
X56515000Y-118467000D01*
X56515000Y-118467000D02*
X51435000Y-118467000D01*
X51435000Y-118467000D02*
X51435000Y-115927000D01*
X51435000Y-115927000D02*
X55880000Y-115927000D01*
X55880000Y-115927000D02*
X56515000Y-116562000D01*
X55565000Y-114107000D02*
X55565000Y-115927000D01*
X55565000Y-114107000D02*
X54925000Y-114107000D01*
X54925000Y-114107000D02*
X54925000Y-115927000D01*
X55565000Y-118467000D02*
X55565000Y-124467000D01*
X55565000Y-124467000D02*
X54925000Y-124467000D01*
X54925000Y-118467000D02*
X54925000Y-124467000D01*
X53025000Y-114107000D02*
X53025000Y-115927000D01*
X53025000Y-114107000D02*
X52385000Y-114107000D01*
X52385000Y-114107000D02*
X52385000Y-115927000D01*
X53025000Y-118467000D02*
X53025000Y-124467000D01*
X53025000Y-124467000D02*
X52385000Y-124467000D01*
X52385000Y-118467000D02*
X52385000Y-124467000D01*
%TO.C,J5*%
X152654000Y-67691000D02*
X152654000Y-65786000D01*
X152654000Y-65786000D02*
X153289000Y-65151000D01*
X153289000Y-65151000D02*
X162814000Y-65151000D01*
X162814000Y-65151000D02*
X162814000Y-67691000D01*
X162814000Y-67691000D02*
X152654000Y-67691000D01*
%TO.C,J4*%
X136906000Y-67691000D02*
X136906000Y-65786000D01*
X136906000Y-65786000D02*
X137541000Y-65151000D01*
X137541000Y-65151000D02*
X147066000Y-65151000D01*
X147066000Y-65151000D02*
X147066000Y-67691000D01*
X147066000Y-67691000D02*
X136906000Y-67691000D01*
%TO.C,J3*%
X78613000Y-118872000D02*
X78613000Y-122952000D01*
X78613000Y-122952000D02*
X77613000Y-123952000D01*
X77613000Y-123952000D02*
X68453000Y-123952000D01*
X68453000Y-123952000D02*
X68453000Y-118872000D01*
X68453000Y-118872000D02*
X78613000Y-118872000D01*
%TO.C,J1*%
X62992000Y-64516000D02*
X62992000Y-68596000D01*
X62992000Y-68596000D02*
X61992000Y-69596000D01*
X61992000Y-69596000D02*
X52832000Y-69596000D01*
X52832000Y-69596000D02*
X52832000Y-64516000D01*
X52832000Y-64516000D02*
X62992000Y-64516000D01*
%TD*%
%TO.C,U1*%
D13*
X77974333Y-71642333D02*
X78774333Y-71642333D01*
X78374333Y-73042333D02*
X78374333Y-71642333D01*
X79241000Y-73042333D02*
X79241000Y-71642333D01*
X79707666Y-72642333D01*
X80174333Y-71642333D01*
X80174333Y-73042333D01*
X81641000Y-72909000D02*
X81574333Y-72975666D01*
X81374333Y-73042333D01*
X81241000Y-73042333D01*
X81041000Y-72975666D01*
X80907666Y-72842333D01*
X80841000Y-72709000D01*
X80774333Y-72442333D01*
X80774333Y-72242333D01*
X80841000Y-71975666D01*
X80907666Y-71842333D01*
X81041000Y-71709000D01*
X81241000Y-71642333D01*
X81374333Y-71642333D01*
X81574333Y-71709000D01*
X81641000Y-71775666D01*
X82174333Y-71775666D02*
X82241000Y-71709000D01*
X82374333Y-71642333D01*
X82707666Y-71642333D01*
X82841000Y-71709000D01*
X82907666Y-71775666D01*
X82974333Y-71909000D01*
X82974333Y-72042333D01*
X82907666Y-72242333D01*
X82107666Y-73042333D01*
X82974333Y-73042333D01*
X83507666Y-71775666D02*
X83574333Y-71709000D01*
X83707666Y-71642333D01*
X84041000Y-71642333D01*
X84174333Y-71709000D01*
X84241000Y-71775666D01*
X84307666Y-71909000D01*
X84307666Y-72042333D01*
X84241000Y-72242333D01*
X83441000Y-73042333D01*
X84307666Y-73042333D01*
X85174333Y-71642333D02*
X85307666Y-71642333D01*
X85441000Y-71709000D01*
X85507666Y-71775666D01*
X85574333Y-71909000D01*
X85641000Y-72175666D01*
X85641000Y-72509000D01*
X85574333Y-72775666D01*
X85507666Y-72909000D01*
X85441000Y-72975666D01*
X85307666Y-73042333D01*
X85174333Y-73042333D01*
X85041000Y-72975666D01*
X84974333Y-72909000D01*
X84907666Y-72775666D01*
X84841000Y-72509000D01*
X84841000Y-72175666D01*
X84907666Y-71909000D01*
X84974333Y-71775666D01*
X85041000Y-71709000D01*
X85174333Y-71642333D01*
X86441000Y-72242333D02*
X86307666Y-72175666D01*
X86241000Y-72109000D01*
X86174333Y-71975666D01*
X86174333Y-71909000D01*
X86241000Y-71775666D01*
X86307666Y-71709000D01*
X86441000Y-71642333D01*
X86707666Y-71642333D01*
X86841000Y-71709000D01*
X86907666Y-71775666D01*
X86974333Y-71909000D01*
X86974333Y-71975666D01*
X86907666Y-72109000D01*
X86841000Y-72175666D01*
X86707666Y-72242333D01*
X86441000Y-72242333D01*
X86307666Y-72309000D01*
X86241000Y-72375666D01*
X86174333Y-72509000D01*
X86174333Y-72775666D01*
X86241000Y-72909000D01*
X86307666Y-72975666D01*
X86441000Y-73042333D01*
X86707666Y-73042333D01*
X86841000Y-72975666D01*
X86907666Y-72909000D01*
X86974333Y-72775666D01*
X86974333Y-72509000D01*
X86907666Y-72375666D01*
X86841000Y-72309000D01*
X86707666Y-72242333D01*
X87241000Y-73175666D02*
X88307666Y-73175666D01*
X88574333Y-72975666D02*
X88774333Y-73042333D01*
X89107666Y-73042333D01*
X89241000Y-72975666D01*
X89307666Y-72909000D01*
X89374333Y-72775666D01*
X89374333Y-72642333D01*
X89307666Y-72509000D01*
X89241000Y-72442333D01*
X89107666Y-72375666D01*
X88841000Y-72309000D01*
X88707666Y-72242333D01*
X88641000Y-72175666D01*
X88574333Y-72042333D01*
X88574333Y-71909000D01*
X88641000Y-71775666D01*
X88707666Y-71709000D01*
X88841000Y-71642333D01*
X89174333Y-71642333D01*
X89374333Y-71709000D01*
X89974333Y-73042333D02*
X89974333Y-71642333D01*
X91307666Y-73042333D02*
X90641000Y-73042333D01*
X90641000Y-71642333D01*
X91774333Y-72309000D02*
X92241000Y-72309000D01*
X92441000Y-73042333D02*
X91774333Y-73042333D01*
X91774333Y-71642333D01*
X92441000Y-71642333D01*
X93041000Y-73042333D02*
X93041000Y-71642333D01*
X93841000Y-73042333D01*
X93841000Y-71642333D01*
X94307666Y-71642333D02*
X95107666Y-71642333D01*
X94707666Y-73042333D02*
X94707666Y-71642333D01*
X95507666Y-72975666D02*
X95707666Y-73042333D01*
X96041000Y-73042333D01*
X96174333Y-72975666D01*
X96241000Y-72909000D01*
X96307666Y-72775666D01*
X96307666Y-72642333D01*
X96241000Y-72509000D01*
X96174333Y-72442333D01*
X96041000Y-72375666D01*
X95774333Y-72309000D01*
X95641000Y-72242333D01*
X95574333Y-72175666D01*
X95507666Y-72042333D01*
X95507666Y-71909000D01*
X95574333Y-71775666D01*
X95641000Y-71709000D01*
X95774333Y-71642333D01*
X96107666Y-71642333D01*
X96307666Y-71709000D01*
X96707666Y-71642333D02*
X97507666Y-71642333D01*
X97107666Y-73042333D02*
X97107666Y-71642333D01*
X97974333Y-72309000D02*
X98441000Y-72309000D01*
X98641000Y-73042333D02*
X97974333Y-73042333D01*
X97974333Y-71642333D01*
X98641000Y-71642333D01*
X99241000Y-73042333D02*
X99241000Y-71642333D01*
X99774333Y-71642333D01*
X99907666Y-71709000D01*
X99974333Y-71775666D01*
X100041000Y-71909000D01*
X100041000Y-72109000D01*
X99974333Y-72242333D01*
X99907666Y-72309000D01*
X99774333Y-72375666D01*
X99241000Y-72375666D01*
X100574333Y-72975666D02*
X100774333Y-73042333D01*
X101107666Y-73042333D01*
X101241000Y-72975666D01*
X101307666Y-72909000D01*
X101374333Y-72775666D01*
X101374333Y-72642333D01*
X101307666Y-72509000D01*
X101241000Y-72442333D01*
X101107666Y-72375666D01*
X100841000Y-72309000D01*
X100707666Y-72242333D01*
X100641000Y-72175666D01*
X100574333Y-72042333D01*
X100574333Y-71909000D01*
X100641000Y-71775666D01*
X100707666Y-71709000D01*
X100841000Y-71642333D01*
X101174333Y-71642333D01*
X101374333Y-71709000D01*
X101774333Y-71642333D02*
X102574333Y-71642333D01*
X102174333Y-73042333D02*
X102174333Y-71642333D01*
X103041000Y-73042333D02*
X103041000Y-71642333D01*
X104507666Y-72909000D02*
X104441000Y-72975666D01*
X104241000Y-73042333D01*
X104107666Y-73042333D01*
X103907666Y-72975666D01*
X103774333Y-72842333D01*
X103707666Y-72709000D01*
X103641000Y-72442333D01*
X103641000Y-72242333D01*
X103707666Y-71975666D01*
X103774333Y-71842333D01*
X103907666Y-71709000D01*
X104107666Y-71642333D01*
X104241000Y-71642333D01*
X104441000Y-71709000D01*
X104507666Y-71775666D01*
X105107666Y-73042333D02*
X105107666Y-71642333D01*
X105907666Y-73042333D02*
X105307666Y-72242333D01*
X105907666Y-71642333D02*
X105107666Y-72442333D01*
X106507666Y-72509000D02*
X107574333Y-72509000D01*
X108041000Y-71642333D02*
X108841000Y-71642333D01*
X108441000Y-73042333D02*
X108441000Y-71642333D01*
X109307666Y-73042333D02*
X109307666Y-71642333D01*
X109774333Y-72642333D01*
X110241000Y-71642333D01*
X110241000Y-73042333D01*
X111707666Y-72909000D02*
X111641000Y-72975666D01*
X111441000Y-73042333D01*
X111307666Y-73042333D01*
X111107666Y-72975666D01*
X110974333Y-72842333D01*
X110907666Y-72709000D01*
X110841000Y-72442333D01*
X110841000Y-72242333D01*
X110907666Y-71975666D01*
X110974333Y-71842333D01*
X111107666Y-71709000D01*
X111307666Y-71642333D01*
X111441000Y-71642333D01*
X111641000Y-71709000D01*
X111707666Y-71775666D01*
X112241000Y-71775666D02*
X112307666Y-71709000D01*
X112441000Y-71642333D01*
X112774333Y-71642333D01*
X112907666Y-71709000D01*
X112974333Y-71775666D01*
X113041000Y-71909000D01*
X113041000Y-72042333D01*
X112974333Y-72242333D01*
X112174333Y-73042333D01*
X113041000Y-73042333D01*
X113574333Y-71775666D02*
X113641000Y-71709000D01*
X113774333Y-71642333D01*
X114107666Y-71642333D01*
X114241000Y-71709000D01*
X114307666Y-71775666D01*
X114374333Y-71909000D01*
X114374333Y-72042333D01*
X114307666Y-72242333D01*
X113507666Y-73042333D01*
X114374333Y-73042333D01*
X115241000Y-71642333D02*
X115374333Y-71642333D01*
X115507666Y-71709000D01*
X115574333Y-71775666D01*
X115641000Y-71909000D01*
X115707666Y-72175666D01*
X115707666Y-72509000D01*
X115641000Y-72775666D01*
X115574333Y-72909000D01*
X115507666Y-72975666D01*
X115374333Y-73042333D01*
X115241000Y-73042333D01*
X115107666Y-72975666D01*
X115041000Y-72909000D01*
X114974333Y-72775666D01*
X114907666Y-72509000D01*
X114907666Y-72175666D01*
X114974333Y-71909000D01*
X115041000Y-71775666D01*
X115107666Y-71709000D01*
X115241000Y-71642333D01*
X116507666Y-72242333D02*
X116374333Y-72175666D01*
X116307666Y-72109000D01*
X116241000Y-71975666D01*
X116241000Y-71909000D01*
X116307666Y-71775666D01*
X116374333Y-71709000D01*
X116507666Y-71642333D01*
X116774333Y-71642333D01*
X116907666Y-71709000D01*
X116974333Y-71775666D01*
X117041000Y-71909000D01*
X117041000Y-71975666D01*
X116974333Y-72109000D01*
X116907666Y-72175666D01*
X116774333Y-72242333D01*
X116507666Y-72242333D01*
X116374333Y-72309000D01*
X116307666Y-72375666D01*
X116241000Y-72509000D01*
X116241000Y-72775666D01*
X116307666Y-72909000D01*
X116374333Y-72975666D01*
X116507666Y-73042333D01*
X116774333Y-73042333D01*
X116907666Y-72975666D01*
X116974333Y-72909000D01*
X117041000Y-72775666D01*
X117041000Y-72509000D01*
X116974333Y-72375666D01*
X116907666Y-72309000D01*
X116774333Y-72242333D01*
X117307666Y-73175666D02*
X118374333Y-73175666D01*
X118641000Y-72975666D02*
X118841000Y-73042333D01*
X119174333Y-73042333D01*
X119307666Y-72975666D01*
X119374333Y-72909000D01*
X119441000Y-72775666D01*
X119441000Y-72642333D01*
X119374333Y-72509000D01*
X119307666Y-72442333D01*
X119174333Y-72375666D01*
X118907666Y-72309000D01*
X118774333Y-72242333D01*
X118707666Y-72175666D01*
X118641000Y-72042333D01*
X118641000Y-71909000D01*
X118707666Y-71775666D01*
X118774333Y-71709000D01*
X118907666Y-71642333D01*
X119241000Y-71642333D01*
X119441000Y-71709000D01*
X120041000Y-73042333D02*
X120041000Y-71642333D01*
X121374333Y-73042333D02*
X120707666Y-73042333D01*
X120707666Y-71642333D01*
X121841000Y-72309000D02*
X122307666Y-72309000D01*
X122507666Y-73042333D02*
X121841000Y-73042333D01*
X121841000Y-71642333D01*
X122507666Y-71642333D01*
X123107666Y-73042333D02*
X123107666Y-71642333D01*
X123907666Y-73042333D01*
X123907666Y-71642333D01*
X124374333Y-71642333D02*
X125174333Y-71642333D01*
X124774333Y-73042333D02*
X124774333Y-71642333D01*
X125574333Y-72975666D02*
X125774333Y-73042333D01*
X126107666Y-73042333D01*
X126241000Y-72975666D01*
X126307666Y-72909000D01*
X126374333Y-72775666D01*
X126374333Y-72642333D01*
X126307666Y-72509000D01*
X126241000Y-72442333D01*
X126107666Y-72375666D01*
X125841000Y-72309000D01*
X125707666Y-72242333D01*
X125641000Y-72175666D01*
X125574333Y-72042333D01*
X125574333Y-71909000D01*
X125641000Y-71775666D01*
X125707666Y-71709000D01*
X125841000Y-71642333D01*
X126174333Y-71642333D01*
X126374333Y-71709000D01*
X126774333Y-71642333D02*
X127574333Y-71642333D01*
X127174333Y-73042333D02*
X127174333Y-71642333D01*
X128041000Y-72309000D02*
X128507666Y-72309000D01*
X128707666Y-73042333D02*
X128041000Y-73042333D01*
X128041000Y-71642333D01*
X128707666Y-71642333D01*
X129307666Y-73042333D02*
X129307666Y-71642333D01*
X129841000Y-71642333D01*
X129974333Y-71709000D01*
X130041000Y-71775666D01*
X130107666Y-71909000D01*
X130107666Y-72109000D01*
X130041000Y-72242333D01*
X129974333Y-72309000D01*
X129841000Y-72375666D01*
X129307666Y-72375666D01*
X130641000Y-72975666D02*
X130841000Y-73042333D01*
X131174333Y-73042333D01*
X131307666Y-72975666D01*
X131374333Y-72909000D01*
X131441000Y-72775666D01*
X131441000Y-72642333D01*
X131374333Y-72509000D01*
X131307666Y-72442333D01*
X131174333Y-72375666D01*
X130907666Y-72309000D01*
X130774333Y-72242333D01*
X130707666Y-72175666D01*
X130641000Y-72042333D01*
X130641000Y-71909000D01*
X130707666Y-71775666D01*
X130774333Y-71709000D01*
X130907666Y-71642333D01*
X131241000Y-71642333D01*
X131441000Y-71709000D01*
X131841000Y-71642333D02*
X132641000Y-71642333D01*
X132241000Y-73042333D02*
X132241000Y-71642333D01*
X133107666Y-73042333D02*
X133107666Y-71642333D01*
X134574333Y-72909000D02*
X134507666Y-72975666D01*
X134307666Y-73042333D01*
X134174333Y-73042333D01*
X133974333Y-72975666D01*
X133841000Y-72842333D01*
X133774333Y-72709000D01*
X133707666Y-72442333D01*
X133707666Y-72242333D01*
X133774333Y-71975666D01*
X133841000Y-71842333D01*
X133974333Y-71709000D01*
X134174333Y-71642333D01*
X134307666Y-71642333D01*
X134507666Y-71709000D01*
X134574333Y-71775666D01*
X135174333Y-73042333D02*
X135174333Y-71642333D01*
X135974333Y-73042333D02*
X135374333Y-72242333D01*
X135974333Y-71642333D02*
X135174333Y-72442333D01*
%TO.C,J2*%
D14*
X82201000Y-123919952D02*
X82153380Y-124015190D01*
X82153380Y-124158047D01*
X82201000Y-124300904D01*
X82296238Y-124396142D01*
X82391476Y-124443761D01*
X82581952Y-124491380D01*
X82724809Y-124491380D01*
X82915285Y-124443761D01*
X83010523Y-124396142D01*
X83105761Y-124300904D01*
X83153380Y-124158047D01*
X83153380Y-124062809D01*
X83105761Y-123919952D01*
X83058142Y-123872333D01*
X82724809Y-123872333D01*
X82724809Y-124062809D01*
X83153380Y-122967571D02*
X83153380Y-123443761D01*
X82153380Y-123443761D01*
X82867666Y-122681857D02*
X82867666Y-122205666D01*
X83153380Y-122777095D02*
X82153380Y-122443761D01*
X83153380Y-122110428D01*
X83105761Y-121824714D02*
X83153380Y-121681857D01*
X83153380Y-121443761D01*
X83105761Y-121348523D01*
X83058142Y-121300904D01*
X82962904Y-121253285D01*
X82867666Y-121253285D01*
X82772428Y-121300904D01*
X82724809Y-121348523D01*
X82677190Y-121443761D01*
X82629571Y-121634238D01*
X82581952Y-121729476D01*
X82534333Y-121777095D01*
X82439095Y-121824714D01*
X82343857Y-121824714D01*
X82248619Y-121777095D01*
X82201000Y-121729476D01*
X82153380Y-121634238D01*
X82153380Y-121396142D01*
X82201000Y-121253285D01*
X83105761Y-120872333D02*
X83153380Y-120729476D01*
X83153380Y-120491380D01*
X83105761Y-120396142D01*
X83058142Y-120348523D01*
X82962904Y-120300904D01*
X82867666Y-120300904D01*
X82772428Y-120348523D01*
X82724809Y-120396142D01*
X82677190Y-120491380D01*
X82629571Y-120681857D01*
X82581952Y-120777095D01*
X82534333Y-120824714D01*
X82439095Y-120872333D01*
X82343857Y-120872333D01*
X82248619Y-120824714D01*
X82201000Y-120777095D01*
X82153380Y-120681857D01*
X82153380Y-120443761D01*
X82201000Y-120300904D01*
X83248619Y-120110428D02*
X83248619Y-119348523D01*
X82153380Y-118919952D02*
X82153380Y-118824714D01*
X82201000Y-118729476D01*
X82248619Y-118681857D01*
X82343857Y-118634238D01*
X82534333Y-118586619D01*
X82772428Y-118586619D01*
X82962904Y-118634238D01*
X83058142Y-118681857D01*
X83105761Y-118729476D01*
X83153380Y-118824714D01*
X83153380Y-118919952D01*
X83105761Y-119015190D01*
X83058142Y-119062809D01*
X82962904Y-119110428D01*
X82772428Y-119158047D01*
X82534333Y-119158047D01*
X82343857Y-119110428D01*
X82248619Y-119062809D01*
X82201000Y-119015190D01*
X82153380Y-118919952D01*
X88947666Y-120991380D02*
X88947666Y-121705666D01*
X88900047Y-121848523D01*
X88804809Y-121943761D01*
X88661952Y-121991380D01*
X88566714Y-121991380D01*
X89376238Y-121086619D02*
X89423857Y-121039000D01*
X89519095Y-120991380D01*
X89757190Y-120991380D01*
X89852428Y-121039000D01*
X89900047Y-121086619D01*
X89947666Y-121181857D01*
X89947666Y-121277095D01*
X89900047Y-121419952D01*
X89328619Y-121991380D01*
X89947666Y-121991380D01*
%TO.C,U3*%
X66032571Y-103860809D02*
X66032571Y-103527476D01*
X66556380Y-103384619D02*
X66556380Y-103860809D01*
X65556380Y-103860809D01*
X65556380Y-103384619D01*
X66508761Y-103003666D02*
X66556380Y-102860809D01*
X66556380Y-102622714D01*
X66508761Y-102527476D01*
X66461142Y-102479857D01*
X66365904Y-102432238D01*
X66270666Y-102432238D01*
X66175428Y-102479857D01*
X66127809Y-102527476D01*
X66080190Y-102622714D01*
X66032571Y-102813190D01*
X65984952Y-102908428D01*
X65937333Y-102956047D01*
X65842095Y-103003666D01*
X65746857Y-103003666D01*
X65651619Y-102956047D01*
X65604000Y-102908428D01*
X65556380Y-102813190D01*
X65556380Y-102575095D01*
X65604000Y-102432238D01*
X66556380Y-102003666D02*
X65556380Y-102003666D01*
X65556380Y-101622714D01*
X65604000Y-101527476D01*
X65651619Y-101479857D01*
X65746857Y-101432238D01*
X65889714Y-101432238D01*
X65984952Y-101479857D01*
X66032571Y-101527476D01*
X66080190Y-101622714D01*
X66080190Y-102003666D01*
X65556380Y-101098904D02*
X65556380Y-100479857D01*
X65937333Y-100813190D01*
X65937333Y-100670333D01*
X65984952Y-100575095D01*
X66032571Y-100527476D01*
X66127809Y-100479857D01*
X66365904Y-100479857D01*
X66461142Y-100527476D01*
X66508761Y-100575095D01*
X66556380Y-100670333D01*
X66556380Y-100956047D01*
X66508761Y-101051285D01*
X66461142Y-101098904D01*
X65651619Y-100098904D02*
X65604000Y-100051285D01*
X65556380Y-99956047D01*
X65556380Y-99717952D01*
X65604000Y-99622714D01*
X65651619Y-99575095D01*
X65746857Y-99527476D01*
X65842095Y-99527476D01*
X65984952Y-99575095D01*
X66556380Y-100146523D01*
X66556380Y-99527476D01*
X66651619Y-99337000D02*
X66651619Y-98575095D01*
X66556380Y-98337000D02*
X65556380Y-98337000D01*
X65556380Y-98098904D01*
X65604000Y-97956047D01*
X65699238Y-97860809D01*
X65794476Y-97813190D01*
X65984952Y-97765571D01*
X66127809Y-97765571D01*
X66318285Y-97813190D01*
X66413523Y-97860809D01*
X66508761Y-97956047D01*
X66556380Y-98098904D01*
X66556380Y-98337000D01*
X66508761Y-96956047D02*
X66556380Y-97051285D01*
X66556380Y-97241761D01*
X66508761Y-97337000D01*
X66413523Y-97384619D01*
X66032571Y-97384619D01*
X65937333Y-97337000D01*
X65889714Y-97241761D01*
X65889714Y-97051285D01*
X65937333Y-96956047D01*
X66032571Y-96908428D01*
X66127809Y-96908428D01*
X66223047Y-97384619D01*
X65889714Y-96575095D02*
X66556380Y-96337000D01*
X65889714Y-96098904D01*
X66556380Y-95717952D02*
X65556380Y-95717952D01*
X66556380Y-95146523D02*
X65984952Y-95575095D01*
X65556380Y-95146523D02*
X66127809Y-95717952D01*
X66556380Y-94717952D02*
X65889714Y-94717952D01*
X65556380Y-94717952D02*
X65604000Y-94765571D01*
X65651619Y-94717952D01*
X65604000Y-94670333D01*
X65556380Y-94717952D01*
X65651619Y-94717952D01*
X65889714Y-94384619D02*
X65889714Y-94003666D01*
X65556380Y-94241761D02*
X66413523Y-94241761D01*
X66508761Y-94194142D01*
X66556380Y-94098904D01*
X66556380Y-94003666D01*
X66651619Y-93908428D02*
X66651619Y-93146523D01*
X65556380Y-93051285D02*
X66556380Y-92717952D01*
X65556380Y-92384619D01*
X66556380Y-91527476D02*
X66556380Y-92098904D01*
X66556380Y-91813190D02*
X65556380Y-91813190D01*
X65699238Y-91908428D01*
X65794476Y-92003666D01*
X65842095Y-92098904D01*
X66651619Y-91337000D02*
X66651619Y-90575095D01*
X66556380Y-90337000D02*
X65556380Y-90337000D01*
X65556380Y-90098904D01*
X65604000Y-89956047D01*
X65699238Y-89860809D01*
X65794476Y-89813190D01*
X65984952Y-89765571D01*
X66127809Y-89765571D01*
X66318285Y-89813190D01*
X66413523Y-89860809D01*
X66508761Y-89956047D01*
X66556380Y-90098904D01*
X66556380Y-90337000D01*
X65556380Y-89146523D02*
X65556380Y-88956047D01*
X65604000Y-88860809D01*
X65699238Y-88765571D01*
X65889714Y-88717952D01*
X66223047Y-88717952D01*
X66413523Y-88765571D01*
X66508761Y-88860809D01*
X66556380Y-88956047D01*
X66556380Y-89146523D01*
X66508761Y-89241761D01*
X66413523Y-89337000D01*
X66223047Y-89384619D01*
X65889714Y-89384619D01*
X65699238Y-89337000D01*
X65604000Y-89241761D01*
X65556380Y-89146523D01*
X66556380Y-88289380D02*
X65556380Y-88289380D01*
X65556380Y-87956047D02*
X65556380Y-87384619D01*
X66556380Y-87670333D02*
X65556380Y-87670333D01*
X66651619Y-87289380D02*
X66651619Y-86527476D01*
X65556380Y-86384619D02*
X65556380Y-85765571D01*
X65937333Y-86098904D01*
X65937333Y-85956047D01*
X65984952Y-85860809D01*
X66032571Y-85813190D01*
X66127809Y-85765571D01*
X66365904Y-85765571D01*
X66461142Y-85813190D01*
X66508761Y-85860809D01*
X66556380Y-85956047D01*
X66556380Y-86241761D01*
X66508761Y-86337000D01*
X66461142Y-86384619D01*
X65556380Y-85146523D02*
X65556380Y-85051285D01*
X65604000Y-84956047D01*
X65651619Y-84908428D01*
X65746857Y-84860809D01*
X65937333Y-84813190D01*
X66175428Y-84813190D01*
X66365904Y-84860809D01*
X66461142Y-84908428D01*
X66508761Y-84956047D01*
X66556380Y-85051285D01*
X66556380Y-85146523D01*
X66508761Y-85241761D01*
X66461142Y-85289380D01*
X66365904Y-85337000D01*
X66175428Y-85384619D01*
X65937333Y-85384619D01*
X65746857Y-85337000D01*
X65651619Y-85289380D01*
X65604000Y-85241761D01*
X65556380Y-85146523D01*
X66651619Y-84622714D02*
X66651619Y-83860809D01*
X65889714Y-83622714D02*
X66889714Y-83622714D01*
X65937333Y-83622714D02*
X65889714Y-83527476D01*
X65889714Y-83337000D01*
X65937333Y-83241761D01*
X65984952Y-83194142D01*
X66080190Y-83146523D01*
X66365904Y-83146523D01*
X66461142Y-83194142D01*
X66508761Y-83241761D01*
X66556380Y-83337000D01*
X66556380Y-83527476D01*
X66508761Y-83622714D01*
X66556380Y-82717952D02*
X65889714Y-82717952D01*
X65556380Y-82717952D02*
X65604000Y-82765571D01*
X65651619Y-82717952D01*
X65604000Y-82670333D01*
X65556380Y-82717952D01*
X65651619Y-82717952D01*
X65889714Y-82241761D02*
X66556380Y-82241761D01*
X65984952Y-82241761D02*
X65937333Y-82194142D01*
X65889714Y-82098904D01*
X65889714Y-81956047D01*
X65937333Y-81860809D01*
X66032571Y-81813190D01*
X66556380Y-81813190D01*
%TO.C,U2*%
D13*
X102104333Y-71642333D02*
X102904333Y-71642333D01*
X102504333Y-73042333D02*
X102504333Y-71642333D01*
X103371000Y-73042333D02*
X103371000Y-71642333D01*
X103837666Y-72642333D01*
X104304333Y-71642333D01*
X104304333Y-73042333D01*
X105771000Y-72909000D02*
X105704333Y-72975666D01*
X105504333Y-73042333D01*
X105371000Y-73042333D01*
X105171000Y-72975666D01*
X105037666Y-72842333D01*
X104971000Y-72709000D01*
X104904333Y-72442333D01*
X104904333Y-72242333D01*
X104971000Y-71975666D01*
X105037666Y-71842333D01*
X105171000Y-71709000D01*
X105371000Y-71642333D01*
X105504333Y-71642333D01*
X105704333Y-71709000D01*
X105771000Y-71775666D01*
X106304333Y-71775666D02*
X106371000Y-71709000D01*
X106504333Y-71642333D01*
X106837666Y-71642333D01*
X106971000Y-71709000D01*
X107037666Y-71775666D01*
X107104333Y-71909000D01*
X107104333Y-72042333D01*
X107037666Y-72242333D01*
X106237666Y-73042333D01*
X107104333Y-73042333D01*
X107637666Y-71775666D02*
X107704333Y-71709000D01*
X107837666Y-71642333D01*
X108171000Y-71642333D01*
X108304333Y-71709000D01*
X108371000Y-71775666D01*
X108437666Y-71909000D01*
X108437666Y-72042333D01*
X108371000Y-72242333D01*
X107571000Y-73042333D01*
X108437666Y-73042333D01*
X109304333Y-71642333D02*
X109437666Y-71642333D01*
X109571000Y-71709000D01*
X109637666Y-71775666D01*
X109704333Y-71909000D01*
X109771000Y-72175666D01*
X109771000Y-72509000D01*
X109704333Y-72775666D01*
X109637666Y-72909000D01*
X109571000Y-72975666D01*
X109437666Y-73042333D01*
X109304333Y-73042333D01*
X109171000Y-72975666D01*
X109104333Y-72909000D01*
X109037666Y-72775666D01*
X108971000Y-72509000D01*
X108971000Y-72175666D01*
X109037666Y-71909000D01*
X109104333Y-71775666D01*
X109171000Y-71709000D01*
X109304333Y-71642333D01*
X110571000Y-72242333D02*
X110437666Y-72175666D01*
X110371000Y-72109000D01*
X110304333Y-71975666D01*
X110304333Y-71909000D01*
X110371000Y-71775666D01*
X110437666Y-71709000D01*
X110571000Y-71642333D01*
X110837666Y-71642333D01*
X110971000Y-71709000D01*
X111037666Y-71775666D01*
X111104333Y-71909000D01*
X111104333Y-71975666D01*
X111037666Y-72109000D01*
X110971000Y-72175666D01*
X110837666Y-72242333D01*
X110571000Y-72242333D01*
X110437666Y-72309000D01*
X110371000Y-72375666D01*
X110304333Y-72509000D01*
X110304333Y-72775666D01*
X110371000Y-72909000D01*
X110437666Y-72975666D01*
X110571000Y-73042333D01*
X110837666Y-73042333D01*
X110971000Y-72975666D01*
X111037666Y-72909000D01*
X111104333Y-72775666D01*
X111104333Y-72509000D01*
X111037666Y-72375666D01*
X110971000Y-72309000D01*
X110837666Y-72242333D01*
X111371000Y-73175666D02*
X112437666Y-73175666D01*
X112704333Y-72975666D02*
X112904333Y-73042333D01*
X113237666Y-73042333D01*
X113371000Y-72975666D01*
X113437666Y-72909000D01*
X113504333Y-72775666D01*
X113504333Y-72642333D01*
X113437666Y-72509000D01*
X113371000Y-72442333D01*
X113237666Y-72375666D01*
X112971000Y-72309000D01*
X112837666Y-72242333D01*
X112771000Y-72175666D01*
X112704333Y-72042333D01*
X112704333Y-71909000D01*
X112771000Y-71775666D01*
X112837666Y-71709000D01*
X112971000Y-71642333D01*
X113304333Y-71642333D01*
X113504333Y-71709000D01*
X114104333Y-73042333D02*
X114104333Y-71642333D01*
X115437666Y-73042333D02*
X114771000Y-73042333D01*
X114771000Y-71642333D01*
X115904333Y-72309000D02*
X116371000Y-72309000D01*
X116571000Y-73042333D02*
X115904333Y-73042333D01*
X115904333Y-71642333D01*
X116571000Y-71642333D01*
X117171000Y-73042333D02*
X117171000Y-71642333D01*
X117971000Y-73042333D01*
X117971000Y-71642333D01*
X118437666Y-71642333D02*
X119237666Y-71642333D01*
X118837666Y-73042333D02*
X118837666Y-71642333D01*
X119637666Y-72975666D02*
X119837666Y-73042333D01*
X120171000Y-73042333D01*
X120304333Y-72975666D01*
X120371000Y-72909000D01*
X120437666Y-72775666D01*
X120437666Y-72642333D01*
X120371000Y-72509000D01*
X120304333Y-72442333D01*
X120171000Y-72375666D01*
X119904333Y-72309000D01*
X119771000Y-72242333D01*
X119704333Y-72175666D01*
X119637666Y-72042333D01*
X119637666Y-71909000D01*
X119704333Y-71775666D01*
X119771000Y-71709000D01*
X119904333Y-71642333D01*
X120237666Y-71642333D01*
X120437666Y-71709000D01*
X120837666Y-71642333D02*
X121637666Y-71642333D01*
X121237666Y-73042333D02*
X121237666Y-71642333D01*
X122104333Y-72309000D02*
X122571000Y-72309000D01*
X122771000Y-73042333D02*
X122104333Y-73042333D01*
X122104333Y-71642333D01*
X122771000Y-71642333D01*
X123371000Y-73042333D02*
X123371000Y-71642333D01*
X123904333Y-71642333D01*
X124037666Y-71709000D01*
X124104333Y-71775666D01*
X124171000Y-71909000D01*
X124171000Y-72109000D01*
X124104333Y-72242333D01*
X124037666Y-72309000D01*
X123904333Y-72375666D01*
X123371000Y-72375666D01*
X124704333Y-72975666D02*
X124904333Y-73042333D01*
X125237666Y-73042333D01*
X125371000Y-72975666D01*
X125437666Y-72909000D01*
X125504333Y-72775666D01*
X125504333Y-72642333D01*
X125437666Y-72509000D01*
X125371000Y-72442333D01*
X125237666Y-72375666D01*
X124971000Y-72309000D01*
X124837666Y-72242333D01*
X124771000Y-72175666D01*
X124704333Y-72042333D01*
X124704333Y-71909000D01*
X124771000Y-71775666D01*
X124837666Y-71709000D01*
X124971000Y-71642333D01*
X125304333Y-71642333D01*
X125504333Y-71709000D01*
X125904333Y-71642333D02*
X126704333Y-71642333D01*
X126304333Y-73042333D02*
X126304333Y-71642333D01*
X127171000Y-73042333D02*
X127171000Y-71642333D01*
X128637666Y-72909000D02*
X128571000Y-72975666D01*
X128371000Y-73042333D01*
X128237666Y-73042333D01*
X128037666Y-72975666D01*
X127904333Y-72842333D01*
X127837666Y-72709000D01*
X127771000Y-72442333D01*
X127771000Y-72242333D01*
X127837666Y-71975666D01*
X127904333Y-71842333D01*
X128037666Y-71709000D01*
X128237666Y-71642333D01*
X128371000Y-71642333D01*
X128571000Y-71709000D01*
X128637666Y-71775666D01*
X129237666Y-73042333D02*
X129237666Y-71642333D01*
X130037666Y-73042333D02*
X129437666Y-72242333D01*
X130037666Y-71642333D02*
X129237666Y-72442333D01*
X130637666Y-72509000D02*
X131704333Y-72509000D01*
X132171000Y-71642333D02*
X132971000Y-71642333D01*
X132571000Y-73042333D02*
X132571000Y-71642333D01*
X133437666Y-73042333D02*
X133437666Y-71642333D01*
X133904333Y-72642333D01*
X134371000Y-71642333D01*
X134371000Y-73042333D01*
X135837666Y-72909000D02*
X135771000Y-72975666D01*
X135571000Y-73042333D01*
X135437666Y-73042333D01*
X135237666Y-72975666D01*
X135104333Y-72842333D01*
X135037666Y-72709000D01*
X134971000Y-72442333D01*
X134971000Y-72242333D01*
X135037666Y-71975666D01*
X135104333Y-71842333D01*
X135237666Y-71709000D01*
X135437666Y-71642333D01*
X135571000Y-71642333D01*
X135771000Y-71709000D01*
X135837666Y-71775666D01*
X136371000Y-71775666D02*
X136437666Y-71709000D01*
X136571000Y-71642333D01*
X136904333Y-71642333D01*
X137037666Y-71709000D01*
X137104333Y-71775666D01*
X137171000Y-71909000D01*
X137171000Y-72042333D01*
X137104333Y-72242333D01*
X136304333Y-73042333D01*
X137171000Y-73042333D01*
X137704333Y-71775666D02*
X137771000Y-71709000D01*
X137904333Y-71642333D01*
X138237666Y-71642333D01*
X138371000Y-71709000D01*
X138437666Y-71775666D01*
X138504333Y-71909000D01*
X138504333Y-72042333D01*
X138437666Y-72242333D01*
X137637666Y-73042333D01*
X138504333Y-73042333D01*
X139371000Y-71642333D02*
X139504333Y-71642333D01*
X139637666Y-71709000D01*
X139704333Y-71775666D01*
X139771000Y-71909000D01*
X139837666Y-72175666D01*
X139837666Y-72509000D01*
X139771000Y-72775666D01*
X139704333Y-72909000D01*
X139637666Y-72975666D01*
X139504333Y-73042333D01*
X139371000Y-73042333D01*
X139237666Y-72975666D01*
X139171000Y-72909000D01*
X139104333Y-72775666D01*
X139037666Y-72509000D01*
X139037666Y-72175666D01*
X139104333Y-71909000D01*
X139171000Y-71775666D01*
X139237666Y-71709000D01*
X139371000Y-71642333D01*
X140637666Y-72242333D02*
X140504333Y-72175666D01*
X140437666Y-72109000D01*
X140371000Y-71975666D01*
X140371000Y-71909000D01*
X140437666Y-71775666D01*
X140504333Y-71709000D01*
X140637666Y-71642333D01*
X140904333Y-71642333D01*
X141037666Y-71709000D01*
X141104333Y-71775666D01*
X141171000Y-71909000D01*
X141171000Y-71975666D01*
X141104333Y-72109000D01*
X141037666Y-72175666D01*
X140904333Y-72242333D01*
X140637666Y-72242333D01*
X140504333Y-72309000D01*
X140437666Y-72375666D01*
X140371000Y-72509000D01*
X140371000Y-72775666D01*
X140437666Y-72909000D01*
X140504333Y-72975666D01*
X140637666Y-73042333D01*
X140904333Y-73042333D01*
X141037666Y-72975666D01*
X141104333Y-72909000D01*
X141171000Y-72775666D01*
X141171000Y-72509000D01*
X141104333Y-72375666D01*
X141037666Y-72309000D01*
X140904333Y-72242333D01*
X141437666Y-73175666D02*
X142504333Y-73175666D01*
X142771000Y-72975666D02*
X142971000Y-73042333D01*
X143304333Y-73042333D01*
X143437666Y-72975666D01*
X143504333Y-72909000D01*
X143571000Y-72775666D01*
X143571000Y-72642333D01*
X143504333Y-72509000D01*
X143437666Y-72442333D01*
X143304333Y-72375666D01*
X143037666Y-72309000D01*
X142904333Y-72242333D01*
X142837666Y-72175666D01*
X142771000Y-72042333D01*
X142771000Y-71909000D01*
X142837666Y-71775666D01*
X142904333Y-71709000D01*
X143037666Y-71642333D01*
X143371000Y-71642333D01*
X143571000Y-71709000D01*
X144171000Y-73042333D02*
X144171000Y-71642333D01*
X145504333Y-73042333D02*
X144837666Y-73042333D01*
X144837666Y-71642333D01*
X145971000Y-72309000D02*
X146437666Y-72309000D01*
X146637666Y-73042333D02*
X145971000Y-73042333D01*
X145971000Y-71642333D01*
X146637666Y-71642333D01*
X147237666Y-73042333D02*
X147237666Y-71642333D01*
X148037666Y-73042333D01*
X148037666Y-71642333D01*
X148504333Y-71642333D02*
X149304333Y-71642333D01*
X148904333Y-73042333D02*
X148904333Y-71642333D01*
X149704333Y-72975666D02*
X149904333Y-73042333D01*
X150237666Y-73042333D01*
X150371000Y-72975666D01*
X150437666Y-72909000D01*
X150504333Y-72775666D01*
X150504333Y-72642333D01*
X150437666Y-72509000D01*
X150371000Y-72442333D01*
X150237666Y-72375666D01*
X149971000Y-72309000D01*
X149837666Y-72242333D01*
X149771000Y-72175666D01*
X149704333Y-72042333D01*
X149704333Y-71909000D01*
X149771000Y-71775666D01*
X149837666Y-71709000D01*
X149971000Y-71642333D01*
X150304333Y-71642333D01*
X150504333Y-71709000D01*
X150904333Y-71642333D02*
X151704333Y-71642333D01*
X151304333Y-73042333D02*
X151304333Y-71642333D01*
X152171000Y-72309000D02*
X152637666Y-72309000D01*
X152837666Y-73042333D02*
X152171000Y-73042333D01*
X152171000Y-71642333D01*
X152837666Y-71642333D01*
X153437666Y-73042333D02*
X153437666Y-71642333D01*
X153971000Y-71642333D01*
X154104333Y-71709000D01*
X154171000Y-71775666D01*
X154237666Y-71909000D01*
X154237666Y-72109000D01*
X154171000Y-72242333D01*
X154104333Y-72309000D01*
X153971000Y-72375666D01*
X153437666Y-72375666D01*
X154771000Y-72975666D02*
X154971000Y-73042333D01*
X155304333Y-73042333D01*
X155437666Y-72975666D01*
X155504333Y-72909000D01*
X155571000Y-72775666D01*
X155571000Y-72642333D01*
X155504333Y-72509000D01*
X155437666Y-72442333D01*
X155304333Y-72375666D01*
X155037666Y-72309000D01*
X154904333Y-72242333D01*
X154837666Y-72175666D01*
X154771000Y-72042333D01*
X154771000Y-71909000D01*
X154837666Y-71775666D01*
X154904333Y-71709000D01*
X155037666Y-71642333D01*
X155371000Y-71642333D01*
X155571000Y-71709000D01*
X155971000Y-71642333D02*
X156771000Y-71642333D01*
X156371000Y-73042333D02*
X156371000Y-71642333D01*
X157237666Y-73042333D02*
X157237666Y-71642333D01*
X158704333Y-72909000D02*
X158637666Y-72975666D01*
X158437666Y-73042333D01*
X158304333Y-73042333D01*
X158104333Y-72975666D01*
X157971000Y-72842333D01*
X157904333Y-72709000D01*
X157837666Y-72442333D01*
X157837666Y-72242333D01*
X157904333Y-71975666D01*
X157971000Y-71842333D01*
X158104333Y-71709000D01*
X158304333Y-71642333D01*
X158437666Y-71642333D01*
X158637666Y-71709000D01*
X158704333Y-71775666D01*
X159304333Y-73042333D02*
X159304333Y-71642333D01*
X160104333Y-73042333D02*
X159504333Y-72242333D01*
X160104333Y-71642333D02*
X159304333Y-72442333D01*
%TO.C,J6*%
D14*
X101307000Y-113018380D02*
X101307000Y-112018380D01*
X101545095Y-112018380D01*
X101687952Y-112066000D01*
X101783190Y-112161238D01*
X101830809Y-112256476D01*
X101878428Y-112446952D01*
X101878428Y-112589809D01*
X101830809Y-112780285D01*
X101783190Y-112875523D01*
X101687952Y-112970761D01*
X101545095Y-113018380D01*
X101307000Y-113018380D01*
X102878428Y-112923142D02*
X102830809Y-112970761D01*
X102687952Y-113018380D01*
X102592714Y-113018380D01*
X102449857Y-112970761D01*
X102354619Y-112875523D01*
X102307000Y-112780285D01*
X102259380Y-112589809D01*
X102259380Y-112446952D01*
X102307000Y-112256476D01*
X102354619Y-112161238D01*
X102449857Y-112066000D01*
X102592714Y-112018380D01*
X102687952Y-112018380D01*
X102830809Y-112066000D01*
X102878428Y-112113619D01*
X103307000Y-113018380D02*
X103307000Y-112018380D01*
X103545095Y-112018380D01*
X103687952Y-112066000D01*
X103783190Y-112161238D01*
X103830809Y-112256476D01*
X103878428Y-112446952D01*
X103878428Y-112589809D01*
X103830809Y-112780285D01*
X103783190Y-112875523D01*
X103687952Y-112970761D01*
X103545095Y-113018380D01*
X103307000Y-113018380D01*
X104878428Y-112923142D02*
X104830809Y-112970761D01*
X104687952Y-113018380D01*
X104592714Y-113018380D01*
X104449857Y-112970761D01*
X104354619Y-112875523D01*
X104307000Y-112780285D01*
X104259380Y-112589809D01*
X104259380Y-112446952D01*
X104307000Y-112256476D01*
X104354619Y-112161238D01*
X104449857Y-112066000D01*
X104592714Y-112018380D01*
X104687952Y-112018380D01*
X104830809Y-112066000D01*
X104878428Y-112113619D01*
X105068904Y-113113619D02*
X105830809Y-113113619D01*
X106402238Y-112494571D02*
X106545095Y-112542190D01*
X106592714Y-112589809D01*
X106640333Y-112685047D01*
X106640333Y-112827904D01*
X106592714Y-112923142D01*
X106545095Y-112970761D01*
X106449857Y-113018380D01*
X106068904Y-113018380D01*
X106068904Y-112018380D01*
X106402238Y-112018380D01*
X106497476Y-112066000D01*
X106545095Y-112113619D01*
X106592714Y-112208857D01*
X106592714Y-112304095D01*
X106545095Y-112399333D01*
X106497476Y-112446952D01*
X106402238Y-112494571D01*
X106068904Y-112494571D01*
X107259380Y-112018380D02*
X107449857Y-112018380D01*
X107545095Y-112066000D01*
X107640333Y-112161238D01*
X107687952Y-112351714D01*
X107687952Y-112685047D01*
X107640333Y-112875523D01*
X107545095Y-112970761D01*
X107449857Y-113018380D01*
X107259380Y-113018380D01*
X107164142Y-112970761D01*
X107068904Y-112875523D01*
X107021285Y-112685047D01*
X107021285Y-112351714D01*
X107068904Y-112161238D01*
X107164142Y-112066000D01*
X107259380Y-112018380D01*
X108307000Y-112018380D02*
X108497476Y-112018380D01*
X108592714Y-112066000D01*
X108687952Y-112161238D01*
X108735571Y-112351714D01*
X108735571Y-112685047D01*
X108687952Y-112875523D01*
X108592714Y-112970761D01*
X108497476Y-113018380D01*
X108307000Y-113018380D01*
X108211761Y-112970761D01*
X108116523Y-112875523D01*
X108068904Y-112685047D01*
X108068904Y-112351714D01*
X108116523Y-112161238D01*
X108211761Y-112066000D01*
X108307000Y-112018380D01*
X109116523Y-112970761D02*
X109259380Y-113018380D01*
X109497476Y-113018380D01*
X109592714Y-112970761D01*
X109640333Y-112923142D01*
X109687952Y-112827904D01*
X109687952Y-112732666D01*
X109640333Y-112637428D01*
X109592714Y-112589809D01*
X109497476Y-112542190D01*
X109307000Y-112494571D01*
X109211761Y-112446952D01*
X109164142Y-112399333D01*
X109116523Y-112304095D01*
X109116523Y-112208857D01*
X109164142Y-112113619D01*
X109211761Y-112066000D01*
X109307000Y-112018380D01*
X109545095Y-112018380D01*
X109687952Y-112066000D01*
X109973666Y-112018380D02*
X110545095Y-112018380D01*
X110259380Y-113018380D02*
X110259380Y-112018380D01*
X110878428Y-112494571D02*
X111211761Y-112494571D01*
X111354619Y-113018380D02*
X110878428Y-113018380D01*
X110878428Y-112018380D01*
X111354619Y-112018380D01*
X112354619Y-113018380D02*
X112021285Y-112542190D01*
X111783190Y-113018380D02*
X111783190Y-112018380D01*
X112164142Y-112018380D01*
X112259380Y-112066000D01*
X112307000Y-112113619D01*
X112354619Y-112208857D01*
X112354619Y-112351714D01*
X112307000Y-112446952D01*
X112259380Y-112494571D01*
X112164142Y-112542190D01*
X111783190Y-112542190D01*
X106259380Y-106759333D02*
X106973666Y-106759333D01*
X107116523Y-106806952D01*
X107211761Y-106902190D01*
X107259380Y-107045047D01*
X107259380Y-107140285D01*
X106259380Y-105854571D02*
X106259380Y-106045047D01*
X106307000Y-106140285D01*
X106354619Y-106187904D01*
X106497476Y-106283142D01*
X106687952Y-106330761D01*
X107068904Y-106330761D01*
X107164142Y-106283142D01*
X107211761Y-106235523D01*
X107259380Y-106140285D01*
X107259380Y-105949809D01*
X107211761Y-105854571D01*
X107164142Y-105806952D01*
X107068904Y-105759333D01*
X106830809Y-105759333D01*
X106735571Y-105806952D01*
X106687952Y-105854571D01*
X106640333Y-105949809D01*
X106640333Y-106140285D01*
X106687952Y-106235523D01*
X106735571Y-106283142D01*
X106830809Y-106330761D01*
%TO.C,J7*%
X99496904Y-124924666D02*
X99973095Y-124924666D01*
X99401666Y-125210380D02*
X99735000Y-124210380D01*
X100068333Y-125210380D01*
X100877857Y-125210380D02*
X100401666Y-125210380D01*
X100401666Y-124210380D01*
X101211190Y-125210380D02*
X101211190Y-124210380D01*
X101687380Y-125210380D02*
X101687380Y-124210380D01*
X102020714Y-124924666D01*
X102354047Y-124210380D01*
X102354047Y-125210380D01*
X102592142Y-125305619D02*
X103354047Y-125305619D01*
X104068333Y-124210380D02*
X103592142Y-124210380D01*
X103544523Y-124686571D01*
X103592142Y-124638952D01*
X103687380Y-124591333D01*
X103925476Y-124591333D01*
X104020714Y-124638952D01*
X104068333Y-124686571D01*
X104115952Y-124781809D01*
X104115952Y-125019904D01*
X104068333Y-125115142D01*
X104020714Y-125162761D01*
X103925476Y-125210380D01*
X103687380Y-125210380D01*
X103592142Y-125162761D01*
X103544523Y-125115142D01*
X104401666Y-124210380D02*
X104735000Y-125210380D01*
X105068333Y-124210380D01*
X101687380Y-121491333D02*
X102401666Y-121491333D01*
X102544523Y-121538952D01*
X102639761Y-121634190D01*
X102687380Y-121777047D01*
X102687380Y-121872285D01*
X101687380Y-121110380D02*
X101687380Y-120443714D01*
X102687380Y-120872285D01*
%TO.C,R2*%
X83986904Y-69202380D02*
X83415476Y-69202380D01*
X83701190Y-69202380D02*
X83701190Y-68202380D01*
X83605952Y-68345238D01*
X83510714Y-68440476D01*
X83415476Y-68488095D01*
X84415476Y-69202380D02*
X84415476Y-68202380D01*
X84510714Y-68821428D02*
X84796428Y-69202380D01*
X84796428Y-68535714D02*
X84415476Y-68916666D01*
X85415476Y-68202380D02*
X85605952Y-68202380D01*
X85701190Y-68250000D01*
X85796428Y-68345238D01*
X85844047Y-68535714D01*
X85844047Y-68869047D01*
X85796428Y-69059523D01*
X85701190Y-69154761D01*
X85605952Y-69202380D01*
X85415476Y-69202380D01*
X85320238Y-69154761D01*
X85225000Y-69059523D01*
X85177380Y-68869047D01*
X85177380Y-68535714D01*
X85225000Y-68345238D01*
X85320238Y-68250000D01*
X85415476Y-68202380D01*
X86272619Y-69202380D02*
X86272619Y-68202380D01*
X86272619Y-68678571D02*
X86844047Y-68678571D01*
X86844047Y-69202380D02*
X86844047Y-68202380D01*
X87320238Y-69202380D02*
X87320238Y-68202380D01*
X87653571Y-68916666D01*
X87986904Y-68202380D01*
X87986904Y-69202380D01*
X85558333Y-71572380D02*
X85225000Y-71096190D01*
X84986904Y-71572380D02*
X84986904Y-70572380D01*
X85367857Y-70572380D01*
X85463095Y-70620000D01*
X85510714Y-70667619D01*
X85558333Y-70762857D01*
X85558333Y-70905714D01*
X85510714Y-71000952D01*
X85463095Y-71048571D01*
X85367857Y-71096190D01*
X84986904Y-71096190D01*
X85939285Y-70667619D02*
X85986904Y-70620000D01*
X86082142Y-70572380D01*
X86320238Y-70572380D01*
X86415476Y-70620000D01*
X86463095Y-70667619D01*
X86510714Y-70762857D01*
X86510714Y-70858095D01*
X86463095Y-71000952D01*
X85891666Y-71572380D01*
X86510714Y-71572380D01*
%TO.C,R1*%
X75096904Y-64757380D02*
X74525476Y-64757380D01*
X74811190Y-64757380D02*
X74811190Y-63757380D01*
X74715952Y-63900238D01*
X74620714Y-63995476D01*
X74525476Y-64043095D01*
X75525476Y-64757380D02*
X75525476Y-63757380D01*
X75620714Y-64376428D02*
X75906428Y-64757380D01*
X75906428Y-64090714D02*
X75525476Y-64471666D01*
X76525476Y-63757380D02*
X76715952Y-63757380D01*
X76811190Y-63805000D01*
X76906428Y-63900238D01*
X76954047Y-64090714D01*
X76954047Y-64424047D01*
X76906428Y-64614523D01*
X76811190Y-64709761D01*
X76715952Y-64757380D01*
X76525476Y-64757380D01*
X76430238Y-64709761D01*
X76335000Y-64614523D01*
X76287380Y-64424047D01*
X76287380Y-64090714D01*
X76335000Y-63900238D01*
X76430238Y-63805000D01*
X76525476Y-63757380D01*
X77382619Y-64757380D02*
X77382619Y-63757380D01*
X77382619Y-64233571D02*
X77954047Y-64233571D01*
X77954047Y-64757380D02*
X77954047Y-63757380D01*
X78430238Y-64757380D02*
X78430238Y-63757380D01*
X78763571Y-64471666D01*
X79096904Y-63757380D01*
X79096904Y-64757380D01*
X173944333Y-53886380D02*
X173611000Y-53410190D01*
X173372904Y-53886380D02*
X173372904Y-52886380D01*
X173753857Y-52886380D01*
X173849095Y-52934000D01*
X173896714Y-52981619D01*
X173944333Y-53076857D01*
X173944333Y-53219714D01*
X173896714Y-53314952D01*
X173849095Y-53362571D01*
X173753857Y-53410190D01*
X173372904Y-53410190D01*
X174896714Y-53886380D02*
X174325285Y-53886380D01*
X174611000Y-53886380D02*
X174611000Y-52886380D01*
X174515761Y-53029238D01*
X174420523Y-53124476D01*
X174325285Y-53172095D01*
%TO.C,J9*%
X58332761Y-124105666D02*
X58380380Y-123962809D01*
X58380380Y-123724714D01*
X58332761Y-123629476D01*
X58285142Y-123581857D01*
X58189904Y-123534238D01*
X58094666Y-123534238D01*
X57999428Y-123581857D01*
X57951809Y-123629476D01*
X57904190Y-123724714D01*
X57856571Y-123915190D01*
X57808952Y-124010428D01*
X57761333Y-124058047D01*
X57666095Y-124105666D01*
X57570857Y-124105666D01*
X57475619Y-124058047D01*
X57428000Y-124010428D01*
X57380380Y-123915190D01*
X57380380Y-123677095D01*
X57428000Y-123534238D01*
X58380380Y-123105666D02*
X57380380Y-123105666D01*
X57380380Y-122724714D01*
X57428000Y-122629476D01*
X57475619Y-122581857D01*
X57570857Y-122534238D01*
X57713714Y-122534238D01*
X57808952Y-122581857D01*
X57856571Y-122629476D01*
X57904190Y-122724714D01*
X57904190Y-123105666D01*
X58094666Y-122153285D02*
X58094666Y-121677095D01*
X58380380Y-122248523D02*
X57380380Y-121915190D01*
X58380380Y-121581857D01*
X58380380Y-120677095D02*
X57904190Y-121010428D01*
X58380380Y-121248523D02*
X57380380Y-121248523D01*
X57380380Y-120867571D01*
X57428000Y-120772333D01*
X57475619Y-120724714D01*
X57570857Y-120677095D01*
X57713714Y-120677095D01*
X57808952Y-120724714D01*
X57856571Y-120772333D01*
X57904190Y-120867571D01*
X57904190Y-121248523D01*
X57856571Y-120248523D02*
X57856571Y-119915190D01*
X58380380Y-119772333D02*
X58380380Y-120248523D01*
X57380380Y-120248523D01*
X57380380Y-119772333D01*
X58475619Y-119581857D02*
X58475619Y-118819952D01*
X57428000Y-118058047D02*
X57380380Y-118153285D01*
X57380380Y-118296142D01*
X57428000Y-118439000D01*
X57523238Y-118534238D01*
X57618476Y-118581857D01*
X57808952Y-118629476D01*
X57951809Y-118629476D01*
X58142285Y-118581857D01*
X58237523Y-118534238D01*
X58332761Y-118439000D01*
X58380380Y-118296142D01*
X58380380Y-118200904D01*
X58332761Y-118058047D01*
X58285142Y-118010428D01*
X57951809Y-118010428D01*
X57951809Y-118200904D01*
X58380380Y-117581857D02*
X57380380Y-117581857D01*
X57380380Y-117200904D01*
X57428000Y-117105666D01*
X57475619Y-117058047D01*
X57570857Y-117010428D01*
X57713714Y-117010428D01*
X57808952Y-117058047D01*
X57856571Y-117105666D01*
X57904190Y-117200904D01*
X57904190Y-117581857D01*
X58380380Y-116581857D02*
X57380380Y-116581857D01*
X57380380Y-115915190D02*
X57380380Y-115724714D01*
X57428000Y-115629476D01*
X57523238Y-115534238D01*
X57713714Y-115486619D01*
X58047047Y-115486619D01*
X58237523Y-115534238D01*
X58332761Y-115629476D01*
X58380380Y-115724714D01*
X58380380Y-115915190D01*
X58332761Y-116010428D01*
X58237523Y-116105666D01*
X58047047Y-116153285D01*
X57713714Y-116153285D01*
X57523238Y-116105666D01*
X57428000Y-116010428D01*
X57380380Y-115915190D01*
X58475619Y-115296142D02*
X58475619Y-114534238D01*
X58380380Y-113772333D02*
X58380380Y-114343761D01*
X58380380Y-114058047D02*
X57380380Y-114058047D01*
X57523238Y-114153285D01*
X57618476Y-114248523D01*
X57666095Y-114343761D01*
X61134666Y-116776380D02*
X61134666Y-117490666D01*
X61087047Y-117633523D01*
X60991809Y-117728761D01*
X60848952Y-117776380D01*
X60753714Y-117776380D01*
X61658476Y-117776380D02*
X61848952Y-117776380D01*
X61944190Y-117728761D01*
X61991809Y-117681142D01*
X62087047Y-117538285D01*
X62134666Y-117347809D01*
X62134666Y-116966857D01*
X62087047Y-116871619D01*
X62039428Y-116824000D01*
X61944190Y-116776380D01*
X61753714Y-116776380D01*
X61658476Y-116824000D01*
X61610857Y-116871619D01*
X61563238Y-116966857D01*
X61563238Y-117204952D01*
X61610857Y-117300190D01*
X61658476Y-117347809D01*
X61753714Y-117395428D01*
X61944190Y-117395428D01*
X62039428Y-117347809D01*
X62087047Y-117300190D01*
X62134666Y-117204952D01*
%TO.C,J8*%
X50839761Y-123978666D02*
X50887380Y-123835809D01*
X50887380Y-123597714D01*
X50839761Y-123502476D01*
X50792142Y-123454857D01*
X50696904Y-123407238D01*
X50601666Y-123407238D01*
X50506428Y-123454857D01*
X50458809Y-123502476D01*
X50411190Y-123597714D01*
X50363571Y-123788190D01*
X50315952Y-123883428D01*
X50268333Y-123931047D01*
X50173095Y-123978666D01*
X50077857Y-123978666D01*
X49982619Y-123931047D01*
X49935000Y-123883428D01*
X49887380Y-123788190D01*
X49887380Y-123550095D01*
X49935000Y-123407238D01*
X50887380Y-122978666D02*
X49887380Y-122978666D01*
X49887380Y-122597714D01*
X49935000Y-122502476D01*
X49982619Y-122454857D01*
X50077857Y-122407238D01*
X50220714Y-122407238D01*
X50315952Y-122454857D01*
X50363571Y-122502476D01*
X50411190Y-122597714D01*
X50411190Y-122978666D01*
X50601666Y-122026285D02*
X50601666Y-121550095D01*
X50887380Y-122121523D02*
X49887380Y-121788190D01*
X50887380Y-121454857D01*
X50887380Y-120550095D02*
X50411190Y-120883428D01*
X50887380Y-121121523D02*
X49887380Y-121121523D01*
X49887380Y-120740571D01*
X49935000Y-120645333D01*
X49982619Y-120597714D01*
X50077857Y-120550095D01*
X50220714Y-120550095D01*
X50315952Y-120597714D01*
X50363571Y-120645333D01*
X50411190Y-120740571D01*
X50411190Y-121121523D01*
X50363571Y-120121523D02*
X50363571Y-119788190D01*
X50887380Y-119645333D02*
X50887380Y-120121523D01*
X49887380Y-120121523D01*
X49887380Y-119645333D01*
X50982619Y-119454857D02*
X50982619Y-118692952D01*
X49935000Y-117931047D02*
X49887380Y-118026285D01*
X49887380Y-118169142D01*
X49935000Y-118312000D01*
X50030238Y-118407238D01*
X50125476Y-118454857D01*
X50315952Y-118502476D01*
X50458809Y-118502476D01*
X50649285Y-118454857D01*
X50744523Y-118407238D01*
X50839761Y-118312000D01*
X50887380Y-118169142D01*
X50887380Y-118073904D01*
X50839761Y-117931047D01*
X50792142Y-117883428D01*
X50458809Y-117883428D01*
X50458809Y-118073904D01*
X50887380Y-117454857D02*
X49887380Y-117454857D01*
X49887380Y-117073904D01*
X49935000Y-116978666D01*
X49982619Y-116931047D01*
X50077857Y-116883428D01*
X50220714Y-116883428D01*
X50315952Y-116931047D01*
X50363571Y-116978666D01*
X50411190Y-117073904D01*
X50411190Y-117454857D01*
X50887380Y-116454857D02*
X49887380Y-116454857D01*
X49887380Y-115788190D02*
X49887380Y-115597714D01*
X49935000Y-115502476D01*
X50030238Y-115407238D01*
X50220714Y-115359619D01*
X50554047Y-115359619D01*
X50744523Y-115407238D01*
X50839761Y-115502476D01*
X50887380Y-115597714D01*
X50887380Y-115788190D01*
X50839761Y-115883428D01*
X50744523Y-115978666D01*
X50554047Y-116026285D01*
X50220714Y-116026285D01*
X50030238Y-115978666D01*
X49935000Y-115883428D01*
X49887380Y-115788190D01*
X50982619Y-115169142D02*
X50982619Y-114407238D01*
X49887380Y-113978666D02*
X49887380Y-113883428D01*
X49935000Y-113788190D01*
X49982619Y-113740571D01*
X50077857Y-113692952D01*
X50268333Y-113645333D01*
X50506428Y-113645333D01*
X50696904Y-113692952D01*
X50792142Y-113740571D01*
X50839761Y-113788190D01*
X50887380Y-113883428D01*
X50887380Y-113978666D01*
X50839761Y-114073904D01*
X50792142Y-114121523D01*
X50696904Y-114169142D01*
X50506428Y-114216761D01*
X50268333Y-114216761D01*
X50077857Y-114169142D01*
X49982619Y-114121523D01*
X49935000Y-114073904D01*
X49887380Y-113978666D01*
X53641666Y-116649380D02*
X53641666Y-117363666D01*
X53594047Y-117506523D01*
X53498809Y-117601761D01*
X53355952Y-117649380D01*
X53260714Y-117649380D01*
X54260714Y-117077952D02*
X54165476Y-117030333D01*
X54117857Y-116982714D01*
X54070238Y-116887476D01*
X54070238Y-116839857D01*
X54117857Y-116744619D01*
X54165476Y-116697000D01*
X54260714Y-116649380D01*
X54451190Y-116649380D01*
X54546428Y-116697000D01*
X54594047Y-116744619D01*
X54641666Y-116839857D01*
X54641666Y-116887476D01*
X54594047Y-116982714D01*
X54546428Y-117030333D01*
X54451190Y-117077952D01*
X54260714Y-117077952D01*
X54165476Y-117125571D01*
X54117857Y-117173190D01*
X54070238Y-117268428D01*
X54070238Y-117458904D01*
X54117857Y-117554142D01*
X54165476Y-117601761D01*
X54260714Y-117649380D01*
X54451190Y-117649380D01*
X54546428Y-117601761D01*
X54594047Y-117554142D01*
X54641666Y-117458904D01*
X54641666Y-117268428D01*
X54594047Y-117173190D01*
X54546428Y-117125571D01*
X54451190Y-117077952D01*
%TO.C,J5*%
X164718761Y-70349571D02*
X164766380Y-70206714D01*
X164766380Y-69968619D01*
X164718761Y-69873380D01*
X164671142Y-69825761D01*
X164575904Y-69778142D01*
X164480666Y-69778142D01*
X164385428Y-69825761D01*
X164337809Y-69873380D01*
X164290190Y-69968619D01*
X164242571Y-70159095D01*
X164194952Y-70254333D01*
X164147333Y-70301952D01*
X164052095Y-70349571D01*
X163956857Y-70349571D01*
X163861619Y-70301952D01*
X163814000Y-70254333D01*
X163766380Y-70159095D01*
X163766380Y-69921000D01*
X163814000Y-69778142D01*
X163766380Y-69492428D02*
X163766380Y-68921000D01*
X164766380Y-69206714D02*
X163766380Y-69206714D01*
X164242571Y-68587666D02*
X164242571Y-68254333D01*
X164766380Y-68111476D02*
X164766380Y-68587666D01*
X163766380Y-68587666D01*
X163766380Y-68111476D01*
X164766380Y-67682904D02*
X163766380Y-67682904D01*
X163766380Y-67301952D01*
X163814000Y-67206714D01*
X163861619Y-67159095D01*
X163956857Y-67111476D01*
X164099714Y-67111476D01*
X164194952Y-67159095D01*
X164242571Y-67206714D01*
X164290190Y-67301952D01*
X164290190Y-67682904D01*
X164766380Y-66682904D02*
X163766380Y-66682904D01*
X163766380Y-66301952D01*
X163814000Y-66206714D01*
X163861619Y-66159095D01*
X163956857Y-66111476D01*
X164099714Y-66111476D01*
X164194952Y-66159095D01*
X164242571Y-66206714D01*
X164290190Y-66301952D01*
X164290190Y-66682904D01*
X164242571Y-65682904D02*
X164242571Y-65349571D01*
X164766380Y-65206714D02*
X164766380Y-65682904D01*
X163766380Y-65682904D01*
X163766380Y-65206714D01*
X164766380Y-64206714D02*
X164290190Y-64540047D01*
X164766380Y-64778142D02*
X163766380Y-64778142D01*
X163766380Y-64397190D01*
X163814000Y-64301952D01*
X163861619Y-64254333D01*
X163956857Y-64206714D01*
X164099714Y-64206714D01*
X164194952Y-64254333D01*
X164242571Y-64301952D01*
X164290190Y-64397190D01*
X164290190Y-64778142D01*
X164861619Y-64016238D02*
X164861619Y-63254333D01*
X164766380Y-62492428D02*
X164766380Y-63063857D01*
X164766380Y-62778142D02*
X163766380Y-62778142D01*
X163909238Y-62873380D01*
X164004476Y-62968619D01*
X164052095Y-63063857D01*
X157400666Y-65873380D02*
X157400666Y-66587666D01*
X157353047Y-66730523D01*
X157257809Y-66825761D01*
X157114952Y-66873380D01*
X157019714Y-66873380D01*
X158353047Y-65873380D02*
X157876857Y-65873380D01*
X157829238Y-66349571D01*
X157876857Y-66301952D01*
X157972095Y-66254333D01*
X158210190Y-66254333D01*
X158305428Y-66301952D01*
X158353047Y-66349571D01*
X158400666Y-66444809D01*
X158400666Y-66682904D01*
X158353047Y-66778142D01*
X158305428Y-66825761D01*
X158210190Y-66873380D01*
X157972095Y-66873380D01*
X157876857Y-66825761D01*
X157829238Y-66778142D01*
%TO.C,J4*%
X148970761Y-70349571D02*
X149018380Y-70206714D01*
X149018380Y-69968619D01*
X148970761Y-69873380D01*
X148923142Y-69825761D01*
X148827904Y-69778142D01*
X148732666Y-69778142D01*
X148637428Y-69825761D01*
X148589809Y-69873380D01*
X148542190Y-69968619D01*
X148494571Y-70159095D01*
X148446952Y-70254333D01*
X148399333Y-70301952D01*
X148304095Y-70349571D01*
X148208857Y-70349571D01*
X148113619Y-70301952D01*
X148066000Y-70254333D01*
X148018380Y-70159095D01*
X148018380Y-69921000D01*
X148066000Y-69778142D01*
X148018380Y-69492428D02*
X148018380Y-68921000D01*
X149018380Y-69206714D02*
X148018380Y-69206714D01*
X148494571Y-68587666D02*
X148494571Y-68254333D01*
X149018380Y-68111476D02*
X149018380Y-68587666D01*
X148018380Y-68587666D01*
X148018380Y-68111476D01*
X149018380Y-67682904D02*
X148018380Y-67682904D01*
X148018380Y-67301952D01*
X148066000Y-67206714D01*
X148113619Y-67159095D01*
X148208857Y-67111476D01*
X148351714Y-67111476D01*
X148446952Y-67159095D01*
X148494571Y-67206714D01*
X148542190Y-67301952D01*
X148542190Y-67682904D01*
X149018380Y-66682904D02*
X148018380Y-66682904D01*
X148018380Y-66301952D01*
X148066000Y-66206714D01*
X148113619Y-66159095D01*
X148208857Y-66111476D01*
X148351714Y-66111476D01*
X148446952Y-66159095D01*
X148494571Y-66206714D01*
X148542190Y-66301952D01*
X148542190Y-66682904D01*
X148494571Y-65682904D02*
X148494571Y-65349571D01*
X149018380Y-65206714D02*
X149018380Y-65682904D01*
X148018380Y-65682904D01*
X148018380Y-65206714D01*
X149018380Y-64206714D02*
X148542190Y-64540047D01*
X149018380Y-64778142D02*
X148018380Y-64778142D01*
X148018380Y-64397190D01*
X148066000Y-64301952D01*
X148113619Y-64254333D01*
X148208857Y-64206714D01*
X148351714Y-64206714D01*
X148446952Y-64254333D01*
X148494571Y-64301952D01*
X148542190Y-64397190D01*
X148542190Y-64778142D01*
X149113619Y-64016238D02*
X149113619Y-63254333D01*
X148018380Y-62825761D02*
X148018380Y-62730523D01*
X148066000Y-62635285D01*
X148113619Y-62587666D01*
X148208857Y-62540047D01*
X148399333Y-62492428D01*
X148637428Y-62492428D01*
X148827904Y-62540047D01*
X148923142Y-62587666D01*
X148970761Y-62635285D01*
X149018380Y-62730523D01*
X149018380Y-62825761D01*
X148970761Y-62921000D01*
X148923142Y-62968619D01*
X148827904Y-63016238D01*
X148637428Y-63063857D01*
X148399333Y-63063857D01*
X148208857Y-63016238D01*
X148113619Y-62968619D01*
X148066000Y-62921000D01*
X148018380Y-62825761D01*
X140001666Y-67905380D02*
X140001666Y-68619666D01*
X139954047Y-68762523D01*
X139858809Y-68857761D01*
X139715952Y-68905380D01*
X139620714Y-68905380D01*
X140906428Y-68238714D02*
X140906428Y-68905380D01*
X140668333Y-67857761D02*
X140430238Y-68572047D01*
X141049285Y-68572047D01*
%TO.C,J3*%
X66453000Y-123792952D02*
X66405380Y-123888190D01*
X66405380Y-124031047D01*
X66453000Y-124173904D01*
X66548238Y-124269142D01*
X66643476Y-124316761D01*
X66833952Y-124364380D01*
X66976809Y-124364380D01*
X67167285Y-124316761D01*
X67262523Y-124269142D01*
X67357761Y-124173904D01*
X67405380Y-124031047D01*
X67405380Y-123935809D01*
X67357761Y-123792952D01*
X67310142Y-123745333D01*
X66976809Y-123745333D01*
X66976809Y-123935809D01*
X67405380Y-122840571D02*
X67405380Y-123316761D01*
X66405380Y-123316761D01*
X67119666Y-122554857D02*
X67119666Y-122078666D01*
X67405380Y-122650095D02*
X66405380Y-122316761D01*
X67405380Y-121983428D01*
X67357761Y-121697714D02*
X67405380Y-121554857D01*
X67405380Y-121316761D01*
X67357761Y-121221523D01*
X67310142Y-121173904D01*
X67214904Y-121126285D01*
X67119666Y-121126285D01*
X67024428Y-121173904D01*
X66976809Y-121221523D01*
X66929190Y-121316761D01*
X66881571Y-121507238D01*
X66833952Y-121602476D01*
X66786333Y-121650095D01*
X66691095Y-121697714D01*
X66595857Y-121697714D01*
X66500619Y-121650095D01*
X66453000Y-121602476D01*
X66405380Y-121507238D01*
X66405380Y-121269142D01*
X66453000Y-121126285D01*
X67357761Y-120745333D02*
X67405380Y-120602476D01*
X67405380Y-120364380D01*
X67357761Y-120269142D01*
X67310142Y-120221523D01*
X67214904Y-120173904D01*
X67119666Y-120173904D01*
X67024428Y-120221523D01*
X66976809Y-120269142D01*
X66929190Y-120364380D01*
X66881571Y-120554857D01*
X66833952Y-120650095D01*
X66786333Y-120697714D01*
X66691095Y-120745333D01*
X66595857Y-120745333D01*
X66500619Y-120697714D01*
X66453000Y-120650095D01*
X66405380Y-120554857D01*
X66405380Y-120316761D01*
X66453000Y-120173904D01*
X67500619Y-119983428D02*
X67500619Y-119221523D01*
X67405380Y-118459619D02*
X67405380Y-119031047D01*
X67405380Y-118745333D02*
X66405380Y-118745333D01*
X66548238Y-118840571D01*
X66643476Y-118935809D01*
X66691095Y-119031047D01*
X73199666Y-120864380D02*
X73199666Y-121578666D01*
X73152047Y-121721523D01*
X73056809Y-121816761D01*
X72913952Y-121864380D01*
X72818714Y-121864380D01*
X73580619Y-120864380D02*
X74199666Y-120864380D01*
X73866333Y-121245333D01*
X74009190Y-121245333D01*
X74104428Y-121292952D01*
X74152047Y-121340571D01*
X74199666Y-121435809D01*
X74199666Y-121673904D01*
X74152047Y-121769142D01*
X74104428Y-121816761D01*
X74009190Y-121864380D01*
X73723476Y-121864380D01*
X73628238Y-121816761D01*
X73580619Y-121769142D01*
%TO.C,J1*%
X51689142Y-69651238D02*
X51736761Y-69698857D01*
X51784380Y-69841714D01*
X51784380Y-69936952D01*
X51736761Y-70079809D01*
X51641523Y-70175047D01*
X51546285Y-70222666D01*
X51355809Y-70270285D01*
X51212952Y-70270285D01*
X51022476Y-70222666D01*
X50927238Y-70175047D01*
X50832000Y-70079809D01*
X50784380Y-69936952D01*
X50784380Y-69841714D01*
X50832000Y-69698857D01*
X50879619Y-69651238D01*
X51784380Y-69222666D02*
X50784380Y-69222666D01*
X51498666Y-68889333D01*
X50784380Y-68556000D01*
X51784380Y-68556000D01*
X51784380Y-68079809D02*
X50784380Y-68079809D01*
X50784380Y-67841714D01*
X50832000Y-67698857D01*
X50927238Y-67603619D01*
X51022476Y-67556000D01*
X51212952Y-67508380D01*
X51355809Y-67508380D01*
X51546285Y-67556000D01*
X51641523Y-67603619D01*
X51736761Y-67698857D01*
X51784380Y-67841714D01*
X51784380Y-68079809D01*
X51879619Y-67317904D02*
X51879619Y-66556000D01*
X51784380Y-66317904D02*
X50784380Y-66317904D01*
X50784380Y-65936952D01*
X50832000Y-65841714D01*
X50879619Y-65794095D01*
X50974857Y-65746476D01*
X51117714Y-65746476D01*
X51212952Y-65794095D01*
X51260571Y-65841714D01*
X51308190Y-65936952D01*
X51308190Y-66317904D01*
X51498666Y-65365523D02*
X51498666Y-64889333D01*
X51784380Y-65460761D02*
X50784380Y-65127428D01*
X51784380Y-64794095D01*
X51784380Y-64460761D02*
X50784380Y-64460761D01*
X51784380Y-63889333D01*
X50784380Y-63889333D01*
X57578666Y-66508380D02*
X57578666Y-67222666D01*
X57531047Y-67365523D01*
X57435809Y-67460761D01*
X57292952Y-67508380D01*
X57197714Y-67508380D01*
X58578666Y-67508380D02*
X58007238Y-67508380D01*
X58292952Y-67508380D02*
X58292952Y-66508380D01*
X58197714Y-66651238D01*
X58102476Y-66746476D01*
X58007238Y-66794095D01*
%TD*%
M02*
