%TF.GenerationSoftware,KiCad,Pcbnew,5.1.9-73d0e3b20d~88~ubuntu20.04.1*%
%TF.CreationDate,2021-04-10T15:21:01+02:00*%
%TF.ProjectId,pcb_central_unit,7063625f-6365-46e7-9472-616c5f756e69,rev?*%
%TF.SameCoordinates,Original*%
%TF.FileFunction,Copper,L1,Top*%
%TF.FilePolarity,Positive*%
%FSLAX46Y46*%
G04 Gerber Fmt 4.6, Leading zero omitted, Abs format (unit mm)*
G04 Created by KiCad (PCBNEW 5.1.9-73d0e3b20d~88~ubuntu20.04.1) date 2021-04-10 15:21:01*
%MOMM*%
%LPD*%
G01*
G04 APERTURE LIST*
%TA.AperFunction,ComponentPad*%
%ADD10C,1.524000*%
%TD*%
%TA.AperFunction,ComponentPad*%
%ADD11R,1.524000X1.524000*%
%TD*%
%TA.AperFunction,ComponentPad*%
%ADD12O,1.700000X1.700000*%
%TD*%
%TA.AperFunction,ComponentPad*%
%ADD13R,1.700000X1.700000*%
%TD*%
%TA.AperFunction,ComponentPad*%
%ADD14O,1.600000X1.600000*%
%TD*%
%TA.AperFunction,ComponentPad*%
%ADD15C,1.600000*%
%TD*%
%TA.AperFunction,ViaPad*%
%ADD16C,6.300000*%
%TD*%
%TA.AperFunction,Conductor*%
%ADD17C,0.750000*%
%TD*%
%TA.AperFunction,Conductor*%
%ADD18C,0.250000*%
%TD*%
%TA.AperFunction,Conductor*%
%ADD19C,0.254000*%
%TD*%
%TA.AperFunction,Conductor*%
%ADD20C,0.100000*%
%TD*%
G04 APERTURE END LIST*
D10*
%TO.P,U1,JP3_1*%
%TO.N,Net-(U1-PadJP3_1)*%
X123571000Y-76581000D03*
%TO.P,U1,JP4_1*%
%TO.N,Net-(U1-PadJP4_1)*%
X124841000Y-74930000D03*
%TO.P,U1,JP5_1*%
%TO.N,Net-(U1-PadJP5_1)*%
X122301000Y-74930000D03*
D11*
%TO.P,U1,JP1_1*%
%TO.N,DIR_0*%
X119761000Y-92710000D03*
D10*
%TO.P,U1,JP1_2*%
%TO.N,PULS_0*%
X119761000Y-90170000D03*
%TO.P,U1,JP1_3*%
%TO.N,Net-(U1-PadJP1_3)*%
X119761000Y-87630000D03*
%TO.P,U1,JP1_4*%
%TO.N,UART_0*%
X119761000Y-85090000D03*
%TO.P,U1,JP1_5*%
%TO.N,Net-(U1-PadJP1_5)*%
X119761000Y-82550000D03*
%TO.P,U1,JP1_6*%
%TO.N,Net-(U1-PadJP1_6)*%
X119761000Y-80010000D03*
%TO.P,U1,JP1_7*%
%TO.N,Net-(U1-PadJP1_7)*%
X119761000Y-77470000D03*
%TO.P,U1,JP1_8*%
%TO.N,EN_0*%
X119761000Y-74930000D03*
%TO.P,U1,JP2_1*%
%TO.N,+12V*%
X132461000Y-74930000D03*
%TO.P,U1,JP2_2*%
%TO.N,GND*%
X132461000Y-77470000D03*
%TO.P,U1,JP2_3*%
%TO.N,Net-(J4-Pad1)*%
X132461000Y-80010000D03*
%TO.P,U1,JP2_4*%
%TO.N,Net-(J4-Pad2)*%
X132461000Y-82550000D03*
%TO.P,U1,JP2_5*%
%TO.N,Net-(J4-Pad3)*%
X132461000Y-85090000D03*
%TO.P,U1,JP2_6*%
%TO.N,Net-(J4-Pad4)*%
X132461000Y-87630000D03*
%TO.P,U1,JP2_7*%
%TO.N,+3.3V*%
X132461000Y-90170000D03*
%TO.P,U1,JP2_8*%
%TO.N,GND*%
X132461000Y-92710000D03*
%TD*%
D12*
%TO.P,J2,8*%
%TO.N,S1_0*%
X85471000Y-120269000D03*
%TO.P,J2,7*%
%TO.N,S2_0*%
X85471000Y-122809000D03*
%TO.P,J2,6*%
%TO.N,P_DATA_0*%
X88011000Y-120269000D03*
%TO.P,J2,5*%
%TO.N,Net-(J2-Pad5)*%
X88011000Y-122809000D03*
%TO.P,J2,4*%
%TO.N,P_CLK_0*%
X90551000Y-120269000D03*
%TO.P,J2,3*%
%TO.N,GND*%
X90551000Y-122809000D03*
%TO.P,J2,2*%
%TO.N,+3.3V*%
X93091000Y-120269000D03*
D13*
%TO.P,J2,1*%
%TO.N,+5V*%
X93091000Y-122809000D03*
%TD*%
D11*
%TO.P,U3,1*%
%TO.N,Net-(U3-Pad1)*%
X57404000Y-105537000D03*
D10*
%TO.P,U3,2*%
%TO.N,Net-(J8-Pad2)*%
X59944000Y-105537000D03*
%TO.P,U3,3*%
%TO.N,Net-(J9-Pad2)*%
X62484000Y-105537000D03*
%TO.P,U3,4*%
%TO.N,S1_1*%
X65024000Y-105537000D03*
%TO.P,U3,5*%
%TO.N,Net-(U3-Pad5)*%
X67564000Y-105537000D03*
%TO.P,U3,6*%
%TO.N,P_CLK_1*%
X70104000Y-105537000D03*
%TO.P,U3,7*%
%TO.N,P_DATA_1*%
X72644000Y-105537000D03*
%TO.P,U3,8*%
%TO.N,P_DATA_0*%
X75184000Y-105537000D03*
%TO.P,U3,9*%
%TO.N,S1_0*%
X77724000Y-105537000D03*
%TO.P,U3,10*%
%TO.N,S2_0*%
X80264000Y-105537000D03*
%TO.P,U3,11*%
%TO.N,P_CLK_0*%
X82804000Y-105537000D03*
%TO.P,U3,12*%
%TO.N,B1*%
X85344000Y-105537000D03*
%TO.P,U3,13*%
%TO.N,B2*%
X87884000Y-105537000D03*
%TO.P,U3,14*%
%TO.N,GND*%
X90424000Y-105537000D03*
%TO.P,U3,15*%
%TO.N,+5V*%
X92964000Y-105537000D03*
%TO.P,U3,16*%
%TO.N,+3.3V*%
X92964000Y-80137000D03*
%TO.P,U3,17*%
%TO.N,GND*%
X90424000Y-80137000D03*
%TO.P,U3,18*%
%TO.N,EN_0*%
X87884000Y-80137000D03*
%TO.P,U3,19*%
%TO.N,DIR_0*%
X85344000Y-80137000D03*
%TO.P,U3,20*%
%TO.N,PULS_0*%
X82804000Y-80137000D03*
%TO.P,U3,21*%
%TO.N,UART_1*%
X80264000Y-80137000D03*
%TO.P,U3,22*%
%TO.N,Net-(R2-Pad2)*%
X77724000Y-80137000D03*
%TO.P,U3,23*%
%TO.N,EN_1*%
X75184000Y-80137000D03*
%TO.P,U3,24*%
%TO.N,DIR_1*%
X72644000Y-80137000D03*
%TO.P,U3,25*%
%TO.N,PULS_1*%
X70104000Y-80137000D03*
%TO.P,U3,26*%
%TO.N,Net-(U3-Pad26)*%
X67564000Y-80137000D03*
%TO.P,U3,27*%
%TO.N,UART_0*%
X65024000Y-80137000D03*
%TO.P,U3,28*%
%TO.N,Net-(R1-Pad2)*%
X62484000Y-80137000D03*
%TO.P,U3,29*%
%TO.N,I2C_DATA*%
X59944000Y-80137000D03*
%TO.P,U3,30*%
%TO.N,I2C_CLK*%
X57404000Y-80137000D03*
%TD*%
%TO.P,U2,JP3_1*%
%TO.N,Net-(U2-PadJP3_1)*%
X147701000Y-76581000D03*
%TO.P,U2,JP4_1*%
%TO.N,Net-(U2-PadJP4_1)*%
X148971000Y-74930000D03*
%TO.P,U2,JP5_1*%
%TO.N,Net-(U2-PadJP5_1)*%
X146431000Y-74930000D03*
D11*
%TO.P,U2,JP1_1*%
%TO.N,DIR_1*%
X143891000Y-92710000D03*
D10*
%TO.P,U2,JP1_2*%
%TO.N,PULS_1*%
X143891000Y-90170000D03*
%TO.P,U2,JP1_3*%
%TO.N,Net-(U2-PadJP1_3)*%
X143891000Y-87630000D03*
%TO.P,U2,JP1_4*%
%TO.N,UART_1*%
X143891000Y-85090000D03*
%TO.P,U2,JP1_5*%
%TO.N,Net-(U2-PadJP1_5)*%
X143891000Y-82550000D03*
%TO.P,U2,JP1_6*%
%TO.N,Net-(U2-PadJP1_6)*%
X143891000Y-80010000D03*
%TO.P,U2,JP1_7*%
%TO.N,Net-(U2-PadJP1_7)*%
X143891000Y-77470000D03*
%TO.P,U2,JP1_8*%
%TO.N,EN_1*%
X143891000Y-74930000D03*
%TO.P,U2,JP2_1*%
%TO.N,+12V*%
X156591000Y-74930000D03*
%TO.P,U2,JP2_2*%
%TO.N,GND*%
X156591000Y-77470000D03*
%TO.P,U2,JP2_3*%
%TO.N,Net-(J5-Pad1)*%
X156591000Y-80010000D03*
%TO.P,U2,JP2_4*%
%TO.N,Net-(J5-Pad2)*%
X156591000Y-82550000D03*
%TO.P,U2,JP2_5*%
%TO.N,Net-(J5-Pad3)*%
X156591000Y-85090000D03*
%TO.P,U2,JP2_6*%
%TO.N,Net-(J5-Pad4)*%
X156591000Y-87630000D03*
%TO.P,U2,JP2_7*%
%TO.N,+3.3V*%
X156591000Y-90170000D03*
%TO.P,U2,JP2_8*%
%TO.N,GND*%
X156591000Y-92710000D03*
%TD*%
D12*
%TO.P,J6,4*%
%TO.N,+5V*%
X106807000Y-110236000D03*
%TO.P,J6,3*%
%TO.N,GND*%
X106807000Y-107696000D03*
%TO.P,J6,2*%
%TO.N,+12V*%
X106807000Y-105156000D03*
D13*
%TO.P,J6,1*%
%TO.N,GND*%
X106807000Y-102616000D03*
%TD*%
D12*
%TO.P,J7,2*%
%TO.N,+5V*%
X102235000Y-122428000D03*
D13*
%TO.P,J7,1*%
%TO.N,GND*%
X102235000Y-119888000D03*
%TD*%
D14*
%TO.P,R2,2*%
%TO.N,Net-(R2-Pad2)*%
X81915000Y-71120000D03*
D15*
%TO.P,R2,1*%
%TO.N,UART_1*%
X89535000Y-71120000D03*
%TD*%
D14*
%TO.P,R1,2*%
%TO.N,Net-(R1-Pad2)*%
X73025000Y-66675000D03*
D15*
%TO.P,R1,1*%
%TO.N,UART_0*%
X80645000Y-66675000D03*
%TD*%
D12*
%TO.P,J9,2*%
%TO.N,Net-(J9-Pad2)*%
X60198000Y-114554000D03*
D13*
%TO.P,J9,1*%
%TO.N,GND*%
X62738000Y-114554000D03*
%TD*%
D12*
%TO.P,J8,2*%
%TO.N,Net-(J8-Pad2)*%
X52705000Y-114427000D03*
D13*
%TO.P,J8,1*%
%TO.N,GND*%
X55245000Y-114427000D03*
%TD*%
D12*
%TO.P,J5,4*%
%TO.N,Net-(J5-Pad4)*%
X161544000Y-66421000D03*
%TO.P,J5,3*%
%TO.N,Net-(J5-Pad3)*%
X159004000Y-66421000D03*
%TO.P,J5,2*%
%TO.N,Net-(J5-Pad2)*%
X156464000Y-66421000D03*
D13*
%TO.P,J5,1*%
%TO.N,Net-(J5-Pad1)*%
X153924000Y-66421000D03*
%TD*%
D12*
%TO.P,J4,4*%
%TO.N,Net-(J4-Pad4)*%
X145796000Y-66421000D03*
%TO.P,J4,3*%
%TO.N,Net-(J4-Pad3)*%
X143256000Y-66421000D03*
%TO.P,J4,2*%
%TO.N,Net-(J4-Pad2)*%
X140716000Y-66421000D03*
D13*
%TO.P,J4,1*%
%TO.N,Net-(J4-Pad1)*%
X138176000Y-66421000D03*
%TD*%
D12*
%TO.P,J3,8*%
%TO.N,S1_1*%
X69723000Y-120142000D03*
%TO.P,J3,7*%
%TO.N,S2_1*%
X69723000Y-122682000D03*
%TO.P,J3,6*%
%TO.N,P_DATA_1*%
X72263000Y-120142000D03*
%TO.P,J3,5*%
%TO.N,Net-(J3-Pad5)*%
X72263000Y-122682000D03*
%TO.P,J3,4*%
%TO.N,P_CLK_1*%
X74803000Y-120142000D03*
%TO.P,J3,3*%
%TO.N,GND*%
X74803000Y-122682000D03*
%TO.P,J3,2*%
%TO.N,+3.3V*%
X77343000Y-120142000D03*
D13*
%TO.P,J3,1*%
%TO.N,+5V*%
X77343000Y-122682000D03*
%TD*%
D12*
%TO.P,J1,8*%
%TO.N,I2C_DATA*%
X54102000Y-65786000D03*
%TO.P,J1,7*%
%TO.N,I2C_CLK*%
X54102000Y-68326000D03*
%TO.P,J1,6*%
%TO.N,B2*%
X56642000Y-65786000D03*
%TO.P,J1,5*%
%TO.N,B1*%
X56642000Y-68326000D03*
%TO.P,J1,4*%
%TO.N,Net-(J1-Pad4)*%
X59182000Y-65786000D03*
%TO.P,J1,3*%
%TO.N,GND*%
X59182000Y-68326000D03*
%TO.P,J1,2*%
%TO.N,+3.3V*%
X61722000Y-65786000D03*
D13*
%TO.P,J1,1*%
%TO.N,+5V*%
X61722000Y-68326000D03*
%TD*%
D16*
%TO.N,*%
X118194000Y-100634000D03*
X155194000Y-119634000D03*
%TD*%
D17*
%TO.N,GND*%
X152713999Y-73592999D02*
X156591000Y-77470000D01*
X136338001Y-73592999D02*
X152713999Y-73592999D01*
X132461000Y-77470000D02*
X136338001Y-73592999D01*
X89125999Y-124234001D02*
X90551000Y-122809000D01*
X76355001Y-124234001D02*
X89125999Y-124234001D01*
X74803000Y-122682000D02*
X76355001Y-124234001D01*
X97888999Y-124234001D02*
X102235000Y-119888000D01*
X91976001Y-124234001D02*
X97888999Y-124234001D01*
X90551000Y-122809000D02*
X91976001Y-124234001D01*
D18*
X73627999Y-123857001D02*
X74803000Y-122682000D01*
X69158999Y-123857001D02*
X73627999Y-123857001D01*
X62738000Y-117436002D02*
X69158999Y-123857001D01*
X62738000Y-114554000D02*
X62738000Y-117436002D01*
D17*
X132461000Y-77470000D02*
X128839010Y-81091990D01*
X90424000Y-77593998D02*
X90424000Y-80137000D01*
X82575001Y-69744999D02*
X90424000Y-77593998D01*
X81254999Y-69744999D02*
X82575001Y-69744999D01*
X81248997Y-69751001D02*
X81254999Y-69744999D01*
X60607001Y-69751001D02*
X81248997Y-69751001D01*
X59182000Y-68326000D02*
X60607001Y-69751001D01*
X122247517Y-107696000D02*
X106807000Y-107696000D01*
X128839010Y-81091990D02*
X128839010Y-101104507D01*
X132461000Y-97482516D02*
X123226758Y-106716758D01*
X123226758Y-106716758D02*
X122247517Y-107696000D01*
X128839010Y-101104507D02*
X123226758Y-106716758D01*
X90424000Y-86233000D02*
X106807000Y-102616000D01*
X90424000Y-80137000D02*
X90424000Y-86233000D01*
X151818484Y-97482516D02*
X132461000Y-97482516D01*
X156591000Y-92710000D02*
X151818484Y-97482516D01*
X132461000Y-92710000D02*
X132461000Y-97482516D01*
D18*
%TO.N,+12V*%
X156591000Y-74930000D02*
X156591000Y-73406000D01*
X156591000Y-73406000D02*
X156210000Y-73025000D01*
D17*
X156591000Y-74930000D02*
X156591000Y-73025000D01*
X156591000Y-73025000D02*
X155829000Y-72263000D01*
X135128000Y-72263000D02*
X132461000Y-74930000D01*
X155829000Y-72263000D02*
X135128000Y-72263000D01*
X126619000Y-100584000D02*
X122174000Y-105029000D01*
X126619000Y-80772000D02*
X128270000Y-79121000D01*
X126619000Y-100584000D02*
X126619000Y-80772000D01*
X128270000Y-79121000D02*
X127889000Y-79502000D01*
X132461000Y-74930000D02*
X128270000Y-79121000D01*
X106934000Y-105029000D02*
X106807000Y-105156000D01*
X122174000Y-105029000D02*
X106934000Y-105029000D01*
D18*
%TO.N,+3.3V*%
X61722000Y-65786000D02*
X62571999Y-64936001D01*
%TO.N,UART_0*%
X101346000Y-66675000D02*
X119761000Y-85090000D01*
X80645000Y-66675000D02*
X101346000Y-66675000D01*
%TD*%
D19*
%TO.N,+3.3V*%
X166978700Y-126340000D02*
X47648702Y-126340000D01*
X47624964Y-114280740D01*
X51220000Y-114280740D01*
X51220000Y-114573260D01*
X51277068Y-114860158D01*
X51389010Y-115130411D01*
X51551525Y-115373632D01*
X51758368Y-115580475D01*
X52001589Y-115742990D01*
X52271842Y-115854932D01*
X52558740Y-115912000D01*
X52851260Y-115912000D01*
X53138158Y-115854932D01*
X53408411Y-115742990D01*
X53651632Y-115580475D01*
X53783487Y-115448620D01*
X53805498Y-115521180D01*
X53864463Y-115631494D01*
X53943815Y-115728185D01*
X54040506Y-115807537D01*
X54150820Y-115866502D01*
X54270518Y-115902812D01*
X54395000Y-115915072D01*
X56095000Y-115915072D01*
X56219482Y-115902812D01*
X56339180Y-115866502D01*
X56449494Y-115807537D01*
X56546185Y-115728185D01*
X56625537Y-115631494D01*
X56684502Y-115521180D01*
X56720812Y-115401482D01*
X56733072Y-115277000D01*
X56733072Y-114407740D01*
X58713000Y-114407740D01*
X58713000Y-114700260D01*
X58770068Y-114987158D01*
X58882010Y-115257411D01*
X59044525Y-115500632D01*
X59251368Y-115707475D01*
X59494589Y-115869990D01*
X59764842Y-115981932D01*
X60051740Y-116039000D01*
X60344260Y-116039000D01*
X60631158Y-115981932D01*
X60901411Y-115869990D01*
X61144632Y-115707475D01*
X61276487Y-115575620D01*
X61298498Y-115648180D01*
X61357463Y-115758494D01*
X61436815Y-115855185D01*
X61533506Y-115934537D01*
X61643820Y-115993502D01*
X61763518Y-116029812D01*
X61888000Y-116042072D01*
X61978001Y-116042072D01*
X61978001Y-117398670D01*
X61974324Y-117436002D01*
X61988998Y-117584987D01*
X62032454Y-117728248D01*
X62103026Y-117860278D01*
X62174201Y-117947004D01*
X62198000Y-117976003D01*
X62226998Y-117999801D01*
X68595200Y-124368004D01*
X68618998Y-124397002D01*
X68734723Y-124491975D01*
X68866752Y-124562547D01*
X69010013Y-124606004D01*
X69121666Y-124617001D01*
X69121676Y-124617001D01*
X69158999Y-124620677D01*
X69196322Y-124617001D01*
X73590677Y-124617001D01*
X73627999Y-124620677D01*
X73665321Y-124617001D01*
X73665332Y-124617001D01*
X73776985Y-124606004D01*
X73920246Y-124562547D01*
X74052275Y-124491975D01*
X74168000Y-124397002D01*
X74191803Y-124367998D01*
X74436592Y-124123209D01*
X74656740Y-124167000D01*
X74859645Y-124167000D01*
X75605745Y-124913100D01*
X75637368Y-124951634D01*
X75791161Y-125077848D01*
X75966621Y-125171633D01*
X76157006Y-125229386D01*
X76355001Y-125248887D01*
X76404609Y-125244001D01*
X89076391Y-125244001D01*
X89125999Y-125248887D01*
X89323993Y-125229386D01*
X89514379Y-125171633D01*
X89689839Y-125077848D01*
X89843632Y-124951634D01*
X89875260Y-124913095D01*
X90494355Y-124294000D01*
X90607644Y-124294000D01*
X91226744Y-124913100D01*
X91258368Y-124951634D01*
X91412161Y-125077848D01*
X91587621Y-125171633D01*
X91778006Y-125229386D01*
X91976001Y-125248887D01*
X92025609Y-125244001D01*
X97839391Y-125244001D01*
X97888999Y-125248887D01*
X98086993Y-125229386D01*
X98277379Y-125171633D01*
X98452839Y-125077848D01*
X98606632Y-124951634D01*
X98638260Y-124913095D01*
X100787678Y-122763678D01*
X100807068Y-122861158D01*
X100919010Y-123131411D01*
X101081525Y-123374632D01*
X101288368Y-123581475D01*
X101531589Y-123743990D01*
X101801842Y-123855932D01*
X102088740Y-123913000D01*
X102381260Y-123913000D01*
X102668158Y-123855932D01*
X102938411Y-123743990D01*
X103181632Y-123581475D01*
X103388475Y-123374632D01*
X103550990Y-123131411D01*
X103662932Y-122861158D01*
X103720000Y-122574260D01*
X103720000Y-122281740D01*
X103662932Y-121994842D01*
X103550990Y-121724589D01*
X103388475Y-121481368D01*
X103256620Y-121349513D01*
X103329180Y-121327502D01*
X103439494Y-121268537D01*
X103536185Y-121189185D01*
X103615537Y-121092494D01*
X103674502Y-120982180D01*
X103710812Y-120862482D01*
X103723072Y-120738000D01*
X103723072Y-119261210D01*
X151409000Y-119261210D01*
X151409000Y-120006790D01*
X151554455Y-120738044D01*
X151839777Y-121426870D01*
X152253999Y-122046797D01*
X152781203Y-122574001D01*
X153401130Y-122988223D01*
X154089956Y-123273545D01*
X154821210Y-123419000D01*
X155566790Y-123419000D01*
X156298044Y-123273545D01*
X156986870Y-122988223D01*
X157606797Y-122574001D01*
X158134001Y-122046797D01*
X158548223Y-121426870D01*
X158833545Y-120738044D01*
X158979000Y-120006790D01*
X158979000Y-119261210D01*
X158833545Y-118529956D01*
X158548223Y-117841130D01*
X158134001Y-117221203D01*
X157606797Y-116693999D01*
X156986870Y-116279777D01*
X156298044Y-115994455D01*
X155566790Y-115849000D01*
X154821210Y-115849000D01*
X154089956Y-115994455D01*
X153401130Y-116279777D01*
X152781203Y-116693999D01*
X152253999Y-117221203D01*
X151839777Y-117841130D01*
X151554455Y-118529956D01*
X151409000Y-119261210D01*
X103723072Y-119261210D01*
X103723072Y-119038000D01*
X103710812Y-118913518D01*
X103674502Y-118793820D01*
X103615537Y-118683506D01*
X103536185Y-118586815D01*
X103439494Y-118507463D01*
X103329180Y-118448498D01*
X103209482Y-118412188D01*
X103085000Y-118399928D01*
X101385000Y-118399928D01*
X101260518Y-118412188D01*
X101140820Y-118448498D01*
X101030506Y-118507463D01*
X100933815Y-118586815D01*
X100854463Y-118683506D01*
X100795498Y-118793820D01*
X100759188Y-118913518D01*
X100746928Y-119038000D01*
X100746928Y-119947716D01*
X97470644Y-123224001D01*
X94579072Y-123224001D01*
X94579072Y-121959000D01*
X94566812Y-121834518D01*
X94530502Y-121714820D01*
X94471537Y-121604506D01*
X94392185Y-121507815D01*
X94295494Y-121428463D01*
X94185180Y-121369498D01*
X94109374Y-121346502D01*
X94286178Y-121150355D01*
X94435157Y-120900252D01*
X94532481Y-120625891D01*
X94411814Y-120396000D01*
X93218000Y-120396000D01*
X93218000Y-120416000D01*
X92964000Y-120416000D01*
X92964000Y-120396000D01*
X92944000Y-120396000D01*
X92944000Y-120142000D01*
X92964000Y-120142000D01*
X92964000Y-118948845D01*
X93218000Y-118948845D01*
X93218000Y-120142000D01*
X94411814Y-120142000D01*
X94532481Y-119912109D01*
X94435157Y-119637748D01*
X94286178Y-119387645D01*
X94091269Y-119171412D01*
X93857920Y-118997359D01*
X93595099Y-118872175D01*
X93447890Y-118827524D01*
X93218000Y-118948845D01*
X92964000Y-118948845D01*
X92734110Y-118827524D01*
X92586901Y-118872175D01*
X92324080Y-118997359D01*
X92090731Y-119171412D01*
X91895822Y-119387645D01*
X91826195Y-119504534D01*
X91704475Y-119322368D01*
X91497632Y-119115525D01*
X91254411Y-118953010D01*
X90984158Y-118841068D01*
X90697260Y-118784000D01*
X90404740Y-118784000D01*
X90117842Y-118841068D01*
X89847589Y-118953010D01*
X89604368Y-119115525D01*
X89397525Y-119322368D01*
X89281000Y-119496760D01*
X89164475Y-119322368D01*
X88957632Y-119115525D01*
X88714411Y-118953010D01*
X88444158Y-118841068D01*
X88157260Y-118784000D01*
X87864740Y-118784000D01*
X87577842Y-118841068D01*
X87307589Y-118953010D01*
X87064368Y-119115525D01*
X86857525Y-119322368D01*
X86741000Y-119496760D01*
X86624475Y-119322368D01*
X86417632Y-119115525D01*
X86174411Y-118953010D01*
X85904158Y-118841068D01*
X85617260Y-118784000D01*
X85324740Y-118784000D01*
X85037842Y-118841068D01*
X84767589Y-118953010D01*
X84524368Y-119115525D01*
X84317525Y-119322368D01*
X84155010Y-119565589D01*
X84043068Y-119835842D01*
X83986000Y-120122740D01*
X83986000Y-120415260D01*
X84043068Y-120702158D01*
X84155010Y-120972411D01*
X84317525Y-121215632D01*
X84524368Y-121422475D01*
X84698760Y-121539000D01*
X84524368Y-121655525D01*
X84317525Y-121862368D01*
X84155010Y-122105589D01*
X84043068Y-122375842D01*
X83986000Y-122662740D01*
X83986000Y-122955260D01*
X84039456Y-123224001D01*
X78831072Y-123224001D01*
X78831072Y-121832000D01*
X78818812Y-121707518D01*
X78782502Y-121587820D01*
X78723537Y-121477506D01*
X78644185Y-121380815D01*
X78547494Y-121301463D01*
X78437180Y-121242498D01*
X78361374Y-121219502D01*
X78538178Y-121023355D01*
X78687157Y-120773252D01*
X78784481Y-120498891D01*
X78663814Y-120269000D01*
X77470000Y-120269000D01*
X77470000Y-120289000D01*
X77216000Y-120289000D01*
X77216000Y-120269000D01*
X77196000Y-120269000D01*
X77196000Y-120015000D01*
X77216000Y-120015000D01*
X77216000Y-118821845D01*
X77470000Y-118821845D01*
X77470000Y-120015000D01*
X78663814Y-120015000D01*
X78784481Y-119785109D01*
X78687157Y-119510748D01*
X78538178Y-119260645D01*
X78343269Y-119044412D01*
X78109920Y-118870359D01*
X77847099Y-118745175D01*
X77699890Y-118700524D01*
X77470000Y-118821845D01*
X77216000Y-118821845D01*
X76986110Y-118700524D01*
X76838901Y-118745175D01*
X76576080Y-118870359D01*
X76342731Y-119044412D01*
X76147822Y-119260645D01*
X76078195Y-119377534D01*
X75956475Y-119195368D01*
X75749632Y-118988525D01*
X75506411Y-118826010D01*
X75236158Y-118714068D01*
X74949260Y-118657000D01*
X74656740Y-118657000D01*
X74369842Y-118714068D01*
X74099589Y-118826010D01*
X73856368Y-118988525D01*
X73649525Y-119195368D01*
X73533000Y-119369760D01*
X73416475Y-119195368D01*
X73209632Y-118988525D01*
X72966411Y-118826010D01*
X72696158Y-118714068D01*
X72409260Y-118657000D01*
X72116740Y-118657000D01*
X71829842Y-118714068D01*
X71559589Y-118826010D01*
X71316368Y-118988525D01*
X71109525Y-119195368D01*
X70993000Y-119369760D01*
X70876475Y-119195368D01*
X70669632Y-118988525D01*
X70426411Y-118826010D01*
X70156158Y-118714068D01*
X69869260Y-118657000D01*
X69576740Y-118657000D01*
X69289842Y-118714068D01*
X69019589Y-118826010D01*
X68776368Y-118988525D01*
X68569525Y-119195368D01*
X68407010Y-119438589D01*
X68295068Y-119708842D01*
X68238000Y-119995740D01*
X68238000Y-120288260D01*
X68295068Y-120575158D01*
X68407010Y-120845411D01*
X68569525Y-121088632D01*
X68776368Y-121295475D01*
X68950760Y-121412000D01*
X68776368Y-121528525D01*
X68569525Y-121735368D01*
X68407010Y-121978589D01*
X68391891Y-122015091D01*
X63498000Y-117121201D01*
X63498000Y-116042072D01*
X63588000Y-116042072D01*
X63712482Y-116029812D01*
X63832180Y-115993502D01*
X63942494Y-115934537D01*
X64039185Y-115855185D01*
X64118537Y-115758494D01*
X64177502Y-115648180D01*
X64213812Y-115528482D01*
X64226072Y-115404000D01*
X64226072Y-113704000D01*
X64213812Y-113579518D01*
X64177502Y-113459820D01*
X64118537Y-113349506D01*
X64039185Y-113252815D01*
X63942494Y-113173463D01*
X63832180Y-113114498D01*
X63712482Y-113078188D01*
X63588000Y-113065928D01*
X61888000Y-113065928D01*
X61763518Y-113078188D01*
X61643820Y-113114498D01*
X61533506Y-113173463D01*
X61436815Y-113252815D01*
X61357463Y-113349506D01*
X61298498Y-113459820D01*
X61276487Y-113532380D01*
X61144632Y-113400525D01*
X60901411Y-113238010D01*
X60631158Y-113126068D01*
X60344260Y-113069000D01*
X60051740Y-113069000D01*
X59764842Y-113126068D01*
X59494589Y-113238010D01*
X59251368Y-113400525D01*
X59044525Y-113607368D01*
X58882010Y-113850589D01*
X58770068Y-114120842D01*
X58713000Y-114407740D01*
X56733072Y-114407740D01*
X56733072Y-113577000D01*
X56720812Y-113452518D01*
X56684502Y-113332820D01*
X56625537Y-113222506D01*
X56546185Y-113125815D01*
X56449494Y-113046463D01*
X56339180Y-112987498D01*
X56219482Y-112951188D01*
X56095000Y-112938928D01*
X54395000Y-112938928D01*
X54270518Y-112951188D01*
X54150820Y-112987498D01*
X54040506Y-113046463D01*
X53943815Y-113125815D01*
X53864463Y-113222506D01*
X53805498Y-113332820D01*
X53783487Y-113405380D01*
X53651632Y-113273525D01*
X53408411Y-113111010D01*
X53138158Y-112999068D01*
X52851260Y-112942000D01*
X52558740Y-112942000D01*
X52271842Y-112999068D01*
X52001589Y-113111010D01*
X51758368Y-113273525D01*
X51551525Y-113480368D01*
X51389010Y-113723589D01*
X51277068Y-113993842D01*
X51220000Y-114280740D01*
X47624964Y-114280740D01*
X47606252Y-104775000D01*
X56003928Y-104775000D01*
X56003928Y-106299000D01*
X56016188Y-106423482D01*
X56052498Y-106543180D01*
X56111463Y-106653494D01*
X56190815Y-106750185D01*
X56287506Y-106829537D01*
X56397820Y-106888502D01*
X56517518Y-106924812D01*
X56642000Y-106937072D01*
X58166000Y-106937072D01*
X58290482Y-106924812D01*
X58410180Y-106888502D01*
X58520494Y-106829537D01*
X58617185Y-106750185D01*
X58696537Y-106653494D01*
X58755502Y-106543180D01*
X58791812Y-106423482D01*
X58800080Y-106339535D01*
X58858880Y-106427535D01*
X59053465Y-106622120D01*
X59282273Y-106775005D01*
X59536510Y-106880314D01*
X59806408Y-106934000D01*
X60081592Y-106934000D01*
X60351490Y-106880314D01*
X60605727Y-106775005D01*
X60834535Y-106622120D01*
X61029120Y-106427535D01*
X61182005Y-106198727D01*
X61214000Y-106121485D01*
X61245995Y-106198727D01*
X61398880Y-106427535D01*
X61593465Y-106622120D01*
X61822273Y-106775005D01*
X62076510Y-106880314D01*
X62346408Y-106934000D01*
X62621592Y-106934000D01*
X62891490Y-106880314D01*
X63145727Y-106775005D01*
X63374535Y-106622120D01*
X63569120Y-106427535D01*
X63722005Y-106198727D01*
X63754000Y-106121485D01*
X63785995Y-106198727D01*
X63938880Y-106427535D01*
X64133465Y-106622120D01*
X64362273Y-106775005D01*
X64616510Y-106880314D01*
X64886408Y-106934000D01*
X65161592Y-106934000D01*
X65431490Y-106880314D01*
X65685727Y-106775005D01*
X65914535Y-106622120D01*
X66109120Y-106427535D01*
X66262005Y-106198727D01*
X66294000Y-106121485D01*
X66325995Y-106198727D01*
X66478880Y-106427535D01*
X66673465Y-106622120D01*
X66902273Y-106775005D01*
X67156510Y-106880314D01*
X67426408Y-106934000D01*
X67701592Y-106934000D01*
X67971490Y-106880314D01*
X68225727Y-106775005D01*
X68454535Y-106622120D01*
X68649120Y-106427535D01*
X68802005Y-106198727D01*
X68834000Y-106121485D01*
X68865995Y-106198727D01*
X69018880Y-106427535D01*
X69213465Y-106622120D01*
X69442273Y-106775005D01*
X69696510Y-106880314D01*
X69966408Y-106934000D01*
X70241592Y-106934000D01*
X70511490Y-106880314D01*
X70765727Y-106775005D01*
X70994535Y-106622120D01*
X71189120Y-106427535D01*
X71342005Y-106198727D01*
X71374000Y-106121485D01*
X71405995Y-106198727D01*
X71558880Y-106427535D01*
X71753465Y-106622120D01*
X71982273Y-106775005D01*
X72236510Y-106880314D01*
X72506408Y-106934000D01*
X72781592Y-106934000D01*
X73051490Y-106880314D01*
X73305727Y-106775005D01*
X73534535Y-106622120D01*
X73729120Y-106427535D01*
X73882005Y-106198727D01*
X73914000Y-106121485D01*
X73945995Y-106198727D01*
X74098880Y-106427535D01*
X74293465Y-106622120D01*
X74522273Y-106775005D01*
X74776510Y-106880314D01*
X75046408Y-106934000D01*
X75321592Y-106934000D01*
X75591490Y-106880314D01*
X75845727Y-106775005D01*
X76074535Y-106622120D01*
X76269120Y-106427535D01*
X76422005Y-106198727D01*
X76454000Y-106121485D01*
X76485995Y-106198727D01*
X76638880Y-106427535D01*
X76833465Y-106622120D01*
X77062273Y-106775005D01*
X77316510Y-106880314D01*
X77586408Y-106934000D01*
X77861592Y-106934000D01*
X78131490Y-106880314D01*
X78385727Y-106775005D01*
X78614535Y-106622120D01*
X78809120Y-106427535D01*
X78962005Y-106198727D01*
X78994000Y-106121485D01*
X79025995Y-106198727D01*
X79178880Y-106427535D01*
X79373465Y-106622120D01*
X79602273Y-106775005D01*
X79856510Y-106880314D01*
X80126408Y-106934000D01*
X80401592Y-106934000D01*
X80671490Y-106880314D01*
X80925727Y-106775005D01*
X81154535Y-106622120D01*
X81349120Y-106427535D01*
X81502005Y-106198727D01*
X81534000Y-106121485D01*
X81565995Y-106198727D01*
X81718880Y-106427535D01*
X81913465Y-106622120D01*
X82142273Y-106775005D01*
X82396510Y-106880314D01*
X82666408Y-106934000D01*
X82941592Y-106934000D01*
X83211490Y-106880314D01*
X83465727Y-106775005D01*
X83694535Y-106622120D01*
X83889120Y-106427535D01*
X84042005Y-106198727D01*
X84074000Y-106121485D01*
X84105995Y-106198727D01*
X84258880Y-106427535D01*
X84453465Y-106622120D01*
X84682273Y-106775005D01*
X84936510Y-106880314D01*
X85206408Y-106934000D01*
X85481592Y-106934000D01*
X85751490Y-106880314D01*
X86005727Y-106775005D01*
X86234535Y-106622120D01*
X86429120Y-106427535D01*
X86582005Y-106198727D01*
X86614000Y-106121485D01*
X86645995Y-106198727D01*
X86798880Y-106427535D01*
X86993465Y-106622120D01*
X87222273Y-106775005D01*
X87476510Y-106880314D01*
X87746408Y-106934000D01*
X88021592Y-106934000D01*
X88291490Y-106880314D01*
X88545727Y-106775005D01*
X88774535Y-106622120D01*
X88969120Y-106427535D01*
X89122005Y-106198727D01*
X89154000Y-106121485D01*
X89185995Y-106198727D01*
X89338880Y-106427535D01*
X89533465Y-106622120D01*
X89762273Y-106775005D01*
X90016510Y-106880314D01*
X90286408Y-106934000D01*
X90561592Y-106934000D01*
X90831490Y-106880314D01*
X91085727Y-106775005D01*
X91314535Y-106622120D01*
X91509120Y-106427535D01*
X91662005Y-106198727D01*
X91694000Y-106121485D01*
X91725995Y-106198727D01*
X91878880Y-106427535D01*
X92073465Y-106622120D01*
X92302273Y-106775005D01*
X92556510Y-106880314D01*
X92826408Y-106934000D01*
X93101592Y-106934000D01*
X93371490Y-106880314D01*
X93625727Y-106775005D01*
X93854535Y-106622120D01*
X94049120Y-106427535D01*
X94202005Y-106198727D01*
X94307314Y-105944490D01*
X94361000Y-105674592D01*
X94361000Y-105399408D01*
X94307314Y-105129510D01*
X94202005Y-104875273D01*
X94049120Y-104646465D01*
X93854535Y-104451880D01*
X93625727Y-104298995D01*
X93371490Y-104193686D01*
X93101592Y-104140000D01*
X92826408Y-104140000D01*
X92556510Y-104193686D01*
X92302273Y-104298995D01*
X92073465Y-104451880D01*
X91878880Y-104646465D01*
X91725995Y-104875273D01*
X91694000Y-104952515D01*
X91662005Y-104875273D01*
X91509120Y-104646465D01*
X91314535Y-104451880D01*
X91085727Y-104298995D01*
X90831490Y-104193686D01*
X90561592Y-104140000D01*
X90286408Y-104140000D01*
X90016510Y-104193686D01*
X89762273Y-104298995D01*
X89533465Y-104451880D01*
X89338880Y-104646465D01*
X89185995Y-104875273D01*
X89154000Y-104952515D01*
X89122005Y-104875273D01*
X88969120Y-104646465D01*
X88774535Y-104451880D01*
X88545727Y-104298995D01*
X88291490Y-104193686D01*
X88021592Y-104140000D01*
X87746408Y-104140000D01*
X87476510Y-104193686D01*
X87222273Y-104298995D01*
X86993465Y-104451880D01*
X86798880Y-104646465D01*
X86645995Y-104875273D01*
X86614000Y-104952515D01*
X86582005Y-104875273D01*
X86429120Y-104646465D01*
X86234535Y-104451880D01*
X86005727Y-104298995D01*
X85751490Y-104193686D01*
X85481592Y-104140000D01*
X85206408Y-104140000D01*
X84936510Y-104193686D01*
X84682273Y-104298995D01*
X84453465Y-104451880D01*
X84258880Y-104646465D01*
X84105995Y-104875273D01*
X84074000Y-104952515D01*
X84042005Y-104875273D01*
X83889120Y-104646465D01*
X83694535Y-104451880D01*
X83465727Y-104298995D01*
X83211490Y-104193686D01*
X82941592Y-104140000D01*
X82666408Y-104140000D01*
X82396510Y-104193686D01*
X82142273Y-104298995D01*
X81913465Y-104451880D01*
X81718880Y-104646465D01*
X81565995Y-104875273D01*
X81534000Y-104952515D01*
X81502005Y-104875273D01*
X81349120Y-104646465D01*
X81154535Y-104451880D01*
X80925727Y-104298995D01*
X80671490Y-104193686D01*
X80401592Y-104140000D01*
X80126408Y-104140000D01*
X79856510Y-104193686D01*
X79602273Y-104298995D01*
X79373465Y-104451880D01*
X79178880Y-104646465D01*
X79025995Y-104875273D01*
X78994000Y-104952515D01*
X78962005Y-104875273D01*
X78809120Y-104646465D01*
X78614535Y-104451880D01*
X78385727Y-104298995D01*
X78131490Y-104193686D01*
X77861592Y-104140000D01*
X77586408Y-104140000D01*
X77316510Y-104193686D01*
X77062273Y-104298995D01*
X76833465Y-104451880D01*
X76638880Y-104646465D01*
X76485995Y-104875273D01*
X76454000Y-104952515D01*
X76422005Y-104875273D01*
X76269120Y-104646465D01*
X76074535Y-104451880D01*
X75845727Y-104298995D01*
X75591490Y-104193686D01*
X75321592Y-104140000D01*
X75046408Y-104140000D01*
X74776510Y-104193686D01*
X74522273Y-104298995D01*
X74293465Y-104451880D01*
X74098880Y-104646465D01*
X73945995Y-104875273D01*
X73914000Y-104952515D01*
X73882005Y-104875273D01*
X73729120Y-104646465D01*
X73534535Y-104451880D01*
X73305727Y-104298995D01*
X73051490Y-104193686D01*
X72781592Y-104140000D01*
X72506408Y-104140000D01*
X72236510Y-104193686D01*
X71982273Y-104298995D01*
X71753465Y-104451880D01*
X71558880Y-104646465D01*
X71405995Y-104875273D01*
X71374000Y-104952515D01*
X71342005Y-104875273D01*
X71189120Y-104646465D01*
X70994535Y-104451880D01*
X70765727Y-104298995D01*
X70511490Y-104193686D01*
X70241592Y-104140000D01*
X69966408Y-104140000D01*
X69696510Y-104193686D01*
X69442273Y-104298995D01*
X69213465Y-104451880D01*
X69018880Y-104646465D01*
X68865995Y-104875273D01*
X68834000Y-104952515D01*
X68802005Y-104875273D01*
X68649120Y-104646465D01*
X68454535Y-104451880D01*
X68225727Y-104298995D01*
X67971490Y-104193686D01*
X67701592Y-104140000D01*
X67426408Y-104140000D01*
X67156510Y-104193686D01*
X66902273Y-104298995D01*
X66673465Y-104451880D01*
X66478880Y-104646465D01*
X66325995Y-104875273D01*
X66294000Y-104952515D01*
X66262005Y-104875273D01*
X66109120Y-104646465D01*
X65914535Y-104451880D01*
X65685727Y-104298995D01*
X65431490Y-104193686D01*
X65161592Y-104140000D01*
X64886408Y-104140000D01*
X64616510Y-104193686D01*
X64362273Y-104298995D01*
X64133465Y-104451880D01*
X63938880Y-104646465D01*
X63785995Y-104875273D01*
X63754000Y-104952515D01*
X63722005Y-104875273D01*
X63569120Y-104646465D01*
X63374535Y-104451880D01*
X63145727Y-104298995D01*
X62891490Y-104193686D01*
X62621592Y-104140000D01*
X62346408Y-104140000D01*
X62076510Y-104193686D01*
X61822273Y-104298995D01*
X61593465Y-104451880D01*
X61398880Y-104646465D01*
X61245995Y-104875273D01*
X61214000Y-104952515D01*
X61182005Y-104875273D01*
X61029120Y-104646465D01*
X60834535Y-104451880D01*
X60605727Y-104298995D01*
X60351490Y-104193686D01*
X60081592Y-104140000D01*
X59806408Y-104140000D01*
X59536510Y-104193686D01*
X59282273Y-104298995D01*
X59053465Y-104451880D01*
X58858880Y-104646465D01*
X58800080Y-104734465D01*
X58791812Y-104650518D01*
X58755502Y-104530820D01*
X58696537Y-104420506D01*
X58617185Y-104323815D01*
X58520494Y-104244463D01*
X58410180Y-104185498D01*
X58290482Y-104149188D01*
X58166000Y-104136928D01*
X56642000Y-104136928D01*
X56517518Y-104149188D01*
X56397820Y-104185498D01*
X56287506Y-104244463D01*
X56190815Y-104323815D01*
X56111463Y-104420506D01*
X56052498Y-104530820D01*
X56016188Y-104650518D01*
X56003928Y-104775000D01*
X47606252Y-104775000D01*
X47529213Y-65639740D01*
X52617000Y-65639740D01*
X52617000Y-65932260D01*
X52674068Y-66219158D01*
X52786010Y-66489411D01*
X52948525Y-66732632D01*
X53155368Y-66939475D01*
X53329760Y-67056000D01*
X53155368Y-67172525D01*
X52948525Y-67379368D01*
X52786010Y-67622589D01*
X52674068Y-67892842D01*
X52617000Y-68179740D01*
X52617000Y-68472260D01*
X52674068Y-68759158D01*
X52786010Y-69029411D01*
X52948525Y-69272632D01*
X53155368Y-69479475D01*
X53398589Y-69641990D01*
X53668842Y-69753932D01*
X53955740Y-69811000D01*
X54248260Y-69811000D01*
X54535158Y-69753932D01*
X54805411Y-69641990D01*
X55048632Y-69479475D01*
X55255475Y-69272632D01*
X55372000Y-69098240D01*
X55488525Y-69272632D01*
X55695368Y-69479475D01*
X55938589Y-69641990D01*
X56208842Y-69753932D01*
X56495740Y-69811000D01*
X56788260Y-69811000D01*
X57075158Y-69753932D01*
X57345411Y-69641990D01*
X57588632Y-69479475D01*
X57795475Y-69272632D01*
X57912000Y-69098240D01*
X58028525Y-69272632D01*
X58235368Y-69479475D01*
X58478589Y-69641990D01*
X58748842Y-69753932D01*
X59035740Y-69811000D01*
X59238644Y-69811000D01*
X59857744Y-70430100D01*
X59889368Y-70468634D01*
X60043161Y-70594848D01*
X60207392Y-70682631D01*
X60218621Y-70688633D01*
X60409006Y-70746386D01*
X60607001Y-70765887D01*
X60656609Y-70761001D01*
X80523297Y-70761001D01*
X80480000Y-70978665D01*
X80480000Y-71261335D01*
X80535147Y-71538574D01*
X80643320Y-71799727D01*
X80800363Y-72034759D01*
X81000241Y-72234637D01*
X81235273Y-72391680D01*
X81496426Y-72499853D01*
X81773665Y-72555000D01*
X82056335Y-72555000D01*
X82333574Y-72499853D01*
X82594727Y-72391680D01*
X82829759Y-72234637D01*
X83029637Y-72034759D01*
X83186680Y-71799727D01*
X83190984Y-71789337D01*
X89414000Y-78012354D01*
X89414001Y-79171344D01*
X89338880Y-79246465D01*
X89185995Y-79475273D01*
X89154000Y-79552515D01*
X89122005Y-79475273D01*
X88969120Y-79246465D01*
X88774535Y-79051880D01*
X88545727Y-78898995D01*
X88291490Y-78793686D01*
X88021592Y-78740000D01*
X87746408Y-78740000D01*
X87476510Y-78793686D01*
X87222273Y-78898995D01*
X86993465Y-79051880D01*
X86798880Y-79246465D01*
X86645995Y-79475273D01*
X86614000Y-79552515D01*
X86582005Y-79475273D01*
X86429120Y-79246465D01*
X86234535Y-79051880D01*
X86005727Y-78898995D01*
X85751490Y-78793686D01*
X85481592Y-78740000D01*
X85206408Y-78740000D01*
X84936510Y-78793686D01*
X84682273Y-78898995D01*
X84453465Y-79051880D01*
X84258880Y-79246465D01*
X84105995Y-79475273D01*
X84074000Y-79552515D01*
X84042005Y-79475273D01*
X83889120Y-79246465D01*
X83694535Y-79051880D01*
X83465727Y-78898995D01*
X83211490Y-78793686D01*
X82941592Y-78740000D01*
X82666408Y-78740000D01*
X82396510Y-78793686D01*
X82142273Y-78898995D01*
X81913465Y-79051880D01*
X81718880Y-79246465D01*
X81565995Y-79475273D01*
X81534000Y-79552515D01*
X81502005Y-79475273D01*
X81349120Y-79246465D01*
X81154535Y-79051880D01*
X80925727Y-78898995D01*
X80671490Y-78793686D01*
X80401592Y-78740000D01*
X80126408Y-78740000D01*
X79856510Y-78793686D01*
X79602273Y-78898995D01*
X79373465Y-79051880D01*
X79178880Y-79246465D01*
X79025995Y-79475273D01*
X78994000Y-79552515D01*
X78962005Y-79475273D01*
X78809120Y-79246465D01*
X78614535Y-79051880D01*
X78385727Y-78898995D01*
X78131490Y-78793686D01*
X77861592Y-78740000D01*
X77586408Y-78740000D01*
X77316510Y-78793686D01*
X77062273Y-78898995D01*
X76833465Y-79051880D01*
X76638880Y-79246465D01*
X76485995Y-79475273D01*
X76454000Y-79552515D01*
X76422005Y-79475273D01*
X76269120Y-79246465D01*
X76074535Y-79051880D01*
X75845727Y-78898995D01*
X75591490Y-78793686D01*
X75321592Y-78740000D01*
X75046408Y-78740000D01*
X74776510Y-78793686D01*
X74522273Y-78898995D01*
X74293465Y-79051880D01*
X74098880Y-79246465D01*
X73945995Y-79475273D01*
X73914000Y-79552515D01*
X73882005Y-79475273D01*
X73729120Y-79246465D01*
X73534535Y-79051880D01*
X73305727Y-78898995D01*
X73051490Y-78793686D01*
X72781592Y-78740000D01*
X72506408Y-78740000D01*
X72236510Y-78793686D01*
X71982273Y-78898995D01*
X71753465Y-79051880D01*
X71558880Y-79246465D01*
X71405995Y-79475273D01*
X71374000Y-79552515D01*
X71342005Y-79475273D01*
X71189120Y-79246465D01*
X70994535Y-79051880D01*
X70765727Y-78898995D01*
X70511490Y-78793686D01*
X70241592Y-78740000D01*
X69966408Y-78740000D01*
X69696510Y-78793686D01*
X69442273Y-78898995D01*
X69213465Y-79051880D01*
X69018880Y-79246465D01*
X68865995Y-79475273D01*
X68834000Y-79552515D01*
X68802005Y-79475273D01*
X68649120Y-79246465D01*
X68454535Y-79051880D01*
X68225727Y-78898995D01*
X67971490Y-78793686D01*
X67701592Y-78740000D01*
X67426408Y-78740000D01*
X67156510Y-78793686D01*
X66902273Y-78898995D01*
X66673465Y-79051880D01*
X66478880Y-79246465D01*
X66325995Y-79475273D01*
X66294000Y-79552515D01*
X66262005Y-79475273D01*
X66109120Y-79246465D01*
X65914535Y-79051880D01*
X65685727Y-78898995D01*
X65431490Y-78793686D01*
X65161592Y-78740000D01*
X64886408Y-78740000D01*
X64616510Y-78793686D01*
X64362273Y-78898995D01*
X64133465Y-79051880D01*
X63938880Y-79246465D01*
X63785995Y-79475273D01*
X63754000Y-79552515D01*
X63722005Y-79475273D01*
X63569120Y-79246465D01*
X63374535Y-79051880D01*
X63145727Y-78898995D01*
X62891490Y-78793686D01*
X62621592Y-78740000D01*
X62346408Y-78740000D01*
X62076510Y-78793686D01*
X61822273Y-78898995D01*
X61593465Y-79051880D01*
X61398880Y-79246465D01*
X61245995Y-79475273D01*
X61214000Y-79552515D01*
X61182005Y-79475273D01*
X61029120Y-79246465D01*
X60834535Y-79051880D01*
X60605727Y-78898995D01*
X60351490Y-78793686D01*
X60081592Y-78740000D01*
X59806408Y-78740000D01*
X59536510Y-78793686D01*
X59282273Y-78898995D01*
X59053465Y-79051880D01*
X58858880Y-79246465D01*
X58705995Y-79475273D01*
X58674000Y-79552515D01*
X58642005Y-79475273D01*
X58489120Y-79246465D01*
X58294535Y-79051880D01*
X58065727Y-78898995D01*
X57811490Y-78793686D01*
X57541592Y-78740000D01*
X57266408Y-78740000D01*
X56996510Y-78793686D01*
X56742273Y-78898995D01*
X56513465Y-79051880D01*
X56318880Y-79246465D01*
X56165995Y-79475273D01*
X56060686Y-79729510D01*
X56007000Y-79999408D01*
X56007000Y-80274592D01*
X56060686Y-80544490D01*
X56165995Y-80798727D01*
X56318880Y-81027535D01*
X56513465Y-81222120D01*
X56742273Y-81375005D01*
X56996510Y-81480314D01*
X57266408Y-81534000D01*
X57541592Y-81534000D01*
X57811490Y-81480314D01*
X58065727Y-81375005D01*
X58294535Y-81222120D01*
X58489120Y-81027535D01*
X58642005Y-80798727D01*
X58674000Y-80721485D01*
X58705995Y-80798727D01*
X58858880Y-81027535D01*
X59053465Y-81222120D01*
X59282273Y-81375005D01*
X59536510Y-81480314D01*
X59806408Y-81534000D01*
X60081592Y-81534000D01*
X60351490Y-81480314D01*
X60605727Y-81375005D01*
X60834535Y-81222120D01*
X61029120Y-81027535D01*
X61182005Y-80798727D01*
X61214000Y-80721485D01*
X61245995Y-80798727D01*
X61398880Y-81027535D01*
X61593465Y-81222120D01*
X61822273Y-81375005D01*
X62076510Y-81480314D01*
X62346408Y-81534000D01*
X62621592Y-81534000D01*
X62891490Y-81480314D01*
X63145727Y-81375005D01*
X63374535Y-81222120D01*
X63569120Y-81027535D01*
X63722005Y-80798727D01*
X63754000Y-80721485D01*
X63785995Y-80798727D01*
X63938880Y-81027535D01*
X64133465Y-81222120D01*
X64362273Y-81375005D01*
X64616510Y-81480314D01*
X64886408Y-81534000D01*
X65161592Y-81534000D01*
X65431490Y-81480314D01*
X65685727Y-81375005D01*
X65914535Y-81222120D01*
X66109120Y-81027535D01*
X66262005Y-80798727D01*
X66294000Y-80721485D01*
X66325995Y-80798727D01*
X66478880Y-81027535D01*
X66673465Y-81222120D01*
X66902273Y-81375005D01*
X67156510Y-81480314D01*
X67426408Y-81534000D01*
X67701592Y-81534000D01*
X67971490Y-81480314D01*
X68225727Y-81375005D01*
X68454535Y-81222120D01*
X68649120Y-81027535D01*
X68802005Y-80798727D01*
X68834000Y-80721485D01*
X68865995Y-80798727D01*
X69018880Y-81027535D01*
X69213465Y-81222120D01*
X69442273Y-81375005D01*
X69696510Y-81480314D01*
X69966408Y-81534000D01*
X70241592Y-81534000D01*
X70511490Y-81480314D01*
X70765727Y-81375005D01*
X70994535Y-81222120D01*
X71189120Y-81027535D01*
X71342005Y-80798727D01*
X71374000Y-80721485D01*
X71405995Y-80798727D01*
X71558880Y-81027535D01*
X71753465Y-81222120D01*
X71982273Y-81375005D01*
X72236510Y-81480314D01*
X72506408Y-81534000D01*
X72781592Y-81534000D01*
X73051490Y-81480314D01*
X73305727Y-81375005D01*
X73534535Y-81222120D01*
X73729120Y-81027535D01*
X73882005Y-80798727D01*
X73914000Y-80721485D01*
X73945995Y-80798727D01*
X74098880Y-81027535D01*
X74293465Y-81222120D01*
X74522273Y-81375005D01*
X74776510Y-81480314D01*
X75046408Y-81534000D01*
X75321592Y-81534000D01*
X75591490Y-81480314D01*
X75845727Y-81375005D01*
X76074535Y-81222120D01*
X76269120Y-81027535D01*
X76422005Y-80798727D01*
X76454000Y-80721485D01*
X76485995Y-80798727D01*
X76638880Y-81027535D01*
X76833465Y-81222120D01*
X77062273Y-81375005D01*
X77316510Y-81480314D01*
X77586408Y-81534000D01*
X77861592Y-81534000D01*
X78131490Y-81480314D01*
X78385727Y-81375005D01*
X78614535Y-81222120D01*
X78809120Y-81027535D01*
X78962005Y-80798727D01*
X78994000Y-80721485D01*
X79025995Y-80798727D01*
X79178880Y-81027535D01*
X79373465Y-81222120D01*
X79602273Y-81375005D01*
X79856510Y-81480314D01*
X80126408Y-81534000D01*
X80401592Y-81534000D01*
X80671490Y-81480314D01*
X80925727Y-81375005D01*
X81154535Y-81222120D01*
X81349120Y-81027535D01*
X81502005Y-80798727D01*
X81534000Y-80721485D01*
X81565995Y-80798727D01*
X81718880Y-81027535D01*
X81913465Y-81222120D01*
X82142273Y-81375005D01*
X82396510Y-81480314D01*
X82666408Y-81534000D01*
X82941592Y-81534000D01*
X83211490Y-81480314D01*
X83465727Y-81375005D01*
X83694535Y-81222120D01*
X83889120Y-81027535D01*
X84042005Y-80798727D01*
X84074000Y-80721485D01*
X84105995Y-80798727D01*
X84258880Y-81027535D01*
X84453465Y-81222120D01*
X84682273Y-81375005D01*
X84936510Y-81480314D01*
X85206408Y-81534000D01*
X85481592Y-81534000D01*
X85751490Y-81480314D01*
X86005727Y-81375005D01*
X86234535Y-81222120D01*
X86429120Y-81027535D01*
X86582005Y-80798727D01*
X86614000Y-80721485D01*
X86645995Y-80798727D01*
X86798880Y-81027535D01*
X86993465Y-81222120D01*
X87222273Y-81375005D01*
X87476510Y-81480314D01*
X87746408Y-81534000D01*
X88021592Y-81534000D01*
X88291490Y-81480314D01*
X88545727Y-81375005D01*
X88774535Y-81222120D01*
X88969120Y-81027535D01*
X89122005Y-80798727D01*
X89154000Y-80721485D01*
X89185995Y-80798727D01*
X89338880Y-81027535D01*
X89414000Y-81102655D01*
X89414001Y-86183382D01*
X89409114Y-86233000D01*
X89428615Y-86430994D01*
X89486368Y-86621379D01*
X89580154Y-86796840D01*
X89706368Y-86950633D01*
X89744901Y-86982256D01*
X105318928Y-102556284D01*
X105318928Y-103466000D01*
X105331188Y-103590482D01*
X105367498Y-103710180D01*
X105426463Y-103820494D01*
X105505815Y-103917185D01*
X105602506Y-103996537D01*
X105712820Y-104055502D01*
X105785380Y-104077513D01*
X105653525Y-104209368D01*
X105491010Y-104452589D01*
X105379068Y-104722842D01*
X105322000Y-105009740D01*
X105322000Y-105302260D01*
X105379068Y-105589158D01*
X105491010Y-105859411D01*
X105653525Y-106102632D01*
X105860368Y-106309475D01*
X106034760Y-106426000D01*
X105860368Y-106542525D01*
X105653525Y-106749368D01*
X105491010Y-106992589D01*
X105379068Y-107262842D01*
X105322000Y-107549740D01*
X105322000Y-107842260D01*
X105379068Y-108129158D01*
X105491010Y-108399411D01*
X105653525Y-108642632D01*
X105860368Y-108849475D01*
X106034760Y-108966000D01*
X105860368Y-109082525D01*
X105653525Y-109289368D01*
X105491010Y-109532589D01*
X105379068Y-109802842D01*
X105322000Y-110089740D01*
X105322000Y-110382260D01*
X105379068Y-110669158D01*
X105491010Y-110939411D01*
X105653525Y-111182632D01*
X105860368Y-111389475D01*
X106103589Y-111551990D01*
X106373842Y-111663932D01*
X106660740Y-111721000D01*
X106953260Y-111721000D01*
X107240158Y-111663932D01*
X107510411Y-111551990D01*
X107753632Y-111389475D01*
X107960475Y-111182632D01*
X108122990Y-110939411D01*
X108234932Y-110669158D01*
X108292000Y-110382260D01*
X108292000Y-110089740D01*
X108234932Y-109802842D01*
X108122990Y-109532589D01*
X107960475Y-109289368D01*
X107753632Y-109082525D01*
X107579240Y-108966000D01*
X107753632Y-108849475D01*
X107897107Y-108706000D01*
X122197909Y-108706000D01*
X122247517Y-108710886D01*
X122297122Y-108706000D01*
X122297125Y-108706000D01*
X122445511Y-108691385D01*
X122635897Y-108633632D01*
X122811357Y-108539847D01*
X122965150Y-108413633D01*
X122996778Y-108375094D01*
X123976014Y-107395858D01*
X123976019Y-107395852D01*
X126731251Y-104640620D01*
X129518104Y-101853768D01*
X129556643Y-101822140D01*
X129588275Y-101783596D01*
X132879355Y-98492516D01*
X151768876Y-98492516D01*
X151818484Y-98497402D01*
X152016478Y-98477901D01*
X152206864Y-98420148D01*
X152382324Y-98326363D01*
X152536117Y-98200149D01*
X152567745Y-98161610D01*
X156622356Y-94107000D01*
X156728592Y-94107000D01*
X156998490Y-94053314D01*
X157252727Y-93948005D01*
X157481535Y-93795120D01*
X157676120Y-93600535D01*
X157829005Y-93371727D01*
X157934314Y-93117490D01*
X157988000Y-92847592D01*
X157988000Y-92572408D01*
X157934314Y-92302510D01*
X157829005Y-92048273D01*
X157676120Y-91819465D01*
X157481535Y-91624880D01*
X157252727Y-91471995D01*
X157181057Y-91442308D01*
X157194023Y-91437636D01*
X157309980Y-91375656D01*
X157376960Y-91135565D01*
X156591000Y-90349605D01*
X155805040Y-91135565D01*
X155872020Y-91375656D01*
X156007760Y-91439485D01*
X155929273Y-91471995D01*
X155700465Y-91624880D01*
X155505880Y-91819465D01*
X155352995Y-92048273D01*
X155247686Y-92302510D01*
X155194000Y-92572408D01*
X155194000Y-92678644D01*
X151400129Y-96472516D01*
X133471000Y-96472516D01*
X133471000Y-93675655D01*
X133546120Y-93600535D01*
X133699005Y-93371727D01*
X133804314Y-93117490D01*
X133858000Y-92847592D01*
X133858000Y-92572408D01*
X133804314Y-92302510D01*
X133699005Y-92048273D01*
X133546120Y-91819465D01*
X133351535Y-91624880D01*
X133122727Y-91471995D01*
X133051057Y-91442308D01*
X133064023Y-91437636D01*
X133179980Y-91375656D01*
X133246960Y-91135565D01*
X132461000Y-90349605D01*
X131675040Y-91135565D01*
X131742020Y-91375656D01*
X131877760Y-91439485D01*
X131799273Y-91471995D01*
X131570465Y-91624880D01*
X131375880Y-91819465D01*
X131222995Y-92048273D01*
X131117686Y-92302510D01*
X131064000Y-92572408D01*
X131064000Y-92847592D01*
X131117686Y-93117490D01*
X131222995Y-93371727D01*
X131375880Y-93600535D01*
X131451000Y-93675655D01*
X131451001Y-97064160D01*
X129849010Y-98666151D01*
X129849010Y-90242017D01*
X131059090Y-90242017D01*
X131100078Y-90514133D01*
X131193364Y-90773023D01*
X131255344Y-90888980D01*
X131495435Y-90955960D01*
X132281395Y-90170000D01*
X132640605Y-90170000D01*
X133426565Y-90955960D01*
X133666656Y-90888980D01*
X133783756Y-90639952D01*
X133850023Y-90372865D01*
X133862910Y-90097983D01*
X133821922Y-89825867D01*
X133728636Y-89566977D01*
X133666656Y-89451020D01*
X133426565Y-89384040D01*
X132640605Y-90170000D01*
X132281395Y-90170000D01*
X131495435Y-89384040D01*
X131255344Y-89451020D01*
X131138244Y-89700048D01*
X131071977Y-89967135D01*
X131059090Y-90242017D01*
X129849010Y-90242017D01*
X129849010Y-81510345D01*
X131088515Y-80270840D01*
X131117686Y-80417490D01*
X131222995Y-80671727D01*
X131375880Y-80900535D01*
X131570465Y-81095120D01*
X131799273Y-81248005D01*
X131876515Y-81280000D01*
X131799273Y-81311995D01*
X131570465Y-81464880D01*
X131375880Y-81659465D01*
X131222995Y-81888273D01*
X131117686Y-82142510D01*
X131064000Y-82412408D01*
X131064000Y-82687592D01*
X131117686Y-82957490D01*
X131222995Y-83211727D01*
X131375880Y-83440535D01*
X131570465Y-83635120D01*
X131799273Y-83788005D01*
X131876515Y-83820000D01*
X131799273Y-83851995D01*
X131570465Y-84004880D01*
X131375880Y-84199465D01*
X131222995Y-84428273D01*
X131117686Y-84682510D01*
X131064000Y-84952408D01*
X131064000Y-85227592D01*
X131117686Y-85497490D01*
X131222995Y-85751727D01*
X131375880Y-85980535D01*
X131570465Y-86175120D01*
X131799273Y-86328005D01*
X131876515Y-86360000D01*
X131799273Y-86391995D01*
X131570465Y-86544880D01*
X131375880Y-86739465D01*
X131222995Y-86968273D01*
X131117686Y-87222510D01*
X131064000Y-87492408D01*
X131064000Y-87767592D01*
X131117686Y-88037490D01*
X131222995Y-88291727D01*
X131375880Y-88520535D01*
X131570465Y-88715120D01*
X131799273Y-88868005D01*
X131870943Y-88897692D01*
X131857977Y-88902364D01*
X131742020Y-88964344D01*
X131675040Y-89204435D01*
X132461000Y-89990395D01*
X133246960Y-89204435D01*
X133179980Y-88964344D01*
X133044240Y-88900515D01*
X133122727Y-88868005D01*
X133351535Y-88715120D01*
X133546120Y-88520535D01*
X133699005Y-88291727D01*
X133804314Y-88037490D01*
X133858000Y-87767592D01*
X133858000Y-87492408D01*
X133804314Y-87222510D01*
X133699005Y-86968273D01*
X133546120Y-86739465D01*
X133351535Y-86544880D01*
X133122727Y-86391995D01*
X133045485Y-86360000D01*
X133122727Y-86328005D01*
X133351535Y-86175120D01*
X133546120Y-85980535D01*
X133699005Y-85751727D01*
X133804314Y-85497490D01*
X133858000Y-85227592D01*
X133858000Y-84952408D01*
X133804314Y-84682510D01*
X133699005Y-84428273D01*
X133546120Y-84199465D01*
X133351535Y-84004880D01*
X133122727Y-83851995D01*
X133045485Y-83820000D01*
X133122727Y-83788005D01*
X133351535Y-83635120D01*
X133546120Y-83440535D01*
X133699005Y-83211727D01*
X133804314Y-82957490D01*
X133858000Y-82687592D01*
X133858000Y-82412408D01*
X133804314Y-82142510D01*
X133699005Y-81888273D01*
X133546120Y-81659465D01*
X133351535Y-81464880D01*
X133122727Y-81311995D01*
X133045485Y-81280000D01*
X133122727Y-81248005D01*
X133351535Y-81095120D01*
X133546120Y-80900535D01*
X133699005Y-80671727D01*
X133804314Y-80417490D01*
X133858000Y-80147592D01*
X133858000Y-79872408D01*
X133804314Y-79602510D01*
X133699005Y-79348273D01*
X133546120Y-79119465D01*
X133351535Y-78924880D01*
X133122727Y-78771995D01*
X133045485Y-78740000D01*
X133122727Y-78708005D01*
X133351535Y-78555120D01*
X133546120Y-78360535D01*
X133699005Y-78131727D01*
X133804314Y-77877490D01*
X133858000Y-77607592D01*
X133858000Y-77501355D01*
X136756356Y-74602999D01*
X142531676Y-74602999D01*
X142494000Y-74792408D01*
X142494000Y-75067592D01*
X142547686Y-75337490D01*
X142652995Y-75591727D01*
X142805880Y-75820535D01*
X143000465Y-76015120D01*
X143229273Y-76168005D01*
X143306515Y-76200000D01*
X143229273Y-76231995D01*
X143000465Y-76384880D01*
X142805880Y-76579465D01*
X142652995Y-76808273D01*
X142547686Y-77062510D01*
X142494000Y-77332408D01*
X142494000Y-77607592D01*
X142547686Y-77877490D01*
X142652995Y-78131727D01*
X142805880Y-78360535D01*
X143000465Y-78555120D01*
X143229273Y-78708005D01*
X143306515Y-78740000D01*
X143229273Y-78771995D01*
X143000465Y-78924880D01*
X142805880Y-79119465D01*
X142652995Y-79348273D01*
X142547686Y-79602510D01*
X142494000Y-79872408D01*
X142494000Y-80147592D01*
X142547686Y-80417490D01*
X142652995Y-80671727D01*
X142805880Y-80900535D01*
X143000465Y-81095120D01*
X143229273Y-81248005D01*
X143306515Y-81280000D01*
X143229273Y-81311995D01*
X143000465Y-81464880D01*
X142805880Y-81659465D01*
X142652995Y-81888273D01*
X142547686Y-82142510D01*
X142494000Y-82412408D01*
X142494000Y-82687592D01*
X142547686Y-82957490D01*
X142652995Y-83211727D01*
X142805880Y-83440535D01*
X143000465Y-83635120D01*
X143229273Y-83788005D01*
X143306515Y-83820000D01*
X143229273Y-83851995D01*
X143000465Y-84004880D01*
X142805880Y-84199465D01*
X142652995Y-84428273D01*
X142547686Y-84682510D01*
X142494000Y-84952408D01*
X142494000Y-85227592D01*
X142547686Y-85497490D01*
X142652995Y-85751727D01*
X142805880Y-85980535D01*
X143000465Y-86175120D01*
X143229273Y-86328005D01*
X143306515Y-86360000D01*
X143229273Y-86391995D01*
X143000465Y-86544880D01*
X142805880Y-86739465D01*
X142652995Y-86968273D01*
X142547686Y-87222510D01*
X142494000Y-87492408D01*
X142494000Y-87767592D01*
X142547686Y-88037490D01*
X142652995Y-88291727D01*
X142805880Y-88520535D01*
X143000465Y-88715120D01*
X143229273Y-88868005D01*
X143306515Y-88900000D01*
X143229273Y-88931995D01*
X143000465Y-89084880D01*
X142805880Y-89279465D01*
X142652995Y-89508273D01*
X142547686Y-89762510D01*
X142494000Y-90032408D01*
X142494000Y-90307592D01*
X142547686Y-90577490D01*
X142652995Y-90831727D01*
X142805880Y-91060535D01*
X143000465Y-91255120D01*
X143088465Y-91313920D01*
X143004518Y-91322188D01*
X142884820Y-91358498D01*
X142774506Y-91417463D01*
X142677815Y-91496815D01*
X142598463Y-91593506D01*
X142539498Y-91703820D01*
X142503188Y-91823518D01*
X142490928Y-91948000D01*
X142490928Y-93472000D01*
X142503188Y-93596482D01*
X142539498Y-93716180D01*
X142598463Y-93826494D01*
X142677815Y-93923185D01*
X142774506Y-94002537D01*
X142884820Y-94061502D01*
X143004518Y-94097812D01*
X143129000Y-94110072D01*
X144653000Y-94110072D01*
X144777482Y-94097812D01*
X144897180Y-94061502D01*
X145007494Y-94002537D01*
X145104185Y-93923185D01*
X145183537Y-93826494D01*
X145242502Y-93716180D01*
X145278812Y-93596482D01*
X145291072Y-93472000D01*
X145291072Y-91948000D01*
X145278812Y-91823518D01*
X145242502Y-91703820D01*
X145183537Y-91593506D01*
X145104185Y-91496815D01*
X145007494Y-91417463D01*
X144897180Y-91358498D01*
X144777482Y-91322188D01*
X144693535Y-91313920D01*
X144781535Y-91255120D01*
X144976120Y-91060535D01*
X145129005Y-90831727D01*
X145234314Y-90577490D01*
X145288000Y-90307592D01*
X145288000Y-90242017D01*
X155189090Y-90242017D01*
X155230078Y-90514133D01*
X155323364Y-90773023D01*
X155385344Y-90888980D01*
X155625435Y-90955960D01*
X156411395Y-90170000D01*
X156770605Y-90170000D01*
X157556565Y-90955960D01*
X157796656Y-90888980D01*
X157913756Y-90639952D01*
X157980023Y-90372865D01*
X157992910Y-90097983D01*
X157951922Y-89825867D01*
X157858636Y-89566977D01*
X157796656Y-89451020D01*
X157556565Y-89384040D01*
X156770605Y-90170000D01*
X156411395Y-90170000D01*
X155625435Y-89384040D01*
X155385344Y-89451020D01*
X155268244Y-89700048D01*
X155201977Y-89967135D01*
X155189090Y-90242017D01*
X145288000Y-90242017D01*
X145288000Y-90032408D01*
X145234314Y-89762510D01*
X145129005Y-89508273D01*
X144976120Y-89279465D01*
X144781535Y-89084880D01*
X144552727Y-88931995D01*
X144475485Y-88900000D01*
X144552727Y-88868005D01*
X144781535Y-88715120D01*
X144976120Y-88520535D01*
X145129005Y-88291727D01*
X145234314Y-88037490D01*
X145288000Y-87767592D01*
X145288000Y-87492408D01*
X145234314Y-87222510D01*
X145129005Y-86968273D01*
X144976120Y-86739465D01*
X144781535Y-86544880D01*
X144552727Y-86391995D01*
X144475485Y-86360000D01*
X144552727Y-86328005D01*
X144781535Y-86175120D01*
X144976120Y-85980535D01*
X145129005Y-85751727D01*
X145234314Y-85497490D01*
X145288000Y-85227592D01*
X145288000Y-84952408D01*
X145234314Y-84682510D01*
X145129005Y-84428273D01*
X144976120Y-84199465D01*
X144781535Y-84004880D01*
X144552727Y-83851995D01*
X144475485Y-83820000D01*
X144552727Y-83788005D01*
X144781535Y-83635120D01*
X144976120Y-83440535D01*
X145129005Y-83211727D01*
X145234314Y-82957490D01*
X145288000Y-82687592D01*
X145288000Y-82412408D01*
X145234314Y-82142510D01*
X145129005Y-81888273D01*
X144976120Y-81659465D01*
X144781535Y-81464880D01*
X144552727Y-81311995D01*
X144475485Y-81280000D01*
X144552727Y-81248005D01*
X144781535Y-81095120D01*
X144976120Y-80900535D01*
X145129005Y-80671727D01*
X145234314Y-80417490D01*
X145288000Y-80147592D01*
X145288000Y-79872408D01*
X145234314Y-79602510D01*
X145129005Y-79348273D01*
X144976120Y-79119465D01*
X144781535Y-78924880D01*
X144552727Y-78771995D01*
X144475485Y-78740000D01*
X144552727Y-78708005D01*
X144781535Y-78555120D01*
X144976120Y-78360535D01*
X145129005Y-78131727D01*
X145234314Y-77877490D01*
X145288000Y-77607592D01*
X145288000Y-77332408D01*
X145234314Y-77062510D01*
X145129005Y-76808273D01*
X144976120Y-76579465D01*
X144781535Y-76384880D01*
X144552727Y-76231995D01*
X144475485Y-76200000D01*
X144552727Y-76168005D01*
X144781535Y-76015120D01*
X144976120Y-75820535D01*
X145129005Y-75591727D01*
X145161000Y-75514485D01*
X145192995Y-75591727D01*
X145345880Y-75820535D01*
X145540465Y-76015120D01*
X145769273Y-76168005D01*
X146023510Y-76273314D01*
X146293408Y-76327000D01*
X146327155Y-76327000D01*
X146304000Y-76443408D01*
X146304000Y-76718592D01*
X146357686Y-76988490D01*
X146462995Y-77242727D01*
X146615880Y-77471535D01*
X146810465Y-77666120D01*
X147039273Y-77819005D01*
X147293510Y-77924314D01*
X147563408Y-77978000D01*
X147838592Y-77978000D01*
X148108490Y-77924314D01*
X148362727Y-77819005D01*
X148591535Y-77666120D01*
X148786120Y-77471535D01*
X148939005Y-77242727D01*
X149044314Y-76988490D01*
X149098000Y-76718592D01*
X149098000Y-76443408D01*
X149074845Y-76327000D01*
X149108592Y-76327000D01*
X149378490Y-76273314D01*
X149632727Y-76168005D01*
X149861535Y-76015120D01*
X150056120Y-75820535D01*
X150209005Y-75591727D01*
X150314314Y-75337490D01*
X150368000Y-75067592D01*
X150368000Y-74792408D01*
X150330324Y-74602999D01*
X152295644Y-74602999D01*
X155194000Y-77501355D01*
X155194000Y-77607592D01*
X155247686Y-77877490D01*
X155352995Y-78131727D01*
X155505880Y-78360535D01*
X155700465Y-78555120D01*
X155929273Y-78708005D01*
X156006515Y-78740000D01*
X155929273Y-78771995D01*
X155700465Y-78924880D01*
X155505880Y-79119465D01*
X155352995Y-79348273D01*
X155247686Y-79602510D01*
X155194000Y-79872408D01*
X155194000Y-80147592D01*
X155247686Y-80417490D01*
X155352995Y-80671727D01*
X155505880Y-80900535D01*
X155700465Y-81095120D01*
X155929273Y-81248005D01*
X156006515Y-81280000D01*
X155929273Y-81311995D01*
X155700465Y-81464880D01*
X155505880Y-81659465D01*
X155352995Y-81888273D01*
X155247686Y-82142510D01*
X155194000Y-82412408D01*
X155194000Y-82687592D01*
X155247686Y-82957490D01*
X155352995Y-83211727D01*
X155505880Y-83440535D01*
X155700465Y-83635120D01*
X155929273Y-83788005D01*
X156006515Y-83820000D01*
X155929273Y-83851995D01*
X155700465Y-84004880D01*
X155505880Y-84199465D01*
X155352995Y-84428273D01*
X155247686Y-84682510D01*
X155194000Y-84952408D01*
X155194000Y-85227592D01*
X155247686Y-85497490D01*
X155352995Y-85751727D01*
X155505880Y-85980535D01*
X155700465Y-86175120D01*
X155929273Y-86328005D01*
X156006515Y-86360000D01*
X155929273Y-86391995D01*
X155700465Y-86544880D01*
X155505880Y-86739465D01*
X155352995Y-86968273D01*
X155247686Y-87222510D01*
X155194000Y-87492408D01*
X155194000Y-87767592D01*
X155247686Y-88037490D01*
X155352995Y-88291727D01*
X155505880Y-88520535D01*
X155700465Y-88715120D01*
X155929273Y-88868005D01*
X156000943Y-88897692D01*
X155987977Y-88902364D01*
X155872020Y-88964344D01*
X155805040Y-89204435D01*
X156591000Y-89990395D01*
X157376960Y-89204435D01*
X157309980Y-88964344D01*
X157174240Y-88900515D01*
X157252727Y-88868005D01*
X157481535Y-88715120D01*
X157676120Y-88520535D01*
X157829005Y-88291727D01*
X157934314Y-88037490D01*
X157988000Y-87767592D01*
X157988000Y-87492408D01*
X157934314Y-87222510D01*
X157829005Y-86968273D01*
X157676120Y-86739465D01*
X157481535Y-86544880D01*
X157252727Y-86391995D01*
X157175485Y-86360000D01*
X157252727Y-86328005D01*
X157481535Y-86175120D01*
X157676120Y-85980535D01*
X157829005Y-85751727D01*
X157934314Y-85497490D01*
X157988000Y-85227592D01*
X157988000Y-84952408D01*
X157934314Y-84682510D01*
X157829005Y-84428273D01*
X157676120Y-84199465D01*
X157481535Y-84004880D01*
X157252727Y-83851995D01*
X157175485Y-83820000D01*
X157252727Y-83788005D01*
X157481535Y-83635120D01*
X157676120Y-83440535D01*
X157829005Y-83211727D01*
X157934314Y-82957490D01*
X157988000Y-82687592D01*
X157988000Y-82412408D01*
X157934314Y-82142510D01*
X157829005Y-81888273D01*
X157676120Y-81659465D01*
X157481535Y-81464880D01*
X157252727Y-81311995D01*
X157175485Y-81280000D01*
X157252727Y-81248005D01*
X157481535Y-81095120D01*
X157676120Y-80900535D01*
X157829005Y-80671727D01*
X157934314Y-80417490D01*
X157988000Y-80147592D01*
X157988000Y-79872408D01*
X157934314Y-79602510D01*
X157829005Y-79348273D01*
X157676120Y-79119465D01*
X157481535Y-78924880D01*
X157252727Y-78771995D01*
X157175485Y-78740000D01*
X157252727Y-78708005D01*
X157481535Y-78555120D01*
X157676120Y-78360535D01*
X157829005Y-78131727D01*
X157934314Y-77877490D01*
X157988000Y-77607592D01*
X157988000Y-77332408D01*
X157934314Y-77062510D01*
X157829005Y-76808273D01*
X157676120Y-76579465D01*
X157481535Y-76384880D01*
X157252727Y-76231995D01*
X157175485Y-76200000D01*
X157252727Y-76168005D01*
X157481535Y-76015120D01*
X157676120Y-75820535D01*
X157829005Y-75591727D01*
X157934314Y-75337490D01*
X157988000Y-75067592D01*
X157988000Y-74792408D01*
X157934314Y-74522510D01*
X157829005Y-74268273D01*
X157676120Y-74039465D01*
X157601000Y-73964345D01*
X157601000Y-73074608D01*
X157605886Y-73025000D01*
X157586385Y-72827005D01*
X157528632Y-72636620D01*
X157485005Y-72555000D01*
X157434847Y-72461160D01*
X157308633Y-72307367D01*
X157270099Y-72275743D01*
X156578260Y-71583905D01*
X156546633Y-71545367D01*
X156392840Y-71419153D01*
X156217380Y-71325368D01*
X156026994Y-71267615D01*
X155878608Y-71253000D01*
X155829000Y-71248114D01*
X155779392Y-71253000D01*
X135177608Y-71253000D01*
X135128000Y-71248114D01*
X134930005Y-71267615D01*
X134739620Y-71325368D01*
X134564160Y-71419153D01*
X134410367Y-71545367D01*
X134378744Y-71583900D01*
X132429645Y-73533000D01*
X132323408Y-73533000D01*
X132053510Y-73586686D01*
X131799273Y-73691995D01*
X131570465Y-73844880D01*
X131375880Y-74039465D01*
X131222995Y-74268273D01*
X131117686Y-74522510D01*
X131064000Y-74792408D01*
X131064000Y-74898645D01*
X127590906Y-78371739D01*
X127590900Y-78371744D01*
X125939901Y-80022744D01*
X125901368Y-80054367D01*
X125869745Y-80092900D01*
X125869744Y-80092901D01*
X125775154Y-80208160D01*
X125681368Y-80383621D01*
X125623615Y-80574006D01*
X125604114Y-80772000D01*
X125609001Y-80821618D01*
X125609000Y-100165645D01*
X121755645Y-104019000D01*
X119912568Y-104019000D01*
X119986870Y-103988223D01*
X120606797Y-103574001D01*
X121134001Y-103046797D01*
X121548223Y-102426870D01*
X121833545Y-101738044D01*
X121979000Y-101006790D01*
X121979000Y-100261210D01*
X121833545Y-99529956D01*
X121548223Y-98841130D01*
X121134001Y-98221203D01*
X120606797Y-97693999D01*
X119986870Y-97279777D01*
X119298044Y-96994455D01*
X118566790Y-96849000D01*
X117821210Y-96849000D01*
X117089956Y-96994455D01*
X116401130Y-97279777D01*
X115781203Y-97693999D01*
X115253999Y-98221203D01*
X114839777Y-98841130D01*
X114554455Y-99529956D01*
X114409000Y-100261210D01*
X114409000Y-101006790D01*
X114554455Y-101738044D01*
X114839777Y-102426870D01*
X115253999Y-103046797D01*
X115781203Y-103574001D01*
X116401130Y-103988223D01*
X116475432Y-104019000D01*
X107969469Y-104019000D01*
X108011494Y-103996537D01*
X108108185Y-103917185D01*
X108187537Y-103820494D01*
X108246502Y-103710180D01*
X108282812Y-103590482D01*
X108295072Y-103466000D01*
X108295072Y-101766000D01*
X108282812Y-101641518D01*
X108246502Y-101521820D01*
X108187537Y-101411506D01*
X108108185Y-101314815D01*
X108011494Y-101235463D01*
X107901180Y-101176498D01*
X107781482Y-101140188D01*
X107657000Y-101127928D01*
X106747284Y-101127928D01*
X91434000Y-85814645D01*
X91434000Y-81102655D01*
X91434090Y-81102565D01*
X92178040Y-81102565D01*
X92245020Y-81342656D01*
X92494048Y-81459756D01*
X92761135Y-81526023D01*
X93036017Y-81538910D01*
X93308133Y-81497922D01*
X93567023Y-81404636D01*
X93682980Y-81342656D01*
X93749960Y-81102565D01*
X92964000Y-80316605D01*
X92178040Y-81102565D01*
X91434090Y-81102565D01*
X91509120Y-81027535D01*
X91662005Y-80798727D01*
X91691692Y-80727057D01*
X91696364Y-80740023D01*
X91758344Y-80855980D01*
X91998435Y-80922960D01*
X92784395Y-80137000D01*
X93143605Y-80137000D01*
X93929565Y-80922960D01*
X94169656Y-80855980D01*
X94286756Y-80606952D01*
X94353023Y-80339865D01*
X94365910Y-80064983D01*
X94324922Y-79792867D01*
X94231636Y-79533977D01*
X94169656Y-79418020D01*
X93929565Y-79351040D01*
X93143605Y-80137000D01*
X92784395Y-80137000D01*
X91998435Y-79351040D01*
X91758344Y-79418020D01*
X91694515Y-79553760D01*
X91662005Y-79475273D01*
X91509120Y-79246465D01*
X91434090Y-79171435D01*
X92178040Y-79171435D01*
X92964000Y-79957395D01*
X93749960Y-79171435D01*
X93682980Y-78931344D01*
X93433952Y-78814244D01*
X93166865Y-78747977D01*
X92891983Y-78735090D01*
X92619867Y-78776078D01*
X92360977Y-78869364D01*
X92245020Y-78931344D01*
X92178040Y-79171435D01*
X91434090Y-79171435D01*
X91434000Y-79171345D01*
X91434000Y-77643606D01*
X91438886Y-77593998D01*
X91419385Y-77396003D01*
X91361632Y-77205618D01*
X91267846Y-77030157D01*
X91173256Y-76914898D01*
X91141633Y-76876365D01*
X91103100Y-76844742D01*
X85237023Y-70978665D01*
X88100000Y-70978665D01*
X88100000Y-71261335D01*
X88155147Y-71538574D01*
X88263320Y-71799727D01*
X88420363Y-72034759D01*
X88620241Y-72234637D01*
X88855273Y-72391680D01*
X89116426Y-72499853D01*
X89393665Y-72555000D01*
X89676335Y-72555000D01*
X89953574Y-72499853D01*
X90214727Y-72391680D01*
X90449759Y-72234637D01*
X90649637Y-72034759D01*
X90806680Y-71799727D01*
X90914853Y-71538574D01*
X90970000Y-71261335D01*
X90970000Y-70978665D01*
X90914853Y-70701426D01*
X90806680Y-70440273D01*
X90649637Y-70205241D01*
X90449759Y-70005363D01*
X90214727Y-69848320D01*
X89953574Y-69740147D01*
X89676335Y-69685000D01*
X89393665Y-69685000D01*
X89116426Y-69740147D01*
X88855273Y-69848320D01*
X88620241Y-70005363D01*
X88420363Y-70205241D01*
X88263320Y-70440273D01*
X88155147Y-70701426D01*
X88100000Y-70978665D01*
X85237023Y-70978665D01*
X83324262Y-69065905D01*
X83292634Y-69027366D01*
X83138841Y-68901152D01*
X82963381Y-68807367D01*
X82772995Y-68749614D01*
X82624609Y-68734999D01*
X82575001Y-68730113D01*
X82525393Y-68734999D01*
X81304603Y-68734999D01*
X81254998Y-68730113D01*
X81205393Y-68734999D01*
X81205391Y-68734999D01*
X81144453Y-68741001D01*
X63210072Y-68741001D01*
X63210072Y-67476000D01*
X63197812Y-67351518D01*
X63161502Y-67231820D01*
X63102537Y-67121506D01*
X63023185Y-67024815D01*
X62926494Y-66945463D01*
X62816180Y-66886498D01*
X62740374Y-66863502D01*
X62917178Y-66667355D01*
X62996813Y-66533665D01*
X71590000Y-66533665D01*
X71590000Y-66816335D01*
X71645147Y-67093574D01*
X71753320Y-67354727D01*
X71910363Y-67589759D01*
X72110241Y-67789637D01*
X72345273Y-67946680D01*
X72606426Y-68054853D01*
X72883665Y-68110000D01*
X73166335Y-68110000D01*
X73443574Y-68054853D01*
X73704727Y-67946680D01*
X73939759Y-67789637D01*
X74139637Y-67589759D01*
X74296680Y-67354727D01*
X74404853Y-67093574D01*
X74460000Y-66816335D01*
X74460000Y-66533665D01*
X79210000Y-66533665D01*
X79210000Y-66816335D01*
X79265147Y-67093574D01*
X79373320Y-67354727D01*
X79530363Y-67589759D01*
X79730241Y-67789637D01*
X79965273Y-67946680D01*
X80226426Y-68054853D01*
X80503665Y-68110000D01*
X80786335Y-68110000D01*
X81063574Y-68054853D01*
X81324727Y-67946680D01*
X81559759Y-67789637D01*
X81759637Y-67589759D01*
X81863043Y-67435000D01*
X101031199Y-67435000D01*
X118394628Y-84798430D01*
X118364000Y-84952408D01*
X118364000Y-85227592D01*
X118417686Y-85497490D01*
X118522995Y-85751727D01*
X118675880Y-85980535D01*
X118870465Y-86175120D01*
X119099273Y-86328005D01*
X119176515Y-86360000D01*
X119099273Y-86391995D01*
X118870465Y-86544880D01*
X118675880Y-86739465D01*
X118522995Y-86968273D01*
X118417686Y-87222510D01*
X118364000Y-87492408D01*
X118364000Y-87767592D01*
X118417686Y-88037490D01*
X118522995Y-88291727D01*
X118675880Y-88520535D01*
X118870465Y-88715120D01*
X119099273Y-88868005D01*
X119176515Y-88900000D01*
X119099273Y-88931995D01*
X118870465Y-89084880D01*
X118675880Y-89279465D01*
X118522995Y-89508273D01*
X118417686Y-89762510D01*
X118364000Y-90032408D01*
X118364000Y-90307592D01*
X118417686Y-90577490D01*
X118522995Y-90831727D01*
X118675880Y-91060535D01*
X118870465Y-91255120D01*
X118958465Y-91313920D01*
X118874518Y-91322188D01*
X118754820Y-91358498D01*
X118644506Y-91417463D01*
X118547815Y-91496815D01*
X118468463Y-91593506D01*
X118409498Y-91703820D01*
X118373188Y-91823518D01*
X118360928Y-91948000D01*
X118360928Y-93472000D01*
X118373188Y-93596482D01*
X118409498Y-93716180D01*
X118468463Y-93826494D01*
X118547815Y-93923185D01*
X118644506Y-94002537D01*
X118754820Y-94061502D01*
X118874518Y-94097812D01*
X118999000Y-94110072D01*
X120523000Y-94110072D01*
X120647482Y-94097812D01*
X120767180Y-94061502D01*
X120877494Y-94002537D01*
X120974185Y-93923185D01*
X121053537Y-93826494D01*
X121112502Y-93716180D01*
X121148812Y-93596482D01*
X121161072Y-93472000D01*
X121161072Y-91948000D01*
X121148812Y-91823518D01*
X121112502Y-91703820D01*
X121053537Y-91593506D01*
X120974185Y-91496815D01*
X120877494Y-91417463D01*
X120767180Y-91358498D01*
X120647482Y-91322188D01*
X120563535Y-91313920D01*
X120651535Y-91255120D01*
X120846120Y-91060535D01*
X120999005Y-90831727D01*
X121104314Y-90577490D01*
X121158000Y-90307592D01*
X121158000Y-90032408D01*
X121104314Y-89762510D01*
X120999005Y-89508273D01*
X120846120Y-89279465D01*
X120651535Y-89084880D01*
X120422727Y-88931995D01*
X120345485Y-88900000D01*
X120422727Y-88868005D01*
X120651535Y-88715120D01*
X120846120Y-88520535D01*
X120999005Y-88291727D01*
X121104314Y-88037490D01*
X121158000Y-87767592D01*
X121158000Y-87492408D01*
X121104314Y-87222510D01*
X120999005Y-86968273D01*
X120846120Y-86739465D01*
X120651535Y-86544880D01*
X120422727Y-86391995D01*
X120345485Y-86360000D01*
X120422727Y-86328005D01*
X120651535Y-86175120D01*
X120846120Y-85980535D01*
X120999005Y-85751727D01*
X121104314Y-85497490D01*
X121158000Y-85227592D01*
X121158000Y-84952408D01*
X121104314Y-84682510D01*
X120999005Y-84428273D01*
X120846120Y-84199465D01*
X120651535Y-84004880D01*
X120422727Y-83851995D01*
X120345485Y-83820000D01*
X120422727Y-83788005D01*
X120651535Y-83635120D01*
X120846120Y-83440535D01*
X120999005Y-83211727D01*
X121104314Y-82957490D01*
X121158000Y-82687592D01*
X121158000Y-82412408D01*
X121104314Y-82142510D01*
X120999005Y-81888273D01*
X120846120Y-81659465D01*
X120651535Y-81464880D01*
X120422727Y-81311995D01*
X120345485Y-81280000D01*
X120422727Y-81248005D01*
X120651535Y-81095120D01*
X120846120Y-80900535D01*
X120999005Y-80671727D01*
X121104314Y-80417490D01*
X121158000Y-80147592D01*
X121158000Y-79872408D01*
X121104314Y-79602510D01*
X120999005Y-79348273D01*
X120846120Y-79119465D01*
X120651535Y-78924880D01*
X120422727Y-78771995D01*
X120345485Y-78740000D01*
X120422727Y-78708005D01*
X120651535Y-78555120D01*
X120846120Y-78360535D01*
X120999005Y-78131727D01*
X121104314Y-77877490D01*
X121158000Y-77607592D01*
X121158000Y-77332408D01*
X121104314Y-77062510D01*
X120999005Y-76808273D01*
X120846120Y-76579465D01*
X120651535Y-76384880D01*
X120422727Y-76231995D01*
X120345485Y-76200000D01*
X120422727Y-76168005D01*
X120651535Y-76015120D01*
X120846120Y-75820535D01*
X120999005Y-75591727D01*
X121031000Y-75514485D01*
X121062995Y-75591727D01*
X121215880Y-75820535D01*
X121410465Y-76015120D01*
X121639273Y-76168005D01*
X121893510Y-76273314D01*
X122163408Y-76327000D01*
X122197155Y-76327000D01*
X122174000Y-76443408D01*
X122174000Y-76718592D01*
X122227686Y-76988490D01*
X122332995Y-77242727D01*
X122485880Y-77471535D01*
X122680465Y-77666120D01*
X122909273Y-77819005D01*
X123163510Y-77924314D01*
X123433408Y-77978000D01*
X123708592Y-77978000D01*
X123978490Y-77924314D01*
X124232727Y-77819005D01*
X124461535Y-77666120D01*
X124656120Y-77471535D01*
X124809005Y-77242727D01*
X124914314Y-76988490D01*
X124968000Y-76718592D01*
X124968000Y-76443408D01*
X124944845Y-76327000D01*
X124978592Y-76327000D01*
X125248490Y-76273314D01*
X125502727Y-76168005D01*
X125731535Y-76015120D01*
X125926120Y-75820535D01*
X126079005Y-75591727D01*
X126184314Y-75337490D01*
X126238000Y-75067592D01*
X126238000Y-74792408D01*
X126184314Y-74522510D01*
X126079005Y-74268273D01*
X125926120Y-74039465D01*
X125731535Y-73844880D01*
X125502727Y-73691995D01*
X125248490Y-73586686D01*
X124978592Y-73533000D01*
X124703408Y-73533000D01*
X124433510Y-73586686D01*
X124179273Y-73691995D01*
X123950465Y-73844880D01*
X123755880Y-74039465D01*
X123602995Y-74268273D01*
X123571000Y-74345515D01*
X123539005Y-74268273D01*
X123386120Y-74039465D01*
X123191535Y-73844880D01*
X122962727Y-73691995D01*
X122708490Y-73586686D01*
X122438592Y-73533000D01*
X122163408Y-73533000D01*
X121893510Y-73586686D01*
X121639273Y-73691995D01*
X121410465Y-73844880D01*
X121215880Y-74039465D01*
X121062995Y-74268273D01*
X121031000Y-74345515D01*
X120999005Y-74268273D01*
X120846120Y-74039465D01*
X120651535Y-73844880D01*
X120422727Y-73691995D01*
X120168490Y-73586686D01*
X119898592Y-73533000D01*
X119623408Y-73533000D01*
X119353510Y-73586686D01*
X119099273Y-73691995D01*
X118870465Y-73844880D01*
X118675880Y-74039465D01*
X118522995Y-74268273D01*
X118417686Y-74522510D01*
X118364000Y-74792408D01*
X118364000Y-75067592D01*
X118417686Y-75337490D01*
X118522995Y-75591727D01*
X118675880Y-75820535D01*
X118870465Y-76015120D01*
X119099273Y-76168005D01*
X119176515Y-76200000D01*
X119099273Y-76231995D01*
X118870465Y-76384880D01*
X118675880Y-76579465D01*
X118522995Y-76808273D01*
X118417686Y-77062510D01*
X118364000Y-77332408D01*
X118364000Y-77607592D01*
X118417686Y-77877490D01*
X118522995Y-78131727D01*
X118675880Y-78360535D01*
X118870465Y-78555120D01*
X119099273Y-78708005D01*
X119176515Y-78740000D01*
X119099273Y-78771995D01*
X118870465Y-78924880D01*
X118675880Y-79119465D01*
X118522995Y-79348273D01*
X118417686Y-79602510D01*
X118364000Y-79872408D01*
X118364000Y-80147592D01*
X118417686Y-80417490D01*
X118522995Y-80671727D01*
X118675880Y-80900535D01*
X118870465Y-81095120D01*
X119099273Y-81248005D01*
X119176515Y-81280000D01*
X119099273Y-81311995D01*
X118870465Y-81464880D01*
X118675880Y-81659465D01*
X118522995Y-81888273D01*
X118417686Y-82142510D01*
X118364000Y-82412408D01*
X118364000Y-82618198D01*
X101909804Y-66164003D01*
X101886001Y-66134999D01*
X101770276Y-66040026D01*
X101638247Y-65969454D01*
X101494986Y-65925997D01*
X101383333Y-65915000D01*
X101383322Y-65915000D01*
X101346000Y-65911324D01*
X101308678Y-65915000D01*
X81863043Y-65915000D01*
X81759637Y-65760241D01*
X81570396Y-65571000D01*
X136687928Y-65571000D01*
X136687928Y-67271000D01*
X136700188Y-67395482D01*
X136736498Y-67515180D01*
X136795463Y-67625494D01*
X136874815Y-67722185D01*
X136971506Y-67801537D01*
X137081820Y-67860502D01*
X137201518Y-67896812D01*
X137326000Y-67909072D01*
X139026000Y-67909072D01*
X139150482Y-67896812D01*
X139270180Y-67860502D01*
X139380494Y-67801537D01*
X139477185Y-67722185D01*
X139556537Y-67625494D01*
X139615502Y-67515180D01*
X139637513Y-67442620D01*
X139769368Y-67574475D01*
X140012589Y-67736990D01*
X140282842Y-67848932D01*
X140569740Y-67906000D01*
X140862260Y-67906000D01*
X141149158Y-67848932D01*
X141419411Y-67736990D01*
X141662632Y-67574475D01*
X141869475Y-67367632D01*
X141986000Y-67193240D01*
X142102525Y-67367632D01*
X142309368Y-67574475D01*
X142552589Y-67736990D01*
X142822842Y-67848932D01*
X143109740Y-67906000D01*
X143402260Y-67906000D01*
X143689158Y-67848932D01*
X143959411Y-67736990D01*
X144202632Y-67574475D01*
X144409475Y-67367632D01*
X144526000Y-67193240D01*
X144642525Y-67367632D01*
X144849368Y-67574475D01*
X145092589Y-67736990D01*
X145362842Y-67848932D01*
X145649740Y-67906000D01*
X145942260Y-67906000D01*
X146229158Y-67848932D01*
X146499411Y-67736990D01*
X146742632Y-67574475D01*
X146949475Y-67367632D01*
X147111990Y-67124411D01*
X147223932Y-66854158D01*
X147281000Y-66567260D01*
X147281000Y-66274740D01*
X147223932Y-65987842D01*
X147111990Y-65717589D01*
X147014043Y-65571000D01*
X152435928Y-65571000D01*
X152435928Y-67271000D01*
X152448188Y-67395482D01*
X152484498Y-67515180D01*
X152543463Y-67625494D01*
X152622815Y-67722185D01*
X152719506Y-67801537D01*
X152829820Y-67860502D01*
X152949518Y-67896812D01*
X153074000Y-67909072D01*
X154774000Y-67909072D01*
X154898482Y-67896812D01*
X155018180Y-67860502D01*
X155128494Y-67801537D01*
X155225185Y-67722185D01*
X155304537Y-67625494D01*
X155363502Y-67515180D01*
X155385513Y-67442620D01*
X155517368Y-67574475D01*
X155760589Y-67736990D01*
X156030842Y-67848932D01*
X156317740Y-67906000D01*
X156610260Y-67906000D01*
X156897158Y-67848932D01*
X157167411Y-67736990D01*
X157410632Y-67574475D01*
X157617475Y-67367632D01*
X157734000Y-67193240D01*
X157850525Y-67367632D01*
X158057368Y-67574475D01*
X158300589Y-67736990D01*
X158570842Y-67848932D01*
X158857740Y-67906000D01*
X159150260Y-67906000D01*
X159437158Y-67848932D01*
X159707411Y-67736990D01*
X159950632Y-67574475D01*
X160157475Y-67367632D01*
X160274000Y-67193240D01*
X160390525Y-67367632D01*
X160597368Y-67574475D01*
X160840589Y-67736990D01*
X161110842Y-67848932D01*
X161397740Y-67906000D01*
X161690260Y-67906000D01*
X161977158Y-67848932D01*
X162247411Y-67736990D01*
X162490632Y-67574475D01*
X162697475Y-67367632D01*
X162859990Y-67124411D01*
X162971932Y-66854158D01*
X163029000Y-66567260D01*
X163029000Y-66274740D01*
X162971932Y-65987842D01*
X162859990Y-65717589D01*
X162697475Y-65474368D01*
X162490632Y-65267525D01*
X162247411Y-65105010D01*
X161977158Y-64993068D01*
X161690260Y-64936000D01*
X161397740Y-64936000D01*
X161110842Y-64993068D01*
X160840589Y-65105010D01*
X160597368Y-65267525D01*
X160390525Y-65474368D01*
X160274000Y-65648760D01*
X160157475Y-65474368D01*
X159950632Y-65267525D01*
X159707411Y-65105010D01*
X159437158Y-64993068D01*
X159150260Y-64936000D01*
X158857740Y-64936000D01*
X158570842Y-64993068D01*
X158300589Y-65105010D01*
X158057368Y-65267525D01*
X157850525Y-65474368D01*
X157734000Y-65648760D01*
X157617475Y-65474368D01*
X157410632Y-65267525D01*
X157167411Y-65105010D01*
X156897158Y-64993068D01*
X156610260Y-64936000D01*
X156317740Y-64936000D01*
X156030842Y-64993068D01*
X155760589Y-65105010D01*
X155517368Y-65267525D01*
X155385513Y-65399380D01*
X155363502Y-65326820D01*
X155304537Y-65216506D01*
X155225185Y-65119815D01*
X155128494Y-65040463D01*
X155018180Y-64981498D01*
X154898482Y-64945188D01*
X154774000Y-64932928D01*
X153074000Y-64932928D01*
X152949518Y-64945188D01*
X152829820Y-64981498D01*
X152719506Y-65040463D01*
X152622815Y-65119815D01*
X152543463Y-65216506D01*
X152484498Y-65326820D01*
X152448188Y-65446518D01*
X152435928Y-65571000D01*
X147014043Y-65571000D01*
X146949475Y-65474368D01*
X146742632Y-65267525D01*
X146499411Y-65105010D01*
X146229158Y-64993068D01*
X145942260Y-64936000D01*
X145649740Y-64936000D01*
X145362842Y-64993068D01*
X145092589Y-65105010D01*
X144849368Y-65267525D01*
X144642525Y-65474368D01*
X144526000Y-65648760D01*
X144409475Y-65474368D01*
X144202632Y-65267525D01*
X143959411Y-65105010D01*
X143689158Y-64993068D01*
X143402260Y-64936000D01*
X143109740Y-64936000D01*
X142822842Y-64993068D01*
X142552589Y-65105010D01*
X142309368Y-65267525D01*
X142102525Y-65474368D01*
X141986000Y-65648760D01*
X141869475Y-65474368D01*
X141662632Y-65267525D01*
X141419411Y-65105010D01*
X141149158Y-64993068D01*
X140862260Y-64936000D01*
X140569740Y-64936000D01*
X140282842Y-64993068D01*
X140012589Y-65105010D01*
X139769368Y-65267525D01*
X139637513Y-65399380D01*
X139615502Y-65326820D01*
X139556537Y-65216506D01*
X139477185Y-65119815D01*
X139380494Y-65040463D01*
X139270180Y-64981498D01*
X139150482Y-64945188D01*
X139026000Y-64932928D01*
X137326000Y-64932928D01*
X137201518Y-64945188D01*
X137081820Y-64981498D01*
X136971506Y-65040463D01*
X136874815Y-65119815D01*
X136795463Y-65216506D01*
X136736498Y-65326820D01*
X136700188Y-65446518D01*
X136687928Y-65571000D01*
X81570396Y-65571000D01*
X81559759Y-65560363D01*
X81324727Y-65403320D01*
X81063574Y-65295147D01*
X80786335Y-65240000D01*
X80503665Y-65240000D01*
X80226426Y-65295147D01*
X79965273Y-65403320D01*
X79730241Y-65560363D01*
X79530363Y-65760241D01*
X79373320Y-65995273D01*
X79265147Y-66256426D01*
X79210000Y-66533665D01*
X74460000Y-66533665D01*
X74404853Y-66256426D01*
X74296680Y-65995273D01*
X74139637Y-65760241D01*
X73939759Y-65560363D01*
X73704727Y-65403320D01*
X73443574Y-65295147D01*
X73166335Y-65240000D01*
X72883665Y-65240000D01*
X72606426Y-65295147D01*
X72345273Y-65403320D01*
X72110241Y-65560363D01*
X71910363Y-65760241D01*
X71753320Y-65995273D01*
X71645147Y-66256426D01*
X71590000Y-66533665D01*
X62996813Y-66533665D01*
X63066157Y-66417252D01*
X63163481Y-66142891D01*
X63042814Y-65913000D01*
X61849000Y-65913000D01*
X61849000Y-65933000D01*
X61595000Y-65933000D01*
X61595000Y-65913000D01*
X61575000Y-65913000D01*
X61575000Y-65659000D01*
X61595000Y-65659000D01*
X61595000Y-64465845D01*
X61849000Y-64465845D01*
X61849000Y-65659000D01*
X63042814Y-65659000D01*
X63163481Y-65429109D01*
X63066157Y-65154748D01*
X62917178Y-64904645D01*
X62722269Y-64688412D01*
X62488920Y-64514359D01*
X62226099Y-64389175D01*
X62078890Y-64344524D01*
X61849000Y-64465845D01*
X61595000Y-64465845D01*
X61365110Y-64344524D01*
X61217901Y-64389175D01*
X60955080Y-64514359D01*
X60721731Y-64688412D01*
X60526822Y-64904645D01*
X60457195Y-65021534D01*
X60335475Y-64839368D01*
X60128632Y-64632525D01*
X59885411Y-64470010D01*
X59615158Y-64358068D01*
X59328260Y-64301000D01*
X59035740Y-64301000D01*
X58748842Y-64358068D01*
X58478589Y-64470010D01*
X58235368Y-64632525D01*
X58028525Y-64839368D01*
X57912000Y-65013760D01*
X57795475Y-64839368D01*
X57588632Y-64632525D01*
X57345411Y-64470010D01*
X57075158Y-64358068D01*
X56788260Y-64301000D01*
X56495740Y-64301000D01*
X56208842Y-64358068D01*
X55938589Y-64470010D01*
X55695368Y-64632525D01*
X55488525Y-64839368D01*
X55372000Y-65013760D01*
X55255475Y-64839368D01*
X55048632Y-64632525D01*
X54805411Y-64470010D01*
X54535158Y-64358068D01*
X54248260Y-64301000D01*
X53955740Y-64301000D01*
X53668842Y-64358068D01*
X53398589Y-64470010D01*
X53155368Y-64632525D01*
X52948525Y-64839368D01*
X52786010Y-65082589D01*
X52674068Y-65352842D01*
X52617000Y-65639740D01*
X47529213Y-65639740D01*
X47524300Y-63144000D01*
X166854298Y-63144000D01*
X166978700Y-126340000D01*
%TA.AperFunction,Conductor*%
D20*
G36*
X166978700Y-126340000D02*
G01*
X47648702Y-126340000D01*
X47624964Y-114280740D01*
X51220000Y-114280740D01*
X51220000Y-114573260D01*
X51277068Y-114860158D01*
X51389010Y-115130411D01*
X51551525Y-115373632D01*
X51758368Y-115580475D01*
X52001589Y-115742990D01*
X52271842Y-115854932D01*
X52558740Y-115912000D01*
X52851260Y-115912000D01*
X53138158Y-115854932D01*
X53408411Y-115742990D01*
X53651632Y-115580475D01*
X53783487Y-115448620D01*
X53805498Y-115521180D01*
X53864463Y-115631494D01*
X53943815Y-115728185D01*
X54040506Y-115807537D01*
X54150820Y-115866502D01*
X54270518Y-115902812D01*
X54395000Y-115915072D01*
X56095000Y-115915072D01*
X56219482Y-115902812D01*
X56339180Y-115866502D01*
X56449494Y-115807537D01*
X56546185Y-115728185D01*
X56625537Y-115631494D01*
X56684502Y-115521180D01*
X56720812Y-115401482D01*
X56733072Y-115277000D01*
X56733072Y-114407740D01*
X58713000Y-114407740D01*
X58713000Y-114700260D01*
X58770068Y-114987158D01*
X58882010Y-115257411D01*
X59044525Y-115500632D01*
X59251368Y-115707475D01*
X59494589Y-115869990D01*
X59764842Y-115981932D01*
X60051740Y-116039000D01*
X60344260Y-116039000D01*
X60631158Y-115981932D01*
X60901411Y-115869990D01*
X61144632Y-115707475D01*
X61276487Y-115575620D01*
X61298498Y-115648180D01*
X61357463Y-115758494D01*
X61436815Y-115855185D01*
X61533506Y-115934537D01*
X61643820Y-115993502D01*
X61763518Y-116029812D01*
X61888000Y-116042072D01*
X61978001Y-116042072D01*
X61978001Y-117398670D01*
X61974324Y-117436002D01*
X61988998Y-117584987D01*
X62032454Y-117728248D01*
X62103026Y-117860278D01*
X62174201Y-117947004D01*
X62198000Y-117976003D01*
X62226998Y-117999801D01*
X68595200Y-124368004D01*
X68618998Y-124397002D01*
X68734723Y-124491975D01*
X68866752Y-124562547D01*
X69010013Y-124606004D01*
X69121666Y-124617001D01*
X69121676Y-124617001D01*
X69158999Y-124620677D01*
X69196322Y-124617001D01*
X73590677Y-124617001D01*
X73627999Y-124620677D01*
X73665321Y-124617001D01*
X73665332Y-124617001D01*
X73776985Y-124606004D01*
X73920246Y-124562547D01*
X74052275Y-124491975D01*
X74168000Y-124397002D01*
X74191803Y-124367998D01*
X74436592Y-124123209D01*
X74656740Y-124167000D01*
X74859645Y-124167000D01*
X75605745Y-124913100D01*
X75637368Y-124951634D01*
X75791161Y-125077848D01*
X75966621Y-125171633D01*
X76157006Y-125229386D01*
X76355001Y-125248887D01*
X76404609Y-125244001D01*
X89076391Y-125244001D01*
X89125999Y-125248887D01*
X89323993Y-125229386D01*
X89514379Y-125171633D01*
X89689839Y-125077848D01*
X89843632Y-124951634D01*
X89875260Y-124913095D01*
X90494355Y-124294000D01*
X90607644Y-124294000D01*
X91226744Y-124913100D01*
X91258368Y-124951634D01*
X91412161Y-125077848D01*
X91587621Y-125171633D01*
X91778006Y-125229386D01*
X91976001Y-125248887D01*
X92025609Y-125244001D01*
X97839391Y-125244001D01*
X97888999Y-125248887D01*
X98086993Y-125229386D01*
X98277379Y-125171633D01*
X98452839Y-125077848D01*
X98606632Y-124951634D01*
X98638260Y-124913095D01*
X100787678Y-122763678D01*
X100807068Y-122861158D01*
X100919010Y-123131411D01*
X101081525Y-123374632D01*
X101288368Y-123581475D01*
X101531589Y-123743990D01*
X101801842Y-123855932D01*
X102088740Y-123913000D01*
X102381260Y-123913000D01*
X102668158Y-123855932D01*
X102938411Y-123743990D01*
X103181632Y-123581475D01*
X103388475Y-123374632D01*
X103550990Y-123131411D01*
X103662932Y-122861158D01*
X103720000Y-122574260D01*
X103720000Y-122281740D01*
X103662932Y-121994842D01*
X103550990Y-121724589D01*
X103388475Y-121481368D01*
X103256620Y-121349513D01*
X103329180Y-121327502D01*
X103439494Y-121268537D01*
X103536185Y-121189185D01*
X103615537Y-121092494D01*
X103674502Y-120982180D01*
X103710812Y-120862482D01*
X103723072Y-120738000D01*
X103723072Y-119261210D01*
X151409000Y-119261210D01*
X151409000Y-120006790D01*
X151554455Y-120738044D01*
X151839777Y-121426870D01*
X152253999Y-122046797D01*
X152781203Y-122574001D01*
X153401130Y-122988223D01*
X154089956Y-123273545D01*
X154821210Y-123419000D01*
X155566790Y-123419000D01*
X156298044Y-123273545D01*
X156986870Y-122988223D01*
X157606797Y-122574001D01*
X158134001Y-122046797D01*
X158548223Y-121426870D01*
X158833545Y-120738044D01*
X158979000Y-120006790D01*
X158979000Y-119261210D01*
X158833545Y-118529956D01*
X158548223Y-117841130D01*
X158134001Y-117221203D01*
X157606797Y-116693999D01*
X156986870Y-116279777D01*
X156298044Y-115994455D01*
X155566790Y-115849000D01*
X154821210Y-115849000D01*
X154089956Y-115994455D01*
X153401130Y-116279777D01*
X152781203Y-116693999D01*
X152253999Y-117221203D01*
X151839777Y-117841130D01*
X151554455Y-118529956D01*
X151409000Y-119261210D01*
X103723072Y-119261210D01*
X103723072Y-119038000D01*
X103710812Y-118913518D01*
X103674502Y-118793820D01*
X103615537Y-118683506D01*
X103536185Y-118586815D01*
X103439494Y-118507463D01*
X103329180Y-118448498D01*
X103209482Y-118412188D01*
X103085000Y-118399928D01*
X101385000Y-118399928D01*
X101260518Y-118412188D01*
X101140820Y-118448498D01*
X101030506Y-118507463D01*
X100933815Y-118586815D01*
X100854463Y-118683506D01*
X100795498Y-118793820D01*
X100759188Y-118913518D01*
X100746928Y-119038000D01*
X100746928Y-119947716D01*
X97470644Y-123224001D01*
X94579072Y-123224001D01*
X94579072Y-121959000D01*
X94566812Y-121834518D01*
X94530502Y-121714820D01*
X94471537Y-121604506D01*
X94392185Y-121507815D01*
X94295494Y-121428463D01*
X94185180Y-121369498D01*
X94109374Y-121346502D01*
X94286178Y-121150355D01*
X94435157Y-120900252D01*
X94532481Y-120625891D01*
X94411814Y-120396000D01*
X93218000Y-120396000D01*
X93218000Y-120416000D01*
X92964000Y-120416000D01*
X92964000Y-120396000D01*
X92944000Y-120396000D01*
X92944000Y-120142000D01*
X92964000Y-120142000D01*
X92964000Y-118948845D01*
X93218000Y-118948845D01*
X93218000Y-120142000D01*
X94411814Y-120142000D01*
X94532481Y-119912109D01*
X94435157Y-119637748D01*
X94286178Y-119387645D01*
X94091269Y-119171412D01*
X93857920Y-118997359D01*
X93595099Y-118872175D01*
X93447890Y-118827524D01*
X93218000Y-118948845D01*
X92964000Y-118948845D01*
X92734110Y-118827524D01*
X92586901Y-118872175D01*
X92324080Y-118997359D01*
X92090731Y-119171412D01*
X91895822Y-119387645D01*
X91826195Y-119504534D01*
X91704475Y-119322368D01*
X91497632Y-119115525D01*
X91254411Y-118953010D01*
X90984158Y-118841068D01*
X90697260Y-118784000D01*
X90404740Y-118784000D01*
X90117842Y-118841068D01*
X89847589Y-118953010D01*
X89604368Y-119115525D01*
X89397525Y-119322368D01*
X89281000Y-119496760D01*
X89164475Y-119322368D01*
X88957632Y-119115525D01*
X88714411Y-118953010D01*
X88444158Y-118841068D01*
X88157260Y-118784000D01*
X87864740Y-118784000D01*
X87577842Y-118841068D01*
X87307589Y-118953010D01*
X87064368Y-119115525D01*
X86857525Y-119322368D01*
X86741000Y-119496760D01*
X86624475Y-119322368D01*
X86417632Y-119115525D01*
X86174411Y-118953010D01*
X85904158Y-118841068D01*
X85617260Y-118784000D01*
X85324740Y-118784000D01*
X85037842Y-118841068D01*
X84767589Y-118953010D01*
X84524368Y-119115525D01*
X84317525Y-119322368D01*
X84155010Y-119565589D01*
X84043068Y-119835842D01*
X83986000Y-120122740D01*
X83986000Y-120415260D01*
X84043068Y-120702158D01*
X84155010Y-120972411D01*
X84317525Y-121215632D01*
X84524368Y-121422475D01*
X84698760Y-121539000D01*
X84524368Y-121655525D01*
X84317525Y-121862368D01*
X84155010Y-122105589D01*
X84043068Y-122375842D01*
X83986000Y-122662740D01*
X83986000Y-122955260D01*
X84039456Y-123224001D01*
X78831072Y-123224001D01*
X78831072Y-121832000D01*
X78818812Y-121707518D01*
X78782502Y-121587820D01*
X78723537Y-121477506D01*
X78644185Y-121380815D01*
X78547494Y-121301463D01*
X78437180Y-121242498D01*
X78361374Y-121219502D01*
X78538178Y-121023355D01*
X78687157Y-120773252D01*
X78784481Y-120498891D01*
X78663814Y-120269000D01*
X77470000Y-120269000D01*
X77470000Y-120289000D01*
X77216000Y-120289000D01*
X77216000Y-120269000D01*
X77196000Y-120269000D01*
X77196000Y-120015000D01*
X77216000Y-120015000D01*
X77216000Y-118821845D01*
X77470000Y-118821845D01*
X77470000Y-120015000D01*
X78663814Y-120015000D01*
X78784481Y-119785109D01*
X78687157Y-119510748D01*
X78538178Y-119260645D01*
X78343269Y-119044412D01*
X78109920Y-118870359D01*
X77847099Y-118745175D01*
X77699890Y-118700524D01*
X77470000Y-118821845D01*
X77216000Y-118821845D01*
X76986110Y-118700524D01*
X76838901Y-118745175D01*
X76576080Y-118870359D01*
X76342731Y-119044412D01*
X76147822Y-119260645D01*
X76078195Y-119377534D01*
X75956475Y-119195368D01*
X75749632Y-118988525D01*
X75506411Y-118826010D01*
X75236158Y-118714068D01*
X74949260Y-118657000D01*
X74656740Y-118657000D01*
X74369842Y-118714068D01*
X74099589Y-118826010D01*
X73856368Y-118988525D01*
X73649525Y-119195368D01*
X73533000Y-119369760D01*
X73416475Y-119195368D01*
X73209632Y-118988525D01*
X72966411Y-118826010D01*
X72696158Y-118714068D01*
X72409260Y-118657000D01*
X72116740Y-118657000D01*
X71829842Y-118714068D01*
X71559589Y-118826010D01*
X71316368Y-118988525D01*
X71109525Y-119195368D01*
X70993000Y-119369760D01*
X70876475Y-119195368D01*
X70669632Y-118988525D01*
X70426411Y-118826010D01*
X70156158Y-118714068D01*
X69869260Y-118657000D01*
X69576740Y-118657000D01*
X69289842Y-118714068D01*
X69019589Y-118826010D01*
X68776368Y-118988525D01*
X68569525Y-119195368D01*
X68407010Y-119438589D01*
X68295068Y-119708842D01*
X68238000Y-119995740D01*
X68238000Y-120288260D01*
X68295068Y-120575158D01*
X68407010Y-120845411D01*
X68569525Y-121088632D01*
X68776368Y-121295475D01*
X68950760Y-121412000D01*
X68776368Y-121528525D01*
X68569525Y-121735368D01*
X68407010Y-121978589D01*
X68391891Y-122015091D01*
X63498000Y-117121201D01*
X63498000Y-116042072D01*
X63588000Y-116042072D01*
X63712482Y-116029812D01*
X63832180Y-115993502D01*
X63942494Y-115934537D01*
X64039185Y-115855185D01*
X64118537Y-115758494D01*
X64177502Y-115648180D01*
X64213812Y-115528482D01*
X64226072Y-115404000D01*
X64226072Y-113704000D01*
X64213812Y-113579518D01*
X64177502Y-113459820D01*
X64118537Y-113349506D01*
X64039185Y-113252815D01*
X63942494Y-113173463D01*
X63832180Y-113114498D01*
X63712482Y-113078188D01*
X63588000Y-113065928D01*
X61888000Y-113065928D01*
X61763518Y-113078188D01*
X61643820Y-113114498D01*
X61533506Y-113173463D01*
X61436815Y-113252815D01*
X61357463Y-113349506D01*
X61298498Y-113459820D01*
X61276487Y-113532380D01*
X61144632Y-113400525D01*
X60901411Y-113238010D01*
X60631158Y-113126068D01*
X60344260Y-113069000D01*
X60051740Y-113069000D01*
X59764842Y-113126068D01*
X59494589Y-113238010D01*
X59251368Y-113400525D01*
X59044525Y-113607368D01*
X58882010Y-113850589D01*
X58770068Y-114120842D01*
X58713000Y-114407740D01*
X56733072Y-114407740D01*
X56733072Y-113577000D01*
X56720812Y-113452518D01*
X56684502Y-113332820D01*
X56625537Y-113222506D01*
X56546185Y-113125815D01*
X56449494Y-113046463D01*
X56339180Y-112987498D01*
X56219482Y-112951188D01*
X56095000Y-112938928D01*
X54395000Y-112938928D01*
X54270518Y-112951188D01*
X54150820Y-112987498D01*
X54040506Y-113046463D01*
X53943815Y-113125815D01*
X53864463Y-113222506D01*
X53805498Y-113332820D01*
X53783487Y-113405380D01*
X53651632Y-113273525D01*
X53408411Y-113111010D01*
X53138158Y-112999068D01*
X52851260Y-112942000D01*
X52558740Y-112942000D01*
X52271842Y-112999068D01*
X52001589Y-113111010D01*
X51758368Y-113273525D01*
X51551525Y-113480368D01*
X51389010Y-113723589D01*
X51277068Y-113993842D01*
X51220000Y-114280740D01*
X47624964Y-114280740D01*
X47606252Y-104775000D01*
X56003928Y-104775000D01*
X56003928Y-106299000D01*
X56016188Y-106423482D01*
X56052498Y-106543180D01*
X56111463Y-106653494D01*
X56190815Y-106750185D01*
X56287506Y-106829537D01*
X56397820Y-106888502D01*
X56517518Y-106924812D01*
X56642000Y-106937072D01*
X58166000Y-106937072D01*
X58290482Y-106924812D01*
X58410180Y-106888502D01*
X58520494Y-106829537D01*
X58617185Y-106750185D01*
X58696537Y-106653494D01*
X58755502Y-106543180D01*
X58791812Y-106423482D01*
X58800080Y-106339535D01*
X58858880Y-106427535D01*
X59053465Y-106622120D01*
X59282273Y-106775005D01*
X59536510Y-106880314D01*
X59806408Y-106934000D01*
X60081592Y-106934000D01*
X60351490Y-106880314D01*
X60605727Y-106775005D01*
X60834535Y-106622120D01*
X61029120Y-106427535D01*
X61182005Y-106198727D01*
X61214000Y-106121485D01*
X61245995Y-106198727D01*
X61398880Y-106427535D01*
X61593465Y-106622120D01*
X61822273Y-106775005D01*
X62076510Y-106880314D01*
X62346408Y-106934000D01*
X62621592Y-106934000D01*
X62891490Y-106880314D01*
X63145727Y-106775005D01*
X63374535Y-106622120D01*
X63569120Y-106427535D01*
X63722005Y-106198727D01*
X63754000Y-106121485D01*
X63785995Y-106198727D01*
X63938880Y-106427535D01*
X64133465Y-106622120D01*
X64362273Y-106775005D01*
X64616510Y-106880314D01*
X64886408Y-106934000D01*
X65161592Y-106934000D01*
X65431490Y-106880314D01*
X65685727Y-106775005D01*
X65914535Y-106622120D01*
X66109120Y-106427535D01*
X66262005Y-106198727D01*
X66294000Y-106121485D01*
X66325995Y-106198727D01*
X66478880Y-106427535D01*
X66673465Y-106622120D01*
X66902273Y-106775005D01*
X67156510Y-106880314D01*
X67426408Y-106934000D01*
X67701592Y-106934000D01*
X67971490Y-106880314D01*
X68225727Y-106775005D01*
X68454535Y-106622120D01*
X68649120Y-106427535D01*
X68802005Y-106198727D01*
X68834000Y-106121485D01*
X68865995Y-106198727D01*
X69018880Y-106427535D01*
X69213465Y-106622120D01*
X69442273Y-106775005D01*
X69696510Y-106880314D01*
X69966408Y-106934000D01*
X70241592Y-106934000D01*
X70511490Y-106880314D01*
X70765727Y-106775005D01*
X70994535Y-106622120D01*
X71189120Y-106427535D01*
X71342005Y-106198727D01*
X71374000Y-106121485D01*
X71405995Y-106198727D01*
X71558880Y-106427535D01*
X71753465Y-106622120D01*
X71982273Y-106775005D01*
X72236510Y-106880314D01*
X72506408Y-106934000D01*
X72781592Y-106934000D01*
X73051490Y-106880314D01*
X73305727Y-106775005D01*
X73534535Y-106622120D01*
X73729120Y-106427535D01*
X73882005Y-106198727D01*
X73914000Y-106121485D01*
X73945995Y-106198727D01*
X74098880Y-106427535D01*
X74293465Y-106622120D01*
X74522273Y-106775005D01*
X74776510Y-106880314D01*
X75046408Y-106934000D01*
X75321592Y-106934000D01*
X75591490Y-106880314D01*
X75845727Y-106775005D01*
X76074535Y-106622120D01*
X76269120Y-106427535D01*
X76422005Y-106198727D01*
X76454000Y-106121485D01*
X76485995Y-106198727D01*
X76638880Y-106427535D01*
X76833465Y-106622120D01*
X77062273Y-106775005D01*
X77316510Y-106880314D01*
X77586408Y-106934000D01*
X77861592Y-106934000D01*
X78131490Y-106880314D01*
X78385727Y-106775005D01*
X78614535Y-106622120D01*
X78809120Y-106427535D01*
X78962005Y-106198727D01*
X78994000Y-106121485D01*
X79025995Y-106198727D01*
X79178880Y-106427535D01*
X79373465Y-106622120D01*
X79602273Y-106775005D01*
X79856510Y-106880314D01*
X80126408Y-106934000D01*
X80401592Y-106934000D01*
X80671490Y-106880314D01*
X80925727Y-106775005D01*
X81154535Y-106622120D01*
X81349120Y-106427535D01*
X81502005Y-106198727D01*
X81534000Y-106121485D01*
X81565995Y-106198727D01*
X81718880Y-106427535D01*
X81913465Y-106622120D01*
X82142273Y-106775005D01*
X82396510Y-106880314D01*
X82666408Y-106934000D01*
X82941592Y-106934000D01*
X83211490Y-106880314D01*
X83465727Y-106775005D01*
X83694535Y-106622120D01*
X83889120Y-106427535D01*
X84042005Y-106198727D01*
X84074000Y-106121485D01*
X84105995Y-106198727D01*
X84258880Y-106427535D01*
X84453465Y-106622120D01*
X84682273Y-106775005D01*
X84936510Y-106880314D01*
X85206408Y-106934000D01*
X85481592Y-106934000D01*
X85751490Y-106880314D01*
X86005727Y-106775005D01*
X86234535Y-106622120D01*
X86429120Y-106427535D01*
X86582005Y-106198727D01*
X86614000Y-106121485D01*
X86645995Y-106198727D01*
X86798880Y-106427535D01*
X86993465Y-106622120D01*
X87222273Y-106775005D01*
X87476510Y-106880314D01*
X87746408Y-106934000D01*
X88021592Y-106934000D01*
X88291490Y-106880314D01*
X88545727Y-106775005D01*
X88774535Y-106622120D01*
X88969120Y-106427535D01*
X89122005Y-106198727D01*
X89154000Y-106121485D01*
X89185995Y-106198727D01*
X89338880Y-106427535D01*
X89533465Y-106622120D01*
X89762273Y-106775005D01*
X90016510Y-106880314D01*
X90286408Y-106934000D01*
X90561592Y-106934000D01*
X90831490Y-106880314D01*
X91085727Y-106775005D01*
X91314535Y-106622120D01*
X91509120Y-106427535D01*
X91662005Y-106198727D01*
X91694000Y-106121485D01*
X91725995Y-106198727D01*
X91878880Y-106427535D01*
X92073465Y-106622120D01*
X92302273Y-106775005D01*
X92556510Y-106880314D01*
X92826408Y-106934000D01*
X93101592Y-106934000D01*
X93371490Y-106880314D01*
X93625727Y-106775005D01*
X93854535Y-106622120D01*
X94049120Y-106427535D01*
X94202005Y-106198727D01*
X94307314Y-105944490D01*
X94361000Y-105674592D01*
X94361000Y-105399408D01*
X94307314Y-105129510D01*
X94202005Y-104875273D01*
X94049120Y-104646465D01*
X93854535Y-104451880D01*
X93625727Y-104298995D01*
X93371490Y-104193686D01*
X93101592Y-104140000D01*
X92826408Y-104140000D01*
X92556510Y-104193686D01*
X92302273Y-104298995D01*
X92073465Y-104451880D01*
X91878880Y-104646465D01*
X91725995Y-104875273D01*
X91694000Y-104952515D01*
X91662005Y-104875273D01*
X91509120Y-104646465D01*
X91314535Y-104451880D01*
X91085727Y-104298995D01*
X90831490Y-104193686D01*
X90561592Y-104140000D01*
X90286408Y-104140000D01*
X90016510Y-104193686D01*
X89762273Y-104298995D01*
X89533465Y-104451880D01*
X89338880Y-104646465D01*
X89185995Y-104875273D01*
X89154000Y-104952515D01*
X89122005Y-104875273D01*
X88969120Y-104646465D01*
X88774535Y-104451880D01*
X88545727Y-104298995D01*
X88291490Y-104193686D01*
X88021592Y-104140000D01*
X87746408Y-104140000D01*
X87476510Y-104193686D01*
X87222273Y-104298995D01*
X86993465Y-104451880D01*
X86798880Y-104646465D01*
X86645995Y-104875273D01*
X86614000Y-104952515D01*
X86582005Y-104875273D01*
X86429120Y-104646465D01*
X86234535Y-104451880D01*
X86005727Y-104298995D01*
X85751490Y-104193686D01*
X85481592Y-104140000D01*
X85206408Y-104140000D01*
X84936510Y-104193686D01*
X84682273Y-104298995D01*
X84453465Y-104451880D01*
X84258880Y-104646465D01*
X84105995Y-104875273D01*
X84074000Y-104952515D01*
X84042005Y-104875273D01*
X83889120Y-104646465D01*
X83694535Y-104451880D01*
X83465727Y-104298995D01*
X83211490Y-104193686D01*
X82941592Y-104140000D01*
X82666408Y-104140000D01*
X82396510Y-104193686D01*
X82142273Y-104298995D01*
X81913465Y-104451880D01*
X81718880Y-104646465D01*
X81565995Y-104875273D01*
X81534000Y-104952515D01*
X81502005Y-104875273D01*
X81349120Y-104646465D01*
X81154535Y-104451880D01*
X80925727Y-104298995D01*
X80671490Y-104193686D01*
X80401592Y-104140000D01*
X80126408Y-104140000D01*
X79856510Y-104193686D01*
X79602273Y-104298995D01*
X79373465Y-104451880D01*
X79178880Y-104646465D01*
X79025995Y-104875273D01*
X78994000Y-104952515D01*
X78962005Y-104875273D01*
X78809120Y-104646465D01*
X78614535Y-104451880D01*
X78385727Y-104298995D01*
X78131490Y-104193686D01*
X77861592Y-104140000D01*
X77586408Y-104140000D01*
X77316510Y-104193686D01*
X77062273Y-104298995D01*
X76833465Y-104451880D01*
X76638880Y-104646465D01*
X76485995Y-104875273D01*
X76454000Y-104952515D01*
X76422005Y-104875273D01*
X76269120Y-104646465D01*
X76074535Y-104451880D01*
X75845727Y-104298995D01*
X75591490Y-104193686D01*
X75321592Y-104140000D01*
X75046408Y-104140000D01*
X74776510Y-104193686D01*
X74522273Y-104298995D01*
X74293465Y-104451880D01*
X74098880Y-104646465D01*
X73945995Y-104875273D01*
X73914000Y-104952515D01*
X73882005Y-104875273D01*
X73729120Y-104646465D01*
X73534535Y-104451880D01*
X73305727Y-104298995D01*
X73051490Y-104193686D01*
X72781592Y-104140000D01*
X72506408Y-104140000D01*
X72236510Y-104193686D01*
X71982273Y-104298995D01*
X71753465Y-104451880D01*
X71558880Y-104646465D01*
X71405995Y-104875273D01*
X71374000Y-104952515D01*
X71342005Y-104875273D01*
X71189120Y-104646465D01*
X70994535Y-104451880D01*
X70765727Y-104298995D01*
X70511490Y-104193686D01*
X70241592Y-104140000D01*
X69966408Y-104140000D01*
X69696510Y-104193686D01*
X69442273Y-104298995D01*
X69213465Y-104451880D01*
X69018880Y-104646465D01*
X68865995Y-104875273D01*
X68834000Y-104952515D01*
X68802005Y-104875273D01*
X68649120Y-104646465D01*
X68454535Y-104451880D01*
X68225727Y-104298995D01*
X67971490Y-104193686D01*
X67701592Y-104140000D01*
X67426408Y-104140000D01*
X67156510Y-104193686D01*
X66902273Y-104298995D01*
X66673465Y-104451880D01*
X66478880Y-104646465D01*
X66325995Y-104875273D01*
X66294000Y-104952515D01*
X66262005Y-104875273D01*
X66109120Y-104646465D01*
X65914535Y-104451880D01*
X65685727Y-104298995D01*
X65431490Y-104193686D01*
X65161592Y-104140000D01*
X64886408Y-104140000D01*
X64616510Y-104193686D01*
X64362273Y-104298995D01*
X64133465Y-104451880D01*
X63938880Y-104646465D01*
X63785995Y-104875273D01*
X63754000Y-104952515D01*
X63722005Y-104875273D01*
X63569120Y-104646465D01*
X63374535Y-104451880D01*
X63145727Y-104298995D01*
X62891490Y-104193686D01*
X62621592Y-104140000D01*
X62346408Y-104140000D01*
X62076510Y-104193686D01*
X61822273Y-104298995D01*
X61593465Y-104451880D01*
X61398880Y-104646465D01*
X61245995Y-104875273D01*
X61214000Y-104952515D01*
X61182005Y-104875273D01*
X61029120Y-104646465D01*
X60834535Y-104451880D01*
X60605727Y-104298995D01*
X60351490Y-104193686D01*
X60081592Y-104140000D01*
X59806408Y-104140000D01*
X59536510Y-104193686D01*
X59282273Y-104298995D01*
X59053465Y-104451880D01*
X58858880Y-104646465D01*
X58800080Y-104734465D01*
X58791812Y-104650518D01*
X58755502Y-104530820D01*
X58696537Y-104420506D01*
X58617185Y-104323815D01*
X58520494Y-104244463D01*
X58410180Y-104185498D01*
X58290482Y-104149188D01*
X58166000Y-104136928D01*
X56642000Y-104136928D01*
X56517518Y-104149188D01*
X56397820Y-104185498D01*
X56287506Y-104244463D01*
X56190815Y-104323815D01*
X56111463Y-104420506D01*
X56052498Y-104530820D01*
X56016188Y-104650518D01*
X56003928Y-104775000D01*
X47606252Y-104775000D01*
X47529213Y-65639740D01*
X52617000Y-65639740D01*
X52617000Y-65932260D01*
X52674068Y-66219158D01*
X52786010Y-66489411D01*
X52948525Y-66732632D01*
X53155368Y-66939475D01*
X53329760Y-67056000D01*
X53155368Y-67172525D01*
X52948525Y-67379368D01*
X52786010Y-67622589D01*
X52674068Y-67892842D01*
X52617000Y-68179740D01*
X52617000Y-68472260D01*
X52674068Y-68759158D01*
X52786010Y-69029411D01*
X52948525Y-69272632D01*
X53155368Y-69479475D01*
X53398589Y-69641990D01*
X53668842Y-69753932D01*
X53955740Y-69811000D01*
X54248260Y-69811000D01*
X54535158Y-69753932D01*
X54805411Y-69641990D01*
X55048632Y-69479475D01*
X55255475Y-69272632D01*
X55372000Y-69098240D01*
X55488525Y-69272632D01*
X55695368Y-69479475D01*
X55938589Y-69641990D01*
X56208842Y-69753932D01*
X56495740Y-69811000D01*
X56788260Y-69811000D01*
X57075158Y-69753932D01*
X57345411Y-69641990D01*
X57588632Y-69479475D01*
X57795475Y-69272632D01*
X57912000Y-69098240D01*
X58028525Y-69272632D01*
X58235368Y-69479475D01*
X58478589Y-69641990D01*
X58748842Y-69753932D01*
X59035740Y-69811000D01*
X59238644Y-69811000D01*
X59857744Y-70430100D01*
X59889368Y-70468634D01*
X60043161Y-70594848D01*
X60207392Y-70682631D01*
X60218621Y-70688633D01*
X60409006Y-70746386D01*
X60607001Y-70765887D01*
X60656609Y-70761001D01*
X80523297Y-70761001D01*
X80480000Y-70978665D01*
X80480000Y-71261335D01*
X80535147Y-71538574D01*
X80643320Y-71799727D01*
X80800363Y-72034759D01*
X81000241Y-72234637D01*
X81235273Y-72391680D01*
X81496426Y-72499853D01*
X81773665Y-72555000D01*
X82056335Y-72555000D01*
X82333574Y-72499853D01*
X82594727Y-72391680D01*
X82829759Y-72234637D01*
X83029637Y-72034759D01*
X83186680Y-71799727D01*
X83190984Y-71789337D01*
X89414000Y-78012354D01*
X89414001Y-79171344D01*
X89338880Y-79246465D01*
X89185995Y-79475273D01*
X89154000Y-79552515D01*
X89122005Y-79475273D01*
X88969120Y-79246465D01*
X88774535Y-79051880D01*
X88545727Y-78898995D01*
X88291490Y-78793686D01*
X88021592Y-78740000D01*
X87746408Y-78740000D01*
X87476510Y-78793686D01*
X87222273Y-78898995D01*
X86993465Y-79051880D01*
X86798880Y-79246465D01*
X86645995Y-79475273D01*
X86614000Y-79552515D01*
X86582005Y-79475273D01*
X86429120Y-79246465D01*
X86234535Y-79051880D01*
X86005727Y-78898995D01*
X85751490Y-78793686D01*
X85481592Y-78740000D01*
X85206408Y-78740000D01*
X84936510Y-78793686D01*
X84682273Y-78898995D01*
X84453465Y-79051880D01*
X84258880Y-79246465D01*
X84105995Y-79475273D01*
X84074000Y-79552515D01*
X84042005Y-79475273D01*
X83889120Y-79246465D01*
X83694535Y-79051880D01*
X83465727Y-78898995D01*
X83211490Y-78793686D01*
X82941592Y-78740000D01*
X82666408Y-78740000D01*
X82396510Y-78793686D01*
X82142273Y-78898995D01*
X81913465Y-79051880D01*
X81718880Y-79246465D01*
X81565995Y-79475273D01*
X81534000Y-79552515D01*
X81502005Y-79475273D01*
X81349120Y-79246465D01*
X81154535Y-79051880D01*
X80925727Y-78898995D01*
X80671490Y-78793686D01*
X80401592Y-78740000D01*
X80126408Y-78740000D01*
X79856510Y-78793686D01*
X79602273Y-78898995D01*
X79373465Y-79051880D01*
X79178880Y-79246465D01*
X79025995Y-79475273D01*
X78994000Y-79552515D01*
X78962005Y-79475273D01*
X78809120Y-79246465D01*
X78614535Y-79051880D01*
X78385727Y-78898995D01*
X78131490Y-78793686D01*
X77861592Y-78740000D01*
X77586408Y-78740000D01*
X77316510Y-78793686D01*
X77062273Y-78898995D01*
X76833465Y-79051880D01*
X76638880Y-79246465D01*
X76485995Y-79475273D01*
X76454000Y-79552515D01*
X76422005Y-79475273D01*
X76269120Y-79246465D01*
X76074535Y-79051880D01*
X75845727Y-78898995D01*
X75591490Y-78793686D01*
X75321592Y-78740000D01*
X75046408Y-78740000D01*
X74776510Y-78793686D01*
X74522273Y-78898995D01*
X74293465Y-79051880D01*
X74098880Y-79246465D01*
X73945995Y-79475273D01*
X73914000Y-79552515D01*
X73882005Y-79475273D01*
X73729120Y-79246465D01*
X73534535Y-79051880D01*
X73305727Y-78898995D01*
X73051490Y-78793686D01*
X72781592Y-78740000D01*
X72506408Y-78740000D01*
X72236510Y-78793686D01*
X71982273Y-78898995D01*
X71753465Y-79051880D01*
X71558880Y-79246465D01*
X71405995Y-79475273D01*
X71374000Y-79552515D01*
X71342005Y-79475273D01*
X71189120Y-79246465D01*
X70994535Y-79051880D01*
X70765727Y-78898995D01*
X70511490Y-78793686D01*
X70241592Y-78740000D01*
X69966408Y-78740000D01*
X69696510Y-78793686D01*
X69442273Y-78898995D01*
X69213465Y-79051880D01*
X69018880Y-79246465D01*
X68865995Y-79475273D01*
X68834000Y-79552515D01*
X68802005Y-79475273D01*
X68649120Y-79246465D01*
X68454535Y-79051880D01*
X68225727Y-78898995D01*
X67971490Y-78793686D01*
X67701592Y-78740000D01*
X67426408Y-78740000D01*
X67156510Y-78793686D01*
X66902273Y-78898995D01*
X66673465Y-79051880D01*
X66478880Y-79246465D01*
X66325995Y-79475273D01*
X66294000Y-79552515D01*
X66262005Y-79475273D01*
X66109120Y-79246465D01*
X65914535Y-79051880D01*
X65685727Y-78898995D01*
X65431490Y-78793686D01*
X65161592Y-78740000D01*
X64886408Y-78740000D01*
X64616510Y-78793686D01*
X64362273Y-78898995D01*
X64133465Y-79051880D01*
X63938880Y-79246465D01*
X63785995Y-79475273D01*
X63754000Y-79552515D01*
X63722005Y-79475273D01*
X63569120Y-79246465D01*
X63374535Y-79051880D01*
X63145727Y-78898995D01*
X62891490Y-78793686D01*
X62621592Y-78740000D01*
X62346408Y-78740000D01*
X62076510Y-78793686D01*
X61822273Y-78898995D01*
X61593465Y-79051880D01*
X61398880Y-79246465D01*
X61245995Y-79475273D01*
X61214000Y-79552515D01*
X61182005Y-79475273D01*
X61029120Y-79246465D01*
X60834535Y-79051880D01*
X60605727Y-78898995D01*
X60351490Y-78793686D01*
X60081592Y-78740000D01*
X59806408Y-78740000D01*
X59536510Y-78793686D01*
X59282273Y-78898995D01*
X59053465Y-79051880D01*
X58858880Y-79246465D01*
X58705995Y-79475273D01*
X58674000Y-79552515D01*
X58642005Y-79475273D01*
X58489120Y-79246465D01*
X58294535Y-79051880D01*
X58065727Y-78898995D01*
X57811490Y-78793686D01*
X57541592Y-78740000D01*
X57266408Y-78740000D01*
X56996510Y-78793686D01*
X56742273Y-78898995D01*
X56513465Y-79051880D01*
X56318880Y-79246465D01*
X56165995Y-79475273D01*
X56060686Y-79729510D01*
X56007000Y-79999408D01*
X56007000Y-80274592D01*
X56060686Y-80544490D01*
X56165995Y-80798727D01*
X56318880Y-81027535D01*
X56513465Y-81222120D01*
X56742273Y-81375005D01*
X56996510Y-81480314D01*
X57266408Y-81534000D01*
X57541592Y-81534000D01*
X57811490Y-81480314D01*
X58065727Y-81375005D01*
X58294535Y-81222120D01*
X58489120Y-81027535D01*
X58642005Y-80798727D01*
X58674000Y-80721485D01*
X58705995Y-80798727D01*
X58858880Y-81027535D01*
X59053465Y-81222120D01*
X59282273Y-81375005D01*
X59536510Y-81480314D01*
X59806408Y-81534000D01*
X60081592Y-81534000D01*
X60351490Y-81480314D01*
X60605727Y-81375005D01*
X60834535Y-81222120D01*
X61029120Y-81027535D01*
X61182005Y-80798727D01*
X61214000Y-80721485D01*
X61245995Y-80798727D01*
X61398880Y-81027535D01*
X61593465Y-81222120D01*
X61822273Y-81375005D01*
X62076510Y-81480314D01*
X62346408Y-81534000D01*
X62621592Y-81534000D01*
X62891490Y-81480314D01*
X63145727Y-81375005D01*
X63374535Y-81222120D01*
X63569120Y-81027535D01*
X63722005Y-80798727D01*
X63754000Y-80721485D01*
X63785995Y-80798727D01*
X63938880Y-81027535D01*
X64133465Y-81222120D01*
X64362273Y-81375005D01*
X64616510Y-81480314D01*
X64886408Y-81534000D01*
X65161592Y-81534000D01*
X65431490Y-81480314D01*
X65685727Y-81375005D01*
X65914535Y-81222120D01*
X66109120Y-81027535D01*
X66262005Y-80798727D01*
X66294000Y-80721485D01*
X66325995Y-80798727D01*
X66478880Y-81027535D01*
X66673465Y-81222120D01*
X66902273Y-81375005D01*
X67156510Y-81480314D01*
X67426408Y-81534000D01*
X67701592Y-81534000D01*
X67971490Y-81480314D01*
X68225727Y-81375005D01*
X68454535Y-81222120D01*
X68649120Y-81027535D01*
X68802005Y-80798727D01*
X68834000Y-80721485D01*
X68865995Y-80798727D01*
X69018880Y-81027535D01*
X69213465Y-81222120D01*
X69442273Y-81375005D01*
X69696510Y-81480314D01*
X69966408Y-81534000D01*
X70241592Y-81534000D01*
X70511490Y-81480314D01*
X70765727Y-81375005D01*
X70994535Y-81222120D01*
X71189120Y-81027535D01*
X71342005Y-80798727D01*
X71374000Y-80721485D01*
X71405995Y-80798727D01*
X71558880Y-81027535D01*
X71753465Y-81222120D01*
X71982273Y-81375005D01*
X72236510Y-81480314D01*
X72506408Y-81534000D01*
X72781592Y-81534000D01*
X73051490Y-81480314D01*
X73305727Y-81375005D01*
X73534535Y-81222120D01*
X73729120Y-81027535D01*
X73882005Y-80798727D01*
X73914000Y-80721485D01*
X73945995Y-80798727D01*
X74098880Y-81027535D01*
X74293465Y-81222120D01*
X74522273Y-81375005D01*
X74776510Y-81480314D01*
X75046408Y-81534000D01*
X75321592Y-81534000D01*
X75591490Y-81480314D01*
X75845727Y-81375005D01*
X76074535Y-81222120D01*
X76269120Y-81027535D01*
X76422005Y-80798727D01*
X76454000Y-80721485D01*
X76485995Y-80798727D01*
X76638880Y-81027535D01*
X76833465Y-81222120D01*
X77062273Y-81375005D01*
X77316510Y-81480314D01*
X77586408Y-81534000D01*
X77861592Y-81534000D01*
X78131490Y-81480314D01*
X78385727Y-81375005D01*
X78614535Y-81222120D01*
X78809120Y-81027535D01*
X78962005Y-80798727D01*
X78994000Y-80721485D01*
X79025995Y-80798727D01*
X79178880Y-81027535D01*
X79373465Y-81222120D01*
X79602273Y-81375005D01*
X79856510Y-81480314D01*
X80126408Y-81534000D01*
X80401592Y-81534000D01*
X80671490Y-81480314D01*
X80925727Y-81375005D01*
X81154535Y-81222120D01*
X81349120Y-81027535D01*
X81502005Y-80798727D01*
X81534000Y-80721485D01*
X81565995Y-80798727D01*
X81718880Y-81027535D01*
X81913465Y-81222120D01*
X82142273Y-81375005D01*
X82396510Y-81480314D01*
X82666408Y-81534000D01*
X82941592Y-81534000D01*
X83211490Y-81480314D01*
X83465727Y-81375005D01*
X83694535Y-81222120D01*
X83889120Y-81027535D01*
X84042005Y-80798727D01*
X84074000Y-80721485D01*
X84105995Y-80798727D01*
X84258880Y-81027535D01*
X84453465Y-81222120D01*
X84682273Y-81375005D01*
X84936510Y-81480314D01*
X85206408Y-81534000D01*
X85481592Y-81534000D01*
X85751490Y-81480314D01*
X86005727Y-81375005D01*
X86234535Y-81222120D01*
X86429120Y-81027535D01*
X86582005Y-80798727D01*
X86614000Y-80721485D01*
X86645995Y-80798727D01*
X86798880Y-81027535D01*
X86993465Y-81222120D01*
X87222273Y-81375005D01*
X87476510Y-81480314D01*
X87746408Y-81534000D01*
X88021592Y-81534000D01*
X88291490Y-81480314D01*
X88545727Y-81375005D01*
X88774535Y-81222120D01*
X88969120Y-81027535D01*
X89122005Y-80798727D01*
X89154000Y-80721485D01*
X89185995Y-80798727D01*
X89338880Y-81027535D01*
X89414000Y-81102655D01*
X89414001Y-86183382D01*
X89409114Y-86233000D01*
X89428615Y-86430994D01*
X89486368Y-86621379D01*
X89580154Y-86796840D01*
X89706368Y-86950633D01*
X89744901Y-86982256D01*
X105318928Y-102556284D01*
X105318928Y-103466000D01*
X105331188Y-103590482D01*
X105367498Y-103710180D01*
X105426463Y-103820494D01*
X105505815Y-103917185D01*
X105602506Y-103996537D01*
X105712820Y-104055502D01*
X105785380Y-104077513D01*
X105653525Y-104209368D01*
X105491010Y-104452589D01*
X105379068Y-104722842D01*
X105322000Y-105009740D01*
X105322000Y-105302260D01*
X105379068Y-105589158D01*
X105491010Y-105859411D01*
X105653525Y-106102632D01*
X105860368Y-106309475D01*
X106034760Y-106426000D01*
X105860368Y-106542525D01*
X105653525Y-106749368D01*
X105491010Y-106992589D01*
X105379068Y-107262842D01*
X105322000Y-107549740D01*
X105322000Y-107842260D01*
X105379068Y-108129158D01*
X105491010Y-108399411D01*
X105653525Y-108642632D01*
X105860368Y-108849475D01*
X106034760Y-108966000D01*
X105860368Y-109082525D01*
X105653525Y-109289368D01*
X105491010Y-109532589D01*
X105379068Y-109802842D01*
X105322000Y-110089740D01*
X105322000Y-110382260D01*
X105379068Y-110669158D01*
X105491010Y-110939411D01*
X105653525Y-111182632D01*
X105860368Y-111389475D01*
X106103589Y-111551990D01*
X106373842Y-111663932D01*
X106660740Y-111721000D01*
X106953260Y-111721000D01*
X107240158Y-111663932D01*
X107510411Y-111551990D01*
X107753632Y-111389475D01*
X107960475Y-111182632D01*
X108122990Y-110939411D01*
X108234932Y-110669158D01*
X108292000Y-110382260D01*
X108292000Y-110089740D01*
X108234932Y-109802842D01*
X108122990Y-109532589D01*
X107960475Y-109289368D01*
X107753632Y-109082525D01*
X107579240Y-108966000D01*
X107753632Y-108849475D01*
X107897107Y-108706000D01*
X122197909Y-108706000D01*
X122247517Y-108710886D01*
X122297122Y-108706000D01*
X122297125Y-108706000D01*
X122445511Y-108691385D01*
X122635897Y-108633632D01*
X122811357Y-108539847D01*
X122965150Y-108413633D01*
X122996778Y-108375094D01*
X123976014Y-107395858D01*
X123976019Y-107395852D01*
X126731251Y-104640620D01*
X129518104Y-101853768D01*
X129556643Y-101822140D01*
X129588275Y-101783596D01*
X132879355Y-98492516D01*
X151768876Y-98492516D01*
X151818484Y-98497402D01*
X152016478Y-98477901D01*
X152206864Y-98420148D01*
X152382324Y-98326363D01*
X152536117Y-98200149D01*
X152567745Y-98161610D01*
X156622356Y-94107000D01*
X156728592Y-94107000D01*
X156998490Y-94053314D01*
X157252727Y-93948005D01*
X157481535Y-93795120D01*
X157676120Y-93600535D01*
X157829005Y-93371727D01*
X157934314Y-93117490D01*
X157988000Y-92847592D01*
X157988000Y-92572408D01*
X157934314Y-92302510D01*
X157829005Y-92048273D01*
X157676120Y-91819465D01*
X157481535Y-91624880D01*
X157252727Y-91471995D01*
X157181057Y-91442308D01*
X157194023Y-91437636D01*
X157309980Y-91375656D01*
X157376960Y-91135565D01*
X156591000Y-90349605D01*
X155805040Y-91135565D01*
X155872020Y-91375656D01*
X156007760Y-91439485D01*
X155929273Y-91471995D01*
X155700465Y-91624880D01*
X155505880Y-91819465D01*
X155352995Y-92048273D01*
X155247686Y-92302510D01*
X155194000Y-92572408D01*
X155194000Y-92678644D01*
X151400129Y-96472516D01*
X133471000Y-96472516D01*
X133471000Y-93675655D01*
X133546120Y-93600535D01*
X133699005Y-93371727D01*
X133804314Y-93117490D01*
X133858000Y-92847592D01*
X133858000Y-92572408D01*
X133804314Y-92302510D01*
X133699005Y-92048273D01*
X133546120Y-91819465D01*
X133351535Y-91624880D01*
X133122727Y-91471995D01*
X133051057Y-91442308D01*
X133064023Y-91437636D01*
X133179980Y-91375656D01*
X133246960Y-91135565D01*
X132461000Y-90349605D01*
X131675040Y-91135565D01*
X131742020Y-91375656D01*
X131877760Y-91439485D01*
X131799273Y-91471995D01*
X131570465Y-91624880D01*
X131375880Y-91819465D01*
X131222995Y-92048273D01*
X131117686Y-92302510D01*
X131064000Y-92572408D01*
X131064000Y-92847592D01*
X131117686Y-93117490D01*
X131222995Y-93371727D01*
X131375880Y-93600535D01*
X131451000Y-93675655D01*
X131451001Y-97064160D01*
X129849010Y-98666151D01*
X129849010Y-90242017D01*
X131059090Y-90242017D01*
X131100078Y-90514133D01*
X131193364Y-90773023D01*
X131255344Y-90888980D01*
X131495435Y-90955960D01*
X132281395Y-90170000D01*
X132640605Y-90170000D01*
X133426565Y-90955960D01*
X133666656Y-90888980D01*
X133783756Y-90639952D01*
X133850023Y-90372865D01*
X133862910Y-90097983D01*
X133821922Y-89825867D01*
X133728636Y-89566977D01*
X133666656Y-89451020D01*
X133426565Y-89384040D01*
X132640605Y-90170000D01*
X132281395Y-90170000D01*
X131495435Y-89384040D01*
X131255344Y-89451020D01*
X131138244Y-89700048D01*
X131071977Y-89967135D01*
X131059090Y-90242017D01*
X129849010Y-90242017D01*
X129849010Y-81510345D01*
X131088515Y-80270840D01*
X131117686Y-80417490D01*
X131222995Y-80671727D01*
X131375880Y-80900535D01*
X131570465Y-81095120D01*
X131799273Y-81248005D01*
X131876515Y-81280000D01*
X131799273Y-81311995D01*
X131570465Y-81464880D01*
X131375880Y-81659465D01*
X131222995Y-81888273D01*
X131117686Y-82142510D01*
X131064000Y-82412408D01*
X131064000Y-82687592D01*
X131117686Y-82957490D01*
X131222995Y-83211727D01*
X131375880Y-83440535D01*
X131570465Y-83635120D01*
X131799273Y-83788005D01*
X131876515Y-83820000D01*
X131799273Y-83851995D01*
X131570465Y-84004880D01*
X131375880Y-84199465D01*
X131222995Y-84428273D01*
X131117686Y-84682510D01*
X131064000Y-84952408D01*
X131064000Y-85227592D01*
X131117686Y-85497490D01*
X131222995Y-85751727D01*
X131375880Y-85980535D01*
X131570465Y-86175120D01*
X131799273Y-86328005D01*
X131876515Y-86360000D01*
X131799273Y-86391995D01*
X131570465Y-86544880D01*
X131375880Y-86739465D01*
X131222995Y-86968273D01*
X131117686Y-87222510D01*
X131064000Y-87492408D01*
X131064000Y-87767592D01*
X131117686Y-88037490D01*
X131222995Y-88291727D01*
X131375880Y-88520535D01*
X131570465Y-88715120D01*
X131799273Y-88868005D01*
X131870943Y-88897692D01*
X131857977Y-88902364D01*
X131742020Y-88964344D01*
X131675040Y-89204435D01*
X132461000Y-89990395D01*
X133246960Y-89204435D01*
X133179980Y-88964344D01*
X133044240Y-88900515D01*
X133122727Y-88868005D01*
X133351535Y-88715120D01*
X133546120Y-88520535D01*
X133699005Y-88291727D01*
X133804314Y-88037490D01*
X133858000Y-87767592D01*
X133858000Y-87492408D01*
X133804314Y-87222510D01*
X133699005Y-86968273D01*
X133546120Y-86739465D01*
X133351535Y-86544880D01*
X133122727Y-86391995D01*
X133045485Y-86360000D01*
X133122727Y-86328005D01*
X133351535Y-86175120D01*
X133546120Y-85980535D01*
X133699005Y-85751727D01*
X133804314Y-85497490D01*
X133858000Y-85227592D01*
X133858000Y-84952408D01*
X133804314Y-84682510D01*
X133699005Y-84428273D01*
X133546120Y-84199465D01*
X133351535Y-84004880D01*
X133122727Y-83851995D01*
X133045485Y-83820000D01*
X133122727Y-83788005D01*
X133351535Y-83635120D01*
X133546120Y-83440535D01*
X133699005Y-83211727D01*
X133804314Y-82957490D01*
X133858000Y-82687592D01*
X133858000Y-82412408D01*
X133804314Y-82142510D01*
X133699005Y-81888273D01*
X133546120Y-81659465D01*
X133351535Y-81464880D01*
X133122727Y-81311995D01*
X133045485Y-81280000D01*
X133122727Y-81248005D01*
X133351535Y-81095120D01*
X133546120Y-80900535D01*
X133699005Y-80671727D01*
X133804314Y-80417490D01*
X133858000Y-80147592D01*
X133858000Y-79872408D01*
X133804314Y-79602510D01*
X133699005Y-79348273D01*
X133546120Y-79119465D01*
X133351535Y-78924880D01*
X133122727Y-78771995D01*
X133045485Y-78740000D01*
X133122727Y-78708005D01*
X133351535Y-78555120D01*
X133546120Y-78360535D01*
X133699005Y-78131727D01*
X133804314Y-77877490D01*
X133858000Y-77607592D01*
X133858000Y-77501355D01*
X136756356Y-74602999D01*
X142531676Y-74602999D01*
X142494000Y-74792408D01*
X142494000Y-75067592D01*
X142547686Y-75337490D01*
X142652995Y-75591727D01*
X142805880Y-75820535D01*
X143000465Y-76015120D01*
X143229273Y-76168005D01*
X143306515Y-76200000D01*
X143229273Y-76231995D01*
X143000465Y-76384880D01*
X142805880Y-76579465D01*
X142652995Y-76808273D01*
X142547686Y-77062510D01*
X142494000Y-77332408D01*
X142494000Y-77607592D01*
X142547686Y-77877490D01*
X142652995Y-78131727D01*
X142805880Y-78360535D01*
X143000465Y-78555120D01*
X143229273Y-78708005D01*
X143306515Y-78740000D01*
X143229273Y-78771995D01*
X143000465Y-78924880D01*
X142805880Y-79119465D01*
X142652995Y-79348273D01*
X142547686Y-79602510D01*
X142494000Y-79872408D01*
X142494000Y-80147592D01*
X142547686Y-80417490D01*
X142652995Y-80671727D01*
X142805880Y-80900535D01*
X143000465Y-81095120D01*
X143229273Y-81248005D01*
X143306515Y-81280000D01*
X143229273Y-81311995D01*
X143000465Y-81464880D01*
X142805880Y-81659465D01*
X142652995Y-81888273D01*
X142547686Y-82142510D01*
X142494000Y-82412408D01*
X142494000Y-82687592D01*
X142547686Y-82957490D01*
X142652995Y-83211727D01*
X142805880Y-83440535D01*
X143000465Y-83635120D01*
X143229273Y-83788005D01*
X143306515Y-83820000D01*
X143229273Y-83851995D01*
X143000465Y-84004880D01*
X142805880Y-84199465D01*
X142652995Y-84428273D01*
X142547686Y-84682510D01*
X142494000Y-84952408D01*
X142494000Y-85227592D01*
X142547686Y-85497490D01*
X142652995Y-85751727D01*
X142805880Y-85980535D01*
X143000465Y-86175120D01*
X143229273Y-86328005D01*
X143306515Y-86360000D01*
X143229273Y-86391995D01*
X143000465Y-86544880D01*
X142805880Y-86739465D01*
X142652995Y-86968273D01*
X142547686Y-87222510D01*
X142494000Y-87492408D01*
X142494000Y-87767592D01*
X142547686Y-88037490D01*
X142652995Y-88291727D01*
X142805880Y-88520535D01*
X143000465Y-88715120D01*
X143229273Y-88868005D01*
X143306515Y-88900000D01*
X143229273Y-88931995D01*
X143000465Y-89084880D01*
X142805880Y-89279465D01*
X142652995Y-89508273D01*
X142547686Y-89762510D01*
X142494000Y-90032408D01*
X142494000Y-90307592D01*
X142547686Y-90577490D01*
X142652995Y-90831727D01*
X142805880Y-91060535D01*
X143000465Y-91255120D01*
X143088465Y-91313920D01*
X143004518Y-91322188D01*
X142884820Y-91358498D01*
X142774506Y-91417463D01*
X142677815Y-91496815D01*
X142598463Y-91593506D01*
X142539498Y-91703820D01*
X142503188Y-91823518D01*
X142490928Y-91948000D01*
X142490928Y-93472000D01*
X142503188Y-93596482D01*
X142539498Y-93716180D01*
X142598463Y-93826494D01*
X142677815Y-93923185D01*
X142774506Y-94002537D01*
X142884820Y-94061502D01*
X143004518Y-94097812D01*
X143129000Y-94110072D01*
X144653000Y-94110072D01*
X144777482Y-94097812D01*
X144897180Y-94061502D01*
X145007494Y-94002537D01*
X145104185Y-93923185D01*
X145183537Y-93826494D01*
X145242502Y-93716180D01*
X145278812Y-93596482D01*
X145291072Y-93472000D01*
X145291072Y-91948000D01*
X145278812Y-91823518D01*
X145242502Y-91703820D01*
X145183537Y-91593506D01*
X145104185Y-91496815D01*
X145007494Y-91417463D01*
X144897180Y-91358498D01*
X144777482Y-91322188D01*
X144693535Y-91313920D01*
X144781535Y-91255120D01*
X144976120Y-91060535D01*
X145129005Y-90831727D01*
X145234314Y-90577490D01*
X145288000Y-90307592D01*
X145288000Y-90242017D01*
X155189090Y-90242017D01*
X155230078Y-90514133D01*
X155323364Y-90773023D01*
X155385344Y-90888980D01*
X155625435Y-90955960D01*
X156411395Y-90170000D01*
X156770605Y-90170000D01*
X157556565Y-90955960D01*
X157796656Y-90888980D01*
X157913756Y-90639952D01*
X157980023Y-90372865D01*
X157992910Y-90097983D01*
X157951922Y-89825867D01*
X157858636Y-89566977D01*
X157796656Y-89451020D01*
X157556565Y-89384040D01*
X156770605Y-90170000D01*
X156411395Y-90170000D01*
X155625435Y-89384040D01*
X155385344Y-89451020D01*
X155268244Y-89700048D01*
X155201977Y-89967135D01*
X155189090Y-90242017D01*
X145288000Y-90242017D01*
X145288000Y-90032408D01*
X145234314Y-89762510D01*
X145129005Y-89508273D01*
X144976120Y-89279465D01*
X144781535Y-89084880D01*
X144552727Y-88931995D01*
X144475485Y-88900000D01*
X144552727Y-88868005D01*
X144781535Y-88715120D01*
X144976120Y-88520535D01*
X145129005Y-88291727D01*
X145234314Y-88037490D01*
X145288000Y-87767592D01*
X145288000Y-87492408D01*
X145234314Y-87222510D01*
X145129005Y-86968273D01*
X144976120Y-86739465D01*
X144781535Y-86544880D01*
X144552727Y-86391995D01*
X144475485Y-86360000D01*
X144552727Y-86328005D01*
X144781535Y-86175120D01*
X144976120Y-85980535D01*
X145129005Y-85751727D01*
X145234314Y-85497490D01*
X145288000Y-85227592D01*
X145288000Y-84952408D01*
X145234314Y-84682510D01*
X145129005Y-84428273D01*
X144976120Y-84199465D01*
X144781535Y-84004880D01*
X144552727Y-83851995D01*
X144475485Y-83820000D01*
X144552727Y-83788005D01*
X144781535Y-83635120D01*
X144976120Y-83440535D01*
X145129005Y-83211727D01*
X145234314Y-82957490D01*
X145288000Y-82687592D01*
X145288000Y-82412408D01*
X145234314Y-82142510D01*
X145129005Y-81888273D01*
X144976120Y-81659465D01*
X144781535Y-81464880D01*
X144552727Y-81311995D01*
X144475485Y-81280000D01*
X144552727Y-81248005D01*
X144781535Y-81095120D01*
X144976120Y-80900535D01*
X145129005Y-80671727D01*
X145234314Y-80417490D01*
X145288000Y-80147592D01*
X145288000Y-79872408D01*
X145234314Y-79602510D01*
X145129005Y-79348273D01*
X144976120Y-79119465D01*
X144781535Y-78924880D01*
X144552727Y-78771995D01*
X144475485Y-78740000D01*
X144552727Y-78708005D01*
X144781535Y-78555120D01*
X144976120Y-78360535D01*
X145129005Y-78131727D01*
X145234314Y-77877490D01*
X145288000Y-77607592D01*
X145288000Y-77332408D01*
X145234314Y-77062510D01*
X145129005Y-76808273D01*
X144976120Y-76579465D01*
X144781535Y-76384880D01*
X144552727Y-76231995D01*
X144475485Y-76200000D01*
X144552727Y-76168005D01*
X144781535Y-76015120D01*
X144976120Y-75820535D01*
X145129005Y-75591727D01*
X145161000Y-75514485D01*
X145192995Y-75591727D01*
X145345880Y-75820535D01*
X145540465Y-76015120D01*
X145769273Y-76168005D01*
X146023510Y-76273314D01*
X146293408Y-76327000D01*
X146327155Y-76327000D01*
X146304000Y-76443408D01*
X146304000Y-76718592D01*
X146357686Y-76988490D01*
X146462995Y-77242727D01*
X146615880Y-77471535D01*
X146810465Y-77666120D01*
X147039273Y-77819005D01*
X147293510Y-77924314D01*
X147563408Y-77978000D01*
X147838592Y-77978000D01*
X148108490Y-77924314D01*
X148362727Y-77819005D01*
X148591535Y-77666120D01*
X148786120Y-77471535D01*
X148939005Y-77242727D01*
X149044314Y-76988490D01*
X149098000Y-76718592D01*
X149098000Y-76443408D01*
X149074845Y-76327000D01*
X149108592Y-76327000D01*
X149378490Y-76273314D01*
X149632727Y-76168005D01*
X149861535Y-76015120D01*
X150056120Y-75820535D01*
X150209005Y-75591727D01*
X150314314Y-75337490D01*
X150368000Y-75067592D01*
X150368000Y-74792408D01*
X150330324Y-74602999D01*
X152295644Y-74602999D01*
X155194000Y-77501355D01*
X155194000Y-77607592D01*
X155247686Y-77877490D01*
X155352995Y-78131727D01*
X155505880Y-78360535D01*
X155700465Y-78555120D01*
X155929273Y-78708005D01*
X156006515Y-78740000D01*
X155929273Y-78771995D01*
X155700465Y-78924880D01*
X155505880Y-79119465D01*
X155352995Y-79348273D01*
X155247686Y-79602510D01*
X155194000Y-79872408D01*
X155194000Y-80147592D01*
X155247686Y-80417490D01*
X155352995Y-80671727D01*
X155505880Y-80900535D01*
X155700465Y-81095120D01*
X155929273Y-81248005D01*
X156006515Y-81280000D01*
X155929273Y-81311995D01*
X155700465Y-81464880D01*
X155505880Y-81659465D01*
X155352995Y-81888273D01*
X155247686Y-82142510D01*
X155194000Y-82412408D01*
X155194000Y-82687592D01*
X155247686Y-82957490D01*
X155352995Y-83211727D01*
X155505880Y-83440535D01*
X155700465Y-83635120D01*
X155929273Y-83788005D01*
X156006515Y-83820000D01*
X155929273Y-83851995D01*
X155700465Y-84004880D01*
X155505880Y-84199465D01*
X155352995Y-84428273D01*
X155247686Y-84682510D01*
X155194000Y-84952408D01*
X155194000Y-85227592D01*
X155247686Y-85497490D01*
X155352995Y-85751727D01*
X155505880Y-85980535D01*
X155700465Y-86175120D01*
X155929273Y-86328005D01*
X156006515Y-86360000D01*
X155929273Y-86391995D01*
X155700465Y-86544880D01*
X155505880Y-86739465D01*
X155352995Y-86968273D01*
X155247686Y-87222510D01*
X155194000Y-87492408D01*
X155194000Y-87767592D01*
X155247686Y-88037490D01*
X155352995Y-88291727D01*
X155505880Y-88520535D01*
X155700465Y-88715120D01*
X155929273Y-88868005D01*
X156000943Y-88897692D01*
X155987977Y-88902364D01*
X155872020Y-88964344D01*
X155805040Y-89204435D01*
X156591000Y-89990395D01*
X157376960Y-89204435D01*
X157309980Y-88964344D01*
X157174240Y-88900515D01*
X157252727Y-88868005D01*
X157481535Y-88715120D01*
X157676120Y-88520535D01*
X157829005Y-88291727D01*
X157934314Y-88037490D01*
X157988000Y-87767592D01*
X157988000Y-87492408D01*
X157934314Y-87222510D01*
X157829005Y-86968273D01*
X157676120Y-86739465D01*
X157481535Y-86544880D01*
X157252727Y-86391995D01*
X157175485Y-86360000D01*
X157252727Y-86328005D01*
X157481535Y-86175120D01*
X157676120Y-85980535D01*
X157829005Y-85751727D01*
X157934314Y-85497490D01*
X157988000Y-85227592D01*
X157988000Y-84952408D01*
X157934314Y-84682510D01*
X157829005Y-84428273D01*
X157676120Y-84199465D01*
X157481535Y-84004880D01*
X157252727Y-83851995D01*
X157175485Y-83820000D01*
X157252727Y-83788005D01*
X157481535Y-83635120D01*
X157676120Y-83440535D01*
X157829005Y-83211727D01*
X157934314Y-82957490D01*
X157988000Y-82687592D01*
X157988000Y-82412408D01*
X157934314Y-82142510D01*
X157829005Y-81888273D01*
X157676120Y-81659465D01*
X157481535Y-81464880D01*
X157252727Y-81311995D01*
X157175485Y-81280000D01*
X157252727Y-81248005D01*
X157481535Y-81095120D01*
X157676120Y-80900535D01*
X157829005Y-80671727D01*
X157934314Y-80417490D01*
X157988000Y-80147592D01*
X157988000Y-79872408D01*
X157934314Y-79602510D01*
X157829005Y-79348273D01*
X157676120Y-79119465D01*
X157481535Y-78924880D01*
X157252727Y-78771995D01*
X157175485Y-78740000D01*
X157252727Y-78708005D01*
X157481535Y-78555120D01*
X157676120Y-78360535D01*
X157829005Y-78131727D01*
X157934314Y-77877490D01*
X157988000Y-77607592D01*
X157988000Y-77332408D01*
X157934314Y-77062510D01*
X157829005Y-76808273D01*
X157676120Y-76579465D01*
X157481535Y-76384880D01*
X157252727Y-76231995D01*
X157175485Y-76200000D01*
X157252727Y-76168005D01*
X157481535Y-76015120D01*
X157676120Y-75820535D01*
X157829005Y-75591727D01*
X157934314Y-75337490D01*
X157988000Y-75067592D01*
X157988000Y-74792408D01*
X157934314Y-74522510D01*
X157829005Y-74268273D01*
X157676120Y-74039465D01*
X157601000Y-73964345D01*
X157601000Y-73074608D01*
X157605886Y-73025000D01*
X157586385Y-72827005D01*
X157528632Y-72636620D01*
X157485005Y-72555000D01*
X157434847Y-72461160D01*
X157308633Y-72307367D01*
X157270099Y-72275743D01*
X156578260Y-71583905D01*
X156546633Y-71545367D01*
X156392840Y-71419153D01*
X156217380Y-71325368D01*
X156026994Y-71267615D01*
X155878608Y-71253000D01*
X155829000Y-71248114D01*
X155779392Y-71253000D01*
X135177608Y-71253000D01*
X135128000Y-71248114D01*
X134930005Y-71267615D01*
X134739620Y-71325368D01*
X134564160Y-71419153D01*
X134410367Y-71545367D01*
X134378744Y-71583900D01*
X132429645Y-73533000D01*
X132323408Y-73533000D01*
X132053510Y-73586686D01*
X131799273Y-73691995D01*
X131570465Y-73844880D01*
X131375880Y-74039465D01*
X131222995Y-74268273D01*
X131117686Y-74522510D01*
X131064000Y-74792408D01*
X131064000Y-74898645D01*
X127590906Y-78371739D01*
X127590900Y-78371744D01*
X125939901Y-80022744D01*
X125901368Y-80054367D01*
X125869745Y-80092900D01*
X125869744Y-80092901D01*
X125775154Y-80208160D01*
X125681368Y-80383621D01*
X125623615Y-80574006D01*
X125604114Y-80772000D01*
X125609001Y-80821618D01*
X125609000Y-100165645D01*
X121755645Y-104019000D01*
X119912568Y-104019000D01*
X119986870Y-103988223D01*
X120606797Y-103574001D01*
X121134001Y-103046797D01*
X121548223Y-102426870D01*
X121833545Y-101738044D01*
X121979000Y-101006790D01*
X121979000Y-100261210D01*
X121833545Y-99529956D01*
X121548223Y-98841130D01*
X121134001Y-98221203D01*
X120606797Y-97693999D01*
X119986870Y-97279777D01*
X119298044Y-96994455D01*
X118566790Y-96849000D01*
X117821210Y-96849000D01*
X117089956Y-96994455D01*
X116401130Y-97279777D01*
X115781203Y-97693999D01*
X115253999Y-98221203D01*
X114839777Y-98841130D01*
X114554455Y-99529956D01*
X114409000Y-100261210D01*
X114409000Y-101006790D01*
X114554455Y-101738044D01*
X114839777Y-102426870D01*
X115253999Y-103046797D01*
X115781203Y-103574001D01*
X116401130Y-103988223D01*
X116475432Y-104019000D01*
X107969469Y-104019000D01*
X108011494Y-103996537D01*
X108108185Y-103917185D01*
X108187537Y-103820494D01*
X108246502Y-103710180D01*
X108282812Y-103590482D01*
X108295072Y-103466000D01*
X108295072Y-101766000D01*
X108282812Y-101641518D01*
X108246502Y-101521820D01*
X108187537Y-101411506D01*
X108108185Y-101314815D01*
X108011494Y-101235463D01*
X107901180Y-101176498D01*
X107781482Y-101140188D01*
X107657000Y-101127928D01*
X106747284Y-101127928D01*
X91434000Y-85814645D01*
X91434000Y-81102655D01*
X91434090Y-81102565D01*
X92178040Y-81102565D01*
X92245020Y-81342656D01*
X92494048Y-81459756D01*
X92761135Y-81526023D01*
X93036017Y-81538910D01*
X93308133Y-81497922D01*
X93567023Y-81404636D01*
X93682980Y-81342656D01*
X93749960Y-81102565D01*
X92964000Y-80316605D01*
X92178040Y-81102565D01*
X91434090Y-81102565D01*
X91509120Y-81027535D01*
X91662005Y-80798727D01*
X91691692Y-80727057D01*
X91696364Y-80740023D01*
X91758344Y-80855980D01*
X91998435Y-80922960D01*
X92784395Y-80137000D01*
X93143605Y-80137000D01*
X93929565Y-80922960D01*
X94169656Y-80855980D01*
X94286756Y-80606952D01*
X94353023Y-80339865D01*
X94365910Y-80064983D01*
X94324922Y-79792867D01*
X94231636Y-79533977D01*
X94169656Y-79418020D01*
X93929565Y-79351040D01*
X93143605Y-80137000D01*
X92784395Y-80137000D01*
X91998435Y-79351040D01*
X91758344Y-79418020D01*
X91694515Y-79553760D01*
X91662005Y-79475273D01*
X91509120Y-79246465D01*
X91434090Y-79171435D01*
X92178040Y-79171435D01*
X92964000Y-79957395D01*
X93749960Y-79171435D01*
X93682980Y-78931344D01*
X93433952Y-78814244D01*
X93166865Y-78747977D01*
X92891983Y-78735090D01*
X92619867Y-78776078D01*
X92360977Y-78869364D01*
X92245020Y-78931344D01*
X92178040Y-79171435D01*
X91434090Y-79171435D01*
X91434000Y-79171345D01*
X91434000Y-77643606D01*
X91438886Y-77593998D01*
X91419385Y-77396003D01*
X91361632Y-77205618D01*
X91267846Y-77030157D01*
X91173256Y-76914898D01*
X91141633Y-76876365D01*
X91103100Y-76844742D01*
X85237023Y-70978665D01*
X88100000Y-70978665D01*
X88100000Y-71261335D01*
X88155147Y-71538574D01*
X88263320Y-71799727D01*
X88420363Y-72034759D01*
X88620241Y-72234637D01*
X88855273Y-72391680D01*
X89116426Y-72499853D01*
X89393665Y-72555000D01*
X89676335Y-72555000D01*
X89953574Y-72499853D01*
X90214727Y-72391680D01*
X90449759Y-72234637D01*
X90649637Y-72034759D01*
X90806680Y-71799727D01*
X90914853Y-71538574D01*
X90970000Y-71261335D01*
X90970000Y-70978665D01*
X90914853Y-70701426D01*
X90806680Y-70440273D01*
X90649637Y-70205241D01*
X90449759Y-70005363D01*
X90214727Y-69848320D01*
X89953574Y-69740147D01*
X89676335Y-69685000D01*
X89393665Y-69685000D01*
X89116426Y-69740147D01*
X88855273Y-69848320D01*
X88620241Y-70005363D01*
X88420363Y-70205241D01*
X88263320Y-70440273D01*
X88155147Y-70701426D01*
X88100000Y-70978665D01*
X85237023Y-70978665D01*
X83324262Y-69065905D01*
X83292634Y-69027366D01*
X83138841Y-68901152D01*
X82963381Y-68807367D01*
X82772995Y-68749614D01*
X82624609Y-68734999D01*
X82575001Y-68730113D01*
X82525393Y-68734999D01*
X81304603Y-68734999D01*
X81254998Y-68730113D01*
X81205393Y-68734999D01*
X81205391Y-68734999D01*
X81144453Y-68741001D01*
X63210072Y-68741001D01*
X63210072Y-67476000D01*
X63197812Y-67351518D01*
X63161502Y-67231820D01*
X63102537Y-67121506D01*
X63023185Y-67024815D01*
X62926494Y-66945463D01*
X62816180Y-66886498D01*
X62740374Y-66863502D01*
X62917178Y-66667355D01*
X62996813Y-66533665D01*
X71590000Y-66533665D01*
X71590000Y-66816335D01*
X71645147Y-67093574D01*
X71753320Y-67354727D01*
X71910363Y-67589759D01*
X72110241Y-67789637D01*
X72345273Y-67946680D01*
X72606426Y-68054853D01*
X72883665Y-68110000D01*
X73166335Y-68110000D01*
X73443574Y-68054853D01*
X73704727Y-67946680D01*
X73939759Y-67789637D01*
X74139637Y-67589759D01*
X74296680Y-67354727D01*
X74404853Y-67093574D01*
X74460000Y-66816335D01*
X74460000Y-66533665D01*
X79210000Y-66533665D01*
X79210000Y-66816335D01*
X79265147Y-67093574D01*
X79373320Y-67354727D01*
X79530363Y-67589759D01*
X79730241Y-67789637D01*
X79965273Y-67946680D01*
X80226426Y-68054853D01*
X80503665Y-68110000D01*
X80786335Y-68110000D01*
X81063574Y-68054853D01*
X81324727Y-67946680D01*
X81559759Y-67789637D01*
X81759637Y-67589759D01*
X81863043Y-67435000D01*
X101031199Y-67435000D01*
X118394628Y-84798430D01*
X118364000Y-84952408D01*
X118364000Y-85227592D01*
X118417686Y-85497490D01*
X118522995Y-85751727D01*
X118675880Y-85980535D01*
X118870465Y-86175120D01*
X119099273Y-86328005D01*
X119176515Y-86360000D01*
X119099273Y-86391995D01*
X118870465Y-86544880D01*
X118675880Y-86739465D01*
X118522995Y-86968273D01*
X118417686Y-87222510D01*
X118364000Y-87492408D01*
X118364000Y-87767592D01*
X118417686Y-88037490D01*
X118522995Y-88291727D01*
X118675880Y-88520535D01*
X118870465Y-88715120D01*
X119099273Y-88868005D01*
X119176515Y-88900000D01*
X119099273Y-88931995D01*
X118870465Y-89084880D01*
X118675880Y-89279465D01*
X118522995Y-89508273D01*
X118417686Y-89762510D01*
X118364000Y-90032408D01*
X118364000Y-90307592D01*
X118417686Y-90577490D01*
X118522995Y-90831727D01*
X118675880Y-91060535D01*
X118870465Y-91255120D01*
X118958465Y-91313920D01*
X118874518Y-91322188D01*
X118754820Y-91358498D01*
X118644506Y-91417463D01*
X118547815Y-91496815D01*
X118468463Y-91593506D01*
X118409498Y-91703820D01*
X118373188Y-91823518D01*
X118360928Y-91948000D01*
X118360928Y-93472000D01*
X118373188Y-93596482D01*
X118409498Y-93716180D01*
X118468463Y-93826494D01*
X118547815Y-93923185D01*
X118644506Y-94002537D01*
X118754820Y-94061502D01*
X118874518Y-94097812D01*
X118999000Y-94110072D01*
X120523000Y-94110072D01*
X120647482Y-94097812D01*
X120767180Y-94061502D01*
X120877494Y-94002537D01*
X120974185Y-93923185D01*
X121053537Y-93826494D01*
X121112502Y-93716180D01*
X121148812Y-93596482D01*
X121161072Y-93472000D01*
X121161072Y-91948000D01*
X121148812Y-91823518D01*
X121112502Y-91703820D01*
X121053537Y-91593506D01*
X120974185Y-91496815D01*
X120877494Y-91417463D01*
X120767180Y-91358498D01*
X120647482Y-91322188D01*
X120563535Y-91313920D01*
X120651535Y-91255120D01*
X120846120Y-91060535D01*
X120999005Y-90831727D01*
X121104314Y-90577490D01*
X121158000Y-90307592D01*
X121158000Y-90032408D01*
X121104314Y-89762510D01*
X120999005Y-89508273D01*
X120846120Y-89279465D01*
X120651535Y-89084880D01*
X120422727Y-88931995D01*
X120345485Y-88900000D01*
X120422727Y-88868005D01*
X120651535Y-88715120D01*
X120846120Y-88520535D01*
X120999005Y-88291727D01*
X121104314Y-88037490D01*
X121158000Y-87767592D01*
X121158000Y-87492408D01*
X121104314Y-87222510D01*
X120999005Y-86968273D01*
X120846120Y-86739465D01*
X120651535Y-86544880D01*
X120422727Y-86391995D01*
X120345485Y-86360000D01*
X120422727Y-86328005D01*
X120651535Y-86175120D01*
X120846120Y-85980535D01*
X120999005Y-85751727D01*
X121104314Y-85497490D01*
X121158000Y-85227592D01*
X121158000Y-84952408D01*
X121104314Y-84682510D01*
X120999005Y-84428273D01*
X120846120Y-84199465D01*
X120651535Y-84004880D01*
X120422727Y-83851995D01*
X120345485Y-83820000D01*
X120422727Y-83788005D01*
X120651535Y-83635120D01*
X120846120Y-83440535D01*
X120999005Y-83211727D01*
X121104314Y-82957490D01*
X121158000Y-82687592D01*
X121158000Y-82412408D01*
X121104314Y-82142510D01*
X120999005Y-81888273D01*
X120846120Y-81659465D01*
X120651535Y-81464880D01*
X120422727Y-81311995D01*
X120345485Y-81280000D01*
X120422727Y-81248005D01*
X120651535Y-81095120D01*
X120846120Y-80900535D01*
X120999005Y-80671727D01*
X121104314Y-80417490D01*
X121158000Y-80147592D01*
X121158000Y-79872408D01*
X121104314Y-79602510D01*
X120999005Y-79348273D01*
X120846120Y-79119465D01*
X120651535Y-78924880D01*
X120422727Y-78771995D01*
X120345485Y-78740000D01*
X120422727Y-78708005D01*
X120651535Y-78555120D01*
X120846120Y-78360535D01*
X120999005Y-78131727D01*
X121104314Y-77877490D01*
X121158000Y-77607592D01*
X121158000Y-77332408D01*
X121104314Y-77062510D01*
X120999005Y-76808273D01*
X120846120Y-76579465D01*
X120651535Y-76384880D01*
X120422727Y-76231995D01*
X120345485Y-76200000D01*
X120422727Y-76168005D01*
X120651535Y-76015120D01*
X120846120Y-75820535D01*
X120999005Y-75591727D01*
X121031000Y-75514485D01*
X121062995Y-75591727D01*
X121215880Y-75820535D01*
X121410465Y-76015120D01*
X121639273Y-76168005D01*
X121893510Y-76273314D01*
X122163408Y-76327000D01*
X122197155Y-76327000D01*
X122174000Y-76443408D01*
X122174000Y-76718592D01*
X122227686Y-76988490D01*
X122332995Y-77242727D01*
X122485880Y-77471535D01*
X122680465Y-77666120D01*
X122909273Y-77819005D01*
X123163510Y-77924314D01*
X123433408Y-77978000D01*
X123708592Y-77978000D01*
X123978490Y-77924314D01*
X124232727Y-77819005D01*
X124461535Y-77666120D01*
X124656120Y-77471535D01*
X124809005Y-77242727D01*
X124914314Y-76988490D01*
X124968000Y-76718592D01*
X124968000Y-76443408D01*
X124944845Y-76327000D01*
X124978592Y-76327000D01*
X125248490Y-76273314D01*
X125502727Y-76168005D01*
X125731535Y-76015120D01*
X125926120Y-75820535D01*
X126079005Y-75591727D01*
X126184314Y-75337490D01*
X126238000Y-75067592D01*
X126238000Y-74792408D01*
X126184314Y-74522510D01*
X126079005Y-74268273D01*
X125926120Y-74039465D01*
X125731535Y-73844880D01*
X125502727Y-73691995D01*
X125248490Y-73586686D01*
X124978592Y-73533000D01*
X124703408Y-73533000D01*
X124433510Y-73586686D01*
X124179273Y-73691995D01*
X123950465Y-73844880D01*
X123755880Y-74039465D01*
X123602995Y-74268273D01*
X123571000Y-74345515D01*
X123539005Y-74268273D01*
X123386120Y-74039465D01*
X123191535Y-73844880D01*
X122962727Y-73691995D01*
X122708490Y-73586686D01*
X122438592Y-73533000D01*
X122163408Y-73533000D01*
X121893510Y-73586686D01*
X121639273Y-73691995D01*
X121410465Y-73844880D01*
X121215880Y-74039465D01*
X121062995Y-74268273D01*
X121031000Y-74345515D01*
X120999005Y-74268273D01*
X120846120Y-74039465D01*
X120651535Y-73844880D01*
X120422727Y-73691995D01*
X120168490Y-73586686D01*
X119898592Y-73533000D01*
X119623408Y-73533000D01*
X119353510Y-73586686D01*
X119099273Y-73691995D01*
X118870465Y-73844880D01*
X118675880Y-74039465D01*
X118522995Y-74268273D01*
X118417686Y-74522510D01*
X118364000Y-74792408D01*
X118364000Y-75067592D01*
X118417686Y-75337490D01*
X118522995Y-75591727D01*
X118675880Y-75820535D01*
X118870465Y-76015120D01*
X119099273Y-76168005D01*
X119176515Y-76200000D01*
X119099273Y-76231995D01*
X118870465Y-76384880D01*
X118675880Y-76579465D01*
X118522995Y-76808273D01*
X118417686Y-77062510D01*
X118364000Y-77332408D01*
X118364000Y-77607592D01*
X118417686Y-77877490D01*
X118522995Y-78131727D01*
X118675880Y-78360535D01*
X118870465Y-78555120D01*
X119099273Y-78708005D01*
X119176515Y-78740000D01*
X119099273Y-78771995D01*
X118870465Y-78924880D01*
X118675880Y-79119465D01*
X118522995Y-79348273D01*
X118417686Y-79602510D01*
X118364000Y-79872408D01*
X118364000Y-80147592D01*
X118417686Y-80417490D01*
X118522995Y-80671727D01*
X118675880Y-80900535D01*
X118870465Y-81095120D01*
X119099273Y-81248005D01*
X119176515Y-81280000D01*
X119099273Y-81311995D01*
X118870465Y-81464880D01*
X118675880Y-81659465D01*
X118522995Y-81888273D01*
X118417686Y-82142510D01*
X118364000Y-82412408D01*
X118364000Y-82618198D01*
X101909804Y-66164003D01*
X101886001Y-66134999D01*
X101770276Y-66040026D01*
X101638247Y-65969454D01*
X101494986Y-65925997D01*
X101383333Y-65915000D01*
X101383322Y-65915000D01*
X101346000Y-65911324D01*
X101308678Y-65915000D01*
X81863043Y-65915000D01*
X81759637Y-65760241D01*
X81570396Y-65571000D01*
X136687928Y-65571000D01*
X136687928Y-67271000D01*
X136700188Y-67395482D01*
X136736498Y-67515180D01*
X136795463Y-67625494D01*
X136874815Y-67722185D01*
X136971506Y-67801537D01*
X137081820Y-67860502D01*
X137201518Y-67896812D01*
X137326000Y-67909072D01*
X139026000Y-67909072D01*
X139150482Y-67896812D01*
X139270180Y-67860502D01*
X139380494Y-67801537D01*
X139477185Y-67722185D01*
X139556537Y-67625494D01*
X139615502Y-67515180D01*
X139637513Y-67442620D01*
X139769368Y-67574475D01*
X140012589Y-67736990D01*
X140282842Y-67848932D01*
X140569740Y-67906000D01*
X140862260Y-67906000D01*
X141149158Y-67848932D01*
X141419411Y-67736990D01*
X141662632Y-67574475D01*
X141869475Y-67367632D01*
X141986000Y-67193240D01*
X142102525Y-67367632D01*
X142309368Y-67574475D01*
X142552589Y-67736990D01*
X142822842Y-67848932D01*
X143109740Y-67906000D01*
X143402260Y-67906000D01*
X143689158Y-67848932D01*
X143959411Y-67736990D01*
X144202632Y-67574475D01*
X144409475Y-67367632D01*
X144526000Y-67193240D01*
X144642525Y-67367632D01*
X144849368Y-67574475D01*
X145092589Y-67736990D01*
X145362842Y-67848932D01*
X145649740Y-67906000D01*
X145942260Y-67906000D01*
X146229158Y-67848932D01*
X146499411Y-67736990D01*
X146742632Y-67574475D01*
X146949475Y-67367632D01*
X147111990Y-67124411D01*
X147223932Y-66854158D01*
X147281000Y-66567260D01*
X147281000Y-66274740D01*
X147223932Y-65987842D01*
X147111990Y-65717589D01*
X147014043Y-65571000D01*
X152435928Y-65571000D01*
X152435928Y-67271000D01*
X152448188Y-67395482D01*
X152484498Y-67515180D01*
X152543463Y-67625494D01*
X152622815Y-67722185D01*
X152719506Y-67801537D01*
X152829820Y-67860502D01*
X152949518Y-67896812D01*
X153074000Y-67909072D01*
X154774000Y-67909072D01*
X154898482Y-67896812D01*
X155018180Y-67860502D01*
X155128494Y-67801537D01*
X155225185Y-67722185D01*
X155304537Y-67625494D01*
X155363502Y-67515180D01*
X155385513Y-67442620D01*
X155517368Y-67574475D01*
X155760589Y-67736990D01*
X156030842Y-67848932D01*
X156317740Y-67906000D01*
X156610260Y-67906000D01*
X156897158Y-67848932D01*
X157167411Y-67736990D01*
X157410632Y-67574475D01*
X157617475Y-67367632D01*
X157734000Y-67193240D01*
X157850525Y-67367632D01*
X158057368Y-67574475D01*
X158300589Y-67736990D01*
X158570842Y-67848932D01*
X158857740Y-67906000D01*
X159150260Y-67906000D01*
X159437158Y-67848932D01*
X159707411Y-67736990D01*
X159950632Y-67574475D01*
X160157475Y-67367632D01*
X160274000Y-67193240D01*
X160390525Y-67367632D01*
X160597368Y-67574475D01*
X160840589Y-67736990D01*
X161110842Y-67848932D01*
X161397740Y-67906000D01*
X161690260Y-67906000D01*
X161977158Y-67848932D01*
X162247411Y-67736990D01*
X162490632Y-67574475D01*
X162697475Y-67367632D01*
X162859990Y-67124411D01*
X162971932Y-66854158D01*
X163029000Y-66567260D01*
X163029000Y-66274740D01*
X162971932Y-65987842D01*
X162859990Y-65717589D01*
X162697475Y-65474368D01*
X162490632Y-65267525D01*
X162247411Y-65105010D01*
X161977158Y-64993068D01*
X161690260Y-64936000D01*
X161397740Y-64936000D01*
X161110842Y-64993068D01*
X160840589Y-65105010D01*
X160597368Y-65267525D01*
X160390525Y-65474368D01*
X160274000Y-65648760D01*
X160157475Y-65474368D01*
X159950632Y-65267525D01*
X159707411Y-65105010D01*
X159437158Y-64993068D01*
X159150260Y-64936000D01*
X158857740Y-64936000D01*
X158570842Y-64993068D01*
X158300589Y-65105010D01*
X158057368Y-65267525D01*
X157850525Y-65474368D01*
X157734000Y-65648760D01*
X157617475Y-65474368D01*
X157410632Y-65267525D01*
X157167411Y-65105010D01*
X156897158Y-64993068D01*
X156610260Y-64936000D01*
X156317740Y-64936000D01*
X156030842Y-64993068D01*
X155760589Y-65105010D01*
X155517368Y-65267525D01*
X155385513Y-65399380D01*
X155363502Y-65326820D01*
X155304537Y-65216506D01*
X155225185Y-65119815D01*
X155128494Y-65040463D01*
X155018180Y-64981498D01*
X154898482Y-64945188D01*
X154774000Y-64932928D01*
X153074000Y-64932928D01*
X152949518Y-64945188D01*
X152829820Y-64981498D01*
X152719506Y-65040463D01*
X152622815Y-65119815D01*
X152543463Y-65216506D01*
X152484498Y-65326820D01*
X152448188Y-65446518D01*
X152435928Y-65571000D01*
X147014043Y-65571000D01*
X146949475Y-65474368D01*
X146742632Y-65267525D01*
X146499411Y-65105010D01*
X146229158Y-64993068D01*
X145942260Y-64936000D01*
X145649740Y-64936000D01*
X145362842Y-64993068D01*
X145092589Y-65105010D01*
X144849368Y-65267525D01*
X144642525Y-65474368D01*
X144526000Y-65648760D01*
X144409475Y-65474368D01*
X144202632Y-65267525D01*
X143959411Y-65105010D01*
X143689158Y-64993068D01*
X143402260Y-64936000D01*
X143109740Y-64936000D01*
X142822842Y-64993068D01*
X142552589Y-65105010D01*
X142309368Y-65267525D01*
X142102525Y-65474368D01*
X141986000Y-65648760D01*
X141869475Y-65474368D01*
X141662632Y-65267525D01*
X141419411Y-65105010D01*
X141149158Y-64993068D01*
X140862260Y-64936000D01*
X140569740Y-64936000D01*
X140282842Y-64993068D01*
X140012589Y-65105010D01*
X139769368Y-65267525D01*
X139637513Y-65399380D01*
X139615502Y-65326820D01*
X139556537Y-65216506D01*
X139477185Y-65119815D01*
X139380494Y-65040463D01*
X139270180Y-64981498D01*
X139150482Y-64945188D01*
X139026000Y-64932928D01*
X137326000Y-64932928D01*
X137201518Y-64945188D01*
X137081820Y-64981498D01*
X136971506Y-65040463D01*
X136874815Y-65119815D01*
X136795463Y-65216506D01*
X136736498Y-65326820D01*
X136700188Y-65446518D01*
X136687928Y-65571000D01*
X81570396Y-65571000D01*
X81559759Y-65560363D01*
X81324727Y-65403320D01*
X81063574Y-65295147D01*
X80786335Y-65240000D01*
X80503665Y-65240000D01*
X80226426Y-65295147D01*
X79965273Y-65403320D01*
X79730241Y-65560363D01*
X79530363Y-65760241D01*
X79373320Y-65995273D01*
X79265147Y-66256426D01*
X79210000Y-66533665D01*
X74460000Y-66533665D01*
X74404853Y-66256426D01*
X74296680Y-65995273D01*
X74139637Y-65760241D01*
X73939759Y-65560363D01*
X73704727Y-65403320D01*
X73443574Y-65295147D01*
X73166335Y-65240000D01*
X72883665Y-65240000D01*
X72606426Y-65295147D01*
X72345273Y-65403320D01*
X72110241Y-65560363D01*
X71910363Y-65760241D01*
X71753320Y-65995273D01*
X71645147Y-66256426D01*
X71590000Y-66533665D01*
X62996813Y-66533665D01*
X63066157Y-66417252D01*
X63163481Y-66142891D01*
X63042814Y-65913000D01*
X61849000Y-65913000D01*
X61849000Y-65933000D01*
X61595000Y-65933000D01*
X61595000Y-65913000D01*
X61575000Y-65913000D01*
X61575000Y-65659000D01*
X61595000Y-65659000D01*
X61595000Y-64465845D01*
X61849000Y-64465845D01*
X61849000Y-65659000D01*
X63042814Y-65659000D01*
X63163481Y-65429109D01*
X63066157Y-65154748D01*
X62917178Y-64904645D01*
X62722269Y-64688412D01*
X62488920Y-64514359D01*
X62226099Y-64389175D01*
X62078890Y-64344524D01*
X61849000Y-64465845D01*
X61595000Y-64465845D01*
X61365110Y-64344524D01*
X61217901Y-64389175D01*
X60955080Y-64514359D01*
X60721731Y-64688412D01*
X60526822Y-64904645D01*
X60457195Y-65021534D01*
X60335475Y-64839368D01*
X60128632Y-64632525D01*
X59885411Y-64470010D01*
X59615158Y-64358068D01*
X59328260Y-64301000D01*
X59035740Y-64301000D01*
X58748842Y-64358068D01*
X58478589Y-64470010D01*
X58235368Y-64632525D01*
X58028525Y-64839368D01*
X57912000Y-65013760D01*
X57795475Y-64839368D01*
X57588632Y-64632525D01*
X57345411Y-64470010D01*
X57075158Y-64358068D01*
X56788260Y-64301000D01*
X56495740Y-64301000D01*
X56208842Y-64358068D01*
X55938589Y-64470010D01*
X55695368Y-64632525D01*
X55488525Y-64839368D01*
X55372000Y-65013760D01*
X55255475Y-64839368D01*
X55048632Y-64632525D01*
X54805411Y-64470010D01*
X54535158Y-64358068D01*
X54248260Y-64301000D01*
X53955740Y-64301000D01*
X53668842Y-64358068D01*
X53398589Y-64470010D01*
X53155368Y-64632525D01*
X52948525Y-64839368D01*
X52786010Y-65082589D01*
X52674068Y-65352842D01*
X52617000Y-65639740D01*
X47529213Y-65639740D01*
X47524300Y-63144000D01*
X166854298Y-63144000D01*
X166978700Y-126340000D01*
G37*
%TD.AperFunction*%
%TD*%
M02*
