%TF.GenerationSoftware,KiCad,Pcbnew,5.1.9-73d0e3b20d~88~ubuntu20.04.1*%
%TF.CreationDate,2021-04-10T15:21:01+02:00*%
%TF.ProjectId,pcb_central_unit,7063625f-6365-46e7-9472-616c5f756e69,rev?*%
%TF.SameCoordinates,Original*%
%TF.FileFunction,Other,User*%
%FSLAX46Y46*%
G04 Gerber Fmt 4.6, Leading zero omitted, Abs format (unit mm)*
G04 Created by KiCad (PCBNEW 5.1.9-73d0e3b20d~88~ubuntu20.04.1) date 2021-04-10 15:21:01*
%MOMM*%
%LPD*%
G01*
G04 APERTURE LIST*
%ADD10C,0.050000*%
G04 APERTURE END LIST*
D10*
%TO.C,U1*%
X133981000Y-94230000D02*
X133981000Y-73410000D01*
X118241000Y-94230000D02*
X133981000Y-94230000D01*
X118241000Y-73410000D02*
X133981000Y-73410000D01*
X118241000Y-94230000D02*
X118241000Y-73410000D01*
%TO.C,J2*%
X94891000Y-118469000D02*
X94891000Y-124569000D01*
X94891000Y-124569000D02*
X83691000Y-124569000D01*
X83691000Y-124569000D02*
X83691000Y-118469000D01*
X83691000Y-118469000D02*
X94891000Y-118469000D01*
%TO.C,U2*%
X158111000Y-94230000D02*
X158111000Y-73410000D01*
X142371000Y-94230000D02*
X158111000Y-94230000D01*
X142371000Y-73410000D02*
X158111000Y-73410000D01*
X142371000Y-94230000D02*
X142371000Y-73410000D01*
%TO.C,J6*%
X105007000Y-100816000D02*
X105007000Y-112016000D01*
X105007000Y-112016000D02*
X108607000Y-112016000D01*
X108607000Y-112016000D02*
X108607000Y-100816000D01*
X108607000Y-100816000D02*
X105007000Y-100816000D01*
%TO.C,J7*%
X104035000Y-118088000D02*
X100435000Y-118088000D01*
X104035000Y-124238000D02*
X104035000Y-118088000D01*
X100435000Y-124238000D02*
X104035000Y-124238000D01*
X100435000Y-118088000D02*
X100435000Y-124238000D01*
%TO.C,R2*%
X90585000Y-72620000D02*
X90585000Y-69620000D01*
X90585000Y-69620000D02*
X80865000Y-69620000D01*
X80865000Y-69620000D02*
X80865000Y-72620000D01*
X80865000Y-72620000D02*
X90585000Y-72620000D01*
%TO.C,R1*%
X81695000Y-68175000D02*
X81695000Y-65175000D01*
X81695000Y-65175000D02*
X71975000Y-65175000D01*
X71975000Y-65175000D02*
X71975000Y-68175000D01*
X71975000Y-68175000D02*
X81695000Y-68175000D01*
%TO.C,J9*%
X64538000Y-112754000D02*
X58388000Y-112754000D01*
X58388000Y-112754000D02*
X58388000Y-125104000D01*
X58388000Y-125104000D02*
X64538000Y-125104000D01*
X64538000Y-125104000D02*
X64538000Y-112754000D01*
%TO.C,J8*%
X57045000Y-112627000D02*
X50895000Y-112627000D01*
X50895000Y-112627000D02*
X50895000Y-124977000D01*
X50895000Y-124977000D02*
X57045000Y-124977000D01*
X57045000Y-124977000D02*
X57045000Y-112627000D01*
%TO.C,J5*%
X152124000Y-68221000D02*
X152124000Y-64671000D01*
X152124000Y-64671000D02*
X163324000Y-64671000D01*
X163324000Y-64671000D02*
X163324000Y-68221000D01*
X163324000Y-68221000D02*
X152124000Y-68221000D01*
%TO.C,J4*%
X136376000Y-68221000D02*
X136376000Y-64671000D01*
X136376000Y-64671000D02*
X147576000Y-64671000D01*
X147576000Y-64671000D02*
X147576000Y-68221000D01*
X147576000Y-68221000D02*
X136376000Y-68221000D01*
%TO.C,J3*%
X79143000Y-118342000D02*
X79143000Y-124442000D01*
X79143000Y-124442000D02*
X67943000Y-124442000D01*
X67943000Y-124442000D02*
X67943000Y-118342000D01*
X67943000Y-118342000D02*
X79143000Y-118342000D01*
%TO.C,J1*%
X63522000Y-63986000D02*
X63522000Y-70086000D01*
X63522000Y-70086000D02*
X52322000Y-70086000D01*
X52322000Y-70086000D02*
X52322000Y-63986000D01*
X52322000Y-63986000D02*
X63522000Y-63986000D01*
%TD*%
M02*
