%TF.GenerationSoftware,KiCad,Pcbnew,5.1.9-73d0e3b20d~88~ubuntu20.04.1*%
%TF.CreationDate,2021-04-09T21:21:23+02:00*%
%TF.ProjectId,RBY_tireuse,5242595f-7469-4726-9575-73652e6b6963,rev?*%
%TF.SameCoordinates,Original*%
%TF.FileFunction,Legend,Top*%
%TF.FilePolarity,Positive*%
%FSLAX46Y46*%
G04 Gerber Fmt 4.6, Leading zero omitted, Abs format (unit mm)*
G04 Created by KiCad (PCBNEW 5.1.9-73d0e3b20d~88~ubuntu20.04.1) date 2021-04-09 21:21:23*
%MOMM*%
%LPD*%
G01*
G04 APERTURE LIST*
%ADD10C,0.150000*%
%ADD11C,0.120000*%
%ADD12C,0.010000*%
%ADD13C,1.000000*%
%ADD14C,0.800000*%
%ADD15C,0.200000*%
%ADD16C,0.127000*%
%ADD17C,0.015000*%
G04 APERTURE END LIST*
D10*
X104457523Y-122007380D02*
X103981333Y-122007380D01*
X103933714Y-122483571D01*
X103981333Y-122435952D01*
X104076571Y-122388333D01*
X104314666Y-122388333D01*
X104409904Y-122435952D01*
X104457523Y-122483571D01*
X104505142Y-122578809D01*
X104505142Y-122816904D01*
X104457523Y-122912142D01*
X104409904Y-122959761D01*
X104314666Y-123007380D01*
X104076571Y-123007380D01*
X103981333Y-122959761D01*
X103933714Y-122912142D01*
X104790857Y-122007380D02*
X105124190Y-123007380D01*
X105457523Y-122007380D01*
X110934523Y-109815380D02*
X110458333Y-109815380D01*
X110410714Y-110291571D01*
X110458333Y-110243952D01*
X110553571Y-110196333D01*
X110791666Y-110196333D01*
X110886904Y-110243952D01*
X110934523Y-110291571D01*
X110982142Y-110386809D01*
X110982142Y-110624904D01*
X110934523Y-110720142D01*
X110886904Y-110767761D01*
X110791666Y-110815380D01*
X110553571Y-110815380D01*
X110458333Y-110767761D01*
X110410714Y-110720142D01*
X111267857Y-109815380D02*
X111601190Y-110815380D01*
X111934523Y-109815380D01*
X111005904Y-107196000D02*
X110910666Y-107148380D01*
X110767809Y-107148380D01*
X110624952Y-107196000D01*
X110529714Y-107291238D01*
X110482095Y-107386476D01*
X110434476Y-107576952D01*
X110434476Y-107719809D01*
X110482095Y-107910285D01*
X110529714Y-108005523D01*
X110624952Y-108100761D01*
X110767809Y-108148380D01*
X110863047Y-108148380D01*
X111005904Y-108100761D01*
X111053523Y-108053142D01*
X111053523Y-107719809D01*
X110863047Y-107719809D01*
X110886952Y-105735380D02*
X110315523Y-105735380D01*
X110601238Y-105735380D02*
X110601238Y-104735380D01*
X110506000Y-104878238D01*
X110410761Y-104973476D01*
X110315523Y-105021095D01*
X111267904Y-104830619D02*
X111315523Y-104783000D01*
X111410761Y-104735380D01*
X111648857Y-104735380D01*
X111744095Y-104783000D01*
X111791714Y-104830619D01*
X111839333Y-104925857D01*
X111839333Y-105021095D01*
X111791714Y-105163952D01*
X111220285Y-105735380D01*
X111839333Y-105735380D01*
X112125047Y-104735380D02*
X112458380Y-105735380D01*
X112791714Y-104735380D01*
X111005904Y-101989000D02*
X110910666Y-101941380D01*
X110767809Y-101941380D01*
X110624952Y-101989000D01*
X110529714Y-102084238D01*
X110482095Y-102179476D01*
X110434476Y-102369952D01*
X110434476Y-102512809D01*
X110482095Y-102703285D01*
X110529714Y-102798523D01*
X110624952Y-102893761D01*
X110767809Y-102941380D01*
X110863047Y-102941380D01*
X111005904Y-102893761D01*
X111053523Y-102846142D01*
X111053523Y-102512809D01*
X110863047Y-102512809D01*
X55379904Y-112022000D02*
X55284666Y-111974380D01*
X55141809Y-111974380D01*
X54998952Y-112022000D01*
X54903714Y-112117238D01*
X54856095Y-112212476D01*
X54808476Y-112402952D01*
X54808476Y-112545809D01*
X54856095Y-112736285D01*
X54903714Y-112831523D01*
X54998952Y-112926761D01*
X55141809Y-112974380D01*
X55237047Y-112974380D01*
X55379904Y-112926761D01*
X55427523Y-112879142D01*
X55427523Y-112545809D01*
X55237047Y-112545809D01*
X63126904Y-112149000D02*
X63031666Y-112101380D01*
X62888809Y-112101380D01*
X62745952Y-112149000D01*
X62650714Y-112244238D01*
X62603095Y-112339476D01*
X62555476Y-112529952D01*
X62555476Y-112672809D01*
X62603095Y-112863285D01*
X62650714Y-112958523D01*
X62745952Y-113053761D01*
X62888809Y-113101380D01*
X62984047Y-113101380D01*
X63126904Y-113053761D01*
X63174523Y-113006142D01*
X63174523Y-112672809D01*
X62984047Y-112672809D01*
X104401904Y-119388000D02*
X104306666Y-119340380D01*
X104163809Y-119340380D01*
X104020952Y-119388000D01*
X103925714Y-119483238D01*
X103878095Y-119578476D01*
X103830476Y-119768952D01*
X103830476Y-119911809D01*
X103878095Y-120102285D01*
X103925714Y-120197523D01*
X104020952Y-120292761D01*
X104163809Y-120340380D01*
X104259047Y-120340380D01*
X104401904Y-120292761D01*
X104449523Y-120245142D01*
X104449523Y-119911809D01*
X104259047Y-119911809D01*
D11*
%TO.C,J7*%
X100905000Y-123758000D02*
X103565000Y-123758000D01*
X100905000Y-121158000D02*
X100905000Y-123758000D01*
X103565000Y-121158000D02*
X103565000Y-123758000D01*
X100905000Y-121158000D02*
X103565000Y-121158000D01*
X100905000Y-119888000D02*
X100905000Y-118558000D01*
X100905000Y-118558000D02*
X102235000Y-118558000D01*
%TO.C,J6*%
X107382000Y-101286000D02*
X108712000Y-101286000D01*
X107382000Y-102616000D02*
X107382000Y-101286000D01*
X107382000Y-103886000D02*
X110042000Y-103886000D01*
X110042000Y-103886000D02*
X110042000Y-111566000D01*
X107382000Y-103886000D02*
X107382000Y-111566000D01*
X107382000Y-111566000D02*
X110042000Y-111566000D01*
D12*
%TO.C,REF\u002A\u002A*%
G36*
X71791642Y-107736812D02*
G01*
X71979436Y-107746766D01*
X72140813Y-107762117D01*
X72188917Y-107768761D01*
X72637046Y-107857842D01*
X73068516Y-107984771D01*
X73481505Y-108148070D01*
X73874189Y-108346260D01*
X74244746Y-108577862D01*
X74591351Y-108841399D01*
X74912182Y-109135391D01*
X75205415Y-109458361D01*
X75469227Y-109808831D01*
X75701796Y-110185321D01*
X75901297Y-110586354D01*
X76017444Y-110873143D01*
X76121041Y-111184697D01*
X76198794Y-111492128D01*
X76252462Y-111805837D01*
X76283804Y-112136223D01*
X76294579Y-112493685D01*
X76294609Y-112511417D01*
X76292655Y-112729305D01*
X76285626Y-112916805D01*
X76272136Y-113085703D01*
X76250802Y-113247783D01*
X76220236Y-113414831D01*
X76179054Y-113598630D01*
X76155524Y-113694608D01*
X76029344Y-114113272D01*
X75865611Y-114515322D01*
X75666526Y-114898675D01*
X75434286Y-115261248D01*
X75171092Y-115600962D01*
X74879144Y-115915733D01*
X74560642Y-116203481D01*
X74217784Y-116462124D01*
X73852771Y-116689579D01*
X73467802Y-116883767D01*
X73065077Y-117042604D01*
X72646796Y-117164009D01*
X72442917Y-117208036D01*
X72284834Y-117234515D01*
X72108039Y-117257522D01*
X71921905Y-117276400D01*
X71735803Y-117290491D01*
X71559106Y-117299140D01*
X71401186Y-117301688D01*
X71271415Y-117297480D01*
X71225834Y-117293340D01*
X71171651Y-117287093D01*
X71089568Y-117277717D01*
X70993752Y-117266829D01*
X70950667Y-117261950D01*
X70516769Y-117192069D01*
X70095814Y-117083098D01*
X69689878Y-116936860D01*
X69301038Y-116755179D01*
X68931368Y-116539881D01*
X68582946Y-116292789D01*
X68257846Y-116015727D01*
X67958145Y-115710519D01*
X67685919Y-115378990D01*
X67443243Y-115022964D01*
X67232194Y-114644264D01*
X67054847Y-114244716D01*
X66913279Y-113826143D01*
X66873531Y-113679289D01*
X66797432Y-113306389D01*
X66751769Y-112913873D01*
X66738373Y-112559942D01*
X66991686Y-112559942D01*
X67015825Y-112976557D01*
X67078430Y-113389320D01*
X67179153Y-113795552D01*
X67317652Y-114192577D01*
X67493580Y-114577718D01*
X67706592Y-114948297D01*
X67956345Y-115301637D01*
X68099639Y-115476532D01*
X68184519Y-115572380D01*
X68272829Y-115667404D01*
X68354972Y-115751557D01*
X68421351Y-115814791D01*
X68430200Y-115822585D01*
X68558833Y-115934022D01*
X68558852Y-115800983D01*
X69765334Y-115800983D01*
X69765334Y-116688133D01*
X69908209Y-116742576D01*
X70241353Y-116853795D01*
X70592427Y-116942123D01*
X70917724Y-116999245D01*
X71032675Y-117010869D01*
X71178306Y-117019494D01*
X71343449Y-117025025D01*
X71516933Y-117027365D01*
X71687588Y-117026420D01*
X71844245Y-117022092D01*
X71975734Y-117014288D01*
X72030722Y-117008790D01*
X72461983Y-116935683D01*
X72892500Y-116821084D01*
X72945318Y-116804133D01*
X73058576Y-116766767D01*
X73137099Y-116739347D01*
X73186473Y-116718927D01*
X73212286Y-116702561D01*
X73220124Y-116687302D01*
X73215574Y-116670204D01*
X73212177Y-116663410D01*
X73196252Y-116634796D01*
X73161762Y-116574072D01*
X73111313Y-116485784D01*
X73047512Y-116374481D01*
X72972965Y-116244711D01*
X72890279Y-116101021D01*
X72817972Y-115975551D01*
X72718430Y-115803410D01*
X72637446Y-115664726D01*
X72572780Y-115556085D01*
X72522188Y-115474076D01*
X72483428Y-115415284D01*
X72454259Y-115376295D01*
X72432438Y-115353698D01*
X72415724Y-115344078D01*
X72402946Y-115343751D01*
X72363497Y-115353139D01*
X72294530Y-115369747D01*
X72207656Y-115390774D01*
X72157167Y-115403034D01*
X72080339Y-115420492D01*
X72008524Y-115433333D01*
X71932921Y-115442260D01*
X71844729Y-115447971D01*
X71735147Y-115451169D01*
X71595374Y-115452554D01*
X71532750Y-115452750D01*
X71365841Y-115452094D01*
X71233017Y-115449049D01*
X71126073Y-115443108D01*
X71036801Y-115433761D01*
X70956995Y-115420498D01*
X70932973Y-115415529D01*
X70675751Y-115348020D01*
X70419823Y-115258302D01*
X70177379Y-115151372D01*
X69960608Y-115032229D01*
X69895498Y-114990216D01*
X69836131Y-114950991D01*
X69792113Y-114923432D01*
X69773790Y-114913834D01*
X69771987Y-114934271D01*
X69770315Y-114992664D01*
X69768816Y-115084636D01*
X69767533Y-115205809D01*
X69766505Y-115351807D01*
X69765776Y-115518252D01*
X69765388Y-115700767D01*
X69765334Y-115800983D01*
X68558852Y-115800983D01*
X68559201Y-113365469D01*
X68559231Y-112969661D01*
X68559277Y-112613828D01*
X68559291Y-112586764D01*
X69370385Y-112586764D01*
X69399392Y-112864678D01*
X69465432Y-113139906D01*
X69566684Y-113405237D01*
X69701327Y-113653464D01*
X69729627Y-113696750D01*
X69917098Y-113939124D01*
X70130773Y-114148463D01*
X70369548Y-114324081D01*
X70632320Y-114465292D01*
X70917986Y-114571410D01*
X71225442Y-114641749D01*
X71257584Y-114646825D01*
X71339319Y-114653141D01*
X71450908Y-114653538D01*
X71580402Y-114648775D01*
X71715850Y-114639611D01*
X71845303Y-114626807D01*
X71956811Y-114611122D01*
X72019584Y-114598395D01*
X72309254Y-114506006D01*
X72576978Y-114378120D01*
X72820972Y-114216464D01*
X73039454Y-114022763D01*
X73230639Y-113798745D01*
X73392745Y-113546135D01*
X73523988Y-113266661D01*
X73589785Y-113078347D01*
X73610475Y-113008013D01*
X73625467Y-112946475D01*
X73635671Y-112884696D01*
X73641995Y-112813642D01*
X73645348Y-112724279D01*
X73646639Y-112607570D01*
X73646803Y-112511417D01*
X73646383Y-112371925D01*
X73644509Y-112265701D01*
X73640263Y-112183683D01*
X73632726Y-112116807D01*
X73620979Y-112056013D01*
X73604104Y-111992237D01*
X73589072Y-111942025D01*
X73478957Y-111649304D01*
X73336891Y-111381726D01*
X73165205Y-111141170D01*
X72966230Y-110929515D01*
X72742298Y-110748638D01*
X72495737Y-110600419D01*
X72228880Y-110486735D01*
X71944057Y-110409464D01*
X71643599Y-110370486D01*
X71638584Y-110370178D01*
X71344946Y-110373100D01*
X71058039Y-110416084D01*
X70781585Y-110496963D01*
X70519308Y-110613575D01*
X70274930Y-110763752D01*
X70052173Y-110945332D01*
X69854762Y-111156148D01*
X69686419Y-111394035D01*
X69596551Y-111557667D01*
X69511884Y-111747398D01*
X69450207Y-111930832D01*
X69406769Y-112124573D01*
X69380232Y-112313374D01*
X69370385Y-112586764D01*
X68559291Y-112586764D01*
X68559453Y-112295614D01*
X68559873Y-112012661D01*
X68560651Y-111762611D01*
X68561899Y-111543108D01*
X68563733Y-111351794D01*
X68566265Y-111186311D01*
X68569610Y-111044302D01*
X68573880Y-110923410D01*
X68579191Y-110821277D01*
X68585654Y-110735546D01*
X68593385Y-110663860D01*
X68602497Y-110603861D01*
X68613104Y-110553191D01*
X68625319Y-110509494D01*
X68639256Y-110470412D01*
X68655028Y-110433587D01*
X68672751Y-110396663D01*
X68692536Y-110357281D01*
X68705565Y-110331250D01*
X68832106Y-110120094D01*
X68986211Y-109939428D01*
X69165554Y-109791183D01*
X69367805Y-109677287D01*
X69587449Y-109600480D01*
X69627500Y-109590845D01*
X69668416Y-109582807D01*
X69714298Y-109576224D01*
X69769246Y-109570951D01*
X69837362Y-109566845D01*
X69922745Y-109563762D01*
X70029498Y-109561559D01*
X70161719Y-109560092D01*
X70323510Y-109559216D01*
X70518971Y-109558790D01*
X70752204Y-109558668D01*
X70780989Y-109558667D01*
X71042666Y-109558897D01*
X71266512Y-109559839D01*
X71457032Y-109561874D01*
X71618726Y-109565382D01*
X71756098Y-109570743D01*
X71873650Y-109578338D01*
X71975884Y-109588545D01*
X72067303Y-109601746D01*
X72152408Y-109618320D01*
X72235703Y-109638648D01*
X72321690Y-109663110D01*
X72414871Y-109692085D01*
X72434033Y-109698219D01*
X72761597Y-109824932D01*
X73066595Y-109986454D01*
X73347213Y-110180694D01*
X73601637Y-110405561D01*
X73828051Y-110658965D01*
X74024640Y-110938816D01*
X74189591Y-111243024D01*
X74321088Y-111569498D01*
X74417317Y-111916148D01*
X74435211Y-112003417D01*
X74456475Y-112156519D01*
X74468759Y-112337019D01*
X74472088Y-112530951D01*
X74466488Y-112724349D01*
X74451985Y-112903246D01*
X74433338Y-113030000D01*
X74346431Y-113378089D01*
X74220993Y-113711189D01*
X74058662Y-114026089D01*
X73861080Y-114319576D01*
X73647201Y-114570409D01*
X73496768Y-114728341D01*
X74284378Y-116094373D01*
X74369064Y-116028188D01*
X74416606Y-115988180D01*
X74485526Y-115926524D01*
X74567019Y-115851253D01*
X74652277Y-115770398D01*
X74662335Y-115760710D01*
X74939528Y-115470306D01*
X75181456Y-115166403D01*
X75394518Y-114840233D01*
X75565964Y-114522250D01*
X75724102Y-114173357D01*
X75847381Y-113835377D01*
X75938027Y-113498810D01*
X75998268Y-113154155D01*
X76030329Y-112791910D01*
X76037220Y-112511417D01*
X76033659Y-112270445D01*
X76021340Y-112057117D01*
X75998582Y-111857339D01*
X75963703Y-111657017D01*
X75915022Y-111442058D01*
X75904784Y-111401198D01*
X75778550Y-110987434D01*
X75615555Y-110592380D01*
X75417866Y-110217881D01*
X75187552Y-109865780D01*
X74926679Y-109537921D01*
X74637316Y-109236147D01*
X74321529Y-108962304D01*
X73981385Y-108718233D01*
X73618953Y-108505780D01*
X73236300Y-108326789D01*
X72835493Y-108183102D01*
X72418600Y-108076564D01*
X72119397Y-108025228D01*
X71960262Y-108008698D01*
X71773663Y-107998027D01*
X71571973Y-107993220D01*
X71367564Y-107994281D01*
X71172808Y-108001217D01*
X71000077Y-108014033D01*
X70911050Y-108024705D01*
X70474562Y-108108148D01*
X70054549Y-108229782D01*
X69652849Y-108388284D01*
X69271296Y-108582329D01*
X68911728Y-108810593D01*
X68575980Y-109071753D01*
X68265890Y-109364485D01*
X67983293Y-109687465D01*
X67730025Y-110039368D01*
X67507924Y-110418872D01*
X67460028Y-110512770D01*
X67286671Y-110908493D01*
X67153503Y-111313749D01*
X67060179Y-111725860D01*
X67006355Y-112142150D01*
X66991686Y-112559942D01*
X66738373Y-112559942D01*
X66736541Y-112511547D01*
X66751749Y-112109217D01*
X66797393Y-111716691D01*
X66873472Y-111343776D01*
X66873531Y-111343545D01*
X67004930Y-110910083D01*
X67174127Y-110495526D01*
X67380590Y-110100827D01*
X67623789Y-109726939D01*
X67903195Y-109374813D01*
X68072000Y-109190879D01*
X68354480Y-108918635D01*
X68645730Y-108680160D01*
X68955417Y-108468431D01*
X69293210Y-108276424D01*
X69416084Y-108214434D01*
X69747650Y-108065365D01*
X70076531Y-107946026D01*
X70415690Y-107852396D01*
X70778094Y-107780456D01*
X70855417Y-107768178D01*
X71004295Y-107751070D01*
X71183757Y-107739384D01*
X71382402Y-107733116D01*
X71588830Y-107732260D01*
X71791642Y-107736812D01*
G37*
X71791642Y-107736812D02*
X71979436Y-107746766D01*
X72140813Y-107762117D01*
X72188917Y-107768761D01*
X72637046Y-107857842D01*
X73068516Y-107984771D01*
X73481505Y-108148070D01*
X73874189Y-108346260D01*
X74244746Y-108577862D01*
X74591351Y-108841399D01*
X74912182Y-109135391D01*
X75205415Y-109458361D01*
X75469227Y-109808831D01*
X75701796Y-110185321D01*
X75901297Y-110586354D01*
X76017444Y-110873143D01*
X76121041Y-111184697D01*
X76198794Y-111492128D01*
X76252462Y-111805837D01*
X76283804Y-112136223D01*
X76294579Y-112493685D01*
X76294609Y-112511417D01*
X76292655Y-112729305D01*
X76285626Y-112916805D01*
X76272136Y-113085703D01*
X76250802Y-113247783D01*
X76220236Y-113414831D01*
X76179054Y-113598630D01*
X76155524Y-113694608D01*
X76029344Y-114113272D01*
X75865611Y-114515322D01*
X75666526Y-114898675D01*
X75434286Y-115261248D01*
X75171092Y-115600962D01*
X74879144Y-115915733D01*
X74560642Y-116203481D01*
X74217784Y-116462124D01*
X73852771Y-116689579D01*
X73467802Y-116883767D01*
X73065077Y-117042604D01*
X72646796Y-117164009D01*
X72442917Y-117208036D01*
X72284834Y-117234515D01*
X72108039Y-117257522D01*
X71921905Y-117276400D01*
X71735803Y-117290491D01*
X71559106Y-117299140D01*
X71401186Y-117301688D01*
X71271415Y-117297480D01*
X71225834Y-117293340D01*
X71171651Y-117287093D01*
X71089568Y-117277717D01*
X70993752Y-117266829D01*
X70950667Y-117261950D01*
X70516769Y-117192069D01*
X70095814Y-117083098D01*
X69689878Y-116936860D01*
X69301038Y-116755179D01*
X68931368Y-116539881D01*
X68582946Y-116292789D01*
X68257846Y-116015727D01*
X67958145Y-115710519D01*
X67685919Y-115378990D01*
X67443243Y-115022964D01*
X67232194Y-114644264D01*
X67054847Y-114244716D01*
X66913279Y-113826143D01*
X66873531Y-113679289D01*
X66797432Y-113306389D01*
X66751769Y-112913873D01*
X66738373Y-112559942D01*
X66991686Y-112559942D01*
X67015825Y-112976557D01*
X67078430Y-113389320D01*
X67179153Y-113795552D01*
X67317652Y-114192577D01*
X67493580Y-114577718D01*
X67706592Y-114948297D01*
X67956345Y-115301637D01*
X68099639Y-115476532D01*
X68184519Y-115572380D01*
X68272829Y-115667404D01*
X68354972Y-115751557D01*
X68421351Y-115814791D01*
X68430200Y-115822585D01*
X68558833Y-115934022D01*
X68558852Y-115800983D01*
X69765334Y-115800983D01*
X69765334Y-116688133D01*
X69908209Y-116742576D01*
X70241353Y-116853795D01*
X70592427Y-116942123D01*
X70917724Y-116999245D01*
X71032675Y-117010869D01*
X71178306Y-117019494D01*
X71343449Y-117025025D01*
X71516933Y-117027365D01*
X71687588Y-117026420D01*
X71844245Y-117022092D01*
X71975734Y-117014288D01*
X72030722Y-117008790D01*
X72461983Y-116935683D01*
X72892500Y-116821084D01*
X72945318Y-116804133D01*
X73058576Y-116766767D01*
X73137099Y-116739347D01*
X73186473Y-116718927D01*
X73212286Y-116702561D01*
X73220124Y-116687302D01*
X73215574Y-116670204D01*
X73212177Y-116663410D01*
X73196252Y-116634796D01*
X73161762Y-116574072D01*
X73111313Y-116485784D01*
X73047512Y-116374481D01*
X72972965Y-116244711D01*
X72890279Y-116101021D01*
X72817972Y-115975551D01*
X72718430Y-115803410D01*
X72637446Y-115664726D01*
X72572780Y-115556085D01*
X72522188Y-115474076D01*
X72483428Y-115415284D01*
X72454259Y-115376295D01*
X72432438Y-115353698D01*
X72415724Y-115344078D01*
X72402946Y-115343751D01*
X72363497Y-115353139D01*
X72294530Y-115369747D01*
X72207656Y-115390774D01*
X72157167Y-115403034D01*
X72080339Y-115420492D01*
X72008524Y-115433333D01*
X71932921Y-115442260D01*
X71844729Y-115447971D01*
X71735147Y-115451169D01*
X71595374Y-115452554D01*
X71532750Y-115452750D01*
X71365841Y-115452094D01*
X71233017Y-115449049D01*
X71126073Y-115443108D01*
X71036801Y-115433761D01*
X70956995Y-115420498D01*
X70932973Y-115415529D01*
X70675751Y-115348020D01*
X70419823Y-115258302D01*
X70177379Y-115151372D01*
X69960608Y-115032229D01*
X69895498Y-114990216D01*
X69836131Y-114950991D01*
X69792113Y-114923432D01*
X69773790Y-114913834D01*
X69771987Y-114934271D01*
X69770315Y-114992664D01*
X69768816Y-115084636D01*
X69767533Y-115205809D01*
X69766505Y-115351807D01*
X69765776Y-115518252D01*
X69765388Y-115700767D01*
X69765334Y-115800983D01*
X68558852Y-115800983D01*
X68559201Y-113365469D01*
X68559231Y-112969661D01*
X68559277Y-112613828D01*
X68559291Y-112586764D01*
X69370385Y-112586764D01*
X69399392Y-112864678D01*
X69465432Y-113139906D01*
X69566684Y-113405237D01*
X69701327Y-113653464D01*
X69729627Y-113696750D01*
X69917098Y-113939124D01*
X70130773Y-114148463D01*
X70369548Y-114324081D01*
X70632320Y-114465292D01*
X70917986Y-114571410D01*
X71225442Y-114641749D01*
X71257584Y-114646825D01*
X71339319Y-114653141D01*
X71450908Y-114653538D01*
X71580402Y-114648775D01*
X71715850Y-114639611D01*
X71845303Y-114626807D01*
X71956811Y-114611122D01*
X72019584Y-114598395D01*
X72309254Y-114506006D01*
X72576978Y-114378120D01*
X72820972Y-114216464D01*
X73039454Y-114022763D01*
X73230639Y-113798745D01*
X73392745Y-113546135D01*
X73523988Y-113266661D01*
X73589785Y-113078347D01*
X73610475Y-113008013D01*
X73625467Y-112946475D01*
X73635671Y-112884696D01*
X73641995Y-112813642D01*
X73645348Y-112724279D01*
X73646639Y-112607570D01*
X73646803Y-112511417D01*
X73646383Y-112371925D01*
X73644509Y-112265701D01*
X73640263Y-112183683D01*
X73632726Y-112116807D01*
X73620979Y-112056013D01*
X73604104Y-111992237D01*
X73589072Y-111942025D01*
X73478957Y-111649304D01*
X73336891Y-111381726D01*
X73165205Y-111141170D01*
X72966230Y-110929515D01*
X72742298Y-110748638D01*
X72495737Y-110600419D01*
X72228880Y-110486735D01*
X71944057Y-110409464D01*
X71643599Y-110370486D01*
X71638584Y-110370178D01*
X71344946Y-110373100D01*
X71058039Y-110416084D01*
X70781585Y-110496963D01*
X70519308Y-110613575D01*
X70274930Y-110763752D01*
X70052173Y-110945332D01*
X69854762Y-111156148D01*
X69686419Y-111394035D01*
X69596551Y-111557667D01*
X69511884Y-111747398D01*
X69450207Y-111930832D01*
X69406769Y-112124573D01*
X69380232Y-112313374D01*
X69370385Y-112586764D01*
X68559291Y-112586764D01*
X68559453Y-112295614D01*
X68559873Y-112012661D01*
X68560651Y-111762611D01*
X68561899Y-111543108D01*
X68563733Y-111351794D01*
X68566265Y-111186311D01*
X68569610Y-111044302D01*
X68573880Y-110923410D01*
X68579191Y-110821277D01*
X68585654Y-110735546D01*
X68593385Y-110663860D01*
X68602497Y-110603861D01*
X68613104Y-110553191D01*
X68625319Y-110509494D01*
X68639256Y-110470412D01*
X68655028Y-110433587D01*
X68672751Y-110396663D01*
X68692536Y-110357281D01*
X68705565Y-110331250D01*
X68832106Y-110120094D01*
X68986211Y-109939428D01*
X69165554Y-109791183D01*
X69367805Y-109677287D01*
X69587449Y-109600480D01*
X69627500Y-109590845D01*
X69668416Y-109582807D01*
X69714298Y-109576224D01*
X69769246Y-109570951D01*
X69837362Y-109566845D01*
X69922745Y-109563762D01*
X70029498Y-109561559D01*
X70161719Y-109560092D01*
X70323510Y-109559216D01*
X70518971Y-109558790D01*
X70752204Y-109558668D01*
X70780989Y-109558667D01*
X71042666Y-109558897D01*
X71266512Y-109559839D01*
X71457032Y-109561874D01*
X71618726Y-109565382D01*
X71756098Y-109570743D01*
X71873650Y-109578338D01*
X71975884Y-109588545D01*
X72067303Y-109601746D01*
X72152408Y-109618320D01*
X72235703Y-109638648D01*
X72321690Y-109663110D01*
X72414871Y-109692085D01*
X72434033Y-109698219D01*
X72761597Y-109824932D01*
X73066595Y-109986454D01*
X73347213Y-110180694D01*
X73601637Y-110405561D01*
X73828051Y-110658965D01*
X74024640Y-110938816D01*
X74189591Y-111243024D01*
X74321088Y-111569498D01*
X74417317Y-111916148D01*
X74435211Y-112003417D01*
X74456475Y-112156519D01*
X74468759Y-112337019D01*
X74472088Y-112530951D01*
X74466488Y-112724349D01*
X74451985Y-112903246D01*
X74433338Y-113030000D01*
X74346431Y-113378089D01*
X74220993Y-113711189D01*
X74058662Y-114026089D01*
X73861080Y-114319576D01*
X73647201Y-114570409D01*
X73496768Y-114728341D01*
X74284378Y-116094373D01*
X74369064Y-116028188D01*
X74416606Y-115988180D01*
X74485526Y-115926524D01*
X74567019Y-115851253D01*
X74652277Y-115770398D01*
X74662335Y-115760710D01*
X74939528Y-115470306D01*
X75181456Y-115166403D01*
X75394518Y-114840233D01*
X75565964Y-114522250D01*
X75724102Y-114173357D01*
X75847381Y-113835377D01*
X75938027Y-113498810D01*
X75998268Y-113154155D01*
X76030329Y-112791910D01*
X76037220Y-112511417D01*
X76033659Y-112270445D01*
X76021340Y-112057117D01*
X75998582Y-111857339D01*
X75963703Y-111657017D01*
X75915022Y-111442058D01*
X75904784Y-111401198D01*
X75778550Y-110987434D01*
X75615555Y-110592380D01*
X75417866Y-110217881D01*
X75187552Y-109865780D01*
X74926679Y-109537921D01*
X74637316Y-109236147D01*
X74321529Y-108962304D01*
X73981385Y-108718233D01*
X73618953Y-108505780D01*
X73236300Y-108326789D01*
X72835493Y-108183102D01*
X72418600Y-108076564D01*
X72119397Y-108025228D01*
X71960262Y-108008698D01*
X71773663Y-107998027D01*
X71571973Y-107993220D01*
X71367564Y-107994281D01*
X71172808Y-108001217D01*
X71000077Y-108014033D01*
X70911050Y-108024705D01*
X70474562Y-108108148D01*
X70054549Y-108229782D01*
X69652849Y-108388284D01*
X69271296Y-108582329D01*
X68911728Y-108810593D01*
X68575980Y-109071753D01*
X68265890Y-109364485D01*
X67983293Y-109687465D01*
X67730025Y-110039368D01*
X67507924Y-110418872D01*
X67460028Y-110512770D01*
X67286671Y-110908493D01*
X67153503Y-111313749D01*
X67060179Y-111725860D01*
X67006355Y-112142150D01*
X66991686Y-112559942D01*
X66738373Y-112559942D01*
X66736541Y-112511547D01*
X66751749Y-112109217D01*
X66797393Y-111716691D01*
X66873472Y-111343776D01*
X66873531Y-111343545D01*
X67004930Y-110910083D01*
X67174127Y-110495526D01*
X67380590Y-110100827D01*
X67623789Y-109726939D01*
X67903195Y-109374813D01*
X68072000Y-109190879D01*
X68354480Y-108918635D01*
X68645730Y-108680160D01*
X68955417Y-108468431D01*
X69293210Y-108276424D01*
X69416084Y-108214434D01*
X69747650Y-108065365D01*
X70076531Y-107946026D01*
X70415690Y-107852396D01*
X70778094Y-107780456D01*
X70855417Y-107768178D01*
X71004295Y-107751070D01*
X71183757Y-107739384D01*
X71382402Y-107733116D01*
X71588830Y-107732260D01*
X71791642Y-107736812D01*
G36*
X96275383Y-114897377D02*
G01*
X96305433Y-114964658D01*
X96294389Y-115025171D01*
X96266000Y-115062000D01*
X96262466Y-115065286D01*
X96257862Y-115068398D01*
X96251057Y-115071339D01*
X96240922Y-115074116D01*
X96226327Y-115076732D01*
X96206142Y-115079193D01*
X96179238Y-115081503D01*
X96144485Y-115083667D01*
X96100752Y-115085690D01*
X96046911Y-115087576D01*
X95981831Y-115089330D01*
X95904383Y-115090958D01*
X95813436Y-115092463D01*
X95707862Y-115093851D01*
X95586530Y-115095127D01*
X95448311Y-115096294D01*
X95292074Y-115097358D01*
X95116690Y-115098324D01*
X94921030Y-115099197D01*
X94703963Y-115099980D01*
X94464360Y-115100680D01*
X94201091Y-115101300D01*
X93913026Y-115101846D01*
X93599036Y-115102322D01*
X93257990Y-115102733D01*
X92888759Y-115103084D01*
X92490213Y-115103379D01*
X92061223Y-115103624D01*
X91600658Y-115103823D01*
X91107389Y-115103981D01*
X90580286Y-115104102D01*
X90018219Y-115104192D01*
X89420059Y-115104255D01*
X88784675Y-115104296D01*
X88110939Y-115104319D01*
X87397719Y-115104330D01*
X86643887Y-115104333D01*
X86233000Y-115104334D01*
X85584880Y-115104312D01*
X84947472Y-115104250D01*
X84322080Y-115104147D01*
X83710008Y-115104005D01*
X83112562Y-115103825D01*
X82531044Y-115103610D01*
X81966760Y-115103359D01*
X81421014Y-115103075D01*
X80895111Y-115102758D01*
X80390354Y-115102411D01*
X79908048Y-115102034D01*
X79449498Y-115101628D01*
X79016008Y-115101196D01*
X78608881Y-115100737D01*
X78229424Y-115100255D01*
X77878939Y-115099749D01*
X77558731Y-115099222D01*
X77270106Y-115098674D01*
X77014366Y-115098107D01*
X76792816Y-115097523D01*
X76606762Y-115096922D01*
X76457506Y-115096305D01*
X76346354Y-115095675D01*
X76274610Y-115095033D01*
X76243578Y-115094379D01*
X76242334Y-115094219D01*
X76250942Y-115071352D01*
X76273334Y-115022033D01*
X76299660Y-114967219D01*
X76356986Y-114850334D01*
X96242433Y-114850334D01*
X96275383Y-114897377D01*
G37*
X96275383Y-114897377D02*
X96305433Y-114964658D01*
X96294389Y-115025171D01*
X96266000Y-115062000D01*
X96262466Y-115065286D01*
X96257862Y-115068398D01*
X96251057Y-115071339D01*
X96240922Y-115074116D01*
X96226327Y-115076732D01*
X96206142Y-115079193D01*
X96179238Y-115081503D01*
X96144485Y-115083667D01*
X96100752Y-115085690D01*
X96046911Y-115087576D01*
X95981831Y-115089330D01*
X95904383Y-115090958D01*
X95813436Y-115092463D01*
X95707862Y-115093851D01*
X95586530Y-115095127D01*
X95448311Y-115096294D01*
X95292074Y-115097358D01*
X95116690Y-115098324D01*
X94921030Y-115099197D01*
X94703963Y-115099980D01*
X94464360Y-115100680D01*
X94201091Y-115101300D01*
X93913026Y-115101846D01*
X93599036Y-115102322D01*
X93257990Y-115102733D01*
X92888759Y-115103084D01*
X92490213Y-115103379D01*
X92061223Y-115103624D01*
X91600658Y-115103823D01*
X91107389Y-115103981D01*
X90580286Y-115104102D01*
X90018219Y-115104192D01*
X89420059Y-115104255D01*
X88784675Y-115104296D01*
X88110939Y-115104319D01*
X87397719Y-115104330D01*
X86643887Y-115104333D01*
X86233000Y-115104334D01*
X85584880Y-115104312D01*
X84947472Y-115104250D01*
X84322080Y-115104147D01*
X83710008Y-115104005D01*
X83112562Y-115103825D01*
X82531044Y-115103610D01*
X81966760Y-115103359D01*
X81421014Y-115103075D01*
X80895111Y-115102758D01*
X80390354Y-115102411D01*
X79908048Y-115102034D01*
X79449498Y-115101628D01*
X79016008Y-115101196D01*
X78608881Y-115100737D01*
X78229424Y-115100255D01*
X77878939Y-115099749D01*
X77558731Y-115099222D01*
X77270106Y-115098674D01*
X77014366Y-115098107D01*
X76792816Y-115097523D01*
X76606762Y-115096922D01*
X76457506Y-115096305D01*
X76346354Y-115095675D01*
X76274610Y-115095033D01*
X76243578Y-115094379D01*
X76242334Y-115094219D01*
X76250942Y-115071352D01*
X76273334Y-115022033D01*
X76299660Y-114967219D01*
X76356986Y-114850334D01*
X96242433Y-114850334D01*
X96275383Y-114897377D01*
G36*
X81051478Y-111543154D02*
G01*
X81229692Y-111596361D01*
X81398616Y-111682388D01*
X81553335Y-111802227D01*
X81587491Y-111835805D01*
X81696213Y-111976875D01*
X81775474Y-112141552D01*
X81824508Y-112322320D01*
X81842548Y-112511663D01*
X81828829Y-112702064D01*
X81782585Y-112886007D01*
X81710548Y-113043254D01*
X81649427Y-113127987D01*
X81564195Y-113219503D01*
X81468309Y-113305081D01*
X81375230Y-113371997D01*
X81344456Y-113389346D01*
X81171878Y-113457090D01*
X80979982Y-113497709D01*
X80783638Y-113509046D01*
X80623834Y-113493955D01*
X80462500Y-113447700D01*
X80303145Y-113369737D01*
X80156832Y-113267330D01*
X80034625Y-113147742D01*
X79976164Y-113068708D01*
X79902954Y-112918236D01*
X79855271Y-112744245D01*
X79834307Y-112557855D01*
X79837705Y-112465994D01*
X80215755Y-112465994D01*
X80220596Y-112618870D01*
X80256815Y-112764599D01*
X80314125Y-112877222D01*
X80418856Y-112997570D01*
X80545918Y-113083293D01*
X80691709Y-113133230D01*
X80852631Y-113146218D01*
X81025082Y-113121096D01*
X81049546Y-113114582D01*
X81177130Y-113058052D01*
X81284596Y-112969814D01*
X81369248Y-112856742D01*
X81428389Y-112725711D01*
X81459325Y-112583595D01*
X81459360Y-112437267D01*
X81425799Y-112293603D01*
X81397193Y-112228056D01*
X81310621Y-112101013D01*
X81200294Y-112003915D01*
X81072629Y-111937014D01*
X80934041Y-111900561D01*
X80790949Y-111894807D01*
X80649770Y-111920005D01*
X80516919Y-111976405D01*
X80398815Y-112064259D01*
X80301875Y-112183819D01*
X80301078Y-112185104D01*
X80242509Y-112317546D01*
X80215755Y-112465994D01*
X79837705Y-112465994D01*
X79841251Y-112370183D01*
X79877292Y-112192348D01*
X79881091Y-112180063D01*
X79956693Y-112006400D01*
X80062324Y-111857625D01*
X80193069Y-111734729D01*
X80344012Y-111638705D01*
X80510240Y-111570544D01*
X80686837Y-111531238D01*
X80868888Y-111521777D01*
X81051478Y-111543154D01*
G37*
X81051478Y-111543154D02*
X81229692Y-111596361D01*
X81398616Y-111682388D01*
X81553335Y-111802227D01*
X81587491Y-111835805D01*
X81696213Y-111976875D01*
X81775474Y-112141552D01*
X81824508Y-112322320D01*
X81842548Y-112511663D01*
X81828829Y-112702064D01*
X81782585Y-112886007D01*
X81710548Y-113043254D01*
X81649427Y-113127987D01*
X81564195Y-113219503D01*
X81468309Y-113305081D01*
X81375230Y-113371997D01*
X81344456Y-113389346D01*
X81171878Y-113457090D01*
X80979982Y-113497709D01*
X80783638Y-113509046D01*
X80623834Y-113493955D01*
X80462500Y-113447700D01*
X80303145Y-113369737D01*
X80156832Y-113267330D01*
X80034625Y-113147742D01*
X79976164Y-113068708D01*
X79902954Y-112918236D01*
X79855271Y-112744245D01*
X79834307Y-112557855D01*
X79837705Y-112465994D01*
X80215755Y-112465994D01*
X80220596Y-112618870D01*
X80256815Y-112764599D01*
X80314125Y-112877222D01*
X80418856Y-112997570D01*
X80545918Y-113083293D01*
X80691709Y-113133230D01*
X80852631Y-113146218D01*
X81025082Y-113121096D01*
X81049546Y-113114582D01*
X81177130Y-113058052D01*
X81284596Y-112969814D01*
X81369248Y-112856742D01*
X81428389Y-112725711D01*
X81459325Y-112583595D01*
X81459360Y-112437267D01*
X81425799Y-112293603D01*
X81397193Y-112228056D01*
X81310621Y-112101013D01*
X81200294Y-112003915D01*
X81072629Y-111937014D01*
X80934041Y-111900561D01*
X80790949Y-111894807D01*
X80649770Y-111920005D01*
X80516919Y-111976405D01*
X80398815Y-112064259D01*
X80301875Y-112183819D01*
X80301078Y-112185104D01*
X80242509Y-112317546D01*
X80215755Y-112465994D01*
X79837705Y-112465994D01*
X79841251Y-112370183D01*
X79877292Y-112192348D01*
X79881091Y-112180063D01*
X79956693Y-112006400D01*
X80062324Y-111857625D01*
X80193069Y-111734729D01*
X80344012Y-111638705D01*
X80510240Y-111570544D01*
X80686837Y-111531238D01*
X80868888Y-111521777D01*
X81051478Y-111543154D01*
G36*
X85788678Y-111533834D02*
G01*
X85978846Y-111582751D01*
X86157036Y-111668077D01*
X86172709Y-111677850D01*
X86327544Y-111800480D01*
X86451054Y-111949079D01*
X86541819Y-112119652D01*
X86598420Y-112308203D01*
X86619435Y-112510739D01*
X86603446Y-112723264D01*
X86581898Y-112828917D01*
X86536456Y-112948738D01*
X86461737Y-113074898D01*
X86366862Y-113195915D01*
X86260952Y-113300303D01*
X86153128Y-113376580D01*
X86142328Y-113382356D01*
X85977048Y-113448677D01*
X85790954Y-113491306D01*
X85599815Y-113507849D01*
X85419402Y-113495910D01*
X85407500Y-113493931D01*
X85286906Y-113461466D01*
X85155191Y-113407454D01*
X85028833Y-113339897D01*
X84924312Y-113266795D01*
X84905047Y-113249996D01*
X84783082Y-113110404D01*
X84692892Y-112949127D01*
X84634556Y-112772540D01*
X84608150Y-112587018D01*
X84611317Y-112480697D01*
X84995403Y-112480697D01*
X85000461Y-112607339D01*
X85021478Y-112723802D01*
X85043687Y-112786584D01*
X85127898Y-112923867D01*
X85237225Y-113029823D01*
X85366570Y-113102776D01*
X85510834Y-113141052D01*
X85664920Y-113142974D01*
X85823730Y-113106869D01*
X85909455Y-113071069D01*
X86043357Y-112985136D01*
X86142739Y-112874739D01*
X86207636Y-112739818D01*
X86238084Y-112580308D01*
X86240548Y-112499799D01*
X86219201Y-112337665D01*
X86160716Y-112194941D01*
X86066767Y-112074283D01*
X85939026Y-111978345D01*
X85898177Y-111956640D01*
X85826447Y-111924934D01*
X85761681Y-111907112D01*
X85686214Y-111899643D01*
X85608584Y-111898731D01*
X85510744Y-111902136D01*
X85438245Y-111913069D01*
X85374294Y-111934966D01*
X85332074Y-111955295D01*
X85219332Y-112030947D01*
X85119335Y-112130213D01*
X85045262Y-112239502D01*
X85034330Y-112262237D01*
X85006596Y-112360216D01*
X84995403Y-112480697D01*
X84611317Y-112480697D01*
X84613753Y-112398936D01*
X84651441Y-112214669D01*
X84721293Y-112040591D01*
X84823387Y-111883079D01*
X84887536Y-111811536D01*
X85039294Y-111688630D01*
X85211841Y-111598725D01*
X85398622Y-111542503D01*
X85593086Y-111520646D01*
X85788678Y-111533834D01*
G37*
X85788678Y-111533834D02*
X85978846Y-111582751D01*
X86157036Y-111668077D01*
X86172709Y-111677850D01*
X86327544Y-111800480D01*
X86451054Y-111949079D01*
X86541819Y-112119652D01*
X86598420Y-112308203D01*
X86619435Y-112510739D01*
X86603446Y-112723264D01*
X86581898Y-112828917D01*
X86536456Y-112948738D01*
X86461737Y-113074898D01*
X86366862Y-113195915D01*
X86260952Y-113300303D01*
X86153128Y-113376580D01*
X86142328Y-113382356D01*
X85977048Y-113448677D01*
X85790954Y-113491306D01*
X85599815Y-113507849D01*
X85419402Y-113495910D01*
X85407500Y-113493931D01*
X85286906Y-113461466D01*
X85155191Y-113407454D01*
X85028833Y-113339897D01*
X84924312Y-113266795D01*
X84905047Y-113249996D01*
X84783082Y-113110404D01*
X84692892Y-112949127D01*
X84634556Y-112772540D01*
X84608150Y-112587018D01*
X84611317Y-112480697D01*
X84995403Y-112480697D01*
X85000461Y-112607339D01*
X85021478Y-112723802D01*
X85043687Y-112786584D01*
X85127898Y-112923867D01*
X85237225Y-113029823D01*
X85366570Y-113102776D01*
X85510834Y-113141052D01*
X85664920Y-113142974D01*
X85823730Y-113106869D01*
X85909455Y-113071069D01*
X86043357Y-112985136D01*
X86142739Y-112874739D01*
X86207636Y-112739818D01*
X86238084Y-112580308D01*
X86240548Y-112499799D01*
X86219201Y-112337665D01*
X86160716Y-112194941D01*
X86066767Y-112074283D01*
X85939026Y-111978345D01*
X85898177Y-111956640D01*
X85826447Y-111924934D01*
X85761681Y-111907112D01*
X85686214Y-111899643D01*
X85608584Y-111898731D01*
X85510744Y-111902136D01*
X85438245Y-111913069D01*
X85374294Y-111934966D01*
X85332074Y-111955295D01*
X85219332Y-112030947D01*
X85119335Y-112130213D01*
X85045262Y-112239502D01*
X85034330Y-112262237D01*
X85006596Y-112360216D01*
X84995403Y-112480697D01*
X84611317Y-112480697D01*
X84613753Y-112398936D01*
X84651441Y-112214669D01*
X84721293Y-112040591D01*
X84823387Y-111883079D01*
X84887536Y-111811536D01*
X85039294Y-111688630D01*
X85211841Y-111598725D01*
X85398622Y-111542503D01*
X85593086Y-111520646D01*
X85788678Y-111533834D01*
G36*
X90426619Y-111542204D02*
G01*
X90617348Y-111601620D01*
X90790456Y-111696195D01*
X90941293Y-111822986D01*
X91065211Y-111979055D01*
X91128713Y-112093940D01*
X91160048Y-112165055D01*
X91180529Y-112227336D01*
X91192966Y-112294548D01*
X91200167Y-112380458D01*
X91203673Y-112461208D01*
X91195850Y-112681512D01*
X91155265Y-112875673D01*
X91081201Y-113045213D01*
X90972937Y-113191657D01*
X90829754Y-113316528D01*
X90785796Y-113346241D01*
X90627047Y-113426074D01*
X90445365Y-113480313D01*
X90253194Y-113506617D01*
X90062976Y-113502645D01*
X90000667Y-113493931D01*
X89858153Y-113454988D01*
X89711505Y-113390526D01*
X89576408Y-113308644D01*
X89472111Y-113221128D01*
X89352898Y-113069386D01*
X89267414Y-112896992D01*
X89216461Y-112709903D01*
X89204914Y-112565128D01*
X89583359Y-112565128D01*
X89607436Y-112706309D01*
X89662933Y-112839216D01*
X89750144Y-112957539D01*
X89869364Y-113054970D01*
X89872620Y-113057000D01*
X90016280Y-113121984D01*
X90169977Y-113147012D01*
X90329496Y-113131988D01*
X90490618Y-113076816D01*
X90502182Y-113071285D01*
X90634666Y-112987740D01*
X90731954Y-112882495D01*
X90795272Y-112753471D01*
X90825851Y-112598594D01*
X90829261Y-112518247D01*
X90812450Y-112350371D01*
X90761186Y-112206971D01*
X90675045Y-112087345D01*
X90553605Y-111990791D01*
X90491344Y-111956640D01*
X90419614Y-111924934D01*
X90354847Y-111907112D01*
X90279380Y-111899643D01*
X90201750Y-111898731D01*
X90104164Y-111902104D01*
X90031836Y-111912972D01*
X89967883Y-111934813D01*
X89923973Y-111955937D01*
X89795364Y-112043849D01*
X89696704Y-112155034D01*
X89628287Y-112283182D01*
X89590407Y-112421983D01*
X89583359Y-112565128D01*
X89204914Y-112565128D01*
X89200842Y-112514075D01*
X89221359Y-112315464D01*
X89278814Y-112120026D01*
X89313273Y-112042118D01*
X89413817Y-111883256D01*
X89545433Y-111749852D01*
X89703545Y-111644527D01*
X89883578Y-111569903D01*
X90080958Y-111528601D01*
X90222917Y-111520887D01*
X90426619Y-111542204D01*
G37*
X90426619Y-111542204D02*
X90617348Y-111601620D01*
X90790456Y-111696195D01*
X90941293Y-111822986D01*
X91065211Y-111979055D01*
X91128713Y-112093940D01*
X91160048Y-112165055D01*
X91180529Y-112227336D01*
X91192966Y-112294548D01*
X91200167Y-112380458D01*
X91203673Y-112461208D01*
X91195850Y-112681512D01*
X91155265Y-112875673D01*
X91081201Y-113045213D01*
X90972937Y-113191657D01*
X90829754Y-113316528D01*
X90785796Y-113346241D01*
X90627047Y-113426074D01*
X90445365Y-113480313D01*
X90253194Y-113506617D01*
X90062976Y-113502645D01*
X90000667Y-113493931D01*
X89858153Y-113454988D01*
X89711505Y-113390526D01*
X89576408Y-113308644D01*
X89472111Y-113221128D01*
X89352898Y-113069386D01*
X89267414Y-112896992D01*
X89216461Y-112709903D01*
X89204914Y-112565128D01*
X89583359Y-112565128D01*
X89607436Y-112706309D01*
X89662933Y-112839216D01*
X89750144Y-112957539D01*
X89869364Y-113054970D01*
X89872620Y-113057000D01*
X90016280Y-113121984D01*
X90169977Y-113147012D01*
X90329496Y-113131988D01*
X90490618Y-113076816D01*
X90502182Y-113071285D01*
X90634666Y-112987740D01*
X90731954Y-112882495D01*
X90795272Y-112753471D01*
X90825851Y-112598594D01*
X90829261Y-112518247D01*
X90812450Y-112350371D01*
X90761186Y-112206971D01*
X90675045Y-112087345D01*
X90553605Y-111990791D01*
X90491344Y-111956640D01*
X90419614Y-111924934D01*
X90354847Y-111907112D01*
X90279380Y-111899643D01*
X90201750Y-111898731D01*
X90104164Y-111902104D01*
X90031836Y-111912972D01*
X89967883Y-111934813D01*
X89923973Y-111955937D01*
X89795364Y-112043849D01*
X89696704Y-112155034D01*
X89628287Y-112283182D01*
X89590407Y-112421983D01*
X89583359Y-112565128D01*
X89204914Y-112565128D01*
X89200842Y-112514075D01*
X89221359Y-112315464D01*
X89278814Y-112120026D01*
X89313273Y-112042118D01*
X89413817Y-111883256D01*
X89545433Y-111749852D01*
X89703545Y-111644527D01*
X89883578Y-111569903D01*
X90080958Y-111528601D01*
X90222917Y-111520887D01*
X90426619Y-111542204D01*
G36*
X78520191Y-111591374D02*
G01*
X78658507Y-111594215D01*
X78766902Y-111600268D01*
X78851579Y-111610609D01*
X78918735Y-111626318D01*
X78974573Y-111648471D01*
X79025292Y-111678147D01*
X79077092Y-111716422D01*
X79079316Y-111718181D01*
X79139007Y-111779318D01*
X79198014Y-111862799D01*
X79225570Y-111912326D01*
X79276892Y-112057581D01*
X79294041Y-112212022D01*
X79276710Y-112363722D01*
X79240090Y-112470261D01*
X79204782Y-112529513D01*
X79154327Y-112594634D01*
X79097626Y-112656243D01*
X79043577Y-112704960D01*
X79001079Y-112731405D01*
X78990190Y-112733667D01*
X78974226Y-112742033D01*
X78980789Y-112769292D01*
X79011759Y-112818684D01*
X79069017Y-112893450D01*
X79116814Y-112951887D01*
X79198564Y-113051180D01*
X79256692Y-113124907D01*
X79295175Y-113179599D01*
X79317993Y-113221786D01*
X79329124Y-113258000D01*
X79332547Y-113294772D01*
X79332667Y-113306187D01*
X79314410Y-113386660D01*
X79265784Y-113446346D01*
X79196008Y-113479461D01*
X79114299Y-113480217D01*
X79074929Y-113467973D01*
X79041420Y-113447576D01*
X79001494Y-113409876D01*
X78951361Y-113350322D01*
X78887226Y-113264361D01*
X78805300Y-113147441D01*
X78792917Y-113129397D01*
X78581250Y-112820380D01*
X78168500Y-112818334D01*
X78168500Y-113073385D01*
X78165971Y-113209163D01*
X78157005Y-113309209D01*
X78139530Y-113379899D01*
X78111477Y-113427607D01*
X78070775Y-113458710D01*
X78038985Y-113472205D01*
X77993147Y-113487347D01*
X77970084Y-113493340D01*
X77969550Y-113493211D01*
X77950234Y-113486968D01*
X77925084Y-113480515D01*
X77878580Y-113458791D01*
X77835125Y-113426364D01*
X77787500Y-113382454D01*
X77787500Y-112528894D01*
X77787569Y-112316235D01*
X77787904Y-112141866D01*
X77788695Y-112001744D01*
X77789642Y-111929334D01*
X78168500Y-111929334D01*
X78168500Y-112482790D01*
X78475070Y-112475937D01*
X78781639Y-112469084D01*
X78848405Y-112402258D01*
X78903731Y-112319048D01*
X78928728Y-112218779D01*
X78921225Y-112116002D01*
X78899701Y-112058171D01*
X78867865Y-112010584D01*
X78824584Y-111975865D01*
X78763454Y-111952201D01*
X78678071Y-111937781D01*
X78562030Y-111930792D01*
X78444347Y-111929334D01*
X78168500Y-111929334D01*
X77789642Y-111929334D01*
X77790134Y-111891827D01*
X77792411Y-111808071D01*
X77795718Y-111746434D01*
X77800246Y-111702872D01*
X77806185Y-111673343D01*
X77813727Y-111653804D01*
X77823064Y-111640211D01*
X77829834Y-111633000D01*
X77845891Y-111619247D01*
X77866665Y-111608838D01*
X77897800Y-111601310D01*
X77944938Y-111596199D01*
X78013722Y-111593044D01*
X78109795Y-111591381D01*
X78238800Y-111590747D01*
X78345756Y-111590667D01*
X78520191Y-111591374D01*
G37*
X78520191Y-111591374D02*
X78658507Y-111594215D01*
X78766902Y-111600268D01*
X78851579Y-111610609D01*
X78918735Y-111626318D01*
X78974573Y-111648471D01*
X79025292Y-111678147D01*
X79077092Y-111716422D01*
X79079316Y-111718181D01*
X79139007Y-111779318D01*
X79198014Y-111862799D01*
X79225570Y-111912326D01*
X79276892Y-112057581D01*
X79294041Y-112212022D01*
X79276710Y-112363722D01*
X79240090Y-112470261D01*
X79204782Y-112529513D01*
X79154327Y-112594634D01*
X79097626Y-112656243D01*
X79043577Y-112704960D01*
X79001079Y-112731405D01*
X78990190Y-112733667D01*
X78974226Y-112742033D01*
X78980789Y-112769292D01*
X79011759Y-112818684D01*
X79069017Y-112893450D01*
X79116814Y-112951887D01*
X79198564Y-113051180D01*
X79256692Y-113124907D01*
X79295175Y-113179599D01*
X79317993Y-113221786D01*
X79329124Y-113258000D01*
X79332547Y-113294772D01*
X79332667Y-113306187D01*
X79314410Y-113386660D01*
X79265784Y-113446346D01*
X79196008Y-113479461D01*
X79114299Y-113480217D01*
X79074929Y-113467973D01*
X79041420Y-113447576D01*
X79001494Y-113409876D01*
X78951361Y-113350322D01*
X78887226Y-113264361D01*
X78805300Y-113147441D01*
X78792917Y-113129397D01*
X78581250Y-112820380D01*
X78168500Y-112818334D01*
X78168500Y-113073385D01*
X78165971Y-113209163D01*
X78157005Y-113309209D01*
X78139530Y-113379899D01*
X78111477Y-113427607D01*
X78070775Y-113458710D01*
X78038985Y-113472205D01*
X77993147Y-113487347D01*
X77970084Y-113493340D01*
X77969550Y-113493211D01*
X77950234Y-113486968D01*
X77925084Y-113480515D01*
X77878580Y-113458791D01*
X77835125Y-113426364D01*
X77787500Y-113382454D01*
X77787500Y-112528894D01*
X77787569Y-112316235D01*
X77787904Y-112141866D01*
X77788695Y-112001744D01*
X77789642Y-111929334D01*
X78168500Y-111929334D01*
X78168500Y-112482790D01*
X78475070Y-112475937D01*
X78781639Y-112469084D01*
X78848405Y-112402258D01*
X78903731Y-112319048D01*
X78928728Y-112218779D01*
X78921225Y-112116002D01*
X78899701Y-112058171D01*
X78867865Y-112010584D01*
X78824584Y-111975865D01*
X78763454Y-111952201D01*
X78678071Y-111937781D01*
X78562030Y-111930792D01*
X78444347Y-111929334D01*
X78168500Y-111929334D01*
X77789642Y-111929334D01*
X77790134Y-111891827D01*
X77792411Y-111808071D01*
X77795718Y-111746434D01*
X77800246Y-111702872D01*
X77806185Y-111673343D01*
X77813727Y-111653804D01*
X77823064Y-111640211D01*
X77829834Y-111633000D01*
X77845891Y-111619247D01*
X77866665Y-111608838D01*
X77897800Y-111601310D01*
X77944938Y-111596199D01*
X78013722Y-111593044D01*
X78109795Y-111591381D01*
X78238800Y-111590747D01*
X78345756Y-111590667D01*
X78520191Y-111591374D01*
G36*
X93520728Y-111596675D02*
G01*
X93525264Y-111599531D01*
X93552949Y-111627373D01*
X93599229Y-111684756D01*
X93659666Y-111765707D01*
X93729821Y-111864249D01*
X93805255Y-111974408D01*
X93819043Y-111994997D01*
X94059745Y-112355686D01*
X94286989Y-112020801D01*
X94360278Y-111913379D01*
X94427467Y-111815981D01*
X94484178Y-111734869D01*
X94526034Y-111676302D01*
X94548657Y-111646544D01*
X94548742Y-111646446D01*
X94613945Y-111598313D01*
X94689158Y-111581757D01*
X94764344Y-111593450D01*
X94829470Y-111630067D01*
X94874500Y-111688280D01*
X94889542Y-111759418D01*
X94876804Y-111795086D01*
X94839919Y-111862455D01*
X94780203Y-111959409D01*
X94698975Y-112083831D01*
X94597554Y-112233607D01*
X94561458Y-112285954D01*
X94234000Y-112758992D01*
X94234000Y-113062098D01*
X94233115Y-113173485D01*
X94230683Y-113271473D01*
X94227043Y-113347402D01*
X94222531Y-113392615D01*
X94220852Y-113399469D01*
X94189902Y-113436055D01*
X94135620Y-113470263D01*
X94076281Y-113491906D01*
X94049843Y-113494819D01*
X94003651Y-113484329D01*
X93955787Y-113463570D01*
X93917723Y-113434809D01*
X93889883Y-113391937D01*
X93870890Y-113328949D01*
X93859363Y-113239841D01*
X93853925Y-113118609D01*
X93853000Y-113016040D01*
X93853000Y-112733230D01*
X93546084Y-112273149D01*
X93438197Y-112109159D01*
X93352895Y-111974578D01*
X93290846Y-111870530D01*
X93252721Y-111798139D01*
X93239187Y-111758528D01*
X93239167Y-111757639D01*
X93257785Y-111683698D01*
X93306283Y-111624534D01*
X93373628Y-111586244D01*
X93448787Y-111574925D01*
X93520728Y-111596675D01*
G37*
X93520728Y-111596675D02*
X93525264Y-111599531D01*
X93552949Y-111627373D01*
X93599229Y-111684756D01*
X93659666Y-111765707D01*
X93729821Y-111864249D01*
X93805255Y-111974408D01*
X93819043Y-111994997D01*
X94059745Y-112355686D01*
X94286989Y-112020801D01*
X94360278Y-111913379D01*
X94427467Y-111815981D01*
X94484178Y-111734869D01*
X94526034Y-111676302D01*
X94548657Y-111646544D01*
X94548742Y-111646446D01*
X94613945Y-111598313D01*
X94689158Y-111581757D01*
X94764344Y-111593450D01*
X94829470Y-111630067D01*
X94874500Y-111688280D01*
X94889542Y-111759418D01*
X94876804Y-111795086D01*
X94839919Y-111862455D01*
X94780203Y-111959409D01*
X94698975Y-112083831D01*
X94597554Y-112233607D01*
X94561458Y-112285954D01*
X94234000Y-112758992D01*
X94234000Y-113062098D01*
X94233115Y-113173485D01*
X94230683Y-113271473D01*
X94227043Y-113347402D01*
X94222531Y-113392615D01*
X94220852Y-113399469D01*
X94189902Y-113436055D01*
X94135620Y-113470263D01*
X94076281Y-113491906D01*
X94049843Y-113494819D01*
X94003651Y-113484329D01*
X93955787Y-113463570D01*
X93917723Y-113434809D01*
X93889883Y-113391937D01*
X93870890Y-113328949D01*
X93859363Y-113239841D01*
X93853925Y-113118609D01*
X93853000Y-113016040D01*
X93853000Y-112733230D01*
X93546084Y-112273149D01*
X93438197Y-112109159D01*
X93352895Y-111974578D01*
X93290846Y-111870530D01*
X93252721Y-111798139D01*
X93239187Y-111758528D01*
X93239167Y-111757639D01*
X93257785Y-111683698D01*
X93306283Y-111624534D01*
X93373628Y-111586244D01*
X93448787Y-111574925D01*
X93520728Y-111596675D01*
G36*
X83190991Y-111591110D02*
G01*
X83314258Y-111592008D01*
X83407496Y-111594075D01*
X83476855Y-111597816D01*
X83528487Y-111603737D01*
X83568543Y-111612344D01*
X83603174Y-111624144D01*
X83638534Y-111639642D01*
X83641583Y-111641060D01*
X83762457Y-111718494D01*
X83850522Y-111821955D01*
X83904697Y-111949445D01*
X83923903Y-112098967D01*
X83921916Y-112159666D01*
X83903896Y-112269204D01*
X83864125Y-112358506D01*
X83856362Y-112370662D01*
X83823813Y-112422155D01*
X83813779Y-112449425D01*
X83824488Y-112462921D01*
X83839747Y-112468633D01*
X83888258Y-112498356D01*
X83945966Y-112553751D01*
X84002828Y-112622781D01*
X84048802Y-112693411D01*
X84072275Y-112747326D01*
X84094301Y-112900110D01*
X84076690Y-113048416D01*
X84021190Y-113185563D01*
X83929552Y-113304874D01*
X83925096Y-113309243D01*
X83875162Y-113355093D01*
X83826622Y-113391626D01*
X83774019Y-113419889D01*
X83711898Y-113440932D01*
X83634804Y-113455801D01*
X83537281Y-113465544D01*
X83413875Y-113471210D01*
X83259129Y-113473846D01*
X83067589Y-113474500D01*
X83064742Y-113474500D01*
X82899845Y-113474337D01*
X82772029Y-113473592D01*
X82676043Y-113471880D01*
X82606637Y-113468817D01*
X82558557Y-113464019D01*
X82526554Y-113457100D01*
X82505376Y-113447677D01*
X82489771Y-113435365D01*
X82486500Y-113432167D01*
X82475977Y-113420256D01*
X82467359Y-113404912D01*
X82460455Y-113382100D01*
X82455075Y-113347788D01*
X82451031Y-113297942D01*
X82448132Y-113228528D01*
X82446268Y-113139330D01*
X82804000Y-113139330D01*
X83170130Y-113132290D01*
X83308853Y-113128984D01*
X83411842Y-113124715D01*
X83485695Y-113118796D01*
X83537011Y-113110539D01*
X83572388Y-113099257D01*
X83592588Y-113088294D01*
X83639043Y-113039698D01*
X83672760Y-112971669D01*
X83673689Y-112968653D01*
X83687073Y-112907014D01*
X83680555Y-112856105D01*
X83658689Y-112804693D01*
X83633596Y-112759328D01*
X83604735Y-112725495D01*
X83565848Y-112701513D01*
X83510677Y-112685703D01*
X83432965Y-112676388D01*
X83326454Y-112671886D01*
X83184886Y-112670519D01*
X83158542Y-112670479D01*
X82804000Y-112670167D01*
X82804000Y-113139330D01*
X82446268Y-113139330D01*
X82446188Y-113135514D01*
X82445010Y-113014866D01*
X82444407Y-112862550D01*
X82444191Y-112674534D01*
X82444167Y-112532584D01*
X82444235Y-112319425D01*
X82444568Y-112144567D01*
X82445353Y-112003976D01*
X82446319Y-111929334D01*
X82804000Y-111929334D01*
X82804000Y-112310334D01*
X83457094Y-112310334D01*
X83500964Y-112254562D01*
X83532641Y-112189490D01*
X83543772Y-112112228D01*
X83533073Y-112041343D01*
X83517702Y-112012166D01*
X83487711Y-111980662D01*
X83449020Y-111958105D01*
X83394605Y-111943097D01*
X83317448Y-111934240D01*
X83210525Y-111930135D01*
X83101725Y-111929334D01*
X82804000Y-111929334D01*
X82446319Y-111929334D01*
X82446782Y-111893617D01*
X82449044Y-111809458D01*
X82452328Y-111747466D01*
X82456826Y-111703606D01*
X82462725Y-111673846D01*
X82470217Y-111654152D01*
X82479491Y-111640491D01*
X82486500Y-111633000D01*
X82502066Y-111619610D01*
X82522173Y-111609384D01*
X82552272Y-111601901D01*
X82597810Y-111596739D01*
X82664239Y-111593477D01*
X82757008Y-111591694D01*
X82881566Y-111590968D01*
X83031542Y-111590874D01*
X83190991Y-111591110D01*
G37*
X83190991Y-111591110D02*
X83314258Y-111592008D01*
X83407496Y-111594075D01*
X83476855Y-111597816D01*
X83528487Y-111603737D01*
X83568543Y-111612344D01*
X83603174Y-111624144D01*
X83638534Y-111639642D01*
X83641583Y-111641060D01*
X83762457Y-111718494D01*
X83850522Y-111821955D01*
X83904697Y-111949445D01*
X83923903Y-112098967D01*
X83921916Y-112159666D01*
X83903896Y-112269204D01*
X83864125Y-112358506D01*
X83856362Y-112370662D01*
X83823813Y-112422155D01*
X83813779Y-112449425D01*
X83824488Y-112462921D01*
X83839747Y-112468633D01*
X83888258Y-112498356D01*
X83945966Y-112553751D01*
X84002828Y-112622781D01*
X84048802Y-112693411D01*
X84072275Y-112747326D01*
X84094301Y-112900110D01*
X84076690Y-113048416D01*
X84021190Y-113185563D01*
X83929552Y-113304874D01*
X83925096Y-113309243D01*
X83875162Y-113355093D01*
X83826622Y-113391626D01*
X83774019Y-113419889D01*
X83711898Y-113440932D01*
X83634804Y-113455801D01*
X83537281Y-113465544D01*
X83413875Y-113471210D01*
X83259129Y-113473846D01*
X83067589Y-113474500D01*
X83064742Y-113474500D01*
X82899845Y-113474337D01*
X82772029Y-113473592D01*
X82676043Y-113471880D01*
X82606637Y-113468817D01*
X82558557Y-113464019D01*
X82526554Y-113457100D01*
X82505376Y-113447677D01*
X82489771Y-113435365D01*
X82486500Y-113432167D01*
X82475977Y-113420256D01*
X82467359Y-113404912D01*
X82460455Y-113382100D01*
X82455075Y-113347788D01*
X82451031Y-113297942D01*
X82448132Y-113228528D01*
X82446268Y-113139330D01*
X82804000Y-113139330D01*
X83170130Y-113132290D01*
X83308853Y-113128984D01*
X83411842Y-113124715D01*
X83485695Y-113118796D01*
X83537011Y-113110539D01*
X83572388Y-113099257D01*
X83592588Y-113088294D01*
X83639043Y-113039698D01*
X83672760Y-112971669D01*
X83673689Y-112968653D01*
X83687073Y-112907014D01*
X83680555Y-112856105D01*
X83658689Y-112804693D01*
X83633596Y-112759328D01*
X83604735Y-112725495D01*
X83565848Y-112701513D01*
X83510677Y-112685703D01*
X83432965Y-112676388D01*
X83326454Y-112671886D01*
X83184886Y-112670519D01*
X83158542Y-112670479D01*
X82804000Y-112670167D01*
X82804000Y-113139330D01*
X82446268Y-113139330D01*
X82446188Y-113135514D01*
X82445010Y-113014866D01*
X82444407Y-112862550D01*
X82444191Y-112674534D01*
X82444167Y-112532584D01*
X82444235Y-112319425D01*
X82444568Y-112144567D01*
X82445353Y-112003976D01*
X82446319Y-111929334D01*
X82804000Y-111929334D01*
X82804000Y-112310334D01*
X83457094Y-112310334D01*
X83500964Y-112254562D01*
X83532641Y-112189490D01*
X83543772Y-112112228D01*
X83533073Y-112041343D01*
X83517702Y-112012166D01*
X83487711Y-111980662D01*
X83449020Y-111958105D01*
X83394605Y-111943097D01*
X83317448Y-111934240D01*
X83210525Y-111930135D01*
X83101725Y-111929334D01*
X82804000Y-111929334D01*
X82446319Y-111929334D01*
X82446782Y-111893617D01*
X82449044Y-111809458D01*
X82452328Y-111747466D01*
X82456826Y-111703606D01*
X82462725Y-111673846D01*
X82470217Y-111654152D01*
X82479491Y-111640491D01*
X82486500Y-111633000D01*
X82502066Y-111619610D01*
X82522173Y-111609384D01*
X82552272Y-111601901D01*
X82597810Y-111596739D01*
X82664239Y-111593477D01*
X82757008Y-111591694D01*
X82881566Y-111590968D01*
X83031542Y-111590874D01*
X83190991Y-111591110D01*
G36*
X88049821Y-111558061D02*
G01*
X88182819Y-111574238D01*
X88292195Y-111601192D01*
X88384031Y-111640426D01*
X88464408Y-111693443D01*
X88539408Y-111761747D01*
X88540119Y-111762479D01*
X88631043Y-111885314D01*
X88689257Y-112033286D01*
X88715227Y-112207705D01*
X88716775Y-112260012D01*
X88715326Y-112354034D01*
X88706809Y-112423972D01*
X88687301Y-112487959D01*
X88652881Y-112564127D01*
X88649495Y-112571027D01*
X88568225Y-112701168D01*
X88465044Y-112799971D01*
X88331987Y-112874673D01*
X88301423Y-112887227D01*
X88242406Y-112906486D01*
X88173282Y-112920500D01*
X88084971Y-112930442D01*
X87968394Y-112937487D01*
X87889292Y-112940541D01*
X87587667Y-112950665D01*
X87587667Y-113166560D01*
X87586895Y-113265747D01*
X87583401Y-113332061D01*
X87575418Y-113374951D01*
X87561178Y-113403866D01*
X87538914Y-113428255D01*
X87538678Y-113428477D01*
X87468979Y-113467473D01*
X87388174Y-113473873D01*
X87311834Y-113447949D01*
X87281191Y-113423948D01*
X87240836Y-113365835D01*
X87217471Y-113302240D01*
X87214622Y-113265107D01*
X87212337Y-113190907D01*
X87210657Y-113084903D01*
X87209625Y-112952358D01*
X87209280Y-112798536D01*
X87209666Y-112628699D01*
X87210777Y-112453664D01*
X87215142Y-111929334D01*
X87587667Y-111929334D01*
X87587667Y-112564334D01*
X87857542Y-112564254D01*
X87973957Y-112563360D01*
X88056861Y-112560028D01*
X88115053Y-112553163D01*
X88157333Y-112541671D01*
X88192500Y-112524459D01*
X88196402Y-112522115D01*
X88278959Y-112449602D01*
X88329556Y-112358138D01*
X88348074Y-112256669D01*
X88334395Y-112154142D01*
X88288399Y-112059502D01*
X88209966Y-111981696D01*
X88203662Y-111977380D01*
X88170127Y-111957353D01*
X88134486Y-111943787D01*
X88087883Y-111935446D01*
X88021464Y-111931093D01*
X87926376Y-111929490D01*
X87859703Y-111929334D01*
X87587667Y-111929334D01*
X87215142Y-111929334D01*
X87217250Y-111676245D01*
X87334516Y-111558917D01*
X87688633Y-111552024D01*
X87887120Y-111551157D01*
X88049821Y-111558061D01*
G37*
X88049821Y-111558061D02*
X88182819Y-111574238D01*
X88292195Y-111601192D01*
X88384031Y-111640426D01*
X88464408Y-111693443D01*
X88539408Y-111761747D01*
X88540119Y-111762479D01*
X88631043Y-111885314D01*
X88689257Y-112033286D01*
X88715227Y-112207705D01*
X88716775Y-112260012D01*
X88715326Y-112354034D01*
X88706809Y-112423972D01*
X88687301Y-112487959D01*
X88652881Y-112564127D01*
X88649495Y-112571027D01*
X88568225Y-112701168D01*
X88465044Y-112799971D01*
X88331987Y-112874673D01*
X88301423Y-112887227D01*
X88242406Y-112906486D01*
X88173282Y-112920500D01*
X88084971Y-112930442D01*
X87968394Y-112937487D01*
X87889292Y-112940541D01*
X87587667Y-112950665D01*
X87587667Y-113166560D01*
X87586895Y-113265747D01*
X87583401Y-113332061D01*
X87575418Y-113374951D01*
X87561178Y-113403866D01*
X87538914Y-113428255D01*
X87538678Y-113428477D01*
X87468979Y-113467473D01*
X87388174Y-113473873D01*
X87311834Y-113447949D01*
X87281191Y-113423948D01*
X87240836Y-113365835D01*
X87217471Y-113302240D01*
X87214622Y-113265107D01*
X87212337Y-113190907D01*
X87210657Y-113084903D01*
X87209625Y-112952358D01*
X87209280Y-112798536D01*
X87209666Y-112628699D01*
X87210777Y-112453664D01*
X87215142Y-111929334D01*
X87587667Y-111929334D01*
X87587667Y-112564334D01*
X87857542Y-112564254D01*
X87973957Y-112563360D01*
X88056861Y-112560028D01*
X88115053Y-112553163D01*
X88157333Y-112541671D01*
X88192500Y-112524459D01*
X88196402Y-112522115D01*
X88278959Y-112449602D01*
X88329556Y-112358138D01*
X88348074Y-112256669D01*
X88334395Y-112154142D01*
X88288399Y-112059502D01*
X88209966Y-111981696D01*
X88203662Y-111977380D01*
X88170127Y-111957353D01*
X88134486Y-111943787D01*
X88087883Y-111935446D01*
X88021464Y-111931093D01*
X87926376Y-111929490D01*
X87859703Y-111929334D01*
X87587667Y-111929334D01*
X87215142Y-111929334D01*
X87217250Y-111676245D01*
X87334516Y-111558917D01*
X87688633Y-111552024D01*
X87887120Y-111551157D01*
X88049821Y-111558061D01*
G36*
X92084448Y-111614138D02*
G01*
X92125781Y-111657541D01*
X92135219Y-111675579D01*
X92142761Y-111702813D01*
X92148612Y-111743701D01*
X92152975Y-111802699D01*
X92156054Y-111884264D01*
X92158053Y-111992853D01*
X92159176Y-112132923D01*
X92159628Y-112308931D01*
X92159667Y-112397762D01*
X92159667Y-113089604D01*
X92571963Y-113096844D01*
X92984260Y-113104084D01*
X93039747Y-113159598D01*
X93085813Y-113230896D01*
X93097206Y-113309884D01*
X93073958Y-113384539D01*
X93039020Y-113426147D01*
X93020617Y-113440985D01*
X93000604Y-113452427D01*
X92973594Y-113460916D01*
X92934202Y-113466891D01*
X92877039Y-113470794D01*
X92796720Y-113473065D01*
X92687857Y-113474146D01*
X92545064Y-113474478D01*
X92448282Y-113474500D01*
X92268327Y-113473879D01*
X92127103Y-113471903D01*
X92021025Y-113468406D01*
X91946507Y-113463223D01*
X91899964Y-113456185D01*
X91878915Y-113448042D01*
X91859230Y-113430127D01*
X91843082Y-113406440D01*
X91830128Y-113372922D01*
X91820022Y-113325517D01*
X91812418Y-113260168D01*
X91806970Y-113172819D01*
X91803333Y-113059412D01*
X91801162Y-112915891D01*
X91800110Y-112738198D01*
X91799834Y-112522278D01*
X91799834Y-112519571D01*
X91799995Y-112303293D01*
X91800843Y-112125366D01*
X91802926Y-111981809D01*
X91806789Y-111868640D01*
X91812980Y-111781878D01*
X91822046Y-111717540D01*
X91834533Y-111671646D01*
X91850988Y-111640213D01*
X91871958Y-111619260D01*
X91897990Y-111604804D01*
X91926982Y-111593787D01*
X92011118Y-111583929D01*
X92084448Y-111614138D01*
G37*
X92084448Y-111614138D02*
X92125781Y-111657541D01*
X92135219Y-111675579D01*
X92142761Y-111702813D01*
X92148612Y-111743701D01*
X92152975Y-111802699D01*
X92156054Y-111884264D01*
X92158053Y-111992853D01*
X92159176Y-112132923D01*
X92159628Y-112308931D01*
X92159667Y-112397762D01*
X92159667Y-113089604D01*
X92571963Y-113096844D01*
X92984260Y-113104084D01*
X93039747Y-113159598D01*
X93085813Y-113230896D01*
X93097206Y-113309884D01*
X93073958Y-113384539D01*
X93039020Y-113426147D01*
X93020617Y-113440985D01*
X93000604Y-113452427D01*
X92973594Y-113460916D01*
X92934202Y-113466891D01*
X92877039Y-113470794D01*
X92796720Y-113473065D01*
X92687857Y-113474146D01*
X92545064Y-113474478D01*
X92448282Y-113474500D01*
X92268327Y-113473879D01*
X92127103Y-113471903D01*
X92021025Y-113468406D01*
X91946507Y-113463223D01*
X91899964Y-113456185D01*
X91878915Y-113448042D01*
X91859230Y-113430127D01*
X91843082Y-113406440D01*
X91830128Y-113372922D01*
X91820022Y-113325517D01*
X91812418Y-113260168D01*
X91806970Y-113172819D01*
X91803333Y-113059412D01*
X91801162Y-112915891D01*
X91800110Y-112738198D01*
X91799834Y-112522278D01*
X91799834Y-112519571D01*
X91799995Y-112303293D01*
X91800843Y-112125366D01*
X91802926Y-111981809D01*
X91806789Y-111868640D01*
X91812980Y-111781878D01*
X91822046Y-111717540D01*
X91834533Y-111671646D01*
X91850988Y-111640213D01*
X91871958Y-111619260D01*
X91897990Y-111604804D01*
X91926982Y-111593787D01*
X92011118Y-111583929D01*
X92084448Y-111614138D01*
G36*
X87008527Y-109918501D02*
G01*
X87742850Y-109918508D01*
X88437099Y-109918524D01*
X89092404Y-109918555D01*
X89709895Y-109918606D01*
X90290701Y-109918681D01*
X90835953Y-109918785D01*
X91346780Y-109918923D01*
X91824311Y-109919100D01*
X92269677Y-109919320D01*
X92684008Y-109919588D01*
X93068433Y-109919910D01*
X93424081Y-109920289D01*
X93752083Y-109920730D01*
X94053569Y-109921239D01*
X94329668Y-109921820D01*
X94581510Y-109922477D01*
X94810224Y-109923216D01*
X95016941Y-109924042D01*
X95202791Y-109924958D01*
X95368902Y-109925970D01*
X95516405Y-109927083D01*
X95646430Y-109928302D01*
X95760106Y-109929630D01*
X95858564Y-109931073D01*
X95942932Y-109932636D01*
X96014341Y-109934324D01*
X96073920Y-109936141D01*
X96122800Y-109938091D01*
X96162109Y-109940181D01*
X96192978Y-109942414D01*
X96216537Y-109944795D01*
X96233915Y-109947329D01*
X96246242Y-109950021D01*
X96254648Y-109952876D01*
X96260263Y-109955898D01*
X96264216Y-109959092D01*
X96266000Y-109960834D01*
X96303218Y-110019311D01*
X96299185Y-110081798D01*
X96275383Y-110125457D01*
X96242433Y-110172500D01*
X76356986Y-110172500D01*
X76299660Y-110055615D01*
X76269539Y-109992682D01*
X76248777Y-109946398D01*
X76242334Y-109928615D01*
X76263283Y-109927958D01*
X76325261Y-109927313D01*
X76426964Y-109926680D01*
X76567087Y-109926060D01*
X76744326Y-109925455D01*
X76957376Y-109924867D01*
X77204934Y-109924295D01*
X77485694Y-109923743D01*
X77798353Y-109923211D01*
X78141605Y-109922700D01*
X78514148Y-109922211D01*
X78914675Y-109921747D01*
X79341884Y-109921308D01*
X79794469Y-109920896D01*
X80271126Y-109920512D01*
X80770552Y-109920157D01*
X81291440Y-109919833D01*
X81832488Y-109919541D01*
X82392390Y-109919282D01*
X82969843Y-109919057D01*
X83563541Y-109918869D01*
X84172182Y-109918718D01*
X84794459Y-109918605D01*
X85429070Y-109918533D01*
X86074708Y-109918501D01*
X86233000Y-109918500D01*
X87008527Y-109918501D01*
G37*
X87008527Y-109918501D02*
X87742850Y-109918508D01*
X88437099Y-109918524D01*
X89092404Y-109918555D01*
X89709895Y-109918606D01*
X90290701Y-109918681D01*
X90835953Y-109918785D01*
X91346780Y-109918923D01*
X91824311Y-109919100D01*
X92269677Y-109919320D01*
X92684008Y-109919588D01*
X93068433Y-109919910D01*
X93424081Y-109920289D01*
X93752083Y-109920730D01*
X94053569Y-109921239D01*
X94329668Y-109921820D01*
X94581510Y-109922477D01*
X94810224Y-109923216D01*
X95016941Y-109924042D01*
X95202791Y-109924958D01*
X95368902Y-109925970D01*
X95516405Y-109927083D01*
X95646430Y-109928302D01*
X95760106Y-109929630D01*
X95858564Y-109931073D01*
X95942932Y-109932636D01*
X96014341Y-109934324D01*
X96073920Y-109936141D01*
X96122800Y-109938091D01*
X96162109Y-109940181D01*
X96192978Y-109942414D01*
X96216537Y-109944795D01*
X96233915Y-109947329D01*
X96246242Y-109950021D01*
X96254648Y-109952876D01*
X96260263Y-109955898D01*
X96264216Y-109959092D01*
X96266000Y-109960834D01*
X96303218Y-110019311D01*
X96299185Y-110081798D01*
X96275383Y-110125457D01*
X96242433Y-110172500D01*
X76356986Y-110172500D01*
X76299660Y-110055615D01*
X76269539Y-109992682D01*
X76248777Y-109946398D01*
X76242334Y-109928615D01*
X76263283Y-109927958D01*
X76325261Y-109927313D01*
X76426964Y-109926680D01*
X76567087Y-109926060D01*
X76744326Y-109925455D01*
X76957376Y-109924867D01*
X77204934Y-109924295D01*
X77485694Y-109923743D01*
X77798353Y-109923211D01*
X78141605Y-109922700D01*
X78514148Y-109922211D01*
X78914675Y-109921747D01*
X79341884Y-109921308D01*
X79794469Y-109920896D01*
X80271126Y-109920512D01*
X80770552Y-109920157D01*
X81291440Y-109919833D01*
X81832488Y-109919541D01*
X82392390Y-109919282D01*
X82969843Y-109919057D01*
X83563541Y-109918869D01*
X84172182Y-109918718D01*
X84794459Y-109918605D01*
X85429070Y-109918533D01*
X86074708Y-109918501D01*
X86233000Y-109918500D01*
X87008527Y-109918501D01*
G36*
X71681162Y-108195775D02*
G01*
X71708911Y-108197271D01*
X71914619Y-108209803D01*
X72019040Y-108593193D01*
X72065067Y-108762708D01*
X72101368Y-108896003D01*
X72129803Y-108997575D01*
X72152233Y-109071922D01*
X72170517Y-109123539D01*
X72186516Y-109156924D01*
X72202090Y-109176575D01*
X72219099Y-109186987D01*
X72239404Y-109192658D01*
X72264865Y-109198086D01*
X72269761Y-109199288D01*
X72339637Y-109217905D01*
X72427415Y-109242459D01*
X72490199Y-109260632D01*
X72622148Y-109299515D01*
X72984069Y-108949158D01*
X73345991Y-108598802D01*
X73481369Y-108665560D01*
X73584397Y-108719133D01*
X73688819Y-108778228D01*
X73787953Y-108838501D01*
X73875120Y-108895608D01*
X73943640Y-108945206D01*
X73986833Y-108982951D01*
X73998667Y-109001931D01*
X73993481Y-109031557D01*
X73978974Y-109095611D01*
X73956726Y-109187617D01*
X73928314Y-109301098D01*
X73895318Y-109429575D01*
X73882250Y-109479665D01*
X73848089Y-109610765D01*
X73817890Y-109728017D01*
X73793211Y-109825255D01*
X73775611Y-109896315D01*
X73766650Y-109935030D01*
X73765834Y-109940042D01*
X73779937Y-109960637D01*
X73818135Y-110004063D01*
X73874261Y-110063547D01*
X73929090Y-110119310D01*
X74092346Y-110282566D01*
X74551855Y-110164033D01*
X74686191Y-110129696D01*
X74807593Y-110099264D01*
X74909788Y-110074260D01*
X74986499Y-110056210D01*
X75031453Y-110046637D01*
X75039792Y-110045500D01*
X75063669Y-110063160D01*
X75102900Y-110111726D01*
X75153246Y-110184579D01*
X75210467Y-110275101D01*
X75270322Y-110376673D01*
X75328572Y-110482675D01*
X75363855Y-110551398D01*
X75441745Y-110708046D01*
X75090187Y-111060062D01*
X74738628Y-111412077D01*
X74795671Y-111633664D01*
X74819244Y-111724277D01*
X74838948Y-111798229D01*
X74852442Y-111846838D01*
X74857202Y-111861665D01*
X74877977Y-111868900D01*
X74933822Y-111885714D01*
X75018993Y-111910448D01*
X75127743Y-111941445D01*
X75254330Y-111977048D01*
X75335054Y-111999543D01*
X75808417Y-112131006D01*
X75822723Y-112225961D01*
X75830960Y-112311826D01*
X75835400Y-112424763D01*
X75836048Y-112549685D01*
X75832913Y-112671502D01*
X75826002Y-112775124D01*
X75822438Y-112806218D01*
X75808417Y-112910520D01*
X74855917Y-113172436D01*
X74794927Y-113399825D01*
X74733938Y-113627213D01*
X75075386Y-113969132D01*
X75173252Y-114068260D01*
X75260167Y-114158453D01*
X75331884Y-114235126D01*
X75384157Y-114293695D01*
X75412741Y-114329575D01*
X75416834Y-114337804D01*
X75406195Y-114381418D01*
X75377211Y-114449231D01*
X75334273Y-114533985D01*
X75281777Y-114628423D01*
X75224117Y-114725289D01*
X75165686Y-114817325D01*
X75110879Y-114897274D01*
X75064089Y-114957880D01*
X75029711Y-114991884D01*
X75017920Y-114996635D01*
X74987944Y-114990774D01*
X74923524Y-114975407D01*
X74831061Y-114952153D01*
X74716957Y-114922635D01*
X74587612Y-114888474D01*
X74527834Y-114872475D01*
X74072750Y-114750180D01*
X73986604Y-114842590D01*
X73934308Y-114892397D01*
X73887849Y-114925947D01*
X73863504Y-114935000D01*
X73797681Y-114919530D01*
X73755168Y-114878679D01*
X73744667Y-114837052D01*
X73749930Y-114800054D01*
X73768837Y-114758840D01*
X73806062Y-114706418D01*
X73866281Y-114635800D01*
X73915413Y-114581766D01*
X74000741Y-114489196D01*
X74460079Y-114608175D01*
X74593729Y-114642726D01*
X74713797Y-114673635D01*
X74814162Y-114699339D01*
X74888706Y-114718273D01*
X74931310Y-114728872D01*
X74938596Y-114730536D01*
X74956877Y-114714960D01*
X74990499Y-114670307D01*
X75033916Y-114604325D01*
X75062894Y-114556827D01*
X75168013Y-114379737D01*
X74826756Y-114038010D01*
X74728912Y-113938885D01*
X74642022Y-113848663D01*
X74570335Y-113771937D01*
X74518100Y-113713300D01*
X74489563Y-113677344D01*
X74485500Y-113669091D01*
X74491529Y-113637088D01*
X74507522Y-113576519D01*
X74530338Y-113499074D01*
X74536622Y-113478825D01*
X74568419Y-113371020D01*
X74601357Y-113249301D01*
X74626580Y-113147249D01*
X74665417Y-112978748D01*
X75608235Y-112723084D01*
X75602493Y-112513387D01*
X75596750Y-112303690D01*
X74667938Y-112044800D01*
X74610393Y-111812442D01*
X74583493Y-111707745D01*
X74556234Y-111608273D01*
X74532322Y-111527226D01*
X74519175Y-111487464D01*
X74498737Y-111424198D01*
X74486784Y-111373550D01*
X74485500Y-111360698D01*
X74499913Y-111336458D01*
X74540310Y-111287300D01*
X74602425Y-111217922D01*
X74681993Y-111133021D01*
X74774748Y-111037297D01*
X74826377Y-110985204D01*
X75167253Y-110643857D01*
X75067941Y-110471679D01*
X75022316Y-110396866D01*
X74982026Y-110338519D01*
X74952952Y-110304800D01*
X74944023Y-110299706D01*
X74917089Y-110304833D01*
X74855459Y-110319068D01*
X74765412Y-110340881D01*
X74653227Y-110368742D01*
X74525182Y-110401119D01*
X74468416Y-110415637D01*
X74017416Y-110531362D01*
X73497216Y-110013750D01*
X73620241Y-109548084D01*
X73743266Y-109082417D01*
X73697053Y-109047121D01*
X73654689Y-109019039D01*
X73589359Y-108980308D01*
X73520559Y-108942217D01*
X73390279Y-108872610D01*
X73036022Y-109212665D01*
X72681764Y-109552721D01*
X72498841Y-109494370D01*
X72391829Y-109462863D01*
X72276301Y-109432959D01*
X72174621Y-109410385D01*
X72160557Y-109407732D01*
X72072953Y-109387822D01*
X72012499Y-109365844D01*
X71988326Y-109347347D01*
X71978021Y-109318168D01*
X71958635Y-109254497D01*
X71932014Y-109162739D01*
X71900005Y-109049300D01*
X71864454Y-108920585D01*
X71849438Y-108865458D01*
X71727419Y-108415667D01*
X71315571Y-108415667D01*
X71183733Y-108886625D01*
X71145995Y-109020800D01*
X71111939Y-109140674D01*
X71083238Y-109240459D01*
X71061566Y-109314364D01*
X71048594Y-109356598D01*
X71045725Y-109364292D01*
X71021289Y-109373185D01*
X70967352Y-109386160D01*
X70896252Y-109400843D01*
X70820325Y-109414860D01*
X70751910Y-109425838D01*
X70703343Y-109431400D01*
X70695616Y-109431667D01*
X70631750Y-109416308D01*
X70597278Y-109370516D01*
X70590834Y-109324192D01*
X70600963Y-109270523D01*
X70636202Y-109235508D01*
X70703825Y-109213241D01*
X70734316Y-109207711D01*
X70797032Y-109193323D01*
X70844184Y-109174930D01*
X70852079Y-109169741D01*
X70866573Y-109142709D01*
X70889689Y-109081430D01*
X70919220Y-108992579D01*
X70952958Y-108882835D01*
X70988697Y-108758873D01*
X70992907Y-108743750D01*
X71028560Y-108615239D01*
X71061450Y-108496786D01*
X71089474Y-108395954D01*
X71110531Y-108320303D01*
X71122518Y-108277396D01*
X71122932Y-108275927D01*
X71133323Y-108244125D01*
X71148727Y-108224034D01*
X71178333Y-108212039D01*
X71231327Y-108204528D01*
X71316896Y-108197887D01*
X71322315Y-108197504D01*
X71431137Y-108192995D01*
X71558593Y-108192414D01*
X71681162Y-108195775D01*
G37*
X71681162Y-108195775D02*
X71708911Y-108197271D01*
X71914619Y-108209803D01*
X72019040Y-108593193D01*
X72065067Y-108762708D01*
X72101368Y-108896003D01*
X72129803Y-108997575D01*
X72152233Y-109071922D01*
X72170517Y-109123539D01*
X72186516Y-109156924D01*
X72202090Y-109176575D01*
X72219099Y-109186987D01*
X72239404Y-109192658D01*
X72264865Y-109198086D01*
X72269761Y-109199288D01*
X72339637Y-109217905D01*
X72427415Y-109242459D01*
X72490199Y-109260632D01*
X72622148Y-109299515D01*
X72984069Y-108949158D01*
X73345991Y-108598802D01*
X73481369Y-108665560D01*
X73584397Y-108719133D01*
X73688819Y-108778228D01*
X73787953Y-108838501D01*
X73875120Y-108895608D01*
X73943640Y-108945206D01*
X73986833Y-108982951D01*
X73998667Y-109001931D01*
X73993481Y-109031557D01*
X73978974Y-109095611D01*
X73956726Y-109187617D01*
X73928314Y-109301098D01*
X73895318Y-109429575D01*
X73882250Y-109479665D01*
X73848089Y-109610765D01*
X73817890Y-109728017D01*
X73793211Y-109825255D01*
X73775611Y-109896315D01*
X73766650Y-109935030D01*
X73765834Y-109940042D01*
X73779937Y-109960637D01*
X73818135Y-110004063D01*
X73874261Y-110063547D01*
X73929090Y-110119310D01*
X74092346Y-110282566D01*
X74551855Y-110164033D01*
X74686191Y-110129696D01*
X74807593Y-110099264D01*
X74909788Y-110074260D01*
X74986499Y-110056210D01*
X75031453Y-110046637D01*
X75039792Y-110045500D01*
X75063669Y-110063160D01*
X75102900Y-110111726D01*
X75153246Y-110184579D01*
X75210467Y-110275101D01*
X75270322Y-110376673D01*
X75328572Y-110482675D01*
X75363855Y-110551398D01*
X75441745Y-110708046D01*
X75090187Y-111060062D01*
X74738628Y-111412077D01*
X74795671Y-111633664D01*
X74819244Y-111724277D01*
X74838948Y-111798229D01*
X74852442Y-111846838D01*
X74857202Y-111861665D01*
X74877977Y-111868900D01*
X74933822Y-111885714D01*
X75018993Y-111910448D01*
X75127743Y-111941445D01*
X75254330Y-111977048D01*
X75335054Y-111999543D01*
X75808417Y-112131006D01*
X75822723Y-112225961D01*
X75830960Y-112311826D01*
X75835400Y-112424763D01*
X75836048Y-112549685D01*
X75832913Y-112671502D01*
X75826002Y-112775124D01*
X75822438Y-112806218D01*
X75808417Y-112910520D01*
X74855917Y-113172436D01*
X74794927Y-113399825D01*
X74733938Y-113627213D01*
X75075386Y-113969132D01*
X75173252Y-114068260D01*
X75260167Y-114158453D01*
X75331884Y-114235126D01*
X75384157Y-114293695D01*
X75412741Y-114329575D01*
X75416834Y-114337804D01*
X75406195Y-114381418D01*
X75377211Y-114449231D01*
X75334273Y-114533985D01*
X75281777Y-114628423D01*
X75224117Y-114725289D01*
X75165686Y-114817325D01*
X75110879Y-114897274D01*
X75064089Y-114957880D01*
X75029711Y-114991884D01*
X75017920Y-114996635D01*
X74987944Y-114990774D01*
X74923524Y-114975407D01*
X74831061Y-114952153D01*
X74716957Y-114922635D01*
X74587612Y-114888474D01*
X74527834Y-114872475D01*
X74072750Y-114750180D01*
X73986604Y-114842590D01*
X73934308Y-114892397D01*
X73887849Y-114925947D01*
X73863504Y-114935000D01*
X73797681Y-114919530D01*
X73755168Y-114878679D01*
X73744667Y-114837052D01*
X73749930Y-114800054D01*
X73768837Y-114758840D01*
X73806062Y-114706418D01*
X73866281Y-114635800D01*
X73915413Y-114581766D01*
X74000741Y-114489196D01*
X74460079Y-114608175D01*
X74593729Y-114642726D01*
X74713797Y-114673635D01*
X74814162Y-114699339D01*
X74888706Y-114718273D01*
X74931310Y-114728872D01*
X74938596Y-114730536D01*
X74956877Y-114714960D01*
X74990499Y-114670307D01*
X75033916Y-114604325D01*
X75062894Y-114556827D01*
X75168013Y-114379737D01*
X74826756Y-114038010D01*
X74728912Y-113938885D01*
X74642022Y-113848663D01*
X74570335Y-113771937D01*
X74518100Y-113713300D01*
X74489563Y-113677344D01*
X74485500Y-113669091D01*
X74491529Y-113637088D01*
X74507522Y-113576519D01*
X74530338Y-113499074D01*
X74536622Y-113478825D01*
X74568419Y-113371020D01*
X74601357Y-113249301D01*
X74626580Y-113147249D01*
X74665417Y-112978748D01*
X75608235Y-112723084D01*
X75602493Y-112513387D01*
X75596750Y-112303690D01*
X74667938Y-112044800D01*
X74610393Y-111812442D01*
X74583493Y-111707745D01*
X74556234Y-111608273D01*
X74532322Y-111527226D01*
X74519175Y-111487464D01*
X74498737Y-111424198D01*
X74486784Y-111373550D01*
X74485500Y-111360698D01*
X74499913Y-111336458D01*
X74540310Y-111287300D01*
X74602425Y-111217922D01*
X74681993Y-111133021D01*
X74774748Y-111037297D01*
X74826377Y-110985204D01*
X75167253Y-110643857D01*
X75067941Y-110471679D01*
X75022316Y-110396866D01*
X74982026Y-110338519D01*
X74952952Y-110304800D01*
X74944023Y-110299706D01*
X74917089Y-110304833D01*
X74855459Y-110319068D01*
X74765412Y-110340881D01*
X74653227Y-110368742D01*
X74525182Y-110401119D01*
X74468416Y-110415637D01*
X74017416Y-110531362D01*
X73497216Y-110013750D01*
X73620241Y-109548084D01*
X73743266Y-109082417D01*
X73697053Y-109047121D01*
X73654689Y-109019039D01*
X73589359Y-108980308D01*
X73520559Y-108942217D01*
X73390279Y-108872610D01*
X73036022Y-109212665D01*
X72681764Y-109552721D01*
X72498841Y-109494370D01*
X72391829Y-109462863D01*
X72276301Y-109432959D01*
X72174621Y-109410385D01*
X72160557Y-109407732D01*
X72072953Y-109387822D01*
X72012499Y-109365844D01*
X71988326Y-109347347D01*
X71978021Y-109318168D01*
X71958635Y-109254497D01*
X71932014Y-109162739D01*
X71900005Y-109049300D01*
X71864454Y-108920585D01*
X71849438Y-108865458D01*
X71727419Y-108415667D01*
X71315571Y-108415667D01*
X71183733Y-108886625D01*
X71145995Y-109020800D01*
X71111939Y-109140674D01*
X71083238Y-109240459D01*
X71061566Y-109314364D01*
X71048594Y-109356598D01*
X71045725Y-109364292D01*
X71021289Y-109373185D01*
X70967352Y-109386160D01*
X70896252Y-109400843D01*
X70820325Y-109414860D01*
X70751910Y-109425838D01*
X70703343Y-109431400D01*
X70695616Y-109431667D01*
X70631750Y-109416308D01*
X70597278Y-109370516D01*
X70590834Y-109324192D01*
X70600963Y-109270523D01*
X70636202Y-109235508D01*
X70703825Y-109213241D01*
X70734316Y-109207711D01*
X70797032Y-109193323D01*
X70844184Y-109174930D01*
X70852079Y-109169741D01*
X70866573Y-109142709D01*
X70889689Y-109081430D01*
X70919220Y-108992579D01*
X70952958Y-108882835D01*
X70988697Y-108758873D01*
X70992907Y-108743750D01*
X71028560Y-108615239D01*
X71061450Y-108496786D01*
X71089474Y-108395954D01*
X71110531Y-108320303D01*
X71122518Y-108277396D01*
X71122932Y-108275927D01*
X71133323Y-108244125D01*
X71148727Y-108224034D01*
X71178333Y-108212039D01*
X71231327Y-108204528D01*
X71316896Y-108197887D01*
X71322315Y-108197504D01*
X71431137Y-108192995D01*
X71558593Y-108192414D01*
X71681162Y-108195775D01*
G36*
X68378917Y-113379250D02*
G01*
X68299542Y-113385820D01*
X68220167Y-113392389D01*
X68220167Y-114346824D01*
X68273506Y-114388781D01*
X68343002Y-114467144D01*
X68381532Y-114561798D01*
X68389435Y-114662889D01*
X68367050Y-114760563D01*
X68314714Y-114844964D01*
X68256181Y-114893524D01*
X68182131Y-114922043D01*
X68092635Y-114933784D01*
X68006826Y-114927678D01*
X67955584Y-114910299D01*
X67864705Y-114839484D01*
X67807282Y-114750971D01*
X67784308Y-114652661D01*
X67786958Y-114631364D01*
X67966167Y-114631364D01*
X67983539Y-114688552D01*
X68026142Y-114737925D01*
X68079708Y-114764396D01*
X68093167Y-114765667D01*
X68139245Y-114751301D01*
X68177834Y-114723334D01*
X68215051Y-114664856D01*
X68211018Y-114602369D01*
X68187217Y-114558710D01*
X68139199Y-114520843D01*
X68080330Y-114513913D01*
X68023378Y-114533723D01*
X67981109Y-114576075D01*
X67966167Y-114631364D01*
X67786958Y-114631364D01*
X67796779Y-114552458D01*
X67845691Y-114458263D01*
X67892379Y-114408414D01*
X67966167Y-114343627D01*
X67966167Y-113763489D01*
X67966405Y-113589554D01*
X67967302Y-113453145D01*
X67969134Y-113349456D01*
X67972177Y-113273681D01*
X67976707Y-113221014D01*
X67982999Y-113186649D01*
X67991328Y-113165781D01*
X68001113Y-113154300D01*
X68048982Y-113136098D01*
X68138172Y-113126681D01*
X68207488Y-113125250D01*
X68378917Y-113125250D01*
X68378917Y-113379250D01*
G37*
X68378917Y-113379250D02*
X68299542Y-113385820D01*
X68220167Y-113392389D01*
X68220167Y-114346824D01*
X68273506Y-114388781D01*
X68343002Y-114467144D01*
X68381532Y-114561798D01*
X68389435Y-114662889D01*
X68367050Y-114760563D01*
X68314714Y-114844964D01*
X68256181Y-114893524D01*
X68182131Y-114922043D01*
X68092635Y-114933784D01*
X68006826Y-114927678D01*
X67955584Y-114910299D01*
X67864705Y-114839484D01*
X67807282Y-114750971D01*
X67784308Y-114652661D01*
X67786958Y-114631364D01*
X67966167Y-114631364D01*
X67983539Y-114688552D01*
X68026142Y-114737925D01*
X68079708Y-114764396D01*
X68093167Y-114765667D01*
X68139245Y-114751301D01*
X68177834Y-114723334D01*
X68215051Y-114664856D01*
X68211018Y-114602369D01*
X68187217Y-114558710D01*
X68139199Y-114520843D01*
X68080330Y-114513913D01*
X68023378Y-114533723D01*
X67981109Y-114576075D01*
X67966167Y-114631364D01*
X67786958Y-114631364D01*
X67796779Y-114552458D01*
X67845691Y-114458263D01*
X67892379Y-114408414D01*
X67966167Y-114343627D01*
X67966167Y-113763489D01*
X67966405Y-113589554D01*
X67967302Y-113453145D01*
X67969134Y-113349456D01*
X67972177Y-113273681D01*
X67976707Y-113221014D01*
X67982999Y-113186649D01*
X67991328Y-113165781D01*
X68001113Y-113154300D01*
X68048982Y-113136098D01*
X68138172Y-113126681D01*
X68207488Y-113125250D01*
X68378917Y-113125250D01*
X68378917Y-113379250D01*
G36*
X67929545Y-112653872D02*
G01*
X68378917Y-112659584D01*
X68391613Y-112903000D01*
X67648667Y-112903000D01*
X67648667Y-112988314D01*
X67655066Y-113050163D01*
X67680739Y-113097274D01*
X67721458Y-113137538D01*
X67792801Y-113223948D01*
X67829318Y-113321098D01*
X67832184Y-113420690D01*
X67802576Y-113514427D01*
X67741671Y-113594012D01*
X67650645Y-113651147D01*
X67648511Y-113652009D01*
X67577969Y-113675893D01*
X67518191Y-113681625D01*
X67443960Y-113671553D01*
X67442229Y-113671221D01*
X67398048Y-113651386D01*
X67343197Y-113612328D01*
X67322323Y-113593928D01*
X67256970Y-113505772D01*
X67227709Y-113404879D01*
X67230546Y-113361692D01*
X67403407Y-113361692D01*
X67412323Y-113404512D01*
X67417498Y-113414872D01*
X67466097Y-113474954D01*
X67524636Y-113496610D01*
X67586767Y-113478331D01*
X67609958Y-113460636D01*
X67643961Y-113405197D01*
X67644967Y-113341685D01*
X67614100Y-113286181D01*
X67596787Y-113272149D01*
X67531049Y-113249788D01*
X67469587Y-113268370D01*
X67424349Y-113315936D01*
X67403407Y-113361692D01*
X67230546Y-113361692D01*
X67234557Y-113300665D01*
X67277530Y-113202546D01*
X67321523Y-113149677D01*
X67357668Y-113112663D01*
X67379378Y-113080068D01*
X67390329Y-113039648D01*
X67394199Y-112979162D01*
X67394667Y-112906154D01*
X67394890Y-112826713D01*
X67398799Y-112765473D01*
X67411249Y-112720141D01*
X67437096Y-112688428D01*
X67481197Y-112668043D01*
X67548409Y-112656695D01*
X67643587Y-112652094D01*
X67771589Y-112651949D01*
X67929545Y-112653872D01*
G37*
X67929545Y-112653872D02*
X68378917Y-112659584D01*
X68391613Y-112903000D01*
X67648667Y-112903000D01*
X67648667Y-112988314D01*
X67655066Y-113050163D01*
X67680739Y-113097274D01*
X67721458Y-113137538D01*
X67792801Y-113223948D01*
X67829318Y-113321098D01*
X67832184Y-113420690D01*
X67802576Y-113514427D01*
X67741671Y-113594012D01*
X67650645Y-113651147D01*
X67648511Y-113652009D01*
X67577969Y-113675893D01*
X67518191Y-113681625D01*
X67443960Y-113671553D01*
X67442229Y-113671221D01*
X67398048Y-113651386D01*
X67343197Y-113612328D01*
X67322323Y-113593928D01*
X67256970Y-113505772D01*
X67227709Y-113404879D01*
X67230546Y-113361692D01*
X67403407Y-113361692D01*
X67412323Y-113404512D01*
X67417498Y-113414872D01*
X67466097Y-113474954D01*
X67524636Y-113496610D01*
X67586767Y-113478331D01*
X67609958Y-113460636D01*
X67643961Y-113405197D01*
X67644967Y-113341685D01*
X67614100Y-113286181D01*
X67596787Y-113272149D01*
X67531049Y-113249788D01*
X67469587Y-113268370D01*
X67424349Y-113315936D01*
X67403407Y-113361692D01*
X67230546Y-113361692D01*
X67234557Y-113300665D01*
X67277530Y-113202546D01*
X67321523Y-113149677D01*
X67357668Y-113112663D01*
X67379378Y-113080068D01*
X67390329Y-113039648D01*
X67394199Y-112979162D01*
X67394667Y-112906154D01*
X67394890Y-112826713D01*
X67398799Y-112765473D01*
X67411249Y-112720141D01*
X67437096Y-112688428D01*
X67481197Y-112668043D01*
X67548409Y-112656695D01*
X67643587Y-112652094D01*
X67771589Y-112651949D01*
X67929545Y-112653872D01*
G36*
X67662645Y-111440733D02*
G01*
X67746610Y-111502129D01*
X67805410Y-111593424D01*
X67808849Y-111602054D01*
X67833720Y-111710237D01*
X67819371Y-111807719D01*
X67764530Y-111899994D01*
X67731578Y-111936070D01*
X67680403Y-111993383D01*
X67655470Y-112042085D01*
X67648676Y-112098311D01*
X67648667Y-112101157D01*
X67648667Y-112183334D01*
X68391613Y-112183334D01*
X68378917Y-112426750D01*
X67929545Y-112432462D01*
X67780135Y-112434160D01*
X67667223Y-112434652D01*
X67584982Y-112433498D01*
X67527584Y-112430260D01*
X67489201Y-112424500D01*
X67464004Y-112415778D01*
X67446167Y-112403657D01*
X67437420Y-112395420D01*
X67415256Y-112366379D01*
X67402207Y-112326882D01*
X67396078Y-112266013D01*
X67394667Y-112182628D01*
X67393789Y-112097149D01*
X67388644Y-112041467D01*
X67375466Y-112003049D01*
X67350487Y-111969364D01*
X67321601Y-111939523D01*
X67257119Y-111849312D01*
X67228278Y-111750190D01*
X67228958Y-111735836D01*
X67404473Y-111735836D01*
X67407491Y-111744563D01*
X67458706Y-111813426D01*
X67512638Y-111841176D01*
X67572794Y-111829027D01*
X67601624Y-111811717D01*
X67640066Y-111764996D01*
X67647062Y-111709960D01*
X67628865Y-111656100D01*
X67591729Y-111612905D01*
X67541910Y-111589868D01*
X67485660Y-111596477D01*
X67466627Y-111606866D01*
X67433447Y-111643309D01*
X67409978Y-111692705D01*
X67404473Y-111735836D01*
X67228958Y-111735836D01*
X67233004Y-111650448D01*
X67269224Y-111558374D01*
X67334865Y-111482258D01*
X67427854Y-111430390D01*
X67450698Y-111423345D01*
X67561384Y-111413163D01*
X67662645Y-111440733D01*
G37*
X67662645Y-111440733D02*
X67746610Y-111502129D01*
X67805410Y-111593424D01*
X67808849Y-111602054D01*
X67833720Y-111710237D01*
X67819371Y-111807719D01*
X67764530Y-111899994D01*
X67731578Y-111936070D01*
X67680403Y-111993383D01*
X67655470Y-112042085D01*
X67648676Y-112098311D01*
X67648667Y-112101157D01*
X67648667Y-112183334D01*
X68391613Y-112183334D01*
X68378917Y-112426750D01*
X67929545Y-112432462D01*
X67780135Y-112434160D01*
X67667223Y-112434652D01*
X67584982Y-112433498D01*
X67527584Y-112430260D01*
X67489201Y-112424500D01*
X67464004Y-112415778D01*
X67446167Y-112403657D01*
X67437420Y-112395420D01*
X67415256Y-112366379D01*
X67402207Y-112326882D01*
X67396078Y-112266013D01*
X67394667Y-112182628D01*
X67393789Y-112097149D01*
X67388644Y-112041467D01*
X67375466Y-112003049D01*
X67350487Y-111969364D01*
X67321601Y-111939523D01*
X67257119Y-111849312D01*
X67228278Y-111750190D01*
X67228958Y-111735836D01*
X67404473Y-111735836D01*
X67407491Y-111744563D01*
X67458706Y-111813426D01*
X67512638Y-111841176D01*
X67572794Y-111829027D01*
X67601624Y-111811717D01*
X67640066Y-111764996D01*
X67647062Y-111709960D01*
X67628865Y-111656100D01*
X67591729Y-111612905D01*
X67541910Y-111589868D01*
X67485660Y-111596477D01*
X67466627Y-111606866D01*
X67433447Y-111643309D01*
X67409978Y-111692705D01*
X67404473Y-111735836D01*
X67228958Y-111735836D01*
X67233004Y-111650448D01*
X67269224Y-111558374D01*
X67334865Y-111482258D01*
X67427854Y-111430390D01*
X67450698Y-111423345D01*
X67561384Y-111413163D01*
X67662645Y-111440733D01*
G36*
X68228044Y-110201581D02*
G01*
X68310596Y-110257603D01*
X68373592Y-110343338D01*
X68403923Y-110441089D01*
X68403056Y-110543005D01*
X68373693Y-110637602D01*
X68318536Y-110713391D01*
X68279844Y-110741964D01*
X68220434Y-110775750D01*
X68220301Y-111246709D01*
X68220167Y-111717667D01*
X68391613Y-111717667D01*
X68385265Y-111839375D01*
X68378917Y-111961084D01*
X68220167Y-111967015D01*
X68123921Y-111967464D01*
X68059345Y-111959289D01*
X68016405Y-111941146D01*
X68013792Y-111939356D01*
X67999562Y-111928417D01*
X67988494Y-111914750D01*
X67980188Y-111893352D01*
X67974250Y-111859216D01*
X67970281Y-111807339D01*
X67967886Y-111732716D01*
X67966666Y-111630341D01*
X67966225Y-111495211D01*
X67966167Y-111338864D01*
X67966167Y-110771962D01*
X67914112Y-110748244D01*
X67857922Y-110702368D01*
X67812880Y-110628431D01*
X67785320Y-110540431D01*
X67782880Y-110488333D01*
X67966491Y-110488333D01*
X67983676Y-110553544D01*
X68028210Y-110597779D01*
X68088161Y-110615840D01*
X68151592Y-110602530D01*
X68181458Y-110581970D01*
X68211244Y-110531524D01*
X68219477Y-110467251D01*
X68203968Y-110413794D01*
X68154308Y-110370146D01*
X68091835Y-110354532D01*
X68045542Y-110365424D01*
X67991320Y-110404452D01*
X67968937Y-110454674D01*
X67966491Y-110488333D01*
X67782880Y-110488333D01*
X67781302Y-110454656D01*
X67811099Y-110349641D01*
X67869127Y-110267811D01*
X67947611Y-110210629D01*
X68038776Y-110179555D01*
X68134845Y-110176052D01*
X68228044Y-110201581D01*
G37*
X68228044Y-110201581D02*
X68310596Y-110257603D01*
X68373592Y-110343338D01*
X68403923Y-110441089D01*
X68403056Y-110543005D01*
X68373693Y-110637602D01*
X68318536Y-110713391D01*
X68279844Y-110741964D01*
X68220434Y-110775750D01*
X68220301Y-111246709D01*
X68220167Y-111717667D01*
X68391613Y-111717667D01*
X68385265Y-111839375D01*
X68378917Y-111961084D01*
X68220167Y-111967015D01*
X68123921Y-111967464D01*
X68059345Y-111959289D01*
X68016405Y-111941146D01*
X68013792Y-111939356D01*
X67999562Y-111928417D01*
X67988494Y-111914750D01*
X67980188Y-111893352D01*
X67974250Y-111859216D01*
X67970281Y-111807339D01*
X67967886Y-111732716D01*
X67966666Y-111630341D01*
X67966225Y-111495211D01*
X67966167Y-111338864D01*
X67966167Y-110771962D01*
X67914112Y-110748244D01*
X67857922Y-110702368D01*
X67812880Y-110628431D01*
X67785320Y-110540431D01*
X67782880Y-110488333D01*
X67966491Y-110488333D01*
X67983676Y-110553544D01*
X68028210Y-110597779D01*
X68088161Y-110615840D01*
X68151592Y-110602530D01*
X68181458Y-110581970D01*
X68211244Y-110531524D01*
X68219477Y-110467251D01*
X68203968Y-110413794D01*
X68154308Y-110370146D01*
X68091835Y-110354532D01*
X68045542Y-110365424D01*
X67991320Y-110404452D01*
X67968937Y-110454674D01*
X67966491Y-110488333D01*
X67782880Y-110488333D01*
X67781302Y-110454656D01*
X67811099Y-110349641D01*
X67869127Y-110267811D01*
X67947611Y-110210629D01*
X68038776Y-110179555D01*
X68134845Y-110176052D01*
X68228044Y-110201581D01*
G36*
X71805293Y-110601205D02*
G01*
X72070367Y-110660010D01*
X72319358Y-110754155D01*
X72573224Y-110893629D01*
X72798009Y-111063698D01*
X72993005Y-111263534D01*
X73157502Y-111492313D01*
X73290790Y-111749207D01*
X73378343Y-111986868D01*
X73400374Y-112061947D01*
X73415904Y-112127328D01*
X73426034Y-112193201D01*
X73431865Y-112269755D01*
X73434498Y-112367180D01*
X73435034Y-112495667D01*
X73435013Y-112511417D01*
X73434163Y-112644539D01*
X73431359Y-112745607D01*
X73425478Y-112824889D01*
X73415402Y-112892657D01*
X73400008Y-112959181D01*
X73378176Y-113034731D01*
X73377758Y-113036103D01*
X73273140Y-113311828D01*
X73136416Y-113562055D01*
X72970036Y-113784870D01*
X72776452Y-113978357D01*
X72558112Y-114140599D01*
X72317468Y-114269682D01*
X72056971Y-114363688D01*
X71779069Y-114420703D01*
X71585667Y-114437204D01*
X71476028Y-114439002D01*
X71366416Y-114436600D01*
X71273558Y-114430532D01*
X71237241Y-114426074D01*
X70958542Y-114361414D01*
X70695967Y-114258893D01*
X70452805Y-114120980D01*
X70232348Y-113950149D01*
X70037888Y-113748870D01*
X69872714Y-113519617D01*
X69765130Y-113320418D01*
X69667539Y-113063535D01*
X69608355Y-112795184D01*
X69594613Y-112613850D01*
X70403442Y-112613850D01*
X70441904Y-112816499D01*
X70519707Y-113009930D01*
X70636269Y-113190461D01*
X70738570Y-113305167D01*
X70907379Y-113445543D01*
X71091004Y-113546320D01*
X71219224Y-113590881D01*
X71322528Y-113609754D01*
X71449687Y-113619103D01*
X71584690Y-113618983D01*
X71711523Y-113609446D01*
X71814174Y-113590544D01*
X71819950Y-113588898D01*
X72016275Y-113510083D01*
X72193075Y-113397090D01*
X72346112Y-113254748D01*
X72471150Y-113087881D01*
X72563948Y-112901316D01*
X72620271Y-112699880D01*
X72624767Y-112672356D01*
X72635489Y-112464145D01*
X72606904Y-112261506D01*
X72542033Y-112069082D01*
X72443891Y-111891518D01*
X72315498Y-111733457D01*
X72159871Y-111599543D01*
X71980027Y-111494419D01*
X71819950Y-111433936D01*
X71721800Y-111414558D01*
X71598363Y-111403681D01*
X71465887Y-111401610D01*
X71340617Y-111408651D01*
X71247000Y-111423139D01*
X71083704Y-111479585D01*
X70921682Y-111569772D01*
X70770746Y-111685978D01*
X70640711Y-111820480D01*
X70541390Y-111965556D01*
X70529927Y-111987396D01*
X70446871Y-112195618D01*
X70404903Y-112405663D01*
X70403442Y-112613850D01*
X69594613Y-112613850D01*
X69587585Y-112521131D01*
X69605237Y-112247142D01*
X69661320Y-111978984D01*
X69755841Y-111722425D01*
X69762901Y-111707172D01*
X69812222Y-111608834D01*
X69868471Y-111507087D01*
X69920881Y-111421243D01*
X69929577Y-111408235D01*
X70100447Y-111194048D01*
X70298014Y-111009901D01*
X70518012Y-110856961D01*
X70756181Y-110736395D01*
X71008256Y-110649370D01*
X71269975Y-110597052D01*
X71537075Y-110580608D01*
X71805293Y-110601205D01*
G37*
X71805293Y-110601205D02*
X72070367Y-110660010D01*
X72319358Y-110754155D01*
X72573224Y-110893629D01*
X72798009Y-111063698D01*
X72993005Y-111263534D01*
X73157502Y-111492313D01*
X73290790Y-111749207D01*
X73378343Y-111986868D01*
X73400374Y-112061947D01*
X73415904Y-112127328D01*
X73426034Y-112193201D01*
X73431865Y-112269755D01*
X73434498Y-112367180D01*
X73435034Y-112495667D01*
X73435013Y-112511417D01*
X73434163Y-112644539D01*
X73431359Y-112745607D01*
X73425478Y-112824889D01*
X73415402Y-112892657D01*
X73400008Y-112959181D01*
X73378176Y-113034731D01*
X73377758Y-113036103D01*
X73273140Y-113311828D01*
X73136416Y-113562055D01*
X72970036Y-113784870D01*
X72776452Y-113978357D01*
X72558112Y-114140599D01*
X72317468Y-114269682D01*
X72056971Y-114363688D01*
X71779069Y-114420703D01*
X71585667Y-114437204D01*
X71476028Y-114439002D01*
X71366416Y-114436600D01*
X71273558Y-114430532D01*
X71237241Y-114426074D01*
X70958542Y-114361414D01*
X70695967Y-114258893D01*
X70452805Y-114120980D01*
X70232348Y-113950149D01*
X70037888Y-113748870D01*
X69872714Y-113519617D01*
X69765130Y-113320418D01*
X69667539Y-113063535D01*
X69608355Y-112795184D01*
X69594613Y-112613850D01*
X70403442Y-112613850D01*
X70441904Y-112816499D01*
X70519707Y-113009930D01*
X70636269Y-113190461D01*
X70738570Y-113305167D01*
X70907379Y-113445543D01*
X71091004Y-113546320D01*
X71219224Y-113590881D01*
X71322528Y-113609754D01*
X71449687Y-113619103D01*
X71584690Y-113618983D01*
X71711523Y-113609446D01*
X71814174Y-113590544D01*
X71819950Y-113588898D01*
X72016275Y-113510083D01*
X72193075Y-113397090D01*
X72346112Y-113254748D01*
X72471150Y-113087881D01*
X72563948Y-112901316D01*
X72620271Y-112699880D01*
X72624767Y-112672356D01*
X72635489Y-112464145D01*
X72606904Y-112261506D01*
X72542033Y-112069082D01*
X72443891Y-111891518D01*
X72315498Y-111733457D01*
X72159871Y-111599543D01*
X71980027Y-111494419D01*
X71819950Y-111433936D01*
X71721800Y-111414558D01*
X71598363Y-111403681D01*
X71465887Y-111401610D01*
X71340617Y-111408651D01*
X71247000Y-111423139D01*
X71083704Y-111479585D01*
X70921682Y-111569772D01*
X70770746Y-111685978D01*
X70640711Y-111820480D01*
X70541390Y-111965556D01*
X70529927Y-111987396D01*
X70446871Y-112195618D01*
X70404903Y-112405663D01*
X70403442Y-112613850D01*
X69594613Y-112613850D01*
X69587585Y-112521131D01*
X69605237Y-112247142D01*
X69661320Y-111978984D01*
X69755841Y-111722425D01*
X69762901Y-111707172D01*
X69812222Y-111608834D01*
X69868471Y-111507087D01*
X69920881Y-111421243D01*
X69929577Y-111408235D01*
X70100447Y-111194048D01*
X70298014Y-111009901D01*
X70518012Y-110856961D01*
X70756181Y-110736395D01*
X71008256Y-110649370D01*
X71269975Y-110597052D01*
X71537075Y-110580608D01*
X71805293Y-110601205D01*
D13*
%TO.C,U3*%
X100559000Y-85217000D02*
G75*
G03*
X100559000Y-85217000I-300000J0D01*
G01*
X100559000Y-100457000D02*
G75*
G03*
X100559000Y-100457000I-300000J0D01*
G01*
D11*
X98354000Y-99187000D02*
X102164000Y-99187000D01*
X98354000Y-101727000D02*
X98354000Y-99187000D01*
X102164000Y-101727000D02*
X98354000Y-101727000D01*
X102164000Y-99187000D02*
X102164000Y-101727000D01*
X102164000Y-86487000D02*
X98354000Y-86487000D01*
X102164000Y-83947000D02*
X102164000Y-86487000D01*
X98354000Y-83947000D02*
X102164000Y-83947000D01*
X98354000Y-86487000D02*
X98354000Y-83947000D01*
D14*
X74624000Y-97917000D02*
G75*
G03*
X74624000Y-97917000I-400000J0D01*
G01*
D11*
X76364000Y-100337000D02*
X58364000Y-100337000D01*
X76364000Y-85337000D02*
X76364000Y-100337000D01*
X58364000Y-85337000D02*
X76364000Y-85337000D01*
X58364000Y-100337000D02*
X58364000Y-85337000D01*
X53396000Y-87757000D02*
X56952000Y-87757000D01*
X53396000Y-85217000D02*
X56952000Y-85217000D01*
X53396000Y-90297000D02*
X53396000Y-85217000D01*
X55428000Y-90297000D02*
X53396000Y-90297000D01*
X55428000Y-92837000D02*
X55428000Y-90297000D01*
X53396000Y-92837000D02*
X55428000Y-92837000D01*
X53396000Y-95377000D02*
X53396000Y-92837000D01*
X55428000Y-95377000D02*
X53396000Y-95377000D01*
X55428000Y-97917000D02*
X55428000Y-95377000D01*
X53396000Y-97917000D02*
X55428000Y-97917000D01*
X53396000Y-100457000D02*
X53396000Y-97917000D01*
X56952000Y-100457000D02*
X53396000Y-100457000D01*
X57714000Y-101727000D02*
X52634000Y-101727000D01*
X57714000Y-83947000D02*
X57714000Y-101727000D01*
X52634000Y-83947000D02*
X57714000Y-83947000D01*
X52634000Y-101727000D02*
X52634000Y-83947000D01*
X96864000Y-96837000D02*
X96864000Y-88837000D01*
X96864000Y-88837000D02*
X102864000Y-88837000D01*
X96864000Y-96837000D02*
X102864000Y-96837000D01*
X102364000Y-81137000D02*
G75*
G03*
X102364000Y-81137000I-1500000J0D01*
G01*
X102364000Y-104537000D02*
G75*
G03*
X102364000Y-104537000I-1500000J0D01*
G01*
X51364000Y-104837000D02*
X51364000Y-80837000D01*
X102864000Y-104837000D02*
X102864000Y-80837000D01*
X53364000Y-106837000D02*
X100864000Y-106837000D01*
X100864000Y-78837000D02*
X53364000Y-78837000D01*
X54864000Y-81137000D02*
G75*
G03*
X54864000Y-81137000I-1500000J0D01*
G01*
X54864000Y-104537000D02*
G75*
G03*
X54864000Y-104537000I-1500000J0D01*
G01*
X51364000Y-80837000D02*
G75*
G02*
X53364000Y-78837000I2000000J0D01*
G01*
X53364000Y-106837000D02*
G75*
G02*
X51364000Y-104837000I0J2000000D01*
G01*
X102864000Y-104837000D02*
G75*
G02*
X100864000Y-106837000I-2000000J0D01*
G01*
X100864000Y-78837000D02*
G75*
G02*
X102864000Y-80837000I0J-2000000D01*
G01*
D15*
%TO.C,U2*%
X143438000Y-72136000D02*
G75*
G03*
X143438000Y-72136000I-100000J0D01*
G01*
D16*
X144018000Y-70866000D02*
X144018000Y-91186000D01*
X159258000Y-70866000D02*
X144018000Y-70866000D01*
X159258000Y-91186000D02*
X159258000Y-70866000D01*
X144018000Y-91186000D02*
X159258000Y-91186000D01*
D15*
%TO.C,U1*%
X116387000Y-70993000D02*
G75*
G03*
X116387000Y-70993000I-100000J0D01*
G01*
D16*
X116967000Y-69723000D02*
X116967000Y-90043000D01*
X132207000Y-69723000D02*
X116967000Y-69723000D01*
X132207000Y-90043000D02*
X132207000Y-69723000D01*
X116967000Y-90043000D02*
X132207000Y-90043000D01*
D11*
%TO.C,R2*%
X82455000Y-69750000D02*
X82455000Y-70080000D01*
X88995000Y-69750000D02*
X82455000Y-69750000D01*
X88995000Y-70080000D02*
X88995000Y-69750000D01*
X82455000Y-72490000D02*
X82455000Y-72160000D01*
X88995000Y-72490000D02*
X82455000Y-72490000D01*
X88995000Y-72160000D02*
X88995000Y-72490000D01*
%TO.C,R1*%
X73565000Y-65305000D02*
X73565000Y-65635000D01*
X80105000Y-65305000D02*
X73565000Y-65305000D01*
X80105000Y-65635000D02*
X80105000Y-65305000D01*
X73565000Y-68045000D02*
X73565000Y-67715000D01*
X80105000Y-68045000D02*
X73565000Y-68045000D01*
X80105000Y-67715000D02*
X80105000Y-68045000D01*
%TO.C,J9*%
X64008000Y-113284000D02*
X64008000Y-114554000D01*
X62738000Y-113284000D02*
X64008000Y-113284000D01*
X59818000Y-115596929D02*
X59818000Y-115994000D01*
X60578000Y-115596929D02*
X60578000Y-115994000D01*
X59818000Y-124654000D02*
X59818000Y-118654000D01*
X60578000Y-124654000D02*
X59818000Y-124654000D01*
X60578000Y-118654000D02*
X60578000Y-124654000D01*
X61468000Y-115994000D02*
X61468000Y-118654000D01*
X62358000Y-115664000D02*
X62358000Y-115994000D01*
X63118000Y-115664000D02*
X63118000Y-115994000D01*
X62458000Y-118654000D02*
X62458000Y-124654000D01*
X62578000Y-118654000D02*
X62578000Y-124654000D01*
X62698000Y-118654000D02*
X62698000Y-124654000D01*
X62818000Y-118654000D02*
X62818000Y-124654000D01*
X62938000Y-118654000D02*
X62938000Y-124654000D01*
X63058000Y-118654000D02*
X63058000Y-124654000D01*
X62358000Y-124654000D02*
X62358000Y-118654000D01*
X63118000Y-124654000D02*
X62358000Y-124654000D01*
X63118000Y-118654000D02*
X63118000Y-124654000D01*
X64068000Y-118654000D02*
X64068000Y-115994000D01*
X58868000Y-118654000D02*
X64068000Y-118654000D01*
X58868000Y-115994000D02*
X58868000Y-118654000D01*
X64068000Y-115994000D02*
X58868000Y-115994000D01*
%TO.C,J8*%
X56515000Y-113157000D02*
X56515000Y-114427000D01*
X55245000Y-113157000D02*
X56515000Y-113157000D01*
X52325000Y-115469929D02*
X52325000Y-115867000D01*
X53085000Y-115469929D02*
X53085000Y-115867000D01*
X52325000Y-124527000D02*
X52325000Y-118527000D01*
X53085000Y-124527000D02*
X52325000Y-124527000D01*
X53085000Y-118527000D02*
X53085000Y-124527000D01*
X53975000Y-115867000D02*
X53975000Y-118527000D01*
X54865000Y-115537000D02*
X54865000Y-115867000D01*
X55625000Y-115537000D02*
X55625000Y-115867000D01*
X54965000Y-118527000D02*
X54965000Y-124527000D01*
X55085000Y-118527000D02*
X55085000Y-124527000D01*
X55205000Y-118527000D02*
X55205000Y-124527000D01*
X55325000Y-118527000D02*
X55325000Y-124527000D01*
X55445000Y-118527000D02*
X55445000Y-124527000D01*
X55565000Y-118527000D02*
X55565000Y-124527000D01*
X54865000Y-124527000D02*
X54865000Y-118527000D01*
X55625000Y-124527000D02*
X54865000Y-124527000D01*
X55625000Y-118527000D02*
X55625000Y-124527000D01*
X56575000Y-118527000D02*
X56575000Y-115867000D01*
X51375000Y-118527000D02*
X56575000Y-118527000D01*
X51375000Y-115867000D02*
X51375000Y-118527000D01*
X56575000Y-115867000D02*
X51375000Y-115867000D01*
%TO.C,J5*%
X163128000Y-65532000D02*
X163128000Y-66862000D01*
X163128000Y-66862000D02*
X161798000Y-66862000D01*
X160528000Y-66862000D02*
X152848000Y-66862000D01*
X152848000Y-64202000D02*
X152848000Y-66862000D01*
X160528000Y-64202000D02*
X152848000Y-64202000D01*
X160528000Y-64202000D02*
X160528000Y-66862000D01*
%TO.C,J4*%
X150301000Y-65532000D02*
X150301000Y-66862000D01*
X150301000Y-66862000D02*
X148971000Y-66862000D01*
X147701000Y-66862000D02*
X140021000Y-66862000D01*
X140021000Y-64202000D02*
X140021000Y-66862000D01*
X147701000Y-64202000D02*
X140021000Y-64202000D01*
X147701000Y-64202000D02*
X147701000Y-66862000D01*
%TO.C,J3*%
X78673000Y-122682000D02*
X78673000Y-124012000D01*
X78673000Y-124012000D02*
X77343000Y-124012000D01*
X78673000Y-121412000D02*
X76073000Y-121412000D01*
X76073000Y-121412000D02*
X76073000Y-124012000D01*
X76073000Y-124012000D02*
X68393000Y-124012000D01*
X68393000Y-118812000D02*
X68393000Y-124012000D01*
X78673000Y-118812000D02*
X68393000Y-118812000D01*
X78673000Y-118812000D02*
X78673000Y-121412000D01*
%TO.C,J2*%
X94421000Y-122809000D02*
X94421000Y-124139000D01*
X94421000Y-124139000D02*
X93091000Y-124139000D01*
X94421000Y-121539000D02*
X91821000Y-121539000D01*
X91821000Y-121539000D02*
X91821000Y-124139000D01*
X91821000Y-124139000D02*
X84141000Y-124139000D01*
X84141000Y-118939000D02*
X84141000Y-124139000D01*
X94421000Y-118939000D02*
X84141000Y-118939000D01*
X94421000Y-118939000D02*
X94421000Y-121539000D01*
%TO.C,J1*%
X63052000Y-68326000D02*
X63052000Y-69656000D01*
X63052000Y-69656000D02*
X61722000Y-69656000D01*
X63052000Y-67056000D02*
X60452000Y-67056000D01*
X60452000Y-67056000D02*
X60452000Y-69656000D01*
X60452000Y-69656000D02*
X52772000Y-69656000D01*
X52772000Y-64456000D02*
X52772000Y-69656000D01*
X63052000Y-64456000D02*
X52772000Y-64456000D01*
X63052000Y-64456000D02*
X63052000Y-67056000D01*
%TO.C,J7*%
D10*
X101901666Y-117010380D02*
X101901666Y-117724666D01*
X101854047Y-117867523D01*
X101758809Y-117962761D01*
X101615952Y-118010380D01*
X101520714Y-118010380D01*
X102282619Y-117010380D02*
X102949285Y-117010380D01*
X102520714Y-118010380D01*
%TO.C,J6*%
X108378666Y-99738380D02*
X108378666Y-100452666D01*
X108331047Y-100595523D01*
X108235809Y-100690761D01*
X108092952Y-100738380D01*
X107997714Y-100738380D01*
X109283428Y-99738380D02*
X109092952Y-99738380D01*
X108997714Y-99786000D01*
X108950095Y-99833619D01*
X108854857Y-99976476D01*
X108807238Y-100166952D01*
X108807238Y-100547904D01*
X108854857Y-100643142D01*
X108902476Y-100690761D01*
X108997714Y-100738380D01*
X109188190Y-100738380D01*
X109283428Y-100690761D01*
X109331047Y-100643142D01*
X109378666Y-100547904D01*
X109378666Y-100309809D01*
X109331047Y-100214571D01*
X109283428Y-100166952D01*
X109188190Y-100119333D01*
X108997714Y-100119333D01*
X108902476Y-100166952D01*
X108854857Y-100214571D01*
X108807238Y-100309809D01*
%TO.C,U3*%
X67326380Y-93598904D02*
X68135904Y-93598904D01*
X68231142Y-93551285D01*
X68278761Y-93503666D01*
X68326380Y-93408428D01*
X68326380Y-93217952D01*
X68278761Y-93122714D01*
X68231142Y-93075095D01*
X68135904Y-93027476D01*
X67326380Y-93027476D01*
X67326380Y-92646523D02*
X67326380Y-92027476D01*
X67707333Y-92360809D01*
X67707333Y-92217952D01*
X67754952Y-92122714D01*
X67802571Y-92075095D01*
X67897809Y-92027476D01*
X68135904Y-92027476D01*
X68231142Y-92075095D01*
X68278761Y-92122714D01*
X68326380Y-92217952D01*
X68326380Y-92503666D01*
X68278761Y-92598904D01*
X68231142Y-92646523D01*
X100346380Y-94098904D02*
X101155904Y-94098904D01*
X101251142Y-94051285D01*
X101298761Y-94003666D01*
X101346380Y-93908428D01*
X101346380Y-93717952D01*
X101298761Y-93622714D01*
X101251142Y-93575095D01*
X101155904Y-93527476D01*
X100346380Y-93527476D01*
X101298761Y-93098904D02*
X101346380Y-92956047D01*
X101346380Y-92717952D01*
X101298761Y-92622714D01*
X101251142Y-92575095D01*
X101155904Y-92527476D01*
X101060666Y-92527476D01*
X100965428Y-92575095D01*
X100917809Y-92622714D01*
X100870190Y-92717952D01*
X100822571Y-92908428D01*
X100774952Y-93003666D01*
X100727333Y-93051285D01*
X100632095Y-93098904D01*
X100536857Y-93098904D01*
X100441619Y-93051285D01*
X100394000Y-93003666D01*
X100346380Y-92908428D01*
X100346380Y-92670333D01*
X100394000Y-92527476D01*
X100822571Y-91765571D02*
X100870190Y-91622714D01*
X100917809Y-91575095D01*
X101013047Y-91527476D01*
X101155904Y-91527476D01*
X101251142Y-91575095D01*
X101298761Y-91622714D01*
X101346380Y-91717952D01*
X101346380Y-92098904D01*
X100346380Y-92098904D01*
X100346380Y-91765571D01*
X100394000Y-91670333D01*
X100441619Y-91622714D01*
X100536857Y-91575095D01*
X100632095Y-91575095D01*
X100727333Y-91622714D01*
X100774952Y-91670333D01*
X100822571Y-91765571D01*
X100822571Y-92098904D01*
X97012571Y-86336047D02*
X97060190Y-86193190D01*
X97107809Y-86145571D01*
X97203047Y-86097952D01*
X97345904Y-86097952D01*
X97441142Y-86145571D01*
X97488761Y-86193190D01*
X97536380Y-86288428D01*
X97536380Y-86669380D01*
X96536380Y-86669380D01*
X96536380Y-86336047D01*
X96584000Y-86240809D01*
X96631619Y-86193190D01*
X96726857Y-86145571D01*
X96822095Y-86145571D01*
X96917333Y-86193190D01*
X96964952Y-86240809D01*
X97012571Y-86336047D01*
X97012571Y-86669380D01*
X97536380Y-85526523D02*
X97488761Y-85621761D01*
X97441142Y-85669380D01*
X97345904Y-85717000D01*
X97060190Y-85717000D01*
X96964952Y-85669380D01*
X96917333Y-85621761D01*
X96869714Y-85526523D01*
X96869714Y-85383666D01*
X96917333Y-85288428D01*
X96964952Y-85240809D01*
X97060190Y-85193190D01*
X97345904Y-85193190D01*
X97441142Y-85240809D01*
X97488761Y-85288428D01*
X97536380Y-85383666D01*
X97536380Y-85526523D01*
X97536380Y-84621761D02*
X97488761Y-84717000D01*
X97441142Y-84764619D01*
X97345904Y-84812238D01*
X97060190Y-84812238D01*
X96964952Y-84764619D01*
X96917333Y-84717000D01*
X96869714Y-84621761D01*
X96869714Y-84478904D01*
X96917333Y-84383666D01*
X96964952Y-84336047D01*
X97060190Y-84288428D01*
X97345904Y-84288428D01*
X97441142Y-84336047D01*
X97488761Y-84383666D01*
X97536380Y-84478904D01*
X97536380Y-84621761D01*
X96869714Y-84002714D02*
X96869714Y-83621761D01*
X96536380Y-83859857D02*
X97393523Y-83859857D01*
X97488761Y-83812238D01*
X97536380Y-83717000D01*
X97536380Y-83621761D01*
X97012571Y-102718904D02*
X97012571Y-102385571D01*
X97536380Y-102242714D02*
X97536380Y-102718904D01*
X96536380Y-102718904D01*
X96536380Y-102242714D01*
X96869714Y-101814142D02*
X97536380Y-101814142D01*
X96964952Y-101814142D02*
X96917333Y-101766523D01*
X96869714Y-101671285D01*
X96869714Y-101528428D01*
X96917333Y-101433190D01*
X97012571Y-101385571D01*
X97536380Y-101385571D01*
X97536380Y-100480809D02*
X97012571Y-100480809D01*
X96917333Y-100528428D01*
X96869714Y-100623666D01*
X96869714Y-100814142D01*
X96917333Y-100909380D01*
X97488761Y-100480809D02*
X97536380Y-100576047D01*
X97536380Y-100814142D01*
X97488761Y-100909380D01*
X97393523Y-100957000D01*
X97298285Y-100957000D01*
X97203047Y-100909380D01*
X97155428Y-100814142D01*
X97155428Y-100576047D01*
X97107809Y-100480809D01*
X97536380Y-100004619D02*
X96536380Y-100004619D01*
X96917333Y-100004619D02*
X96869714Y-99909380D01*
X96869714Y-99718904D01*
X96917333Y-99623666D01*
X96964952Y-99576047D01*
X97060190Y-99528428D01*
X97345904Y-99528428D01*
X97441142Y-99576047D01*
X97488761Y-99623666D01*
X97536380Y-99718904D01*
X97536380Y-99909380D01*
X97488761Y-100004619D01*
X97536380Y-98957000D02*
X97488761Y-99052238D01*
X97393523Y-99099857D01*
X96536380Y-99099857D01*
X97488761Y-98195095D02*
X97536380Y-98290333D01*
X97536380Y-98480809D01*
X97488761Y-98576047D01*
X97393523Y-98623666D01*
X97012571Y-98623666D01*
X96917333Y-98576047D01*
X96869714Y-98480809D01*
X96869714Y-98290333D01*
X96917333Y-98195095D01*
X97012571Y-98147476D01*
X97107809Y-98147476D01*
X97203047Y-98623666D01*
%TO.C,U2*%
D17*
X147416333Y-68770333D02*
X147416333Y-69903666D01*
X147483000Y-70037000D01*
X147549666Y-70103666D01*
X147683000Y-70170333D01*
X147949666Y-70170333D01*
X148083000Y-70103666D01*
X148149666Y-70037000D01*
X148216333Y-69903666D01*
X148216333Y-68770333D01*
X148816333Y-68903666D02*
X148883000Y-68837000D01*
X149016333Y-68770333D01*
X149349666Y-68770333D01*
X149483000Y-68837000D01*
X149549666Y-68903666D01*
X149616333Y-69037000D01*
X149616333Y-69170333D01*
X149549666Y-69370333D01*
X148749666Y-70170333D01*
X149616333Y-70170333D01*
%TO.C,U1*%
X120365333Y-67627333D02*
X120365333Y-68760666D01*
X120432000Y-68894000D01*
X120498666Y-68960666D01*
X120632000Y-69027333D01*
X120898666Y-69027333D01*
X121032000Y-68960666D01*
X121098666Y-68894000D01*
X121165333Y-68760666D01*
X121165333Y-67627333D01*
X122565333Y-69027333D02*
X121765333Y-69027333D01*
X122165333Y-69027333D02*
X122165333Y-67627333D01*
X122032000Y-67827333D01*
X121898666Y-67960666D01*
X121765333Y-68027333D01*
%TO.C,R2*%
D10*
X85558333Y-73942380D02*
X85225000Y-73466190D01*
X84986904Y-73942380D02*
X84986904Y-72942380D01*
X85367857Y-72942380D01*
X85463095Y-72990000D01*
X85510714Y-73037619D01*
X85558333Y-73132857D01*
X85558333Y-73275714D01*
X85510714Y-73370952D01*
X85463095Y-73418571D01*
X85367857Y-73466190D01*
X84986904Y-73466190D01*
X85939285Y-73037619D02*
X85986904Y-72990000D01*
X86082142Y-72942380D01*
X86320238Y-72942380D01*
X86415476Y-72990000D01*
X86463095Y-73037619D01*
X86510714Y-73132857D01*
X86510714Y-73228095D01*
X86463095Y-73370952D01*
X85891666Y-73942380D01*
X86510714Y-73942380D01*
%TO.C,R1*%
X76668333Y-69497380D02*
X76335000Y-69021190D01*
X76096904Y-69497380D02*
X76096904Y-68497380D01*
X76477857Y-68497380D01*
X76573095Y-68545000D01*
X76620714Y-68592619D01*
X76668333Y-68687857D01*
X76668333Y-68830714D01*
X76620714Y-68925952D01*
X76573095Y-68973571D01*
X76477857Y-69021190D01*
X76096904Y-69021190D01*
X77620714Y-69497380D02*
X77049285Y-69497380D01*
X77335000Y-69497380D02*
X77335000Y-68497380D01*
X77239761Y-68640238D01*
X77144523Y-68735476D01*
X77049285Y-68783095D01*
%TO.C,J9*%
X64460380Y-119272333D02*
X65174666Y-119272333D01*
X65317523Y-119319952D01*
X65412761Y-119415190D01*
X65460380Y-119558047D01*
X65460380Y-119653285D01*
X65460380Y-118748523D02*
X65460380Y-118558047D01*
X65412761Y-118462809D01*
X65365142Y-118415190D01*
X65222285Y-118319952D01*
X65031809Y-118272333D01*
X64650857Y-118272333D01*
X64555619Y-118319952D01*
X64508000Y-118367571D01*
X64460380Y-118462809D01*
X64460380Y-118653285D01*
X64508000Y-118748523D01*
X64555619Y-118796142D01*
X64650857Y-118843761D01*
X64888952Y-118843761D01*
X64984190Y-118796142D01*
X65031809Y-118748523D01*
X65079428Y-118653285D01*
X65079428Y-118462809D01*
X65031809Y-118367571D01*
X64984190Y-118319952D01*
X64888952Y-118272333D01*
%TO.C,J8*%
X56967380Y-119145333D02*
X57681666Y-119145333D01*
X57824523Y-119192952D01*
X57919761Y-119288190D01*
X57967380Y-119431047D01*
X57967380Y-119526285D01*
X57395952Y-118526285D02*
X57348333Y-118621523D01*
X57300714Y-118669142D01*
X57205476Y-118716761D01*
X57157857Y-118716761D01*
X57062619Y-118669142D01*
X57015000Y-118621523D01*
X56967380Y-118526285D01*
X56967380Y-118335809D01*
X57015000Y-118240571D01*
X57062619Y-118192952D01*
X57157857Y-118145333D01*
X57205476Y-118145333D01*
X57300714Y-118192952D01*
X57348333Y-118240571D01*
X57395952Y-118335809D01*
X57395952Y-118526285D01*
X57443571Y-118621523D01*
X57491190Y-118669142D01*
X57586428Y-118716761D01*
X57776904Y-118716761D01*
X57872142Y-118669142D01*
X57919761Y-118621523D01*
X57967380Y-118526285D01*
X57967380Y-118335809D01*
X57919761Y-118240571D01*
X57872142Y-118192952D01*
X57776904Y-118145333D01*
X57586428Y-118145333D01*
X57491190Y-118192952D01*
X57443571Y-118240571D01*
X57395952Y-118335809D01*
%TO.C,J5*%
X164020380Y-65865333D02*
X164734666Y-65865333D01*
X164877523Y-65912952D01*
X164972761Y-66008190D01*
X165020380Y-66151047D01*
X165020380Y-66246285D01*
X164020380Y-64912952D02*
X164020380Y-65389142D01*
X164496571Y-65436761D01*
X164448952Y-65389142D01*
X164401333Y-65293904D01*
X164401333Y-65055809D01*
X164448952Y-64960571D01*
X164496571Y-64912952D01*
X164591809Y-64865333D01*
X164829904Y-64865333D01*
X164925142Y-64912952D01*
X164972761Y-64960571D01*
X165020380Y-65055809D01*
X165020380Y-65293904D01*
X164972761Y-65389142D01*
X164925142Y-65436761D01*
%TO.C,J4*%
X151193380Y-65865333D02*
X151907666Y-65865333D01*
X152050523Y-65912952D01*
X152145761Y-66008190D01*
X152193380Y-66151047D01*
X152193380Y-66246285D01*
X151526714Y-64960571D02*
X152193380Y-64960571D01*
X151145761Y-65198666D02*
X151860047Y-65436761D01*
X151860047Y-64817714D01*
%TO.C,J3*%
X79565380Y-121745333D02*
X80279666Y-121745333D01*
X80422523Y-121792952D01*
X80517761Y-121888190D01*
X80565380Y-122031047D01*
X80565380Y-122126285D01*
X79565380Y-121364380D02*
X79565380Y-120745333D01*
X79946333Y-121078666D01*
X79946333Y-120935809D01*
X79993952Y-120840571D01*
X80041571Y-120792952D01*
X80136809Y-120745333D01*
X80374904Y-120745333D01*
X80470142Y-120792952D01*
X80517761Y-120840571D01*
X80565380Y-120935809D01*
X80565380Y-121221523D01*
X80517761Y-121316761D01*
X80470142Y-121364380D01*
%TO.C,J2*%
X95313380Y-121872333D02*
X96027666Y-121872333D01*
X96170523Y-121919952D01*
X96265761Y-122015190D01*
X96313380Y-122158047D01*
X96313380Y-122253285D01*
X95408619Y-121443761D02*
X95361000Y-121396142D01*
X95313380Y-121300904D01*
X95313380Y-121062809D01*
X95361000Y-120967571D01*
X95408619Y-120919952D01*
X95503857Y-120872333D01*
X95599095Y-120872333D01*
X95741952Y-120919952D01*
X96313380Y-121491380D01*
X96313380Y-120872333D01*
%TO.C,J1*%
X63944380Y-67389333D02*
X64658666Y-67389333D01*
X64801523Y-67436952D01*
X64896761Y-67532190D01*
X64944380Y-67675047D01*
X64944380Y-67770285D01*
X64944380Y-66389333D02*
X64944380Y-66960761D01*
X64944380Y-66675047D02*
X63944380Y-66675047D01*
X64087238Y-66770285D01*
X64182476Y-66865523D01*
X64230095Y-66960761D01*
%TD*%
M02*
