%TF.GenerationSoftware,KiCad,Pcbnew,5.1.9-73d0e3b20d~88~ubuntu20.04.1*%
%TF.CreationDate,2021-04-09T21:37:22+02:00*%
%TF.ProjectId,RBY_tireuse,5242595f-7469-4726-9575-73652e6b6963,rev?*%
%TF.SameCoordinates,Original*%
%TF.FileFunction,Legend,Bot*%
%TF.FilePolarity,Positive*%
%FSLAX46Y46*%
G04 Gerber Fmt 4.6, Leading zero omitted, Abs format (unit mm)*
G04 Created by KiCad (PCBNEW 5.1.9-73d0e3b20d~88~ubuntu20.04.1) date 2021-04-09 21:37:22*
%MOMM*%
%LPD*%
G01*
G04 APERTURE LIST*
%ADD10C,0.010000*%
G04 APERTURE END LIST*
D10*
%TO.C,REF\u002A\u002A*%
G36*
X68861967Y-102228074D02*
G01*
X69028412Y-102221493D01*
X69111762Y-102215808D01*
X69676139Y-102148339D01*
X70227997Y-102041304D01*
X70765712Y-101895979D01*
X71287659Y-101713636D01*
X71792215Y-101495551D01*
X72277755Y-101242996D01*
X72742655Y-100957246D01*
X73185291Y-100639575D01*
X73604038Y-100291258D01*
X73997273Y-99913567D01*
X74363371Y-99507777D01*
X74700708Y-99075163D01*
X75007660Y-98616997D01*
X75282602Y-98134555D01*
X75523911Y-97629109D01*
X75729962Y-97101935D01*
X75766050Y-96996250D01*
X75923514Y-96457993D01*
X76040061Y-95912319D01*
X76115964Y-95361582D01*
X76151497Y-94808134D01*
X76146933Y-94254328D01*
X76102545Y-93702517D01*
X76018607Y-93155054D01*
X75895392Y-92614291D01*
X75733174Y-92082581D01*
X75532226Y-91562278D01*
X75292821Y-91055733D01*
X75019459Y-90572167D01*
X74706873Y-90102997D01*
X74363922Y-89662215D01*
X73992479Y-89250769D01*
X73594419Y-88869613D01*
X73171614Y-88519696D01*
X72725940Y-88201970D01*
X72259271Y-87917386D01*
X71773480Y-87666895D01*
X71270441Y-87451447D01*
X70752029Y-87271995D01*
X70220117Y-87129489D01*
X69676580Y-87024881D01*
X69123291Y-86959120D01*
X68562125Y-86933159D01*
X67994956Y-86947948D01*
X67892083Y-86955033D01*
X67351637Y-87016712D01*
X66812948Y-87119382D01*
X66279653Y-87261743D01*
X65755390Y-87442493D01*
X65243795Y-87660333D01*
X64789184Y-87893131D01*
X65701333Y-87893131D01*
X65801875Y-87854533D01*
X66341059Y-87667747D01*
X66877237Y-87522784D01*
X67412046Y-87419391D01*
X67947124Y-87357313D01*
X68484105Y-87336295D01*
X69013917Y-87355300D01*
X69557510Y-87415387D01*
X70094722Y-87516008D01*
X70620417Y-87656134D01*
X70795749Y-87712638D01*
X70943948Y-87762809D01*
X71056528Y-87801630D01*
X71138112Y-87830888D01*
X71193322Y-87852370D01*
X71226784Y-87867865D01*
X71243119Y-87879162D01*
X71247000Y-87887149D01*
X71236801Y-87908466D01*
X71207864Y-87961980D01*
X71162681Y-88043259D01*
X71103741Y-88147876D01*
X71033536Y-88271399D01*
X70954556Y-88409400D01*
X70901498Y-88501634D01*
X70799819Y-88678047D01*
X70688717Y-88870809D01*
X70574297Y-89069326D01*
X70462665Y-89263003D01*
X70359929Y-89441246D01*
X70272194Y-89593462D01*
X70271790Y-89594163D01*
X70177756Y-89755689D01*
X70102080Y-89881940D01*
X70043352Y-89975076D01*
X70000161Y-90037255D01*
X69971096Y-90070638D01*
X69955833Y-90077842D01*
X69500478Y-89963450D01*
X69047984Y-89890351D01*
X68599776Y-89858343D01*
X68157274Y-89867224D01*
X67721901Y-89916791D01*
X67295080Y-90006842D01*
X66878232Y-90137175D01*
X66472780Y-90307588D01*
X66080146Y-90517879D01*
X65854792Y-90660767D01*
X65701333Y-90763957D01*
X65701333Y-87893131D01*
X64789184Y-87893131D01*
X64748504Y-87913962D01*
X64273156Y-88202079D01*
X64124417Y-88302339D01*
X63894580Y-88471076D01*
X63651163Y-88667436D01*
X63403103Y-88883194D01*
X63159336Y-89110122D01*
X62928797Y-89339995D01*
X62720422Y-89564587D01*
X62598420Y-89707090D01*
X62252978Y-90159580D01*
X61942930Y-90634590D01*
X61669192Y-91130076D01*
X61432679Y-91643993D01*
X61234309Y-92174297D01*
X61074998Y-92718943D01*
X60955661Y-93275887D01*
X60930169Y-93429667D01*
X60882142Y-93821838D01*
X60854944Y-94237789D01*
X60850273Y-94550557D01*
X61257161Y-94550557D01*
X61259029Y-94355554D01*
X61263673Y-94173401D01*
X61271092Y-94015081D01*
X61277680Y-93927083D01*
X61348644Y-93381474D01*
X61460242Y-92845851D01*
X61611554Y-92322115D01*
X61801659Y-91812168D01*
X62029639Y-91317910D01*
X62294573Y-90841244D01*
X62595541Y-90384071D01*
X62931623Y-89948290D01*
X63301899Y-89535805D01*
X63496579Y-89341766D01*
X63764583Y-89084248D01*
X63776230Y-93283666D01*
X63777630Y-93781622D01*
X63778965Y-94239014D01*
X63780131Y-94617779D01*
X65063960Y-94617779D01*
X65077291Y-94265460D01*
X65123902Y-93920792D01*
X65203751Y-93591847D01*
X65235111Y-93494721D01*
X65377526Y-93142165D01*
X65555028Y-92809107D01*
X65765180Y-92498859D01*
X66005545Y-92214737D01*
X66273685Y-91960053D01*
X66485812Y-91794450D01*
X66630148Y-91699330D01*
X66799790Y-91600707D01*
X66982065Y-91505030D01*
X67164299Y-91418751D01*
X67333821Y-91348322D01*
X67426417Y-91315626D01*
X67546565Y-91280630D01*
X67691826Y-91243930D01*
X67846404Y-91209060D01*
X67994506Y-91179557D01*
X68120339Y-91158952D01*
X68135500Y-91156951D01*
X68225726Y-91150386D01*
X68347523Y-91148368D01*
X68490426Y-91150414D01*
X68643973Y-91156039D01*
X68797699Y-91164760D01*
X68941143Y-91176094D01*
X69063839Y-91189557D01*
X69151899Y-91203930D01*
X69485286Y-91288255D01*
X69791856Y-91395829D01*
X70082589Y-91530831D01*
X70238790Y-91617742D01*
X70557499Y-91829255D01*
X70847136Y-92070510D01*
X71106206Y-92339129D01*
X71333213Y-92632735D01*
X71526662Y-92948950D01*
X71685059Y-93285396D01*
X71806908Y-93639697D01*
X71890713Y-94009474D01*
X71928477Y-94304409D01*
X71939791Y-94676158D01*
X71910502Y-95042785D01*
X71842283Y-95401389D01*
X71736806Y-95749068D01*
X71595745Y-96082919D01*
X71420772Y-96400043D01*
X71213558Y-96697536D01*
X70975778Y-96972496D01*
X70709102Y-97222023D01*
X70415205Y-97443215D01*
X70095758Y-97633169D01*
X69975224Y-97693158D01*
X69644935Y-97829311D01*
X69295360Y-97935694D01*
X69179872Y-97963056D01*
X69100396Y-97979205D01*
X69023463Y-97991240D01*
X68940636Y-97999766D01*
X68843479Y-98005388D01*
X68723553Y-98008709D01*
X68572422Y-98010336D01*
X68516500Y-98010595D01*
X68355813Y-98010626D01*
X68228825Y-98009021D01*
X68126913Y-98005202D01*
X68041457Y-97998591D01*
X67963833Y-97988611D01*
X67885420Y-97974684D01*
X67839167Y-97965203D01*
X67461514Y-97864678D01*
X67103959Y-97728089D01*
X66768377Y-97557105D01*
X66456643Y-97353392D01*
X66170633Y-97118618D01*
X65912220Y-96854451D01*
X65683281Y-96562557D01*
X65485691Y-96244604D01*
X65321325Y-95902260D01*
X65224056Y-95639928D01*
X65137301Y-95313085D01*
X65083949Y-94969678D01*
X65063960Y-94617779D01*
X63780131Y-94617779D01*
X63780254Y-94657612D01*
X63781517Y-95039184D01*
X63782774Y-95385500D01*
X63784043Y-95698329D01*
X63785346Y-95979441D01*
X63786701Y-96230605D01*
X63788127Y-96453590D01*
X63789645Y-96650165D01*
X63791274Y-96822101D01*
X63793034Y-96971165D01*
X63794944Y-97099128D01*
X63797023Y-97207758D01*
X63799292Y-97298825D01*
X63801769Y-97374099D01*
X63804475Y-97435348D01*
X63807429Y-97484342D01*
X63810651Y-97522850D01*
X63814160Y-97552641D01*
X63817975Y-97575486D01*
X63822117Y-97593152D01*
X63823973Y-97599500D01*
X63864541Y-97728384D01*
X63897700Y-97827612D01*
X63927729Y-97908219D01*
X63958904Y-97981238D01*
X63995504Y-98057703D01*
X64021785Y-98109703D01*
X64177559Y-98369369D01*
X64364425Y-98602754D01*
X64579027Y-98807427D01*
X64818010Y-98980958D01*
X65078020Y-99120916D01*
X65355702Y-99224870D01*
X65647700Y-99290390D01*
X65652471Y-99291113D01*
X65704387Y-99295604D01*
X65794335Y-99299615D01*
X65918018Y-99303145D01*
X66071137Y-99306193D01*
X66249395Y-99308759D01*
X66448493Y-99310841D01*
X66664134Y-99312439D01*
X66892020Y-99313553D01*
X67127851Y-99314181D01*
X67367332Y-99314322D01*
X67606163Y-99313977D01*
X67840046Y-99313143D01*
X68064683Y-99311822D01*
X68275777Y-99310010D01*
X68469030Y-99307709D01*
X68640142Y-99304917D01*
X68784817Y-99301634D01*
X68898757Y-99297858D01*
X68977662Y-99293589D01*
X68998876Y-99291697D01*
X69442450Y-99222733D01*
X69872591Y-99114217D01*
X70287334Y-98967348D01*
X70684716Y-98783325D01*
X71062773Y-98563347D01*
X71419540Y-98308612D01*
X71753052Y-98020319D01*
X72061346Y-97699666D01*
X72342458Y-97347853D01*
X72459471Y-97179833D01*
X72555722Y-97024950D01*
X72656966Y-96843706D01*
X72755909Y-96650251D01*
X72845257Y-96458736D01*
X72906292Y-96312953D01*
X73047689Y-95895468D01*
X73148764Y-95469783D01*
X73209835Y-95038888D01*
X73231222Y-94605774D01*
X73213244Y-94173432D01*
X73156221Y-93744852D01*
X73060471Y-93323025D01*
X72926314Y-92910942D01*
X72754070Y-92511594D01*
X72544056Y-92127970D01*
X72442602Y-91969167D01*
X72307850Y-91775740D01*
X72174548Y-91603316D01*
X72030552Y-91437071D01*
X71863717Y-91262183D01*
X71861638Y-91260083D01*
X71651942Y-91048417D01*
X71909846Y-90602598D01*
X71985913Y-90471079D01*
X72078079Y-90311679D01*
X72181271Y-90133173D01*
X72290417Y-89944339D01*
X72400444Y-89753953D01*
X72506278Y-89570791D01*
X72547861Y-89498815D01*
X72927972Y-88840851D01*
X73087157Y-88970967D01*
X73168577Y-89039919D01*
X73266710Y-89126636D01*
X73368163Y-89219122D01*
X73445198Y-89291583D01*
X73652296Y-89493857D01*
X73832126Y-89678518D01*
X73991432Y-89853163D01*
X74136958Y-90025384D01*
X74275447Y-90202777D01*
X74375568Y-90339333D01*
X74684377Y-90804703D01*
X74953421Y-91283248D01*
X75183147Y-91776166D01*
X75373997Y-92284652D01*
X75526415Y-92809904D01*
X75640846Y-93353115D01*
X75717733Y-93915484D01*
X75723050Y-93969417D01*
X75750986Y-94477093D01*
X75739603Y-94993621D01*
X75689665Y-95514235D01*
X75601935Y-96034167D01*
X75477179Y-96548651D01*
X75316158Y-97052920D01*
X75168401Y-97430167D01*
X74937258Y-97920741D01*
X74670471Y-98390315D01*
X74370021Y-98837205D01*
X74037887Y-99259723D01*
X73676051Y-99656185D01*
X73286492Y-100024904D01*
X72871193Y-100364195D01*
X72432132Y-100672371D01*
X71971292Y-100947748D01*
X71490652Y-101188638D01*
X70992192Y-101393357D01*
X70477895Y-101560219D01*
X70243493Y-101622096D01*
X69928478Y-101693420D01*
X69629738Y-101747601D01*
X69332536Y-101786608D01*
X69022139Y-101812411D01*
X68717583Y-101826023D01*
X68157681Y-101822020D01*
X67606485Y-101776678D01*
X67064953Y-101690281D01*
X66534044Y-101563107D01*
X66014714Y-101395439D01*
X65507923Y-101187557D01*
X65014628Y-100939743D01*
X64535787Y-100652276D01*
X64395993Y-100558959D01*
X64108503Y-100349123D01*
X63815405Y-100110327D01*
X63527119Y-99852079D01*
X63254064Y-99583891D01*
X63006662Y-99315270D01*
X62915843Y-99208167D01*
X62582448Y-98771480D01*
X62283568Y-98311973D01*
X62020292Y-97832281D01*
X61793708Y-97335039D01*
X61604903Y-96822883D01*
X61454965Y-96298448D01*
X61344982Y-95764368D01*
X61277488Y-95239417D01*
X61268233Y-95102841D01*
X61261762Y-94935183D01*
X61258071Y-94747428D01*
X61257161Y-94550557D01*
X60850273Y-94550557D01*
X60848572Y-94664447D01*
X60863024Y-95088740D01*
X60898299Y-95497592D01*
X60930507Y-95736833D01*
X61035986Y-96284018D01*
X61180152Y-96821525D01*
X61361560Y-97346276D01*
X61578763Y-97855191D01*
X61830318Y-98345190D01*
X62114776Y-98813193D01*
X62430694Y-99256122D01*
X62776625Y-99670896D01*
X62777999Y-99672418D01*
X63184323Y-100092569D01*
X63611842Y-100476088D01*
X64060310Y-100822847D01*
X64529478Y-101132714D01*
X65019099Y-101405560D01*
X65528926Y-101641255D01*
X66058710Y-101839667D01*
X66608203Y-102000667D01*
X67177159Y-102124125D01*
X67553417Y-102183651D01*
X67689366Y-102198323D01*
X67858109Y-102210546D01*
X68050167Y-102220124D01*
X68256061Y-102226861D01*
X68466312Y-102230563D01*
X68671440Y-102231032D01*
X68861967Y-102228074D01*
G37*
X68861967Y-102228074D02*
X69028412Y-102221493D01*
X69111762Y-102215808D01*
X69676139Y-102148339D01*
X70227997Y-102041304D01*
X70765712Y-101895979D01*
X71287659Y-101713636D01*
X71792215Y-101495551D01*
X72277755Y-101242996D01*
X72742655Y-100957246D01*
X73185291Y-100639575D01*
X73604038Y-100291258D01*
X73997273Y-99913567D01*
X74363371Y-99507777D01*
X74700708Y-99075163D01*
X75007660Y-98616997D01*
X75282602Y-98134555D01*
X75523911Y-97629109D01*
X75729962Y-97101935D01*
X75766050Y-96996250D01*
X75923514Y-96457993D01*
X76040061Y-95912319D01*
X76115964Y-95361582D01*
X76151497Y-94808134D01*
X76146933Y-94254328D01*
X76102545Y-93702517D01*
X76018607Y-93155054D01*
X75895392Y-92614291D01*
X75733174Y-92082581D01*
X75532226Y-91562278D01*
X75292821Y-91055733D01*
X75019459Y-90572167D01*
X74706873Y-90102997D01*
X74363922Y-89662215D01*
X73992479Y-89250769D01*
X73594419Y-88869613D01*
X73171614Y-88519696D01*
X72725940Y-88201970D01*
X72259271Y-87917386D01*
X71773480Y-87666895D01*
X71270441Y-87451447D01*
X70752029Y-87271995D01*
X70220117Y-87129489D01*
X69676580Y-87024881D01*
X69123291Y-86959120D01*
X68562125Y-86933159D01*
X67994956Y-86947948D01*
X67892083Y-86955033D01*
X67351637Y-87016712D01*
X66812948Y-87119382D01*
X66279653Y-87261743D01*
X65755390Y-87442493D01*
X65243795Y-87660333D01*
X64789184Y-87893131D01*
X65701333Y-87893131D01*
X65801875Y-87854533D01*
X66341059Y-87667747D01*
X66877237Y-87522784D01*
X67412046Y-87419391D01*
X67947124Y-87357313D01*
X68484105Y-87336295D01*
X69013917Y-87355300D01*
X69557510Y-87415387D01*
X70094722Y-87516008D01*
X70620417Y-87656134D01*
X70795749Y-87712638D01*
X70943948Y-87762809D01*
X71056528Y-87801630D01*
X71138112Y-87830888D01*
X71193322Y-87852370D01*
X71226784Y-87867865D01*
X71243119Y-87879162D01*
X71247000Y-87887149D01*
X71236801Y-87908466D01*
X71207864Y-87961980D01*
X71162681Y-88043259D01*
X71103741Y-88147876D01*
X71033536Y-88271399D01*
X70954556Y-88409400D01*
X70901498Y-88501634D01*
X70799819Y-88678047D01*
X70688717Y-88870809D01*
X70574297Y-89069326D01*
X70462665Y-89263003D01*
X70359929Y-89441246D01*
X70272194Y-89593462D01*
X70271790Y-89594163D01*
X70177756Y-89755689D01*
X70102080Y-89881940D01*
X70043352Y-89975076D01*
X70000161Y-90037255D01*
X69971096Y-90070638D01*
X69955833Y-90077842D01*
X69500478Y-89963450D01*
X69047984Y-89890351D01*
X68599776Y-89858343D01*
X68157274Y-89867224D01*
X67721901Y-89916791D01*
X67295080Y-90006842D01*
X66878232Y-90137175D01*
X66472780Y-90307588D01*
X66080146Y-90517879D01*
X65854792Y-90660767D01*
X65701333Y-90763957D01*
X65701333Y-87893131D01*
X64789184Y-87893131D01*
X64748504Y-87913962D01*
X64273156Y-88202079D01*
X64124417Y-88302339D01*
X63894580Y-88471076D01*
X63651163Y-88667436D01*
X63403103Y-88883194D01*
X63159336Y-89110122D01*
X62928797Y-89339995D01*
X62720422Y-89564587D01*
X62598420Y-89707090D01*
X62252978Y-90159580D01*
X61942930Y-90634590D01*
X61669192Y-91130076D01*
X61432679Y-91643993D01*
X61234309Y-92174297D01*
X61074998Y-92718943D01*
X60955661Y-93275887D01*
X60930169Y-93429667D01*
X60882142Y-93821838D01*
X60854944Y-94237789D01*
X60850273Y-94550557D01*
X61257161Y-94550557D01*
X61259029Y-94355554D01*
X61263673Y-94173401D01*
X61271092Y-94015081D01*
X61277680Y-93927083D01*
X61348644Y-93381474D01*
X61460242Y-92845851D01*
X61611554Y-92322115D01*
X61801659Y-91812168D01*
X62029639Y-91317910D01*
X62294573Y-90841244D01*
X62595541Y-90384071D01*
X62931623Y-89948290D01*
X63301899Y-89535805D01*
X63496579Y-89341766D01*
X63764583Y-89084248D01*
X63776230Y-93283666D01*
X63777630Y-93781622D01*
X63778965Y-94239014D01*
X63780131Y-94617779D01*
X65063960Y-94617779D01*
X65077291Y-94265460D01*
X65123902Y-93920792D01*
X65203751Y-93591847D01*
X65235111Y-93494721D01*
X65377526Y-93142165D01*
X65555028Y-92809107D01*
X65765180Y-92498859D01*
X66005545Y-92214737D01*
X66273685Y-91960053D01*
X66485812Y-91794450D01*
X66630148Y-91699330D01*
X66799790Y-91600707D01*
X66982065Y-91505030D01*
X67164299Y-91418751D01*
X67333821Y-91348322D01*
X67426417Y-91315626D01*
X67546565Y-91280630D01*
X67691826Y-91243930D01*
X67846404Y-91209060D01*
X67994506Y-91179557D01*
X68120339Y-91158952D01*
X68135500Y-91156951D01*
X68225726Y-91150386D01*
X68347523Y-91148368D01*
X68490426Y-91150414D01*
X68643973Y-91156039D01*
X68797699Y-91164760D01*
X68941143Y-91176094D01*
X69063839Y-91189557D01*
X69151899Y-91203930D01*
X69485286Y-91288255D01*
X69791856Y-91395829D01*
X70082589Y-91530831D01*
X70238790Y-91617742D01*
X70557499Y-91829255D01*
X70847136Y-92070510D01*
X71106206Y-92339129D01*
X71333213Y-92632735D01*
X71526662Y-92948950D01*
X71685059Y-93285396D01*
X71806908Y-93639697D01*
X71890713Y-94009474D01*
X71928477Y-94304409D01*
X71939791Y-94676158D01*
X71910502Y-95042785D01*
X71842283Y-95401389D01*
X71736806Y-95749068D01*
X71595745Y-96082919D01*
X71420772Y-96400043D01*
X71213558Y-96697536D01*
X70975778Y-96972496D01*
X70709102Y-97222023D01*
X70415205Y-97443215D01*
X70095758Y-97633169D01*
X69975224Y-97693158D01*
X69644935Y-97829311D01*
X69295360Y-97935694D01*
X69179872Y-97963056D01*
X69100396Y-97979205D01*
X69023463Y-97991240D01*
X68940636Y-97999766D01*
X68843479Y-98005388D01*
X68723553Y-98008709D01*
X68572422Y-98010336D01*
X68516500Y-98010595D01*
X68355813Y-98010626D01*
X68228825Y-98009021D01*
X68126913Y-98005202D01*
X68041457Y-97998591D01*
X67963833Y-97988611D01*
X67885420Y-97974684D01*
X67839167Y-97965203D01*
X67461514Y-97864678D01*
X67103959Y-97728089D01*
X66768377Y-97557105D01*
X66456643Y-97353392D01*
X66170633Y-97118618D01*
X65912220Y-96854451D01*
X65683281Y-96562557D01*
X65485691Y-96244604D01*
X65321325Y-95902260D01*
X65224056Y-95639928D01*
X65137301Y-95313085D01*
X65083949Y-94969678D01*
X65063960Y-94617779D01*
X63780131Y-94617779D01*
X63780254Y-94657612D01*
X63781517Y-95039184D01*
X63782774Y-95385500D01*
X63784043Y-95698329D01*
X63785346Y-95979441D01*
X63786701Y-96230605D01*
X63788127Y-96453590D01*
X63789645Y-96650165D01*
X63791274Y-96822101D01*
X63793034Y-96971165D01*
X63794944Y-97099128D01*
X63797023Y-97207758D01*
X63799292Y-97298825D01*
X63801769Y-97374099D01*
X63804475Y-97435348D01*
X63807429Y-97484342D01*
X63810651Y-97522850D01*
X63814160Y-97552641D01*
X63817975Y-97575486D01*
X63822117Y-97593152D01*
X63823973Y-97599500D01*
X63864541Y-97728384D01*
X63897700Y-97827612D01*
X63927729Y-97908219D01*
X63958904Y-97981238D01*
X63995504Y-98057703D01*
X64021785Y-98109703D01*
X64177559Y-98369369D01*
X64364425Y-98602754D01*
X64579027Y-98807427D01*
X64818010Y-98980958D01*
X65078020Y-99120916D01*
X65355702Y-99224870D01*
X65647700Y-99290390D01*
X65652471Y-99291113D01*
X65704387Y-99295604D01*
X65794335Y-99299615D01*
X65918018Y-99303145D01*
X66071137Y-99306193D01*
X66249395Y-99308759D01*
X66448493Y-99310841D01*
X66664134Y-99312439D01*
X66892020Y-99313553D01*
X67127851Y-99314181D01*
X67367332Y-99314322D01*
X67606163Y-99313977D01*
X67840046Y-99313143D01*
X68064683Y-99311822D01*
X68275777Y-99310010D01*
X68469030Y-99307709D01*
X68640142Y-99304917D01*
X68784817Y-99301634D01*
X68898757Y-99297858D01*
X68977662Y-99293589D01*
X68998876Y-99291697D01*
X69442450Y-99222733D01*
X69872591Y-99114217D01*
X70287334Y-98967348D01*
X70684716Y-98783325D01*
X71062773Y-98563347D01*
X71419540Y-98308612D01*
X71753052Y-98020319D01*
X72061346Y-97699666D01*
X72342458Y-97347853D01*
X72459471Y-97179833D01*
X72555722Y-97024950D01*
X72656966Y-96843706D01*
X72755909Y-96650251D01*
X72845257Y-96458736D01*
X72906292Y-96312953D01*
X73047689Y-95895468D01*
X73148764Y-95469783D01*
X73209835Y-95038888D01*
X73231222Y-94605774D01*
X73213244Y-94173432D01*
X73156221Y-93744852D01*
X73060471Y-93323025D01*
X72926314Y-92910942D01*
X72754070Y-92511594D01*
X72544056Y-92127970D01*
X72442602Y-91969167D01*
X72307850Y-91775740D01*
X72174548Y-91603316D01*
X72030552Y-91437071D01*
X71863717Y-91262183D01*
X71861638Y-91260083D01*
X71651942Y-91048417D01*
X71909846Y-90602598D01*
X71985913Y-90471079D01*
X72078079Y-90311679D01*
X72181271Y-90133173D01*
X72290417Y-89944339D01*
X72400444Y-89753953D01*
X72506278Y-89570791D01*
X72547861Y-89498815D01*
X72927972Y-88840851D01*
X73087157Y-88970967D01*
X73168577Y-89039919D01*
X73266710Y-89126636D01*
X73368163Y-89219122D01*
X73445198Y-89291583D01*
X73652296Y-89493857D01*
X73832126Y-89678518D01*
X73991432Y-89853163D01*
X74136958Y-90025384D01*
X74275447Y-90202777D01*
X74375568Y-90339333D01*
X74684377Y-90804703D01*
X74953421Y-91283248D01*
X75183147Y-91776166D01*
X75373997Y-92284652D01*
X75526415Y-92809904D01*
X75640846Y-93353115D01*
X75717733Y-93915484D01*
X75723050Y-93969417D01*
X75750986Y-94477093D01*
X75739603Y-94993621D01*
X75689665Y-95514235D01*
X75601935Y-96034167D01*
X75477179Y-96548651D01*
X75316158Y-97052920D01*
X75168401Y-97430167D01*
X74937258Y-97920741D01*
X74670471Y-98390315D01*
X74370021Y-98837205D01*
X74037887Y-99259723D01*
X73676051Y-99656185D01*
X73286492Y-100024904D01*
X72871193Y-100364195D01*
X72432132Y-100672371D01*
X71971292Y-100947748D01*
X71490652Y-101188638D01*
X70992192Y-101393357D01*
X70477895Y-101560219D01*
X70243493Y-101622096D01*
X69928478Y-101693420D01*
X69629738Y-101747601D01*
X69332536Y-101786608D01*
X69022139Y-101812411D01*
X68717583Y-101826023D01*
X68157681Y-101822020D01*
X67606485Y-101776678D01*
X67064953Y-101690281D01*
X66534044Y-101563107D01*
X66014714Y-101395439D01*
X65507923Y-101187557D01*
X65014628Y-100939743D01*
X64535787Y-100652276D01*
X64395993Y-100558959D01*
X64108503Y-100349123D01*
X63815405Y-100110327D01*
X63527119Y-99852079D01*
X63254064Y-99583891D01*
X63006662Y-99315270D01*
X62915843Y-99208167D01*
X62582448Y-98771480D01*
X62283568Y-98311973D01*
X62020292Y-97832281D01*
X61793708Y-97335039D01*
X61604903Y-96822883D01*
X61454965Y-96298448D01*
X61344982Y-95764368D01*
X61277488Y-95239417D01*
X61268233Y-95102841D01*
X61261762Y-94935183D01*
X61258071Y-94747428D01*
X61257161Y-94550557D01*
X60850273Y-94550557D01*
X60848572Y-94664447D01*
X60863024Y-95088740D01*
X60898299Y-95497592D01*
X60930507Y-95736833D01*
X61035986Y-96284018D01*
X61180152Y-96821525D01*
X61361560Y-97346276D01*
X61578763Y-97855191D01*
X61830318Y-98345190D01*
X62114776Y-98813193D01*
X62430694Y-99256122D01*
X62776625Y-99670896D01*
X62777999Y-99672418D01*
X63184323Y-100092569D01*
X63611842Y-100476088D01*
X64060310Y-100822847D01*
X64529478Y-101132714D01*
X65019099Y-101405560D01*
X65528926Y-101641255D01*
X66058710Y-101839667D01*
X66608203Y-102000667D01*
X67177159Y-102124125D01*
X67553417Y-102183651D01*
X67689366Y-102198323D01*
X67858109Y-102210546D01*
X68050167Y-102220124D01*
X68256061Y-102226861D01*
X68466312Y-102230563D01*
X68671440Y-102231032D01*
X68861967Y-102228074D01*
G36*
X101932279Y-90844243D02*
G01*
X102446586Y-90844184D01*
X102931106Y-90844082D01*
X103386736Y-90843934D01*
X103814370Y-90843739D01*
X104214907Y-90843494D01*
X104589241Y-90843198D01*
X104938268Y-90842848D01*
X105262886Y-90842442D01*
X105563990Y-90841978D01*
X105842477Y-90841455D01*
X106099242Y-90840871D01*
X106335182Y-90840222D01*
X106551192Y-90839508D01*
X106748170Y-90838726D01*
X106927011Y-90837874D01*
X107088611Y-90836950D01*
X107233867Y-90835952D01*
X107363674Y-90834879D01*
X107478930Y-90833727D01*
X107580530Y-90832496D01*
X107669369Y-90831182D01*
X107746346Y-90829785D01*
X107812354Y-90828301D01*
X107868292Y-90826730D01*
X107915054Y-90825068D01*
X107953538Y-90823315D01*
X107984639Y-90821467D01*
X108009253Y-90819523D01*
X108028277Y-90817481D01*
X108042606Y-90815339D01*
X108053138Y-90813094D01*
X108060767Y-90810745D01*
X108066391Y-90808290D01*
X108070560Y-90805939D01*
X108127570Y-90749331D01*
X108154208Y-90675774D01*
X108151003Y-90597252D01*
X108118484Y-90525747D01*
X108057181Y-90473246D01*
X108055833Y-90472557D01*
X108045470Y-90470851D01*
X108020748Y-90469214D01*
X107980892Y-90467645D01*
X107925124Y-90466143D01*
X107852671Y-90464707D01*
X107762755Y-90463335D01*
X107654600Y-90462026D01*
X107527431Y-90460778D01*
X107380471Y-90459591D01*
X107212945Y-90458462D01*
X107024076Y-90457391D01*
X106813089Y-90456377D01*
X106579207Y-90455417D01*
X106321656Y-90454511D01*
X106039657Y-90453658D01*
X105732437Y-90452855D01*
X105399218Y-90452103D01*
X105039225Y-90451398D01*
X104651681Y-90450741D01*
X104235812Y-90450130D01*
X103790840Y-90449563D01*
X103315990Y-90449040D01*
X102810485Y-90448558D01*
X102273551Y-90448117D01*
X101704410Y-90447715D01*
X101102288Y-90447351D01*
X100466407Y-90447024D01*
X99795992Y-90446732D01*
X99090267Y-90446475D01*
X98348456Y-90446250D01*
X97569783Y-90446056D01*
X96753472Y-90445892D01*
X95898747Y-90445757D01*
X95004832Y-90445650D01*
X94070951Y-90445569D01*
X93096329Y-90445513D01*
X92080188Y-90445480D01*
X92027375Y-90445479D01*
X91206458Y-90445471D01*
X90395979Y-90445478D01*
X89596972Y-90445501D01*
X88810466Y-90445539D01*
X88037493Y-90445591D01*
X87279085Y-90445657D01*
X86536274Y-90445738D01*
X85810091Y-90445831D01*
X85101567Y-90445938D01*
X84411734Y-90446058D01*
X83741623Y-90446190D01*
X83092267Y-90446334D01*
X82464696Y-90446489D01*
X81859941Y-90446656D01*
X81279035Y-90446834D01*
X80723009Y-90447022D01*
X80192895Y-90447221D01*
X79689723Y-90447429D01*
X79214526Y-90447647D01*
X78768335Y-90447873D01*
X78352181Y-90448109D01*
X77967096Y-90448353D01*
X77614111Y-90448604D01*
X77294259Y-90448864D01*
X77008570Y-90449131D01*
X76758075Y-90449404D01*
X76543808Y-90449684D01*
X76366798Y-90449970D01*
X76228077Y-90450262D01*
X76128678Y-90450560D01*
X76069631Y-90450862D01*
X76051833Y-90451145D01*
X76061095Y-90471130D01*
X76086084Y-90520291D01*
X76122599Y-90590453D01*
X76152375Y-90646936D01*
X76252917Y-90836750D01*
X92127917Y-90841971D01*
X93111006Y-90842293D01*
X94052657Y-90842598D01*
X94953768Y-90842884D01*
X95815234Y-90843149D01*
X96637952Y-90843390D01*
X97422817Y-90843607D01*
X98170725Y-90843796D01*
X98882574Y-90843955D01*
X99559258Y-90844084D01*
X100201675Y-90844179D01*
X100810720Y-90844238D01*
X101387289Y-90844260D01*
X101932279Y-90844243D01*
G37*
X101932279Y-90844243D02*
X102446586Y-90844184D01*
X102931106Y-90844082D01*
X103386736Y-90843934D01*
X103814370Y-90843739D01*
X104214907Y-90843494D01*
X104589241Y-90843198D01*
X104938268Y-90842848D01*
X105262886Y-90842442D01*
X105563990Y-90841978D01*
X105842477Y-90841455D01*
X106099242Y-90840871D01*
X106335182Y-90840222D01*
X106551192Y-90839508D01*
X106748170Y-90838726D01*
X106927011Y-90837874D01*
X107088611Y-90836950D01*
X107233867Y-90835952D01*
X107363674Y-90834879D01*
X107478930Y-90833727D01*
X107580530Y-90832496D01*
X107669369Y-90831182D01*
X107746346Y-90829785D01*
X107812354Y-90828301D01*
X107868292Y-90826730D01*
X107915054Y-90825068D01*
X107953538Y-90823315D01*
X107984639Y-90821467D01*
X108009253Y-90819523D01*
X108028277Y-90817481D01*
X108042606Y-90815339D01*
X108053138Y-90813094D01*
X108060767Y-90810745D01*
X108066391Y-90808290D01*
X108070560Y-90805939D01*
X108127570Y-90749331D01*
X108154208Y-90675774D01*
X108151003Y-90597252D01*
X108118484Y-90525747D01*
X108057181Y-90473246D01*
X108055833Y-90472557D01*
X108045470Y-90470851D01*
X108020748Y-90469214D01*
X107980892Y-90467645D01*
X107925124Y-90466143D01*
X107852671Y-90464707D01*
X107762755Y-90463335D01*
X107654600Y-90462026D01*
X107527431Y-90460778D01*
X107380471Y-90459591D01*
X107212945Y-90458462D01*
X107024076Y-90457391D01*
X106813089Y-90456377D01*
X106579207Y-90455417D01*
X106321656Y-90454511D01*
X106039657Y-90453658D01*
X105732437Y-90452855D01*
X105399218Y-90452103D01*
X105039225Y-90451398D01*
X104651681Y-90450741D01*
X104235812Y-90450130D01*
X103790840Y-90449563D01*
X103315990Y-90449040D01*
X102810485Y-90448558D01*
X102273551Y-90448117D01*
X101704410Y-90447715D01*
X101102288Y-90447351D01*
X100466407Y-90447024D01*
X99795992Y-90446732D01*
X99090267Y-90446475D01*
X98348456Y-90446250D01*
X97569783Y-90446056D01*
X96753472Y-90445892D01*
X95898747Y-90445757D01*
X95004832Y-90445650D01*
X94070951Y-90445569D01*
X93096329Y-90445513D01*
X92080188Y-90445480D01*
X92027375Y-90445479D01*
X91206458Y-90445471D01*
X90395979Y-90445478D01*
X89596972Y-90445501D01*
X88810466Y-90445539D01*
X88037493Y-90445591D01*
X87279085Y-90445657D01*
X86536274Y-90445738D01*
X85810091Y-90445831D01*
X85101567Y-90445938D01*
X84411734Y-90446058D01*
X83741623Y-90446190D01*
X83092267Y-90446334D01*
X82464696Y-90446489D01*
X81859941Y-90446656D01*
X81279035Y-90446834D01*
X80723009Y-90447022D01*
X80192895Y-90447221D01*
X79689723Y-90447429D01*
X79214526Y-90447647D01*
X78768335Y-90447873D01*
X78352181Y-90448109D01*
X77967096Y-90448353D01*
X77614111Y-90448604D01*
X77294259Y-90448864D01*
X77008570Y-90449131D01*
X76758075Y-90449404D01*
X76543808Y-90449684D01*
X76366798Y-90449970D01*
X76228077Y-90450262D01*
X76128678Y-90450560D01*
X76069631Y-90450862D01*
X76051833Y-90451145D01*
X76061095Y-90471130D01*
X76086084Y-90520291D01*
X76122599Y-90590453D01*
X76152375Y-90646936D01*
X76252917Y-90836750D01*
X92127917Y-90841971D01*
X93111006Y-90842293D01*
X94052657Y-90842598D01*
X94953768Y-90842884D01*
X95815234Y-90843149D01*
X96637952Y-90843390D01*
X97422817Y-90843607D01*
X98170725Y-90843796D01*
X98882574Y-90843955D01*
X99559258Y-90844084D01*
X100201675Y-90844179D01*
X100810720Y-90844238D01*
X101387289Y-90844260D01*
X101932279Y-90844243D01*
G36*
X83669636Y-96148835D02*
G01*
X83919343Y-96091068D01*
X84159210Y-95993228D01*
X84392074Y-95854361D01*
X84440269Y-95819957D01*
X84595381Y-95682372D01*
X84733989Y-95512608D01*
X84850486Y-95319394D01*
X84939266Y-95111457D01*
X84976372Y-94985417D01*
X84997412Y-94863319D01*
X85009671Y-94714565D01*
X85013137Y-94553481D01*
X85007794Y-94394389D01*
X84993629Y-94251613D01*
X84977180Y-94163747D01*
X84906923Y-93948699D01*
X84806457Y-93744123D01*
X84681284Y-93558976D01*
X84536904Y-93402215D01*
X84478936Y-93352578D01*
X84277791Y-93218477D01*
X84051626Y-93114287D01*
X83807029Y-93041759D01*
X83550588Y-93002642D01*
X83288891Y-92998688D01*
X83180982Y-93007708D01*
X82927898Y-93056061D01*
X82692889Y-93140202D01*
X82478974Y-93257526D01*
X82289173Y-93405432D01*
X82126506Y-93581315D01*
X81993993Y-93782573D01*
X81894654Y-94006604D01*
X81851577Y-94153581D01*
X81820880Y-94336425D01*
X81808731Y-94539776D01*
X81812751Y-94669559D01*
X82410607Y-94669559D01*
X82410626Y-94475524D01*
X82440360Y-94287528D01*
X82499714Y-94117839D01*
X82572047Y-93996577D01*
X82669514Y-93876925D01*
X82780032Y-93771923D01*
X82891516Y-93694614D01*
X82892276Y-93694198D01*
X83079774Y-93613459D01*
X83276561Y-93568392D01*
X83474092Y-93560179D01*
X83657158Y-93588240D01*
X83860191Y-93660536D01*
X84034182Y-93762997D01*
X84177549Y-93893572D01*
X84288711Y-94050209D01*
X84366087Y-94230854D01*
X84408096Y-94433457D01*
X84415690Y-94572667D01*
X84396741Y-94786809D01*
X84341320Y-94981079D01*
X84251573Y-95152952D01*
X84129642Y-95299902D01*
X83977671Y-95419406D01*
X83797803Y-95508936D01*
X83592181Y-95565969D01*
X83569130Y-95569978D01*
X83370973Y-95582619D01*
X83177096Y-95557172D01*
X82993186Y-95496520D01*
X82824927Y-95403550D01*
X82678008Y-95281144D01*
X82558112Y-95132187D01*
X82499714Y-95027495D01*
X82440303Y-94857571D01*
X82410607Y-94669559D01*
X81812751Y-94669559D01*
X81815122Y-94746092D01*
X81840045Y-94937829D01*
X81851966Y-94993378D01*
X81929131Y-95228173D01*
X82041364Y-95442597D01*
X82185359Y-95634154D01*
X82357811Y-95800348D01*
X82555411Y-95938683D01*
X82774855Y-96046664D01*
X83012836Y-96121794D01*
X83266048Y-96161578D01*
X83407250Y-96167484D01*
X83669636Y-96148835D01*
G37*
X83669636Y-96148835D02*
X83919343Y-96091068D01*
X84159210Y-95993228D01*
X84392074Y-95854361D01*
X84440269Y-95819957D01*
X84595381Y-95682372D01*
X84733989Y-95512608D01*
X84850486Y-95319394D01*
X84939266Y-95111457D01*
X84976372Y-94985417D01*
X84997412Y-94863319D01*
X85009671Y-94714565D01*
X85013137Y-94553481D01*
X85007794Y-94394389D01*
X84993629Y-94251613D01*
X84977180Y-94163747D01*
X84906923Y-93948699D01*
X84806457Y-93744123D01*
X84681284Y-93558976D01*
X84536904Y-93402215D01*
X84478936Y-93352578D01*
X84277791Y-93218477D01*
X84051626Y-93114287D01*
X83807029Y-93041759D01*
X83550588Y-93002642D01*
X83288891Y-92998688D01*
X83180982Y-93007708D01*
X82927898Y-93056061D01*
X82692889Y-93140202D01*
X82478974Y-93257526D01*
X82289173Y-93405432D01*
X82126506Y-93581315D01*
X81993993Y-93782573D01*
X81894654Y-94006604D01*
X81851577Y-94153581D01*
X81820880Y-94336425D01*
X81808731Y-94539776D01*
X81812751Y-94669559D01*
X82410607Y-94669559D01*
X82410626Y-94475524D01*
X82440360Y-94287528D01*
X82499714Y-94117839D01*
X82572047Y-93996577D01*
X82669514Y-93876925D01*
X82780032Y-93771923D01*
X82891516Y-93694614D01*
X82892276Y-93694198D01*
X83079774Y-93613459D01*
X83276561Y-93568392D01*
X83474092Y-93560179D01*
X83657158Y-93588240D01*
X83860191Y-93660536D01*
X84034182Y-93762997D01*
X84177549Y-93893572D01*
X84288711Y-94050209D01*
X84366087Y-94230854D01*
X84408096Y-94433457D01*
X84415690Y-94572667D01*
X84396741Y-94786809D01*
X84341320Y-94981079D01*
X84251573Y-95152952D01*
X84129642Y-95299902D01*
X83977671Y-95419406D01*
X83797803Y-95508936D01*
X83592181Y-95565969D01*
X83569130Y-95569978D01*
X83370973Y-95582619D01*
X83177096Y-95557172D01*
X82993186Y-95496520D01*
X82824927Y-95403550D01*
X82678008Y-95281144D01*
X82558112Y-95132187D01*
X82499714Y-95027495D01*
X82440303Y-94857571D01*
X82410607Y-94669559D01*
X81812751Y-94669559D01*
X81815122Y-94746092D01*
X81840045Y-94937829D01*
X81851966Y-94993378D01*
X81929131Y-95228173D01*
X82041364Y-95442597D01*
X82185359Y-95634154D01*
X82357811Y-95800348D01*
X82555411Y-95938683D01*
X82774855Y-96046664D01*
X83012836Y-96121794D01*
X83266048Y-96161578D01*
X83407250Y-96167484D01*
X83669636Y-96148835D01*
G36*
X91322697Y-96148525D02*
G01*
X91571901Y-96091991D01*
X91803578Y-96000005D01*
X92014695Y-95874785D01*
X92202219Y-95718551D01*
X92363117Y-95533524D01*
X92494355Y-95321921D01*
X92592900Y-95085963D01*
X92609329Y-95032939D01*
X92636380Y-94903597D01*
X92652704Y-94746797D01*
X92658309Y-94576030D01*
X92653207Y-94404788D01*
X92637406Y-94246559D01*
X92610915Y-94114837D01*
X92608673Y-94107000D01*
X92517334Y-93866196D01*
X92392799Y-93649804D01*
X92237556Y-93460244D01*
X92054095Y-93299939D01*
X91844906Y-93171308D01*
X91612476Y-93076772D01*
X91523438Y-93051514D01*
X91385414Y-93024892D01*
X91223237Y-93006499D01*
X91054483Y-92997441D01*
X90896728Y-92998826D01*
X90805000Y-93006263D01*
X90564290Y-93055025D01*
X90333554Y-93139307D01*
X90119861Y-93255466D01*
X89930286Y-93399859D01*
X89815581Y-93515940D01*
X89678598Y-93704135D01*
X89572946Y-93915326D01*
X89499049Y-94143583D01*
X89457334Y-94382974D01*
X89448223Y-94627565D01*
X89450243Y-94648161D01*
X90057636Y-94648161D01*
X90057836Y-94492276D01*
X90073689Y-94344743D01*
X90103813Y-94225126D01*
X90191368Y-94041013D01*
X90309286Y-93882800D01*
X90452843Y-93752996D01*
X90617316Y-93654110D01*
X90797980Y-93588651D01*
X90990112Y-93559125D01*
X91188989Y-93568043D01*
X91299361Y-93590199D01*
X91498699Y-93661655D01*
X91671794Y-93764575D01*
X91816392Y-93895542D01*
X91930235Y-94051137D01*
X92011068Y-94227942D01*
X92056634Y-94422538D01*
X92064676Y-94631508D01*
X92054734Y-94734569D01*
X92006948Y-94931441D01*
X91922359Y-95109113D01*
X91803445Y-95264169D01*
X91652686Y-95393194D01*
X91520751Y-95470559D01*
X91328571Y-95543519D01*
X91133593Y-95577762D01*
X90940610Y-95575143D01*
X90754416Y-95537519D01*
X90579805Y-95466747D01*
X90421572Y-95364683D01*
X90284510Y-95233185D01*
X90173413Y-95074108D01*
X90104162Y-94921917D01*
X90073081Y-94796631D01*
X90057636Y-94648161D01*
X89450243Y-94648161D01*
X89472141Y-94871427D01*
X89529513Y-95108626D01*
X89620764Y-95333231D01*
X89678098Y-95437101D01*
X89820745Y-95632403D01*
X89993650Y-95800497D01*
X90193083Y-95939409D01*
X90415312Y-96047166D01*
X90656607Y-96121796D01*
X90913237Y-96161324D01*
X91059000Y-96167387D01*
X91322697Y-96148525D01*
G37*
X91322697Y-96148525D02*
X91571901Y-96091991D01*
X91803578Y-96000005D01*
X92014695Y-95874785D01*
X92202219Y-95718551D01*
X92363117Y-95533524D01*
X92494355Y-95321921D01*
X92592900Y-95085963D01*
X92609329Y-95032939D01*
X92636380Y-94903597D01*
X92652704Y-94746797D01*
X92658309Y-94576030D01*
X92653207Y-94404788D01*
X92637406Y-94246559D01*
X92610915Y-94114837D01*
X92608673Y-94107000D01*
X92517334Y-93866196D01*
X92392799Y-93649804D01*
X92237556Y-93460244D01*
X92054095Y-93299939D01*
X91844906Y-93171308D01*
X91612476Y-93076772D01*
X91523438Y-93051514D01*
X91385414Y-93024892D01*
X91223237Y-93006499D01*
X91054483Y-92997441D01*
X90896728Y-92998826D01*
X90805000Y-93006263D01*
X90564290Y-93055025D01*
X90333554Y-93139307D01*
X90119861Y-93255466D01*
X89930286Y-93399859D01*
X89815581Y-93515940D01*
X89678598Y-93704135D01*
X89572946Y-93915326D01*
X89499049Y-94143583D01*
X89457334Y-94382974D01*
X89448223Y-94627565D01*
X89450243Y-94648161D01*
X90057636Y-94648161D01*
X90057836Y-94492276D01*
X90073689Y-94344743D01*
X90103813Y-94225126D01*
X90191368Y-94041013D01*
X90309286Y-93882800D01*
X90452843Y-93752996D01*
X90617316Y-93654110D01*
X90797980Y-93588651D01*
X90990112Y-93559125D01*
X91188989Y-93568043D01*
X91299361Y-93590199D01*
X91498699Y-93661655D01*
X91671794Y-93764575D01*
X91816392Y-93895542D01*
X91930235Y-94051137D01*
X92011068Y-94227942D01*
X92056634Y-94422538D01*
X92064676Y-94631508D01*
X92054734Y-94734569D01*
X92006948Y-94931441D01*
X91922359Y-95109113D01*
X91803445Y-95264169D01*
X91652686Y-95393194D01*
X91520751Y-95470559D01*
X91328571Y-95543519D01*
X91133593Y-95577762D01*
X90940610Y-95575143D01*
X90754416Y-95537519D01*
X90579805Y-95466747D01*
X90421572Y-95364683D01*
X90284510Y-95233185D01*
X90173413Y-95074108D01*
X90104162Y-94921917D01*
X90073081Y-94796631D01*
X90057636Y-94648161D01*
X89450243Y-94648161D01*
X89472141Y-94871427D01*
X89529513Y-95108626D01*
X89620764Y-95333231D01*
X89678098Y-95437101D01*
X89820745Y-95632403D01*
X89993650Y-95800497D01*
X90193083Y-95939409D01*
X90415312Y-96047166D01*
X90656607Y-96121796D01*
X90913237Y-96161324D01*
X91059000Y-96167387D01*
X91322697Y-96148525D01*
G36*
X98705613Y-96143024D02*
G01*
X98958237Y-96076712D01*
X99202573Y-95971469D01*
X99285076Y-95925574D01*
X99409257Y-95838500D01*
X99537643Y-95724957D01*
X99658744Y-95596805D01*
X99761074Y-95465905D01*
X99816468Y-95377000D01*
X99883781Y-95244849D01*
X99933074Y-95125232D01*
X99966821Y-95007141D01*
X99987494Y-94879571D01*
X99997567Y-94731515D01*
X99999571Y-94562083D01*
X99998238Y-94428765D01*
X99995082Y-94328028D01*
X99989032Y-94250127D01*
X99979017Y-94185316D01*
X99963968Y-94123849D01*
X99944558Y-94061276D01*
X99845308Y-93823151D01*
X99713918Y-93611415D01*
X99552744Y-93427912D01*
X99364138Y-93274489D01*
X99150454Y-93152991D01*
X98914048Y-93065264D01*
X98657272Y-93013154D01*
X98599731Y-93006790D01*
X98493459Y-92996915D01*
X98416354Y-92991043D01*
X98355436Y-92989189D01*
X98297726Y-92991370D01*
X98230244Y-92997601D01*
X98144745Y-93007347D01*
X97907543Y-93055577D01*
X97677110Y-93142206D01*
X97461111Y-93263310D01*
X97267206Y-93414963D01*
X97180925Y-93501028D01*
X97042709Y-93681291D01*
X96934622Y-93885900D01*
X96857159Y-94108965D01*
X96810818Y-94344597D01*
X96796097Y-94586908D01*
X96802449Y-94675684D01*
X97406761Y-94675684D01*
X97407492Y-94481632D01*
X97438375Y-94290809D01*
X97498006Y-94115511D01*
X97529963Y-94051829D01*
X97637515Y-93901199D01*
X97774987Y-93774539D01*
X97935632Y-93674660D01*
X98112704Y-93604369D01*
X98299458Y-93566478D01*
X98489148Y-93563796D01*
X98640328Y-93589366D01*
X98838195Y-93657795D01*
X99007082Y-93754016D01*
X99123924Y-93852015D01*
X99245164Y-93998514D01*
X99333623Y-94163840D01*
X99389650Y-94342043D01*
X99413597Y-94527175D01*
X99405815Y-94713288D01*
X99366655Y-94894431D01*
X99296467Y-95064657D01*
X99195602Y-95218016D01*
X99064411Y-95348560D01*
X99034296Y-95371604D01*
X98859353Y-95476196D01*
X98675814Y-95543975D01*
X98488387Y-95576447D01*
X98301780Y-95575120D01*
X98120701Y-95541499D01*
X97949858Y-95477091D01*
X97793958Y-95383402D01*
X97657709Y-95261939D01*
X97545818Y-95114209D01*
X97462994Y-94941717D01*
X97437586Y-94860671D01*
X97406761Y-94675684D01*
X96802449Y-94675684D01*
X96813492Y-94830009D01*
X96863499Y-95068011D01*
X96946617Y-95295025D01*
X97017902Y-95432655D01*
X97087996Y-95532978D01*
X97183441Y-95643134D01*
X97293000Y-95751664D01*
X97405436Y-95847109D01*
X97469605Y-95893327D01*
X97698771Y-96020512D01*
X97941281Y-96109151D01*
X98192809Y-96159167D01*
X98449028Y-96170484D01*
X98705613Y-96143024D01*
G37*
X98705613Y-96143024D02*
X98958237Y-96076712D01*
X99202573Y-95971469D01*
X99285076Y-95925574D01*
X99409257Y-95838500D01*
X99537643Y-95724957D01*
X99658744Y-95596805D01*
X99761074Y-95465905D01*
X99816468Y-95377000D01*
X99883781Y-95244849D01*
X99933074Y-95125232D01*
X99966821Y-95007141D01*
X99987494Y-94879571D01*
X99997567Y-94731515D01*
X99999571Y-94562083D01*
X99998238Y-94428765D01*
X99995082Y-94328028D01*
X99989032Y-94250127D01*
X99979017Y-94185316D01*
X99963968Y-94123849D01*
X99944558Y-94061276D01*
X99845308Y-93823151D01*
X99713918Y-93611415D01*
X99552744Y-93427912D01*
X99364138Y-93274489D01*
X99150454Y-93152991D01*
X98914048Y-93065264D01*
X98657272Y-93013154D01*
X98599731Y-93006790D01*
X98493459Y-92996915D01*
X98416354Y-92991043D01*
X98355436Y-92989189D01*
X98297726Y-92991370D01*
X98230244Y-92997601D01*
X98144745Y-93007347D01*
X97907543Y-93055577D01*
X97677110Y-93142206D01*
X97461111Y-93263310D01*
X97267206Y-93414963D01*
X97180925Y-93501028D01*
X97042709Y-93681291D01*
X96934622Y-93885900D01*
X96857159Y-94108965D01*
X96810818Y-94344597D01*
X96796097Y-94586908D01*
X96802449Y-94675684D01*
X97406761Y-94675684D01*
X97407492Y-94481632D01*
X97438375Y-94290809D01*
X97498006Y-94115511D01*
X97529963Y-94051829D01*
X97637515Y-93901199D01*
X97774987Y-93774539D01*
X97935632Y-93674660D01*
X98112704Y-93604369D01*
X98299458Y-93566478D01*
X98489148Y-93563796D01*
X98640328Y-93589366D01*
X98838195Y-93657795D01*
X99007082Y-93754016D01*
X99123924Y-93852015D01*
X99245164Y-93998514D01*
X99333623Y-94163840D01*
X99389650Y-94342043D01*
X99413597Y-94527175D01*
X99405815Y-94713288D01*
X99366655Y-94894431D01*
X99296467Y-95064657D01*
X99195602Y-95218016D01*
X99064411Y-95348560D01*
X99034296Y-95371604D01*
X98859353Y-95476196D01*
X98675814Y-95543975D01*
X98488387Y-95576447D01*
X98301780Y-95575120D01*
X98120701Y-95541499D01*
X97949858Y-95477091D01*
X97793958Y-95383402D01*
X97657709Y-95261939D01*
X97545818Y-95114209D01*
X97462994Y-94941717D01*
X97437586Y-94860671D01*
X97406761Y-94675684D01*
X96802449Y-94675684D01*
X96813492Y-94830009D01*
X96863499Y-95068011D01*
X96946617Y-95295025D01*
X97017902Y-95432655D01*
X97087996Y-95532978D01*
X97183441Y-95643134D01*
X97293000Y-95751664D01*
X97405436Y-95847109D01*
X97469605Y-95893327D01*
X97698771Y-96020512D01*
X97941281Y-96109151D01*
X98192809Y-96159167D01*
X98449028Y-96170484D01*
X98705613Y-96143024D01*
G36*
X79590897Y-96074962D02*
G01*
X79744366Y-96073768D01*
X79866868Y-96071478D01*
X79964082Y-96067818D01*
X80041689Y-96062513D01*
X80105372Y-96055288D01*
X80160809Y-96045868D01*
X80203205Y-96036529D01*
X80391659Y-95974828D01*
X80550038Y-95885738D01*
X80683014Y-95766053D01*
X80775990Y-95643425D01*
X80868685Y-95463054D01*
X80924352Y-95270236D01*
X80942690Y-95071701D01*
X80923398Y-94874179D01*
X80866174Y-94684398D01*
X80822998Y-94594063D01*
X80760310Y-94501799D01*
X80675160Y-94406761D01*
X80580300Y-94321376D01*
X80488484Y-94258071D01*
X80466533Y-94246690D01*
X80416359Y-94215518D01*
X80403651Y-94188636D01*
X80405218Y-94185149D01*
X80423170Y-94161210D01*
X80463475Y-94110553D01*
X80521417Y-94039006D01*
X80592282Y-93952399D01*
X80656780Y-93874167D01*
X80763400Y-93744694D01*
X80845773Y-93642600D01*
X80907007Y-93562953D01*
X80950208Y-93500822D01*
X80978481Y-93451275D01*
X80994935Y-93409382D01*
X81002674Y-93370209D01*
X81004805Y-93328827D01*
X81004833Y-93321616D01*
X80986558Y-93219283D01*
X80936955Y-93136343D01*
X80863859Y-93076110D01*
X80775103Y-93041900D01*
X80678522Y-93037028D01*
X80581949Y-93064809D01*
X80510400Y-93112386D01*
X80479532Y-93146146D01*
X80428758Y-93209476D01*
X80362092Y-93297023D01*
X80283549Y-93403431D01*
X80197144Y-93523343D01*
X80114492Y-93640509D01*
X79788778Y-94107000D01*
X79121000Y-94107000D01*
X79121000Y-93671058D01*
X79120358Y-93507704D01*
X79117427Y-93380998D01*
X79110701Y-93285259D01*
X79098671Y-93214811D01*
X79079832Y-93163973D01*
X79052675Y-93127067D01*
X79015694Y-93098413D01*
X78967381Y-93072334D01*
X78961321Y-93069384D01*
X78873875Y-93036273D01*
X78796230Y-93032110D01*
X78710444Y-93056844D01*
X78683195Y-93068635D01*
X78652666Y-93082099D01*
X78626430Y-93094800D01*
X78604163Y-93109855D01*
X78585539Y-93130382D01*
X78570236Y-93159497D01*
X78557928Y-93200318D01*
X78548291Y-93255962D01*
X78541000Y-93329546D01*
X78535731Y-93424188D01*
X78532160Y-93543004D01*
X78529962Y-93689112D01*
X78528813Y-93865629D01*
X78528388Y-94075672D01*
X78528362Y-94322358D01*
X78528412Y-94555741D01*
X78528463Y-94824793D01*
X78528649Y-95054776D01*
X78529070Y-95248955D01*
X78529827Y-95410594D01*
X78530860Y-95525167D01*
X79121000Y-95525167D01*
X79121000Y-94633992D01*
X79616503Y-94640371D01*
X80112007Y-94646750D01*
X80193295Y-94711477D01*
X80284020Y-94809257D01*
X80343613Y-94928135D01*
X80369772Y-95058491D01*
X80360192Y-95190706D01*
X80329827Y-95281750D01*
X80293101Y-95351640D01*
X80251219Y-95406982D01*
X80199026Y-95449411D01*
X80131369Y-95480563D01*
X80043096Y-95502074D01*
X79929051Y-95515578D01*
X79784083Y-95522712D01*
X79603037Y-95525111D01*
X79562839Y-95525167D01*
X79121000Y-95525167D01*
X78530860Y-95525167D01*
X78531021Y-95542959D01*
X78532752Y-95649313D01*
X78535120Y-95732922D01*
X78538226Y-95797049D01*
X78542172Y-95844960D01*
X78547057Y-95879919D01*
X78552982Y-95905191D01*
X78560048Y-95924040D01*
X78568355Y-95939731D01*
X78571209Y-95944482D01*
X78594244Y-95979186D01*
X78619682Y-96007165D01*
X78652087Y-96029140D01*
X78696025Y-96045830D01*
X78756059Y-96057955D01*
X78836754Y-96066235D01*
X78942674Y-96071391D01*
X79078384Y-96074142D01*
X79248448Y-96075208D01*
X79400778Y-96075335D01*
X79590897Y-96074962D01*
G37*
X79590897Y-96074962D02*
X79744366Y-96073768D01*
X79866868Y-96071478D01*
X79964082Y-96067818D01*
X80041689Y-96062513D01*
X80105372Y-96055288D01*
X80160809Y-96045868D01*
X80203205Y-96036529D01*
X80391659Y-95974828D01*
X80550038Y-95885738D01*
X80683014Y-95766053D01*
X80775990Y-95643425D01*
X80868685Y-95463054D01*
X80924352Y-95270236D01*
X80942690Y-95071701D01*
X80923398Y-94874179D01*
X80866174Y-94684398D01*
X80822998Y-94594063D01*
X80760310Y-94501799D01*
X80675160Y-94406761D01*
X80580300Y-94321376D01*
X80488484Y-94258071D01*
X80466533Y-94246690D01*
X80416359Y-94215518D01*
X80403651Y-94188636D01*
X80405218Y-94185149D01*
X80423170Y-94161210D01*
X80463475Y-94110553D01*
X80521417Y-94039006D01*
X80592282Y-93952399D01*
X80656780Y-93874167D01*
X80763400Y-93744694D01*
X80845773Y-93642600D01*
X80907007Y-93562953D01*
X80950208Y-93500822D01*
X80978481Y-93451275D01*
X80994935Y-93409382D01*
X81002674Y-93370209D01*
X81004805Y-93328827D01*
X81004833Y-93321616D01*
X80986558Y-93219283D01*
X80936955Y-93136343D01*
X80863859Y-93076110D01*
X80775103Y-93041900D01*
X80678522Y-93037028D01*
X80581949Y-93064809D01*
X80510400Y-93112386D01*
X80479532Y-93146146D01*
X80428758Y-93209476D01*
X80362092Y-93297023D01*
X80283549Y-93403431D01*
X80197144Y-93523343D01*
X80114492Y-93640509D01*
X79788778Y-94107000D01*
X79121000Y-94107000D01*
X79121000Y-93671058D01*
X79120358Y-93507704D01*
X79117427Y-93380998D01*
X79110701Y-93285259D01*
X79098671Y-93214811D01*
X79079832Y-93163973D01*
X79052675Y-93127067D01*
X79015694Y-93098413D01*
X78967381Y-93072334D01*
X78961321Y-93069384D01*
X78873875Y-93036273D01*
X78796230Y-93032110D01*
X78710444Y-93056844D01*
X78683195Y-93068635D01*
X78652666Y-93082099D01*
X78626430Y-93094800D01*
X78604163Y-93109855D01*
X78585539Y-93130382D01*
X78570236Y-93159497D01*
X78557928Y-93200318D01*
X78548291Y-93255962D01*
X78541000Y-93329546D01*
X78535731Y-93424188D01*
X78532160Y-93543004D01*
X78529962Y-93689112D01*
X78528813Y-93865629D01*
X78528388Y-94075672D01*
X78528362Y-94322358D01*
X78528412Y-94555741D01*
X78528463Y-94824793D01*
X78528649Y-95054776D01*
X78529070Y-95248955D01*
X78529827Y-95410594D01*
X78530860Y-95525167D01*
X79121000Y-95525167D01*
X79121000Y-94633992D01*
X79616503Y-94640371D01*
X80112007Y-94646750D01*
X80193295Y-94711477D01*
X80284020Y-94809257D01*
X80343613Y-94928135D01*
X80369772Y-95058491D01*
X80360192Y-95190706D01*
X80329827Y-95281750D01*
X80293101Y-95351640D01*
X80251219Y-95406982D01*
X80199026Y-95449411D01*
X80131369Y-95480563D01*
X80043096Y-95502074D01*
X79929051Y-95515578D01*
X79784083Y-95522712D01*
X79603037Y-95525111D01*
X79562839Y-95525167D01*
X79121000Y-95525167D01*
X78530860Y-95525167D01*
X78531021Y-95542959D01*
X78532752Y-95649313D01*
X78535120Y-95732922D01*
X78538226Y-95797049D01*
X78542172Y-95844960D01*
X78547057Y-95879919D01*
X78552982Y-95905191D01*
X78560048Y-95924040D01*
X78568355Y-95939731D01*
X78571209Y-95944482D01*
X78594244Y-95979186D01*
X78619682Y-96007165D01*
X78652087Y-96029140D01*
X78696025Y-96045830D01*
X78756059Y-96057955D01*
X78836754Y-96066235D01*
X78942674Y-96071391D01*
X79078384Y-96074142D01*
X79248448Y-96075208D01*
X79400778Y-96075335D01*
X79590897Y-96074962D01*
G36*
X86876422Y-96075187D02*
G01*
X87107951Y-96074418D01*
X87301901Y-96071720D01*
X87463013Y-96066168D01*
X87596028Y-96056838D01*
X87705688Y-96042805D01*
X87796735Y-96023146D01*
X87873911Y-95996936D01*
X87941957Y-95963250D01*
X88005614Y-95921165D01*
X88069625Y-95869756D01*
X88109277Y-95834857D01*
X88212278Y-95716674D01*
X88288659Y-95576113D01*
X88337714Y-95421070D01*
X88358742Y-95259439D01*
X88351040Y-95099115D01*
X88313903Y-94947992D01*
X88246629Y-94813964D01*
X88205028Y-94759836D01*
X88139761Y-94685501D01*
X88213174Y-94650493D01*
X88306293Y-94591399D01*
X88401739Y-94506448D01*
X88485983Y-94409035D01*
X88536769Y-94330100D01*
X88560071Y-94283136D01*
X88575887Y-94240028D01*
X88585656Y-94191021D01*
X88590816Y-94126361D01*
X88592806Y-94036295D01*
X88593083Y-93948250D01*
X88592549Y-93833635D01*
X88589890Y-93751099D01*
X88583521Y-93690392D01*
X88571855Y-93641264D01*
X88553309Y-93593463D01*
X88530883Y-93546083D01*
X88430412Y-93387702D01*
X88298569Y-93256283D01*
X88138174Y-93153830D01*
X87952050Y-93082347D01*
X87843137Y-93057561D01*
X87783644Y-93050741D01*
X87690485Y-93044801D01*
X87569730Y-93039769D01*
X87427444Y-93035677D01*
X87269697Y-93032552D01*
X87102554Y-93030425D01*
X86932084Y-93029325D01*
X86764354Y-93029281D01*
X86605433Y-93030324D01*
X86461386Y-93032481D01*
X86338283Y-93035783D01*
X86242191Y-93040260D01*
X86179176Y-93045940D01*
X86161442Y-93049395D01*
X86073501Y-93095069D01*
X86012395Y-93172253D01*
X85979100Y-93270433D01*
X85973397Y-93321100D01*
X85968773Y-93413054D01*
X85965227Y-93546457D01*
X85964486Y-93599000D01*
X86571667Y-93599000D01*
X87133263Y-93599000D01*
X87316258Y-93599537D01*
X87461459Y-93601287D01*
X87573393Y-93604461D01*
X87656585Y-93609272D01*
X87715565Y-93615931D01*
X87754857Y-93624648D01*
X87765473Y-93628504D01*
X87855223Y-93686833D01*
X87919025Y-93770346D01*
X87956349Y-93870374D01*
X87966664Y-93978249D01*
X87949442Y-94085300D01*
X87904151Y-94182860D01*
X87830261Y-94262258D01*
X87805283Y-94279492D01*
X87780198Y-94294285D01*
X87754592Y-94305885D01*
X87723110Y-94314750D01*
X87680398Y-94321339D01*
X87621101Y-94326111D01*
X87539865Y-94329526D01*
X87431336Y-94332041D01*
X87290159Y-94334116D01*
X87148458Y-94335786D01*
X86571667Y-94342322D01*
X86571667Y-93599000D01*
X85964486Y-93599000D01*
X85962757Y-93721473D01*
X85961360Y-93938262D01*
X85961036Y-94196987D01*
X85961780Y-94497812D01*
X85962313Y-94616975D01*
X85963623Y-94885625D01*
X85963632Y-94887397D01*
X86571667Y-94887397D01*
X87074375Y-94894074D01*
X87241636Y-94896792D01*
X87371550Y-94900196D01*
X87469103Y-94904632D01*
X87539281Y-94910447D01*
X87587069Y-94917988D01*
X87617452Y-94927603D01*
X87626468Y-94932500D01*
X87692127Y-94997963D01*
X87735310Y-95088142D01*
X87753536Y-95190439D01*
X87744321Y-95292257D01*
X87712623Y-95369723D01*
X87683757Y-95412830D01*
X87653150Y-95446472D01*
X87615313Y-95471910D01*
X87564756Y-95490408D01*
X87495988Y-95503227D01*
X87403521Y-95511628D01*
X87281863Y-95516875D01*
X87125524Y-95520228D01*
X87053208Y-95521306D01*
X86571667Y-95528028D01*
X86571667Y-94887397D01*
X85963632Y-94887397D01*
X85964918Y-95115235D01*
X85966528Y-95309100D01*
X85968783Y-95470512D01*
X85972015Y-95602765D01*
X85976553Y-95709151D01*
X85982728Y-95792963D01*
X85990871Y-95857496D01*
X86001312Y-95906041D01*
X86014381Y-95941892D01*
X86030410Y-95968341D01*
X86049729Y-95988683D01*
X86072667Y-96006210D01*
X86099556Y-96024215D01*
X86103838Y-96027085D01*
X86124275Y-96040251D01*
X86145389Y-96050782D01*
X86171871Y-96058969D01*
X86208408Y-96065104D01*
X86259691Y-96069479D01*
X86330409Y-96072386D01*
X86425252Y-96074118D01*
X86548910Y-96074965D01*
X86706070Y-96075221D01*
X86876422Y-96075187D01*
G37*
X86876422Y-96075187D02*
X87107951Y-96074418D01*
X87301901Y-96071720D01*
X87463013Y-96066168D01*
X87596028Y-96056838D01*
X87705688Y-96042805D01*
X87796735Y-96023146D01*
X87873911Y-95996936D01*
X87941957Y-95963250D01*
X88005614Y-95921165D01*
X88069625Y-95869756D01*
X88109277Y-95834857D01*
X88212278Y-95716674D01*
X88288659Y-95576113D01*
X88337714Y-95421070D01*
X88358742Y-95259439D01*
X88351040Y-95099115D01*
X88313903Y-94947992D01*
X88246629Y-94813964D01*
X88205028Y-94759836D01*
X88139761Y-94685501D01*
X88213174Y-94650493D01*
X88306293Y-94591399D01*
X88401739Y-94506448D01*
X88485983Y-94409035D01*
X88536769Y-94330100D01*
X88560071Y-94283136D01*
X88575887Y-94240028D01*
X88585656Y-94191021D01*
X88590816Y-94126361D01*
X88592806Y-94036295D01*
X88593083Y-93948250D01*
X88592549Y-93833635D01*
X88589890Y-93751099D01*
X88583521Y-93690392D01*
X88571855Y-93641264D01*
X88553309Y-93593463D01*
X88530883Y-93546083D01*
X88430412Y-93387702D01*
X88298569Y-93256283D01*
X88138174Y-93153830D01*
X87952050Y-93082347D01*
X87843137Y-93057561D01*
X87783644Y-93050741D01*
X87690485Y-93044801D01*
X87569730Y-93039769D01*
X87427444Y-93035677D01*
X87269697Y-93032552D01*
X87102554Y-93030425D01*
X86932084Y-93029325D01*
X86764354Y-93029281D01*
X86605433Y-93030324D01*
X86461386Y-93032481D01*
X86338283Y-93035783D01*
X86242191Y-93040260D01*
X86179176Y-93045940D01*
X86161442Y-93049395D01*
X86073501Y-93095069D01*
X86012395Y-93172253D01*
X85979100Y-93270433D01*
X85973397Y-93321100D01*
X85968773Y-93413054D01*
X85965227Y-93546457D01*
X85964486Y-93599000D01*
X86571667Y-93599000D01*
X87133263Y-93599000D01*
X87316258Y-93599537D01*
X87461459Y-93601287D01*
X87573393Y-93604461D01*
X87656585Y-93609272D01*
X87715565Y-93615931D01*
X87754857Y-93624648D01*
X87765473Y-93628504D01*
X87855223Y-93686833D01*
X87919025Y-93770346D01*
X87956349Y-93870374D01*
X87966664Y-93978249D01*
X87949442Y-94085300D01*
X87904151Y-94182860D01*
X87830261Y-94262258D01*
X87805283Y-94279492D01*
X87780198Y-94294285D01*
X87754592Y-94305885D01*
X87723110Y-94314750D01*
X87680398Y-94321339D01*
X87621101Y-94326111D01*
X87539865Y-94329526D01*
X87431336Y-94332041D01*
X87290159Y-94334116D01*
X87148458Y-94335786D01*
X86571667Y-94342322D01*
X86571667Y-93599000D01*
X85964486Y-93599000D01*
X85962757Y-93721473D01*
X85961360Y-93938262D01*
X85961036Y-94196987D01*
X85961780Y-94497812D01*
X85962313Y-94616975D01*
X85963623Y-94885625D01*
X85963632Y-94887397D01*
X86571667Y-94887397D01*
X87074375Y-94894074D01*
X87241636Y-94896792D01*
X87371550Y-94900196D01*
X87469103Y-94904632D01*
X87539281Y-94910447D01*
X87587069Y-94917988D01*
X87617452Y-94927603D01*
X87626468Y-94932500D01*
X87692127Y-94997963D01*
X87735310Y-95088142D01*
X87753536Y-95190439D01*
X87744321Y-95292257D01*
X87712623Y-95369723D01*
X87683757Y-95412830D01*
X87653150Y-95446472D01*
X87615313Y-95471910D01*
X87564756Y-95490408D01*
X87495988Y-95503227D01*
X87403521Y-95511628D01*
X87281863Y-95516875D01*
X87125524Y-95520228D01*
X87053208Y-95521306D01*
X86571667Y-95528028D01*
X86571667Y-94887397D01*
X85963632Y-94887397D01*
X85964918Y-95115235D01*
X85966528Y-95309100D01*
X85968783Y-95470512D01*
X85972015Y-95602765D01*
X85976553Y-95709151D01*
X85982728Y-95792963D01*
X85990871Y-95857496D01*
X86001312Y-95906041D01*
X86014381Y-95941892D01*
X86030410Y-95968341D01*
X86049729Y-95988683D01*
X86072667Y-96006210D01*
X86099556Y-96024215D01*
X86103838Y-96027085D01*
X86124275Y-96040251D01*
X86145389Y-96050782D01*
X86171871Y-96058969D01*
X86208408Y-96065104D01*
X86259691Y-96069479D01*
X86330409Y-96072386D01*
X86425252Y-96074118D01*
X86548910Y-96074965D01*
X86706070Y-96075221D01*
X86876422Y-96075187D01*
G36*
X94676764Y-96096465D02*
G01*
X94829966Y-96095681D01*
X94951393Y-96094041D01*
X95046322Y-96091275D01*
X95120031Y-96087112D01*
X95177799Y-96081280D01*
X95224902Y-96073509D01*
X95266621Y-96063526D01*
X95295395Y-96055093D01*
X95488693Y-95975398D01*
X95653769Y-95864299D01*
X95791145Y-95721310D01*
X95901344Y-95545947D01*
X95942962Y-95454498D01*
X95967019Y-95388909D01*
X95983763Y-95323019D01*
X95995010Y-95245447D01*
X96002575Y-95144815D01*
X96006615Y-95055526D01*
X96010164Y-94935181D01*
X96009452Y-94845200D01*
X96003503Y-94773740D01*
X95991338Y-94708958D01*
X95972355Y-94640235D01*
X95893211Y-94448108D01*
X95780688Y-94281812D01*
X95635559Y-94142161D01*
X95458594Y-94029967D01*
X95345250Y-93979189D01*
X95301516Y-93963126D01*
X95258578Y-93950756D01*
X95209905Y-93941467D01*
X95148971Y-93934646D01*
X95069246Y-93929679D01*
X94964201Y-93925953D01*
X94827308Y-93922854D01*
X94726125Y-93921023D01*
X94234000Y-93912539D01*
X94234000Y-93610762D01*
X94231063Y-93446252D01*
X94220921Y-93318426D01*
X94201575Y-93221955D01*
X94171028Y-93151511D01*
X94127282Y-93101764D01*
X94068339Y-93067387D01*
X94024415Y-93051791D01*
X93964111Y-93034898D01*
X93922772Y-93030568D01*
X93879732Y-93039414D01*
X93826709Y-93057627D01*
X93732171Y-93111881D01*
X93666661Y-93196897D01*
X93641905Y-93260333D01*
X93637338Y-93297379D01*
X93633304Y-93372092D01*
X93629804Y-93479809D01*
X93626837Y-93615870D01*
X93624405Y-93775610D01*
X93622506Y-93954368D01*
X93621140Y-94147482D01*
X93620308Y-94350287D01*
X93620009Y-94558124D01*
X93620243Y-94766328D01*
X93621010Y-94970237D01*
X93622310Y-95165189D01*
X93624142Y-95346521D01*
X93626508Y-95509572D01*
X93626830Y-95525167D01*
X94234000Y-95525167D01*
X94234000Y-94488000D01*
X94636846Y-94488000D01*
X94795009Y-94488954D01*
X94916143Y-94492038D01*
X95005519Y-94497588D01*
X95068402Y-94505936D01*
X95110062Y-94517417D01*
X95111818Y-94518136D01*
X95167827Y-94549635D01*
X95235367Y-94598692D01*
X95279310Y-94636178D01*
X95366618Y-94742954D01*
X95418788Y-94864620D01*
X95436960Y-94994245D01*
X95422273Y-95124902D01*
X95375869Y-95249660D01*
X95298886Y-95361591D01*
X95192465Y-95453767D01*
X95139718Y-95484688D01*
X95107982Y-95498878D01*
X95071311Y-95509350D01*
X95023048Y-95516654D01*
X94956538Y-95521335D01*
X94865121Y-95523943D01*
X94742142Y-95525023D01*
X94647593Y-95525167D01*
X94234000Y-95525167D01*
X93626830Y-95525167D01*
X93629406Y-95649677D01*
X93632836Y-95762176D01*
X93636799Y-95842405D01*
X93641294Y-95885702D01*
X93641965Y-95888551D01*
X93673271Y-95954119D01*
X93724151Y-96018507D01*
X93737834Y-96031426D01*
X93812140Y-96096667D01*
X94486507Y-96096667D01*
X94676764Y-96096465D01*
G37*
X94676764Y-96096465D02*
X94829966Y-96095681D01*
X94951393Y-96094041D01*
X95046322Y-96091275D01*
X95120031Y-96087112D01*
X95177799Y-96081280D01*
X95224902Y-96073509D01*
X95266621Y-96063526D01*
X95295395Y-96055093D01*
X95488693Y-95975398D01*
X95653769Y-95864299D01*
X95791145Y-95721310D01*
X95901344Y-95545947D01*
X95942962Y-95454498D01*
X95967019Y-95388909D01*
X95983763Y-95323019D01*
X95995010Y-95245447D01*
X96002575Y-95144815D01*
X96006615Y-95055526D01*
X96010164Y-94935181D01*
X96009452Y-94845200D01*
X96003503Y-94773740D01*
X95991338Y-94708958D01*
X95972355Y-94640235D01*
X95893211Y-94448108D01*
X95780688Y-94281812D01*
X95635559Y-94142161D01*
X95458594Y-94029967D01*
X95345250Y-93979189D01*
X95301516Y-93963126D01*
X95258578Y-93950756D01*
X95209905Y-93941467D01*
X95148971Y-93934646D01*
X95069246Y-93929679D01*
X94964201Y-93925953D01*
X94827308Y-93922854D01*
X94726125Y-93921023D01*
X94234000Y-93912539D01*
X94234000Y-93610762D01*
X94231063Y-93446252D01*
X94220921Y-93318426D01*
X94201575Y-93221955D01*
X94171028Y-93151511D01*
X94127282Y-93101764D01*
X94068339Y-93067387D01*
X94024415Y-93051791D01*
X93964111Y-93034898D01*
X93922772Y-93030568D01*
X93879732Y-93039414D01*
X93826709Y-93057627D01*
X93732171Y-93111881D01*
X93666661Y-93196897D01*
X93641905Y-93260333D01*
X93637338Y-93297379D01*
X93633304Y-93372092D01*
X93629804Y-93479809D01*
X93626837Y-93615870D01*
X93624405Y-93775610D01*
X93622506Y-93954368D01*
X93621140Y-94147482D01*
X93620308Y-94350287D01*
X93620009Y-94558124D01*
X93620243Y-94766328D01*
X93621010Y-94970237D01*
X93622310Y-95165189D01*
X93624142Y-95346521D01*
X93626508Y-95509572D01*
X93626830Y-95525167D01*
X94234000Y-95525167D01*
X94234000Y-94488000D01*
X94636846Y-94488000D01*
X94795009Y-94488954D01*
X94916143Y-94492038D01*
X95005519Y-94497588D01*
X95068402Y-94505936D01*
X95110062Y-94517417D01*
X95111818Y-94518136D01*
X95167827Y-94549635D01*
X95235367Y-94598692D01*
X95279310Y-94636178D01*
X95366618Y-94742954D01*
X95418788Y-94864620D01*
X95436960Y-94994245D01*
X95422273Y-95124902D01*
X95375869Y-95249660D01*
X95298886Y-95361591D01*
X95192465Y-95453767D01*
X95139718Y-95484688D01*
X95107982Y-95498878D01*
X95071311Y-95509350D01*
X95023048Y-95516654D01*
X94956538Y-95521335D01*
X94865121Y-95523943D01*
X94742142Y-95525023D01*
X94647593Y-95525167D01*
X94234000Y-95525167D01*
X93626830Y-95525167D01*
X93629406Y-95649677D01*
X93632836Y-95762176D01*
X93636799Y-95842405D01*
X93641294Y-95885702D01*
X93641965Y-95888551D01*
X93673271Y-95954119D01*
X93724151Y-96018507D01*
X93737834Y-96031426D01*
X93812140Y-96096667D01*
X94486507Y-96096667D01*
X94676764Y-96096465D01*
G36*
X101305929Y-96067720D02*
G01*
X101380775Y-96040896D01*
X101411394Y-96026312D01*
X101437369Y-96011682D01*
X101459100Y-95993604D01*
X101476990Y-95968677D01*
X101491439Y-95933499D01*
X101502848Y-95884668D01*
X101511619Y-95818781D01*
X101518152Y-95732438D01*
X101522850Y-95622237D01*
X101526112Y-95484775D01*
X101528341Y-95316651D01*
X101529937Y-95114463D01*
X101531302Y-94874809D01*
X101531918Y-94759267D01*
X101537920Y-93644117D01*
X102177502Y-93637434D01*
X102359073Y-93635440D01*
X102503320Y-93633423D01*
X102615247Y-93630998D01*
X102699863Y-93627779D01*
X102762172Y-93623382D01*
X102807183Y-93617422D01*
X102839901Y-93609515D01*
X102865333Y-93599274D01*
X102888486Y-93586317D01*
X102895030Y-93582282D01*
X102970152Y-93513297D01*
X103017330Y-93423315D01*
X103031664Y-93324633D01*
X103021781Y-93264050D01*
X102971927Y-93167866D01*
X102890659Y-93093216D01*
X102795917Y-93050757D01*
X102753123Y-93045019D01*
X102674351Y-93040181D01*
X102565741Y-93036242D01*
X102433436Y-93033203D01*
X102283580Y-93031063D01*
X102122314Y-93029824D01*
X101955780Y-93029484D01*
X101790121Y-93030044D01*
X101631480Y-93031505D01*
X101485999Y-93033866D01*
X101359820Y-93037127D01*
X101259086Y-93041289D01*
X101189939Y-93046351D01*
X101162547Y-93050726D01*
X101088045Y-93091242D01*
X101023581Y-93159500D01*
X100981754Y-93240988D01*
X100975430Y-93266248D01*
X100973303Y-93299283D01*
X100971496Y-93370744D01*
X100970028Y-93476725D01*
X100968915Y-93613320D01*
X100968177Y-93776622D01*
X100967829Y-93962726D01*
X100967891Y-94167724D01*
X100968380Y-94387712D01*
X100969296Y-94615000D01*
X100970576Y-94886788D01*
X100971770Y-95119450D01*
X100973210Y-95316193D01*
X100975234Y-95480224D01*
X100978175Y-95614747D01*
X100982369Y-95722971D01*
X100988149Y-95808099D01*
X100995852Y-95873340D01*
X101005812Y-95921898D01*
X101018364Y-95956980D01*
X101033843Y-95981792D01*
X101052583Y-95999540D01*
X101074921Y-96013430D01*
X101101190Y-96026669D01*
X101117615Y-96034927D01*
X101214532Y-96070008D01*
X101305929Y-96067720D01*
G37*
X101305929Y-96067720D02*
X101380775Y-96040896D01*
X101411394Y-96026312D01*
X101437369Y-96011682D01*
X101459100Y-95993604D01*
X101476990Y-95968677D01*
X101491439Y-95933499D01*
X101502848Y-95884668D01*
X101511619Y-95818781D01*
X101518152Y-95732438D01*
X101522850Y-95622237D01*
X101526112Y-95484775D01*
X101528341Y-95316651D01*
X101529937Y-95114463D01*
X101531302Y-94874809D01*
X101531918Y-94759267D01*
X101537920Y-93644117D01*
X102177502Y-93637434D01*
X102359073Y-93635440D01*
X102503320Y-93633423D01*
X102615247Y-93630998D01*
X102699863Y-93627779D01*
X102762172Y-93623382D01*
X102807183Y-93617422D01*
X102839901Y-93609515D01*
X102865333Y-93599274D01*
X102888486Y-93586317D01*
X102895030Y-93582282D01*
X102970152Y-93513297D01*
X103017330Y-93423315D01*
X103031664Y-93324633D01*
X103021781Y-93264050D01*
X102971927Y-93167866D01*
X102890659Y-93093216D01*
X102795917Y-93050757D01*
X102753123Y-93045019D01*
X102674351Y-93040181D01*
X102565741Y-93036242D01*
X102433436Y-93033203D01*
X102283580Y-93031063D01*
X102122314Y-93029824D01*
X101955780Y-93029484D01*
X101790121Y-93030044D01*
X101631480Y-93031505D01*
X101485999Y-93033866D01*
X101359820Y-93037127D01*
X101259086Y-93041289D01*
X101189939Y-93046351D01*
X101162547Y-93050726D01*
X101088045Y-93091242D01*
X101023581Y-93159500D01*
X100981754Y-93240988D01*
X100975430Y-93266248D01*
X100973303Y-93299283D01*
X100971496Y-93370744D01*
X100970028Y-93476725D01*
X100968915Y-93613320D01*
X100968177Y-93776622D01*
X100967829Y-93962726D01*
X100967891Y-94167724D01*
X100968380Y-94387712D01*
X100969296Y-94615000D01*
X100970576Y-94886788D01*
X100971770Y-95119450D01*
X100973210Y-95316193D01*
X100975234Y-95480224D01*
X100978175Y-95614747D01*
X100982369Y-95722971D01*
X100988149Y-95808099D01*
X100995852Y-95873340D01*
X101005812Y-95921898D01*
X101018364Y-95956980D01*
X101033843Y-95981792D01*
X101052583Y-95999540D01*
X101074921Y-96013430D01*
X101101190Y-96026669D01*
X101117615Y-96034927D01*
X101214532Y-96070008D01*
X101305929Y-96067720D01*
G36*
X103687484Y-96056572D02*
G01*
X103713775Y-96045246D01*
X103745473Y-96016466D01*
X103798773Y-95951925D01*
X103873348Y-95852070D01*
X103968869Y-95717349D01*
X104085006Y-95548210D01*
X104160215Y-95436704D01*
X104253968Y-95297868D01*
X104340827Y-95171001D01*
X104417874Y-95060226D01*
X104482190Y-94969671D01*
X104530859Y-94903462D01*
X104560961Y-94865724D01*
X104569199Y-94858417D01*
X104587228Y-94875147D01*
X104624459Y-94921621D01*
X104676756Y-94992261D01*
X104739981Y-95081494D01*
X104804721Y-95175917D01*
X104934104Y-95367394D01*
X105042076Y-95526873D01*
X105130914Y-95657442D01*
X105202895Y-95762188D01*
X105260294Y-95844199D01*
X105305390Y-95906562D01*
X105340457Y-95952367D01*
X105367773Y-95984699D01*
X105389615Y-96006647D01*
X105408259Y-96021299D01*
X105425981Y-96031742D01*
X105441265Y-96039256D01*
X105548842Y-96070982D01*
X105653818Y-96067337D01*
X105748448Y-96032151D01*
X105824987Y-95969258D01*
X105875692Y-95882488D01*
X105890943Y-95816765D01*
X105893995Y-95789993D01*
X105894832Y-95766436D01*
X105891051Y-95741894D01*
X105880246Y-95712168D01*
X105860014Y-95673059D01*
X105827948Y-95620367D01*
X105781645Y-95549894D01*
X105718700Y-95457439D01*
X105636707Y-95338803D01*
X105533263Y-95189788D01*
X105525507Y-95178616D01*
X105453066Y-95073917D01*
X105372702Y-94957228D01*
X105297526Y-94847601D01*
X105268780Y-94805500D01*
X105202095Y-94708237D01*
X105123143Y-94593966D01*
X105044083Y-94480257D01*
X105002918Y-94421409D01*
X104859667Y-94217235D01*
X104859667Y-93741369D01*
X104858895Y-93565094D01*
X104855885Y-93425858D01*
X104849594Y-93318383D01*
X104838979Y-93237392D01*
X104822995Y-93177607D01*
X104800601Y-93133752D01*
X104770753Y-93100547D01*
X104732408Y-93072717D01*
X104726820Y-93069264D01*
X104640029Y-93037319D01*
X104537326Y-93030317D01*
X104437262Y-93048620D01*
X104402478Y-93062935D01*
X104360229Y-93086327D01*
X104326941Y-93112922D01*
X104301417Y-93147878D01*
X104282456Y-93196356D01*
X104268857Y-93263514D01*
X104259423Y-93354512D01*
X104252952Y-93474511D01*
X104248245Y-93628669D01*
X104245833Y-93736583D01*
X104235250Y-94244583D01*
X103740879Y-94984161D01*
X103619870Y-95165382D01*
X103520447Y-95314969D01*
X103440560Y-95436407D01*
X103378155Y-95533180D01*
X103331183Y-95608772D01*
X103297590Y-95666668D01*
X103275324Y-95710353D01*
X103262335Y-95743310D01*
X103256570Y-95769026D01*
X103255977Y-95790983D01*
X103257431Y-95805175D01*
X103290336Y-95914353D01*
X103357526Y-95999219D01*
X103405608Y-96034098D01*
X103491994Y-96066254D01*
X103592782Y-96073993D01*
X103687484Y-96056572D01*
G37*
X103687484Y-96056572D02*
X103713775Y-96045246D01*
X103745473Y-96016466D01*
X103798773Y-95951925D01*
X103873348Y-95852070D01*
X103968869Y-95717349D01*
X104085006Y-95548210D01*
X104160215Y-95436704D01*
X104253968Y-95297868D01*
X104340827Y-95171001D01*
X104417874Y-95060226D01*
X104482190Y-94969671D01*
X104530859Y-94903462D01*
X104560961Y-94865724D01*
X104569199Y-94858417D01*
X104587228Y-94875147D01*
X104624459Y-94921621D01*
X104676756Y-94992261D01*
X104739981Y-95081494D01*
X104804721Y-95175917D01*
X104934104Y-95367394D01*
X105042076Y-95526873D01*
X105130914Y-95657442D01*
X105202895Y-95762188D01*
X105260294Y-95844199D01*
X105305390Y-95906562D01*
X105340457Y-95952367D01*
X105367773Y-95984699D01*
X105389615Y-96006647D01*
X105408259Y-96021299D01*
X105425981Y-96031742D01*
X105441265Y-96039256D01*
X105548842Y-96070982D01*
X105653818Y-96067337D01*
X105748448Y-96032151D01*
X105824987Y-95969258D01*
X105875692Y-95882488D01*
X105890943Y-95816765D01*
X105893995Y-95789993D01*
X105894832Y-95766436D01*
X105891051Y-95741894D01*
X105880246Y-95712168D01*
X105860014Y-95673059D01*
X105827948Y-95620367D01*
X105781645Y-95549894D01*
X105718700Y-95457439D01*
X105636707Y-95338803D01*
X105533263Y-95189788D01*
X105525507Y-95178616D01*
X105453066Y-95073917D01*
X105372702Y-94957228D01*
X105297526Y-94847601D01*
X105268780Y-94805500D01*
X105202095Y-94708237D01*
X105123143Y-94593966D01*
X105044083Y-94480257D01*
X105002918Y-94421409D01*
X104859667Y-94217235D01*
X104859667Y-93741369D01*
X104858895Y-93565094D01*
X104855885Y-93425858D01*
X104849594Y-93318383D01*
X104838979Y-93237392D01*
X104822995Y-93177607D01*
X104800601Y-93133752D01*
X104770753Y-93100547D01*
X104732408Y-93072717D01*
X104726820Y-93069264D01*
X104640029Y-93037319D01*
X104537326Y-93030317D01*
X104437262Y-93048620D01*
X104402478Y-93062935D01*
X104360229Y-93086327D01*
X104326941Y-93112922D01*
X104301417Y-93147878D01*
X104282456Y-93196356D01*
X104268857Y-93263514D01*
X104259423Y-93354512D01*
X104252952Y-93474511D01*
X104248245Y-93628669D01*
X104245833Y-93736583D01*
X104235250Y-94244583D01*
X103740879Y-94984161D01*
X103619870Y-95165382D01*
X103520447Y-95314969D01*
X103440560Y-95436407D01*
X103378155Y-95533180D01*
X103331183Y-95608772D01*
X103297590Y-95666668D01*
X103275324Y-95710353D01*
X103262335Y-95743310D01*
X103256570Y-95769026D01*
X103255977Y-95790983D01*
X103257431Y-95805175D01*
X103290336Y-95914353D01*
X103357526Y-95999219D01*
X103405608Y-96034098D01*
X103491994Y-96066254D01*
X103592782Y-96073993D01*
X103687484Y-96056572D01*
G36*
X108083104Y-98678742D02*
G01*
X108136248Y-98613372D01*
X108155656Y-98535742D01*
X108142652Y-98457316D01*
X108098561Y-98389560D01*
X108045390Y-98352402D01*
X108038427Y-98350331D01*
X108025866Y-98348346D01*
X108006826Y-98346447D01*
X107980426Y-98344631D01*
X107945785Y-98342897D01*
X107902023Y-98341242D01*
X107848259Y-98339665D01*
X107783611Y-98338164D01*
X107707199Y-98336737D01*
X107618143Y-98335382D01*
X107515560Y-98334097D01*
X107398570Y-98332881D01*
X107266293Y-98331732D01*
X107117848Y-98330648D01*
X106952353Y-98329627D01*
X106768927Y-98328667D01*
X106566691Y-98327766D01*
X106344762Y-98326923D01*
X106102261Y-98326136D01*
X105838306Y-98325402D01*
X105552016Y-98324721D01*
X105242510Y-98324089D01*
X104908909Y-98323506D01*
X104550330Y-98322970D01*
X104165892Y-98322478D01*
X103754716Y-98322029D01*
X103315920Y-98321621D01*
X102848623Y-98321252D01*
X102351945Y-98320921D01*
X101825004Y-98320624D01*
X101266919Y-98320362D01*
X100676810Y-98320131D01*
X100053797Y-98319931D01*
X99396997Y-98319758D01*
X98705530Y-98319612D01*
X97978515Y-98319490D01*
X97215072Y-98319391D01*
X96414319Y-98319312D01*
X95575376Y-98319253D01*
X94697362Y-98319210D01*
X93779395Y-98319183D01*
X92820596Y-98319169D01*
X92121437Y-98319167D01*
X76267522Y-98319167D01*
X76215232Y-98409125D01*
X76174345Y-98482267D01*
X76128785Y-98567780D01*
X76107031Y-98610208D01*
X76051120Y-98721333D01*
X108028957Y-98721333D01*
X108083104Y-98678742D01*
G37*
X108083104Y-98678742D02*
X108136248Y-98613372D01*
X108155656Y-98535742D01*
X108142652Y-98457316D01*
X108098561Y-98389560D01*
X108045390Y-98352402D01*
X108038427Y-98350331D01*
X108025866Y-98348346D01*
X108006826Y-98346447D01*
X107980426Y-98344631D01*
X107945785Y-98342897D01*
X107902023Y-98341242D01*
X107848259Y-98339665D01*
X107783611Y-98338164D01*
X107707199Y-98336737D01*
X107618143Y-98335382D01*
X107515560Y-98334097D01*
X107398570Y-98332881D01*
X107266293Y-98331732D01*
X107117848Y-98330648D01*
X106952353Y-98329627D01*
X106768927Y-98328667D01*
X106566691Y-98327766D01*
X106344762Y-98326923D01*
X106102261Y-98326136D01*
X105838306Y-98325402D01*
X105552016Y-98324721D01*
X105242510Y-98324089D01*
X104908909Y-98323506D01*
X104550330Y-98322970D01*
X104165892Y-98322478D01*
X103754716Y-98322029D01*
X103315920Y-98321621D01*
X102848623Y-98321252D01*
X102351945Y-98320921D01*
X101825004Y-98320624D01*
X101266919Y-98320362D01*
X100676810Y-98320131D01*
X100053797Y-98319931D01*
X99396997Y-98319758D01*
X98705530Y-98319612D01*
X97978515Y-98319490D01*
X97215072Y-98319391D01*
X96414319Y-98319312D01*
X95575376Y-98319253D01*
X94697362Y-98319210D01*
X93779395Y-98319183D01*
X92820596Y-98319169D01*
X92121437Y-98319167D01*
X76267522Y-98319167D01*
X76215232Y-98409125D01*
X76174345Y-98482267D01*
X76128785Y-98567780D01*
X76107031Y-98610208D01*
X76051120Y-98721333D01*
X108028957Y-98721333D01*
X108083104Y-98678742D01*
G36*
X68683029Y-101484951D02*
G01*
X68809595Y-101480781D01*
X68931040Y-101474316D01*
X69016794Y-101467722D01*
X69073489Y-101459934D01*
X69107756Y-101449887D01*
X69126228Y-101436517D01*
X69131137Y-101429165D01*
X69141270Y-101400518D01*
X69161031Y-101335995D01*
X69188991Y-101240584D01*
X69223717Y-101119274D01*
X69263781Y-100977050D01*
X69307750Y-100818902D01*
X69344207Y-100686349D01*
X69389935Y-100519353D01*
X69432378Y-100364453D01*
X69470176Y-100226609D01*
X69501966Y-100110781D01*
X69526387Y-100021931D01*
X69542078Y-99965020D01*
X69547414Y-99945878D01*
X69568979Y-99923998D01*
X69623643Y-99900856D01*
X69715157Y-99875020D01*
X69761943Y-99863835D01*
X69873390Y-99836291D01*
X69991210Y-99804230D01*
X70094858Y-99773320D01*
X70122208Y-99764420D01*
X70278000Y-99712178D01*
X70778375Y-100209229D01*
X70901773Y-100331491D01*
X71018882Y-100446923D01*
X71125472Y-100551403D01*
X71217315Y-100640807D01*
X71290183Y-100711014D01*
X71339848Y-100757901D01*
X71356708Y-100773089D01*
X71434666Y-100839897D01*
X71604012Y-100754752D01*
X71725586Y-100691360D01*
X71853444Y-100620735D01*
X71982226Y-100546257D01*
X72106569Y-100471307D01*
X72221114Y-100399264D01*
X72320498Y-100333510D01*
X72399361Y-100277424D01*
X72452342Y-100234388D01*
X72474080Y-100207781D01*
X72474334Y-100205964D01*
X72469220Y-100175565D01*
X72455000Y-100113009D01*
X72433756Y-100026966D01*
X72407572Y-99926107D01*
X72403184Y-99909630D01*
X72371988Y-99792378D01*
X72336171Y-99656948D01*
X72297516Y-99510165D01*
X72257806Y-99358850D01*
X72218823Y-99209828D01*
X72182350Y-99069921D01*
X72150171Y-98945952D01*
X72124068Y-98844744D01*
X72105825Y-98773120D01*
X72098939Y-98745299D01*
X72093776Y-98718757D01*
X72094994Y-98694534D01*
X72106467Y-98667405D01*
X72132069Y-98632142D01*
X72175674Y-98583519D01*
X72241156Y-98516307D01*
X72332390Y-98425281D01*
X72346541Y-98411230D01*
X72611240Y-98148445D01*
X72781078Y-98189346D01*
X72846983Y-98205543D01*
X72946571Y-98230445D01*
X73072530Y-98262202D01*
X73217547Y-98298965D01*
X73374309Y-98338884D01*
X73535503Y-98380112D01*
X73537175Y-98380540D01*
X73688823Y-98419218D01*
X73827499Y-98454209D01*
X73947803Y-98484179D01*
X74044335Y-98507798D01*
X74111694Y-98523731D01*
X74144482Y-98530649D01*
X74146343Y-98530833D01*
X74169830Y-98513017D01*
X74209721Y-98463225D01*
X74262698Y-98386942D01*
X74325448Y-98289652D01*
X74394654Y-98176841D01*
X74467000Y-98053992D01*
X74539172Y-97926591D01*
X74607854Y-97800123D01*
X74669729Y-97680071D01*
X74706755Y-97603774D01*
X74769261Y-97470804D01*
X74205140Y-96905444D01*
X73641020Y-96340083D01*
X73701191Y-96134208D01*
X73732355Y-96023426D01*
X73763505Y-95905772D01*
X73789416Y-95801193D01*
X73796690Y-95769537D01*
X73832019Y-95610742D01*
X73920634Y-95587382D01*
X74015439Y-95561979D01*
X74133053Y-95529817D01*
X74268016Y-95492451D01*
X74414870Y-95451431D01*
X74568157Y-95408313D01*
X74722416Y-95364648D01*
X74872190Y-95321990D01*
X75012019Y-95281892D01*
X75136445Y-95245907D01*
X75240009Y-95215588D01*
X75317251Y-95192488D01*
X75362714Y-95178160D01*
X75372637Y-95174286D01*
X75377514Y-95149112D01*
X75381763Y-95088519D01*
X75385331Y-94999418D01*
X75388169Y-94888718D01*
X75390225Y-94763332D01*
X75391449Y-94630169D01*
X75391791Y-94496140D01*
X75391198Y-94368155D01*
X75389622Y-94253126D01*
X75387010Y-94157961D01*
X75383312Y-94089573D01*
X75380775Y-94065727D01*
X75363639Y-93950370D01*
X75152111Y-93893250D01*
X74982198Y-93847191D01*
X74807937Y-93799635D01*
X74634156Y-93751927D01*
X74465685Y-93705416D01*
X74307351Y-93661447D01*
X74163982Y-93621368D01*
X74040408Y-93586524D01*
X73941455Y-93558264D01*
X73871954Y-93537933D01*
X73836731Y-93526878D01*
X73833370Y-93525426D01*
X73825273Y-93502798D01*
X73809783Y-93448124D01*
X73789405Y-93370521D01*
X73774088Y-93309529D01*
X73746018Y-93200092D01*
X73715179Y-93086566D01*
X73686766Y-92987876D01*
X73677370Y-92957197D01*
X73631985Y-92812811D01*
X73853548Y-92586781D01*
X74040747Y-92395697D01*
X74200295Y-92232564D01*
X74334273Y-92095201D01*
X74444765Y-91981426D01*
X74533854Y-91889057D01*
X74603622Y-91815914D01*
X74656153Y-91759814D01*
X74693528Y-91718576D01*
X74717831Y-91690019D01*
X74731145Y-91671962D01*
X74735396Y-91663153D01*
X74728552Y-91629304D01*
X74702611Y-91565412D01*
X74660807Y-91477396D01*
X74606376Y-91371177D01*
X74542551Y-91252675D01*
X74472568Y-91127812D01*
X74399660Y-91002506D01*
X74327062Y-90882679D01*
X74258008Y-90774251D01*
X74214518Y-90709750D01*
X74180979Y-90666236D01*
X74146935Y-90638530D01*
X74104663Y-90626031D01*
X74046436Y-90628140D01*
X73964532Y-90644255D01*
X73851226Y-90673774D01*
X73829333Y-90679793D01*
X73743736Y-90703189D01*
X73626426Y-90734929D01*
X73486620Y-90772538D01*
X73333531Y-90813538D01*
X73176375Y-90855455D01*
X73099083Y-90876001D01*
X72591083Y-91010875D01*
X72475321Y-90883799D01*
X72387141Y-90795100D01*
X72313265Y-90740552D01*
X72247822Y-90717092D01*
X72184942Y-90721653D01*
X72172309Y-90725605D01*
X72114310Y-90766049D01*
X72075827Y-90831601D01*
X72065295Y-90906511D01*
X72067356Y-90921610D01*
X72084702Y-90956521D01*
X72124109Y-91011837D01*
X72179532Y-91080886D01*
X72244921Y-91156994D01*
X72314230Y-91233490D01*
X72381410Y-91303702D01*
X72440414Y-91360958D01*
X72485194Y-91398585D01*
X72509703Y-91409912D01*
X72509899Y-91409843D01*
X72539701Y-91400796D01*
X72602238Y-91383359D01*
X72689267Y-91359782D01*
X72792547Y-91332314D01*
X72829109Y-91322696D01*
X72943907Y-91292540D01*
X73087203Y-91254833D01*
X73246570Y-91212851D01*
X73409579Y-91169867D01*
X73561306Y-91129814D01*
X73691076Y-91095913D01*
X73806291Y-91066537D01*
X73900950Y-91043157D01*
X73969055Y-91027243D01*
X74004606Y-91020264D01*
X74008350Y-91020278D01*
X74026568Y-91047374D01*
X74059363Y-91101474D01*
X74102421Y-91174949D01*
X74151425Y-91260166D01*
X74202060Y-91349496D01*
X74250010Y-91435306D01*
X74290959Y-91509967D01*
X74320591Y-91565846D01*
X74334590Y-91595313D01*
X74335048Y-91597936D01*
X74318338Y-91615097D01*
X74276711Y-91657728D01*
X74214850Y-91721033D01*
X74137442Y-91800220D01*
X74049169Y-91890496D01*
X74040813Y-91899040D01*
X73926690Y-92015774D01*
X73799197Y-92146253D01*
X73670398Y-92278124D01*
X73552359Y-92399035D01*
X73495251Y-92457562D01*
X73235627Y-92723707D01*
X73321318Y-92980002D01*
X73360394Y-93106154D01*
X73401591Y-93254558D01*
X73439731Y-93405765D01*
X73467066Y-93527683D01*
X73493187Y-93649248D01*
X73514520Y-93734962D01*
X73532995Y-93790772D01*
X73550544Y-93822624D01*
X73567103Y-93835704D01*
X73596420Y-93845016D01*
X73661605Y-93863938D01*
X73757651Y-93891073D01*
X73879548Y-93925025D01*
X74022289Y-93964397D01*
X74180865Y-94007792D01*
X74314392Y-94044095D01*
X74480759Y-94089369D01*
X74634209Y-94131456D01*
X74769935Y-94169013D01*
X74883128Y-94200696D01*
X74968982Y-94225159D01*
X75022689Y-94241061D01*
X75039351Y-94246757D01*
X75045437Y-94270626D01*
X75050615Y-94329281D01*
X75054491Y-94415179D01*
X75056669Y-94520776D01*
X75057000Y-94583819D01*
X75057000Y-94909973D01*
X74882375Y-94961893D01*
X74797022Y-94986823D01*
X74683902Y-95019230D01*
X74556078Y-95055403D01*
X74426610Y-95091629D01*
X74390250Y-95101718D01*
X74183588Y-95159107D01*
X74000350Y-95210336D01*
X73843443Y-95254575D01*
X73715775Y-95290995D01*
X73620253Y-95318767D01*
X73559786Y-95337062D01*
X73537304Y-95345026D01*
X73530925Y-95366733D01*
X73518023Y-95421893D01*
X73500402Y-95502456D01*
X73479866Y-95600369D01*
X73477357Y-95612585D01*
X73448391Y-95739551D01*
X73410126Y-95887239D01*
X73367723Y-96036584D01*
X73329546Y-96158886D01*
X73235403Y-96443356D01*
X73675243Y-96888655D01*
X73786835Y-97001664D01*
X73888718Y-97104899D01*
X73977108Y-97194525D01*
X74048224Y-97266703D01*
X74098285Y-97317597D01*
X74123507Y-97343370D01*
X74125667Y-97345632D01*
X74144572Y-97365801D01*
X74184270Y-97407785D01*
X74236378Y-97462723D01*
X74239426Y-97465932D01*
X74342602Y-97574554D01*
X74273846Y-97698152D01*
X74186317Y-97853023D01*
X74115762Y-97972121D01*
X74060640Y-98057742D01*
X74019411Y-98112185D01*
X73990536Y-98137746D01*
X73977669Y-98139963D01*
X73949303Y-98132367D01*
X73885635Y-98115789D01*
X73792383Y-98091702D01*
X73675266Y-98061581D01*
X73540004Y-98026899D01*
X73395417Y-97989922D01*
X73237464Y-97949551D01*
X73082503Y-97909894D01*
X72938470Y-97872987D01*
X72813301Y-97840865D01*
X72714936Y-97815564D01*
X72661341Y-97801721D01*
X72477600Y-97754088D01*
X72317192Y-97940723D01*
X72239401Y-98026397D01*
X72141017Y-98127643D01*
X72033789Y-98232716D01*
X71929469Y-98329873D01*
X71913552Y-98344149D01*
X71806826Y-98442039D01*
X71731963Y-98516975D01*
X71689694Y-98568176D01*
X71680181Y-98593512D01*
X71687166Y-98618876D01*
X71702333Y-98675967D01*
X71726007Y-98766031D01*
X71758514Y-98890315D01*
X71800179Y-99050063D01*
X71851327Y-99246524D01*
X71912283Y-99480942D01*
X71983373Y-99754563D01*
X72017099Y-99884434D01*
X72040514Y-99977072D01*
X72053220Y-100037493D01*
X72055847Y-100074264D01*
X72049023Y-100095954D01*
X72033726Y-100110872D01*
X71998442Y-100133921D01*
X71936412Y-100171365D01*
X71856796Y-100217983D01*
X71768757Y-100268550D01*
X71681457Y-100317845D01*
X71604058Y-100360643D01*
X71545722Y-100391723D01*
X71517210Y-100405315D01*
X71499698Y-100401734D01*
X71467769Y-100381390D01*
X71419126Y-100342202D01*
X71351467Y-100282096D01*
X71262494Y-100198991D01*
X71149908Y-100090811D01*
X71011409Y-99955478D01*
X70922935Y-99868302D01*
X70365367Y-99317666D01*
X70123559Y-99399517D01*
X69949472Y-99453594D01*
X69750962Y-99507255D01*
X69545744Y-99556027D01*
X69351533Y-99595439D01*
X69337295Y-99598001D01*
X69286017Y-99611541D01*
X69257529Y-99637333D01*
X69238298Y-99689024D01*
X69235036Y-99701141D01*
X69221547Y-99751021D01*
X69199026Y-99832835D01*
X69169917Y-99937766D01*
X69136664Y-100056998D01*
X69110593Y-100150083D01*
X69069279Y-100298526D01*
X69024198Y-100462505D01*
X68979876Y-100625442D01*
X68940836Y-100770759D01*
X68927923Y-100819444D01*
X68846224Y-101128972D01*
X68664498Y-101139333D01*
X68553463Y-101143109D01*
X68433044Y-101143257D01*
X68328276Y-101139768D01*
X68323063Y-101139445D01*
X68163353Y-101129195D01*
X68135650Y-101020639D01*
X68121033Y-100965431D01*
X68097310Y-100878224D01*
X68066887Y-100767756D01*
X68032171Y-100642766D01*
X67997957Y-100520500D01*
X67957195Y-100375240D01*
X67914397Y-100222488D01*
X67873202Y-100075247D01*
X67837250Y-99946521D01*
X67816902Y-99873498D01*
X67745836Y-99618079D01*
X67444673Y-99557924D01*
X67326393Y-99534648D01*
X67242072Y-99519501D01*
X67184228Y-99511963D01*
X67145379Y-99511512D01*
X67118044Y-99517625D01*
X67094741Y-99529781D01*
X67089508Y-99533152D01*
X67038001Y-99588768D01*
X67016380Y-99659773D01*
X67024882Y-99732864D01*
X67063750Y-99794737D01*
X67084490Y-99811227D01*
X67128387Y-99830668D01*
X67199943Y-99852893D01*
X67285077Y-99873630D01*
X67301220Y-99876968D01*
X67468966Y-99910613D01*
X67519625Y-100093848D01*
X67547335Y-100193676D01*
X67581465Y-100316047D01*
X67616932Y-100442763D01*
X67638764Y-100520500D01*
X67670736Y-100634382D01*
X67709516Y-100772874D01*
X67750580Y-100919798D01*
X67789402Y-101058975D01*
X67795653Y-101081417D01*
X67826832Y-101193324D01*
X67854488Y-101292465D01*
X67876404Y-101370903D01*
X67890363Y-101420700D01*
X67893778Y-101432767D01*
X67904193Y-101446714D01*
X67930419Y-101457353D01*
X67978629Y-101465637D01*
X68054998Y-101472519D01*
X68165702Y-101478952D01*
X68205732Y-101480899D01*
X68351729Y-101485398D01*
X68518073Y-101486747D01*
X68683029Y-101484951D01*
G37*
X68683029Y-101484951D02*
X68809595Y-101480781D01*
X68931040Y-101474316D01*
X69016794Y-101467722D01*
X69073489Y-101459934D01*
X69107756Y-101449887D01*
X69126228Y-101436517D01*
X69131137Y-101429165D01*
X69141270Y-101400518D01*
X69161031Y-101335995D01*
X69188991Y-101240584D01*
X69223717Y-101119274D01*
X69263781Y-100977050D01*
X69307750Y-100818902D01*
X69344207Y-100686349D01*
X69389935Y-100519353D01*
X69432378Y-100364453D01*
X69470176Y-100226609D01*
X69501966Y-100110781D01*
X69526387Y-100021931D01*
X69542078Y-99965020D01*
X69547414Y-99945878D01*
X69568979Y-99923998D01*
X69623643Y-99900856D01*
X69715157Y-99875020D01*
X69761943Y-99863835D01*
X69873390Y-99836291D01*
X69991210Y-99804230D01*
X70094858Y-99773320D01*
X70122208Y-99764420D01*
X70278000Y-99712178D01*
X70778375Y-100209229D01*
X70901773Y-100331491D01*
X71018882Y-100446923D01*
X71125472Y-100551403D01*
X71217315Y-100640807D01*
X71290183Y-100711014D01*
X71339848Y-100757901D01*
X71356708Y-100773089D01*
X71434666Y-100839897D01*
X71604012Y-100754752D01*
X71725586Y-100691360D01*
X71853444Y-100620735D01*
X71982226Y-100546257D01*
X72106569Y-100471307D01*
X72221114Y-100399264D01*
X72320498Y-100333510D01*
X72399361Y-100277424D01*
X72452342Y-100234388D01*
X72474080Y-100207781D01*
X72474334Y-100205964D01*
X72469220Y-100175565D01*
X72455000Y-100113009D01*
X72433756Y-100026966D01*
X72407572Y-99926107D01*
X72403184Y-99909630D01*
X72371988Y-99792378D01*
X72336171Y-99656948D01*
X72297516Y-99510165D01*
X72257806Y-99358850D01*
X72218823Y-99209828D01*
X72182350Y-99069921D01*
X72150171Y-98945952D01*
X72124068Y-98844744D01*
X72105825Y-98773120D01*
X72098939Y-98745299D01*
X72093776Y-98718757D01*
X72094994Y-98694534D01*
X72106467Y-98667405D01*
X72132069Y-98632142D01*
X72175674Y-98583519D01*
X72241156Y-98516307D01*
X72332390Y-98425281D01*
X72346541Y-98411230D01*
X72611240Y-98148445D01*
X72781078Y-98189346D01*
X72846983Y-98205543D01*
X72946571Y-98230445D01*
X73072530Y-98262202D01*
X73217547Y-98298965D01*
X73374309Y-98338884D01*
X73535503Y-98380112D01*
X73537175Y-98380540D01*
X73688823Y-98419218D01*
X73827499Y-98454209D01*
X73947803Y-98484179D01*
X74044335Y-98507798D01*
X74111694Y-98523731D01*
X74144482Y-98530649D01*
X74146343Y-98530833D01*
X74169830Y-98513017D01*
X74209721Y-98463225D01*
X74262698Y-98386942D01*
X74325448Y-98289652D01*
X74394654Y-98176841D01*
X74467000Y-98053992D01*
X74539172Y-97926591D01*
X74607854Y-97800123D01*
X74669729Y-97680071D01*
X74706755Y-97603774D01*
X74769261Y-97470804D01*
X74205140Y-96905444D01*
X73641020Y-96340083D01*
X73701191Y-96134208D01*
X73732355Y-96023426D01*
X73763505Y-95905772D01*
X73789416Y-95801193D01*
X73796690Y-95769537D01*
X73832019Y-95610742D01*
X73920634Y-95587382D01*
X74015439Y-95561979D01*
X74133053Y-95529817D01*
X74268016Y-95492451D01*
X74414870Y-95451431D01*
X74568157Y-95408313D01*
X74722416Y-95364648D01*
X74872190Y-95321990D01*
X75012019Y-95281892D01*
X75136445Y-95245907D01*
X75240009Y-95215588D01*
X75317251Y-95192488D01*
X75362714Y-95178160D01*
X75372637Y-95174286D01*
X75377514Y-95149112D01*
X75381763Y-95088519D01*
X75385331Y-94999418D01*
X75388169Y-94888718D01*
X75390225Y-94763332D01*
X75391449Y-94630169D01*
X75391791Y-94496140D01*
X75391198Y-94368155D01*
X75389622Y-94253126D01*
X75387010Y-94157961D01*
X75383312Y-94089573D01*
X75380775Y-94065727D01*
X75363639Y-93950370D01*
X75152111Y-93893250D01*
X74982198Y-93847191D01*
X74807937Y-93799635D01*
X74634156Y-93751927D01*
X74465685Y-93705416D01*
X74307351Y-93661447D01*
X74163982Y-93621368D01*
X74040408Y-93586524D01*
X73941455Y-93558264D01*
X73871954Y-93537933D01*
X73836731Y-93526878D01*
X73833370Y-93525426D01*
X73825273Y-93502798D01*
X73809783Y-93448124D01*
X73789405Y-93370521D01*
X73774088Y-93309529D01*
X73746018Y-93200092D01*
X73715179Y-93086566D01*
X73686766Y-92987876D01*
X73677370Y-92957197D01*
X73631985Y-92812811D01*
X73853548Y-92586781D01*
X74040747Y-92395697D01*
X74200295Y-92232564D01*
X74334273Y-92095201D01*
X74444765Y-91981426D01*
X74533854Y-91889057D01*
X74603622Y-91815914D01*
X74656153Y-91759814D01*
X74693528Y-91718576D01*
X74717831Y-91690019D01*
X74731145Y-91671962D01*
X74735396Y-91663153D01*
X74728552Y-91629304D01*
X74702611Y-91565412D01*
X74660807Y-91477396D01*
X74606376Y-91371177D01*
X74542551Y-91252675D01*
X74472568Y-91127812D01*
X74399660Y-91002506D01*
X74327062Y-90882679D01*
X74258008Y-90774251D01*
X74214518Y-90709750D01*
X74180979Y-90666236D01*
X74146935Y-90638530D01*
X74104663Y-90626031D01*
X74046436Y-90628140D01*
X73964532Y-90644255D01*
X73851226Y-90673774D01*
X73829333Y-90679793D01*
X73743736Y-90703189D01*
X73626426Y-90734929D01*
X73486620Y-90772538D01*
X73333531Y-90813538D01*
X73176375Y-90855455D01*
X73099083Y-90876001D01*
X72591083Y-91010875D01*
X72475321Y-90883799D01*
X72387141Y-90795100D01*
X72313265Y-90740552D01*
X72247822Y-90717092D01*
X72184942Y-90721653D01*
X72172309Y-90725605D01*
X72114310Y-90766049D01*
X72075827Y-90831601D01*
X72065295Y-90906511D01*
X72067356Y-90921610D01*
X72084702Y-90956521D01*
X72124109Y-91011837D01*
X72179532Y-91080886D01*
X72244921Y-91156994D01*
X72314230Y-91233490D01*
X72381410Y-91303702D01*
X72440414Y-91360958D01*
X72485194Y-91398585D01*
X72509703Y-91409912D01*
X72509899Y-91409843D01*
X72539701Y-91400796D01*
X72602238Y-91383359D01*
X72689267Y-91359782D01*
X72792547Y-91332314D01*
X72829109Y-91322696D01*
X72943907Y-91292540D01*
X73087203Y-91254833D01*
X73246570Y-91212851D01*
X73409579Y-91169867D01*
X73561306Y-91129814D01*
X73691076Y-91095913D01*
X73806291Y-91066537D01*
X73900950Y-91043157D01*
X73969055Y-91027243D01*
X74004606Y-91020264D01*
X74008350Y-91020278D01*
X74026568Y-91047374D01*
X74059363Y-91101474D01*
X74102421Y-91174949D01*
X74151425Y-91260166D01*
X74202060Y-91349496D01*
X74250010Y-91435306D01*
X74290959Y-91509967D01*
X74320591Y-91565846D01*
X74334590Y-91595313D01*
X74335048Y-91597936D01*
X74318338Y-91615097D01*
X74276711Y-91657728D01*
X74214850Y-91721033D01*
X74137442Y-91800220D01*
X74049169Y-91890496D01*
X74040813Y-91899040D01*
X73926690Y-92015774D01*
X73799197Y-92146253D01*
X73670398Y-92278124D01*
X73552359Y-92399035D01*
X73495251Y-92457562D01*
X73235627Y-92723707D01*
X73321318Y-92980002D01*
X73360394Y-93106154D01*
X73401591Y-93254558D01*
X73439731Y-93405765D01*
X73467066Y-93527683D01*
X73493187Y-93649248D01*
X73514520Y-93734962D01*
X73532995Y-93790772D01*
X73550544Y-93822624D01*
X73567103Y-93835704D01*
X73596420Y-93845016D01*
X73661605Y-93863938D01*
X73757651Y-93891073D01*
X73879548Y-93925025D01*
X74022289Y-93964397D01*
X74180865Y-94007792D01*
X74314392Y-94044095D01*
X74480759Y-94089369D01*
X74634209Y-94131456D01*
X74769935Y-94169013D01*
X74883128Y-94200696D01*
X74968982Y-94225159D01*
X75022689Y-94241061D01*
X75039351Y-94246757D01*
X75045437Y-94270626D01*
X75050615Y-94329281D01*
X75054491Y-94415179D01*
X75056669Y-94520776D01*
X75057000Y-94583819D01*
X75057000Y-94909973D01*
X74882375Y-94961893D01*
X74797022Y-94986823D01*
X74683902Y-95019230D01*
X74556078Y-95055403D01*
X74426610Y-95091629D01*
X74390250Y-95101718D01*
X74183588Y-95159107D01*
X74000350Y-95210336D01*
X73843443Y-95254575D01*
X73715775Y-95290995D01*
X73620253Y-95318767D01*
X73559786Y-95337062D01*
X73537304Y-95345026D01*
X73530925Y-95366733D01*
X73518023Y-95421893D01*
X73500402Y-95502456D01*
X73479866Y-95600369D01*
X73477357Y-95612585D01*
X73448391Y-95739551D01*
X73410126Y-95887239D01*
X73367723Y-96036584D01*
X73329546Y-96158886D01*
X73235403Y-96443356D01*
X73675243Y-96888655D01*
X73786835Y-97001664D01*
X73888718Y-97104899D01*
X73977108Y-97194525D01*
X74048224Y-97266703D01*
X74098285Y-97317597D01*
X74123507Y-97343370D01*
X74125667Y-97345632D01*
X74144572Y-97365801D01*
X74184270Y-97407785D01*
X74236378Y-97462723D01*
X74239426Y-97465932D01*
X74342602Y-97574554D01*
X74273846Y-97698152D01*
X74186317Y-97853023D01*
X74115762Y-97972121D01*
X74060640Y-98057742D01*
X74019411Y-98112185D01*
X73990536Y-98137746D01*
X73977669Y-98139963D01*
X73949303Y-98132367D01*
X73885635Y-98115789D01*
X73792383Y-98091702D01*
X73675266Y-98061581D01*
X73540004Y-98026899D01*
X73395417Y-97989922D01*
X73237464Y-97949551D01*
X73082503Y-97909894D01*
X72938470Y-97872987D01*
X72813301Y-97840865D01*
X72714936Y-97815564D01*
X72661341Y-97801721D01*
X72477600Y-97754088D01*
X72317192Y-97940723D01*
X72239401Y-98026397D01*
X72141017Y-98127643D01*
X72033789Y-98232716D01*
X71929469Y-98329873D01*
X71913552Y-98344149D01*
X71806826Y-98442039D01*
X71731963Y-98516975D01*
X71689694Y-98568176D01*
X71680181Y-98593512D01*
X71687166Y-98618876D01*
X71702333Y-98675967D01*
X71726007Y-98766031D01*
X71758514Y-98890315D01*
X71800179Y-99050063D01*
X71851327Y-99246524D01*
X71912283Y-99480942D01*
X71983373Y-99754563D01*
X72017099Y-99884434D01*
X72040514Y-99977072D01*
X72053220Y-100037493D01*
X72055847Y-100074264D01*
X72049023Y-100095954D01*
X72033726Y-100110872D01*
X71998442Y-100133921D01*
X71936412Y-100171365D01*
X71856796Y-100217983D01*
X71768757Y-100268550D01*
X71681457Y-100317845D01*
X71604058Y-100360643D01*
X71545722Y-100391723D01*
X71517210Y-100405315D01*
X71499698Y-100401734D01*
X71467769Y-100381390D01*
X71419126Y-100342202D01*
X71351467Y-100282096D01*
X71262494Y-100198991D01*
X71149908Y-100090811D01*
X71011409Y-99955478D01*
X70922935Y-99868302D01*
X70365367Y-99317666D01*
X70123559Y-99399517D01*
X69949472Y-99453594D01*
X69750962Y-99507255D01*
X69545744Y-99556027D01*
X69351533Y-99595439D01*
X69337295Y-99598001D01*
X69286017Y-99611541D01*
X69257529Y-99637333D01*
X69238298Y-99689024D01*
X69235036Y-99701141D01*
X69221547Y-99751021D01*
X69199026Y-99832835D01*
X69169917Y-99937766D01*
X69136664Y-100056998D01*
X69110593Y-100150083D01*
X69069279Y-100298526D01*
X69024198Y-100462505D01*
X68979876Y-100625442D01*
X68940836Y-100770759D01*
X68927923Y-100819444D01*
X68846224Y-101128972D01*
X68664498Y-101139333D01*
X68553463Y-101143109D01*
X68433044Y-101143257D01*
X68328276Y-101139768D01*
X68323063Y-101139445D01*
X68163353Y-101129195D01*
X68135650Y-101020639D01*
X68121033Y-100965431D01*
X68097310Y-100878224D01*
X68066887Y-100767756D01*
X68032171Y-100642766D01*
X67997957Y-100520500D01*
X67957195Y-100375240D01*
X67914397Y-100222488D01*
X67873202Y-100075247D01*
X67837250Y-99946521D01*
X67816902Y-99873498D01*
X67745836Y-99618079D01*
X67444673Y-99557924D01*
X67326393Y-99534648D01*
X67242072Y-99519501D01*
X67184228Y-99511963D01*
X67145379Y-99511512D01*
X67118044Y-99517625D01*
X67094741Y-99529781D01*
X67089508Y-99533152D01*
X67038001Y-99588768D01*
X67016380Y-99659773D01*
X67024882Y-99732864D01*
X67063750Y-99794737D01*
X67084490Y-99811227D01*
X67128387Y-99830668D01*
X67199943Y-99852893D01*
X67285077Y-99873630D01*
X67301220Y-99876968D01*
X67468966Y-99910613D01*
X67519625Y-100093848D01*
X67547335Y-100193676D01*
X67581465Y-100316047D01*
X67616932Y-100442763D01*
X67638764Y-100520500D01*
X67670736Y-100634382D01*
X67709516Y-100772874D01*
X67750580Y-100919798D01*
X67789402Y-101058975D01*
X67795653Y-101081417D01*
X67826832Y-101193324D01*
X67854488Y-101292465D01*
X67876404Y-101370903D01*
X67890363Y-101420700D01*
X67893778Y-101432767D01*
X67904193Y-101446714D01*
X67930419Y-101457353D01*
X67978629Y-101465637D01*
X68054998Y-101472519D01*
X68165702Y-101478952D01*
X68205732Y-101480899D01*
X68351729Y-101485398D01*
X68518073Y-101486747D01*
X68683029Y-101484951D01*
G36*
X63478833Y-93196833D02*
G01*
X63224833Y-93196833D01*
X63224833Y-91648024D01*
X63339342Y-91538721D01*
X63423174Y-91445465D01*
X63473410Y-91352087D01*
X63496265Y-91244069D01*
X63499417Y-91164833D01*
X63478906Y-91040132D01*
X63422604Y-90922466D01*
X63336990Y-90821174D01*
X63228543Y-90745594D01*
X63199055Y-90731990D01*
X63095654Y-90705935D01*
X62979455Y-90702784D01*
X62871601Y-90722505D01*
X62844770Y-90732555D01*
X62714548Y-90806976D01*
X62621041Y-90902083D01*
X62563186Y-91019456D01*
X62539920Y-91160680D01*
X62539356Y-91186000D01*
X62813045Y-91186000D01*
X62819610Y-91120085D01*
X62846049Y-91071340D01*
X62881690Y-91035667D01*
X62958656Y-90986402D01*
X63037646Y-90978052D01*
X63119423Y-91006303D01*
X63185610Y-91059860D01*
X63219509Y-91128688D01*
X63223731Y-91204092D01*
X63200886Y-91277379D01*
X63153585Y-91339856D01*
X63084437Y-91382827D01*
X63001921Y-91397667D01*
X62954084Y-91383920D01*
X62897793Y-91349624D01*
X62881690Y-91336333D01*
X62835374Y-91286439D01*
X62815998Y-91234847D01*
X62813045Y-91186000D01*
X62539356Y-91186000D01*
X62539327Y-91187288D01*
X62542894Y-91276687D01*
X62557710Y-91344507D01*
X62588697Y-91411023D01*
X62597229Y-91425887D01*
X62648431Y-91496061D01*
X62711050Y-91559367D01*
X62739170Y-91580870D01*
X62822667Y-91636126D01*
X62822667Y-93489404D01*
X62887791Y-93544202D01*
X62917136Y-93567091D01*
X62946595Y-93582524D01*
X62984940Y-93591965D01*
X63040943Y-93596881D01*
X63123377Y-93598735D01*
X63215874Y-93599000D01*
X63478833Y-93599000D01*
X63478833Y-93196833D01*
G37*
X63478833Y-93196833D02*
X63224833Y-93196833D01*
X63224833Y-91648024D01*
X63339342Y-91538721D01*
X63423174Y-91445465D01*
X63473410Y-91352087D01*
X63496265Y-91244069D01*
X63499417Y-91164833D01*
X63478906Y-91040132D01*
X63422604Y-90922466D01*
X63336990Y-90821174D01*
X63228543Y-90745594D01*
X63199055Y-90731990D01*
X63095654Y-90705935D01*
X62979455Y-90702784D01*
X62871601Y-90722505D01*
X62844770Y-90732555D01*
X62714548Y-90806976D01*
X62621041Y-90902083D01*
X62563186Y-91019456D01*
X62539920Y-91160680D01*
X62539356Y-91186000D01*
X62813045Y-91186000D01*
X62819610Y-91120085D01*
X62846049Y-91071340D01*
X62881690Y-91035667D01*
X62958656Y-90986402D01*
X63037646Y-90978052D01*
X63119423Y-91006303D01*
X63185610Y-91059860D01*
X63219509Y-91128688D01*
X63223731Y-91204092D01*
X63200886Y-91277379D01*
X63153585Y-91339856D01*
X63084437Y-91382827D01*
X63001921Y-91397667D01*
X62954084Y-91383920D01*
X62897793Y-91349624D01*
X62881690Y-91336333D01*
X62835374Y-91286439D01*
X62815998Y-91234847D01*
X62813045Y-91186000D01*
X62539356Y-91186000D01*
X62539327Y-91187288D01*
X62542894Y-91276687D01*
X62557710Y-91344507D01*
X62588697Y-91411023D01*
X62597229Y-91425887D01*
X62648431Y-91496061D01*
X62711050Y-91559367D01*
X62739170Y-91580870D01*
X62822667Y-91636126D01*
X62822667Y-93489404D01*
X62887791Y-93544202D01*
X62917136Y-93567091D01*
X62946595Y-93582524D01*
X62984940Y-93591965D01*
X63040943Y-93596881D01*
X63123377Y-93598735D01*
X63215874Y-93599000D01*
X63478833Y-93599000D01*
X63478833Y-93196833D01*
G36*
X62658965Y-94357097D02*
G01*
X62784154Y-94356004D01*
X63468250Y-94350417D01*
X63468250Y-93948250D01*
X62891458Y-93942618D01*
X62314667Y-93936986D01*
X62314667Y-93790586D01*
X62316203Y-93711760D01*
X62322532Y-93665306D01*
X62336233Y-93641318D01*
X62356246Y-93630989D01*
X62392420Y-93608420D01*
X62442503Y-93563887D01*
X62481326Y-93522930D01*
X62557345Y-93409098D01*
X62596111Y-93288824D01*
X62601008Y-93167539D01*
X62575418Y-93050671D01*
X62522726Y-92943651D01*
X62446314Y-92851905D01*
X62349564Y-92780865D01*
X62235861Y-92735959D01*
X62108587Y-92722616D01*
X61993368Y-92739850D01*
X61868488Y-92793828D01*
X61765283Y-92879766D01*
X61689185Y-92990531D01*
X61645626Y-93118989D01*
X61637333Y-93207417D01*
X61923083Y-93207417D01*
X61928038Y-93138841D01*
X61947906Y-93092987D01*
X61982472Y-93057417D01*
X62062635Y-93014501D01*
X62153627Y-93010577D01*
X62217400Y-93030433D01*
X62268350Y-93072191D01*
X62307843Y-93136660D01*
X62326925Y-93206029D01*
X62324588Y-93243646D01*
X62284905Y-93325431D01*
X62220772Y-93380910D01*
X62142148Y-93406768D01*
X62058995Y-93399694D01*
X61982472Y-93357416D01*
X61943858Y-93315949D01*
X61926588Y-93268003D01*
X61923083Y-93207417D01*
X61637333Y-93207417D01*
X61654368Y-93326400D01*
X61700830Y-93442674D01*
X61769751Y-93542195D01*
X61830120Y-93596109D01*
X61910893Y-93651917D01*
X61911697Y-93920796D01*
X61911853Y-94029880D01*
X61914145Y-94119384D01*
X61922380Y-94191206D01*
X61940364Y-94247245D01*
X61971903Y-94289401D01*
X62020804Y-94319570D01*
X62090874Y-94339654D01*
X62185918Y-94351549D01*
X62309744Y-94357156D01*
X62466158Y-94358372D01*
X62658965Y-94357097D01*
G37*
X62658965Y-94357097D02*
X62784154Y-94356004D01*
X63468250Y-94350417D01*
X63468250Y-93948250D01*
X62891458Y-93942618D01*
X62314667Y-93936986D01*
X62314667Y-93790586D01*
X62316203Y-93711760D01*
X62322532Y-93665306D01*
X62336233Y-93641318D01*
X62356246Y-93630989D01*
X62392420Y-93608420D01*
X62442503Y-93563887D01*
X62481326Y-93522930D01*
X62557345Y-93409098D01*
X62596111Y-93288824D01*
X62601008Y-93167539D01*
X62575418Y-93050671D01*
X62522726Y-92943651D01*
X62446314Y-92851905D01*
X62349564Y-92780865D01*
X62235861Y-92735959D01*
X62108587Y-92722616D01*
X61993368Y-92739850D01*
X61868488Y-92793828D01*
X61765283Y-92879766D01*
X61689185Y-92990531D01*
X61645626Y-93118989D01*
X61637333Y-93207417D01*
X61923083Y-93207417D01*
X61928038Y-93138841D01*
X61947906Y-93092987D01*
X61982472Y-93057417D01*
X62062635Y-93014501D01*
X62153627Y-93010577D01*
X62217400Y-93030433D01*
X62268350Y-93072191D01*
X62307843Y-93136660D01*
X62326925Y-93206029D01*
X62324588Y-93243646D01*
X62284905Y-93325431D01*
X62220772Y-93380910D01*
X62142148Y-93406768D01*
X62058995Y-93399694D01*
X61982472Y-93357416D01*
X61943858Y-93315949D01*
X61926588Y-93268003D01*
X61923083Y-93207417D01*
X61637333Y-93207417D01*
X61654368Y-93326400D01*
X61700830Y-93442674D01*
X61769751Y-93542195D01*
X61830120Y-93596109D01*
X61910893Y-93651917D01*
X61911697Y-93920796D01*
X61911853Y-94029880D01*
X61914145Y-94119384D01*
X61922380Y-94191206D01*
X61940364Y-94247245D01*
X61971903Y-94289401D01*
X62020804Y-94319570D01*
X62090874Y-94339654D01*
X62185918Y-94351549D01*
X62309744Y-94357156D01*
X62466158Y-94358372D01*
X62658965Y-94357097D01*
G36*
X62260576Y-96321450D02*
G01*
X62374834Y-96269911D01*
X62473025Y-96188628D01*
X62548386Y-96079300D01*
X62581902Y-95994080D01*
X62603100Y-95853039D01*
X62584027Y-95718936D01*
X62526576Y-95597360D01*
X62432636Y-95493898D01*
X62405627Y-95472932D01*
X62358770Y-95437323D01*
X62332242Y-95407078D01*
X62320113Y-95368530D01*
X62316456Y-95308011D01*
X62315960Y-95266215D01*
X62314667Y-95123681D01*
X62891458Y-95118049D01*
X63468250Y-95112417D01*
X63468250Y-94710250D01*
X62780333Y-94705634D01*
X62578136Y-94704676D01*
X62414308Y-94704871D01*
X62284895Y-94706343D01*
X62185945Y-94709215D01*
X62113506Y-94713610D01*
X62063626Y-94719652D01*
X62032351Y-94727463D01*
X62028403Y-94729062D01*
X61984883Y-94754258D01*
X61953490Y-94790223D01*
X61932393Y-94843488D01*
X61919759Y-94920584D01*
X61913758Y-95028042D01*
X61912500Y-95142284D01*
X61912500Y-95413576D01*
X61828534Y-95471765D01*
X61735454Y-95560247D01*
X61673238Y-95670079D01*
X61642458Y-95793040D01*
X61643243Y-95874994D01*
X61912500Y-95874994D01*
X61925689Y-95804410D01*
X61958893Y-95733814D01*
X62002564Y-95682195D01*
X62013041Y-95675029D01*
X62086061Y-95654211D01*
X62168370Y-95662592D01*
X62239309Y-95697280D01*
X62302948Y-95767746D01*
X62325428Y-95847332D01*
X62313682Y-95919733D01*
X62270106Y-95997568D01*
X62201005Y-96042019D01*
X62117829Y-96054333D01*
X62041325Y-96037548D01*
X61973970Y-95993909D01*
X61927299Y-95933494D01*
X61912500Y-95874994D01*
X61643243Y-95874994D01*
X61643684Y-95920907D01*
X61677489Y-96045459D01*
X61744445Y-96158473D01*
X61778162Y-96196147D01*
X61889046Y-96280592D01*
X62010918Y-96328491D01*
X62137017Y-96341543D01*
X62260576Y-96321450D01*
G37*
X62260576Y-96321450D02*
X62374834Y-96269911D01*
X62473025Y-96188628D01*
X62548386Y-96079300D01*
X62581902Y-95994080D01*
X62603100Y-95853039D01*
X62584027Y-95718936D01*
X62526576Y-95597360D01*
X62432636Y-95493898D01*
X62405627Y-95472932D01*
X62358770Y-95437323D01*
X62332242Y-95407078D01*
X62320113Y-95368530D01*
X62316456Y-95308011D01*
X62315960Y-95266215D01*
X62314667Y-95123681D01*
X62891458Y-95118049D01*
X63468250Y-95112417D01*
X63468250Y-94710250D01*
X62780333Y-94705634D01*
X62578136Y-94704676D01*
X62414308Y-94704871D01*
X62284895Y-94706343D01*
X62185945Y-94709215D01*
X62113506Y-94713610D01*
X62063626Y-94719652D01*
X62032351Y-94727463D01*
X62028403Y-94729062D01*
X61984883Y-94754258D01*
X61953490Y-94790223D01*
X61932393Y-94843488D01*
X61919759Y-94920584D01*
X61913758Y-95028042D01*
X61912500Y-95142284D01*
X61912500Y-95413576D01*
X61828534Y-95471765D01*
X61735454Y-95560247D01*
X61673238Y-95670079D01*
X61642458Y-95793040D01*
X61643243Y-95874994D01*
X61912500Y-95874994D01*
X61925689Y-95804410D01*
X61958893Y-95733814D01*
X62002564Y-95682195D01*
X62013041Y-95675029D01*
X62086061Y-95654211D01*
X62168370Y-95662592D01*
X62239309Y-95697280D01*
X62302948Y-95767746D01*
X62325428Y-95847332D01*
X62313682Y-95919733D01*
X62270106Y-95997568D01*
X62201005Y-96042019D01*
X62117829Y-96054333D01*
X62041325Y-96037548D01*
X61973970Y-95993909D01*
X61927299Y-95933494D01*
X61912500Y-95874994D01*
X61643243Y-95874994D01*
X61643684Y-95920907D01*
X61677489Y-96045459D01*
X61744445Y-96158473D01*
X61778162Y-96196147D01*
X61889046Y-96280592D01*
X62010918Y-96328491D01*
X62137017Y-96341543D01*
X62260576Y-96321450D01*
G36*
X63137920Y-98305865D02*
G01*
X63261969Y-98259483D01*
X63371100Y-98180162D01*
X63401930Y-98147391D01*
X63475094Y-98031681D01*
X63512687Y-97903296D01*
X63515679Y-97770459D01*
X63485039Y-97641393D01*
X63421738Y-97524322D01*
X63326746Y-97427467D01*
X63316085Y-97419599D01*
X63227420Y-97356083D01*
X63226127Y-96609958D01*
X63224833Y-95863833D01*
X63478833Y-95863833D01*
X63478833Y-95461667D01*
X63215874Y-95461667D01*
X63105505Y-95462114D01*
X63028695Y-95464430D01*
X62976670Y-95470083D01*
X62940660Y-95480536D01*
X62911890Y-95497255D01*
X62887791Y-95516465D01*
X62822667Y-95571263D01*
X62821863Y-96463673D01*
X62821060Y-97356083D01*
X62738016Y-97413507D01*
X62635496Y-97504723D01*
X62568980Y-97614042D01*
X62535282Y-97747194D01*
X62531619Y-97784792D01*
X62531733Y-97821750D01*
X62801500Y-97821750D01*
X62820881Y-97739753D01*
X62871887Y-97668243D01*
X62943808Y-97617927D01*
X63023750Y-97599500D01*
X63085829Y-97608379D01*
X63140693Y-97640787D01*
X63174033Y-97671467D01*
X63222920Y-97730016D01*
X63243555Y-97785919D01*
X63246000Y-97821750D01*
X63226618Y-97903747D01*
X63175613Y-97975258D01*
X63103692Y-98025573D01*
X63023750Y-98044000D01*
X62941753Y-98024619D01*
X62870242Y-97973613D01*
X62819927Y-97901692D01*
X62801500Y-97821750D01*
X62531733Y-97821750D01*
X62532004Y-97908533D01*
X62556574Y-98009820D01*
X62610381Y-98103965D01*
X62655260Y-98159378D01*
X62757623Y-98246063D01*
X62877611Y-98299285D01*
X63007089Y-98319175D01*
X63137920Y-98305865D01*
G37*
X63137920Y-98305865D02*
X63261969Y-98259483D01*
X63371100Y-98180162D01*
X63401930Y-98147391D01*
X63475094Y-98031681D01*
X63512687Y-97903296D01*
X63515679Y-97770459D01*
X63485039Y-97641393D01*
X63421738Y-97524322D01*
X63326746Y-97427467D01*
X63316085Y-97419599D01*
X63227420Y-97356083D01*
X63226127Y-96609958D01*
X63224833Y-95863833D01*
X63478833Y-95863833D01*
X63478833Y-95461667D01*
X63215874Y-95461667D01*
X63105505Y-95462114D01*
X63028695Y-95464430D01*
X62976670Y-95470083D01*
X62940660Y-95480536D01*
X62911890Y-95497255D01*
X62887791Y-95516465D01*
X62822667Y-95571263D01*
X62821863Y-96463673D01*
X62821060Y-97356083D01*
X62738016Y-97413507D01*
X62635496Y-97504723D01*
X62568980Y-97614042D01*
X62535282Y-97747194D01*
X62531619Y-97784792D01*
X62531733Y-97821750D01*
X62801500Y-97821750D01*
X62820881Y-97739753D01*
X62871887Y-97668243D01*
X62943808Y-97617927D01*
X63023750Y-97599500D01*
X63085829Y-97608379D01*
X63140693Y-97640787D01*
X63174033Y-97671467D01*
X63222920Y-97730016D01*
X63243555Y-97785919D01*
X63246000Y-97821750D01*
X63226618Y-97903747D01*
X63175613Y-97975258D01*
X63103692Y-98025573D01*
X63023750Y-98044000D01*
X62941753Y-98024619D01*
X62870242Y-97973613D01*
X62819927Y-97901692D01*
X62801500Y-97821750D01*
X62531733Y-97821750D01*
X62532004Y-97908533D01*
X62556574Y-98009820D01*
X62610381Y-98103965D01*
X62655260Y-98159378D01*
X62757623Y-98246063D01*
X62877611Y-98299285D01*
X63007089Y-98319175D01*
X63137920Y-98305865D01*
G36*
X68839034Y-97653386D02*
G01*
X69185605Y-97595010D01*
X69525125Y-97496990D01*
X69839417Y-97366338D01*
X70155136Y-97191143D01*
X70444168Y-96984047D01*
X70704818Y-96747316D01*
X70935391Y-96483220D01*
X71134189Y-96194025D01*
X71299519Y-95882001D01*
X71429683Y-95549415D01*
X71522987Y-95198535D01*
X71544197Y-95086197D01*
X71583150Y-94737341D01*
X71581582Y-94392337D01*
X71541289Y-94053918D01*
X71464068Y-93724819D01*
X71351717Y-93407774D01*
X71206031Y-93105520D01*
X71028810Y-92820791D01*
X70821848Y-92556321D01*
X70586943Y-92314845D01*
X70325893Y-92099099D01*
X70040494Y-91911817D01*
X69732543Y-91755734D01*
X69403838Y-91633584D01*
X69246750Y-91589692D01*
X69005222Y-91542367D01*
X68740483Y-91513839D01*
X68467564Y-91504752D01*
X68201499Y-91515751D01*
X68019083Y-91537012D01*
X67674831Y-91610582D01*
X67348243Y-91720672D01*
X67041032Y-91864630D01*
X66754906Y-92039802D01*
X66491576Y-92243537D01*
X66252753Y-92473182D01*
X66040146Y-92726084D01*
X65855466Y-92999592D01*
X65700423Y-93291053D01*
X65576727Y-93597814D01*
X65486089Y-93917224D01*
X65430218Y-94246628D01*
X65413498Y-94536990D01*
X66704228Y-94536990D01*
X66728186Y-94289525D01*
X66785983Y-94047166D01*
X66877296Y-93813800D01*
X67001802Y-93593312D01*
X67159177Y-93389591D01*
X67349096Y-93206522D01*
X67525396Y-93076802D01*
X67679420Y-92989531D01*
X67853940Y-92911260D01*
X68029417Y-92850187D01*
X68122793Y-92826124D01*
X68227048Y-92810396D01*
X68358506Y-92800647D01*
X68502435Y-92797064D01*
X68644102Y-92799836D01*
X68768776Y-92809151D01*
X68824821Y-92817142D01*
X69081222Y-92883941D01*
X69322511Y-92987945D01*
X69545129Y-93125635D01*
X69745522Y-93293493D01*
X69920134Y-93487997D01*
X70065408Y-93705631D01*
X70177788Y-93942873D01*
X70253719Y-94196206D01*
X70262645Y-94240084D01*
X70292997Y-94511867D01*
X70282461Y-94784768D01*
X70231983Y-95053419D01*
X70142510Y-95312454D01*
X70036961Y-95520291D01*
X69969345Y-95618199D01*
X69876826Y-95729632D01*
X69769447Y-95844221D01*
X69657251Y-95951596D01*
X69550282Y-96041390D01*
X69491708Y-96083219D01*
X69249975Y-96216776D01*
X68997904Y-96311085D01*
X68739435Y-96366454D01*
X68478509Y-96383190D01*
X68219066Y-96361600D01*
X67965046Y-96301993D01*
X67720390Y-96204675D01*
X67489037Y-96069955D01*
X67289255Y-95911352D01*
X67103373Y-95714871D01*
X66953274Y-95500176D01*
X66838634Y-95271154D01*
X66759129Y-95031691D01*
X66714435Y-94785674D01*
X66704228Y-94536990D01*
X65413498Y-94536990D01*
X65410826Y-94583377D01*
X65429622Y-94924815D01*
X65488316Y-95268293D01*
X65523738Y-95407049D01*
X65628397Y-95723478D01*
X65758822Y-96012493D01*
X65919249Y-96281278D01*
X66113914Y-96537019D01*
X66324198Y-96764273D01*
X66506300Y-96936113D01*
X66681511Y-97079322D01*
X66862247Y-97202944D01*
X67060923Y-97316024D01*
X67130083Y-97351344D01*
X67456339Y-97490874D01*
X67794066Y-97590864D01*
X68139561Y-97651293D01*
X68489118Y-97672140D01*
X68839034Y-97653386D01*
G37*
X68839034Y-97653386D02*
X69185605Y-97595010D01*
X69525125Y-97496990D01*
X69839417Y-97366338D01*
X70155136Y-97191143D01*
X70444168Y-96984047D01*
X70704818Y-96747316D01*
X70935391Y-96483220D01*
X71134189Y-96194025D01*
X71299519Y-95882001D01*
X71429683Y-95549415D01*
X71522987Y-95198535D01*
X71544197Y-95086197D01*
X71583150Y-94737341D01*
X71581582Y-94392337D01*
X71541289Y-94053918D01*
X71464068Y-93724819D01*
X71351717Y-93407774D01*
X71206031Y-93105520D01*
X71028810Y-92820791D01*
X70821848Y-92556321D01*
X70586943Y-92314845D01*
X70325893Y-92099099D01*
X70040494Y-91911817D01*
X69732543Y-91755734D01*
X69403838Y-91633584D01*
X69246750Y-91589692D01*
X69005222Y-91542367D01*
X68740483Y-91513839D01*
X68467564Y-91504752D01*
X68201499Y-91515751D01*
X68019083Y-91537012D01*
X67674831Y-91610582D01*
X67348243Y-91720672D01*
X67041032Y-91864630D01*
X66754906Y-92039802D01*
X66491576Y-92243537D01*
X66252753Y-92473182D01*
X66040146Y-92726084D01*
X65855466Y-92999592D01*
X65700423Y-93291053D01*
X65576727Y-93597814D01*
X65486089Y-93917224D01*
X65430218Y-94246628D01*
X65413498Y-94536990D01*
X66704228Y-94536990D01*
X66728186Y-94289525D01*
X66785983Y-94047166D01*
X66877296Y-93813800D01*
X67001802Y-93593312D01*
X67159177Y-93389591D01*
X67349096Y-93206522D01*
X67525396Y-93076802D01*
X67679420Y-92989531D01*
X67853940Y-92911260D01*
X68029417Y-92850187D01*
X68122793Y-92826124D01*
X68227048Y-92810396D01*
X68358506Y-92800647D01*
X68502435Y-92797064D01*
X68644102Y-92799836D01*
X68768776Y-92809151D01*
X68824821Y-92817142D01*
X69081222Y-92883941D01*
X69322511Y-92987945D01*
X69545129Y-93125635D01*
X69745522Y-93293493D01*
X69920134Y-93487997D01*
X70065408Y-93705631D01*
X70177788Y-93942873D01*
X70253719Y-94196206D01*
X70262645Y-94240084D01*
X70292997Y-94511867D01*
X70282461Y-94784768D01*
X70231983Y-95053419D01*
X70142510Y-95312454D01*
X70036961Y-95520291D01*
X69969345Y-95618199D01*
X69876826Y-95729632D01*
X69769447Y-95844221D01*
X69657251Y-95951596D01*
X69550282Y-96041390D01*
X69491708Y-96083219D01*
X69249975Y-96216776D01*
X68997904Y-96311085D01*
X68739435Y-96366454D01*
X68478509Y-96383190D01*
X68219066Y-96361600D01*
X67965046Y-96301993D01*
X67720390Y-96204675D01*
X67489037Y-96069955D01*
X67289255Y-95911352D01*
X67103373Y-95714871D01*
X66953274Y-95500176D01*
X66838634Y-95271154D01*
X66759129Y-95031691D01*
X66714435Y-94785674D01*
X66704228Y-94536990D01*
X65413498Y-94536990D01*
X65410826Y-94583377D01*
X65429622Y-94924815D01*
X65488316Y-95268293D01*
X65523738Y-95407049D01*
X65628397Y-95723478D01*
X65758822Y-96012493D01*
X65919249Y-96281278D01*
X66113914Y-96537019D01*
X66324198Y-96764273D01*
X66506300Y-96936113D01*
X66681511Y-97079322D01*
X66862247Y-97202944D01*
X67060923Y-97316024D01*
X67130083Y-97351344D01*
X67456339Y-97490874D01*
X67794066Y-97590864D01*
X68139561Y-97651293D01*
X68489118Y-97672140D01*
X68839034Y-97653386D01*
%TD*%
M02*
