%TF.GenerationSoftware,KiCad,Pcbnew,(5.1.7)-1*%
%TF.CreationDate,2021-03-18T15:35:38+01:00*%
%TF.ProjectId,RBY_tireuse,5242595f-7469-4726-9575-73652e6b6963,rev?*%
%TF.SameCoordinates,Original*%
%TF.FileFunction,Copper,L2,Bot*%
%TF.FilePolarity,Positive*%
%FSLAX46Y46*%
G04 Gerber Fmt 4.6, Leading zero omitted, Abs format (unit mm)*
G04 Created by KiCad (PCBNEW (5.1.7)-1) date 2021-03-18 15:35:38*
%MOMM*%
%LPD*%
G01*
G04 APERTURE LIST*
%TA.AperFunction,ComponentPad*%
%ADD10O,1.700000X1.700000*%
%TD*%
%TA.AperFunction,ComponentPad*%
%ADD11R,1.700000X1.700000*%
%TD*%
%TA.AperFunction,ComponentPad*%
%ADD12R,1.560000X1.560000*%
%TD*%
%TA.AperFunction,ComponentPad*%
%ADD13C,1.560000*%
%TD*%
%TA.AperFunction,ComponentPad*%
%ADD14C,1.524000*%
%TD*%
%TA.AperFunction,ComponentPad*%
%ADD15R,1.524000X1.524000*%
%TD*%
%TA.AperFunction,Conductor*%
%ADD16C,0.250000*%
%TD*%
%TA.AperFunction,Conductor*%
%ADD17C,0.254000*%
%TD*%
%TA.AperFunction,Conductor*%
%ADD18C,0.100000*%
%TD*%
G04 APERTURE END LIST*
D10*
%TO.P,J6,4*%
%TO.N,+5V*%
X111760000Y-101600000D03*
%TO.P,J6,3*%
%TO.N,GND*%
X114300000Y-101600000D03*
%TO.P,J6,2*%
%TO.N,+12V*%
X116840000Y-101600000D03*
D11*
%TO.P,J6,1*%
%TO.N,GNDPWR*%
X119380000Y-101600000D03*
%TD*%
D12*
%TO.P,U1,1*%
%TO.N,+3.3V*%
X81280000Y-64060000D03*
D13*
%TO.P,U1,2*%
%TO.N,Net-(U1-Pad2)*%
X81280000Y-66600000D03*
%TO.P,U1,19*%
%TO.N,+5V*%
X81280000Y-109780000D03*
%TO.P,U1,3*%
%TO.N,Net-(U1-Pad3)*%
X81280000Y-69140000D03*
%TO.P,U1,4*%
%TO.N,Net-(U1-Pad4)*%
X81280000Y-71680000D03*
%TO.P,U1,5*%
%TO.N,B1*%
X81280000Y-74220000D03*
%TO.P,U1,6*%
%TO.N,B2*%
X81280000Y-76760000D03*
%TO.P,U1,7*%
%TO.N,I2C_CLK*%
X81280000Y-79300000D03*
%TO.P,U1,8*%
%TO.N,I2C_DATA*%
X81280000Y-81840000D03*
%TO.P,U1,9*%
%TO.N,PULS_0*%
X81280000Y-84380000D03*
%TO.P,U1,10*%
%TO.N,DIR_0*%
X81280000Y-86920000D03*
%TO.P,U1,11*%
%TO.N,EN_0*%
X81280000Y-89460000D03*
%TO.P,U1,12*%
%TO.N,PULS_1*%
X81280000Y-92000000D03*
%TO.P,U1,13*%
%TO.N,DIR_1*%
X81280000Y-94540000D03*
%TO.P,U1,14*%
%TO.N,GND*%
X81280000Y-97080000D03*
%TO.P,U1,15*%
%TO.N,EN_1*%
X81280000Y-99620000D03*
%TO.P,U1,16*%
%TO.N,Net-(U1-Pad16)*%
X81280000Y-102160000D03*
%TO.P,U1,17*%
%TO.N,Net-(U1-Pad17)*%
X81280000Y-104700000D03*
%TO.P,U1,18*%
%TO.N,Net-(U1-Pad18)*%
X81280000Y-107240000D03*
%TO.P,U1,20*%
%TO.N,GND*%
X106680000Y-64060000D03*
%TO.P,U1,21*%
%TO.N,Net-(U1-Pad21)*%
X106680000Y-66600000D03*
%TO.P,U1,22*%
%TO.N,Net-(U1-Pad22)*%
X106680000Y-69140000D03*
%TO.P,U1,23*%
%TO.N,Net-(U1-Pad23)*%
X106680000Y-71680000D03*
%TO.P,U1,24*%
%TO.N,Net-(U1-Pad24)*%
X106680000Y-74220000D03*
%TO.P,U1,25*%
%TO.N,Net-(U1-Pad25)*%
X106680000Y-76760000D03*
%TO.P,U1,26*%
%TO.N,GND*%
X106680000Y-79300000D03*
%TO.P,U1,27*%
%TO.N,Net-(U1-Pad27)*%
X106680000Y-81840000D03*
%TO.P,U1,28*%
%TO.N,P_CLK_0*%
X106680000Y-84380000D03*
%TO.P,U1,29*%
%TO.N,P_DATA_0*%
X106680000Y-86920000D03*
%TO.P,U1,30*%
%TO.N,S1_0*%
X106680000Y-89460000D03*
%TO.P,U1,31*%
%TO.N,S2_0*%
X106680000Y-92000000D03*
%TO.P,U1,32*%
%TO.N,P_CLK_1*%
X106680000Y-94540000D03*
%TO.P,U1,33*%
%TO.N,P_DATA_1*%
X106680000Y-97080000D03*
%TO.P,U1,34*%
%TO.N,S1_1*%
X106680000Y-99620000D03*
%TO.P,U1,35*%
%TO.N,S2_1*%
X106680000Y-102160000D03*
%TO.P,U1,36*%
%TO.N,Net-(U1-Pad36)*%
X106680000Y-104700000D03*
%TO.P,U1,37*%
%TO.N,Net-(U1-Pad37)*%
X106680000Y-107240000D03*
%TO.P,U1,38*%
%TO.N,Net-(U1-Pad38)*%
X106680000Y-109780000D03*
%TD*%
D10*
%TO.P,J7,2*%
%TO.N,+5V*%
X114300000Y-60960000D03*
D11*
%TO.P,J7,1*%
%TO.N,GND*%
X111760000Y-60960000D03*
%TD*%
D10*
%TO.P,J3,8*%
%TO.N,S1_1*%
X115570000Y-93980000D03*
%TO.P,J3,7*%
%TO.N,S2_1*%
X118110000Y-93980000D03*
%TO.P,J3,6*%
%TO.N,P_DATA_1*%
X115570000Y-91440000D03*
%TO.P,J3,5*%
%TO.N,Net-(J3-Pad5)*%
X118110000Y-91440000D03*
%TO.P,J3,4*%
%TO.N,P_CLK_1*%
X115570000Y-88900000D03*
%TO.P,J3,3*%
%TO.N,+5V*%
X118110000Y-88900000D03*
%TO.P,J3,2*%
%TO.N,+3.3V*%
X115570000Y-86360000D03*
D11*
%TO.P,J3,1*%
%TO.N,GND*%
X118110000Y-86360000D03*
%TD*%
D10*
%TO.P,J2,8*%
%TO.N,S1_0*%
X115570000Y-78740000D03*
%TO.P,J2,7*%
%TO.N,S2_0*%
X118110000Y-78740000D03*
%TO.P,J2,6*%
%TO.N,P_DATA_0*%
X115570000Y-76200000D03*
%TO.P,J2,5*%
%TO.N,Net-(J2-Pad5)*%
X118110000Y-76200000D03*
%TO.P,J2,4*%
%TO.N,P_CLK_0*%
X115570000Y-73660000D03*
%TO.P,J2,3*%
%TO.N,+5V*%
X118110000Y-73660000D03*
%TO.P,J2,2*%
%TO.N,+3.3V*%
X115570000Y-71120000D03*
D11*
%TO.P,J2,1*%
%TO.N,GND*%
X118110000Y-71120000D03*
%TD*%
D10*
%TO.P,J1,8*%
%TO.N,I2C_DATA*%
X71120000Y-62230000D03*
%TO.P,J1,7*%
%TO.N,I2C_CLK*%
X73660000Y-62230000D03*
%TO.P,J1,6*%
%TO.N,Net-(J1-Pad6)*%
X71120000Y-59690000D03*
%TO.P,J1,5*%
%TO.N,B2*%
X73660000Y-59690000D03*
%TO.P,J1,4*%
%TO.N,+5V*%
X71120000Y-57150000D03*
%TO.P,J1,3*%
%TO.N,B1*%
X73660000Y-57150000D03*
%TO.P,J1,2*%
%TO.N,+3.3V*%
X71120000Y-54610000D03*
D11*
%TO.P,J1,1*%
%TO.N,GND*%
X73660000Y-54610000D03*
%TD*%
%TO.P,J4,1*%
%TO.N,Net-(J4-Pad1)*%
X55880000Y-76200000D03*
D10*
%TO.P,J4,2*%
%TO.N,Net-(J4-Pad2)*%
X55880000Y-78740000D03*
%TO.P,J4,3*%
%TO.N,Net-(J4-Pad3)*%
X55880000Y-81280000D03*
%TO.P,J4,4*%
%TO.N,Net-(J4-Pad4)*%
X55880000Y-83820000D03*
%TD*%
%TO.P,J5,4*%
%TO.N,Net-(J5-Pad4)*%
X55880000Y-105410000D03*
%TO.P,J5,3*%
%TO.N,Net-(J5-Pad3)*%
X55880000Y-102870000D03*
%TO.P,J5,2*%
%TO.N,Net-(J5-Pad2)*%
X55880000Y-100330000D03*
D11*
%TO.P,J5,1*%
%TO.N,Net-(J5-Pad1)*%
X55880000Y-97790000D03*
%TD*%
D14*
%TO.P,U2,JP2_8*%
%TO.N,GND*%
X62230000Y-88900000D03*
%TO.P,U2,JP2_7*%
%TO.N,+3.3V*%
X62230000Y-86360000D03*
%TO.P,U2,JP2_6*%
%TO.N,Net-(J4-Pad4)*%
X62230000Y-83820000D03*
%TO.P,U2,JP2_5*%
%TO.N,Net-(J4-Pad3)*%
X62230000Y-81280000D03*
%TO.P,U2,JP2_4*%
%TO.N,Net-(J4-Pad2)*%
X62230000Y-78740000D03*
%TO.P,U2,JP2_3*%
%TO.N,Net-(J4-Pad1)*%
X62230000Y-76200000D03*
%TO.P,U2,JP2_2*%
%TO.N,GND*%
X62230000Y-73660000D03*
%TO.P,U2,JP2_1*%
%TO.N,+12V*%
X62230000Y-71120000D03*
%TO.P,U2,JP1_8*%
%TO.N,EN_0*%
X74930000Y-71120000D03*
%TO.P,U2,JP1_7*%
%TO.N,Net-(U2-PadJP1_7)*%
X74930000Y-73660000D03*
%TO.P,U2,JP1_6*%
%TO.N,Net-(U2-PadJP1_6)*%
X74930000Y-76200000D03*
%TO.P,U2,JP1_5*%
%TO.N,Net-(U2-PadJP1_5)*%
X74930000Y-78740000D03*
%TO.P,U2,JP1_4*%
%TO.N,Net-(U2-PadJP1_4)*%
X74930000Y-81280000D03*
%TO.P,U2,JP1_3*%
%TO.N,Net-(U2-PadJP1_3)*%
X74930000Y-83820000D03*
%TO.P,U2,JP1_2*%
%TO.N,PULS_0*%
X74930000Y-86360000D03*
D15*
%TO.P,U2,JP1_1*%
%TO.N,DIR_0*%
X74930000Y-88900000D03*
D14*
%TO.P,U2,JP5_1*%
%TO.N,Net-(U2-PadJP5_1)*%
X72390000Y-71120000D03*
%TO.P,U2,JP4_1*%
%TO.N,Net-(U2-PadJP4_1)*%
X69850000Y-71120000D03*
%TO.P,U2,JP3_1*%
%TO.N,Net-(U2-PadJP3_1)*%
X71120000Y-72771000D03*
%TD*%
%TO.P,U3,JP3_1*%
%TO.N,Net-(U3-PadJP3_1)*%
X71120000Y-94361000D03*
%TO.P,U3,JP4_1*%
%TO.N,Net-(U3-PadJP4_1)*%
X69850000Y-92710000D03*
%TO.P,U3,JP5_1*%
%TO.N,Net-(U3-PadJP5_1)*%
X72390000Y-92710000D03*
D15*
%TO.P,U3,JP1_1*%
%TO.N,DIR_1*%
X74930000Y-110490000D03*
D14*
%TO.P,U3,JP1_2*%
%TO.N,PULS_1*%
X74930000Y-107950000D03*
%TO.P,U3,JP1_3*%
%TO.N,Net-(U3-PadJP1_3)*%
X74930000Y-105410000D03*
%TO.P,U3,JP1_4*%
%TO.N,Net-(U3-PadJP1_4)*%
X74930000Y-102870000D03*
%TO.P,U3,JP1_5*%
%TO.N,Net-(U3-PadJP1_5)*%
X74930000Y-100330000D03*
%TO.P,U3,JP1_6*%
%TO.N,Net-(U3-PadJP1_6)*%
X74930000Y-97790000D03*
%TO.P,U3,JP1_7*%
%TO.N,Net-(U3-PadJP1_7)*%
X74930000Y-95250000D03*
%TO.P,U3,JP1_8*%
%TO.N,EN_1*%
X74930000Y-92710000D03*
%TO.P,U3,JP2_1*%
%TO.N,+12V*%
X62230000Y-92710000D03*
%TO.P,U3,JP2_2*%
%TO.N,GND*%
X62230000Y-95250000D03*
%TO.P,U3,JP2_3*%
%TO.N,Net-(J5-Pad1)*%
X62230000Y-97790000D03*
%TO.P,U3,JP2_4*%
%TO.N,Net-(J5-Pad2)*%
X62230000Y-100330000D03*
%TO.P,U3,JP2_5*%
%TO.N,Net-(J5-Pad3)*%
X62230000Y-102870000D03*
%TO.P,U3,JP2_6*%
%TO.N,Net-(J5-Pad4)*%
X62230000Y-105410000D03*
%TO.P,U3,JP2_7*%
%TO.N,+3.3V*%
X62230000Y-107950000D03*
%TO.P,U3,JP2_8*%
%TO.N,GND*%
X62230000Y-110490000D03*
%TD*%
D16*
%TO.N,GND*%
X81280000Y-97080000D02*
X80720000Y-97080000D01*
%TO.N,+5V*%
X81280000Y-109780000D02*
X83260000Y-111760000D01*
X81280000Y-109780000D02*
X84530000Y-113030000D01*
X121920000Y-77470000D02*
X118110000Y-73660000D01*
X120650000Y-91440000D02*
X118110000Y-88900000D01*
X120650000Y-93980000D02*
X120650000Y-91440000D01*
X118110000Y-88900000D02*
X116840000Y-87630000D01*
X116840000Y-87630000D02*
X116840000Y-85090000D01*
X121920000Y-80010000D02*
X121920000Y-77470000D01*
X116840000Y-85090000D02*
X121920000Y-80010000D01*
X111760000Y-110490000D02*
X109220000Y-113030000D01*
X111760000Y-101600000D02*
X111760000Y-110490000D01*
X84530000Y-113030000D02*
X109220000Y-113030000D01*
X111760000Y-101600000D02*
X111760000Y-97790000D01*
X111760000Y-97790000D02*
X112579990Y-96970010D01*
X117659990Y-96970010D02*
X120650000Y-93980000D01*
X112579990Y-96970010D02*
X117659990Y-96970010D01*
X118110000Y-73660000D02*
X119380000Y-73660000D01*
X114300000Y-60960000D02*
X120650000Y-67310000D01*
X120650000Y-67310000D02*
X120650000Y-72390000D01*
X119380000Y-73660000D02*
X120650000Y-72390000D01*
X71120000Y-57150000D02*
X67310000Y-60960000D01*
X67310000Y-106043590D02*
X74296410Y-113030000D01*
X67310000Y-60960000D02*
X67310000Y-106043590D01*
X78030000Y-113030000D02*
X81280000Y-109780000D01*
X74296410Y-113030000D02*
X78030000Y-113030000D01*
%TO.N,I2C_CLK*%
X76910000Y-74930000D02*
X81280000Y-79300000D01*
X77019990Y-75039990D02*
X81280000Y-79300000D01*
X77019990Y-65589990D02*
X77019990Y-75039990D01*
X73660000Y-62230000D02*
X77019990Y-65589990D01*
%TO.N,I2C_DATA*%
X76459991Y-77019991D02*
X81280000Y-81840000D01*
X76459991Y-67569991D02*
X76459991Y-77019991D01*
X71120000Y-62230000D02*
X76459991Y-67569991D01*
%TO.N,B2*%
X81280000Y-76760000D02*
X77470000Y-72950000D01*
X73660000Y-59690000D02*
X77470000Y-63500000D01*
X77470000Y-63500000D02*
X77470000Y-72950000D01*
%TO.N,B1*%
X73660000Y-57150000D02*
X78740000Y-62230000D01*
X78740000Y-71680000D02*
X81280000Y-74220000D01*
X78740000Y-62230000D02*
X78740000Y-71680000D01*
%TO.N,+12V*%
X115570000Y-100330000D02*
X116840000Y-101600000D01*
X113830998Y-100330000D02*
X115570000Y-100330000D01*
X113030000Y-101130998D02*
X113830998Y-100330000D01*
X113030000Y-109856410D02*
X113030000Y-101130998D01*
X66040000Y-96520000D02*
X66040000Y-105410000D01*
X109406400Y-113480010D02*
X113030000Y-109856410D01*
X74110010Y-113480010D02*
X109406400Y-113480010D01*
X66040000Y-105410000D02*
X74110010Y-113480010D01*
X62230000Y-92710000D02*
X66040000Y-96520000D01*
X65220010Y-89719990D02*
X62230000Y-92710000D01*
X65220010Y-74110010D02*
X65220010Y-89719990D01*
X62230000Y-71120000D02*
X65220010Y-74110010D01*
%TO.N,+3.3V*%
X115570000Y-86360000D02*
X115570000Y-85090000D01*
X115570000Y-85090000D02*
X120650000Y-80010000D01*
X120650000Y-77000998D02*
X118579002Y-74930000D01*
X120650000Y-80010000D02*
X120650000Y-77000998D01*
X116745001Y-74034003D02*
X116745001Y-72295001D01*
X116745001Y-72295001D02*
X115570000Y-71120000D01*
X117640998Y-74930000D02*
X116745001Y-74034003D01*
X118579002Y-74930000D02*
X117640998Y-74930000D01*
X81280000Y-62230000D02*
X81280000Y-64060000D01*
X75024999Y-55974999D02*
X81280000Y-62230000D01*
X72484999Y-55974999D02*
X75024999Y-55974999D01*
X71120000Y-54610000D02*
X72484999Y-55974999D01*
%TO.N,S1_0*%
X107390000Y-89460000D02*
X106680000Y-89460000D01*
X115570000Y-78740000D02*
X111760000Y-78740000D01*
X111760000Y-78740000D02*
X110490000Y-80010000D01*
X110490000Y-85650000D02*
X106680000Y-89460000D01*
X110490000Y-80010000D02*
X110490000Y-85650000D01*
%TO.N,S2_0*%
X118110000Y-78740000D02*
X115570000Y-81280000D01*
X115570000Y-81280000D02*
X113030000Y-81280000D01*
X113030000Y-81280000D02*
X111760000Y-82550000D01*
X111760000Y-86920000D02*
X106680000Y-92000000D01*
X111760000Y-82550000D02*
X111760000Y-86920000D01*
%TO.N,P_DATA_0*%
X111760000Y-76200000D02*
X115570000Y-76200000D01*
X110039990Y-77920010D02*
X111760000Y-76200000D01*
X110039990Y-83560010D02*
X110039990Y-77920010D01*
X106680000Y-86920000D02*
X110039990Y-83560010D01*
%TO.N,P_CLK_0*%
X107390000Y-84380000D02*
X106680000Y-84380000D01*
X109220000Y-82550000D02*
X109220000Y-76200000D01*
X109220000Y-82550000D02*
X107390000Y-84380000D01*
X109220000Y-76200000D02*
X111760000Y-73660000D01*
X111760000Y-73660000D02*
X115570000Y-73660000D01*
%TO.N,S1_1*%
X112320000Y-93980000D02*
X106680000Y-99620000D01*
X112320000Y-93980000D02*
X115570000Y-93980000D01*
%TO.N,S2_1*%
X112320000Y-96520000D02*
X106680000Y-102160000D01*
X118110000Y-93980000D02*
X115570000Y-96520000D01*
X115570000Y-96520000D02*
X112320000Y-96520000D01*
%TO.N,P_DATA_1*%
X112320000Y-91440000D02*
X106680000Y-97080000D01*
X115570000Y-91440000D02*
X112320000Y-91440000D01*
%TO.N,P_CLK_1*%
X112320000Y-88900000D02*
X106680000Y-94540000D01*
X112320000Y-88900000D02*
X115570000Y-88900000D01*
%TO.N,EN_1*%
X81810401Y-90894999D02*
X83820000Y-92904598D01*
X76745001Y-90894999D02*
X81810401Y-90894999D01*
X74930000Y-92710000D02*
X76745001Y-90894999D01*
X80174999Y-98514999D02*
X81280000Y-99620000D01*
X80174999Y-96549599D02*
X80174999Y-98514999D01*
X80749599Y-95974999D02*
X80174999Y-96549599D01*
X81810401Y-95974999D02*
X80749599Y-95974999D01*
X83820000Y-93965400D02*
X81810401Y-95974999D01*
X83820000Y-92904598D02*
X83820000Y-93965400D01*
%TO.N,DIR_1*%
X78740000Y-106680000D02*
X74930000Y-110490000D01*
X78740000Y-97080000D02*
X78740000Y-106680000D01*
X81280000Y-94540000D02*
X78740000Y-97080000D01*
%TO.N,PULS_1*%
X77470000Y-105410000D02*
X74930000Y-107950000D01*
X77470000Y-95810000D02*
X81280000Y-92000000D01*
X77470000Y-105410000D02*
X77470000Y-95810000D01*
%TO.N,EN_0*%
X80500001Y-90239999D02*
X73729999Y-90239999D01*
X81280000Y-89460000D02*
X80500001Y-90239999D01*
X73729999Y-90239999D02*
X72390000Y-88900000D01*
X74930000Y-72051238D02*
X74930000Y-71120000D01*
X72390000Y-74591238D02*
X74930000Y-72051238D01*
X72390000Y-88900000D02*
X72390000Y-74591238D01*
%TO.N,DIR_0*%
X79300000Y-88900000D02*
X81280000Y-86920000D01*
X74930000Y-88900000D02*
X79300000Y-88900000D01*
%TO.N,PULS_0*%
X79300000Y-86360000D02*
X81280000Y-84380000D01*
X74930000Y-86360000D02*
X79300000Y-86360000D01*
%TO.N,+3.3V*%
X61708239Y-93797001D02*
X61142999Y-93231761D01*
X65589990Y-96706400D02*
X62680591Y-93797001D01*
X65589990Y-104590010D02*
X65589990Y-96706400D01*
X62680591Y-93797001D02*
X61708239Y-93797001D01*
X62230000Y-107950000D02*
X65589990Y-104590010D01*
X61481761Y-91257001D02*
X63500000Y-89238762D01*
X63500000Y-87630000D02*
X62230000Y-86360000D01*
X63500000Y-89238762D02*
X63500000Y-87630000D01*
X61481761Y-91284237D02*
X61142999Y-91622999D01*
X61481761Y-91257001D02*
X61481761Y-91284237D01*
X61142999Y-93231761D02*
X61142999Y-91622999D01*
X64770000Y-83820000D02*
X62230000Y-86360000D01*
X64770000Y-74591238D02*
X64770000Y-83820000D01*
X62751761Y-72572999D02*
X64770000Y-74591238D01*
X60960000Y-71458762D02*
X62074237Y-72572999D01*
X60960000Y-69850000D02*
X60960000Y-71458762D01*
X62074237Y-72572999D02*
X62751761Y-72572999D01*
X71120000Y-54610000D02*
X72295001Y-55785001D01*
X87490001Y-70270001D02*
X81280000Y-64060000D01*
X114720001Y-70270001D02*
X87490001Y-70270001D01*
X115570000Y-71120000D02*
X114720001Y-70270001D01*
X60960000Y-64770000D02*
X60960000Y-69850000D01*
X71120000Y-54610000D02*
X60960000Y-64770000D01*
%TO.N,Net-(J4-Pad1)*%
X55880000Y-76200000D02*
X62230000Y-76200000D01*
%TO.N,Net-(J4-Pad2)*%
X62230000Y-78740000D02*
X55880000Y-78740000D01*
%TO.N,Net-(J4-Pad3)*%
X55880000Y-81280000D02*
X62230000Y-81280000D01*
%TO.N,Net-(J4-Pad4)*%
X62230000Y-83820000D02*
X55880000Y-83820000D01*
%TO.N,Net-(J5-Pad4)*%
X62230000Y-105410000D02*
X55880000Y-105410000D01*
%TO.N,Net-(J5-Pad3)*%
X62230000Y-102870000D02*
X55880000Y-102870000D01*
%TO.N,Net-(J5-Pad2)*%
X62230000Y-100330000D02*
X55880000Y-100330000D01*
%TO.N,Net-(J5-Pad1)*%
X62230000Y-97790000D02*
X55880000Y-97790000D01*
%TD*%
D17*
%TO.N,GND*%
X123063000Y-115443000D02*
X53467000Y-115443000D01*
X53467000Y-111455565D01*
X61444040Y-111455565D01*
X61511020Y-111695656D01*
X61760048Y-111812756D01*
X62027135Y-111879023D01*
X62302017Y-111891910D01*
X62574133Y-111850922D01*
X62833023Y-111757636D01*
X62948980Y-111695656D01*
X63015960Y-111455565D01*
X62230000Y-110669605D01*
X61444040Y-111455565D01*
X53467000Y-111455565D01*
X53467000Y-110562017D01*
X60828090Y-110562017D01*
X60869078Y-110834133D01*
X60962364Y-111093023D01*
X61024344Y-111208980D01*
X61264435Y-111275960D01*
X62050395Y-110490000D01*
X62409605Y-110490000D01*
X63195565Y-111275960D01*
X63435656Y-111208980D01*
X63552756Y-110959952D01*
X63619023Y-110692865D01*
X63631910Y-110417983D01*
X63590922Y-110145867D01*
X63497636Y-109886977D01*
X63435656Y-109771020D01*
X63195565Y-109704040D01*
X62409605Y-110490000D01*
X62050395Y-110490000D01*
X61264435Y-109704040D01*
X61024344Y-109771020D01*
X60907244Y-110020048D01*
X60840977Y-110287135D01*
X60828090Y-110562017D01*
X53467000Y-110562017D01*
X53467000Y-88972017D01*
X60828090Y-88972017D01*
X60869078Y-89244133D01*
X60962364Y-89503023D01*
X61024344Y-89618980D01*
X61264435Y-89685960D01*
X62050395Y-88900000D01*
X61264435Y-88114040D01*
X61024344Y-88181020D01*
X60907244Y-88430048D01*
X60840977Y-88697135D01*
X60828090Y-88972017D01*
X53467000Y-88972017D01*
X53467000Y-75350000D01*
X54391928Y-75350000D01*
X54391928Y-77050000D01*
X54404188Y-77174482D01*
X54440498Y-77294180D01*
X54499463Y-77404494D01*
X54578815Y-77501185D01*
X54675506Y-77580537D01*
X54785820Y-77639502D01*
X54858380Y-77661513D01*
X54726525Y-77793368D01*
X54564010Y-78036589D01*
X54452068Y-78306842D01*
X54395000Y-78593740D01*
X54395000Y-78886260D01*
X54452068Y-79173158D01*
X54564010Y-79443411D01*
X54726525Y-79686632D01*
X54933368Y-79893475D01*
X55107760Y-80010000D01*
X54933368Y-80126525D01*
X54726525Y-80333368D01*
X54564010Y-80576589D01*
X54452068Y-80846842D01*
X54395000Y-81133740D01*
X54395000Y-81426260D01*
X54452068Y-81713158D01*
X54564010Y-81983411D01*
X54726525Y-82226632D01*
X54933368Y-82433475D01*
X55107760Y-82550000D01*
X54933368Y-82666525D01*
X54726525Y-82873368D01*
X54564010Y-83116589D01*
X54452068Y-83386842D01*
X54395000Y-83673740D01*
X54395000Y-83966260D01*
X54452068Y-84253158D01*
X54564010Y-84523411D01*
X54726525Y-84766632D01*
X54933368Y-84973475D01*
X55176589Y-85135990D01*
X55446842Y-85247932D01*
X55733740Y-85305000D01*
X56026260Y-85305000D01*
X56313158Y-85247932D01*
X56583411Y-85135990D01*
X56826632Y-84973475D01*
X57033475Y-84766632D01*
X57158178Y-84580000D01*
X61057659Y-84580000D01*
X61144880Y-84710535D01*
X61339465Y-84905120D01*
X61568273Y-85058005D01*
X61645515Y-85090000D01*
X61568273Y-85121995D01*
X61339465Y-85274880D01*
X61144880Y-85469465D01*
X60991995Y-85698273D01*
X60886686Y-85952510D01*
X60833000Y-86222408D01*
X60833000Y-86497592D01*
X60886686Y-86767490D01*
X60991995Y-87021727D01*
X61144880Y-87250535D01*
X61339465Y-87445120D01*
X61568273Y-87598005D01*
X61639943Y-87627692D01*
X61626977Y-87632364D01*
X61511020Y-87694344D01*
X61444040Y-87934435D01*
X62230000Y-88720395D01*
X62244143Y-88706253D01*
X62423748Y-88885858D01*
X62409605Y-88900000D01*
X62423748Y-88914143D01*
X62244143Y-89093748D01*
X62230000Y-89079605D01*
X61444040Y-89865565D01*
X61511020Y-90105656D01*
X61543181Y-90120779D01*
X60970764Y-90693197D01*
X60941760Y-90717000D01*
X60890058Y-90780000D01*
X60846787Y-90832725D01*
X60833369Y-90857828D01*
X60631997Y-91059200D01*
X60602999Y-91082998D01*
X60579201Y-91111996D01*
X60579200Y-91111997D01*
X60508025Y-91198723D01*
X60437453Y-91330753D01*
X60407179Y-91430557D01*
X60393997Y-91474013D01*
X60383904Y-91576484D01*
X60379323Y-91622999D01*
X60383000Y-91660331D01*
X60382999Y-93194438D01*
X60379323Y-93231761D01*
X60382999Y-93269083D01*
X60382999Y-93269093D01*
X60393996Y-93380746D01*
X60422186Y-93473676D01*
X60437453Y-93524007D01*
X60508025Y-93656037D01*
X60518068Y-93668274D01*
X60602998Y-93771762D01*
X60632001Y-93795564D01*
X61144439Y-94308003D01*
X61163917Y-94331737D01*
X61148023Y-94347631D01*
X61264433Y-94464041D01*
X61024344Y-94531020D01*
X60907244Y-94780048D01*
X60840977Y-95047135D01*
X60828090Y-95322017D01*
X60869078Y-95594133D01*
X60962364Y-95853023D01*
X61024344Y-95968980D01*
X61264435Y-96035960D01*
X62050395Y-95250000D01*
X62036253Y-95235858D01*
X62215858Y-95056253D01*
X62230000Y-95070395D01*
X62244143Y-95056253D01*
X62423748Y-95235858D01*
X62409605Y-95250000D01*
X63195565Y-96035960D01*
X63435656Y-95968980D01*
X63545075Y-95736287D01*
X64829991Y-97021203D01*
X64829990Y-104275207D01*
X63627000Y-105478198D01*
X63627000Y-105272408D01*
X63573314Y-105002510D01*
X63468005Y-104748273D01*
X63315120Y-104519465D01*
X63120535Y-104324880D01*
X62891727Y-104171995D01*
X62814485Y-104140000D01*
X62891727Y-104108005D01*
X63120535Y-103955120D01*
X63315120Y-103760535D01*
X63468005Y-103531727D01*
X63573314Y-103277490D01*
X63627000Y-103007592D01*
X63627000Y-102732408D01*
X63573314Y-102462510D01*
X63468005Y-102208273D01*
X63315120Y-101979465D01*
X63120535Y-101784880D01*
X62891727Y-101631995D01*
X62814485Y-101600000D01*
X62891727Y-101568005D01*
X63120535Y-101415120D01*
X63315120Y-101220535D01*
X63468005Y-100991727D01*
X63573314Y-100737490D01*
X63627000Y-100467592D01*
X63627000Y-100192408D01*
X63573314Y-99922510D01*
X63468005Y-99668273D01*
X63315120Y-99439465D01*
X63120535Y-99244880D01*
X62891727Y-99091995D01*
X62814485Y-99060000D01*
X62891727Y-99028005D01*
X63120535Y-98875120D01*
X63315120Y-98680535D01*
X63468005Y-98451727D01*
X63573314Y-98197490D01*
X63627000Y-97927592D01*
X63627000Y-97652408D01*
X63573314Y-97382510D01*
X63468005Y-97128273D01*
X63315120Y-96899465D01*
X63120535Y-96704880D01*
X62891727Y-96551995D01*
X62820057Y-96522308D01*
X62833023Y-96517636D01*
X62948980Y-96455656D01*
X63015960Y-96215565D01*
X62230000Y-95429605D01*
X61444040Y-96215565D01*
X61511020Y-96455656D01*
X61646760Y-96519485D01*
X61568273Y-96551995D01*
X61339465Y-96704880D01*
X61144880Y-96899465D01*
X61057659Y-97030000D01*
X57368072Y-97030000D01*
X57368072Y-96940000D01*
X57355812Y-96815518D01*
X57319502Y-96695820D01*
X57260537Y-96585506D01*
X57181185Y-96488815D01*
X57084494Y-96409463D01*
X56974180Y-96350498D01*
X56854482Y-96314188D01*
X56730000Y-96301928D01*
X55030000Y-96301928D01*
X54905518Y-96314188D01*
X54785820Y-96350498D01*
X54675506Y-96409463D01*
X54578815Y-96488815D01*
X54499463Y-96585506D01*
X54440498Y-96695820D01*
X54404188Y-96815518D01*
X54391928Y-96940000D01*
X54391928Y-98640000D01*
X54404188Y-98764482D01*
X54440498Y-98884180D01*
X54499463Y-98994494D01*
X54578815Y-99091185D01*
X54675506Y-99170537D01*
X54785820Y-99229502D01*
X54858380Y-99251513D01*
X54726525Y-99383368D01*
X54564010Y-99626589D01*
X54452068Y-99896842D01*
X54395000Y-100183740D01*
X54395000Y-100476260D01*
X54452068Y-100763158D01*
X54564010Y-101033411D01*
X54726525Y-101276632D01*
X54933368Y-101483475D01*
X55107760Y-101600000D01*
X54933368Y-101716525D01*
X54726525Y-101923368D01*
X54564010Y-102166589D01*
X54452068Y-102436842D01*
X54395000Y-102723740D01*
X54395000Y-103016260D01*
X54452068Y-103303158D01*
X54564010Y-103573411D01*
X54726525Y-103816632D01*
X54933368Y-104023475D01*
X55107760Y-104140000D01*
X54933368Y-104256525D01*
X54726525Y-104463368D01*
X54564010Y-104706589D01*
X54452068Y-104976842D01*
X54395000Y-105263740D01*
X54395000Y-105556260D01*
X54452068Y-105843158D01*
X54564010Y-106113411D01*
X54726525Y-106356632D01*
X54933368Y-106563475D01*
X55176589Y-106725990D01*
X55446842Y-106837932D01*
X55733740Y-106895000D01*
X56026260Y-106895000D01*
X56313158Y-106837932D01*
X56583411Y-106725990D01*
X56826632Y-106563475D01*
X57033475Y-106356632D01*
X57158178Y-106170000D01*
X61057659Y-106170000D01*
X61144880Y-106300535D01*
X61339465Y-106495120D01*
X61568273Y-106648005D01*
X61645515Y-106680000D01*
X61568273Y-106711995D01*
X61339465Y-106864880D01*
X61144880Y-107059465D01*
X60991995Y-107288273D01*
X60886686Y-107542510D01*
X60833000Y-107812408D01*
X60833000Y-108087592D01*
X60886686Y-108357490D01*
X60991995Y-108611727D01*
X61144880Y-108840535D01*
X61339465Y-109035120D01*
X61568273Y-109188005D01*
X61639943Y-109217692D01*
X61626977Y-109222364D01*
X61511020Y-109284344D01*
X61444040Y-109524435D01*
X62230000Y-110310395D01*
X63015960Y-109524435D01*
X62948980Y-109284344D01*
X62813240Y-109220515D01*
X62891727Y-109188005D01*
X63120535Y-109035120D01*
X63315120Y-108840535D01*
X63468005Y-108611727D01*
X63573314Y-108357490D01*
X63627000Y-108087592D01*
X63627000Y-107812408D01*
X63596372Y-107658430D01*
X65412013Y-105842790D01*
X65472362Y-105916324D01*
X65500000Y-105950001D01*
X65528998Y-105973799D01*
X73546211Y-113991013D01*
X73570009Y-114020011D01*
X73599007Y-114043809D01*
X73685734Y-114114984D01*
X73817763Y-114185556D01*
X73961024Y-114229013D01*
X74110010Y-114243687D01*
X74147343Y-114240010D01*
X109369078Y-114240010D01*
X109406400Y-114243686D01*
X109443722Y-114240010D01*
X109443733Y-114240010D01*
X109555386Y-114229013D01*
X109698647Y-114185556D01*
X109830676Y-114114984D01*
X109946401Y-114020011D01*
X109970204Y-113991007D01*
X113541004Y-110420208D01*
X113570001Y-110396411D01*
X113664974Y-110280686D01*
X113735546Y-110148657D01*
X113779003Y-110005396D01*
X113790000Y-109893743D01*
X113790000Y-109893734D01*
X113793676Y-109856411D01*
X113790000Y-109819088D01*
X113790000Y-102994014D01*
X113795901Y-102996825D01*
X113943110Y-103041476D01*
X114173000Y-102920155D01*
X114173000Y-101727000D01*
X114153000Y-101727000D01*
X114153000Y-101473000D01*
X114173000Y-101473000D01*
X114173000Y-101453000D01*
X114427000Y-101453000D01*
X114427000Y-101473000D01*
X114447000Y-101473000D01*
X114447000Y-101727000D01*
X114427000Y-101727000D01*
X114427000Y-102920155D01*
X114656890Y-103041476D01*
X114804099Y-102996825D01*
X115066920Y-102871641D01*
X115300269Y-102697588D01*
X115495178Y-102481355D01*
X115564805Y-102364466D01*
X115686525Y-102546632D01*
X115893368Y-102753475D01*
X116136589Y-102915990D01*
X116406842Y-103027932D01*
X116693740Y-103085000D01*
X116986260Y-103085000D01*
X117273158Y-103027932D01*
X117543411Y-102915990D01*
X117786632Y-102753475D01*
X117918487Y-102621620D01*
X117940498Y-102694180D01*
X117999463Y-102804494D01*
X118078815Y-102901185D01*
X118175506Y-102980537D01*
X118285820Y-103039502D01*
X118405518Y-103075812D01*
X118530000Y-103088072D01*
X120230000Y-103088072D01*
X120354482Y-103075812D01*
X120474180Y-103039502D01*
X120584494Y-102980537D01*
X120681185Y-102901185D01*
X120760537Y-102804494D01*
X120819502Y-102694180D01*
X120855812Y-102574482D01*
X120868072Y-102450000D01*
X120868072Y-100750000D01*
X120855812Y-100625518D01*
X120819502Y-100505820D01*
X120760537Y-100395506D01*
X120681185Y-100298815D01*
X120584494Y-100219463D01*
X120474180Y-100160498D01*
X120354482Y-100124188D01*
X120230000Y-100111928D01*
X118530000Y-100111928D01*
X118405518Y-100124188D01*
X118285820Y-100160498D01*
X118175506Y-100219463D01*
X118078815Y-100298815D01*
X117999463Y-100395506D01*
X117940498Y-100505820D01*
X117918487Y-100578380D01*
X117786632Y-100446525D01*
X117543411Y-100284010D01*
X117273158Y-100172068D01*
X116986260Y-100115000D01*
X116693740Y-100115000D01*
X116473592Y-100158791D01*
X116133804Y-99819003D01*
X116110001Y-99789999D01*
X115994276Y-99695026D01*
X115862247Y-99624454D01*
X115718986Y-99580997D01*
X115607333Y-99570000D01*
X115607322Y-99570000D01*
X115570000Y-99566324D01*
X115532678Y-99570000D01*
X113868320Y-99570000D01*
X113830997Y-99566324D01*
X113793674Y-99570000D01*
X113793665Y-99570000D01*
X113682012Y-99580997D01*
X113538751Y-99624454D01*
X113406722Y-99695026D01*
X113290997Y-99789999D01*
X113267199Y-99818998D01*
X112666492Y-100419704D01*
X112520000Y-100321822D01*
X112520000Y-98104801D01*
X112894792Y-97730010D01*
X117622668Y-97730010D01*
X117659990Y-97733686D01*
X117697312Y-97730010D01*
X117697323Y-97730010D01*
X117808976Y-97719013D01*
X117952237Y-97675556D01*
X118084266Y-97604984D01*
X118199991Y-97510011D01*
X118223794Y-97481007D01*
X121161004Y-94543798D01*
X121190001Y-94520001D01*
X121284974Y-94404276D01*
X121355546Y-94272247D01*
X121399003Y-94128986D01*
X121410000Y-94017333D01*
X121410000Y-94017325D01*
X121413676Y-93980000D01*
X121410000Y-93942675D01*
X121410000Y-91477322D01*
X121413676Y-91439999D01*
X121410000Y-91402676D01*
X121410000Y-91402667D01*
X121399003Y-91291014D01*
X121355546Y-91147753D01*
X121284974Y-91015724D01*
X121227380Y-90945545D01*
X121213799Y-90928996D01*
X121213795Y-90928992D01*
X121190001Y-90899999D01*
X121161008Y-90876205D01*
X119551210Y-89266408D01*
X119595000Y-89046260D01*
X119595000Y-88753740D01*
X119537932Y-88466842D01*
X119425990Y-88196589D01*
X119263475Y-87953368D01*
X119131620Y-87821513D01*
X119204180Y-87799502D01*
X119314494Y-87740537D01*
X119411185Y-87661185D01*
X119490537Y-87564494D01*
X119549502Y-87454180D01*
X119585812Y-87334482D01*
X119598072Y-87210000D01*
X119595000Y-86645750D01*
X119436250Y-86487000D01*
X118237000Y-86487000D01*
X118237000Y-86507000D01*
X117983000Y-86507000D01*
X117983000Y-86487000D01*
X117963000Y-86487000D01*
X117963000Y-86233000D01*
X117983000Y-86233000D01*
X117983000Y-86213000D01*
X118237000Y-86213000D01*
X118237000Y-86233000D01*
X119436250Y-86233000D01*
X119595000Y-86074250D01*
X119598072Y-85510000D01*
X119585812Y-85385518D01*
X119549502Y-85265820D01*
X119490537Y-85155506D01*
X119411185Y-85058815D01*
X119314494Y-84979463D01*
X119204180Y-84920498D01*
X119084482Y-84884188D01*
X118960000Y-84871928D01*
X118395750Y-84875000D01*
X118237002Y-85033748D01*
X118237002Y-84875000D01*
X118129802Y-84875000D01*
X122431004Y-80573798D01*
X122460001Y-80550001D01*
X122517961Y-80479377D01*
X122554974Y-80434277D01*
X122625546Y-80302247D01*
X122648978Y-80225000D01*
X122669003Y-80158986D01*
X122680000Y-80047333D01*
X122680000Y-80047323D01*
X122683676Y-80010000D01*
X122680000Y-79972677D01*
X122680000Y-77507325D01*
X122683676Y-77470000D01*
X122680000Y-77432675D01*
X122680000Y-77432667D01*
X122669003Y-77321014D01*
X122625546Y-77177753D01*
X122554974Y-77045724D01*
X122460001Y-76929999D01*
X122431003Y-76906201D01*
X119812789Y-74287988D01*
X119920001Y-74200001D01*
X119943804Y-74170997D01*
X121161003Y-72953799D01*
X121190001Y-72930001D01*
X121284974Y-72814276D01*
X121355546Y-72682247D01*
X121399003Y-72538986D01*
X121410000Y-72427333D01*
X121410000Y-72427324D01*
X121413676Y-72390001D01*
X121410000Y-72352678D01*
X121410000Y-67347322D01*
X121413676Y-67309999D01*
X121410000Y-67272676D01*
X121410000Y-67272667D01*
X121399003Y-67161014D01*
X121355546Y-67017753D01*
X121284975Y-66885725D01*
X121284974Y-66885723D01*
X121213799Y-66798997D01*
X121190001Y-66769999D01*
X121161004Y-66746202D01*
X115741209Y-61326408D01*
X115785000Y-61106260D01*
X115785000Y-60813740D01*
X115727932Y-60526842D01*
X115615990Y-60256589D01*
X115453475Y-60013368D01*
X115246632Y-59806525D01*
X115003411Y-59644010D01*
X114733158Y-59532068D01*
X114446260Y-59475000D01*
X114153740Y-59475000D01*
X113866842Y-59532068D01*
X113596589Y-59644010D01*
X113353368Y-59806525D01*
X113221513Y-59938380D01*
X113199502Y-59865820D01*
X113140537Y-59755506D01*
X113061185Y-59658815D01*
X112964494Y-59579463D01*
X112854180Y-59520498D01*
X112734482Y-59484188D01*
X112610000Y-59471928D01*
X112045750Y-59475000D01*
X111887000Y-59633750D01*
X111887000Y-60833000D01*
X111907000Y-60833000D01*
X111907000Y-61087000D01*
X111887000Y-61087000D01*
X111887000Y-62286250D01*
X112045750Y-62445000D01*
X112610000Y-62448072D01*
X112734482Y-62435812D01*
X112854180Y-62399502D01*
X112964494Y-62340537D01*
X113061185Y-62261185D01*
X113140537Y-62164494D01*
X113199502Y-62054180D01*
X113221513Y-61981620D01*
X113353368Y-62113475D01*
X113596589Y-62275990D01*
X113866842Y-62387932D01*
X114153740Y-62445000D01*
X114446260Y-62445000D01*
X114666408Y-62401209D01*
X119890000Y-67624802D01*
X119890001Y-72075197D01*
X119257653Y-72707546D01*
X119131620Y-72581513D01*
X119204180Y-72559502D01*
X119314494Y-72500537D01*
X119411185Y-72421185D01*
X119490537Y-72324494D01*
X119549502Y-72214180D01*
X119585812Y-72094482D01*
X119598072Y-71970000D01*
X119595000Y-71405750D01*
X119436250Y-71247000D01*
X118237000Y-71247000D01*
X118237000Y-71267000D01*
X117983000Y-71267000D01*
X117983000Y-71247000D01*
X117963000Y-71247000D01*
X117963000Y-70993000D01*
X117983000Y-70993000D01*
X117983000Y-69793750D01*
X118237000Y-69793750D01*
X118237000Y-70993000D01*
X119436250Y-70993000D01*
X119595000Y-70834250D01*
X119598072Y-70270000D01*
X119585812Y-70145518D01*
X119549502Y-70025820D01*
X119490537Y-69915506D01*
X119411185Y-69818815D01*
X119314494Y-69739463D01*
X119204180Y-69680498D01*
X119084482Y-69644188D01*
X118960000Y-69631928D01*
X118395750Y-69635000D01*
X118237000Y-69793750D01*
X117983000Y-69793750D01*
X117824250Y-69635000D01*
X117260000Y-69631928D01*
X117135518Y-69644188D01*
X117015820Y-69680498D01*
X116905506Y-69739463D01*
X116808815Y-69818815D01*
X116729463Y-69915506D01*
X116670498Y-70025820D01*
X116648487Y-70098380D01*
X116516632Y-69966525D01*
X116273411Y-69804010D01*
X116003158Y-69692068D01*
X115716260Y-69635000D01*
X115423740Y-69635000D01*
X115198771Y-69679749D01*
X115144277Y-69635027D01*
X115012248Y-69564455D01*
X114868987Y-69520998D01*
X114757334Y-69510001D01*
X114757323Y-69510001D01*
X114720001Y-69506325D01*
X114682679Y-69510001D01*
X108049124Y-69510001D01*
X108095000Y-69279365D01*
X108095000Y-69000635D01*
X108040623Y-68727260D01*
X107933957Y-68469746D01*
X107779103Y-68237990D01*
X107582010Y-68040897D01*
X107350254Y-67886043D01*
X107311523Y-67870000D01*
X107350254Y-67853957D01*
X107582010Y-67699103D01*
X107779103Y-67502010D01*
X107933957Y-67270254D01*
X108040623Y-67012740D01*
X108095000Y-66739365D01*
X108095000Y-66460635D01*
X108040623Y-66187260D01*
X107933957Y-65929746D01*
X107779103Y-65697990D01*
X107582010Y-65500897D01*
X107350254Y-65346043D01*
X107314475Y-65331223D01*
X107409655Y-65280349D01*
X107478816Y-65038421D01*
X106680000Y-64239605D01*
X105881184Y-65038421D01*
X105950345Y-65280349D01*
X106052279Y-65328425D01*
X106009746Y-65346043D01*
X105777990Y-65500897D01*
X105580897Y-65697990D01*
X105426043Y-65929746D01*
X105319377Y-66187260D01*
X105265000Y-66460635D01*
X105265000Y-66739365D01*
X105319377Y-67012740D01*
X105426043Y-67270254D01*
X105580897Y-67502010D01*
X105777990Y-67699103D01*
X106009746Y-67853957D01*
X106048477Y-67870000D01*
X106009746Y-67886043D01*
X105777990Y-68040897D01*
X105580897Y-68237990D01*
X105426043Y-68469746D01*
X105319377Y-68727260D01*
X105265000Y-69000635D01*
X105265000Y-69279365D01*
X105310876Y-69510001D01*
X87804803Y-69510001D01*
X82698072Y-64403271D01*
X82698072Y-64131303D01*
X105259943Y-64131303D01*
X105301140Y-64406972D01*
X105395325Y-64669308D01*
X105459651Y-64789655D01*
X105701579Y-64858816D01*
X106500395Y-64060000D01*
X106859605Y-64060000D01*
X107658421Y-64858816D01*
X107900349Y-64789655D01*
X108019248Y-64537557D01*
X108086681Y-64267106D01*
X108100057Y-63988697D01*
X108058860Y-63713028D01*
X107964675Y-63450692D01*
X107900349Y-63330345D01*
X107658421Y-63261184D01*
X106859605Y-64060000D01*
X106500395Y-64060000D01*
X105701579Y-63261184D01*
X105459651Y-63330345D01*
X105340752Y-63582443D01*
X105273319Y-63852894D01*
X105259943Y-64131303D01*
X82698072Y-64131303D01*
X82698072Y-63280000D01*
X82685812Y-63155518D01*
X82663383Y-63081579D01*
X105881184Y-63081579D01*
X106680000Y-63880395D01*
X107478816Y-63081579D01*
X107409655Y-62839651D01*
X107157557Y-62720752D01*
X106887106Y-62653319D01*
X106608697Y-62639943D01*
X106333028Y-62681140D01*
X106070692Y-62775325D01*
X105950345Y-62839651D01*
X105881184Y-63081579D01*
X82663383Y-63081579D01*
X82649502Y-63035820D01*
X82590537Y-62925506D01*
X82511185Y-62828815D01*
X82414494Y-62749463D01*
X82304180Y-62690498D01*
X82184482Y-62654188D01*
X82060000Y-62641928D01*
X82040000Y-62641928D01*
X82040000Y-62267322D01*
X82043676Y-62229999D01*
X82040000Y-62192676D01*
X82040000Y-62192667D01*
X82029003Y-62081014D01*
X81985546Y-61937753D01*
X81917260Y-61810000D01*
X110271928Y-61810000D01*
X110284188Y-61934482D01*
X110320498Y-62054180D01*
X110379463Y-62164494D01*
X110458815Y-62261185D01*
X110555506Y-62340537D01*
X110665820Y-62399502D01*
X110785518Y-62435812D01*
X110910000Y-62448072D01*
X111474250Y-62445000D01*
X111633000Y-62286250D01*
X111633000Y-61087000D01*
X110433750Y-61087000D01*
X110275000Y-61245750D01*
X110271928Y-61810000D01*
X81917260Y-61810000D01*
X81914974Y-61805724D01*
X81820001Y-61689999D01*
X81791003Y-61666201D01*
X80234802Y-60110000D01*
X110271928Y-60110000D01*
X110275000Y-60674250D01*
X110433750Y-60833000D01*
X111633000Y-60833000D01*
X111633000Y-59633750D01*
X111474250Y-59475000D01*
X110910000Y-59471928D01*
X110785518Y-59484188D01*
X110665820Y-59520498D01*
X110555506Y-59579463D01*
X110458815Y-59658815D01*
X110379463Y-59755506D01*
X110320498Y-59865820D01*
X110284188Y-59985518D01*
X110271928Y-60110000D01*
X80234802Y-60110000D01*
X75588803Y-55464002D01*
X75565000Y-55434998D01*
X75449275Y-55340025D01*
X75317246Y-55269453D01*
X75173985Y-55225996D01*
X75146783Y-55223317D01*
X75145000Y-54895750D01*
X74986250Y-54737000D01*
X73787000Y-54737000D01*
X73787000Y-54757000D01*
X73533000Y-54757000D01*
X73533000Y-54737000D01*
X73513000Y-54737000D01*
X73513000Y-54483000D01*
X73533000Y-54483000D01*
X73533000Y-53283750D01*
X73787000Y-53283750D01*
X73787000Y-54483000D01*
X74986250Y-54483000D01*
X75145000Y-54324250D01*
X75148072Y-53760000D01*
X75135812Y-53635518D01*
X75099502Y-53515820D01*
X75040537Y-53405506D01*
X74961185Y-53308815D01*
X74864494Y-53229463D01*
X74754180Y-53170498D01*
X74634482Y-53134188D01*
X74510000Y-53121928D01*
X73945750Y-53125000D01*
X73787000Y-53283750D01*
X73533000Y-53283750D01*
X73374250Y-53125000D01*
X72810000Y-53121928D01*
X72685518Y-53134188D01*
X72565820Y-53170498D01*
X72455506Y-53229463D01*
X72358815Y-53308815D01*
X72279463Y-53405506D01*
X72220498Y-53515820D01*
X72198487Y-53588380D01*
X72066632Y-53456525D01*
X71823411Y-53294010D01*
X71553158Y-53182068D01*
X71266260Y-53125000D01*
X70973740Y-53125000D01*
X70686842Y-53182068D01*
X70416589Y-53294010D01*
X70173368Y-53456525D01*
X69966525Y-53663368D01*
X69804010Y-53906589D01*
X69692068Y-54176842D01*
X69635000Y-54463740D01*
X69635000Y-54756260D01*
X69678790Y-54976408D01*
X60449003Y-64206196D01*
X60419999Y-64229999D01*
X60364871Y-64297174D01*
X60325026Y-64345724D01*
X60292288Y-64406972D01*
X60254454Y-64477754D01*
X60210997Y-64621015D01*
X60200000Y-64732668D01*
X60200000Y-64732678D01*
X60196324Y-64770000D01*
X60200000Y-64807323D01*
X60200001Y-69812658D01*
X60200000Y-69812668D01*
X60200001Y-71421430D01*
X60196324Y-71458762D01*
X60200001Y-71496095D01*
X60204747Y-71544276D01*
X60210998Y-71607747D01*
X60254454Y-71751008D01*
X60325026Y-71883038D01*
X60392886Y-71965725D01*
X60420000Y-71998763D01*
X60448998Y-72022561D01*
X61166045Y-72739609D01*
X61148023Y-72757631D01*
X61264433Y-72874041D01*
X61024344Y-72941020D01*
X60907244Y-73190048D01*
X60840977Y-73457135D01*
X60828090Y-73732017D01*
X60869078Y-74004133D01*
X60962364Y-74263023D01*
X61024344Y-74378980D01*
X61264435Y-74445960D01*
X62050395Y-73660000D01*
X62036253Y-73645858D01*
X62215858Y-73466253D01*
X62230000Y-73480395D01*
X62244143Y-73466253D01*
X62423748Y-73645858D01*
X62409605Y-73660000D01*
X63195565Y-74445960D01*
X63435656Y-74378980D01*
X63450779Y-74346819D01*
X64010000Y-74906040D01*
X64010001Y-83505196D01*
X63627000Y-83888197D01*
X63627000Y-83682408D01*
X63573314Y-83412510D01*
X63468005Y-83158273D01*
X63315120Y-82929465D01*
X63120535Y-82734880D01*
X62891727Y-82581995D01*
X62814485Y-82550000D01*
X62891727Y-82518005D01*
X63120535Y-82365120D01*
X63315120Y-82170535D01*
X63468005Y-81941727D01*
X63573314Y-81687490D01*
X63627000Y-81417592D01*
X63627000Y-81142408D01*
X63573314Y-80872510D01*
X63468005Y-80618273D01*
X63315120Y-80389465D01*
X63120535Y-80194880D01*
X62891727Y-80041995D01*
X62814485Y-80010000D01*
X62891727Y-79978005D01*
X63120535Y-79825120D01*
X63315120Y-79630535D01*
X63468005Y-79401727D01*
X63573314Y-79147490D01*
X63627000Y-78877592D01*
X63627000Y-78602408D01*
X63573314Y-78332510D01*
X63468005Y-78078273D01*
X63315120Y-77849465D01*
X63120535Y-77654880D01*
X62891727Y-77501995D01*
X62814485Y-77470000D01*
X62891727Y-77438005D01*
X63120535Y-77285120D01*
X63315120Y-77090535D01*
X63468005Y-76861727D01*
X63573314Y-76607490D01*
X63627000Y-76337592D01*
X63627000Y-76062408D01*
X63573314Y-75792510D01*
X63468005Y-75538273D01*
X63315120Y-75309465D01*
X63120535Y-75114880D01*
X62891727Y-74961995D01*
X62820057Y-74932308D01*
X62833023Y-74927636D01*
X62948980Y-74865656D01*
X63015960Y-74625565D01*
X62230000Y-73839605D01*
X61444040Y-74625565D01*
X61511020Y-74865656D01*
X61646760Y-74929485D01*
X61568273Y-74961995D01*
X61339465Y-75114880D01*
X61144880Y-75309465D01*
X61057659Y-75440000D01*
X57368072Y-75440000D01*
X57368072Y-75350000D01*
X57355812Y-75225518D01*
X57319502Y-75105820D01*
X57260537Y-74995506D01*
X57181185Y-74898815D01*
X57084494Y-74819463D01*
X56974180Y-74760498D01*
X56854482Y-74724188D01*
X56730000Y-74711928D01*
X55030000Y-74711928D01*
X54905518Y-74724188D01*
X54785820Y-74760498D01*
X54675506Y-74819463D01*
X54578815Y-74898815D01*
X54499463Y-74995506D01*
X54440498Y-75105820D01*
X54404188Y-75225518D01*
X54391928Y-75350000D01*
X53467000Y-75350000D01*
X53467000Y-52197000D01*
X123063000Y-52197000D01*
X123063000Y-115443000D01*
%TA.AperFunction,Conductor*%
D18*
G36*
X123063000Y-115443000D02*
G01*
X53467000Y-115443000D01*
X53467000Y-111455565D01*
X61444040Y-111455565D01*
X61511020Y-111695656D01*
X61760048Y-111812756D01*
X62027135Y-111879023D01*
X62302017Y-111891910D01*
X62574133Y-111850922D01*
X62833023Y-111757636D01*
X62948980Y-111695656D01*
X63015960Y-111455565D01*
X62230000Y-110669605D01*
X61444040Y-111455565D01*
X53467000Y-111455565D01*
X53467000Y-110562017D01*
X60828090Y-110562017D01*
X60869078Y-110834133D01*
X60962364Y-111093023D01*
X61024344Y-111208980D01*
X61264435Y-111275960D01*
X62050395Y-110490000D01*
X62409605Y-110490000D01*
X63195565Y-111275960D01*
X63435656Y-111208980D01*
X63552756Y-110959952D01*
X63619023Y-110692865D01*
X63631910Y-110417983D01*
X63590922Y-110145867D01*
X63497636Y-109886977D01*
X63435656Y-109771020D01*
X63195565Y-109704040D01*
X62409605Y-110490000D01*
X62050395Y-110490000D01*
X61264435Y-109704040D01*
X61024344Y-109771020D01*
X60907244Y-110020048D01*
X60840977Y-110287135D01*
X60828090Y-110562017D01*
X53467000Y-110562017D01*
X53467000Y-88972017D01*
X60828090Y-88972017D01*
X60869078Y-89244133D01*
X60962364Y-89503023D01*
X61024344Y-89618980D01*
X61264435Y-89685960D01*
X62050395Y-88900000D01*
X61264435Y-88114040D01*
X61024344Y-88181020D01*
X60907244Y-88430048D01*
X60840977Y-88697135D01*
X60828090Y-88972017D01*
X53467000Y-88972017D01*
X53467000Y-75350000D01*
X54391928Y-75350000D01*
X54391928Y-77050000D01*
X54404188Y-77174482D01*
X54440498Y-77294180D01*
X54499463Y-77404494D01*
X54578815Y-77501185D01*
X54675506Y-77580537D01*
X54785820Y-77639502D01*
X54858380Y-77661513D01*
X54726525Y-77793368D01*
X54564010Y-78036589D01*
X54452068Y-78306842D01*
X54395000Y-78593740D01*
X54395000Y-78886260D01*
X54452068Y-79173158D01*
X54564010Y-79443411D01*
X54726525Y-79686632D01*
X54933368Y-79893475D01*
X55107760Y-80010000D01*
X54933368Y-80126525D01*
X54726525Y-80333368D01*
X54564010Y-80576589D01*
X54452068Y-80846842D01*
X54395000Y-81133740D01*
X54395000Y-81426260D01*
X54452068Y-81713158D01*
X54564010Y-81983411D01*
X54726525Y-82226632D01*
X54933368Y-82433475D01*
X55107760Y-82550000D01*
X54933368Y-82666525D01*
X54726525Y-82873368D01*
X54564010Y-83116589D01*
X54452068Y-83386842D01*
X54395000Y-83673740D01*
X54395000Y-83966260D01*
X54452068Y-84253158D01*
X54564010Y-84523411D01*
X54726525Y-84766632D01*
X54933368Y-84973475D01*
X55176589Y-85135990D01*
X55446842Y-85247932D01*
X55733740Y-85305000D01*
X56026260Y-85305000D01*
X56313158Y-85247932D01*
X56583411Y-85135990D01*
X56826632Y-84973475D01*
X57033475Y-84766632D01*
X57158178Y-84580000D01*
X61057659Y-84580000D01*
X61144880Y-84710535D01*
X61339465Y-84905120D01*
X61568273Y-85058005D01*
X61645515Y-85090000D01*
X61568273Y-85121995D01*
X61339465Y-85274880D01*
X61144880Y-85469465D01*
X60991995Y-85698273D01*
X60886686Y-85952510D01*
X60833000Y-86222408D01*
X60833000Y-86497592D01*
X60886686Y-86767490D01*
X60991995Y-87021727D01*
X61144880Y-87250535D01*
X61339465Y-87445120D01*
X61568273Y-87598005D01*
X61639943Y-87627692D01*
X61626977Y-87632364D01*
X61511020Y-87694344D01*
X61444040Y-87934435D01*
X62230000Y-88720395D01*
X62244143Y-88706253D01*
X62423748Y-88885858D01*
X62409605Y-88900000D01*
X62423748Y-88914143D01*
X62244143Y-89093748D01*
X62230000Y-89079605D01*
X61444040Y-89865565D01*
X61511020Y-90105656D01*
X61543181Y-90120779D01*
X60970764Y-90693197D01*
X60941760Y-90717000D01*
X60890058Y-90780000D01*
X60846787Y-90832725D01*
X60833369Y-90857828D01*
X60631997Y-91059200D01*
X60602999Y-91082998D01*
X60579201Y-91111996D01*
X60579200Y-91111997D01*
X60508025Y-91198723D01*
X60437453Y-91330753D01*
X60407179Y-91430557D01*
X60393997Y-91474013D01*
X60383904Y-91576484D01*
X60379323Y-91622999D01*
X60383000Y-91660331D01*
X60382999Y-93194438D01*
X60379323Y-93231761D01*
X60382999Y-93269083D01*
X60382999Y-93269093D01*
X60393996Y-93380746D01*
X60422186Y-93473676D01*
X60437453Y-93524007D01*
X60508025Y-93656037D01*
X60518068Y-93668274D01*
X60602998Y-93771762D01*
X60632001Y-93795564D01*
X61144439Y-94308003D01*
X61163917Y-94331737D01*
X61148023Y-94347631D01*
X61264433Y-94464041D01*
X61024344Y-94531020D01*
X60907244Y-94780048D01*
X60840977Y-95047135D01*
X60828090Y-95322017D01*
X60869078Y-95594133D01*
X60962364Y-95853023D01*
X61024344Y-95968980D01*
X61264435Y-96035960D01*
X62050395Y-95250000D01*
X62036253Y-95235858D01*
X62215858Y-95056253D01*
X62230000Y-95070395D01*
X62244143Y-95056253D01*
X62423748Y-95235858D01*
X62409605Y-95250000D01*
X63195565Y-96035960D01*
X63435656Y-95968980D01*
X63545075Y-95736287D01*
X64829991Y-97021203D01*
X64829990Y-104275207D01*
X63627000Y-105478198D01*
X63627000Y-105272408D01*
X63573314Y-105002510D01*
X63468005Y-104748273D01*
X63315120Y-104519465D01*
X63120535Y-104324880D01*
X62891727Y-104171995D01*
X62814485Y-104140000D01*
X62891727Y-104108005D01*
X63120535Y-103955120D01*
X63315120Y-103760535D01*
X63468005Y-103531727D01*
X63573314Y-103277490D01*
X63627000Y-103007592D01*
X63627000Y-102732408D01*
X63573314Y-102462510D01*
X63468005Y-102208273D01*
X63315120Y-101979465D01*
X63120535Y-101784880D01*
X62891727Y-101631995D01*
X62814485Y-101600000D01*
X62891727Y-101568005D01*
X63120535Y-101415120D01*
X63315120Y-101220535D01*
X63468005Y-100991727D01*
X63573314Y-100737490D01*
X63627000Y-100467592D01*
X63627000Y-100192408D01*
X63573314Y-99922510D01*
X63468005Y-99668273D01*
X63315120Y-99439465D01*
X63120535Y-99244880D01*
X62891727Y-99091995D01*
X62814485Y-99060000D01*
X62891727Y-99028005D01*
X63120535Y-98875120D01*
X63315120Y-98680535D01*
X63468005Y-98451727D01*
X63573314Y-98197490D01*
X63627000Y-97927592D01*
X63627000Y-97652408D01*
X63573314Y-97382510D01*
X63468005Y-97128273D01*
X63315120Y-96899465D01*
X63120535Y-96704880D01*
X62891727Y-96551995D01*
X62820057Y-96522308D01*
X62833023Y-96517636D01*
X62948980Y-96455656D01*
X63015960Y-96215565D01*
X62230000Y-95429605D01*
X61444040Y-96215565D01*
X61511020Y-96455656D01*
X61646760Y-96519485D01*
X61568273Y-96551995D01*
X61339465Y-96704880D01*
X61144880Y-96899465D01*
X61057659Y-97030000D01*
X57368072Y-97030000D01*
X57368072Y-96940000D01*
X57355812Y-96815518D01*
X57319502Y-96695820D01*
X57260537Y-96585506D01*
X57181185Y-96488815D01*
X57084494Y-96409463D01*
X56974180Y-96350498D01*
X56854482Y-96314188D01*
X56730000Y-96301928D01*
X55030000Y-96301928D01*
X54905518Y-96314188D01*
X54785820Y-96350498D01*
X54675506Y-96409463D01*
X54578815Y-96488815D01*
X54499463Y-96585506D01*
X54440498Y-96695820D01*
X54404188Y-96815518D01*
X54391928Y-96940000D01*
X54391928Y-98640000D01*
X54404188Y-98764482D01*
X54440498Y-98884180D01*
X54499463Y-98994494D01*
X54578815Y-99091185D01*
X54675506Y-99170537D01*
X54785820Y-99229502D01*
X54858380Y-99251513D01*
X54726525Y-99383368D01*
X54564010Y-99626589D01*
X54452068Y-99896842D01*
X54395000Y-100183740D01*
X54395000Y-100476260D01*
X54452068Y-100763158D01*
X54564010Y-101033411D01*
X54726525Y-101276632D01*
X54933368Y-101483475D01*
X55107760Y-101600000D01*
X54933368Y-101716525D01*
X54726525Y-101923368D01*
X54564010Y-102166589D01*
X54452068Y-102436842D01*
X54395000Y-102723740D01*
X54395000Y-103016260D01*
X54452068Y-103303158D01*
X54564010Y-103573411D01*
X54726525Y-103816632D01*
X54933368Y-104023475D01*
X55107760Y-104140000D01*
X54933368Y-104256525D01*
X54726525Y-104463368D01*
X54564010Y-104706589D01*
X54452068Y-104976842D01*
X54395000Y-105263740D01*
X54395000Y-105556260D01*
X54452068Y-105843158D01*
X54564010Y-106113411D01*
X54726525Y-106356632D01*
X54933368Y-106563475D01*
X55176589Y-106725990D01*
X55446842Y-106837932D01*
X55733740Y-106895000D01*
X56026260Y-106895000D01*
X56313158Y-106837932D01*
X56583411Y-106725990D01*
X56826632Y-106563475D01*
X57033475Y-106356632D01*
X57158178Y-106170000D01*
X61057659Y-106170000D01*
X61144880Y-106300535D01*
X61339465Y-106495120D01*
X61568273Y-106648005D01*
X61645515Y-106680000D01*
X61568273Y-106711995D01*
X61339465Y-106864880D01*
X61144880Y-107059465D01*
X60991995Y-107288273D01*
X60886686Y-107542510D01*
X60833000Y-107812408D01*
X60833000Y-108087592D01*
X60886686Y-108357490D01*
X60991995Y-108611727D01*
X61144880Y-108840535D01*
X61339465Y-109035120D01*
X61568273Y-109188005D01*
X61639943Y-109217692D01*
X61626977Y-109222364D01*
X61511020Y-109284344D01*
X61444040Y-109524435D01*
X62230000Y-110310395D01*
X63015960Y-109524435D01*
X62948980Y-109284344D01*
X62813240Y-109220515D01*
X62891727Y-109188005D01*
X63120535Y-109035120D01*
X63315120Y-108840535D01*
X63468005Y-108611727D01*
X63573314Y-108357490D01*
X63627000Y-108087592D01*
X63627000Y-107812408D01*
X63596372Y-107658430D01*
X65412013Y-105842790D01*
X65472362Y-105916324D01*
X65500000Y-105950001D01*
X65528998Y-105973799D01*
X73546211Y-113991013D01*
X73570009Y-114020011D01*
X73599007Y-114043809D01*
X73685734Y-114114984D01*
X73817763Y-114185556D01*
X73961024Y-114229013D01*
X74110010Y-114243687D01*
X74147343Y-114240010D01*
X109369078Y-114240010D01*
X109406400Y-114243686D01*
X109443722Y-114240010D01*
X109443733Y-114240010D01*
X109555386Y-114229013D01*
X109698647Y-114185556D01*
X109830676Y-114114984D01*
X109946401Y-114020011D01*
X109970204Y-113991007D01*
X113541004Y-110420208D01*
X113570001Y-110396411D01*
X113664974Y-110280686D01*
X113735546Y-110148657D01*
X113779003Y-110005396D01*
X113790000Y-109893743D01*
X113790000Y-109893734D01*
X113793676Y-109856411D01*
X113790000Y-109819088D01*
X113790000Y-102994014D01*
X113795901Y-102996825D01*
X113943110Y-103041476D01*
X114173000Y-102920155D01*
X114173000Y-101727000D01*
X114153000Y-101727000D01*
X114153000Y-101473000D01*
X114173000Y-101473000D01*
X114173000Y-101453000D01*
X114427000Y-101453000D01*
X114427000Y-101473000D01*
X114447000Y-101473000D01*
X114447000Y-101727000D01*
X114427000Y-101727000D01*
X114427000Y-102920155D01*
X114656890Y-103041476D01*
X114804099Y-102996825D01*
X115066920Y-102871641D01*
X115300269Y-102697588D01*
X115495178Y-102481355D01*
X115564805Y-102364466D01*
X115686525Y-102546632D01*
X115893368Y-102753475D01*
X116136589Y-102915990D01*
X116406842Y-103027932D01*
X116693740Y-103085000D01*
X116986260Y-103085000D01*
X117273158Y-103027932D01*
X117543411Y-102915990D01*
X117786632Y-102753475D01*
X117918487Y-102621620D01*
X117940498Y-102694180D01*
X117999463Y-102804494D01*
X118078815Y-102901185D01*
X118175506Y-102980537D01*
X118285820Y-103039502D01*
X118405518Y-103075812D01*
X118530000Y-103088072D01*
X120230000Y-103088072D01*
X120354482Y-103075812D01*
X120474180Y-103039502D01*
X120584494Y-102980537D01*
X120681185Y-102901185D01*
X120760537Y-102804494D01*
X120819502Y-102694180D01*
X120855812Y-102574482D01*
X120868072Y-102450000D01*
X120868072Y-100750000D01*
X120855812Y-100625518D01*
X120819502Y-100505820D01*
X120760537Y-100395506D01*
X120681185Y-100298815D01*
X120584494Y-100219463D01*
X120474180Y-100160498D01*
X120354482Y-100124188D01*
X120230000Y-100111928D01*
X118530000Y-100111928D01*
X118405518Y-100124188D01*
X118285820Y-100160498D01*
X118175506Y-100219463D01*
X118078815Y-100298815D01*
X117999463Y-100395506D01*
X117940498Y-100505820D01*
X117918487Y-100578380D01*
X117786632Y-100446525D01*
X117543411Y-100284010D01*
X117273158Y-100172068D01*
X116986260Y-100115000D01*
X116693740Y-100115000D01*
X116473592Y-100158791D01*
X116133804Y-99819003D01*
X116110001Y-99789999D01*
X115994276Y-99695026D01*
X115862247Y-99624454D01*
X115718986Y-99580997D01*
X115607333Y-99570000D01*
X115607322Y-99570000D01*
X115570000Y-99566324D01*
X115532678Y-99570000D01*
X113868320Y-99570000D01*
X113830997Y-99566324D01*
X113793674Y-99570000D01*
X113793665Y-99570000D01*
X113682012Y-99580997D01*
X113538751Y-99624454D01*
X113406722Y-99695026D01*
X113290997Y-99789999D01*
X113267199Y-99818998D01*
X112666492Y-100419704D01*
X112520000Y-100321822D01*
X112520000Y-98104801D01*
X112894792Y-97730010D01*
X117622668Y-97730010D01*
X117659990Y-97733686D01*
X117697312Y-97730010D01*
X117697323Y-97730010D01*
X117808976Y-97719013D01*
X117952237Y-97675556D01*
X118084266Y-97604984D01*
X118199991Y-97510011D01*
X118223794Y-97481007D01*
X121161004Y-94543798D01*
X121190001Y-94520001D01*
X121284974Y-94404276D01*
X121355546Y-94272247D01*
X121399003Y-94128986D01*
X121410000Y-94017333D01*
X121410000Y-94017325D01*
X121413676Y-93980000D01*
X121410000Y-93942675D01*
X121410000Y-91477322D01*
X121413676Y-91439999D01*
X121410000Y-91402676D01*
X121410000Y-91402667D01*
X121399003Y-91291014D01*
X121355546Y-91147753D01*
X121284974Y-91015724D01*
X121227380Y-90945545D01*
X121213799Y-90928996D01*
X121213795Y-90928992D01*
X121190001Y-90899999D01*
X121161008Y-90876205D01*
X119551210Y-89266408D01*
X119595000Y-89046260D01*
X119595000Y-88753740D01*
X119537932Y-88466842D01*
X119425990Y-88196589D01*
X119263475Y-87953368D01*
X119131620Y-87821513D01*
X119204180Y-87799502D01*
X119314494Y-87740537D01*
X119411185Y-87661185D01*
X119490537Y-87564494D01*
X119549502Y-87454180D01*
X119585812Y-87334482D01*
X119598072Y-87210000D01*
X119595000Y-86645750D01*
X119436250Y-86487000D01*
X118237000Y-86487000D01*
X118237000Y-86507000D01*
X117983000Y-86507000D01*
X117983000Y-86487000D01*
X117963000Y-86487000D01*
X117963000Y-86233000D01*
X117983000Y-86233000D01*
X117983000Y-86213000D01*
X118237000Y-86213000D01*
X118237000Y-86233000D01*
X119436250Y-86233000D01*
X119595000Y-86074250D01*
X119598072Y-85510000D01*
X119585812Y-85385518D01*
X119549502Y-85265820D01*
X119490537Y-85155506D01*
X119411185Y-85058815D01*
X119314494Y-84979463D01*
X119204180Y-84920498D01*
X119084482Y-84884188D01*
X118960000Y-84871928D01*
X118395750Y-84875000D01*
X118237002Y-85033748D01*
X118237002Y-84875000D01*
X118129802Y-84875000D01*
X122431004Y-80573798D01*
X122460001Y-80550001D01*
X122517961Y-80479377D01*
X122554974Y-80434277D01*
X122625546Y-80302247D01*
X122648978Y-80225000D01*
X122669003Y-80158986D01*
X122680000Y-80047333D01*
X122680000Y-80047323D01*
X122683676Y-80010000D01*
X122680000Y-79972677D01*
X122680000Y-77507325D01*
X122683676Y-77470000D01*
X122680000Y-77432675D01*
X122680000Y-77432667D01*
X122669003Y-77321014D01*
X122625546Y-77177753D01*
X122554974Y-77045724D01*
X122460001Y-76929999D01*
X122431003Y-76906201D01*
X119812789Y-74287988D01*
X119920001Y-74200001D01*
X119943804Y-74170997D01*
X121161003Y-72953799D01*
X121190001Y-72930001D01*
X121284974Y-72814276D01*
X121355546Y-72682247D01*
X121399003Y-72538986D01*
X121410000Y-72427333D01*
X121410000Y-72427324D01*
X121413676Y-72390001D01*
X121410000Y-72352678D01*
X121410000Y-67347322D01*
X121413676Y-67309999D01*
X121410000Y-67272676D01*
X121410000Y-67272667D01*
X121399003Y-67161014D01*
X121355546Y-67017753D01*
X121284975Y-66885725D01*
X121284974Y-66885723D01*
X121213799Y-66798997D01*
X121190001Y-66769999D01*
X121161004Y-66746202D01*
X115741209Y-61326408D01*
X115785000Y-61106260D01*
X115785000Y-60813740D01*
X115727932Y-60526842D01*
X115615990Y-60256589D01*
X115453475Y-60013368D01*
X115246632Y-59806525D01*
X115003411Y-59644010D01*
X114733158Y-59532068D01*
X114446260Y-59475000D01*
X114153740Y-59475000D01*
X113866842Y-59532068D01*
X113596589Y-59644010D01*
X113353368Y-59806525D01*
X113221513Y-59938380D01*
X113199502Y-59865820D01*
X113140537Y-59755506D01*
X113061185Y-59658815D01*
X112964494Y-59579463D01*
X112854180Y-59520498D01*
X112734482Y-59484188D01*
X112610000Y-59471928D01*
X112045750Y-59475000D01*
X111887000Y-59633750D01*
X111887000Y-60833000D01*
X111907000Y-60833000D01*
X111907000Y-61087000D01*
X111887000Y-61087000D01*
X111887000Y-62286250D01*
X112045750Y-62445000D01*
X112610000Y-62448072D01*
X112734482Y-62435812D01*
X112854180Y-62399502D01*
X112964494Y-62340537D01*
X113061185Y-62261185D01*
X113140537Y-62164494D01*
X113199502Y-62054180D01*
X113221513Y-61981620D01*
X113353368Y-62113475D01*
X113596589Y-62275990D01*
X113866842Y-62387932D01*
X114153740Y-62445000D01*
X114446260Y-62445000D01*
X114666408Y-62401209D01*
X119890000Y-67624802D01*
X119890001Y-72075197D01*
X119257653Y-72707546D01*
X119131620Y-72581513D01*
X119204180Y-72559502D01*
X119314494Y-72500537D01*
X119411185Y-72421185D01*
X119490537Y-72324494D01*
X119549502Y-72214180D01*
X119585812Y-72094482D01*
X119598072Y-71970000D01*
X119595000Y-71405750D01*
X119436250Y-71247000D01*
X118237000Y-71247000D01*
X118237000Y-71267000D01*
X117983000Y-71267000D01*
X117983000Y-71247000D01*
X117963000Y-71247000D01*
X117963000Y-70993000D01*
X117983000Y-70993000D01*
X117983000Y-69793750D01*
X118237000Y-69793750D01*
X118237000Y-70993000D01*
X119436250Y-70993000D01*
X119595000Y-70834250D01*
X119598072Y-70270000D01*
X119585812Y-70145518D01*
X119549502Y-70025820D01*
X119490537Y-69915506D01*
X119411185Y-69818815D01*
X119314494Y-69739463D01*
X119204180Y-69680498D01*
X119084482Y-69644188D01*
X118960000Y-69631928D01*
X118395750Y-69635000D01*
X118237000Y-69793750D01*
X117983000Y-69793750D01*
X117824250Y-69635000D01*
X117260000Y-69631928D01*
X117135518Y-69644188D01*
X117015820Y-69680498D01*
X116905506Y-69739463D01*
X116808815Y-69818815D01*
X116729463Y-69915506D01*
X116670498Y-70025820D01*
X116648487Y-70098380D01*
X116516632Y-69966525D01*
X116273411Y-69804010D01*
X116003158Y-69692068D01*
X115716260Y-69635000D01*
X115423740Y-69635000D01*
X115198771Y-69679749D01*
X115144277Y-69635027D01*
X115012248Y-69564455D01*
X114868987Y-69520998D01*
X114757334Y-69510001D01*
X114757323Y-69510001D01*
X114720001Y-69506325D01*
X114682679Y-69510001D01*
X108049124Y-69510001D01*
X108095000Y-69279365D01*
X108095000Y-69000635D01*
X108040623Y-68727260D01*
X107933957Y-68469746D01*
X107779103Y-68237990D01*
X107582010Y-68040897D01*
X107350254Y-67886043D01*
X107311523Y-67870000D01*
X107350254Y-67853957D01*
X107582010Y-67699103D01*
X107779103Y-67502010D01*
X107933957Y-67270254D01*
X108040623Y-67012740D01*
X108095000Y-66739365D01*
X108095000Y-66460635D01*
X108040623Y-66187260D01*
X107933957Y-65929746D01*
X107779103Y-65697990D01*
X107582010Y-65500897D01*
X107350254Y-65346043D01*
X107314475Y-65331223D01*
X107409655Y-65280349D01*
X107478816Y-65038421D01*
X106680000Y-64239605D01*
X105881184Y-65038421D01*
X105950345Y-65280349D01*
X106052279Y-65328425D01*
X106009746Y-65346043D01*
X105777990Y-65500897D01*
X105580897Y-65697990D01*
X105426043Y-65929746D01*
X105319377Y-66187260D01*
X105265000Y-66460635D01*
X105265000Y-66739365D01*
X105319377Y-67012740D01*
X105426043Y-67270254D01*
X105580897Y-67502010D01*
X105777990Y-67699103D01*
X106009746Y-67853957D01*
X106048477Y-67870000D01*
X106009746Y-67886043D01*
X105777990Y-68040897D01*
X105580897Y-68237990D01*
X105426043Y-68469746D01*
X105319377Y-68727260D01*
X105265000Y-69000635D01*
X105265000Y-69279365D01*
X105310876Y-69510001D01*
X87804803Y-69510001D01*
X82698072Y-64403271D01*
X82698072Y-64131303D01*
X105259943Y-64131303D01*
X105301140Y-64406972D01*
X105395325Y-64669308D01*
X105459651Y-64789655D01*
X105701579Y-64858816D01*
X106500395Y-64060000D01*
X106859605Y-64060000D01*
X107658421Y-64858816D01*
X107900349Y-64789655D01*
X108019248Y-64537557D01*
X108086681Y-64267106D01*
X108100057Y-63988697D01*
X108058860Y-63713028D01*
X107964675Y-63450692D01*
X107900349Y-63330345D01*
X107658421Y-63261184D01*
X106859605Y-64060000D01*
X106500395Y-64060000D01*
X105701579Y-63261184D01*
X105459651Y-63330345D01*
X105340752Y-63582443D01*
X105273319Y-63852894D01*
X105259943Y-64131303D01*
X82698072Y-64131303D01*
X82698072Y-63280000D01*
X82685812Y-63155518D01*
X82663383Y-63081579D01*
X105881184Y-63081579D01*
X106680000Y-63880395D01*
X107478816Y-63081579D01*
X107409655Y-62839651D01*
X107157557Y-62720752D01*
X106887106Y-62653319D01*
X106608697Y-62639943D01*
X106333028Y-62681140D01*
X106070692Y-62775325D01*
X105950345Y-62839651D01*
X105881184Y-63081579D01*
X82663383Y-63081579D01*
X82649502Y-63035820D01*
X82590537Y-62925506D01*
X82511185Y-62828815D01*
X82414494Y-62749463D01*
X82304180Y-62690498D01*
X82184482Y-62654188D01*
X82060000Y-62641928D01*
X82040000Y-62641928D01*
X82040000Y-62267322D01*
X82043676Y-62229999D01*
X82040000Y-62192676D01*
X82040000Y-62192667D01*
X82029003Y-62081014D01*
X81985546Y-61937753D01*
X81917260Y-61810000D01*
X110271928Y-61810000D01*
X110284188Y-61934482D01*
X110320498Y-62054180D01*
X110379463Y-62164494D01*
X110458815Y-62261185D01*
X110555506Y-62340537D01*
X110665820Y-62399502D01*
X110785518Y-62435812D01*
X110910000Y-62448072D01*
X111474250Y-62445000D01*
X111633000Y-62286250D01*
X111633000Y-61087000D01*
X110433750Y-61087000D01*
X110275000Y-61245750D01*
X110271928Y-61810000D01*
X81917260Y-61810000D01*
X81914974Y-61805724D01*
X81820001Y-61689999D01*
X81791003Y-61666201D01*
X80234802Y-60110000D01*
X110271928Y-60110000D01*
X110275000Y-60674250D01*
X110433750Y-60833000D01*
X111633000Y-60833000D01*
X111633000Y-59633750D01*
X111474250Y-59475000D01*
X110910000Y-59471928D01*
X110785518Y-59484188D01*
X110665820Y-59520498D01*
X110555506Y-59579463D01*
X110458815Y-59658815D01*
X110379463Y-59755506D01*
X110320498Y-59865820D01*
X110284188Y-59985518D01*
X110271928Y-60110000D01*
X80234802Y-60110000D01*
X75588803Y-55464002D01*
X75565000Y-55434998D01*
X75449275Y-55340025D01*
X75317246Y-55269453D01*
X75173985Y-55225996D01*
X75146783Y-55223317D01*
X75145000Y-54895750D01*
X74986250Y-54737000D01*
X73787000Y-54737000D01*
X73787000Y-54757000D01*
X73533000Y-54757000D01*
X73533000Y-54737000D01*
X73513000Y-54737000D01*
X73513000Y-54483000D01*
X73533000Y-54483000D01*
X73533000Y-53283750D01*
X73787000Y-53283750D01*
X73787000Y-54483000D01*
X74986250Y-54483000D01*
X75145000Y-54324250D01*
X75148072Y-53760000D01*
X75135812Y-53635518D01*
X75099502Y-53515820D01*
X75040537Y-53405506D01*
X74961185Y-53308815D01*
X74864494Y-53229463D01*
X74754180Y-53170498D01*
X74634482Y-53134188D01*
X74510000Y-53121928D01*
X73945750Y-53125000D01*
X73787000Y-53283750D01*
X73533000Y-53283750D01*
X73374250Y-53125000D01*
X72810000Y-53121928D01*
X72685518Y-53134188D01*
X72565820Y-53170498D01*
X72455506Y-53229463D01*
X72358815Y-53308815D01*
X72279463Y-53405506D01*
X72220498Y-53515820D01*
X72198487Y-53588380D01*
X72066632Y-53456525D01*
X71823411Y-53294010D01*
X71553158Y-53182068D01*
X71266260Y-53125000D01*
X70973740Y-53125000D01*
X70686842Y-53182068D01*
X70416589Y-53294010D01*
X70173368Y-53456525D01*
X69966525Y-53663368D01*
X69804010Y-53906589D01*
X69692068Y-54176842D01*
X69635000Y-54463740D01*
X69635000Y-54756260D01*
X69678790Y-54976408D01*
X60449003Y-64206196D01*
X60419999Y-64229999D01*
X60364871Y-64297174D01*
X60325026Y-64345724D01*
X60292288Y-64406972D01*
X60254454Y-64477754D01*
X60210997Y-64621015D01*
X60200000Y-64732668D01*
X60200000Y-64732678D01*
X60196324Y-64770000D01*
X60200000Y-64807323D01*
X60200001Y-69812658D01*
X60200000Y-69812668D01*
X60200001Y-71421430D01*
X60196324Y-71458762D01*
X60200001Y-71496095D01*
X60204747Y-71544276D01*
X60210998Y-71607747D01*
X60254454Y-71751008D01*
X60325026Y-71883038D01*
X60392886Y-71965725D01*
X60420000Y-71998763D01*
X60448998Y-72022561D01*
X61166045Y-72739609D01*
X61148023Y-72757631D01*
X61264433Y-72874041D01*
X61024344Y-72941020D01*
X60907244Y-73190048D01*
X60840977Y-73457135D01*
X60828090Y-73732017D01*
X60869078Y-74004133D01*
X60962364Y-74263023D01*
X61024344Y-74378980D01*
X61264435Y-74445960D01*
X62050395Y-73660000D01*
X62036253Y-73645858D01*
X62215858Y-73466253D01*
X62230000Y-73480395D01*
X62244143Y-73466253D01*
X62423748Y-73645858D01*
X62409605Y-73660000D01*
X63195565Y-74445960D01*
X63435656Y-74378980D01*
X63450779Y-74346819D01*
X64010000Y-74906040D01*
X64010001Y-83505196D01*
X63627000Y-83888197D01*
X63627000Y-83682408D01*
X63573314Y-83412510D01*
X63468005Y-83158273D01*
X63315120Y-82929465D01*
X63120535Y-82734880D01*
X62891727Y-82581995D01*
X62814485Y-82550000D01*
X62891727Y-82518005D01*
X63120535Y-82365120D01*
X63315120Y-82170535D01*
X63468005Y-81941727D01*
X63573314Y-81687490D01*
X63627000Y-81417592D01*
X63627000Y-81142408D01*
X63573314Y-80872510D01*
X63468005Y-80618273D01*
X63315120Y-80389465D01*
X63120535Y-80194880D01*
X62891727Y-80041995D01*
X62814485Y-80010000D01*
X62891727Y-79978005D01*
X63120535Y-79825120D01*
X63315120Y-79630535D01*
X63468005Y-79401727D01*
X63573314Y-79147490D01*
X63627000Y-78877592D01*
X63627000Y-78602408D01*
X63573314Y-78332510D01*
X63468005Y-78078273D01*
X63315120Y-77849465D01*
X63120535Y-77654880D01*
X62891727Y-77501995D01*
X62814485Y-77470000D01*
X62891727Y-77438005D01*
X63120535Y-77285120D01*
X63315120Y-77090535D01*
X63468005Y-76861727D01*
X63573314Y-76607490D01*
X63627000Y-76337592D01*
X63627000Y-76062408D01*
X63573314Y-75792510D01*
X63468005Y-75538273D01*
X63315120Y-75309465D01*
X63120535Y-75114880D01*
X62891727Y-74961995D01*
X62820057Y-74932308D01*
X62833023Y-74927636D01*
X62948980Y-74865656D01*
X63015960Y-74625565D01*
X62230000Y-73839605D01*
X61444040Y-74625565D01*
X61511020Y-74865656D01*
X61646760Y-74929485D01*
X61568273Y-74961995D01*
X61339465Y-75114880D01*
X61144880Y-75309465D01*
X61057659Y-75440000D01*
X57368072Y-75440000D01*
X57368072Y-75350000D01*
X57355812Y-75225518D01*
X57319502Y-75105820D01*
X57260537Y-74995506D01*
X57181185Y-74898815D01*
X57084494Y-74819463D01*
X56974180Y-74760498D01*
X56854482Y-74724188D01*
X56730000Y-74711928D01*
X55030000Y-74711928D01*
X54905518Y-74724188D01*
X54785820Y-74760498D01*
X54675506Y-74819463D01*
X54578815Y-74898815D01*
X54499463Y-74995506D01*
X54440498Y-75105820D01*
X54404188Y-75225518D01*
X54391928Y-75350000D01*
X53467000Y-75350000D01*
X53467000Y-52197000D01*
X123063000Y-52197000D01*
X123063000Y-115443000D01*
G37*
%TD.AperFunction*%
D17*
X86926201Y-70781003D02*
X86950000Y-70810002D01*
X87065725Y-70904975D01*
X87197754Y-70975547D01*
X87341015Y-71019004D01*
X87452668Y-71030001D01*
X87452676Y-71030001D01*
X87490001Y-71033677D01*
X87527326Y-71030001D01*
X105417653Y-71030001D01*
X105319377Y-71267260D01*
X105265000Y-71540635D01*
X105265000Y-71819365D01*
X105319377Y-72092740D01*
X105426043Y-72350254D01*
X105580897Y-72582010D01*
X105777990Y-72779103D01*
X106009746Y-72933957D01*
X106048477Y-72950000D01*
X106009746Y-72966043D01*
X105777990Y-73120897D01*
X105580897Y-73317990D01*
X105426043Y-73549746D01*
X105319377Y-73807260D01*
X105265000Y-74080635D01*
X105265000Y-74359365D01*
X105319377Y-74632740D01*
X105426043Y-74890254D01*
X105580897Y-75122010D01*
X105777990Y-75319103D01*
X106009746Y-75473957D01*
X106048477Y-75490000D01*
X106009746Y-75506043D01*
X105777990Y-75660897D01*
X105580897Y-75857990D01*
X105426043Y-76089746D01*
X105319377Y-76347260D01*
X105265000Y-76620635D01*
X105265000Y-76899365D01*
X105319377Y-77172740D01*
X105426043Y-77430254D01*
X105580897Y-77662010D01*
X105777990Y-77859103D01*
X106009746Y-78013957D01*
X106045525Y-78028777D01*
X105950345Y-78079651D01*
X105881184Y-78321579D01*
X106680000Y-79120395D01*
X107478816Y-78321579D01*
X107409655Y-78079651D01*
X107307721Y-78031575D01*
X107350254Y-78013957D01*
X107582010Y-77859103D01*
X107779103Y-77662010D01*
X107933957Y-77430254D01*
X108040623Y-77172740D01*
X108095000Y-76899365D01*
X108095000Y-76620635D01*
X108040623Y-76347260D01*
X107933957Y-76089746D01*
X107779103Y-75857990D01*
X107582010Y-75660897D01*
X107350254Y-75506043D01*
X107311523Y-75490000D01*
X107350254Y-75473957D01*
X107582010Y-75319103D01*
X107779103Y-75122010D01*
X107933957Y-74890254D01*
X108040623Y-74632740D01*
X108095000Y-74359365D01*
X108095000Y-74080635D01*
X108040623Y-73807260D01*
X107933957Y-73549746D01*
X107779103Y-73317990D01*
X107582010Y-73120897D01*
X107350254Y-72966043D01*
X107311523Y-72950000D01*
X107350254Y-72933957D01*
X107582010Y-72779103D01*
X107779103Y-72582010D01*
X107933957Y-72350254D01*
X108040623Y-72092740D01*
X108095000Y-71819365D01*
X108095000Y-71540635D01*
X108040623Y-71267260D01*
X107942347Y-71030001D01*
X114085000Y-71030001D01*
X114085000Y-71266260D01*
X114142068Y-71553158D01*
X114254010Y-71823411D01*
X114416525Y-72066632D01*
X114623368Y-72273475D01*
X114797760Y-72390000D01*
X114623368Y-72506525D01*
X114416525Y-72713368D01*
X114291822Y-72900000D01*
X111797322Y-72900000D01*
X111759999Y-72896324D01*
X111722676Y-72900000D01*
X111722667Y-72900000D01*
X111611014Y-72910997D01*
X111467753Y-72954454D01*
X111335724Y-73025026D01*
X111335722Y-73025027D01*
X111335723Y-73025027D01*
X111248996Y-73096201D01*
X111248992Y-73096205D01*
X111219999Y-73119999D01*
X111196205Y-73148992D01*
X108708998Y-75636201D01*
X108680000Y-75659999D01*
X108656202Y-75688997D01*
X108656201Y-75688998D01*
X108585026Y-75775724D01*
X108514454Y-75907754D01*
X108470998Y-76051015D01*
X108456324Y-76200000D01*
X108460001Y-76237332D01*
X108460000Y-82235198D01*
X107481476Y-83213723D01*
X107350254Y-83126043D01*
X107311523Y-83110000D01*
X107350254Y-83093957D01*
X107582010Y-82939103D01*
X107779103Y-82742010D01*
X107933957Y-82510254D01*
X108040623Y-82252740D01*
X108095000Y-81979365D01*
X108095000Y-81700635D01*
X108040623Y-81427260D01*
X107933957Y-81169746D01*
X107779103Y-80937990D01*
X107582010Y-80740897D01*
X107350254Y-80586043D01*
X107314475Y-80571223D01*
X107409655Y-80520349D01*
X107478816Y-80278421D01*
X106680000Y-79479605D01*
X105881184Y-80278421D01*
X105950345Y-80520349D01*
X106052279Y-80568425D01*
X106009746Y-80586043D01*
X105777990Y-80740897D01*
X105580897Y-80937990D01*
X105426043Y-81169746D01*
X105319377Y-81427260D01*
X105265000Y-81700635D01*
X105265000Y-81979365D01*
X105319377Y-82252740D01*
X105426043Y-82510254D01*
X105580897Y-82742010D01*
X105777990Y-82939103D01*
X106009746Y-83093957D01*
X106048477Y-83110000D01*
X106009746Y-83126043D01*
X105777990Y-83280897D01*
X105580897Y-83477990D01*
X105426043Y-83709746D01*
X105319377Y-83967260D01*
X105265000Y-84240635D01*
X105265000Y-84519365D01*
X105319377Y-84792740D01*
X105426043Y-85050254D01*
X105580897Y-85282010D01*
X105777990Y-85479103D01*
X106009746Y-85633957D01*
X106048477Y-85650000D01*
X106009746Y-85666043D01*
X105777990Y-85820897D01*
X105580897Y-86017990D01*
X105426043Y-86249746D01*
X105319377Y-86507260D01*
X105265000Y-86780635D01*
X105265000Y-87059365D01*
X105319377Y-87332740D01*
X105426043Y-87590254D01*
X105580897Y-87822010D01*
X105777990Y-88019103D01*
X106009746Y-88173957D01*
X106048477Y-88190000D01*
X106009746Y-88206043D01*
X105777990Y-88360897D01*
X105580897Y-88557990D01*
X105426043Y-88789746D01*
X105319377Y-89047260D01*
X105265000Y-89320635D01*
X105265000Y-89599365D01*
X105319377Y-89872740D01*
X105426043Y-90130254D01*
X105580897Y-90362010D01*
X105777990Y-90559103D01*
X106009746Y-90713957D01*
X106048477Y-90730000D01*
X106009746Y-90746043D01*
X105777990Y-90900897D01*
X105580897Y-91097990D01*
X105426043Y-91329746D01*
X105319377Y-91587260D01*
X105265000Y-91860635D01*
X105265000Y-92139365D01*
X105319377Y-92412740D01*
X105426043Y-92670254D01*
X105580897Y-92902010D01*
X105777990Y-93099103D01*
X106009746Y-93253957D01*
X106048477Y-93270000D01*
X106009746Y-93286043D01*
X105777990Y-93440897D01*
X105580897Y-93637990D01*
X105426043Y-93869746D01*
X105319377Y-94127260D01*
X105265000Y-94400635D01*
X105265000Y-94679365D01*
X105319377Y-94952740D01*
X105426043Y-95210254D01*
X105580897Y-95442010D01*
X105777990Y-95639103D01*
X106009746Y-95793957D01*
X106048477Y-95810000D01*
X106009746Y-95826043D01*
X105777990Y-95980897D01*
X105580897Y-96177990D01*
X105426043Y-96409746D01*
X105319377Y-96667260D01*
X105265000Y-96940635D01*
X105265000Y-97219365D01*
X105319377Y-97492740D01*
X105426043Y-97750254D01*
X105580897Y-97982010D01*
X105777990Y-98179103D01*
X106009746Y-98333957D01*
X106048477Y-98350000D01*
X106009746Y-98366043D01*
X105777990Y-98520897D01*
X105580897Y-98717990D01*
X105426043Y-98949746D01*
X105319377Y-99207260D01*
X105265000Y-99480635D01*
X105265000Y-99759365D01*
X105319377Y-100032740D01*
X105426043Y-100290254D01*
X105580897Y-100522010D01*
X105777990Y-100719103D01*
X106009746Y-100873957D01*
X106048477Y-100890000D01*
X106009746Y-100906043D01*
X105777990Y-101060897D01*
X105580897Y-101257990D01*
X105426043Y-101489746D01*
X105319377Y-101747260D01*
X105265000Y-102020635D01*
X105265000Y-102299365D01*
X105319377Y-102572740D01*
X105426043Y-102830254D01*
X105580897Y-103062010D01*
X105777990Y-103259103D01*
X106009746Y-103413957D01*
X106048477Y-103430000D01*
X106009746Y-103446043D01*
X105777990Y-103600897D01*
X105580897Y-103797990D01*
X105426043Y-104029746D01*
X105319377Y-104287260D01*
X105265000Y-104560635D01*
X105265000Y-104839365D01*
X105319377Y-105112740D01*
X105426043Y-105370254D01*
X105580897Y-105602010D01*
X105777990Y-105799103D01*
X106009746Y-105953957D01*
X106048477Y-105970000D01*
X106009746Y-105986043D01*
X105777990Y-106140897D01*
X105580897Y-106337990D01*
X105426043Y-106569746D01*
X105319377Y-106827260D01*
X105265000Y-107100635D01*
X105265000Y-107379365D01*
X105319377Y-107652740D01*
X105426043Y-107910254D01*
X105580897Y-108142010D01*
X105777990Y-108339103D01*
X106009746Y-108493957D01*
X106048477Y-108510000D01*
X106009746Y-108526043D01*
X105777990Y-108680897D01*
X105580897Y-108877990D01*
X105426043Y-109109746D01*
X105319377Y-109367260D01*
X105265000Y-109640635D01*
X105265000Y-109919365D01*
X105319377Y-110192740D01*
X105426043Y-110450254D01*
X105580897Y-110682010D01*
X105777990Y-110879103D01*
X106009746Y-111033957D01*
X106267260Y-111140623D01*
X106540635Y-111195000D01*
X106819365Y-111195000D01*
X107092740Y-111140623D01*
X107350254Y-111033957D01*
X107582010Y-110879103D01*
X107779103Y-110682010D01*
X107933957Y-110450254D01*
X108040623Y-110192740D01*
X108095000Y-109919365D01*
X108095000Y-109640635D01*
X108040623Y-109367260D01*
X107933957Y-109109746D01*
X107779103Y-108877990D01*
X107582010Y-108680897D01*
X107350254Y-108526043D01*
X107311523Y-108510000D01*
X107350254Y-108493957D01*
X107582010Y-108339103D01*
X107779103Y-108142010D01*
X107933957Y-107910254D01*
X108040623Y-107652740D01*
X108095000Y-107379365D01*
X108095000Y-107100635D01*
X108040623Y-106827260D01*
X107933957Y-106569746D01*
X107779103Y-106337990D01*
X107582010Y-106140897D01*
X107350254Y-105986043D01*
X107311523Y-105970000D01*
X107350254Y-105953957D01*
X107582010Y-105799103D01*
X107779103Y-105602010D01*
X107933957Y-105370254D01*
X108040623Y-105112740D01*
X108095000Y-104839365D01*
X108095000Y-104560635D01*
X108040623Y-104287260D01*
X107933957Y-104029746D01*
X107779103Y-103797990D01*
X107582010Y-103600897D01*
X107350254Y-103446043D01*
X107311523Y-103430000D01*
X107350254Y-103413957D01*
X107582010Y-103259103D01*
X107779103Y-103062010D01*
X107933957Y-102830254D01*
X108040623Y-102572740D01*
X108095000Y-102299365D01*
X108095000Y-102020635D01*
X108061680Y-101853121D01*
X111000001Y-98914802D01*
X111000000Y-100321821D01*
X110813368Y-100446525D01*
X110606525Y-100653368D01*
X110444010Y-100896589D01*
X110332068Y-101166842D01*
X110275000Y-101453740D01*
X110275000Y-101746260D01*
X110332068Y-102033158D01*
X110444010Y-102303411D01*
X110606525Y-102546632D01*
X110813368Y-102753475D01*
X111000000Y-102878179D01*
X111000001Y-110175196D01*
X108905199Y-112270000D01*
X84844802Y-112270000D01*
X82661680Y-110086878D01*
X82695000Y-109919365D01*
X82695000Y-109640635D01*
X82640623Y-109367260D01*
X82533957Y-109109746D01*
X82379103Y-108877990D01*
X82182010Y-108680897D01*
X81950254Y-108526043D01*
X81911523Y-108510000D01*
X81950254Y-108493957D01*
X82182010Y-108339103D01*
X82379103Y-108142010D01*
X82533957Y-107910254D01*
X82640623Y-107652740D01*
X82695000Y-107379365D01*
X82695000Y-107100635D01*
X82640623Y-106827260D01*
X82533957Y-106569746D01*
X82379103Y-106337990D01*
X82182010Y-106140897D01*
X81950254Y-105986043D01*
X81911523Y-105970000D01*
X81950254Y-105953957D01*
X82182010Y-105799103D01*
X82379103Y-105602010D01*
X82533957Y-105370254D01*
X82640623Y-105112740D01*
X82695000Y-104839365D01*
X82695000Y-104560635D01*
X82640623Y-104287260D01*
X82533957Y-104029746D01*
X82379103Y-103797990D01*
X82182010Y-103600897D01*
X81950254Y-103446043D01*
X81911523Y-103430000D01*
X81950254Y-103413957D01*
X82182010Y-103259103D01*
X82379103Y-103062010D01*
X82533957Y-102830254D01*
X82640623Y-102572740D01*
X82695000Y-102299365D01*
X82695000Y-102020635D01*
X82640623Y-101747260D01*
X82533957Y-101489746D01*
X82379103Y-101257990D01*
X82182010Y-101060897D01*
X81950254Y-100906043D01*
X81911523Y-100890000D01*
X81950254Y-100873957D01*
X82182010Y-100719103D01*
X82379103Y-100522010D01*
X82533957Y-100290254D01*
X82640623Y-100032740D01*
X82695000Y-99759365D01*
X82695000Y-99480635D01*
X82640623Y-99207260D01*
X82533957Y-98949746D01*
X82379103Y-98717990D01*
X82182010Y-98520897D01*
X81950254Y-98366043D01*
X81914475Y-98351223D01*
X82009655Y-98300349D01*
X82078816Y-98058421D01*
X81280000Y-97259605D01*
X81265858Y-97273748D01*
X81086253Y-97094143D01*
X81100395Y-97080000D01*
X81086253Y-97065858D01*
X81265858Y-96886253D01*
X81280000Y-96900395D01*
X81294143Y-96886253D01*
X81473748Y-97065858D01*
X81459605Y-97080000D01*
X82258421Y-97878816D01*
X82500349Y-97809655D01*
X82619248Y-97557557D01*
X82686681Y-97287106D01*
X82700057Y-97008697D01*
X82658860Y-96733028D01*
X82564675Y-96470692D01*
X82503661Y-96356541D01*
X84331003Y-94529199D01*
X84360001Y-94505401D01*
X84454974Y-94389676D01*
X84525546Y-94257647D01*
X84569003Y-94114386D01*
X84580000Y-94002733D01*
X84580000Y-94002724D01*
X84583676Y-93965401D01*
X84580000Y-93928078D01*
X84580000Y-92941920D01*
X84583676Y-92904597D01*
X84580000Y-92867274D01*
X84580000Y-92867265D01*
X84569003Y-92755612D01*
X84525546Y-92612351D01*
X84454974Y-92480322D01*
X84360001Y-92364597D01*
X84331004Y-92340800D01*
X82374205Y-90384002D01*
X82366500Y-90374613D01*
X82379103Y-90362010D01*
X82533957Y-90130254D01*
X82640623Y-89872740D01*
X82695000Y-89599365D01*
X82695000Y-89320635D01*
X82640623Y-89047260D01*
X82533957Y-88789746D01*
X82379103Y-88557990D01*
X82182010Y-88360897D01*
X81950254Y-88206043D01*
X81911523Y-88190000D01*
X81950254Y-88173957D01*
X82182010Y-88019103D01*
X82379103Y-87822010D01*
X82533957Y-87590254D01*
X82640623Y-87332740D01*
X82695000Y-87059365D01*
X82695000Y-86780635D01*
X82640623Y-86507260D01*
X82533957Y-86249746D01*
X82379103Y-86017990D01*
X82182010Y-85820897D01*
X81950254Y-85666043D01*
X81911523Y-85650000D01*
X81950254Y-85633957D01*
X82182010Y-85479103D01*
X82379103Y-85282010D01*
X82533957Y-85050254D01*
X82640623Y-84792740D01*
X82695000Y-84519365D01*
X82695000Y-84240635D01*
X82640623Y-83967260D01*
X82533957Y-83709746D01*
X82379103Y-83477990D01*
X82182010Y-83280897D01*
X81950254Y-83126043D01*
X81911523Y-83110000D01*
X81950254Y-83093957D01*
X82182010Y-82939103D01*
X82379103Y-82742010D01*
X82533957Y-82510254D01*
X82640623Y-82252740D01*
X82695000Y-81979365D01*
X82695000Y-81700635D01*
X82640623Y-81427260D01*
X82533957Y-81169746D01*
X82379103Y-80937990D01*
X82182010Y-80740897D01*
X81950254Y-80586043D01*
X81911523Y-80570000D01*
X81950254Y-80553957D01*
X82182010Y-80399103D01*
X82379103Y-80202010D01*
X82533957Y-79970254D01*
X82640623Y-79712740D01*
X82695000Y-79439365D01*
X82695000Y-79371303D01*
X105259943Y-79371303D01*
X105301140Y-79646972D01*
X105395325Y-79909308D01*
X105459651Y-80029655D01*
X105701579Y-80098816D01*
X106500395Y-79300000D01*
X106859605Y-79300000D01*
X107658421Y-80098816D01*
X107900349Y-80029655D01*
X108019248Y-79777557D01*
X108086681Y-79507106D01*
X108100057Y-79228697D01*
X108058860Y-78953028D01*
X107964675Y-78690692D01*
X107900349Y-78570345D01*
X107658421Y-78501184D01*
X106859605Y-79300000D01*
X106500395Y-79300000D01*
X105701579Y-78501184D01*
X105459651Y-78570345D01*
X105340752Y-78822443D01*
X105273319Y-79092894D01*
X105259943Y-79371303D01*
X82695000Y-79371303D01*
X82695000Y-79160635D01*
X82640623Y-78887260D01*
X82533957Y-78629746D01*
X82379103Y-78397990D01*
X82182010Y-78200897D01*
X81950254Y-78046043D01*
X81911523Y-78030000D01*
X81950254Y-78013957D01*
X82182010Y-77859103D01*
X82379103Y-77662010D01*
X82533957Y-77430254D01*
X82640623Y-77172740D01*
X82695000Y-76899365D01*
X82695000Y-76620635D01*
X82640623Y-76347260D01*
X82533957Y-76089746D01*
X82379103Y-75857990D01*
X82182010Y-75660897D01*
X81950254Y-75506043D01*
X81911523Y-75490000D01*
X81950254Y-75473957D01*
X82182010Y-75319103D01*
X82379103Y-75122010D01*
X82533957Y-74890254D01*
X82640623Y-74632740D01*
X82695000Y-74359365D01*
X82695000Y-74080635D01*
X82640623Y-73807260D01*
X82533957Y-73549746D01*
X82379103Y-73317990D01*
X82182010Y-73120897D01*
X81950254Y-72966043D01*
X81911523Y-72950000D01*
X81950254Y-72933957D01*
X82182010Y-72779103D01*
X82379103Y-72582010D01*
X82533957Y-72350254D01*
X82640623Y-72092740D01*
X82695000Y-71819365D01*
X82695000Y-71540635D01*
X82640623Y-71267260D01*
X82533957Y-71009746D01*
X82379103Y-70777990D01*
X82182010Y-70580897D01*
X81950254Y-70426043D01*
X81911523Y-70410000D01*
X81950254Y-70393957D01*
X82182010Y-70239103D01*
X82379103Y-70042010D01*
X82533957Y-69810254D01*
X82640623Y-69552740D01*
X82695000Y-69279365D01*
X82695000Y-69000635D01*
X82640623Y-68727260D01*
X82533957Y-68469746D01*
X82379103Y-68237990D01*
X82182010Y-68040897D01*
X81950254Y-67886043D01*
X81911523Y-67870000D01*
X81950254Y-67853957D01*
X82182010Y-67699103D01*
X82379103Y-67502010D01*
X82533957Y-67270254D01*
X82640623Y-67012740D01*
X82695000Y-66739365D01*
X82695000Y-66549801D01*
X86926201Y-70781003D01*
%TA.AperFunction,Conductor*%
D18*
G36*
X86926201Y-70781003D02*
G01*
X86950000Y-70810002D01*
X87065725Y-70904975D01*
X87197754Y-70975547D01*
X87341015Y-71019004D01*
X87452668Y-71030001D01*
X87452676Y-71030001D01*
X87490001Y-71033677D01*
X87527326Y-71030001D01*
X105417653Y-71030001D01*
X105319377Y-71267260D01*
X105265000Y-71540635D01*
X105265000Y-71819365D01*
X105319377Y-72092740D01*
X105426043Y-72350254D01*
X105580897Y-72582010D01*
X105777990Y-72779103D01*
X106009746Y-72933957D01*
X106048477Y-72950000D01*
X106009746Y-72966043D01*
X105777990Y-73120897D01*
X105580897Y-73317990D01*
X105426043Y-73549746D01*
X105319377Y-73807260D01*
X105265000Y-74080635D01*
X105265000Y-74359365D01*
X105319377Y-74632740D01*
X105426043Y-74890254D01*
X105580897Y-75122010D01*
X105777990Y-75319103D01*
X106009746Y-75473957D01*
X106048477Y-75490000D01*
X106009746Y-75506043D01*
X105777990Y-75660897D01*
X105580897Y-75857990D01*
X105426043Y-76089746D01*
X105319377Y-76347260D01*
X105265000Y-76620635D01*
X105265000Y-76899365D01*
X105319377Y-77172740D01*
X105426043Y-77430254D01*
X105580897Y-77662010D01*
X105777990Y-77859103D01*
X106009746Y-78013957D01*
X106045525Y-78028777D01*
X105950345Y-78079651D01*
X105881184Y-78321579D01*
X106680000Y-79120395D01*
X107478816Y-78321579D01*
X107409655Y-78079651D01*
X107307721Y-78031575D01*
X107350254Y-78013957D01*
X107582010Y-77859103D01*
X107779103Y-77662010D01*
X107933957Y-77430254D01*
X108040623Y-77172740D01*
X108095000Y-76899365D01*
X108095000Y-76620635D01*
X108040623Y-76347260D01*
X107933957Y-76089746D01*
X107779103Y-75857990D01*
X107582010Y-75660897D01*
X107350254Y-75506043D01*
X107311523Y-75490000D01*
X107350254Y-75473957D01*
X107582010Y-75319103D01*
X107779103Y-75122010D01*
X107933957Y-74890254D01*
X108040623Y-74632740D01*
X108095000Y-74359365D01*
X108095000Y-74080635D01*
X108040623Y-73807260D01*
X107933957Y-73549746D01*
X107779103Y-73317990D01*
X107582010Y-73120897D01*
X107350254Y-72966043D01*
X107311523Y-72950000D01*
X107350254Y-72933957D01*
X107582010Y-72779103D01*
X107779103Y-72582010D01*
X107933957Y-72350254D01*
X108040623Y-72092740D01*
X108095000Y-71819365D01*
X108095000Y-71540635D01*
X108040623Y-71267260D01*
X107942347Y-71030001D01*
X114085000Y-71030001D01*
X114085000Y-71266260D01*
X114142068Y-71553158D01*
X114254010Y-71823411D01*
X114416525Y-72066632D01*
X114623368Y-72273475D01*
X114797760Y-72390000D01*
X114623368Y-72506525D01*
X114416525Y-72713368D01*
X114291822Y-72900000D01*
X111797322Y-72900000D01*
X111759999Y-72896324D01*
X111722676Y-72900000D01*
X111722667Y-72900000D01*
X111611014Y-72910997D01*
X111467753Y-72954454D01*
X111335724Y-73025026D01*
X111335722Y-73025027D01*
X111335723Y-73025027D01*
X111248996Y-73096201D01*
X111248992Y-73096205D01*
X111219999Y-73119999D01*
X111196205Y-73148992D01*
X108708998Y-75636201D01*
X108680000Y-75659999D01*
X108656202Y-75688997D01*
X108656201Y-75688998D01*
X108585026Y-75775724D01*
X108514454Y-75907754D01*
X108470998Y-76051015D01*
X108456324Y-76200000D01*
X108460001Y-76237332D01*
X108460000Y-82235198D01*
X107481476Y-83213723D01*
X107350254Y-83126043D01*
X107311523Y-83110000D01*
X107350254Y-83093957D01*
X107582010Y-82939103D01*
X107779103Y-82742010D01*
X107933957Y-82510254D01*
X108040623Y-82252740D01*
X108095000Y-81979365D01*
X108095000Y-81700635D01*
X108040623Y-81427260D01*
X107933957Y-81169746D01*
X107779103Y-80937990D01*
X107582010Y-80740897D01*
X107350254Y-80586043D01*
X107314475Y-80571223D01*
X107409655Y-80520349D01*
X107478816Y-80278421D01*
X106680000Y-79479605D01*
X105881184Y-80278421D01*
X105950345Y-80520349D01*
X106052279Y-80568425D01*
X106009746Y-80586043D01*
X105777990Y-80740897D01*
X105580897Y-80937990D01*
X105426043Y-81169746D01*
X105319377Y-81427260D01*
X105265000Y-81700635D01*
X105265000Y-81979365D01*
X105319377Y-82252740D01*
X105426043Y-82510254D01*
X105580897Y-82742010D01*
X105777990Y-82939103D01*
X106009746Y-83093957D01*
X106048477Y-83110000D01*
X106009746Y-83126043D01*
X105777990Y-83280897D01*
X105580897Y-83477990D01*
X105426043Y-83709746D01*
X105319377Y-83967260D01*
X105265000Y-84240635D01*
X105265000Y-84519365D01*
X105319377Y-84792740D01*
X105426043Y-85050254D01*
X105580897Y-85282010D01*
X105777990Y-85479103D01*
X106009746Y-85633957D01*
X106048477Y-85650000D01*
X106009746Y-85666043D01*
X105777990Y-85820897D01*
X105580897Y-86017990D01*
X105426043Y-86249746D01*
X105319377Y-86507260D01*
X105265000Y-86780635D01*
X105265000Y-87059365D01*
X105319377Y-87332740D01*
X105426043Y-87590254D01*
X105580897Y-87822010D01*
X105777990Y-88019103D01*
X106009746Y-88173957D01*
X106048477Y-88190000D01*
X106009746Y-88206043D01*
X105777990Y-88360897D01*
X105580897Y-88557990D01*
X105426043Y-88789746D01*
X105319377Y-89047260D01*
X105265000Y-89320635D01*
X105265000Y-89599365D01*
X105319377Y-89872740D01*
X105426043Y-90130254D01*
X105580897Y-90362010D01*
X105777990Y-90559103D01*
X106009746Y-90713957D01*
X106048477Y-90730000D01*
X106009746Y-90746043D01*
X105777990Y-90900897D01*
X105580897Y-91097990D01*
X105426043Y-91329746D01*
X105319377Y-91587260D01*
X105265000Y-91860635D01*
X105265000Y-92139365D01*
X105319377Y-92412740D01*
X105426043Y-92670254D01*
X105580897Y-92902010D01*
X105777990Y-93099103D01*
X106009746Y-93253957D01*
X106048477Y-93270000D01*
X106009746Y-93286043D01*
X105777990Y-93440897D01*
X105580897Y-93637990D01*
X105426043Y-93869746D01*
X105319377Y-94127260D01*
X105265000Y-94400635D01*
X105265000Y-94679365D01*
X105319377Y-94952740D01*
X105426043Y-95210254D01*
X105580897Y-95442010D01*
X105777990Y-95639103D01*
X106009746Y-95793957D01*
X106048477Y-95810000D01*
X106009746Y-95826043D01*
X105777990Y-95980897D01*
X105580897Y-96177990D01*
X105426043Y-96409746D01*
X105319377Y-96667260D01*
X105265000Y-96940635D01*
X105265000Y-97219365D01*
X105319377Y-97492740D01*
X105426043Y-97750254D01*
X105580897Y-97982010D01*
X105777990Y-98179103D01*
X106009746Y-98333957D01*
X106048477Y-98350000D01*
X106009746Y-98366043D01*
X105777990Y-98520897D01*
X105580897Y-98717990D01*
X105426043Y-98949746D01*
X105319377Y-99207260D01*
X105265000Y-99480635D01*
X105265000Y-99759365D01*
X105319377Y-100032740D01*
X105426043Y-100290254D01*
X105580897Y-100522010D01*
X105777990Y-100719103D01*
X106009746Y-100873957D01*
X106048477Y-100890000D01*
X106009746Y-100906043D01*
X105777990Y-101060897D01*
X105580897Y-101257990D01*
X105426043Y-101489746D01*
X105319377Y-101747260D01*
X105265000Y-102020635D01*
X105265000Y-102299365D01*
X105319377Y-102572740D01*
X105426043Y-102830254D01*
X105580897Y-103062010D01*
X105777990Y-103259103D01*
X106009746Y-103413957D01*
X106048477Y-103430000D01*
X106009746Y-103446043D01*
X105777990Y-103600897D01*
X105580897Y-103797990D01*
X105426043Y-104029746D01*
X105319377Y-104287260D01*
X105265000Y-104560635D01*
X105265000Y-104839365D01*
X105319377Y-105112740D01*
X105426043Y-105370254D01*
X105580897Y-105602010D01*
X105777990Y-105799103D01*
X106009746Y-105953957D01*
X106048477Y-105970000D01*
X106009746Y-105986043D01*
X105777990Y-106140897D01*
X105580897Y-106337990D01*
X105426043Y-106569746D01*
X105319377Y-106827260D01*
X105265000Y-107100635D01*
X105265000Y-107379365D01*
X105319377Y-107652740D01*
X105426043Y-107910254D01*
X105580897Y-108142010D01*
X105777990Y-108339103D01*
X106009746Y-108493957D01*
X106048477Y-108510000D01*
X106009746Y-108526043D01*
X105777990Y-108680897D01*
X105580897Y-108877990D01*
X105426043Y-109109746D01*
X105319377Y-109367260D01*
X105265000Y-109640635D01*
X105265000Y-109919365D01*
X105319377Y-110192740D01*
X105426043Y-110450254D01*
X105580897Y-110682010D01*
X105777990Y-110879103D01*
X106009746Y-111033957D01*
X106267260Y-111140623D01*
X106540635Y-111195000D01*
X106819365Y-111195000D01*
X107092740Y-111140623D01*
X107350254Y-111033957D01*
X107582010Y-110879103D01*
X107779103Y-110682010D01*
X107933957Y-110450254D01*
X108040623Y-110192740D01*
X108095000Y-109919365D01*
X108095000Y-109640635D01*
X108040623Y-109367260D01*
X107933957Y-109109746D01*
X107779103Y-108877990D01*
X107582010Y-108680897D01*
X107350254Y-108526043D01*
X107311523Y-108510000D01*
X107350254Y-108493957D01*
X107582010Y-108339103D01*
X107779103Y-108142010D01*
X107933957Y-107910254D01*
X108040623Y-107652740D01*
X108095000Y-107379365D01*
X108095000Y-107100635D01*
X108040623Y-106827260D01*
X107933957Y-106569746D01*
X107779103Y-106337990D01*
X107582010Y-106140897D01*
X107350254Y-105986043D01*
X107311523Y-105970000D01*
X107350254Y-105953957D01*
X107582010Y-105799103D01*
X107779103Y-105602010D01*
X107933957Y-105370254D01*
X108040623Y-105112740D01*
X108095000Y-104839365D01*
X108095000Y-104560635D01*
X108040623Y-104287260D01*
X107933957Y-104029746D01*
X107779103Y-103797990D01*
X107582010Y-103600897D01*
X107350254Y-103446043D01*
X107311523Y-103430000D01*
X107350254Y-103413957D01*
X107582010Y-103259103D01*
X107779103Y-103062010D01*
X107933957Y-102830254D01*
X108040623Y-102572740D01*
X108095000Y-102299365D01*
X108095000Y-102020635D01*
X108061680Y-101853121D01*
X111000001Y-98914802D01*
X111000000Y-100321821D01*
X110813368Y-100446525D01*
X110606525Y-100653368D01*
X110444010Y-100896589D01*
X110332068Y-101166842D01*
X110275000Y-101453740D01*
X110275000Y-101746260D01*
X110332068Y-102033158D01*
X110444010Y-102303411D01*
X110606525Y-102546632D01*
X110813368Y-102753475D01*
X111000000Y-102878179D01*
X111000001Y-110175196D01*
X108905199Y-112270000D01*
X84844802Y-112270000D01*
X82661680Y-110086878D01*
X82695000Y-109919365D01*
X82695000Y-109640635D01*
X82640623Y-109367260D01*
X82533957Y-109109746D01*
X82379103Y-108877990D01*
X82182010Y-108680897D01*
X81950254Y-108526043D01*
X81911523Y-108510000D01*
X81950254Y-108493957D01*
X82182010Y-108339103D01*
X82379103Y-108142010D01*
X82533957Y-107910254D01*
X82640623Y-107652740D01*
X82695000Y-107379365D01*
X82695000Y-107100635D01*
X82640623Y-106827260D01*
X82533957Y-106569746D01*
X82379103Y-106337990D01*
X82182010Y-106140897D01*
X81950254Y-105986043D01*
X81911523Y-105970000D01*
X81950254Y-105953957D01*
X82182010Y-105799103D01*
X82379103Y-105602010D01*
X82533957Y-105370254D01*
X82640623Y-105112740D01*
X82695000Y-104839365D01*
X82695000Y-104560635D01*
X82640623Y-104287260D01*
X82533957Y-104029746D01*
X82379103Y-103797990D01*
X82182010Y-103600897D01*
X81950254Y-103446043D01*
X81911523Y-103430000D01*
X81950254Y-103413957D01*
X82182010Y-103259103D01*
X82379103Y-103062010D01*
X82533957Y-102830254D01*
X82640623Y-102572740D01*
X82695000Y-102299365D01*
X82695000Y-102020635D01*
X82640623Y-101747260D01*
X82533957Y-101489746D01*
X82379103Y-101257990D01*
X82182010Y-101060897D01*
X81950254Y-100906043D01*
X81911523Y-100890000D01*
X81950254Y-100873957D01*
X82182010Y-100719103D01*
X82379103Y-100522010D01*
X82533957Y-100290254D01*
X82640623Y-100032740D01*
X82695000Y-99759365D01*
X82695000Y-99480635D01*
X82640623Y-99207260D01*
X82533957Y-98949746D01*
X82379103Y-98717990D01*
X82182010Y-98520897D01*
X81950254Y-98366043D01*
X81914475Y-98351223D01*
X82009655Y-98300349D01*
X82078816Y-98058421D01*
X81280000Y-97259605D01*
X81265858Y-97273748D01*
X81086253Y-97094143D01*
X81100395Y-97080000D01*
X81086253Y-97065858D01*
X81265858Y-96886253D01*
X81280000Y-96900395D01*
X81294143Y-96886253D01*
X81473748Y-97065858D01*
X81459605Y-97080000D01*
X82258421Y-97878816D01*
X82500349Y-97809655D01*
X82619248Y-97557557D01*
X82686681Y-97287106D01*
X82700057Y-97008697D01*
X82658860Y-96733028D01*
X82564675Y-96470692D01*
X82503661Y-96356541D01*
X84331003Y-94529199D01*
X84360001Y-94505401D01*
X84454974Y-94389676D01*
X84525546Y-94257647D01*
X84569003Y-94114386D01*
X84580000Y-94002733D01*
X84580000Y-94002724D01*
X84583676Y-93965401D01*
X84580000Y-93928078D01*
X84580000Y-92941920D01*
X84583676Y-92904597D01*
X84580000Y-92867274D01*
X84580000Y-92867265D01*
X84569003Y-92755612D01*
X84525546Y-92612351D01*
X84454974Y-92480322D01*
X84360001Y-92364597D01*
X84331004Y-92340800D01*
X82374205Y-90384002D01*
X82366500Y-90374613D01*
X82379103Y-90362010D01*
X82533957Y-90130254D01*
X82640623Y-89872740D01*
X82695000Y-89599365D01*
X82695000Y-89320635D01*
X82640623Y-89047260D01*
X82533957Y-88789746D01*
X82379103Y-88557990D01*
X82182010Y-88360897D01*
X81950254Y-88206043D01*
X81911523Y-88190000D01*
X81950254Y-88173957D01*
X82182010Y-88019103D01*
X82379103Y-87822010D01*
X82533957Y-87590254D01*
X82640623Y-87332740D01*
X82695000Y-87059365D01*
X82695000Y-86780635D01*
X82640623Y-86507260D01*
X82533957Y-86249746D01*
X82379103Y-86017990D01*
X82182010Y-85820897D01*
X81950254Y-85666043D01*
X81911523Y-85650000D01*
X81950254Y-85633957D01*
X82182010Y-85479103D01*
X82379103Y-85282010D01*
X82533957Y-85050254D01*
X82640623Y-84792740D01*
X82695000Y-84519365D01*
X82695000Y-84240635D01*
X82640623Y-83967260D01*
X82533957Y-83709746D01*
X82379103Y-83477990D01*
X82182010Y-83280897D01*
X81950254Y-83126043D01*
X81911523Y-83110000D01*
X81950254Y-83093957D01*
X82182010Y-82939103D01*
X82379103Y-82742010D01*
X82533957Y-82510254D01*
X82640623Y-82252740D01*
X82695000Y-81979365D01*
X82695000Y-81700635D01*
X82640623Y-81427260D01*
X82533957Y-81169746D01*
X82379103Y-80937990D01*
X82182010Y-80740897D01*
X81950254Y-80586043D01*
X81911523Y-80570000D01*
X81950254Y-80553957D01*
X82182010Y-80399103D01*
X82379103Y-80202010D01*
X82533957Y-79970254D01*
X82640623Y-79712740D01*
X82695000Y-79439365D01*
X82695000Y-79371303D01*
X105259943Y-79371303D01*
X105301140Y-79646972D01*
X105395325Y-79909308D01*
X105459651Y-80029655D01*
X105701579Y-80098816D01*
X106500395Y-79300000D01*
X106859605Y-79300000D01*
X107658421Y-80098816D01*
X107900349Y-80029655D01*
X108019248Y-79777557D01*
X108086681Y-79507106D01*
X108100057Y-79228697D01*
X108058860Y-78953028D01*
X107964675Y-78690692D01*
X107900349Y-78570345D01*
X107658421Y-78501184D01*
X106859605Y-79300000D01*
X106500395Y-79300000D01*
X105701579Y-78501184D01*
X105459651Y-78570345D01*
X105340752Y-78822443D01*
X105273319Y-79092894D01*
X105259943Y-79371303D01*
X82695000Y-79371303D01*
X82695000Y-79160635D01*
X82640623Y-78887260D01*
X82533957Y-78629746D01*
X82379103Y-78397990D01*
X82182010Y-78200897D01*
X81950254Y-78046043D01*
X81911523Y-78030000D01*
X81950254Y-78013957D01*
X82182010Y-77859103D01*
X82379103Y-77662010D01*
X82533957Y-77430254D01*
X82640623Y-77172740D01*
X82695000Y-76899365D01*
X82695000Y-76620635D01*
X82640623Y-76347260D01*
X82533957Y-76089746D01*
X82379103Y-75857990D01*
X82182010Y-75660897D01*
X81950254Y-75506043D01*
X81911523Y-75490000D01*
X81950254Y-75473957D01*
X82182010Y-75319103D01*
X82379103Y-75122010D01*
X82533957Y-74890254D01*
X82640623Y-74632740D01*
X82695000Y-74359365D01*
X82695000Y-74080635D01*
X82640623Y-73807260D01*
X82533957Y-73549746D01*
X82379103Y-73317990D01*
X82182010Y-73120897D01*
X81950254Y-72966043D01*
X81911523Y-72950000D01*
X81950254Y-72933957D01*
X82182010Y-72779103D01*
X82379103Y-72582010D01*
X82533957Y-72350254D01*
X82640623Y-72092740D01*
X82695000Y-71819365D01*
X82695000Y-71540635D01*
X82640623Y-71267260D01*
X82533957Y-71009746D01*
X82379103Y-70777990D01*
X82182010Y-70580897D01*
X81950254Y-70426043D01*
X81911523Y-70410000D01*
X81950254Y-70393957D01*
X82182010Y-70239103D01*
X82379103Y-70042010D01*
X82533957Y-69810254D01*
X82640623Y-69552740D01*
X82695000Y-69279365D01*
X82695000Y-69000635D01*
X82640623Y-68727260D01*
X82533957Y-68469746D01*
X82379103Y-68237990D01*
X82182010Y-68040897D01*
X81950254Y-67886043D01*
X81911523Y-67870000D01*
X81950254Y-67853957D01*
X82182010Y-67699103D01*
X82379103Y-67502010D01*
X82533957Y-67270254D01*
X82640623Y-67012740D01*
X82695000Y-66739365D01*
X82695000Y-66549801D01*
X86926201Y-70781003D01*
G37*
%TD.AperFunction*%
%TD*%
M02*
