M48
; DRILL file {KiCad (5.1.7)-1} date 03/18/21 15:35:44
; FORMAT={-:-/ absolute / inch / decimal}
; #@! TF.CreationDate,2021-03-18T15:35:44+01:00
; #@! TF.GenerationSoftware,Kicad,Pcbnew,(5.1.7)-1
; #@! TF.FileFunction,Plated,1,2,PTH
FMAT,2
INCH
T1C0.0394
T2C0.0400
T3C0.0409
%
G90
G05
T1
X4.55Y-2.8
X4.55Y-2.9
X4.55Y-3.0
X4.55Y-3.1
X4.65Y-2.8
X4.65Y-2.9
X4.65Y-3.0
X4.65Y-3.1
X4.4Y-2.4
X4.5Y-2.4
X2.2Y-3.0
X2.2Y-3.1
X2.2Y-3.2
X2.2Y-3.3
X2.8Y-2.15
X2.8Y-2.25
X2.8Y-2.35
X2.8Y-2.45
X2.9Y-2.15
X2.9Y-2.25
X2.9Y-2.35
X2.9Y-2.45
X4.4Y-4.0
X4.5Y-4.0
X4.6Y-4.0
X4.7Y-4.0
X4.55Y-3.4
X4.55Y-3.5
X4.55Y-3.6
X4.55Y-3.7
X4.65Y-3.4
X4.65Y-3.5
X4.65Y-3.6
X4.65Y-3.7
X2.2Y-3.85
X2.2Y-3.95
X2.2Y-4.05
X2.2Y-4.15
T2
X2.45Y-3.65
X2.45Y-3.75
X2.45Y-3.85
X2.45Y-3.95
X2.45Y-4.05
X2.45Y-4.15
X2.45Y-4.25
X2.45Y-4.35
X2.75Y-3.65
X2.8Y-3.715
X2.85Y-3.65
X2.95Y-3.65
X2.95Y-3.75
X2.95Y-3.85
X2.95Y-3.95
X2.95Y-4.05
X2.95Y-4.15
X2.95Y-4.25
X2.95Y-4.35
X2.45Y-2.8
X2.45Y-2.9
X2.45Y-3.0
X2.45Y-3.1
X2.45Y-3.2
X2.45Y-3.3
X2.45Y-3.4
X2.45Y-3.5
X2.75Y-2.8
X2.8Y-2.865
X2.85Y-2.8
X2.95Y-2.8
X2.95Y-2.9
X2.95Y-3.0
X2.95Y-3.1
X2.95Y-3.2
X2.95Y-3.3
X2.95Y-3.4
X2.95Y-3.5
T3
X3.2Y-2.522
X3.2Y-2.622
X3.2Y-2.722
X3.2Y-2.822
X3.2Y-2.922
X3.2Y-3.022
X3.2Y-3.122
X3.2Y-3.222
X3.2Y-3.322
X3.2Y-3.422
X3.2Y-3.522
X3.2Y-3.622
X3.2Y-3.722
X3.2Y-3.822
X3.2Y-3.922
X3.2Y-4.022
X3.2Y-4.122
X3.2Y-4.222
X3.2Y-4.322
X4.2Y-2.522
X4.2Y-2.622
X4.2Y-2.722
X4.2Y-2.822
X4.2Y-2.922
X4.2Y-3.022
X4.2Y-3.122
X4.2Y-3.222
X4.2Y-3.322
X4.2Y-3.422
X4.2Y-3.522
X4.2Y-3.622
X4.2Y-3.722
X4.2Y-3.822
X4.2Y-3.922
X4.2Y-4.022
X4.2Y-4.122
X4.2Y-4.222
X4.2Y-4.322
T0
M30
