%TF.GenerationSoftware,KiCad,Pcbnew,(5.1.7)-1*%
%TF.CreationDate,2021-03-18T15:35:39+01:00*%
%TF.ProjectId,RBY_tireuse,5242595f-7469-4726-9575-73652e6b6963,rev?*%
%TF.SameCoordinates,Original*%
%TF.FileFunction,Other,Fab,Top*%
%FSLAX46Y46*%
G04 Gerber Fmt 4.6, Leading zero omitted, Abs format (unit mm)*
G04 Created by KiCad (PCBNEW (5.1.7)-1) date 2021-03-18 15:35:39*
%MOMM*%
%LPD*%
G01*
G04 APERTURE LIST*
%ADD10C,0.100000*%
%ADD11C,0.280000*%
%ADD12C,0.127000*%
%ADD13C,0.200000*%
%ADD14C,0.150000*%
%ADD15C,0.015000*%
G04 APERTURE END LIST*
D10*
%TO.C,J6*%
X111440000Y-105640000D02*
X111440000Y-111640000D01*
X112080000Y-111640000D02*
X111440000Y-111640000D01*
X112080000Y-105640000D02*
X112080000Y-111640000D01*
X111440000Y-101280000D02*
X111440000Y-103100000D01*
X112080000Y-101280000D02*
X111440000Y-101280000D01*
X112080000Y-101280000D02*
X112080000Y-103100000D01*
X113980000Y-105640000D02*
X113980000Y-111640000D01*
X114620000Y-111640000D02*
X113980000Y-111640000D01*
X114620000Y-105640000D02*
X114620000Y-111640000D01*
X113980000Y-101280000D02*
X113980000Y-103100000D01*
X114620000Y-101280000D02*
X113980000Y-101280000D01*
X114620000Y-101280000D02*
X114620000Y-103100000D01*
X116520000Y-105640000D02*
X116520000Y-111640000D01*
X117160000Y-111640000D02*
X116520000Y-111640000D01*
X117160000Y-105640000D02*
X117160000Y-111640000D01*
X116520000Y-101280000D02*
X116520000Y-103100000D01*
X117160000Y-101280000D02*
X116520000Y-101280000D01*
X117160000Y-101280000D02*
X117160000Y-103100000D01*
X119060000Y-105640000D02*
X119060000Y-111640000D01*
X119700000Y-111640000D02*
X119060000Y-111640000D01*
X119700000Y-105640000D02*
X119700000Y-111640000D01*
X119060000Y-101280000D02*
X119060000Y-103100000D01*
X119700000Y-101280000D02*
X119060000Y-101280000D01*
X119700000Y-101280000D02*
X119700000Y-103100000D01*
X120015000Y-103100000D02*
X120650000Y-103735000D01*
X110490000Y-103100000D02*
X120015000Y-103100000D01*
X110490000Y-105640000D02*
X110490000Y-103100000D01*
X120650000Y-105640000D02*
X110490000Y-105640000D01*
X120650000Y-103735000D02*
X120650000Y-105640000D01*
D11*
%TO.C,U1*%
X79520000Y-63920000D02*
G75*
G03*
X79520000Y-63920000I-140000J0D01*
G01*
X79520000Y-63920000D02*
G75*
G03*
X79520000Y-63920000I-140000J0D01*
G01*
D12*
X80030000Y-111070000D02*
X80030000Y-56670000D01*
X107930000Y-111070000D02*
X80030000Y-111070000D01*
X107930000Y-56670000D02*
X107930000Y-111070000D01*
X80030000Y-56670000D02*
X107930000Y-56670000D01*
D10*
%TO.C,J7*%
X114620000Y-56920000D02*
X114620000Y-50920000D01*
X113980000Y-50920000D02*
X114620000Y-50920000D01*
X113980000Y-56920000D02*
X113980000Y-50920000D01*
X114620000Y-61280000D02*
X114620000Y-59460000D01*
X113980000Y-61280000D02*
X114620000Y-61280000D01*
X113980000Y-61280000D02*
X113980000Y-59460000D01*
X112080000Y-56920000D02*
X112080000Y-50920000D01*
X111440000Y-50920000D02*
X112080000Y-50920000D01*
X111440000Y-56920000D02*
X111440000Y-50920000D01*
X112080000Y-61280000D02*
X112080000Y-59460000D01*
X111440000Y-61280000D02*
X112080000Y-61280000D01*
X111440000Y-61280000D02*
X111440000Y-59460000D01*
X111125000Y-59460000D02*
X110490000Y-58825000D01*
X115570000Y-59460000D02*
X111125000Y-59460000D01*
X115570000Y-56920000D02*
X115570000Y-59460000D01*
X110490000Y-56920000D02*
X115570000Y-56920000D01*
X110490000Y-58825000D02*
X110490000Y-56920000D01*
%TO.C,J3*%
X114300000Y-95250000D02*
X114300000Y-85090000D01*
X119380000Y-95250000D02*
X114300000Y-95250000D01*
X119380000Y-86090000D02*
X119380000Y-95250000D01*
X118380000Y-85090000D02*
X119380000Y-86090000D01*
X114300000Y-85090000D02*
X118380000Y-85090000D01*
%TO.C,J2*%
X114300000Y-80010000D02*
X114300000Y-69850000D01*
X119380000Y-80010000D02*
X114300000Y-80010000D01*
X119380000Y-70850000D02*
X119380000Y-80010000D01*
X118380000Y-69850000D02*
X119380000Y-70850000D01*
X114300000Y-69850000D02*
X118380000Y-69850000D01*
%TO.C,J1*%
X69850000Y-63500000D02*
X69850000Y-53340000D01*
X74930000Y-63500000D02*
X69850000Y-63500000D01*
X74930000Y-54340000D02*
X74930000Y-63500000D01*
X73930000Y-53340000D02*
X74930000Y-54340000D01*
X69850000Y-53340000D02*
X73930000Y-53340000D01*
%TO.C,J4*%
X54610000Y-85090000D02*
X54610000Y-74930000D01*
X57150000Y-85090000D02*
X54610000Y-85090000D01*
X57150000Y-75565000D02*
X57150000Y-85090000D01*
X56515000Y-74930000D02*
X57150000Y-75565000D01*
X54610000Y-74930000D02*
X56515000Y-74930000D01*
%TO.C,J5*%
X54610000Y-96520000D02*
X56515000Y-96520000D01*
X56515000Y-96520000D02*
X57150000Y-97155000D01*
X57150000Y-97155000D02*
X57150000Y-106680000D01*
X57150000Y-106680000D02*
X54610000Y-106680000D01*
X54610000Y-106680000D02*
X54610000Y-96520000D01*
D13*
%TO.C,U2*%
X76980000Y-88900000D02*
G75*
G03*
X76980000Y-88900000I-100000J0D01*
G01*
D12*
X76200000Y-90170000D02*
X76200000Y-69850000D01*
X60960000Y-90170000D02*
X76200000Y-90170000D01*
X60960000Y-69850000D02*
X60960000Y-90170000D01*
X76200000Y-69850000D02*
X60960000Y-69850000D01*
%TO.C,U3*%
X76200000Y-91440000D02*
X60960000Y-91440000D01*
X60960000Y-91440000D02*
X60960000Y-111760000D01*
X60960000Y-111760000D02*
X76200000Y-111760000D01*
X76200000Y-111760000D02*
X76200000Y-91440000D01*
D13*
X76980000Y-110490000D02*
G75*
G03*
X76980000Y-110490000I-100000J0D01*
G01*
%TD*%
%TO.C,J6*%
D14*
X109942380Y-111485000D02*
X108942380Y-111485000D01*
X108942380Y-111246904D01*
X108990000Y-111104047D01*
X109085238Y-111008809D01*
X109180476Y-110961190D01*
X109370952Y-110913571D01*
X109513809Y-110913571D01*
X109704285Y-110961190D01*
X109799523Y-111008809D01*
X109894761Y-111104047D01*
X109942380Y-111246904D01*
X109942380Y-111485000D01*
X109847142Y-109913571D02*
X109894761Y-109961190D01*
X109942380Y-110104047D01*
X109942380Y-110199285D01*
X109894761Y-110342142D01*
X109799523Y-110437380D01*
X109704285Y-110485000D01*
X109513809Y-110532619D01*
X109370952Y-110532619D01*
X109180476Y-110485000D01*
X109085238Y-110437380D01*
X108990000Y-110342142D01*
X108942380Y-110199285D01*
X108942380Y-110104047D01*
X108990000Y-109961190D01*
X109037619Y-109913571D01*
X109942380Y-109485000D02*
X108942380Y-109485000D01*
X108942380Y-109246904D01*
X108990000Y-109104047D01*
X109085238Y-109008809D01*
X109180476Y-108961190D01*
X109370952Y-108913571D01*
X109513809Y-108913571D01*
X109704285Y-108961190D01*
X109799523Y-109008809D01*
X109894761Y-109104047D01*
X109942380Y-109246904D01*
X109942380Y-109485000D01*
X109847142Y-107913571D02*
X109894761Y-107961190D01*
X109942380Y-108104047D01*
X109942380Y-108199285D01*
X109894761Y-108342142D01*
X109799523Y-108437380D01*
X109704285Y-108485000D01*
X109513809Y-108532619D01*
X109370952Y-108532619D01*
X109180476Y-108485000D01*
X109085238Y-108437380D01*
X108990000Y-108342142D01*
X108942380Y-108199285D01*
X108942380Y-108104047D01*
X108990000Y-107961190D01*
X109037619Y-107913571D01*
X110037619Y-107723095D02*
X110037619Y-106961190D01*
X109418571Y-106389761D02*
X109466190Y-106246904D01*
X109513809Y-106199285D01*
X109609047Y-106151666D01*
X109751904Y-106151666D01*
X109847142Y-106199285D01*
X109894761Y-106246904D01*
X109942380Y-106342142D01*
X109942380Y-106723095D01*
X108942380Y-106723095D01*
X108942380Y-106389761D01*
X108990000Y-106294523D01*
X109037619Y-106246904D01*
X109132857Y-106199285D01*
X109228095Y-106199285D01*
X109323333Y-106246904D01*
X109370952Y-106294523D01*
X109418571Y-106389761D01*
X109418571Y-106723095D01*
X108942380Y-105532619D02*
X108942380Y-105342142D01*
X108990000Y-105246904D01*
X109085238Y-105151666D01*
X109275714Y-105104047D01*
X109609047Y-105104047D01*
X109799523Y-105151666D01*
X109894761Y-105246904D01*
X109942380Y-105342142D01*
X109942380Y-105532619D01*
X109894761Y-105627857D01*
X109799523Y-105723095D01*
X109609047Y-105770714D01*
X109275714Y-105770714D01*
X109085238Y-105723095D01*
X108990000Y-105627857D01*
X108942380Y-105532619D01*
X108942380Y-104485000D02*
X108942380Y-104294523D01*
X108990000Y-104199285D01*
X109085238Y-104104047D01*
X109275714Y-104056428D01*
X109609047Y-104056428D01*
X109799523Y-104104047D01*
X109894761Y-104199285D01*
X109942380Y-104294523D01*
X109942380Y-104485000D01*
X109894761Y-104580238D01*
X109799523Y-104675476D01*
X109609047Y-104723095D01*
X109275714Y-104723095D01*
X109085238Y-104675476D01*
X108990000Y-104580238D01*
X108942380Y-104485000D01*
X109894761Y-103675476D02*
X109942380Y-103532619D01*
X109942380Y-103294523D01*
X109894761Y-103199285D01*
X109847142Y-103151666D01*
X109751904Y-103104047D01*
X109656666Y-103104047D01*
X109561428Y-103151666D01*
X109513809Y-103199285D01*
X109466190Y-103294523D01*
X109418571Y-103485000D01*
X109370952Y-103580238D01*
X109323333Y-103627857D01*
X109228095Y-103675476D01*
X109132857Y-103675476D01*
X109037619Y-103627857D01*
X108990000Y-103580238D01*
X108942380Y-103485000D01*
X108942380Y-103246904D01*
X108990000Y-103104047D01*
X108942380Y-102818333D02*
X108942380Y-102246904D01*
X109942380Y-102532619D02*
X108942380Y-102532619D01*
X109418571Y-101913571D02*
X109418571Y-101580238D01*
X109942380Y-101437380D02*
X109942380Y-101913571D01*
X108942380Y-101913571D01*
X108942380Y-101437380D01*
X109942380Y-100437380D02*
X109466190Y-100770714D01*
X109942380Y-101008809D02*
X108942380Y-101008809D01*
X108942380Y-100627857D01*
X108990000Y-100532619D01*
X109037619Y-100485000D01*
X109132857Y-100437380D01*
X109275714Y-100437380D01*
X109370952Y-100485000D01*
X109418571Y-100532619D01*
X109466190Y-100627857D01*
X109466190Y-101008809D01*
X115236666Y-103822380D02*
X115236666Y-104536666D01*
X115189047Y-104679523D01*
X115093809Y-104774761D01*
X114950952Y-104822380D01*
X114855714Y-104822380D01*
X116141428Y-103822380D02*
X115950952Y-103822380D01*
X115855714Y-103870000D01*
X115808095Y-103917619D01*
X115712857Y-104060476D01*
X115665238Y-104250952D01*
X115665238Y-104631904D01*
X115712857Y-104727142D01*
X115760476Y-104774761D01*
X115855714Y-104822380D01*
X116046190Y-104822380D01*
X116141428Y-104774761D01*
X116189047Y-104727142D01*
X116236666Y-104631904D01*
X116236666Y-104393809D01*
X116189047Y-104298571D01*
X116141428Y-104250952D01*
X116046190Y-104203333D01*
X115855714Y-104203333D01*
X115760476Y-104250952D01*
X115712857Y-104298571D01*
X115665238Y-104393809D01*
%TO.C,U1*%
D15*
X87379825Y-112043031D02*
X87713507Y-112043031D01*
X87856514Y-112567389D02*
X87379825Y-112567389D01*
X87379825Y-111566342D01*
X87856514Y-111566342D01*
X88237865Y-112519720D02*
X88380872Y-112567389D01*
X88619216Y-112567389D01*
X88714554Y-112519720D01*
X88762223Y-112472051D01*
X88809892Y-112376713D01*
X88809892Y-112281376D01*
X88762223Y-112186038D01*
X88714554Y-112138369D01*
X88619216Y-112090700D01*
X88428541Y-112043031D01*
X88333203Y-111995362D01*
X88285534Y-111947693D01*
X88237865Y-111852356D01*
X88237865Y-111757018D01*
X88285534Y-111661680D01*
X88333203Y-111614011D01*
X88428541Y-111566342D01*
X88666885Y-111566342D01*
X88809892Y-111614011D01*
X89238912Y-112567389D02*
X89238912Y-111566342D01*
X89620263Y-111566342D01*
X89715601Y-111614011D01*
X89763270Y-111661680D01*
X89810939Y-111757018D01*
X89810939Y-111900024D01*
X89763270Y-111995362D01*
X89715601Y-112043031D01*
X89620263Y-112090700D01*
X89238912Y-112090700D01*
X90144621Y-111566342D02*
X90764317Y-111566342D01*
X90430635Y-111947693D01*
X90573641Y-111947693D01*
X90668979Y-111995362D01*
X90716648Y-112043031D01*
X90764317Y-112138369D01*
X90764317Y-112376713D01*
X90716648Y-112472051D01*
X90668979Y-112519720D01*
X90573641Y-112567389D01*
X90287628Y-112567389D01*
X90192290Y-112519720D01*
X90144621Y-112472051D01*
X91145668Y-111661680D02*
X91193337Y-111614011D01*
X91288675Y-111566342D01*
X91527019Y-111566342D01*
X91622357Y-111614011D01*
X91670026Y-111661680D01*
X91717695Y-111757018D01*
X91717695Y-111852356D01*
X91670026Y-111995362D01*
X91097999Y-112567389D01*
X91717695Y-112567389D01*
X92146715Y-112186038D02*
X92909418Y-112186038D01*
X93386107Y-112567389D02*
X93386107Y-111566342D01*
X93624451Y-111566342D01*
X93767458Y-111614011D01*
X93862796Y-111709349D01*
X93910465Y-111804687D01*
X93958134Y-111995362D01*
X93958134Y-112138369D01*
X93910465Y-112329045D01*
X93862796Y-112424382D01*
X93767458Y-112519720D01*
X93624451Y-112567389D01*
X93386107Y-112567389D01*
X94387154Y-112043031D02*
X94720836Y-112043031D01*
X94863843Y-112567389D02*
X94387154Y-112567389D01*
X94387154Y-111566342D01*
X94863843Y-111566342D01*
X95149856Y-111566342D02*
X95483538Y-112567389D01*
X95817221Y-111566342D01*
X96150903Y-112567389D02*
X96150903Y-111566342D01*
X96722930Y-112567389D02*
X96293910Y-111995362D01*
X96722930Y-111566342D02*
X96150903Y-112138369D01*
X97151950Y-112567389D02*
X97151950Y-111566342D01*
X97485632Y-111566342D02*
X98057659Y-111566342D01*
X97771646Y-112567389D02*
X97771646Y-111566342D01*
X98963369Y-112472051D02*
X98915700Y-112519720D01*
X98772693Y-112567389D01*
X98677355Y-112567389D01*
X98534348Y-112519720D01*
X98439011Y-112424382D01*
X98391342Y-112329045D01*
X98343673Y-112138369D01*
X98343673Y-111995362D01*
X98391342Y-111804687D01*
X98439011Y-111709349D01*
X98534348Y-111614011D01*
X98677355Y-111566342D01*
X98772693Y-111566342D01*
X98915700Y-111614011D01*
X98963369Y-111661680D01*
X99392389Y-112186038D02*
X100155091Y-112186038D01*
X100536442Y-111566342D02*
X101156138Y-111566342D01*
X100822456Y-111947693D01*
X100965463Y-111947693D01*
X101060800Y-111995362D01*
X101108469Y-112043031D01*
X101156138Y-112138369D01*
X101156138Y-112376713D01*
X101108469Y-112472051D01*
X101060800Y-112519720D01*
X100965463Y-112567389D01*
X100679449Y-112567389D01*
X100584111Y-112519720D01*
X100536442Y-112472051D01*
X101537489Y-111661680D02*
X101585158Y-111614011D01*
X101680496Y-111566342D01*
X101918841Y-111566342D01*
X102014178Y-111614011D01*
X102061847Y-111661680D01*
X102109516Y-111757018D01*
X102109516Y-111852356D01*
X102061847Y-111995362D01*
X101489820Y-112567389D01*
X102109516Y-112567389D01*
X102538536Y-112567389D02*
X102538536Y-111566342D01*
X102776881Y-111566342D01*
X102919888Y-111614011D01*
X103015225Y-111709349D01*
X103062894Y-111804687D01*
X103110563Y-111995362D01*
X103110563Y-112138369D01*
X103062894Y-112329045D01*
X103015225Y-112424382D01*
X102919888Y-112519720D01*
X102776881Y-112567389D01*
X102538536Y-112567389D01*
%TO.C,J7*%
D14*
X116927142Y-62408333D02*
X116974761Y-62455952D01*
X117022380Y-62598809D01*
X117022380Y-62694047D01*
X116974761Y-62836904D01*
X116879523Y-62932142D01*
X116784285Y-62979761D01*
X116593809Y-63027380D01*
X116450952Y-63027380D01*
X116260476Y-62979761D01*
X116165238Y-62932142D01*
X116070000Y-62836904D01*
X116022380Y-62694047D01*
X116022380Y-62598809D01*
X116070000Y-62455952D01*
X116117619Y-62408333D01*
X117022380Y-61836904D02*
X116974761Y-61932142D01*
X116927142Y-61979761D01*
X116831904Y-62027380D01*
X116546190Y-62027380D01*
X116450952Y-61979761D01*
X116403333Y-61932142D01*
X116355714Y-61836904D01*
X116355714Y-61694047D01*
X116403333Y-61598809D01*
X116450952Y-61551190D01*
X116546190Y-61503571D01*
X116831904Y-61503571D01*
X116927142Y-61551190D01*
X116974761Y-61598809D01*
X117022380Y-61694047D01*
X117022380Y-61836904D01*
X116355714Y-61075000D02*
X117022380Y-61075000D01*
X116450952Y-61075000D02*
X116403333Y-61027380D01*
X116355714Y-60932142D01*
X116355714Y-60789285D01*
X116403333Y-60694047D01*
X116498571Y-60646428D01*
X117022380Y-60646428D01*
X116355714Y-60170238D02*
X117022380Y-60170238D01*
X116450952Y-60170238D02*
X116403333Y-60122619D01*
X116355714Y-60027380D01*
X116355714Y-59884523D01*
X116403333Y-59789285D01*
X116498571Y-59741666D01*
X117022380Y-59741666D01*
X117117619Y-59503571D02*
X117117619Y-58741666D01*
X116022380Y-58313095D02*
X116022380Y-58217857D01*
X116070000Y-58122619D01*
X116117619Y-58075000D01*
X116212857Y-58027380D01*
X116403333Y-57979761D01*
X116641428Y-57979761D01*
X116831904Y-58027380D01*
X116927142Y-58075000D01*
X116974761Y-58122619D01*
X117022380Y-58217857D01*
X117022380Y-58313095D01*
X116974761Y-58408333D01*
X116927142Y-58455952D01*
X116831904Y-58503571D01*
X116641428Y-58551190D01*
X116403333Y-58551190D01*
X116212857Y-58503571D01*
X116117619Y-58455952D01*
X116070000Y-58408333D01*
X116022380Y-58313095D01*
X117022380Y-57027380D02*
X117022380Y-57598809D01*
X117022380Y-57313095D02*
X116022380Y-57313095D01*
X116165238Y-57408333D01*
X116260476Y-57503571D01*
X116308095Y-57598809D01*
X117022380Y-56694047D02*
X116355714Y-56170238D01*
X116355714Y-56694047D02*
X117022380Y-56170238D01*
X116022380Y-55598809D02*
X116022380Y-55503571D01*
X116070000Y-55408333D01*
X116117619Y-55360714D01*
X116212857Y-55313095D01*
X116403333Y-55265476D01*
X116641428Y-55265476D01*
X116831904Y-55313095D01*
X116927142Y-55360714D01*
X116974761Y-55408333D01*
X117022380Y-55503571D01*
X117022380Y-55598809D01*
X116974761Y-55694047D01*
X116927142Y-55741666D01*
X116831904Y-55789285D01*
X116641428Y-55836904D01*
X116403333Y-55836904D01*
X116212857Y-55789285D01*
X116117619Y-55741666D01*
X116070000Y-55694047D01*
X116022380Y-55598809D01*
X116117619Y-54884523D02*
X116070000Y-54836904D01*
X116022380Y-54741666D01*
X116022380Y-54503571D01*
X116070000Y-54408333D01*
X116117619Y-54360714D01*
X116212857Y-54313095D01*
X116308095Y-54313095D01*
X116450952Y-54360714D01*
X117022380Y-54932142D01*
X117022380Y-54313095D01*
X117117619Y-54122619D02*
X117117619Y-53360714D01*
X117022380Y-53122619D02*
X116022380Y-53122619D01*
X116736666Y-52789285D01*
X116022380Y-52455952D01*
X117022380Y-52455952D01*
X117022380Y-51551190D02*
X116498571Y-51551190D01*
X116403333Y-51598809D01*
X116355714Y-51694047D01*
X116355714Y-51884523D01*
X116403333Y-51979761D01*
X116974761Y-51551190D02*
X117022380Y-51646428D01*
X117022380Y-51884523D01*
X116974761Y-51979761D01*
X116879523Y-52027380D01*
X116784285Y-52027380D01*
X116689047Y-51979761D01*
X116641428Y-51884523D01*
X116641428Y-51646428D01*
X116593809Y-51551190D01*
X117022380Y-50932142D02*
X116974761Y-51027380D01*
X116879523Y-51075000D01*
X116022380Y-51075000D01*
X116974761Y-50170238D02*
X117022380Y-50265476D01*
X117022380Y-50455952D01*
X116974761Y-50551190D01*
X116879523Y-50598809D01*
X116498571Y-50598809D01*
X116403333Y-50551190D01*
X116355714Y-50455952D01*
X116355714Y-50265476D01*
X116403333Y-50170238D01*
X116498571Y-50122619D01*
X116593809Y-50122619D01*
X116689047Y-50598809D01*
X112696666Y-57642380D02*
X112696666Y-58356666D01*
X112649047Y-58499523D01*
X112553809Y-58594761D01*
X112410952Y-58642380D01*
X112315714Y-58642380D01*
X113077619Y-57642380D02*
X113744285Y-57642380D01*
X113315714Y-58642380D01*
%TO.C,J3*%
X114459047Y-96250000D02*
X114363809Y-96202380D01*
X114220952Y-96202380D01*
X114078095Y-96250000D01*
X113982857Y-96345238D01*
X113935238Y-96440476D01*
X113887619Y-96630952D01*
X113887619Y-96773809D01*
X113935238Y-96964285D01*
X113982857Y-97059523D01*
X114078095Y-97154761D01*
X114220952Y-97202380D01*
X114316190Y-97202380D01*
X114459047Y-97154761D01*
X114506666Y-97107142D01*
X114506666Y-96773809D01*
X114316190Y-96773809D01*
X115411428Y-97202380D02*
X114935238Y-97202380D01*
X114935238Y-96202380D01*
X115697142Y-96916666D02*
X116173333Y-96916666D01*
X115601904Y-97202380D02*
X115935238Y-96202380D01*
X116268571Y-97202380D01*
X116554285Y-97154761D02*
X116697142Y-97202380D01*
X116935238Y-97202380D01*
X117030476Y-97154761D01*
X117078095Y-97107142D01*
X117125714Y-97011904D01*
X117125714Y-96916666D01*
X117078095Y-96821428D01*
X117030476Y-96773809D01*
X116935238Y-96726190D01*
X116744761Y-96678571D01*
X116649523Y-96630952D01*
X116601904Y-96583333D01*
X116554285Y-96488095D01*
X116554285Y-96392857D01*
X116601904Y-96297619D01*
X116649523Y-96250000D01*
X116744761Y-96202380D01*
X116982857Y-96202380D01*
X117125714Y-96250000D01*
X117506666Y-97154761D02*
X117649523Y-97202380D01*
X117887619Y-97202380D01*
X117982857Y-97154761D01*
X118030476Y-97107142D01*
X118078095Y-97011904D01*
X118078095Y-96916666D01*
X118030476Y-96821428D01*
X117982857Y-96773809D01*
X117887619Y-96726190D01*
X117697142Y-96678571D01*
X117601904Y-96630952D01*
X117554285Y-96583333D01*
X117506666Y-96488095D01*
X117506666Y-96392857D01*
X117554285Y-96297619D01*
X117601904Y-96250000D01*
X117697142Y-96202380D01*
X117935238Y-96202380D01*
X118078095Y-96250000D01*
X118268571Y-97297619D02*
X119030476Y-97297619D01*
X119792380Y-97202380D02*
X119220952Y-97202380D01*
X119506666Y-97202380D02*
X119506666Y-96202380D01*
X119411428Y-96345238D01*
X119316190Y-96440476D01*
X119220952Y-96488095D01*
X116292380Y-90503333D02*
X117006666Y-90503333D01*
X117149523Y-90550952D01*
X117244761Y-90646190D01*
X117292380Y-90789047D01*
X117292380Y-90884285D01*
X116292380Y-90122380D02*
X116292380Y-89503333D01*
X116673333Y-89836666D01*
X116673333Y-89693809D01*
X116720952Y-89598571D01*
X116768571Y-89550952D01*
X116863809Y-89503333D01*
X117101904Y-89503333D01*
X117197142Y-89550952D01*
X117244761Y-89598571D01*
X117292380Y-89693809D01*
X117292380Y-89979523D01*
X117244761Y-90074761D01*
X117197142Y-90122380D01*
%TO.C,J2*%
X114459047Y-81010000D02*
X114363809Y-80962380D01*
X114220952Y-80962380D01*
X114078095Y-81010000D01*
X113982857Y-81105238D01*
X113935238Y-81200476D01*
X113887619Y-81390952D01*
X113887619Y-81533809D01*
X113935238Y-81724285D01*
X113982857Y-81819523D01*
X114078095Y-81914761D01*
X114220952Y-81962380D01*
X114316190Y-81962380D01*
X114459047Y-81914761D01*
X114506666Y-81867142D01*
X114506666Y-81533809D01*
X114316190Y-81533809D01*
X115411428Y-81962380D02*
X114935238Y-81962380D01*
X114935238Y-80962380D01*
X115697142Y-81676666D02*
X116173333Y-81676666D01*
X115601904Y-81962380D02*
X115935238Y-80962380D01*
X116268571Y-81962380D01*
X116554285Y-81914761D02*
X116697142Y-81962380D01*
X116935238Y-81962380D01*
X117030476Y-81914761D01*
X117078095Y-81867142D01*
X117125714Y-81771904D01*
X117125714Y-81676666D01*
X117078095Y-81581428D01*
X117030476Y-81533809D01*
X116935238Y-81486190D01*
X116744761Y-81438571D01*
X116649523Y-81390952D01*
X116601904Y-81343333D01*
X116554285Y-81248095D01*
X116554285Y-81152857D01*
X116601904Y-81057619D01*
X116649523Y-81010000D01*
X116744761Y-80962380D01*
X116982857Y-80962380D01*
X117125714Y-81010000D01*
X117506666Y-81914761D02*
X117649523Y-81962380D01*
X117887619Y-81962380D01*
X117982857Y-81914761D01*
X118030476Y-81867142D01*
X118078095Y-81771904D01*
X118078095Y-81676666D01*
X118030476Y-81581428D01*
X117982857Y-81533809D01*
X117887619Y-81486190D01*
X117697142Y-81438571D01*
X117601904Y-81390952D01*
X117554285Y-81343333D01*
X117506666Y-81248095D01*
X117506666Y-81152857D01*
X117554285Y-81057619D01*
X117601904Y-81010000D01*
X117697142Y-80962380D01*
X117935238Y-80962380D01*
X118078095Y-81010000D01*
X118268571Y-82057619D02*
X119030476Y-82057619D01*
X119459047Y-80962380D02*
X119554285Y-80962380D01*
X119649523Y-81010000D01*
X119697142Y-81057619D01*
X119744761Y-81152857D01*
X119792380Y-81343333D01*
X119792380Y-81581428D01*
X119744761Y-81771904D01*
X119697142Y-81867142D01*
X119649523Y-81914761D01*
X119554285Y-81962380D01*
X119459047Y-81962380D01*
X119363809Y-81914761D01*
X119316190Y-81867142D01*
X119268571Y-81771904D01*
X119220952Y-81581428D01*
X119220952Y-81343333D01*
X119268571Y-81152857D01*
X119316190Y-81057619D01*
X119363809Y-81010000D01*
X119459047Y-80962380D01*
X116292380Y-75263333D02*
X117006666Y-75263333D01*
X117149523Y-75310952D01*
X117244761Y-75406190D01*
X117292380Y-75549047D01*
X117292380Y-75644285D01*
X116387619Y-74834761D02*
X116340000Y-74787142D01*
X116292380Y-74691904D01*
X116292380Y-74453809D01*
X116340000Y-74358571D01*
X116387619Y-74310952D01*
X116482857Y-74263333D01*
X116578095Y-74263333D01*
X116720952Y-74310952D01*
X117292380Y-74882380D01*
X117292380Y-74263333D01*
%TO.C,J1*%
X69794761Y-65357142D02*
X69747142Y-65404761D01*
X69604285Y-65452380D01*
X69509047Y-65452380D01*
X69366190Y-65404761D01*
X69270952Y-65309523D01*
X69223333Y-65214285D01*
X69175714Y-65023809D01*
X69175714Y-64880952D01*
X69223333Y-64690476D01*
X69270952Y-64595238D01*
X69366190Y-64500000D01*
X69509047Y-64452380D01*
X69604285Y-64452380D01*
X69747142Y-64500000D01*
X69794761Y-64547619D01*
X70223333Y-65452380D02*
X70223333Y-64452380D01*
X70556666Y-65166666D01*
X70890000Y-64452380D01*
X70890000Y-65452380D01*
X71366190Y-65452380D02*
X71366190Y-64452380D01*
X71604285Y-64452380D01*
X71747142Y-64500000D01*
X71842380Y-64595238D01*
X71890000Y-64690476D01*
X71937619Y-64880952D01*
X71937619Y-65023809D01*
X71890000Y-65214285D01*
X71842380Y-65309523D01*
X71747142Y-65404761D01*
X71604285Y-65452380D01*
X71366190Y-65452380D01*
X72128095Y-65547619D02*
X72890000Y-65547619D01*
X73128095Y-65452380D02*
X73128095Y-64452380D01*
X73509047Y-64452380D01*
X73604285Y-64500000D01*
X73651904Y-64547619D01*
X73699523Y-64642857D01*
X73699523Y-64785714D01*
X73651904Y-64880952D01*
X73604285Y-64928571D01*
X73509047Y-64976190D01*
X73128095Y-64976190D01*
X74080476Y-65166666D02*
X74556666Y-65166666D01*
X73985238Y-65452380D02*
X74318571Y-64452380D01*
X74651904Y-65452380D01*
X74985238Y-65452380D02*
X74985238Y-64452380D01*
X75556666Y-65452380D01*
X75556666Y-64452380D01*
X71842380Y-58753333D02*
X72556666Y-58753333D01*
X72699523Y-58800952D01*
X72794761Y-58896190D01*
X72842380Y-59039047D01*
X72842380Y-59134285D01*
X72842380Y-57753333D02*
X72842380Y-58324761D01*
X72842380Y-58039047D02*
X71842380Y-58039047D01*
X71985238Y-58134285D01*
X72080476Y-58229523D01*
X72128095Y-58324761D01*
%TO.C,J4*%
X49094285Y-86947142D02*
X49046666Y-86994761D01*
X48903809Y-87042380D01*
X48808571Y-87042380D01*
X48665714Y-86994761D01*
X48570476Y-86899523D01*
X48522857Y-86804285D01*
X48475238Y-86613809D01*
X48475238Y-86470952D01*
X48522857Y-86280476D01*
X48570476Y-86185238D01*
X48665714Y-86090000D01*
X48808571Y-86042380D01*
X48903809Y-86042380D01*
X49046666Y-86090000D01*
X49094285Y-86137619D01*
X49665714Y-87042380D02*
X49570476Y-86994761D01*
X49522857Y-86947142D01*
X49475238Y-86851904D01*
X49475238Y-86566190D01*
X49522857Y-86470952D01*
X49570476Y-86423333D01*
X49665714Y-86375714D01*
X49808571Y-86375714D01*
X49903809Y-86423333D01*
X49951428Y-86470952D01*
X49999047Y-86566190D01*
X49999047Y-86851904D01*
X49951428Y-86947142D01*
X49903809Y-86994761D01*
X49808571Y-87042380D01*
X49665714Y-87042380D01*
X50427619Y-86375714D02*
X50427619Y-87042380D01*
X50427619Y-86470952D02*
X50475238Y-86423333D01*
X50570476Y-86375714D01*
X50713333Y-86375714D01*
X50808571Y-86423333D01*
X50856190Y-86518571D01*
X50856190Y-87042380D01*
X51332380Y-86375714D02*
X51332380Y-87042380D01*
X51332380Y-86470952D02*
X51380000Y-86423333D01*
X51475238Y-86375714D01*
X51618095Y-86375714D01*
X51713333Y-86423333D01*
X51760952Y-86518571D01*
X51760952Y-87042380D01*
X51999047Y-87137619D02*
X52760952Y-87137619D01*
X53189523Y-86042380D02*
X53284761Y-86042380D01*
X53380000Y-86090000D01*
X53427619Y-86137619D01*
X53475238Y-86232857D01*
X53522857Y-86423333D01*
X53522857Y-86661428D01*
X53475238Y-86851904D01*
X53427619Y-86947142D01*
X53380000Y-86994761D01*
X53284761Y-87042380D01*
X53189523Y-87042380D01*
X53094285Y-86994761D01*
X53046666Y-86947142D01*
X52999047Y-86851904D01*
X52951428Y-86661428D01*
X52951428Y-86423333D01*
X52999047Y-86232857D01*
X53046666Y-86137619D01*
X53094285Y-86090000D01*
X53189523Y-86042380D01*
X54475238Y-87042380D02*
X53903809Y-87042380D01*
X54189523Y-87042380D02*
X54189523Y-86042380D01*
X54094285Y-86185238D01*
X53999047Y-86280476D01*
X53903809Y-86328095D01*
X54808571Y-87042380D02*
X55332380Y-86375714D01*
X54808571Y-86375714D02*
X55332380Y-87042380D01*
X55903809Y-86042380D02*
X55999047Y-86042380D01*
X56094285Y-86090000D01*
X56141904Y-86137619D01*
X56189523Y-86232857D01*
X56237142Y-86423333D01*
X56237142Y-86661428D01*
X56189523Y-86851904D01*
X56141904Y-86947142D01*
X56094285Y-86994761D01*
X55999047Y-87042380D01*
X55903809Y-87042380D01*
X55808571Y-86994761D01*
X55760952Y-86947142D01*
X55713333Y-86851904D01*
X55665714Y-86661428D01*
X55665714Y-86423333D01*
X55713333Y-86232857D01*
X55760952Y-86137619D01*
X55808571Y-86090000D01*
X55903809Y-86042380D01*
X57094285Y-86375714D02*
X57094285Y-87042380D01*
X56856190Y-85994761D02*
X56618095Y-86709047D01*
X57237142Y-86709047D01*
X57380000Y-87137619D02*
X58141904Y-87137619D01*
X58713333Y-86518571D02*
X58380000Y-86518571D01*
X58380000Y-87042380D02*
X58380000Y-86042380D01*
X58856190Y-86042380D01*
X59618095Y-86994761D02*
X59522857Y-87042380D01*
X59332380Y-87042380D01*
X59237142Y-86994761D01*
X59189523Y-86899523D01*
X59189523Y-86518571D01*
X59237142Y-86423333D01*
X59332380Y-86375714D01*
X59522857Y-86375714D01*
X59618095Y-86423333D01*
X59665714Y-86518571D01*
X59665714Y-86613809D01*
X59189523Y-86709047D01*
X60094285Y-87042380D02*
X60094285Y-86375714D01*
X60094285Y-86470952D02*
X60141904Y-86423333D01*
X60237142Y-86375714D01*
X60380000Y-86375714D01*
X60475238Y-86423333D01*
X60522857Y-86518571D01*
X60522857Y-87042380D01*
X60522857Y-86518571D02*
X60570476Y-86423333D01*
X60665714Y-86375714D01*
X60808571Y-86375714D01*
X60903809Y-86423333D01*
X60951428Y-86518571D01*
X60951428Y-87042380D01*
X61856190Y-87042380D02*
X61856190Y-86518571D01*
X61808571Y-86423333D01*
X61713333Y-86375714D01*
X61522857Y-86375714D01*
X61427619Y-86423333D01*
X61856190Y-86994761D02*
X61760952Y-87042380D01*
X61522857Y-87042380D01*
X61427619Y-86994761D01*
X61380000Y-86899523D01*
X61380000Y-86804285D01*
X61427619Y-86709047D01*
X61522857Y-86661428D01*
X61760952Y-86661428D01*
X61856190Y-86613809D01*
X62475238Y-87042380D02*
X62380000Y-86994761D01*
X62332380Y-86899523D01*
X62332380Y-86042380D01*
X63237142Y-86994761D02*
X63141904Y-87042380D01*
X62951428Y-87042380D01*
X62856190Y-86994761D01*
X62808571Y-86899523D01*
X62808571Y-86518571D01*
X62856190Y-86423333D01*
X62951428Y-86375714D01*
X63141904Y-86375714D01*
X63237142Y-86423333D01*
X63284761Y-86518571D01*
X63284761Y-86613809D01*
X62808571Y-86709047D01*
X55332380Y-80343333D02*
X56046666Y-80343333D01*
X56189523Y-80390952D01*
X56284761Y-80486190D01*
X56332380Y-80629047D01*
X56332380Y-80724285D01*
X55665714Y-79438571D02*
X56332380Y-79438571D01*
X55284761Y-79676666D02*
X55999047Y-79914761D01*
X55999047Y-79295714D01*
%TO.C,J5*%
X49094285Y-108537142D02*
X49046666Y-108584761D01*
X48903809Y-108632380D01*
X48808571Y-108632380D01*
X48665714Y-108584761D01*
X48570476Y-108489523D01*
X48522857Y-108394285D01*
X48475238Y-108203809D01*
X48475238Y-108060952D01*
X48522857Y-107870476D01*
X48570476Y-107775238D01*
X48665714Y-107680000D01*
X48808571Y-107632380D01*
X48903809Y-107632380D01*
X49046666Y-107680000D01*
X49094285Y-107727619D01*
X49665714Y-108632380D02*
X49570476Y-108584761D01*
X49522857Y-108537142D01*
X49475238Y-108441904D01*
X49475238Y-108156190D01*
X49522857Y-108060952D01*
X49570476Y-108013333D01*
X49665714Y-107965714D01*
X49808571Y-107965714D01*
X49903809Y-108013333D01*
X49951428Y-108060952D01*
X49999047Y-108156190D01*
X49999047Y-108441904D01*
X49951428Y-108537142D01*
X49903809Y-108584761D01*
X49808571Y-108632380D01*
X49665714Y-108632380D01*
X50427619Y-107965714D02*
X50427619Y-108632380D01*
X50427619Y-108060952D02*
X50475238Y-108013333D01*
X50570476Y-107965714D01*
X50713333Y-107965714D01*
X50808571Y-108013333D01*
X50856190Y-108108571D01*
X50856190Y-108632380D01*
X51332380Y-107965714D02*
X51332380Y-108632380D01*
X51332380Y-108060952D02*
X51380000Y-108013333D01*
X51475238Y-107965714D01*
X51618095Y-107965714D01*
X51713333Y-108013333D01*
X51760952Y-108108571D01*
X51760952Y-108632380D01*
X51999047Y-108727619D02*
X52760952Y-108727619D01*
X53189523Y-107632380D02*
X53284761Y-107632380D01*
X53380000Y-107680000D01*
X53427619Y-107727619D01*
X53475238Y-107822857D01*
X53522857Y-108013333D01*
X53522857Y-108251428D01*
X53475238Y-108441904D01*
X53427619Y-108537142D01*
X53380000Y-108584761D01*
X53284761Y-108632380D01*
X53189523Y-108632380D01*
X53094285Y-108584761D01*
X53046666Y-108537142D01*
X52999047Y-108441904D01*
X52951428Y-108251428D01*
X52951428Y-108013333D01*
X52999047Y-107822857D01*
X53046666Y-107727619D01*
X53094285Y-107680000D01*
X53189523Y-107632380D01*
X54475238Y-108632380D02*
X53903809Y-108632380D01*
X54189523Y-108632380D02*
X54189523Y-107632380D01*
X54094285Y-107775238D01*
X53999047Y-107870476D01*
X53903809Y-107918095D01*
X54808571Y-108632380D02*
X55332380Y-107965714D01*
X54808571Y-107965714D02*
X55332380Y-108632380D01*
X55903809Y-107632380D02*
X55999047Y-107632380D01*
X56094285Y-107680000D01*
X56141904Y-107727619D01*
X56189523Y-107822857D01*
X56237142Y-108013333D01*
X56237142Y-108251428D01*
X56189523Y-108441904D01*
X56141904Y-108537142D01*
X56094285Y-108584761D01*
X55999047Y-108632380D01*
X55903809Y-108632380D01*
X55808571Y-108584761D01*
X55760952Y-108537142D01*
X55713333Y-108441904D01*
X55665714Y-108251428D01*
X55665714Y-108013333D01*
X55713333Y-107822857D01*
X55760952Y-107727619D01*
X55808571Y-107680000D01*
X55903809Y-107632380D01*
X57094285Y-107965714D02*
X57094285Y-108632380D01*
X56856190Y-107584761D02*
X56618095Y-108299047D01*
X57237142Y-108299047D01*
X57380000Y-108727619D02*
X58141904Y-108727619D01*
X58713333Y-108108571D02*
X58380000Y-108108571D01*
X58380000Y-108632380D02*
X58380000Y-107632380D01*
X58856190Y-107632380D01*
X59618095Y-108584761D02*
X59522857Y-108632380D01*
X59332380Y-108632380D01*
X59237142Y-108584761D01*
X59189523Y-108489523D01*
X59189523Y-108108571D01*
X59237142Y-108013333D01*
X59332380Y-107965714D01*
X59522857Y-107965714D01*
X59618095Y-108013333D01*
X59665714Y-108108571D01*
X59665714Y-108203809D01*
X59189523Y-108299047D01*
X60094285Y-108632380D02*
X60094285Y-107965714D01*
X60094285Y-108060952D02*
X60141904Y-108013333D01*
X60237142Y-107965714D01*
X60380000Y-107965714D01*
X60475238Y-108013333D01*
X60522857Y-108108571D01*
X60522857Y-108632380D01*
X60522857Y-108108571D02*
X60570476Y-108013333D01*
X60665714Y-107965714D01*
X60808571Y-107965714D01*
X60903809Y-108013333D01*
X60951428Y-108108571D01*
X60951428Y-108632380D01*
X61856190Y-108632380D02*
X61856190Y-108108571D01*
X61808571Y-108013333D01*
X61713333Y-107965714D01*
X61522857Y-107965714D01*
X61427619Y-108013333D01*
X61856190Y-108584761D02*
X61760952Y-108632380D01*
X61522857Y-108632380D01*
X61427619Y-108584761D01*
X61380000Y-108489523D01*
X61380000Y-108394285D01*
X61427619Y-108299047D01*
X61522857Y-108251428D01*
X61760952Y-108251428D01*
X61856190Y-108203809D01*
X62475238Y-108632380D02*
X62380000Y-108584761D01*
X62332380Y-108489523D01*
X62332380Y-107632380D01*
X63237142Y-108584761D02*
X63141904Y-108632380D01*
X62951428Y-108632380D01*
X62856190Y-108584761D01*
X62808571Y-108489523D01*
X62808571Y-108108571D01*
X62856190Y-108013333D01*
X62951428Y-107965714D01*
X63141904Y-107965714D01*
X63237142Y-108013333D01*
X63284761Y-108108571D01*
X63284761Y-108203809D01*
X62808571Y-108299047D01*
X55332380Y-101933333D02*
X56046666Y-101933333D01*
X56189523Y-101980952D01*
X56284761Y-102076190D01*
X56332380Y-102219047D01*
X56332380Y-102314285D01*
X55332380Y-100980952D02*
X55332380Y-101457142D01*
X55808571Y-101504761D01*
X55760952Y-101457142D01*
X55713333Y-101361904D01*
X55713333Y-101123809D01*
X55760952Y-101028571D01*
X55808571Y-100980952D01*
X55903809Y-100933333D01*
X56141904Y-100933333D01*
X56237142Y-100980952D01*
X56284761Y-101028571D01*
X56332380Y-101123809D01*
X56332380Y-101361904D01*
X56284761Y-101457142D01*
X56237142Y-101504761D01*
%TO.C,U2*%
D15*
X35476666Y-67832333D02*
X36276666Y-67832333D01*
X35876666Y-69232333D02*
X35876666Y-67832333D01*
X36743333Y-69232333D02*
X36743333Y-67832333D01*
X37209999Y-68832333D01*
X37676666Y-67832333D01*
X37676666Y-69232333D01*
X39143333Y-69099000D02*
X39076666Y-69165666D01*
X38876666Y-69232333D01*
X38743333Y-69232333D01*
X38543333Y-69165666D01*
X38409999Y-69032333D01*
X38343333Y-68899000D01*
X38276666Y-68632333D01*
X38276666Y-68432333D01*
X38343333Y-68165666D01*
X38409999Y-68032333D01*
X38543333Y-67899000D01*
X38743333Y-67832333D01*
X38876666Y-67832333D01*
X39076666Y-67899000D01*
X39143333Y-67965666D01*
X39676666Y-67965666D02*
X39743333Y-67899000D01*
X39876666Y-67832333D01*
X40209999Y-67832333D01*
X40343333Y-67899000D01*
X40409999Y-67965666D01*
X40476666Y-68099000D01*
X40476666Y-68232333D01*
X40409999Y-68432333D01*
X39609999Y-69232333D01*
X40476666Y-69232333D01*
X41009999Y-67965666D02*
X41076666Y-67899000D01*
X41209999Y-67832333D01*
X41543333Y-67832333D01*
X41676666Y-67899000D01*
X41743333Y-67965666D01*
X41809999Y-68099000D01*
X41809999Y-68232333D01*
X41743333Y-68432333D01*
X40943333Y-69232333D01*
X41809999Y-69232333D01*
X42676666Y-67832333D02*
X42809999Y-67832333D01*
X42943333Y-67899000D01*
X43009999Y-67965666D01*
X43076666Y-68099000D01*
X43143333Y-68365666D01*
X43143333Y-68699000D01*
X43076666Y-68965666D01*
X43009999Y-69099000D01*
X42943333Y-69165666D01*
X42809999Y-69232333D01*
X42676666Y-69232333D01*
X42543333Y-69165666D01*
X42476666Y-69099000D01*
X42409999Y-68965666D01*
X42343333Y-68699000D01*
X42343333Y-68365666D01*
X42409999Y-68099000D01*
X42476666Y-67965666D01*
X42543333Y-67899000D01*
X42676666Y-67832333D01*
X43943333Y-68432333D02*
X43809999Y-68365666D01*
X43743333Y-68299000D01*
X43676666Y-68165666D01*
X43676666Y-68099000D01*
X43743333Y-67965666D01*
X43809999Y-67899000D01*
X43943333Y-67832333D01*
X44209999Y-67832333D01*
X44343333Y-67899000D01*
X44409999Y-67965666D01*
X44476666Y-68099000D01*
X44476666Y-68165666D01*
X44409999Y-68299000D01*
X44343333Y-68365666D01*
X44209999Y-68432333D01*
X43943333Y-68432333D01*
X43809999Y-68499000D01*
X43743333Y-68565666D01*
X43676666Y-68699000D01*
X43676666Y-68965666D01*
X43743333Y-69099000D01*
X43809999Y-69165666D01*
X43943333Y-69232333D01*
X44209999Y-69232333D01*
X44343333Y-69165666D01*
X44409999Y-69099000D01*
X44476666Y-68965666D01*
X44476666Y-68699000D01*
X44409999Y-68565666D01*
X44343333Y-68499000D01*
X44209999Y-68432333D01*
X44743333Y-69365666D02*
X45809999Y-69365666D01*
X46076666Y-69165666D02*
X46276666Y-69232333D01*
X46609999Y-69232333D01*
X46743333Y-69165666D01*
X46809999Y-69099000D01*
X46876666Y-68965666D01*
X46876666Y-68832333D01*
X46809999Y-68699000D01*
X46743333Y-68632333D01*
X46609999Y-68565666D01*
X46343333Y-68499000D01*
X46209999Y-68432333D01*
X46143333Y-68365666D01*
X46076666Y-68232333D01*
X46076666Y-68099000D01*
X46143333Y-67965666D01*
X46209999Y-67899000D01*
X46343333Y-67832333D01*
X46676666Y-67832333D01*
X46876666Y-67899000D01*
X47476666Y-69232333D02*
X47476666Y-67832333D01*
X48809999Y-69232333D02*
X48143333Y-69232333D01*
X48143333Y-67832333D01*
X49276666Y-68499000D02*
X49743333Y-68499000D01*
X49943333Y-69232333D02*
X49276666Y-69232333D01*
X49276666Y-67832333D01*
X49943333Y-67832333D01*
X50543333Y-69232333D02*
X50543333Y-67832333D01*
X51343333Y-69232333D01*
X51343333Y-67832333D01*
X51809999Y-67832333D02*
X52609999Y-67832333D01*
X52209999Y-69232333D02*
X52209999Y-67832333D01*
X53010000Y-69165666D02*
X53210000Y-69232333D01*
X53543333Y-69232333D01*
X53676666Y-69165666D01*
X53743333Y-69099000D01*
X53810000Y-68965666D01*
X53810000Y-68832333D01*
X53743333Y-68699000D01*
X53676666Y-68632333D01*
X53543333Y-68565666D01*
X53276666Y-68499000D01*
X53143333Y-68432333D01*
X53076666Y-68365666D01*
X53010000Y-68232333D01*
X53010000Y-68099000D01*
X53076666Y-67965666D01*
X53143333Y-67899000D01*
X53276666Y-67832333D01*
X53610000Y-67832333D01*
X53810000Y-67899000D01*
X54209999Y-67832333D02*
X55009999Y-67832333D01*
X54609999Y-69232333D02*
X54609999Y-67832333D01*
X55476666Y-68499000D02*
X55943333Y-68499000D01*
X56143333Y-69232333D02*
X55476666Y-69232333D01*
X55476666Y-67832333D01*
X56143333Y-67832333D01*
X56743333Y-69232333D02*
X56743333Y-67832333D01*
X57276666Y-67832333D01*
X57410000Y-67899000D01*
X57476666Y-67965666D01*
X57543333Y-68099000D01*
X57543333Y-68299000D01*
X57476666Y-68432333D01*
X57410000Y-68499000D01*
X57276666Y-68565666D01*
X56743333Y-68565666D01*
X58076666Y-69165666D02*
X58276666Y-69232333D01*
X58610000Y-69232333D01*
X58743333Y-69165666D01*
X58810000Y-69099000D01*
X58876666Y-68965666D01*
X58876666Y-68832333D01*
X58810000Y-68699000D01*
X58743333Y-68632333D01*
X58610000Y-68565666D01*
X58343333Y-68499000D01*
X58210000Y-68432333D01*
X58143333Y-68365666D01*
X58076666Y-68232333D01*
X58076666Y-68099000D01*
X58143333Y-67965666D01*
X58210000Y-67899000D01*
X58343333Y-67832333D01*
X58676666Y-67832333D01*
X58876666Y-67899000D01*
X59276666Y-67832333D02*
X60076666Y-67832333D01*
X59676666Y-69232333D02*
X59676666Y-67832333D01*
X60543333Y-69232333D02*
X60543333Y-67832333D01*
X62010000Y-69099000D02*
X61943333Y-69165666D01*
X61743333Y-69232333D01*
X61610000Y-69232333D01*
X61410000Y-69165666D01*
X61276666Y-69032333D01*
X61210000Y-68899000D01*
X61143333Y-68632333D01*
X61143333Y-68432333D01*
X61210000Y-68165666D01*
X61276666Y-68032333D01*
X61410000Y-67899000D01*
X61610000Y-67832333D01*
X61743333Y-67832333D01*
X61943333Y-67899000D01*
X62010000Y-67965666D01*
X62610000Y-69232333D02*
X62610000Y-67832333D01*
X63410000Y-69232333D02*
X62810000Y-68432333D01*
X63410000Y-67832333D02*
X62610000Y-68632333D01*
%TO.C,U3*%
X35476666Y-89422333D02*
X36276666Y-89422333D01*
X35876666Y-90822333D02*
X35876666Y-89422333D01*
X36743333Y-90822333D02*
X36743333Y-89422333D01*
X37209999Y-90422333D01*
X37676666Y-89422333D01*
X37676666Y-90822333D01*
X39143333Y-90689000D02*
X39076666Y-90755666D01*
X38876666Y-90822333D01*
X38743333Y-90822333D01*
X38543333Y-90755666D01*
X38409999Y-90622333D01*
X38343333Y-90489000D01*
X38276666Y-90222333D01*
X38276666Y-90022333D01*
X38343333Y-89755666D01*
X38409999Y-89622333D01*
X38543333Y-89489000D01*
X38743333Y-89422333D01*
X38876666Y-89422333D01*
X39076666Y-89489000D01*
X39143333Y-89555666D01*
X39676666Y-89555666D02*
X39743333Y-89489000D01*
X39876666Y-89422333D01*
X40209999Y-89422333D01*
X40343333Y-89489000D01*
X40409999Y-89555666D01*
X40476666Y-89689000D01*
X40476666Y-89822333D01*
X40409999Y-90022333D01*
X39609999Y-90822333D01*
X40476666Y-90822333D01*
X41009999Y-89555666D02*
X41076666Y-89489000D01*
X41209999Y-89422333D01*
X41543333Y-89422333D01*
X41676666Y-89489000D01*
X41743333Y-89555666D01*
X41809999Y-89689000D01*
X41809999Y-89822333D01*
X41743333Y-90022333D01*
X40943333Y-90822333D01*
X41809999Y-90822333D01*
X42676666Y-89422333D02*
X42809999Y-89422333D01*
X42943333Y-89489000D01*
X43009999Y-89555666D01*
X43076666Y-89689000D01*
X43143333Y-89955666D01*
X43143333Y-90289000D01*
X43076666Y-90555666D01*
X43009999Y-90689000D01*
X42943333Y-90755666D01*
X42809999Y-90822333D01*
X42676666Y-90822333D01*
X42543333Y-90755666D01*
X42476666Y-90689000D01*
X42409999Y-90555666D01*
X42343333Y-90289000D01*
X42343333Y-89955666D01*
X42409999Y-89689000D01*
X42476666Y-89555666D01*
X42543333Y-89489000D01*
X42676666Y-89422333D01*
X43943333Y-90022333D02*
X43809999Y-89955666D01*
X43743333Y-89889000D01*
X43676666Y-89755666D01*
X43676666Y-89689000D01*
X43743333Y-89555666D01*
X43809999Y-89489000D01*
X43943333Y-89422333D01*
X44209999Y-89422333D01*
X44343333Y-89489000D01*
X44409999Y-89555666D01*
X44476666Y-89689000D01*
X44476666Y-89755666D01*
X44409999Y-89889000D01*
X44343333Y-89955666D01*
X44209999Y-90022333D01*
X43943333Y-90022333D01*
X43809999Y-90089000D01*
X43743333Y-90155666D01*
X43676666Y-90289000D01*
X43676666Y-90555666D01*
X43743333Y-90689000D01*
X43809999Y-90755666D01*
X43943333Y-90822333D01*
X44209999Y-90822333D01*
X44343333Y-90755666D01*
X44409999Y-90689000D01*
X44476666Y-90555666D01*
X44476666Y-90289000D01*
X44409999Y-90155666D01*
X44343333Y-90089000D01*
X44209999Y-90022333D01*
X44743333Y-90955666D02*
X45809999Y-90955666D01*
X46076666Y-90755666D02*
X46276666Y-90822333D01*
X46609999Y-90822333D01*
X46743333Y-90755666D01*
X46809999Y-90689000D01*
X46876666Y-90555666D01*
X46876666Y-90422333D01*
X46809999Y-90289000D01*
X46743333Y-90222333D01*
X46609999Y-90155666D01*
X46343333Y-90089000D01*
X46209999Y-90022333D01*
X46143333Y-89955666D01*
X46076666Y-89822333D01*
X46076666Y-89689000D01*
X46143333Y-89555666D01*
X46209999Y-89489000D01*
X46343333Y-89422333D01*
X46676666Y-89422333D01*
X46876666Y-89489000D01*
X47476666Y-90822333D02*
X47476666Y-89422333D01*
X48809999Y-90822333D02*
X48143333Y-90822333D01*
X48143333Y-89422333D01*
X49276666Y-90089000D02*
X49743333Y-90089000D01*
X49943333Y-90822333D02*
X49276666Y-90822333D01*
X49276666Y-89422333D01*
X49943333Y-89422333D01*
X50543333Y-90822333D02*
X50543333Y-89422333D01*
X51343333Y-90822333D01*
X51343333Y-89422333D01*
X51809999Y-89422333D02*
X52609999Y-89422333D01*
X52209999Y-90822333D02*
X52209999Y-89422333D01*
X53010000Y-90755666D02*
X53210000Y-90822333D01*
X53543333Y-90822333D01*
X53676666Y-90755666D01*
X53743333Y-90689000D01*
X53810000Y-90555666D01*
X53810000Y-90422333D01*
X53743333Y-90289000D01*
X53676666Y-90222333D01*
X53543333Y-90155666D01*
X53276666Y-90089000D01*
X53143333Y-90022333D01*
X53076666Y-89955666D01*
X53010000Y-89822333D01*
X53010000Y-89689000D01*
X53076666Y-89555666D01*
X53143333Y-89489000D01*
X53276666Y-89422333D01*
X53610000Y-89422333D01*
X53810000Y-89489000D01*
X54209999Y-89422333D02*
X55009999Y-89422333D01*
X54609999Y-90822333D02*
X54609999Y-89422333D01*
X55476666Y-90089000D02*
X55943333Y-90089000D01*
X56143333Y-90822333D02*
X55476666Y-90822333D01*
X55476666Y-89422333D01*
X56143333Y-89422333D01*
X56743333Y-90822333D02*
X56743333Y-89422333D01*
X57276666Y-89422333D01*
X57410000Y-89489000D01*
X57476666Y-89555666D01*
X57543333Y-89689000D01*
X57543333Y-89889000D01*
X57476666Y-90022333D01*
X57410000Y-90089000D01*
X57276666Y-90155666D01*
X56743333Y-90155666D01*
X58076666Y-90755666D02*
X58276666Y-90822333D01*
X58610000Y-90822333D01*
X58743333Y-90755666D01*
X58810000Y-90689000D01*
X58876666Y-90555666D01*
X58876666Y-90422333D01*
X58810000Y-90289000D01*
X58743333Y-90222333D01*
X58610000Y-90155666D01*
X58343333Y-90089000D01*
X58210000Y-90022333D01*
X58143333Y-89955666D01*
X58076666Y-89822333D01*
X58076666Y-89689000D01*
X58143333Y-89555666D01*
X58210000Y-89489000D01*
X58343333Y-89422333D01*
X58676666Y-89422333D01*
X58876666Y-89489000D01*
X59276666Y-89422333D02*
X60076666Y-89422333D01*
X59676666Y-90822333D02*
X59676666Y-89422333D01*
X60543333Y-90822333D02*
X60543333Y-89422333D01*
X62010000Y-90689000D02*
X61943333Y-90755666D01*
X61743333Y-90822333D01*
X61610000Y-90822333D01*
X61410000Y-90755666D01*
X61276666Y-90622333D01*
X61210000Y-90489000D01*
X61143333Y-90222333D01*
X61143333Y-90022333D01*
X61210000Y-89755666D01*
X61276666Y-89622333D01*
X61410000Y-89489000D01*
X61610000Y-89422333D01*
X61743333Y-89422333D01*
X61943333Y-89489000D01*
X62010000Y-89555666D01*
X62610000Y-90822333D02*
X62610000Y-89422333D01*
X63410000Y-90822333D02*
X62810000Y-90022333D01*
X63410000Y-89422333D02*
X62610000Y-90222333D01*
%TD*%
M02*
