%FSLAX45Y45*%
G04 Gerber Fmt 4.5, Leading zero omitted, Abs format (unit mm)*
G04 Created by KiCad (PCBNEW (5.1.7)-1) date 2021-03-18 15:35:46*
%MOMM*%
%LPD*%
G01*
G04 APERTURE LIST*
%TA.AperFunction,Profile*%
%ADD10C,0.050000*%
%TD*%
%ADD11C,0.200000*%
%ADD12C,0.300000*%
G04 APERTURE END LIST*
D10*
X4699000Y-4699000D02*
X4699000Y-12700000D01*
X16764000Y-4699000D02*
X4699000Y-4699000D01*
X16764000Y-12700000D02*
X16764000Y-4699000D01*
X4699000Y-12700000D02*
X16764000Y-12700000D01*
D11*
X11507000Y-7062000D02*
X11607000Y-7162000D01*
X11607000Y-7062000D02*
X11507000Y-7162000D01*
X11507000Y-7316000D02*
X11607000Y-7416000D01*
X11607000Y-7316000D02*
X11507000Y-7416000D01*
X11507000Y-7570000D02*
X11607000Y-7670000D01*
X11607000Y-7570000D02*
X11507000Y-7670000D01*
X11507000Y-7824000D02*
X11607000Y-7924000D01*
X11607000Y-7824000D02*
X11507000Y-7924000D01*
X11761000Y-7062000D02*
X11861000Y-7162000D01*
X11861000Y-7062000D02*
X11761000Y-7162000D01*
X11761000Y-7316000D02*
X11861000Y-7416000D01*
X11861000Y-7316000D02*
X11761000Y-7416000D01*
X11761000Y-7570000D02*
X11861000Y-7670000D01*
X11861000Y-7570000D02*
X11761000Y-7670000D01*
X11761000Y-7824000D02*
X11861000Y-7924000D01*
X11861000Y-7824000D02*
X11761000Y-7924000D01*
X11126000Y-6046000D02*
X11226000Y-6146000D01*
X11226000Y-6046000D02*
X11126000Y-6146000D01*
X11380000Y-6046000D02*
X11480000Y-6146000D01*
X11480000Y-6046000D02*
X11380000Y-6146000D01*
X5538000Y-7570000D02*
X5638000Y-7670000D01*
X5638000Y-7570000D02*
X5538000Y-7670000D01*
X5538000Y-7824000D02*
X5638000Y-7924000D01*
X5638000Y-7824000D02*
X5538000Y-7924000D01*
X5538000Y-8078000D02*
X5638000Y-8178000D01*
X5638000Y-8078000D02*
X5538000Y-8178000D01*
X5538000Y-8332000D02*
X5638000Y-8432000D01*
X5638000Y-8332000D02*
X5538000Y-8432000D01*
X7062000Y-5411000D02*
X7162000Y-5511000D01*
X7162000Y-5411000D02*
X7062000Y-5511000D01*
X7062000Y-5665000D02*
X7162000Y-5765000D01*
X7162000Y-5665000D02*
X7062000Y-5765000D01*
X7062000Y-5919000D02*
X7162000Y-6019000D01*
X7162000Y-5919000D02*
X7062000Y-6019000D01*
X7062000Y-6173000D02*
X7162000Y-6273000D01*
X7162000Y-6173000D02*
X7062000Y-6273000D01*
X7316000Y-5411000D02*
X7416000Y-5511000D01*
X7416000Y-5411000D02*
X7316000Y-5511000D01*
X7316000Y-5665000D02*
X7416000Y-5765000D01*
X7416000Y-5665000D02*
X7316000Y-5765000D01*
X7316000Y-5919000D02*
X7416000Y-6019000D01*
X7416000Y-5919000D02*
X7316000Y-6019000D01*
X7316000Y-6173000D02*
X7416000Y-6273000D01*
X7416000Y-6173000D02*
X7316000Y-6273000D01*
X11126000Y-10110000D02*
X11226000Y-10210000D01*
X11226000Y-10110000D02*
X11126000Y-10210000D01*
X11380000Y-10110000D02*
X11480000Y-10210000D01*
X11480000Y-10110000D02*
X11380000Y-10210000D01*
X11634000Y-10110000D02*
X11734000Y-10210000D01*
X11734000Y-10110000D02*
X11634000Y-10210000D01*
X11888000Y-10110000D02*
X11988000Y-10210000D01*
X11988000Y-10110000D02*
X11888000Y-10210000D01*
X11507000Y-8586000D02*
X11607000Y-8686000D01*
X11607000Y-8586000D02*
X11507000Y-8686000D01*
X11507000Y-8840000D02*
X11607000Y-8940000D01*
X11607000Y-8840000D02*
X11507000Y-8940000D01*
X11507000Y-9094000D02*
X11607000Y-9194000D01*
X11607000Y-9094000D02*
X11507000Y-9194000D01*
X11507000Y-9348000D02*
X11607000Y-9448000D01*
X11607000Y-9348000D02*
X11507000Y-9448000D01*
X11761000Y-8586000D02*
X11861000Y-8686000D01*
X11861000Y-8586000D02*
X11761000Y-8686000D01*
X11761000Y-8840000D02*
X11861000Y-8940000D01*
X11861000Y-8840000D02*
X11761000Y-8940000D01*
X11761000Y-9094000D02*
X11861000Y-9194000D01*
X11861000Y-9094000D02*
X11761000Y-9194000D01*
X11761000Y-9348000D02*
X11861000Y-9448000D01*
X11861000Y-9348000D02*
X11761000Y-9448000D01*
X5538000Y-9729000D02*
X5638000Y-9829000D01*
X5638000Y-9729000D02*
X5538000Y-9829000D01*
X5538000Y-9983000D02*
X5638000Y-10083000D01*
X5638000Y-9983000D02*
X5538000Y-10083000D01*
X5538000Y-10237000D02*
X5638000Y-10337000D01*
X5638000Y-10237000D02*
X5538000Y-10337000D01*
X5538000Y-10491000D02*
X5638000Y-10591000D01*
X5638000Y-10491000D02*
X5538000Y-10591000D01*
X6273800Y-9271000D02*
G75*
G03*
X6273800Y-9271000I-50800J0D01*
G01*
X6273800Y-9525000D02*
G75*
G03*
X6273800Y-9525000I-50800J0D01*
G01*
X6273800Y-9779000D02*
G75*
G03*
X6273800Y-9779000I-50800J0D01*
G01*
X6273800Y-10033000D02*
G75*
G03*
X6273800Y-10033000I-50800J0D01*
G01*
X6273800Y-10287000D02*
G75*
G03*
X6273800Y-10287000I-50800J0D01*
G01*
X6273800Y-10541000D02*
G75*
G03*
X6273800Y-10541000I-50800J0D01*
G01*
X6273800Y-10795000D02*
G75*
G03*
X6273800Y-10795000I-50800J0D01*
G01*
X6273800Y-11049000D02*
G75*
G03*
X6273800Y-11049000I-50800J0D01*
G01*
X7035800Y-9271000D02*
G75*
G03*
X7035800Y-9271000I-50800J0D01*
G01*
X7162800Y-9436100D02*
G75*
G03*
X7162800Y-9436100I-50800J0D01*
G01*
X7289800Y-9271000D02*
G75*
G03*
X7289800Y-9271000I-50800J0D01*
G01*
X7543800Y-9271000D02*
G75*
G03*
X7543800Y-9271000I-50800J0D01*
G01*
X7543800Y-9525000D02*
G75*
G03*
X7543800Y-9525000I-50800J0D01*
G01*
X7543800Y-9779000D02*
G75*
G03*
X7543800Y-9779000I-50800J0D01*
G01*
X7543800Y-10033000D02*
G75*
G03*
X7543800Y-10033000I-50800J0D01*
G01*
X7543800Y-10287000D02*
G75*
G03*
X7543800Y-10287000I-50800J0D01*
G01*
X7543800Y-10541000D02*
G75*
G03*
X7543800Y-10541000I-50800J0D01*
G01*
X7543800Y-10795000D02*
G75*
G03*
X7543800Y-10795000I-50800J0D01*
G01*
X7543800Y-11049000D02*
G75*
G03*
X7543800Y-11049000I-50800J0D01*
G01*
X6273800Y-7112000D02*
G75*
G03*
X6273800Y-7112000I-50800J0D01*
G01*
X6273800Y-7366000D02*
G75*
G03*
X6273800Y-7366000I-50800J0D01*
G01*
X6273800Y-7620000D02*
G75*
G03*
X6273800Y-7620000I-50800J0D01*
G01*
X6273800Y-7874000D02*
G75*
G03*
X6273800Y-7874000I-50800J0D01*
G01*
X6273800Y-8128000D02*
G75*
G03*
X6273800Y-8128000I-50800J0D01*
G01*
X6273800Y-8382000D02*
G75*
G03*
X6273800Y-8382000I-50800J0D01*
G01*
X6273800Y-8636000D02*
G75*
G03*
X6273800Y-8636000I-50800J0D01*
G01*
X6273800Y-8890000D02*
G75*
G03*
X6273800Y-8890000I-50800J0D01*
G01*
X7035800Y-7112000D02*
G75*
G03*
X7035800Y-7112000I-50800J0D01*
G01*
X7162800Y-7277100D02*
G75*
G03*
X7162800Y-7277100I-50800J0D01*
G01*
X7289800Y-7112000D02*
G75*
G03*
X7289800Y-7112000I-50800J0D01*
G01*
X7543800Y-7112000D02*
G75*
G03*
X7543800Y-7112000I-50800J0D01*
G01*
X7543800Y-7366000D02*
G75*
G03*
X7543800Y-7366000I-50800J0D01*
G01*
X7543800Y-7620000D02*
G75*
G03*
X7543800Y-7620000I-50800J0D01*
G01*
X7543800Y-7874000D02*
G75*
G03*
X7543800Y-7874000I-50800J0D01*
G01*
X7543800Y-8128000D02*
G75*
G03*
X7543800Y-8128000I-50800J0D01*
G01*
X7543800Y-8382000D02*
G75*
G03*
X7543800Y-8382000I-50800J0D01*
G01*
X7543800Y-8636000D02*
G75*
G03*
X7543800Y-8636000I-50800J0D01*
G01*
X7543800Y-8890000D02*
G75*
G03*
X7543800Y-8890000I-50800J0D01*
G01*
X8128000Y-6354000D02*
X8128000Y-6458000D01*
X8076000Y-6406000D02*
X8180000Y-6406000D01*
X8128000Y-6608000D02*
X8128000Y-6712000D01*
X8076000Y-6660000D02*
X8180000Y-6660000D01*
X8128000Y-6862000D02*
X8128000Y-6966000D01*
X8076000Y-6914000D02*
X8180000Y-6914000D01*
X8128000Y-7116000D02*
X8128000Y-7220000D01*
X8076000Y-7168000D02*
X8180000Y-7168000D01*
X8128000Y-7370000D02*
X8128000Y-7474000D01*
X8076000Y-7422000D02*
X8180000Y-7422000D01*
X8128000Y-7624000D02*
X8128000Y-7728000D01*
X8076000Y-7676000D02*
X8180000Y-7676000D01*
X8128000Y-7878000D02*
X8128000Y-7982000D01*
X8076000Y-7930000D02*
X8180000Y-7930000D01*
X8128000Y-8132000D02*
X8128000Y-8236000D01*
X8076000Y-8184000D02*
X8180000Y-8184000D01*
X8128000Y-8386000D02*
X8128000Y-8490000D01*
X8076000Y-8438000D02*
X8180000Y-8438000D01*
X8128000Y-8640000D02*
X8128000Y-8744000D01*
X8076000Y-8692000D02*
X8180000Y-8692000D01*
X8128000Y-8894000D02*
X8128000Y-8998000D01*
X8076000Y-8946000D02*
X8180000Y-8946000D01*
X8128000Y-9148000D02*
X8128000Y-9252000D01*
X8076000Y-9200000D02*
X8180000Y-9200000D01*
X8128000Y-9402000D02*
X8128000Y-9506000D01*
X8076000Y-9454000D02*
X8180000Y-9454000D01*
X8128000Y-9656000D02*
X8128000Y-9760000D01*
X8076000Y-9708000D02*
X8180000Y-9708000D01*
X8128000Y-9910000D02*
X8128000Y-10014000D01*
X8076000Y-9962000D02*
X8180000Y-9962000D01*
X8128000Y-10164000D02*
X8128000Y-10268000D01*
X8076000Y-10216000D02*
X8180000Y-10216000D01*
X8128000Y-10418000D02*
X8128000Y-10522000D01*
X8076000Y-10470000D02*
X8180000Y-10470000D01*
X8128000Y-10672000D02*
X8128000Y-10776000D01*
X8076000Y-10724000D02*
X8180000Y-10724000D01*
X8128000Y-10926000D02*
X8128000Y-11030000D01*
X8076000Y-10978000D02*
X8180000Y-10978000D01*
X10668000Y-6354000D02*
X10668000Y-6458000D01*
X10616000Y-6406000D02*
X10720000Y-6406000D01*
X10668000Y-6608000D02*
X10668000Y-6712000D01*
X10616000Y-6660000D02*
X10720000Y-6660000D01*
X10668000Y-6862000D02*
X10668000Y-6966000D01*
X10616000Y-6914000D02*
X10720000Y-6914000D01*
X10668000Y-7116000D02*
X10668000Y-7220000D01*
X10616000Y-7168000D02*
X10720000Y-7168000D01*
X10668000Y-7370000D02*
X10668000Y-7474000D01*
X10616000Y-7422000D02*
X10720000Y-7422000D01*
X10668000Y-7624000D02*
X10668000Y-7728000D01*
X10616000Y-7676000D02*
X10720000Y-7676000D01*
X10668000Y-7878000D02*
X10668000Y-7982000D01*
X10616000Y-7930000D02*
X10720000Y-7930000D01*
X10668000Y-8132000D02*
X10668000Y-8236000D01*
X10616000Y-8184000D02*
X10720000Y-8184000D01*
X10668000Y-8386000D02*
X10668000Y-8490000D01*
X10616000Y-8438000D02*
X10720000Y-8438000D01*
X10668000Y-8640000D02*
X10668000Y-8744000D01*
X10616000Y-8692000D02*
X10720000Y-8692000D01*
X10668000Y-8894000D02*
X10668000Y-8998000D01*
X10616000Y-8946000D02*
X10720000Y-8946000D01*
X10668000Y-9148000D02*
X10668000Y-9252000D01*
X10616000Y-9200000D02*
X10720000Y-9200000D01*
X10668000Y-9402000D02*
X10668000Y-9506000D01*
X10616000Y-9454000D02*
X10720000Y-9454000D01*
X10668000Y-9656000D02*
X10668000Y-9760000D01*
X10616000Y-9708000D02*
X10720000Y-9708000D01*
X10668000Y-9910000D02*
X10668000Y-10014000D01*
X10616000Y-9962000D02*
X10720000Y-9962000D01*
X10668000Y-10164000D02*
X10668000Y-10268000D01*
X10616000Y-10216000D02*
X10720000Y-10216000D01*
X10668000Y-10418000D02*
X10668000Y-10522000D01*
X10616000Y-10470000D02*
X10720000Y-10470000D01*
X10668000Y-10672000D02*
X10668000Y-10776000D01*
X10616000Y-10724000D02*
X10720000Y-10724000D01*
X10668000Y-10926000D02*
X10668000Y-11030000D01*
X10616000Y-10978000D02*
X10720000Y-10978000D01*
D12*
X4982928Y-13168214D02*
X4982928Y-12868214D01*
X5054357Y-12868214D01*
X5097214Y-12882500D01*
X5125786Y-12911071D01*
X5140071Y-12939643D01*
X5154357Y-12996786D01*
X5154357Y-13039643D01*
X5140071Y-13096786D01*
X5125786Y-13125357D01*
X5097214Y-13153929D01*
X5054357Y-13168214D01*
X4982928Y-13168214D01*
X5282928Y-13168214D02*
X5282928Y-12968214D01*
X5282928Y-13025357D02*
X5297214Y-12996786D01*
X5311500Y-12982500D01*
X5340071Y-12968214D01*
X5368643Y-12968214D01*
X5468643Y-13168214D02*
X5468643Y-12968214D01*
X5468643Y-12868214D02*
X5454357Y-12882500D01*
X5468643Y-12896786D01*
X5482928Y-12882500D01*
X5468643Y-12868214D01*
X5468643Y-12896786D01*
X5654357Y-13168214D02*
X5625786Y-13153929D01*
X5611500Y-13125357D01*
X5611500Y-12868214D01*
X5811500Y-13168214D02*
X5782928Y-13153929D01*
X5768643Y-13125357D01*
X5768643Y-12868214D01*
X6154357Y-13168214D02*
X6154357Y-12868214D01*
X6254357Y-13082500D01*
X6354357Y-12868214D01*
X6354357Y-13168214D01*
X6625786Y-13168214D02*
X6625786Y-13011071D01*
X6611500Y-12982500D01*
X6582928Y-12968214D01*
X6525786Y-12968214D01*
X6497214Y-12982500D01*
X6625786Y-13153929D02*
X6597214Y-13168214D01*
X6525786Y-13168214D01*
X6497214Y-13153929D01*
X6482928Y-13125357D01*
X6482928Y-13096786D01*
X6497214Y-13068214D01*
X6525786Y-13053929D01*
X6597214Y-13053929D01*
X6625786Y-13039643D01*
X6768643Y-12968214D02*
X6768643Y-13268214D01*
X6768643Y-12982500D02*
X6797214Y-12968214D01*
X6854357Y-12968214D01*
X6882928Y-12982500D01*
X6897214Y-12996786D01*
X6911500Y-13025357D01*
X6911500Y-13111071D01*
X6897214Y-13139643D01*
X6882928Y-13153929D01*
X6854357Y-13168214D01*
X6797214Y-13168214D01*
X6768643Y-13153929D01*
X7040071Y-13139643D02*
X7054357Y-13153929D01*
X7040071Y-13168214D01*
X7025786Y-13153929D01*
X7040071Y-13139643D01*
X7040071Y-13168214D01*
X7040071Y-12982500D02*
X7054357Y-12996786D01*
X7040071Y-13011071D01*
X7025786Y-12996786D01*
X7040071Y-12982500D01*
X7040071Y-13011071D01*
X4596500Y-13612500D02*
X4696500Y-13712500D01*
X4696500Y-13612500D02*
X4596500Y-13712500D01*
X5140071Y-13798214D02*
X4968643Y-13798214D01*
X5054357Y-13798214D02*
X5054357Y-13498214D01*
X5025786Y-13541071D01*
X4997214Y-13569643D01*
X4968643Y-13583929D01*
X5268643Y-13769643D02*
X5282928Y-13783929D01*
X5268643Y-13798214D01*
X5254357Y-13783929D01*
X5268643Y-13769643D01*
X5268643Y-13798214D01*
X5468643Y-13498214D02*
X5497214Y-13498214D01*
X5525786Y-13512500D01*
X5540071Y-13526786D01*
X5554357Y-13555357D01*
X5568643Y-13612500D01*
X5568643Y-13683929D01*
X5554357Y-13741071D01*
X5540071Y-13769643D01*
X5525786Y-13783929D01*
X5497214Y-13798214D01*
X5468643Y-13798214D01*
X5440071Y-13783929D01*
X5425786Y-13769643D01*
X5411500Y-13741071D01*
X5397214Y-13683929D01*
X5397214Y-13612500D01*
X5411500Y-13555357D01*
X5425786Y-13526786D01*
X5440071Y-13512500D01*
X5468643Y-13498214D01*
X5754357Y-13498214D02*
X5782928Y-13498214D01*
X5811500Y-13512500D01*
X5825786Y-13526786D01*
X5840071Y-13555357D01*
X5854357Y-13612500D01*
X5854357Y-13683929D01*
X5840071Y-13741071D01*
X5825786Y-13769643D01*
X5811500Y-13783929D01*
X5782928Y-13798214D01*
X5754357Y-13798214D01*
X5725786Y-13783929D01*
X5711500Y-13769643D01*
X5697214Y-13741071D01*
X5682928Y-13683929D01*
X5682928Y-13612500D01*
X5697214Y-13555357D01*
X5711500Y-13526786D01*
X5725786Y-13512500D01*
X5754357Y-13498214D01*
X5982928Y-13798214D02*
X5982928Y-13598214D01*
X5982928Y-13626786D02*
X5997214Y-13612500D01*
X6025786Y-13598214D01*
X6068643Y-13598214D01*
X6097214Y-13612500D01*
X6111500Y-13641071D01*
X6111500Y-13798214D01*
X6111500Y-13641071D02*
X6125786Y-13612500D01*
X6154357Y-13598214D01*
X6197214Y-13598214D01*
X6225786Y-13612500D01*
X6240071Y-13641071D01*
X6240071Y-13798214D01*
X6382928Y-13798214D02*
X6382928Y-13598214D01*
X6382928Y-13626786D02*
X6397214Y-13612500D01*
X6425786Y-13598214D01*
X6468643Y-13598214D01*
X6497214Y-13612500D01*
X6511500Y-13641071D01*
X6511500Y-13798214D01*
X6511500Y-13641071D02*
X6525786Y-13612500D01*
X6554357Y-13598214D01*
X6597214Y-13598214D01*
X6625786Y-13612500D01*
X6640071Y-13641071D01*
X6640071Y-13798214D01*
X7225786Y-13483929D02*
X6968643Y-13869643D01*
X7611500Y-13498214D02*
X7640071Y-13498214D01*
X7668643Y-13512500D01*
X7682928Y-13526786D01*
X7697214Y-13555357D01*
X7711500Y-13612500D01*
X7711500Y-13683929D01*
X7697214Y-13741071D01*
X7682928Y-13769643D01*
X7668643Y-13783929D01*
X7640071Y-13798214D01*
X7611500Y-13798214D01*
X7582928Y-13783929D01*
X7568643Y-13769643D01*
X7554357Y-13741071D01*
X7540071Y-13683929D01*
X7540071Y-13612500D01*
X7554357Y-13555357D01*
X7568643Y-13526786D01*
X7582928Y-13512500D01*
X7611500Y-13498214D01*
X7840071Y-13769643D02*
X7854357Y-13783929D01*
X7840071Y-13798214D01*
X7825786Y-13783929D01*
X7840071Y-13769643D01*
X7840071Y-13798214D01*
X8040071Y-13498214D02*
X8068643Y-13498214D01*
X8097214Y-13512500D01*
X8111500Y-13526786D01*
X8125786Y-13555357D01*
X8140071Y-13612500D01*
X8140071Y-13683929D01*
X8125786Y-13741071D01*
X8111500Y-13769643D01*
X8097214Y-13783929D01*
X8068643Y-13798214D01*
X8040071Y-13798214D01*
X8011500Y-13783929D01*
X7997214Y-13769643D01*
X7982928Y-13741071D01*
X7968643Y-13683929D01*
X7968643Y-13612500D01*
X7982928Y-13555357D01*
X7997214Y-13526786D01*
X8011500Y-13512500D01*
X8040071Y-13498214D01*
X8240071Y-13498214D02*
X8425786Y-13498214D01*
X8325786Y-13612500D01*
X8368643Y-13612500D01*
X8397214Y-13626786D01*
X8411500Y-13641071D01*
X8425786Y-13669643D01*
X8425786Y-13741071D01*
X8411500Y-13769643D01*
X8397214Y-13783929D01*
X8368643Y-13798214D01*
X8282928Y-13798214D01*
X8254357Y-13783929D01*
X8240071Y-13769643D01*
X8568643Y-13798214D02*
X8625786Y-13798214D01*
X8654357Y-13783929D01*
X8668643Y-13769643D01*
X8697214Y-13726786D01*
X8711500Y-13669643D01*
X8711500Y-13555357D01*
X8697214Y-13526786D01*
X8682928Y-13512500D01*
X8654357Y-13498214D01*
X8597214Y-13498214D01*
X8568643Y-13512500D01*
X8554357Y-13526786D01*
X8540071Y-13555357D01*
X8540071Y-13626786D01*
X8554357Y-13655357D01*
X8568643Y-13669643D01*
X8597214Y-13683929D01*
X8654357Y-13683929D01*
X8682928Y-13669643D01*
X8697214Y-13655357D01*
X8711500Y-13626786D01*
X8825786Y-13498214D02*
X8825786Y-13555357D01*
X8940071Y-13498214D02*
X8940071Y-13555357D01*
X9382928Y-13912500D02*
X9368643Y-13898214D01*
X9340071Y-13855357D01*
X9325786Y-13826786D01*
X9311500Y-13783929D01*
X9297214Y-13712500D01*
X9297214Y-13655357D01*
X9311500Y-13583929D01*
X9325786Y-13541071D01*
X9340071Y-13512500D01*
X9368643Y-13469643D01*
X9382928Y-13455357D01*
X9468643Y-13498214D02*
X9654357Y-13498214D01*
X9554357Y-13612500D01*
X9597214Y-13612500D01*
X9625786Y-13626786D01*
X9640071Y-13641071D01*
X9654357Y-13669643D01*
X9654357Y-13741071D01*
X9640071Y-13769643D01*
X9625786Y-13783929D01*
X9597214Y-13798214D01*
X9511500Y-13798214D01*
X9482928Y-13783929D01*
X9468643Y-13769643D01*
X9825786Y-13626786D02*
X9797214Y-13612500D01*
X9782928Y-13598214D01*
X9768643Y-13569643D01*
X9768643Y-13555357D01*
X9782928Y-13526786D01*
X9797214Y-13512500D01*
X9825786Y-13498214D01*
X9882928Y-13498214D01*
X9911500Y-13512500D01*
X9925786Y-13526786D01*
X9940071Y-13555357D01*
X9940071Y-13569643D01*
X9925786Y-13598214D01*
X9911500Y-13612500D01*
X9882928Y-13626786D01*
X9825786Y-13626786D01*
X9797214Y-13641071D01*
X9782928Y-13655357D01*
X9768643Y-13683929D01*
X9768643Y-13741071D01*
X9782928Y-13769643D01*
X9797214Y-13783929D01*
X9825786Y-13798214D01*
X9882928Y-13798214D01*
X9911500Y-13783929D01*
X9925786Y-13769643D01*
X9940071Y-13741071D01*
X9940071Y-13683929D01*
X9925786Y-13655357D01*
X9911500Y-13641071D01*
X9882928Y-13626786D01*
X10297214Y-13798214D02*
X10297214Y-13498214D01*
X10425786Y-13798214D02*
X10425786Y-13641071D01*
X10411500Y-13612500D01*
X10382928Y-13598214D01*
X10340071Y-13598214D01*
X10311500Y-13612500D01*
X10297214Y-13626786D01*
X10611500Y-13798214D02*
X10582928Y-13783929D01*
X10568643Y-13769643D01*
X10554357Y-13741071D01*
X10554357Y-13655357D01*
X10568643Y-13626786D01*
X10582928Y-13612500D01*
X10611500Y-13598214D01*
X10654357Y-13598214D01*
X10682928Y-13612500D01*
X10697214Y-13626786D01*
X10711500Y-13655357D01*
X10711500Y-13741071D01*
X10697214Y-13769643D01*
X10682928Y-13783929D01*
X10654357Y-13798214D01*
X10611500Y-13798214D01*
X10882928Y-13798214D02*
X10854357Y-13783929D01*
X10840071Y-13755357D01*
X10840071Y-13498214D01*
X11111500Y-13783929D02*
X11082928Y-13798214D01*
X11025786Y-13798214D01*
X10997214Y-13783929D01*
X10982928Y-13755357D01*
X10982928Y-13641071D01*
X10997214Y-13612500D01*
X11025786Y-13598214D01*
X11082928Y-13598214D01*
X11111500Y-13612500D01*
X11125786Y-13641071D01*
X11125786Y-13669643D01*
X10982928Y-13698214D01*
X11240071Y-13783929D02*
X11268643Y-13798214D01*
X11325786Y-13798214D01*
X11354357Y-13783929D01*
X11368643Y-13755357D01*
X11368643Y-13741071D01*
X11354357Y-13712500D01*
X11325786Y-13698214D01*
X11282928Y-13698214D01*
X11254357Y-13683929D01*
X11240071Y-13655357D01*
X11240071Y-13641071D01*
X11254357Y-13612500D01*
X11282928Y-13598214D01*
X11325786Y-13598214D01*
X11354357Y-13612500D01*
X11468643Y-13912500D02*
X11482928Y-13898214D01*
X11511500Y-13855357D01*
X11525786Y-13826786D01*
X11540071Y-13783929D01*
X11554357Y-13712500D01*
X11554357Y-13655357D01*
X11540071Y-13583929D01*
X11525786Y-13541071D01*
X11511500Y-13512500D01*
X11482928Y-13469643D01*
X11468643Y-13455357D01*
X4696500Y-14058500D02*
G75*
G03*
X4696500Y-14058500I-50800J0D01*
G01*
X5140071Y-14194214D02*
X4968643Y-14194214D01*
X5054357Y-14194214D02*
X5054357Y-13894214D01*
X5025786Y-13937071D01*
X4997214Y-13965643D01*
X4968643Y-13979929D01*
X5268643Y-14165643D02*
X5282928Y-14179929D01*
X5268643Y-14194214D01*
X5254357Y-14179929D01*
X5268643Y-14165643D01*
X5268643Y-14194214D01*
X5468643Y-13894214D02*
X5497214Y-13894214D01*
X5525786Y-13908500D01*
X5540071Y-13922786D01*
X5554357Y-13951357D01*
X5568643Y-14008500D01*
X5568643Y-14079929D01*
X5554357Y-14137071D01*
X5540071Y-14165643D01*
X5525786Y-14179929D01*
X5497214Y-14194214D01*
X5468643Y-14194214D01*
X5440071Y-14179929D01*
X5425786Y-14165643D01*
X5411500Y-14137071D01*
X5397214Y-14079929D01*
X5397214Y-14008500D01*
X5411500Y-13951357D01*
X5425786Y-13922786D01*
X5440071Y-13908500D01*
X5468643Y-13894214D01*
X5682928Y-13922786D02*
X5697214Y-13908500D01*
X5725786Y-13894214D01*
X5797214Y-13894214D01*
X5825786Y-13908500D01*
X5840071Y-13922786D01*
X5854357Y-13951357D01*
X5854357Y-13979929D01*
X5840071Y-14022786D01*
X5668643Y-14194214D01*
X5854357Y-14194214D01*
X5982928Y-14194214D02*
X5982928Y-13994214D01*
X5982928Y-14022786D02*
X5997214Y-14008500D01*
X6025786Y-13994214D01*
X6068643Y-13994214D01*
X6097214Y-14008500D01*
X6111500Y-14037071D01*
X6111500Y-14194214D01*
X6111500Y-14037071D02*
X6125786Y-14008500D01*
X6154357Y-13994214D01*
X6197214Y-13994214D01*
X6225786Y-14008500D01*
X6240071Y-14037071D01*
X6240071Y-14194214D01*
X6382928Y-14194214D02*
X6382928Y-13994214D01*
X6382928Y-14022786D02*
X6397214Y-14008500D01*
X6425786Y-13994214D01*
X6468643Y-13994214D01*
X6497214Y-14008500D01*
X6511500Y-14037071D01*
X6511500Y-14194214D01*
X6511500Y-14037071D02*
X6525786Y-14008500D01*
X6554357Y-13994214D01*
X6597214Y-13994214D01*
X6625786Y-14008500D01*
X6640071Y-14037071D01*
X6640071Y-14194214D01*
X7225786Y-13879929D02*
X6968643Y-14265643D01*
X7611500Y-13894214D02*
X7640071Y-13894214D01*
X7668643Y-13908500D01*
X7682928Y-13922786D01*
X7697214Y-13951357D01*
X7711500Y-14008500D01*
X7711500Y-14079929D01*
X7697214Y-14137071D01*
X7682928Y-14165643D01*
X7668643Y-14179929D01*
X7640071Y-14194214D01*
X7611500Y-14194214D01*
X7582928Y-14179929D01*
X7568643Y-14165643D01*
X7554357Y-14137071D01*
X7540071Y-14079929D01*
X7540071Y-14008500D01*
X7554357Y-13951357D01*
X7568643Y-13922786D01*
X7582928Y-13908500D01*
X7611500Y-13894214D01*
X7840071Y-14165643D02*
X7854357Y-14179929D01*
X7840071Y-14194214D01*
X7825786Y-14179929D01*
X7840071Y-14165643D01*
X7840071Y-14194214D01*
X8040071Y-13894214D02*
X8068643Y-13894214D01*
X8097214Y-13908500D01*
X8111500Y-13922786D01*
X8125786Y-13951357D01*
X8140071Y-14008500D01*
X8140071Y-14079929D01*
X8125786Y-14137071D01*
X8111500Y-14165643D01*
X8097214Y-14179929D01*
X8068643Y-14194214D01*
X8040071Y-14194214D01*
X8011500Y-14179929D01*
X7997214Y-14165643D01*
X7982928Y-14137071D01*
X7968643Y-14079929D01*
X7968643Y-14008500D01*
X7982928Y-13951357D01*
X7997214Y-13922786D01*
X8011500Y-13908500D01*
X8040071Y-13894214D01*
X8397214Y-13994214D02*
X8397214Y-14194214D01*
X8325786Y-13879929D02*
X8254357Y-14094214D01*
X8440071Y-14094214D01*
X8611500Y-13894214D02*
X8640071Y-13894214D01*
X8668643Y-13908500D01*
X8682928Y-13922786D01*
X8697214Y-13951357D01*
X8711500Y-14008500D01*
X8711500Y-14079929D01*
X8697214Y-14137071D01*
X8682928Y-14165643D01*
X8668643Y-14179929D01*
X8640071Y-14194214D01*
X8611500Y-14194214D01*
X8582928Y-14179929D01*
X8568643Y-14165643D01*
X8554357Y-14137071D01*
X8540071Y-14079929D01*
X8540071Y-14008500D01*
X8554357Y-13951357D01*
X8568643Y-13922786D01*
X8582928Y-13908500D01*
X8611500Y-13894214D01*
X8825786Y-13894214D02*
X8825786Y-13951357D01*
X8940071Y-13894214D02*
X8940071Y-13951357D01*
X9382928Y-14308500D02*
X9368643Y-14294214D01*
X9340071Y-14251357D01*
X9325786Y-14222786D01*
X9311500Y-14179929D01*
X9297214Y-14108500D01*
X9297214Y-14051357D01*
X9311500Y-13979929D01*
X9325786Y-13937071D01*
X9340071Y-13908500D01*
X9368643Y-13865643D01*
X9382928Y-13851357D01*
X9468643Y-13894214D02*
X9654357Y-13894214D01*
X9554357Y-14008500D01*
X9597214Y-14008500D01*
X9625786Y-14022786D01*
X9640071Y-14037071D01*
X9654357Y-14065643D01*
X9654357Y-14137071D01*
X9640071Y-14165643D01*
X9625786Y-14179929D01*
X9597214Y-14194214D01*
X9511500Y-14194214D01*
X9482928Y-14179929D01*
X9468643Y-14165643D01*
X9825786Y-14022786D02*
X9797214Y-14008500D01*
X9782928Y-13994214D01*
X9768643Y-13965643D01*
X9768643Y-13951357D01*
X9782928Y-13922786D01*
X9797214Y-13908500D01*
X9825786Y-13894214D01*
X9882928Y-13894214D01*
X9911500Y-13908500D01*
X9925786Y-13922786D01*
X9940071Y-13951357D01*
X9940071Y-13965643D01*
X9925786Y-13994214D01*
X9911500Y-14008500D01*
X9882928Y-14022786D01*
X9825786Y-14022786D01*
X9797214Y-14037071D01*
X9782928Y-14051357D01*
X9768643Y-14079929D01*
X9768643Y-14137071D01*
X9782928Y-14165643D01*
X9797214Y-14179929D01*
X9825786Y-14194214D01*
X9882928Y-14194214D01*
X9911500Y-14179929D01*
X9925786Y-14165643D01*
X9940071Y-14137071D01*
X9940071Y-14079929D01*
X9925786Y-14051357D01*
X9911500Y-14037071D01*
X9882928Y-14022786D01*
X10297214Y-14194214D02*
X10297214Y-13894214D01*
X10425786Y-14194214D02*
X10425786Y-14037071D01*
X10411500Y-14008500D01*
X10382928Y-13994214D01*
X10340071Y-13994214D01*
X10311500Y-14008500D01*
X10297214Y-14022786D01*
X10611500Y-14194214D02*
X10582928Y-14179929D01*
X10568643Y-14165643D01*
X10554357Y-14137071D01*
X10554357Y-14051357D01*
X10568643Y-14022786D01*
X10582928Y-14008500D01*
X10611500Y-13994214D01*
X10654357Y-13994214D01*
X10682928Y-14008500D01*
X10697214Y-14022786D01*
X10711500Y-14051357D01*
X10711500Y-14137071D01*
X10697214Y-14165643D01*
X10682928Y-14179929D01*
X10654357Y-14194214D01*
X10611500Y-14194214D01*
X10882928Y-14194214D02*
X10854357Y-14179929D01*
X10840071Y-14151357D01*
X10840071Y-13894214D01*
X11111500Y-14179929D02*
X11082928Y-14194214D01*
X11025786Y-14194214D01*
X10997214Y-14179929D01*
X10982928Y-14151357D01*
X10982928Y-14037071D01*
X10997214Y-14008500D01*
X11025786Y-13994214D01*
X11082928Y-13994214D01*
X11111500Y-14008500D01*
X11125786Y-14037071D01*
X11125786Y-14065643D01*
X10982928Y-14094214D01*
X11240071Y-14179929D02*
X11268643Y-14194214D01*
X11325786Y-14194214D01*
X11354357Y-14179929D01*
X11368643Y-14151357D01*
X11368643Y-14137071D01*
X11354357Y-14108500D01*
X11325786Y-14094214D01*
X11282928Y-14094214D01*
X11254357Y-14079929D01*
X11240071Y-14051357D01*
X11240071Y-14037071D01*
X11254357Y-14008500D01*
X11282928Y-13994214D01*
X11325786Y-13994214D01*
X11354357Y-14008500D01*
X11468643Y-14308500D02*
X11482928Y-14294214D01*
X11511500Y-14251357D01*
X11525786Y-14222786D01*
X11540071Y-14179929D01*
X11554357Y-14108500D01*
X11554357Y-14051357D01*
X11540071Y-13979929D01*
X11525786Y-13937071D01*
X11511500Y-13908500D01*
X11482928Y-13865643D01*
X11468643Y-13851357D01*
X4644500Y-14402500D02*
X4644500Y-14506500D01*
X4592500Y-14454500D02*
X4696500Y-14454500D01*
X5140071Y-14590214D02*
X4968643Y-14590214D01*
X5054357Y-14590214D02*
X5054357Y-14290214D01*
X5025786Y-14333071D01*
X4997214Y-14361643D01*
X4968643Y-14375929D01*
X5268643Y-14561643D02*
X5282928Y-14575929D01*
X5268643Y-14590214D01*
X5254357Y-14575929D01*
X5268643Y-14561643D01*
X5268643Y-14590214D01*
X5468643Y-14290214D02*
X5497214Y-14290214D01*
X5525786Y-14304500D01*
X5540071Y-14318786D01*
X5554357Y-14347357D01*
X5568643Y-14404500D01*
X5568643Y-14475929D01*
X5554357Y-14533071D01*
X5540071Y-14561643D01*
X5525786Y-14575929D01*
X5497214Y-14590214D01*
X5468643Y-14590214D01*
X5440071Y-14575929D01*
X5425786Y-14561643D01*
X5411500Y-14533071D01*
X5397214Y-14475929D01*
X5397214Y-14404500D01*
X5411500Y-14347357D01*
X5425786Y-14318786D01*
X5440071Y-14304500D01*
X5468643Y-14290214D01*
X5825786Y-14390214D02*
X5825786Y-14590214D01*
X5754357Y-14275929D02*
X5682928Y-14490214D01*
X5868643Y-14490214D01*
X5982928Y-14590214D02*
X5982928Y-14390214D01*
X5982928Y-14418786D02*
X5997214Y-14404500D01*
X6025786Y-14390214D01*
X6068643Y-14390214D01*
X6097214Y-14404500D01*
X6111500Y-14433071D01*
X6111500Y-14590214D01*
X6111500Y-14433071D02*
X6125786Y-14404500D01*
X6154357Y-14390214D01*
X6197214Y-14390214D01*
X6225786Y-14404500D01*
X6240071Y-14433071D01*
X6240071Y-14590214D01*
X6382928Y-14590214D02*
X6382928Y-14390214D01*
X6382928Y-14418786D02*
X6397214Y-14404500D01*
X6425786Y-14390214D01*
X6468643Y-14390214D01*
X6497214Y-14404500D01*
X6511500Y-14433071D01*
X6511500Y-14590214D01*
X6511500Y-14433071D02*
X6525786Y-14404500D01*
X6554357Y-14390214D01*
X6597214Y-14390214D01*
X6625786Y-14404500D01*
X6640071Y-14433071D01*
X6640071Y-14590214D01*
X7225786Y-14275929D02*
X6968643Y-14661643D01*
X7611500Y-14290214D02*
X7640071Y-14290214D01*
X7668643Y-14304500D01*
X7682928Y-14318786D01*
X7697214Y-14347357D01*
X7711500Y-14404500D01*
X7711500Y-14475929D01*
X7697214Y-14533071D01*
X7682928Y-14561643D01*
X7668643Y-14575929D01*
X7640071Y-14590214D01*
X7611500Y-14590214D01*
X7582928Y-14575929D01*
X7568643Y-14561643D01*
X7554357Y-14533071D01*
X7540071Y-14475929D01*
X7540071Y-14404500D01*
X7554357Y-14347357D01*
X7568643Y-14318786D01*
X7582928Y-14304500D01*
X7611500Y-14290214D01*
X7840071Y-14561643D02*
X7854357Y-14575929D01*
X7840071Y-14590214D01*
X7825786Y-14575929D01*
X7840071Y-14561643D01*
X7840071Y-14590214D01*
X8040071Y-14290214D02*
X8068643Y-14290214D01*
X8097214Y-14304500D01*
X8111500Y-14318786D01*
X8125786Y-14347357D01*
X8140071Y-14404500D01*
X8140071Y-14475929D01*
X8125786Y-14533071D01*
X8111500Y-14561643D01*
X8097214Y-14575929D01*
X8068643Y-14590214D01*
X8040071Y-14590214D01*
X8011500Y-14575929D01*
X7997214Y-14561643D01*
X7982928Y-14533071D01*
X7968643Y-14475929D01*
X7968643Y-14404500D01*
X7982928Y-14347357D01*
X7997214Y-14318786D01*
X8011500Y-14304500D01*
X8040071Y-14290214D01*
X8397214Y-14390214D02*
X8397214Y-14590214D01*
X8325786Y-14275929D02*
X8254357Y-14490214D01*
X8440071Y-14490214D01*
X8711500Y-14590214D02*
X8540071Y-14590214D01*
X8625786Y-14590214D02*
X8625786Y-14290214D01*
X8597214Y-14333071D01*
X8568643Y-14361643D01*
X8540071Y-14375929D01*
X8825786Y-14290214D02*
X8825786Y-14347357D01*
X8940071Y-14290214D02*
X8940071Y-14347357D01*
X9382928Y-14704500D02*
X9368643Y-14690214D01*
X9340071Y-14647357D01*
X9325786Y-14618786D01*
X9311500Y-14575929D01*
X9297214Y-14504500D01*
X9297214Y-14447357D01*
X9311500Y-14375929D01*
X9325786Y-14333071D01*
X9340071Y-14304500D01*
X9368643Y-14261643D01*
X9382928Y-14247357D01*
X9468643Y-14290214D02*
X9654357Y-14290214D01*
X9554357Y-14404500D01*
X9597214Y-14404500D01*
X9625786Y-14418786D01*
X9640071Y-14433071D01*
X9654357Y-14461643D01*
X9654357Y-14533071D01*
X9640071Y-14561643D01*
X9625786Y-14575929D01*
X9597214Y-14590214D01*
X9511500Y-14590214D01*
X9482928Y-14575929D01*
X9468643Y-14561643D01*
X9825786Y-14418786D02*
X9797214Y-14404500D01*
X9782928Y-14390214D01*
X9768643Y-14361643D01*
X9768643Y-14347357D01*
X9782928Y-14318786D01*
X9797214Y-14304500D01*
X9825786Y-14290214D01*
X9882928Y-14290214D01*
X9911500Y-14304500D01*
X9925786Y-14318786D01*
X9940071Y-14347357D01*
X9940071Y-14361643D01*
X9925786Y-14390214D01*
X9911500Y-14404500D01*
X9882928Y-14418786D01*
X9825786Y-14418786D01*
X9797214Y-14433071D01*
X9782928Y-14447357D01*
X9768643Y-14475929D01*
X9768643Y-14533071D01*
X9782928Y-14561643D01*
X9797214Y-14575929D01*
X9825786Y-14590214D01*
X9882928Y-14590214D01*
X9911500Y-14575929D01*
X9925786Y-14561643D01*
X9940071Y-14533071D01*
X9940071Y-14475929D01*
X9925786Y-14447357D01*
X9911500Y-14433071D01*
X9882928Y-14418786D01*
X10297214Y-14590214D02*
X10297214Y-14290214D01*
X10425786Y-14590214D02*
X10425786Y-14433071D01*
X10411500Y-14404500D01*
X10382928Y-14390214D01*
X10340071Y-14390214D01*
X10311500Y-14404500D01*
X10297214Y-14418786D01*
X10611500Y-14590214D02*
X10582928Y-14575929D01*
X10568643Y-14561643D01*
X10554357Y-14533071D01*
X10554357Y-14447357D01*
X10568643Y-14418786D01*
X10582928Y-14404500D01*
X10611500Y-14390214D01*
X10654357Y-14390214D01*
X10682928Y-14404500D01*
X10697214Y-14418786D01*
X10711500Y-14447357D01*
X10711500Y-14533071D01*
X10697214Y-14561643D01*
X10682928Y-14575929D01*
X10654357Y-14590214D01*
X10611500Y-14590214D01*
X10882928Y-14590214D02*
X10854357Y-14575929D01*
X10840071Y-14547357D01*
X10840071Y-14290214D01*
X11111500Y-14575929D02*
X11082928Y-14590214D01*
X11025786Y-14590214D01*
X10997214Y-14575929D01*
X10982928Y-14547357D01*
X10982928Y-14433071D01*
X10997214Y-14404500D01*
X11025786Y-14390214D01*
X11082928Y-14390214D01*
X11111500Y-14404500D01*
X11125786Y-14433071D01*
X11125786Y-14461643D01*
X10982928Y-14490214D01*
X11240071Y-14575929D02*
X11268643Y-14590214D01*
X11325786Y-14590214D01*
X11354357Y-14575929D01*
X11368643Y-14547357D01*
X11368643Y-14533071D01*
X11354357Y-14504500D01*
X11325786Y-14490214D01*
X11282928Y-14490214D01*
X11254357Y-14475929D01*
X11240071Y-14447357D01*
X11240071Y-14433071D01*
X11254357Y-14404500D01*
X11282928Y-14390214D01*
X11325786Y-14390214D01*
X11354357Y-14404500D01*
X11468643Y-14704500D02*
X11482928Y-14690214D01*
X11511500Y-14647357D01*
X11525786Y-14618786D01*
X11540071Y-14575929D01*
X11554357Y-14504500D01*
X11554357Y-14447357D01*
X11540071Y-14375929D01*
X11525786Y-14333071D01*
X11511500Y-14304500D01*
X11482928Y-14261643D01*
X11468643Y-14247357D01*
M02*
