%TF.GenerationSoftware,KiCad,Pcbnew,5.1.9-73d0e3b20d~88~ubuntu20.04.1*%
%TF.CreationDate,2021-04-09T21:21:23+02:00*%
%TF.ProjectId,RBY_tireuse,5242595f-7469-4726-9575-73652e6b6963,rev?*%
%TF.SameCoordinates,Original*%
%TF.FileFunction,Soldermask,Bot*%
%TF.FilePolarity,Negative*%
%FSLAX46Y46*%
G04 Gerber Fmt 4.6, Leading zero omitted, Abs format (unit mm)*
G04 Created by KiCad (PCBNEW 5.1.9-73d0e3b20d~88~ubuntu20.04.1) date 2021-04-09 21:21:23*
%MOMM*%
%LPD*%
G01*
G04 APERTURE LIST*
%ADD10O,1.700000X1.700000*%
%ADD11R,1.700000X1.700000*%
%ADD12R,1.524000X1.524000*%
%ADD13C,1.524000*%
%ADD14O,1.600000X1.600000*%
%ADD15C,1.600000*%
G04 APERTURE END LIST*
D10*
%TO.C,J7*%
X102235000Y-122428000D03*
D11*
X102235000Y-119888000D03*
%TD*%
D10*
%TO.C,J6*%
X108712000Y-110236000D03*
X108712000Y-107696000D03*
X108712000Y-105156000D03*
D11*
X108712000Y-102616000D03*
%TD*%
D12*
%TO.C,U3*%
X57404000Y-105537000D03*
D13*
X59944000Y-105537000D03*
X62484000Y-105537000D03*
X65024000Y-105537000D03*
X67564000Y-105537000D03*
X70104000Y-105537000D03*
X72644000Y-105537000D03*
X75184000Y-105537000D03*
X77724000Y-105537000D03*
X80264000Y-105537000D03*
X82804000Y-105537000D03*
X85344000Y-105537000D03*
X87884000Y-105537000D03*
X90424000Y-105537000D03*
X92964000Y-105537000D03*
X92964000Y-80137000D03*
X90424000Y-80137000D03*
X87884000Y-80137000D03*
X85344000Y-80137000D03*
X82804000Y-80137000D03*
X80264000Y-80137000D03*
X77724000Y-80137000D03*
X75184000Y-80137000D03*
X72644000Y-80137000D03*
X70104000Y-80137000D03*
X67564000Y-80137000D03*
X65024000Y-80137000D03*
X62484000Y-80137000D03*
X59944000Y-80137000D03*
X57404000Y-80137000D03*
%TD*%
%TO.C,U2*%
X149098000Y-88265000D03*
X150368000Y-89916000D03*
X147828000Y-89916000D03*
D12*
X145288000Y-72136000D03*
D13*
X145288000Y-74676000D03*
X145288000Y-77216000D03*
X145288000Y-79756000D03*
X145288000Y-82296000D03*
X145288000Y-84836000D03*
X145288000Y-87376000D03*
X145288000Y-89916000D03*
X157988000Y-89916000D03*
X157988000Y-87376000D03*
X157988000Y-84836000D03*
X157988000Y-82296000D03*
X157988000Y-79756000D03*
X157988000Y-77216000D03*
X157988000Y-74676000D03*
X157988000Y-72136000D03*
%TD*%
%TO.C,U1*%
X122047000Y-87122000D03*
X123317000Y-88773000D03*
X120777000Y-88773000D03*
D12*
X118237000Y-70993000D03*
D13*
X118237000Y-73533000D03*
X118237000Y-76073000D03*
X118237000Y-78613000D03*
X118237000Y-81153000D03*
X118237000Y-83693000D03*
X118237000Y-86233000D03*
X118237000Y-88773000D03*
X130937000Y-88773000D03*
X130937000Y-86233000D03*
X130937000Y-83693000D03*
X130937000Y-81153000D03*
X130937000Y-78613000D03*
X130937000Y-76073000D03*
X130937000Y-73533000D03*
X130937000Y-70993000D03*
%TD*%
D14*
%TO.C,R2*%
X81915000Y-71120000D03*
D15*
X89535000Y-71120000D03*
%TD*%
D14*
%TO.C,R1*%
X73025000Y-66675000D03*
D15*
X80645000Y-66675000D03*
%TD*%
D10*
%TO.C,J9*%
X60198000Y-114554000D03*
D11*
X62738000Y-114554000D03*
%TD*%
D10*
%TO.C,J8*%
X52705000Y-114427000D03*
D11*
X55245000Y-114427000D03*
%TD*%
D10*
%TO.C,J5*%
X154178000Y-65532000D03*
X156718000Y-65532000D03*
X159258000Y-65532000D03*
D11*
X161798000Y-65532000D03*
%TD*%
D10*
%TO.C,J4*%
X141351000Y-65532000D03*
X143891000Y-65532000D03*
X146431000Y-65532000D03*
D11*
X148971000Y-65532000D03*
%TD*%
D10*
%TO.C,J3*%
X69723000Y-120142000D03*
X69723000Y-122682000D03*
X72263000Y-120142000D03*
X72263000Y-122682000D03*
X74803000Y-120142000D03*
X74803000Y-122682000D03*
X77343000Y-120142000D03*
D11*
X77343000Y-122682000D03*
%TD*%
D10*
%TO.C,J2*%
X85471000Y-120269000D03*
X85471000Y-122809000D03*
X88011000Y-120269000D03*
X88011000Y-122809000D03*
X90551000Y-120269000D03*
X90551000Y-122809000D03*
X93091000Y-120269000D03*
D11*
X93091000Y-122809000D03*
%TD*%
D10*
%TO.C,J1*%
X54102000Y-65786000D03*
X54102000Y-68326000D03*
X56642000Y-65786000D03*
X56642000Y-68326000D03*
X59182000Y-65786000D03*
X59182000Y-68326000D03*
X61722000Y-65786000D03*
D11*
X61722000Y-68326000D03*
%TD*%
M02*
