M48
; DRILL file {KiCad 5.1.9-73d0e3b20d~88~ubuntu20.04.1} date Fri Apr  9 21:37:29 2021
; FORMAT={-:-/ absolute / inch / decimal}
; #@! TF.CreationDate,2021-04-09T21:37:29+02:00
; #@! TF.GenerationSoftware,Kicad,Pcbnew,5.1.9-73d0e3b20d~88~ubuntu20.04.1
; #@! TF.FileFunction,Plated,1,2,PTH
FMAT,2
INCH
T1C0.0300
T2C0.0315
T3C0.0394
T4C0.0400
T5C0.1299
%
G90
G05
T1
X2.26Y-3.155
X2.26Y-4.155
X2.36Y-3.155
X2.36Y-4.155
X2.46Y-3.155
X2.46Y-4.155
X2.56Y-3.155
X2.56Y-4.155
X2.66Y-3.155
X2.66Y-4.155
X2.76Y-3.155
X2.76Y-4.155
X2.86Y-3.155
X2.86Y-4.155
X2.96Y-3.155
X2.96Y-4.155
X3.06Y-3.155
X3.06Y-4.155
X3.16Y-3.155
X3.16Y-4.155
X3.26Y-3.155
X3.26Y-4.155
X3.36Y-3.155
X3.36Y-4.155
X3.46Y-3.155
X3.46Y-4.155
X3.56Y-3.155
X3.56Y-4.155
X3.66Y-3.155
X3.66Y-4.155
T2
X2.875Y-2.625
X3.175Y-2.625
X3.225Y-2.8
X3.525Y-2.8
T3
X2.075Y-4.505
X2.13Y-2.59
X2.13Y-2.69
X2.175Y-4.505
X2.23Y-2.59
X2.23Y-2.69
X2.33Y-2.59
X2.33Y-2.69
X2.37Y-4.51
X2.43Y-2.59
X2.43Y-2.69
X2.47Y-4.51
X2.745Y-4.73
X2.745Y-4.83
X2.845Y-4.73
X2.845Y-4.83
X2.945Y-4.73
X2.945Y-4.83
X3.045Y-4.73
X3.045Y-4.83
X3.365Y-4.735
X3.365Y-4.835
X3.465Y-4.735
X3.465Y-4.835
X3.565Y-4.735
X3.565Y-4.835
X3.665Y-4.735
X3.665Y-4.835
X4.025Y-4.72
X4.025Y-4.82
X4.205Y-4.04
X4.205Y-4.14
X4.205Y-4.24
X4.205Y-4.34
X5.565Y-2.58
X5.665Y-2.58
X5.765Y-2.58
X5.865Y-2.58
X6.07Y-2.58
X6.17Y-2.58
X6.27Y-2.58
X6.37Y-2.58
T4
X4.655Y-2.795
X4.655Y-2.895
X4.655Y-2.995
X4.655Y-3.095
X4.655Y-3.195
X4.655Y-3.295
X4.655Y-3.395
X4.655Y-3.495
X4.755Y-3.495
X4.805Y-3.43
X4.855Y-3.495
X5.155Y-2.795
X5.155Y-2.895
X5.155Y-2.995
X5.155Y-3.095
X5.155Y-3.195
X5.155Y-3.295
X5.155Y-3.395
X5.155Y-3.495
X5.72Y-2.84
X5.72Y-2.94
X5.72Y-3.04
X5.72Y-3.14
X5.72Y-3.24
X5.72Y-3.34
X5.72Y-3.44
X5.72Y-3.54
X5.82Y-3.54
X5.87Y-3.475
X5.92Y-3.54
X6.22Y-2.84
X6.22Y-2.94
X6.22Y-3.04
X6.22Y-3.14
X6.22Y-3.24
X6.22Y-3.34
X6.22Y-3.44
X6.22Y-3.54
T5
X4.6533Y-3.962
X6.11Y-4.71
T0
M30
