%TF.GenerationSoftware,KiCad,Pcbnew,5.1.9-73d0e3b20d~88~ubuntu20.04.1*%
%TF.CreationDate,2021-04-09T16:28:33+02:00*%
%TF.ProjectId,pcb_port_gobelet,7063625f-706f-4727-945f-676f62656c65,rev?*%
%TF.SameCoordinates,Original*%
%TF.FileFunction,Copper,L2,Bot*%
%TF.FilePolarity,Positive*%
%FSLAX46Y46*%
G04 Gerber Fmt 4.6, Leading zero omitted, Abs format (unit mm)*
G04 Created by KiCad (PCBNEW 5.1.9-73d0e3b20d~88~ubuntu20.04.1) date 2021-04-09 16:28:33*
%MOMM*%
%LPD*%
G01*
G04 APERTURE LIST*
%TA.AperFunction,ComponentPad*%
%ADD10R,1.700000X1.700000*%
%TD*%
%TA.AperFunction,ComponentPad*%
%ADD11O,1.700000X1.700000*%
%TD*%
%TA.AperFunction,Conductor*%
%ADD12C,0.250000*%
%TD*%
G04 APERTURE END LIST*
D10*
%TO.P,MA1,1*%
%TO.N,/GND*%
X139700000Y-130810000D03*
D11*
%TO.P,MA1,2*%
%TO.N,/DATA*%
X139700000Y-128270000D03*
%TO.P,MA1,3*%
%TO.N,/CLK*%
X139700000Y-125730000D03*
%TO.P,MA1,4*%
%TO.N,/VCC5V*%
X139700000Y-123190000D03*
%TD*%
D10*
%TO.P,RJ45,1*%
%TO.N,/GND*%
X135382000Y-135509000D03*
D11*
%TO.P,RJ45,2*%
%TO.N,/3.3V*%
X135382000Y-132969000D03*
%TO.P,RJ45,3*%
%TO.N,/VCC5V*%
X135382000Y-130429000D03*
%TO.P,RJ45,4*%
%TO.N,/CLK*%
X135382000Y-127889000D03*
%TO.P,RJ45,5*%
%TO.N,Net-(RJ45-Pad5)*%
X135382000Y-125349000D03*
%TO.P,RJ45,6*%
%TO.N,/DATA*%
X135382000Y-122809000D03*
%TO.P,RJ45,7*%
%TO.N,/S2*%
X135382000Y-120269000D03*
%TO.P,RJ45,8*%
%TO.N,/S1*%
X135382000Y-117729000D03*
%TD*%
D10*
%TO.P,S1,1*%
%TO.N,/GND*%
X122809000Y-116078000D03*
D11*
%TO.P,S1,2*%
%TO.N,/VCC5V*%
X122809000Y-118618000D03*
%TO.P,S1,3*%
%TO.N,/S1*%
X122809000Y-121158000D03*
%TD*%
D10*
%TO.P,S2,1*%
%TO.N,/GND*%
X142240000Y-130810000D03*
D11*
%TO.P,S2,2*%
%TO.N,/VCC5V*%
X142240000Y-133350000D03*
%TO.P,S2,3*%
%TO.N,/S2*%
X142240000Y-135890000D03*
%TD*%
D12*
%TO.N,/GND*%
X139700000Y-130810000D02*
X142240000Y-130810000D01*
%TO.N,/DATA*%
X139700000Y-128270000D02*
X141478000Y-126492000D01*
X141478000Y-126492000D02*
X141478000Y-123228998D01*
X141478000Y-123228998D02*
X141478000Y-122555000D01*
X141478000Y-122555000D02*
X140589000Y-121666000D01*
X136525000Y-121666000D02*
X135382000Y-122809000D01*
X140589000Y-121666000D02*
X136525000Y-121666000D01*
%TO.N,/CLK*%
X137541000Y-127889000D02*
X139700000Y-125730000D01*
X135382000Y-127889000D02*
X137541000Y-127889000D01*
%TO.N,/S2*%
X142240000Y-135890000D02*
X143891000Y-134239000D01*
X139828410Y-120269000D02*
X135382000Y-120269000D01*
X143891000Y-124331590D02*
X139828410Y-120269000D01*
X143891000Y-134239000D02*
X143891000Y-124331590D01*
%TO.N,/VCC5V*%
X138850001Y-124039999D02*
X134278001Y-124039999D01*
X139700000Y-123190000D02*
X138850001Y-124039999D01*
X134278001Y-124039999D02*
X133477000Y-124841000D01*
X133477000Y-128524000D02*
X135382000Y-130429000D01*
X133477000Y-124841000D02*
X133477000Y-128524000D01*
X138303000Y-133350000D02*
X142240000Y-133350000D01*
X135382000Y-130429000D02*
X138303000Y-133350000D01*
X132842000Y-132969000D02*
X135382000Y-130429000D01*
X132842000Y-132969000D02*
X123063000Y-132969000D01*
%TO.N,/S1*%
X122241600Y-130879010D02*
X122682000Y-130879010D01*
X122682000Y-130048000D02*
X123063000Y-130429000D01*
X122682000Y-122047000D02*
X122682000Y-130048000D01*
X127000000Y-117729000D02*
X122682000Y-122047000D01*
X135382000Y-117729000D02*
X127000000Y-117729000D01*
%TD*%
M02*
