%TF.GenerationSoftware,KiCad,Pcbnew,5.1.9-73d0e3b20d~88~ubuntu20.04.1*%
%TF.CreationDate,2021-04-09T06:43:05+02:00*%
%TF.ProjectId,pcb_port_gobelet,7063625f-706f-4727-945f-676f62656c65,rev?*%
%TF.SameCoordinates,Original*%
%TF.FileFunction,Copper,L1,Top*%
%TF.FilePolarity,Positive*%
%FSLAX46Y46*%
G04 Gerber Fmt 4.6, Leading zero omitted, Abs format (unit mm)*
G04 Created by KiCad (PCBNEW 5.1.9-73d0e3b20d~88~ubuntu20.04.1) date 2021-04-09 06:43:05*
%MOMM*%
%LPD*%
G01*
G04 APERTURE LIST*
%TA.AperFunction,ComponentPad*%
%ADD10R,1.700000X1.700000*%
%TD*%
%TA.AperFunction,ComponentPad*%
%ADD11O,1.700000X1.700000*%
%TD*%
%TA.AperFunction,Conductor*%
%ADD12C,0.254000*%
%TD*%
%TA.AperFunction,Conductor*%
%ADD13C,0.100000*%
%TD*%
G04 APERTURE END LIST*
D10*
%TO.P,MA1,1*%
%TO.N,/GND*%
X139700000Y-130810000D03*
D11*
%TO.P,MA1,2*%
%TO.N,/DATA*%
X139700000Y-128270000D03*
%TO.P,MA1,3*%
%TO.N,/CLK*%
X139700000Y-125730000D03*
%TO.P,MA1,4*%
%TO.N,/VCC5V*%
X139700000Y-123190000D03*
%TD*%
D10*
%TO.P,RJ45,1*%
%TO.N,/GND*%
X135382000Y-135509000D03*
D11*
%TO.P,RJ45,2*%
%TO.N,/3.3V*%
X135382000Y-132969000D03*
%TO.P,RJ45,3*%
%TO.N,/VCC5V*%
X135382000Y-130429000D03*
%TO.P,RJ45,4*%
%TO.N,/CLK*%
X135382000Y-127889000D03*
%TO.P,RJ45,5*%
%TO.N,Net-(RJ45-Pad5)*%
X135382000Y-125349000D03*
%TO.P,RJ45,6*%
%TO.N,/DATA*%
X135382000Y-122809000D03*
%TO.P,RJ45,7*%
%TO.N,/S2*%
X135382000Y-120269000D03*
%TO.P,RJ45,8*%
%TO.N,/S1*%
X135382000Y-117729000D03*
%TD*%
D10*
%TO.P,S1,1*%
%TO.N,/GND*%
X123063000Y-135509000D03*
D11*
%TO.P,S1,2*%
%TO.N,/VCC5V*%
X123063000Y-132969000D03*
%TO.P,S1,3*%
%TO.N,/S1*%
X123063000Y-130429000D03*
%TD*%
D10*
%TO.P,S2,1*%
%TO.N,/GND*%
X142240000Y-130810000D03*
D11*
%TO.P,S2,2*%
%TO.N,/VCC5V*%
X142240000Y-133350000D03*
%TO.P,S2,3*%
%TO.N,/S2*%
X142240000Y-135890000D03*
%TD*%
D12*
%TO.N,/GND*%
X143638323Y-114680354D02*
X143840001Y-133839776D01*
X143840001Y-138340000D01*
X129769265Y-138340000D01*
X119360000Y-138181483D01*
X119360000Y-136359000D01*
X121574928Y-136359000D01*
X121587188Y-136483482D01*
X121623498Y-136603180D01*
X121682463Y-136713494D01*
X121761815Y-136810185D01*
X121858506Y-136889537D01*
X121968820Y-136948502D01*
X122088518Y-136984812D01*
X122213000Y-136997072D01*
X122777250Y-136994000D01*
X122936000Y-136835250D01*
X122936000Y-135636000D01*
X123190000Y-135636000D01*
X123190000Y-136835250D01*
X123348750Y-136994000D01*
X123913000Y-136997072D01*
X124037482Y-136984812D01*
X124157180Y-136948502D01*
X124267494Y-136889537D01*
X124364185Y-136810185D01*
X124443537Y-136713494D01*
X124502502Y-136603180D01*
X124538812Y-136483482D01*
X124551072Y-136359000D01*
X133893928Y-136359000D01*
X133906188Y-136483482D01*
X133942498Y-136603180D01*
X134001463Y-136713494D01*
X134080815Y-136810185D01*
X134177506Y-136889537D01*
X134287820Y-136948502D01*
X134407518Y-136984812D01*
X134532000Y-136997072D01*
X135096250Y-136994000D01*
X135255000Y-136835250D01*
X135255000Y-135636000D01*
X135509000Y-135636000D01*
X135509000Y-136835250D01*
X135667750Y-136994000D01*
X136232000Y-136997072D01*
X136356482Y-136984812D01*
X136476180Y-136948502D01*
X136586494Y-136889537D01*
X136683185Y-136810185D01*
X136762537Y-136713494D01*
X136821502Y-136603180D01*
X136857812Y-136483482D01*
X136870072Y-136359000D01*
X136867000Y-135794750D01*
X136708250Y-135636000D01*
X135509000Y-135636000D01*
X135255000Y-135636000D01*
X134055750Y-135636000D01*
X133897000Y-135794750D01*
X133893928Y-136359000D01*
X124551072Y-136359000D01*
X124548000Y-135794750D01*
X124389250Y-135636000D01*
X123190000Y-135636000D01*
X122936000Y-135636000D01*
X121736750Y-135636000D01*
X121578000Y-135794750D01*
X121574928Y-136359000D01*
X119360000Y-136359000D01*
X119360000Y-134659000D01*
X121574928Y-134659000D01*
X121578000Y-135223250D01*
X121736750Y-135382000D01*
X122936000Y-135382000D01*
X122936000Y-135362000D01*
X123190000Y-135362000D01*
X123190000Y-135382000D01*
X124389250Y-135382000D01*
X124548000Y-135223250D01*
X124551072Y-134659000D01*
X133893928Y-134659000D01*
X133897000Y-135223250D01*
X134055750Y-135382000D01*
X135255000Y-135382000D01*
X135255000Y-135362000D01*
X135509000Y-135362000D01*
X135509000Y-135382000D01*
X136708250Y-135382000D01*
X136867000Y-135223250D01*
X136870072Y-134659000D01*
X136857812Y-134534518D01*
X136821502Y-134414820D01*
X136762537Y-134304506D01*
X136683185Y-134207815D01*
X136586494Y-134128463D01*
X136476180Y-134069498D01*
X136403620Y-134047487D01*
X136535475Y-133915632D01*
X136697990Y-133672411D01*
X136809932Y-133402158D01*
X136867000Y-133115260D01*
X136867000Y-132822740D01*
X136809932Y-132535842D01*
X136697990Y-132265589D01*
X136535475Y-132022368D01*
X136328632Y-131815525D01*
X136154240Y-131699000D01*
X136212607Y-131660000D01*
X138211928Y-131660000D01*
X138224188Y-131784482D01*
X138260498Y-131904180D01*
X138319463Y-132014494D01*
X138398815Y-132111185D01*
X138495506Y-132190537D01*
X138605820Y-132249502D01*
X138725518Y-132285812D01*
X138850000Y-132298072D01*
X139414250Y-132295000D01*
X139573000Y-132136250D01*
X139573000Y-130937000D01*
X139827000Y-130937000D01*
X139827000Y-132136250D01*
X139985750Y-132295000D01*
X140550000Y-132298072D01*
X140674482Y-132285812D01*
X140794180Y-132249502D01*
X140904494Y-132190537D01*
X140970000Y-132136778D01*
X141035506Y-132190537D01*
X141145820Y-132249502D01*
X141218380Y-132271513D01*
X141086525Y-132403368D01*
X140924010Y-132646589D01*
X140812068Y-132916842D01*
X140755000Y-133203740D01*
X140755000Y-133496260D01*
X140812068Y-133783158D01*
X140924010Y-134053411D01*
X141086525Y-134296632D01*
X141293368Y-134503475D01*
X141467760Y-134620000D01*
X141293368Y-134736525D01*
X141086525Y-134943368D01*
X140924010Y-135186589D01*
X140812068Y-135456842D01*
X140755000Y-135743740D01*
X140755000Y-136036260D01*
X140812068Y-136323158D01*
X140924010Y-136593411D01*
X141086525Y-136836632D01*
X141293368Y-137043475D01*
X141536589Y-137205990D01*
X141806842Y-137317932D01*
X142093740Y-137375000D01*
X142386260Y-137375000D01*
X142673158Y-137317932D01*
X142943411Y-137205990D01*
X143186632Y-137043475D01*
X143393475Y-136836632D01*
X143555990Y-136593411D01*
X143667932Y-136323158D01*
X143725000Y-136036260D01*
X143725000Y-135743740D01*
X143667932Y-135456842D01*
X143555990Y-135186589D01*
X143393475Y-134943368D01*
X143186632Y-134736525D01*
X143012240Y-134620000D01*
X143186632Y-134503475D01*
X143393475Y-134296632D01*
X143555990Y-134053411D01*
X143667932Y-133783158D01*
X143725000Y-133496260D01*
X143725000Y-133203740D01*
X143667932Y-132916842D01*
X143555990Y-132646589D01*
X143393475Y-132403368D01*
X143261620Y-132271513D01*
X143334180Y-132249502D01*
X143444494Y-132190537D01*
X143541185Y-132111185D01*
X143620537Y-132014494D01*
X143679502Y-131904180D01*
X143715812Y-131784482D01*
X143728072Y-131660000D01*
X143725000Y-131095750D01*
X143566250Y-130937000D01*
X142367000Y-130937000D01*
X142367000Y-130957000D01*
X142113000Y-130957000D01*
X142113000Y-130937000D01*
X139827000Y-130937000D01*
X139573000Y-130937000D01*
X138373750Y-130937000D01*
X138215000Y-131095750D01*
X138211928Y-131660000D01*
X136212607Y-131660000D01*
X136328632Y-131582475D01*
X136535475Y-131375632D01*
X136697990Y-131132411D01*
X136809932Y-130862158D01*
X136867000Y-130575260D01*
X136867000Y-130282740D01*
X136809932Y-129995842D01*
X136795086Y-129960000D01*
X138211928Y-129960000D01*
X138215000Y-130524250D01*
X138373750Y-130683000D01*
X139573000Y-130683000D01*
X139573000Y-130663000D01*
X139827000Y-130663000D01*
X139827000Y-130683000D01*
X142113000Y-130683000D01*
X142113000Y-129483750D01*
X142367000Y-129483750D01*
X142367000Y-130683000D01*
X143566250Y-130683000D01*
X143725000Y-130524250D01*
X143728072Y-129960000D01*
X143715812Y-129835518D01*
X143679502Y-129715820D01*
X143620537Y-129605506D01*
X143541185Y-129508815D01*
X143444494Y-129429463D01*
X143334180Y-129370498D01*
X143214482Y-129334188D01*
X143090000Y-129321928D01*
X142525750Y-129325000D01*
X142367000Y-129483750D01*
X142113000Y-129483750D01*
X141954250Y-129325000D01*
X141390000Y-129321928D01*
X141265518Y-129334188D01*
X141145820Y-129370498D01*
X141035506Y-129429463D01*
X140970000Y-129483222D01*
X140904494Y-129429463D01*
X140794180Y-129370498D01*
X140721620Y-129348487D01*
X140853475Y-129216632D01*
X141015990Y-128973411D01*
X141127932Y-128703158D01*
X141185000Y-128416260D01*
X141185000Y-128123740D01*
X141127932Y-127836842D01*
X141015990Y-127566589D01*
X140853475Y-127323368D01*
X140646632Y-127116525D01*
X140472240Y-127000000D01*
X140646632Y-126883475D01*
X140853475Y-126676632D01*
X141015990Y-126433411D01*
X141127932Y-126163158D01*
X141185000Y-125876260D01*
X141185000Y-125583740D01*
X141127932Y-125296842D01*
X141015990Y-125026589D01*
X140853475Y-124783368D01*
X140646632Y-124576525D01*
X140472240Y-124460000D01*
X140646632Y-124343475D01*
X140853475Y-124136632D01*
X141015990Y-123893411D01*
X141127932Y-123623158D01*
X141185000Y-123336260D01*
X141185000Y-123043740D01*
X141127932Y-122756842D01*
X141015990Y-122486589D01*
X140853475Y-122243368D01*
X140646632Y-122036525D01*
X140403411Y-121874010D01*
X140133158Y-121762068D01*
X139846260Y-121705000D01*
X139553740Y-121705000D01*
X139266842Y-121762068D01*
X138996589Y-121874010D01*
X138753368Y-122036525D01*
X138546525Y-122243368D01*
X138384010Y-122486589D01*
X138272068Y-122756842D01*
X138215000Y-123043740D01*
X138215000Y-123336260D01*
X138272068Y-123623158D01*
X138384010Y-123893411D01*
X138546525Y-124136632D01*
X138753368Y-124343475D01*
X138927760Y-124460000D01*
X138753368Y-124576525D01*
X138546525Y-124783368D01*
X138384010Y-125026589D01*
X138272068Y-125296842D01*
X138215000Y-125583740D01*
X138215000Y-125876260D01*
X138272068Y-126163158D01*
X138384010Y-126433411D01*
X138546525Y-126676632D01*
X138753368Y-126883475D01*
X138927760Y-127000000D01*
X138753368Y-127116525D01*
X138546525Y-127323368D01*
X138384010Y-127566589D01*
X138272068Y-127836842D01*
X138215000Y-128123740D01*
X138215000Y-128416260D01*
X138272068Y-128703158D01*
X138384010Y-128973411D01*
X138546525Y-129216632D01*
X138678380Y-129348487D01*
X138605820Y-129370498D01*
X138495506Y-129429463D01*
X138398815Y-129508815D01*
X138319463Y-129605506D01*
X138260498Y-129715820D01*
X138224188Y-129835518D01*
X138211928Y-129960000D01*
X136795086Y-129960000D01*
X136697990Y-129725589D01*
X136535475Y-129482368D01*
X136328632Y-129275525D01*
X136154240Y-129159000D01*
X136328632Y-129042475D01*
X136535475Y-128835632D01*
X136697990Y-128592411D01*
X136809932Y-128322158D01*
X136867000Y-128035260D01*
X136867000Y-127742740D01*
X136809932Y-127455842D01*
X136697990Y-127185589D01*
X136535475Y-126942368D01*
X136328632Y-126735525D01*
X136154240Y-126619000D01*
X136328632Y-126502475D01*
X136535475Y-126295632D01*
X136697990Y-126052411D01*
X136809932Y-125782158D01*
X136867000Y-125495260D01*
X136867000Y-125202740D01*
X136809932Y-124915842D01*
X136697990Y-124645589D01*
X136535475Y-124402368D01*
X136328632Y-124195525D01*
X136154240Y-124079000D01*
X136328632Y-123962475D01*
X136535475Y-123755632D01*
X136697990Y-123512411D01*
X136809932Y-123242158D01*
X136867000Y-122955260D01*
X136867000Y-122662740D01*
X136809932Y-122375842D01*
X136697990Y-122105589D01*
X136535475Y-121862368D01*
X136328632Y-121655525D01*
X136154240Y-121539000D01*
X136328632Y-121422475D01*
X136535475Y-121215632D01*
X136697990Y-120972411D01*
X136809932Y-120702158D01*
X136867000Y-120415260D01*
X136867000Y-120122740D01*
X136809932Y-119835842D01*
X136697990Y-119565589D01*
X136535475Y-119322368D01*
X136328632Y-119115525D01*
X136154240Y-118999000D01*
X136328632Y-118882475D01*
X136535475Y-118675632D01*
X136697990Y-118432411D01*
X136809932Y-118162158D01*
X136867000Y-117875260D01*
X136867000Y-117582740D01*
X136809932Y-117295842D01*
X136697990Y-117025589D01*
X136535475Y-116782368D01*
X136328632Y-116575525D01*
X136085411Y-116413010D01*
X135815158Y-116301068D01*
X135528260Y-116244000D01*
X135235740Y-116244000D01*
X134948842Y-116301068D01*
X134678589Y-116413010D01*
X134435368Y-116575525D01*
X134228525Y-116782368D01*
X134066010Y-117025589D01*
X133954068Y-117295842D01*
X133897000Y-117582740D01*
X133897000Y-117875260D01*
X133954068Y-118162158D01*
X134066010Y-118432411D01*
X134228525Y-118675632D01*
X134435368Y-118882475D01*
X134609760Y-118999000D01*
X134435368Y-119115525D01*
X134228525Y-119322368D01*
X134066010Y-119565589D01*
X133954068Y-119835842D01*
X133897000Y-120122740D01*
X133897000Y-120415260D01*
X133954068Y-120702158D01*
X134066010Y-120972411D01*
X134228525Y-121215632D01*
X134435368Y-121422475D01*
X134609760Y-121539000D01*
X134435368Y-121655525D01*
X134228525Y-121862368D01*
X134066010Y-122105589D01*
X133954068Y-122375842D01*
X133897000Y-122662740D01*
X133897000Y-122955260D01*
X133954068Y-123242158D01*
X134066010Y-123512411D01*
X134228525Y-123755632D01*
X134435368Y-123962475D01*
X134609760Y-124079000D01*
X134435368Y-124195525D01*
X134228525Y-124402368D01*
X134066010Y-124645589D01*
X133954068Y-124915842D01*
X133897000Y-125202740D01*
X133897000Y-125495260D01*
X133954068Y-125782158D01*
X134066010Y-126052411D01*
X134228525Y-126295632D01*
X134435368Y-126502475D01*
X134609760Y-126619000D01*
X134435368Y-126735525D01*
X134228525Y-126942368D01*
X134066010Y-127185589D01*
X133954068Y-127455842D01*
X133897000Y-127742740D01*
X133897000Y-128035260D01*
X133954068Y-128322158D01*
X134066010Y-128592411D01*
X134228525Y-128835632D01*
X134435368Y-129042475D01*
X134609760Y-129159000D01*
X134435368Y-129275525D01*
X134228525Y-129482368D01*
X134066010Y-129725589D01*
X133954068Y-129995842D01*
X133897000Y-130282740D01*
X133897000Y-130575260D01*
X133954068Y-130862158D01*
X134066010Y-131132411D01*
X134228525Y-131375632D01*
X134435368Y-131582475D01*
X134609760Y-131699000D01*
X134435368Y-131815525D01*
X134228525Y-132022368D01*
X134066010Y-132265589D01*
X133954068Y-132535842D01*
X133897000Y-132822740D01*
X133897000Y-133115260D01*
X133954068Y-133402158D01*
X134066010Y-133672411D01*
X134228525Y-133915632D01*
X134360380Y-134047487D01*
X134287820Y-134069498D01*
X134177506Y-134128463D01*
X134080815Y-134207815D01*
X134001463Y-134304506D01*
X133942498Y-134414820D01*
X133906188Y-134534518D01*
X133893928Y-134659000D01*
X124551072Y-134659000D01*
X124538812Y-134534518D01*
X124502502Y-134414820D01*
X124443537Y-134304506D01*
X124364185Y-134207815D01*
X124267494Y-134128463D01*
X124157180Y-134069498D01*
X124084620Y-134047487D01*
X124216475Y-133915632D01*
X124378990Y-133672411D01*
X124490932Y-133402158D01*
X124548000Y-133115260D01*
X124548000Y-132822740D01*
X124490932Y-132535842D01*
X124378990Y-132265589D01*
X124216475Y-132022368D01*
X124009632Y-131815525D01*
X123835240Y-131699000D01*
X124009632Y-131582475D01*
X124216475Y-131375632D01*
X124378990Y-131132411D01*
X124490932Y-130862158D01*
X124548000Y-130575260D01*
X124548000Y-130282740D01*
X124490932Y-129995842D01*
X124378990Y-129725589D01*
X124216475Y-129482368D01*
X124009632Y-129275525D01*
X123766411Y-129113010D01*
X123496158Y-129001068D01*
X123209260Y-128944000D01*
X122916740Y-128944000D01*
X122629842Y-129001068D01*
X122359589Y-129113010D01*
X122116368Y-129275525D01*
X121909525Y-129482368D01*
X121747010Y-129725589D01*
X121635068Y-129995842D01*
X121578000Y-130282740D01*
X121578000Y-130575260D01*
X121635068Y-130862158D01*
X121747010Y-131132411D01*
X121909525Y-131375632D01*
X122116368Y-131582475D01*
X122290760Y-131699000D01*
X122116368Y-131815525D01*
X121909525Y-132022368D01*
X121747010Y-132265589D01*
X121635068Y-132535842D01*
X121578000Y-132822740D01*
X121578000Y-133115260D01*
X121635068Y-133402158D01*
X121747010Y-133672411D01*
X121909525Y-133915632D01*
X122041380Y-134047487D01*
X121968820Y-134069498D01*
X121858506Y-134128463D01*
X121761815Y-134207815D01*
X121682463Y-134304506D01*
X121623498Y-134414820D01*
X121587188Y-134534518D01*
X121574928Y-134659000D01*
X119360000Y-134659000D01*
X119360000Y-114660000D01*
X139689646Y-114660000D01*
X143638323Y-114680354D01*
%TA.AperFunction,Conductor*%
D13*
G36*
X143638323Y-114680354D02*
G01*
X143840001Y-133839776D01*
X143840001Y-138340000D01*
X129769265Y-138340000D01*
X119360000Y-138181483D01*
X119360000Y-136359000D01*
X121574928Y-136359000D01*
X121587188Y-136483482D01*
X121623498Y-136603180D01*
X121682463Y-136713494D01*
X121761815Y-136810185D01*
X121858506Y-136889537D01*
X121968820Y-136948502D01*
X122088518Y-136984812D01*
X122213000Y-136997072D01*
X122777250Y-136994000D01*
X122936000Y-136835250D01*
X122936000Y-135636000D01*
X123190000Y-135636000D01*
X123190000Y-136835250D01*
X123348750Y-136994000D01*
X123913000Y-136997072D01*
X124037482Y-136984812D01*
X124157180Y-136948502D01*
X124267494Y-136889537D01*
X124364185Y-136810185D01*
X124443537Y-136713494D01*
X124502502Y-136603180D01*
X124538812Y-136483482D01*
X124551072Y-136359000D01*
X133893928Y-136359000D01*
X133906188Y-136483482D01*
X133942498Y-136603180D01*
X134001463Y-136713494D01*
X134080815Y-136810185D01*
X134177506Y-136889537D01*
X134287820Y-136948502D01*
X134407518Y-136984812D01*
X134532000Y-136997072D01*
X135096250Y-136994000D01*
X135255000Y-136835250D01*
X135255000Y-135636000D01*
X135509000Y-135636000D01*
X135509000Y-136835250D01*
X135667750Y-136994000D01*
X136232000Y-136997072D01*
X136356482Y-136984812D01*
X136476180Y-136948502D01*
X136586494Y-136889537D01*
X136683185Y-136810185D01*
X136762537Y-136713494D01*
X136821502Y-136603180D01*
X136857812Y-136483482D01*
X136870072Y-136359000D01*
X136867000Y-135794750D01*
X136708250Y-135636000D01*
X135509000Y-135636000D01*
X135255000Y-135636000D01*
X134055750Y-135636000D01*
X133897000Y-135794750D01*
X133893928Y-136359000D01*
X124551072Y-136359000D01*
X124548000Y-135794750D01*
X124389250Y-135636000D01*
X123190000Y-135636000D01*
X122936000Y-135636000D01*
X121736750Y-135636000D01*
X121578000Y-135794750D01*
X121574928Y-136359000D01*
X119360000Y-136359000D01*
X119360000Y-134659000D01*
X121574928Y-134659000D01*
X121578000Y-135223250D01*
X121736750Y-135382000D01*
X122936000Y-135382000D01*
X122936000Y-135362000D01*
X123190000Y-135362000D01*
X123190000Y-135382000D01*
X124389250Y-135382000D01*
X124548000Y-135223250D01*
X124551072Y-134659000D01*
X133893928Y-134659000D01*
X133897000Y-135223250D01*
X134055750Y-135382000D01*
X135255000Y-135382000D01*
X135255000Y-135362000D01*
X135509000Y-135362000D01*
X135509000Y-135382000D01*
X136708250Y-135382000D01*
X136867000Y-135223250D01*
X136870072Y-134659000D01*
X136857812Y-134534518D01*
X136821502Y-134414820D01*
X136762537Y-134304506D01*
X136683185Y-134207815D01*
X136586494Y-134128463D01*
X136476180Y-134069498D01*
X136403620Y-134047487D01*
X136535475Y-133915632D01*
X136697990Y-133672411D01*
X136809932Y-133402158D01*
X136867000Y-133115260D01*
X136867000Y-132822740D01*
X136809932Y-132535842D01*
X136697990Y-132265589D01*
X136535475Y-132022368D01*
X136328632Y-131815525D01*
X136154240Y-131699000D01*
X136212607Y-131660000D01*
X138211928Y-131660000D01*
X138224188Y-131784482D01*
X138260498Y-131904180D01*
X138319463Y-132014494D01*
X138398815Y-132111185D01*
X138495506Y-132190537D01*
X138605820Y-132249502D01*
X138725518Y-132285812D01*
X138850000Y-132298072D01*
X139414250Y-132295000D01*
X139573000Y-132136250D01*
X139573000Y-130937000D01*
X139827000Y-130937000D01*
X139827000Y-132136250D01*
X139985750Y-132295000D01*
X140550000Y-132298072D01*
X140674482Y-132285812D01*
X140794180Y-132249502D01*
X140904494Y-132190537D01*
X140970000Y-132136778D01*
X141035506Y-132190537D01*
X141145820Y-132249502D01*
X141218380Y-132271513D01*
X141086525Y-132403368D01*
X140924010Y-132646589D01*
X140812068Y-132916842D01*
X140755000Y-133203740D01*
X140755000Y-133496260D01*
X140812068Y-133783158D01*
X140924010Y-134053411D01*
X141086525Y-134296632D01*
X141293368Y-134503475D01*
X141467760Y-134620000D01*
X141293368Y-134736525D01*
X141086525Y-134943368D01*
X140924010Y-135186589D01*
X140812068Y-135456842D01*
X140755000Y-135743740D01*
X140755000Y-136036260D01*
X140812068Y-136323158D01*
X140924010Y-136593411D01*
X141086525Y-136836632D01*
X141293368Y-137043475D01*
X141536589Y-137205990D01*
X141806842Y-137317932D01*
X142093740Y-137375000D01*
X142386260Y-137375000D01*
X142673158Y-137317932D01*
X142943411Y-137205990D01*
X143186632Y-137043475D01*
X143393475Y-136836632D01*
X143555990Y-136593411D01*
X143667932Y-136323158D01*
X143725000Y-136036260D01*
X143725000Y-135743740D01*
X143667932Y-135456842D01*
X143555990Y-135186589D01*
X143393475Y-134943368D01*
X143186632Y-134736525D01*
X143012240Y-134620000D01*
X143186632Y-134503475D01*
X143393475Y-134296632D01*
X143555990Y-134053411D01*
X143667932Y-133783158D01*
X143725000Y-133496260D01*
X143725000Y-133203740D01*
X143667932Y-132916842D01*
X143555990Y-132646589D01*
X143393475Y-132403368D01*
X143261620Y-132271513D01*
X143334180Y-132249502D01*
X143444494Y-132190537D01*
X143541185Y-132111185D01*
X143620537Y-132014494D01*
X143679502Y-131904180D01*
X143715812Y-131784482D01*
X143728072Y-131660000D01*
X143725000Y-131095750D01*
X143566250Y-130937000D01*
X142367000Y-130937000D01*
X142367000Y-130957000D01*
X142113000Y-130957000D01*
X142113000Y-130937000D01*
X139827000Y-130937000D01*
X139573000Y-130937000D01*
X138373750Y-130937000D01*
X138215000Y-131095750D01*
X138211928Y-131660000D01*
X136212607Y-131660000D01*
X136328632Y-131582475D01*
X136535475Y-131375632D01*
X136697990Y-131132411D01*
X136809932Y-130862158D01*
X136867000Y-130575260D01*
X136867000Y-130282740D01*
X136809932Y-129995842D01*
X136795086Y-129960000D01*
X138211928Y-129960000D01*
X138215000Y-130524250D01*
X138373750Y-130683000D01*
X139573000Y-130683000D01*
X139573000Y-130663000D01*
X139827000Y-130663000D01*
X139827000Y-130683000D01*
X142113000Y-130683000D01*
X142113000Y-129483750D01*
X142367000Y-129483750D01*
X142367000Y-130683000D01*
X143566250Y-130683000D01*
X143725000Y-130524250D01*
X143728072Y-129960000D01*
X143715812Y-129835518D01*
X143679502Y-129715820D01*
X143620537Y-129605506D01*
X143541185Y-129508815D01*
X143444494Y-129429463D01*
X143334180Y-129370498D01*
X143214482Y-129334188D01*
X143090000Y-129321928D01*
X142525750Y-129325000D01*
X142367000Y-129483750D01*
X142113000Y-129483750D01*
X141954250Y-129325000D01*
X141390000Y-129321928D01*
X141265518Y-129334188D01*
X141145820Y-129370498D01*
X141035506Y-129429463D01*
X140970000Y-129483222D01*
X140904494Y-129429463D01*
X140794180Y-129370498D01*
X140721620Y-129348487D01*
X140853475Y-129216632D01*
X141015990Y-128973411D01*
X141127932Y-128703158D01*
X141185000Y-128416260D01*
X141185000Y-128123740D01*
X141127932Y-127836842D01*
X141015990Y-127566589D01*
X140853475Y-127323368D01*
X140646632Y-127116525D01*
X140472240Y-127000000D01*
X140646632Y-126883475D01*
X140853475Y-126676632D01*
X141015990Y-126433411D01*
X141127932Y-126163158D01*
X141185000Y-125876260D01*
X141185000Y-125583740D01*
X141127932Y-125296842D01*
X141015990Y-125026589D01*
X140853475Y-124783368D01*
X140646632Y-124576525D01*
X140472240Y-124460000D01*
X140646632Y-124343475D01*
X140853475Y-124136632D01*
X141015990Y-123893411D01*
X141127932Y-123623158D01*
X141185000Y-123336260D01*
X141185000Y-123043740D01*
X141127932Y-122756842D01*
X141015990Y-122486589D01*
X140853475Y-122243368D01*
X140646632Y-122036525D01*
X140403411Y-121874010D01*
X140133158Y-121762068D01*
X139846260Y-121705000D01*
X139553740Y-121705000D01*
X139266842Y-121762068D01*
X138996589Y-121874010D01*
X138753368Y-122036525D01*
X138546525Y-122243368D01*
X138384010Y-122486589D01*
X138272068Y-122756842D01*
X138215000Y-123043740D01*
X138215000Y-123336260D01*
X138272068Y-123623158D01*
X138384010Y-123893411D01*
X138546525Y-124136632D01*
X138753368Y-124343475D01*
X138927760Y-124460000D01*
X138753368Y-124576525D01*
X138546525Y-124783368D01*
X138384010Y-125026589D01*
X138272068Y-125296842D01*
X138215000Y-125583740D01*
X138215000Y-125876260D01*
X138272068Y-126163158D01*
X138384010Y-126433411D01*
X138546525Y-126676632D01*
X138753368Y-126883475D01*
X138927760Y-127000000D01*
X138753368Y-127116525D01*
X138546525Y-127323368D01*
X138384010Y-127566589D01*
X138272068Y-127836842D01*
X138215000Y-128123740D01*
X138215000Y-128416260D01*
X138272068Y-128703158D01*
X138384010Y-128973411D01*
X138546525Y-129216632D01*
X138678380Y-129348487D01*
X138605820Y-129370498D01*
X138495506Y-129429463D01*
X138398815Y-129508815D01*
X138319463Y-129605506D01*
X138260498Y-129715820D01*
X138224188Y-129835518D01*
X138211928Y-129960000D01*
X136795086Y-129960000D01*
X136697990Y-129725589D01*
X136535475Y-129482368D01*
X136328632Y-129275525D01*
X136154240Y-129159000D01*
X136328632Y-129042475D01*
X136535475Y-128835632D01*
X136697990Y-128592411D01*
X136809932Y-128322158D01*
X136867000Y-128035260D01*
X136867000Y-127742740D01*
X136809932Y-127455842D01*
X136697990Y-127185589D01*
X136535475Y-126942368D01*
X136328632Y-126735525D01*
X136154240Y-126619000D01*
X136328632Y-126502475D01*
X136535475Y-126295632D01*
X136697990Y-126052411D01*
X136809932Y-125782158D01*
X136867000Y-125495260D01*
X136867000Y-125202740D01*
X136809932Y-124915842D01*
X136697990Y-124645589D01*
X136535475Y-124402368D01*
X136328632Y-124195525D01*
X136154240Y-124079000D01*
X136328632Y-123962475D01*
X136535475Y-123755632D01*
X136697990Y-123512411D01*
X136809932Y-123242158D01*
X136867000Y-122955260D01*
X136867000Y-122662740D01*
X136809932Y-122375842D01*
X136697990Y-122105589D01*
X136535475Y-121862368D01*
X136328632Y-121655525D01*
X136154240Y-121539000D01*
X136328632Y-121422475D01*
X136535475Y-121215632D01*
X136697990Y-120972411D01*
X136809932Y-120702158D01*
X136867000Y-120415260D01*
X136867000Y-120122740D01*
X136809932Y-119835842D01*
X136697990Y-119565589D01*
X136535475Y-119322368D01*
X136328632Y-119115525D01*
X136154240Y-118999000D01*
X136328632Y-118882475D01*
X136535475Y-118675632D01*
X136697990Y-118432411D01*
X136809932Y-118162158D01*
X136867000Y-117875260D01*
X136867000Y-117582740D01*
X136809932Y-117295842D01*
X136697990Y-117025589D01*
X136535475Y-116782368D01*
X136328632Y-116575525D01*
X136085411Y-116413010D01*
X135815158Y-116301068D01*
X135528260Y-116244000D01*
X135235740Y-116244000D01*
X134948842Y-116301068D01*
X134678589Y-116413010D01*
X134435368Y-116575525D01*
X134228525Y-116782368D01*
X134066010Y-117025589D01*
X133954068Y-117295842D01*
X133897000Y-117582740D01*
X133897000Y-117875260D01*
X133954068Y-118162158D01*
X134066010Y-118432411D01*
X134228525Y-118675632D01*
X134435368Y-118882475D01*
X134609760Y-118999000D01*
X134435368Y-119115525D01*
X134228525Y-119322368D01*
X134066010Y-119565589D01*
X133954068Y-119835842D01*
X133897000Y-120122740D01*
X133897000Y-120415260D01*
X133954068Y-120702158D01*
X134066010Y-120972411D01*
X134228525Y-121215632D01*
X134435368Y-121422475D01*
X134609760Y-121539000D01*
X134435368Y-121655525D01*
X134228525Y-121862368D01*
X134066010Y-122105589D01*
X133954068Y-122375842D01*
X133897000Y-122662740D01*
X133897000Y-122955260D01*
X133954068Y-123242158D01*
X134066010Y-123512411D01*
X134228525Y-123755632D01*
X134435368Y-123962475D01*
X134609760Y-124079000D01*
X134435368Y-124195525D01*
X134228525Y-124402368D01*
X134066010Y-124645589D01*
X133954068Y-124915842D01*
X133897000Y-125202740D01*
X133897000Y-125495260D01*
X133954068Y-125782158D01*
X134066010Y-126052411D01*
X134228525Y-126295632D01*
X134435368Y-126502475D01*
X134609760Y-126619000D01*
X134435368Y-126735525D01*
X134228525Y-126942368D01*
X134066010Y-127185589D01*
X133954068Y-127455842D01*
X133897000Y-127742740D01*
X133897000Y-128035260D01*
X133954068Y-128322158D01*
X134066010Y-128592411D01*
X134228525Y-128835632D01*
X134435368Y-129042475D01*
X134609760Y-129159000D01*
X134435368Y-129275525D01*
X134228525Y-129482368D01*
X134066010Y-129725589D01*
X133954068Y-129995842D01*
X133897000Y-130282740D01*
X133897000Y-130575260D01*
X133954068Y-130862158D01*
X134066010Y-131132411D01*
X134228525Y-131375632D01*
X134435368Y-131582475D01*
X134609760Y-131699000D01*
X134435368Y-131815525D01*
X134228525Y-132022368D01*
X134066010Y-132265589D01*
X133954068Y-132535842D01*
X133897000Y-132822740D01*
X133897000Y-133115260D01*
X133954068Y-133402158D01*
X134066010Y-133672411D01*
X134228525Y-133915632D01*
X134360380Y-134047487D01*
X134287820Y-134069498D01*
X134177506Y-134128463D01*
X134080815Y-134207815D01*
X134001463Y-134304506D01*
X133942498Y-134414820D01*
X133906188Y-134534518D01*
X133893928Y-134659000D01*
X124551072Y-134659000D01*
X124538812Y-134534518D01*
X124502502Y-134414820D01*
X124443537Y-134304506D01*
X124364185Y-134207815D01*
X124267494Y-134128463D01*
X124157180Y-134069498D01*
X124084620Y-134047487D01*
X124216475Y-133915632D01*
X124378990Y-133672411D01*
X124490932Y-133402158D01*
X124548000Y-133115260D01*
X124548000Y-132822740D01*
X124490932Y-132535842D01*
X124378990Y-132265589D01*
X124216475Y-132022368D01*
X124009632Y-131815525D01*
X123835240Y-131699000D01*
X124009632Y-131582475D01*
X124216475Y-131375632D01*
X124378990Y-131132411D01*
X124490932Y-130862158D01*
X124548000Y-130575260D01*
X124548000Y-130282740D01*
X124490932Y-129995842D01*
X124378990Y-129725589D01*
X124216475Y-129482368D01*
X124009632Y-129275525D01*
X123766411Y-129113010D01*
X123496158Y-129001068D01*
X123209260Y-128944000D01*
X122916740Y-128944000D01*
X122629842Y-129001068D01*
X122359589Y-129113010D01*
X122116368Y-129275525D01*
X121909525Y-129482368D01*
X121747010Y-129725589D01*
X121635068Y-129995842D01*
X121578000Y-130282740D01*
X121578000Y-130575260D01*
X121635068Y-130862158D01*
X121747010Y-131132411D01*
X121909525Y-131375632D01*
X122116368Y-131582475D01*
X122290760Y-131699000D01*
X122116368Y-131815525D01*
X121909525Y-132022368D01*
X121747010Y-132265589D01*
X121635068Y-132535842D01*
X121578000Y-132822740D01*
X121578000Y-133115260D01*
X121635068Y-133402158D01*
X121747010Y-133672411D01*
X121909525Y-133915632D01*
X122041380Y-134047487D01*
X121968820Y-134069498D01*
X121858506Y-134128463D01*
X121761815Y-134207815D01*
X121682463Y-134304506D01*
X121623498Y-134414820D01*
X121587188Y-134534518D01*
X121574928Y-134659000D01*
X119360000Y-134659000D01*
X119360000Y-114660000D01*
X139689646Y-114660000D01*
X143638323Y-114680354D01*
G37*
%TD.AperFunction*%
%TD*%
M02*
