%TF.GenerationSoftware,KiCad,Pcbnew,5.1.9-73d0e3b20d~88~ubuntu20.04.1*%
%TF.CreationDate,2021-04-09T16:28:33+02:00*%
%TF.ProjectId,pcb_port_gobelet,7063625f-706f-4727-945f-676f62656c65,rev?*%
%TF.SameCoordinates,Original*%
%TF.FileFunction,Legend,Bot*%
%TF.FilePolarity,Positive*%
%FSLAX46Y46*%
G04 Gerber Fmt 4.6, Leading zero omitted, Abs format (unit mm)*
G04 Created by KiCad (PCBNEW 5.1.9-73d0e3b20d~88~ubuntu20.04.1) date 2021-04-09 16:28:33*
%MOMM*%
%LPD*%
G01*
G04 APERTURE LIST*
%ADD10C,0.150000*%
%ADD11C,0.120000*%
G04 APERTURE END LIST*
D10*
X140334904Y-132596000D02*
X140430142Y-132548380D01*
X140573000Y-132548380D01*
X140715857Y-132596000D01*
X140811095Y-132691238D01*
X140858714Y-132786476D01*
X140906333Y-132976952D01*
X140906333Y-133119809D01*
X140858714Y-133310285D01*
X140811095Y-133405523D01*
X140715857Y-133500761D01*
X140573000Y-133548380D01*
X140477761Y-133548380D01*
X140334904Y-133500761D01*
X140287285Y-133453142D01*
X140287285Y-133119809D01*
X140477761Y-133119809D01*
X139858714Y-133548380D02*
X139858714Y-132548380D01*
X139287285Y-133548380D01*
X139287285Y-132548380D01*
X138811095Y-133548380D02*
X138811095Y-132548380D01*
X138573000Y-132548380D01*
X138430142Y-132596000D01*
X138334904Y-132691238D01*
X138287285Y-132786476D01*
X138239666Y-132976952D01*
X138239666Y-133119809D01*
X138287285Y-133310285D01*
X138334904Y-133405523D01*
X138430142Y-133500761D01*
X138573000Y-133548380D01*
X138811095Y-133548380D01*
D11*
%TO.C,MA1*%
X139700000Y-132140000D02*
X141030000Y-132140000D01*
X141030000Y-132140000D02*
X141030000Y-130810000D01*
X141030000Y-129540000D02*
X141030000Y-121860000D01*
X138370000Y-121860000D02*
X141030000Y-121860000D01*
X138370000Y-129540000D02*
X138370000Y-121860000D01*
X138370000Y-129540000D02*
X141030000Y-129540000D01*
%TO.C,S1*%
X124079000Y-114808000D02*
X122809000Y-114808000D01*
X124079000Y-116078000D02*
X124079000Y-114808000D01*
X121766071Y-121538000D02*
X121369000Y-121538000D01*
X121766071Y-120778000D02*
X121369000Y-120778000D01*
X112709000Y-121538000D02*
X118709000Y-121538000D01*
X112709000Y-120778000D02*
X112709000Y-121538000D01*
X118709000Y-120778000D02*
X112709000Y-120778000D01*
X121369000Y-119888000D02*
X118709000Y-119888000D01*
X121766071Y-118998000D02*
X121369000Y-118998000D01*
X121766071Y-118238000D02*
X121369000Y-118238000D01*
X112709000Y-118998000D02*
X118709000Y-118998000D01*
X112709000Y-118238000D02*
X112709000Y-118998000D01*
X118709000Y-118238000D02*
X112709000Y-118238000D01*
X121369000Y-117348000D02*
X118709000Y-117348000D01*
X121699000Y-116458000D02*
X121369000Y-116458000D01*
X121699000Y-115698000D02*
X121369000Y-115698000D01*
X118709000Y-116358000D02*
X112709000Y-116358000D01*
X118709000Y-116238000D02*
X112709000Y-116238000D01*
X118709000Y-116118000D02*
X112709000Y-116118000D01*
X118709000Y-115998000D02*
X112709000Y-115998000D01*
X118709000Y-115878000D02*
X112709000Y-115878000D01*
X118709000Y-115758000D02*
X112709000Y-115758000D01*
X112709000Y-116458000D02*
X118709000Y-116458000D01*
X112709000Y-115698000D02*
X112709000Y-116458000D01*
X118709000Y-115698000D02*
X112709000Y-115698000D01*
X118709000Y-114748000D02*
X121369000Y-114748000D01*
X118709000Y-122488000D02*
X118709000Y-114748000D01*
X121369000Y-122488000D02*
X118709000Y-122488000D01*
X121369000Y-114748000D02*
X121369000Y-122488000D01*
%TO.C,MA1*%
D10*
X140811095Y-134564380D02*
X140811095Y-133564380D01*
X140477761Y-134278666D01*
X140144428Y-133564380D01*
X140144428Y-134564380D01*
X139715857Y-134278666D02*
X139239666Y-134278666D01*
X139811095Y-134564380D02*
X139477761Y-133564380D01*
X139144428Y-134564380D01*
X138287285Y-134564380D02*
X138858714Y-134564380D01*
X138573000Y-134564380D02*
X138573000Y-133564380D01*
X138668238Y-133707238D01*
X138763476Y-133802476D01*
X138858714Y-133850095D01*
%TO.C,S1*%
X122427904Y-113942761D02*
X122285047Y-113990380D01*
X122046952Y-113990380D01*
X121951714Y-113942761D01*
X121904095Y-113895142D01*
X121856476Y-113799904D01*
X121856476Y-113704666D01*
X121904095Y-113609428D01*
X121951714Y-113561809D01*
X122046952Y-113514190D01*
X122237428Y-113466571D01*
X122332666Y-113418952D01*
X122380285Y-113371333D01*
X122427904Y-113276095D01*
X122427904Y-113180857D01*
X122380285Y-113085619D01*
X122332666Y-113038000D01*
X122237428Y-112990380D01*
X121999333Y-112990380D01*
X121856476Y-113038000D01*
X120904095Y-113990380D02*
X121475523Y-113990380D01*
X121189809Y-113990380D02*
X121189809Y-112990380D01*
X121285047Y-113133238D01*
X121380285Y-113228476D01*
X121475523Y-113276095D01*
%TD*%
M02*
