%TF.GenerationSoftware,KiCad,Pcbnew,5.1.9-73d0e3b20d~88~ubuntu20.04.1*%
%TF.CreationDate,2021-04-09T06:43:05+02:00*%
%TF.ProjectId,pcb_port_gobelet,7063625f-706f-4727-945f-676f62656c65,rev?*%
%TF.SameCoordinates,Original*%
%TF.FileFunction,Legend,Top*%
%TF.FilePolarity,Positive*%
%FSLAX46Y46*%
G04 Gerber Fmt 4.6, Leading zero omitted, Abs format (unit mm)*
G04 Created by KiCad (PCBNEW 5.1.9-73d0e3b20d~88~ubuntu20.04.1) date 2021-04-09 06:43:05*
%MOMM*%
%LPD*%
G01*
G04 APERTURE LIST*
%ADD10C,0.150000*%
%ADD11C,0.010000*%
%ADD12C,0.120000*%
G04 APERTURE END LIST*
D10*
X141732095Y-128532000D02*
X141636857Y-128484380D01*
X141494000Y-128484380D01*
X141351142Y-128532000D01*
X141255904Y-128627238D01*
X141208285Y-128722476D01*
X141160666Y-128912952D01*
X141160666Y-129055809D01*
X141208285Y-129246285D01*
X141255904Y-129341523D01*
X141351142Y-129436761D01*
X141494000Y-129484380D01*
X141589238Y-129484380D01*
X141732095Y-129436761D01*
X141779714Y-129389142D01*
X141779714Y-129055809D01*
X141589238Y-129055809D01*
X142208285Y-129484380D02*
X142208285Y-128484380D01*
X142779714Y-129484380D01*
X142779714Y-128484380D01*
X143255904Y-129484380D02*
X143255904Y-128484380D01*
X143494000Y-128484380D01*
X143636857Y-128532000D01*
X143732095Y-128627238D01*
X143779714Y-128722476D01*
X143827333Y-128912952D01*
X143827333Y-129055809D01*
X143779714Y-129246285D01*
X143732095Y-129341523D01*
X143636857Y-129436761D01*
X143494000Y-129484380D01*
X143255904Y-129484380D01*
X137414095Y-135136000D02*
X137318857Y-135088380D01*
X137176000Y-135088380D01*
X137033142Y-135136000D01*
X136937904Y-135231238D01*
X136890285Y-135326476D01*
X136842666Y-135516952D01*
X136842666Y-135659809D01*
X136890285Y-135850285D01*
X136937904Y-135945523D01*
X137033142Y-136040761D01*
X137176000Y-136088380D01*
X137271238Y-136088380D01*
X137414095Y-136040761D01*
X137461714Y-135993142D01*
X137461714Y-135659809D01*
X137271238Y-135659809D01*
X137890285Y-136088380D02*
X137890285Y-135088380D01*
X138461714Y-136088380D01*
X138461714Y-135088380D01*
X138937904Y-136088380D02*
X138937904Y-135088380D01*
X139176000Y-135088380D01*
X139318857Y-135136000D01*
X139414095Y-135231238D01*
X139461714Y-135326476D01*
X139509333Y-135516952D01*
X139509333Y-135659809D01*
X139461714Y-135850285D01*
X139414095Y-135945523D01*
X139318857Y-136040761D01*
X139176000Y-136088380D01*
X138937904Y-136088380D01*
X125095095Y-135390000D02*
X124999857Y-135342380D01*
X124857000Y-135342380D01*
X124714142Y-135390000D01*
X124618904Y-135485238D01*
X124571285Y-135580476D01*
X124523666Y-135770952D01*
X124523666Y-135913809D01*
X124571285Y-136104285D01*
X124618904Y-136199523D01*
X124714142Y-136294761D01*
X124857000Y-136342380D01*
X124952238Y-136342380D01*
X125095095Y-136294761D01*
X125142714Y-136247142D01*
X125142714Y-135913809D01*
X124952238Y-135913809D01*
X125571285Y-136342380D02*
X125571285Y-135342380D01*
X126142714Y-136342380D01*
X126142714Y-135342380D01*
X126618904Y-136342380D02*
X126618904Y-135342380D01*
X126857000Y-135342380D01*
X126999857Y-135390000D01*
X127095095Y-135485238D01*
X127142714Y-135580476D01*
X127190333Y-135770952D01*
X127190333Y-135913809D01*
X127142714Y-136104285D01*
X127095095Y-136199523D01*
X126999857Y-136294761D01*
X126857000Y-136342380D01*
X126618904Y-136342380D01*
D11*
%TO.C,REF\u002A\u002A*%
G36*
X122506989Y-117123639D02*
G01*
X122501387Y-117146177D01*
X122433141Y-117329300D01*
X122332047Y-117491372D01*
X122203100Y-117629124D01*
X122051297Y-117739286D01*
X121881635Y-117818591D01*
X121699110Y-117863769D01*
X121508720Y-117871551D01*
X121410167Y-117860062D01*
X121236218Y-117816213D01*
X121084753Y-117745437D01*
X120944132Y-117641625D01*
X120881226Y-117582441D01*
X120748092Y-117422655D01*
X120655294Y-117250258D01*
X120603060Y-117066012D01*
X120591616Y-116870680D01*
X120615344Y-116690803D01*
X120671764Y-116522002D01*
X120763195Y-116360873D01*
X120882512Y-116216398D01*
X121022591Y-116097560D01*
X121140292Y-116029091D01*
X121325896Y-115962617D01*
X121510890Y-115935013D01*
X121620744Y-115940004D01*
X121620744Y-116358538D01*
X121470559Y-116361258D01*
X121339066Y-116400070D01*
X121219859Y-116476972D01*
X121207652Y-116487462D01*
X121105691Y-116602504D01*
X121039074Y-116734424D01*
X121010971Y-116876542D01*
X121010247Y-116903500D01*
X121030948Y-117049811D01*
X121059905Y-117126557D01*
X121124130Y-117228759D01*
X121212536Y-117321655D01*
X121312887Y-117394261D01*
X121400846Y-117432507D01*
X121547467Y-117452867D01*
X121694141Y-117435320D01*
X121831187Y-117382341D01*
X121948922Y-117296410D01*
X121954627Y-117290795D01*
X122022683Y-117214775D01*
X122066116Y-117141924D01*
X122089882Y-117058999D01*
X122098937Y-116952757D01*
X122099551Y-116903500D01*
X122094871Y-116785383D01*
X122077434Y-116695488D01*
X122042145Y-116620403D01*
X121983909Y-116546716D01*
X121951044Y-116512622D01*
X121853995Y-116431478D01*
X121751861Y-116382909D01*
X121628198Y-116359243D01*
X121620744Y-116358538D01*
X121620744Y-115940004D01*
X121691546Y-115943221D01*
X121864135Y-115984179D01*
X122024929Y-116054828D01*
X122170197Y-116152107D01*
X122296213Y-116272955D01*
X122399247Y-116414314D01*
X122475570Y-116573122D01*
X122521454Y-116746319D01*
X122533170Y-116930845D01*
X122506989Y-117123639D01*
G37*
X122506989Y-117123639D02*
X122501387Y-117146177D01*
X122433141Y-117329300D01*
X122332047Y-117491372D01*
X122203100Y-117629124D01*
X122051297Y-117739286D01*
X121881635Y-117818591D01*
X121699110Y-117863769D01*
X121508720Y-117871551D01*
X121410167Y-117860062D01*
X121236218Y-117816213D01*
X121084753Y-117745437D01*
X120944132Y-117641625D01*
X120881226Y-117582441D01*
X120748092Y-117422655D01*
X120655294Y-117250258D01*
X120603060Y-117066012D01*
X120591616Y-116870680D01*
X120615344Y-116690803D01*
X120671764Y-116522002D01*
X120763195Y-116360873D01*
X120882512Y-116216398D01*
X121022591Y-116097560D01*
X121140292Y-116029091D01*
X121325896Y-115962617D01*
X121510890Y-115935013D01*
X121620744Y-115940004D01*
X121620744Y-116358538D01*
X121470559Y-116361258D01*
X121339066Y-116400070D01*
X121219859Y-116476972D01*
X121207652Y-116487462D01*
X121105691Y-116602504D01*
X121039074Y-116734424D01*
X121010971Y-116876542D01*
X121010247Y-116903500D01*
X121030948Y-117049811D01*
X121059905Y-117126557D01*
X121124130Y-117228759D01*
X121212536Y-117321655D01*
X121312887Y-117394261D01*
X121400846Y-117432507D01*
X121547467Y-117452867D01*
X121694141Y-117435320D01*
X121831187Y-117382341D01*
X121948922Y-117296410D01*
X121954627Y-117290795D01*
X122022683Y-117214775D01*
X122066116Y-117141924D01*
X122089882Y-117058999D01*
X122098937Y-116952757D01*
X122099551Y-116903500D01*
X122094871Y-116785383D01*
X122077434Y-116695488D01*
X122042145Y-116620403D01*
X121983909Y-116546716D01*
X121951044Y-116512622D01*
X121853995Y-116431478D01*
X121751861Y-116382909D01*
X121628198Y-116359243D01*
X121620744Y-116358538D01*
X121620744Y-115940004D01*
X121691546Y-115943221D01*
X121864135Y-115984179D01*
X122024929Y-116054828D01*
X122170197Y-116152107D01*
X122296213Y-116272955D01*
X122399247Y-116414314D01*
X122475570Y-116573122D01*
X122521454Y-116746319D01*
X122533170Y-116930845D01*
X122506989Y-117123639D01*
G36*
X122728308Y-115224149D02*
G01*
X122700696Y-115286242D01*
X122648331Y-115333826D01*
X122573786Y-115357336D01*
X122553042Y-115358334D01*
X122509857Y-115344013D01*
X122461675Y-115309160D01*
X122457826Y-115305417D01*
X122431248Y-115281614D01*
X122402444Y-115266262D01*
X122361877Y-115257523D01*
X122300010Y-115253555D01*
X122207308Y-115252518D01*
X122183621Y-115252500D01*
X122084725Y-115253035D01*
X122020659Y-115255597D01*
X121983921Y-115261620D01*
X121967012Y-115272540D01*
X121962431Y-115289790D01*
X121962333Y-115294834D01*
X121952354Y-115325820D01*
X121915225Y-115336730D01*
X121898833Y-115337167D01*
X121859256Y-115334229D01*
X121840875Y-115317620D01*
X121835593Y-115275644D01*
X121835333Y-115245445D01*
X121838335Y-115186048D01*
X121845872Y-115146179D01*
X121849444Y-115139611D01*
X121874742Y-115134402D01*
X121934097Y-115130061D01*
X122019232Y-115126980D01*
X122121874Y-115125553D01*
X122146442Y-115125500D01*
X122265760Y-115124619D01*
X122348855Y-115121559D01*
X122401811Y-115115694D01*
X122430711Y-115106399D01*
X122440945Y-115095229D01*
X122474632Y-115059390D01*
X122532378Y-115038002D01*
X122570654Y-115036405D01*
X122570654Y-115134827D01*
X122547055Y-115138000D01*
X122519149Y-115165947D01*
X122518901Y-115205266D01*
X122542968Y-115238499D01*
X122568181Y-115248328D01*
X122610454Y-115238404D01*
X122630600Y-115204762D01*
X122621225Y-115163369D01*
X122612452Y-115152714D01*
X122570654Y-115134827D01*
X122570654Y-115036405D01*
X122597159Y-115035298D01*
X122636907Y-115046469D01*
X122698986Y-115094697D01*
X122728596Y-115157112D01*
X122728308Y-115224149D01*
G37*
X122728308Y-115224149D02*
X122700696Y-115286242D01*
X122648331Y-115333826D01*
X122573786Y-115357336D01*
X122553042Y-115358334D01*
X122509857Y-115344013D01*
X122461675Y-115309160D01*
X122457826Y-115305417D01*
X122431248Y-115281614D01*
X122402444Y-115266262D01*
X122361877Y-115257523D01*
X122300010Y-115253555D01*
X122207308Y-115252518D01*
X122183621Y-115252500D01*
X122084725Y-115253035D01*
X122020659Y-115255597D01*
X121983921Y-115261620D01*
X121967012Y-115272540D01*
X121962431Y-115289790D01*
X121962333Y-115294834D01*
X121952354Y-115325820D01*
X121915225Y-115336730D01*
X121898833Y-115337167D01*
X121859256Y-115334229D01*
X121840875Y-115317620D01*
X121835593Y-115275644D01*
X121835333Y-115245445D01*
X121838335Y-115186048D01*
X121845872Y-115146179D01*
X121849444Y-115139611D01*
X121874742Y-115134402D01*
X121934097Y-115130061D01*
X122019232Y-115126980D01*
X122121874Y-115125553D01*
X122146442Y-115125500D01*
X122265760Y-115124619D01*
X122348855Y-115121559D01*
X122401811Y-115115694D01*
X122430711Y-115106399D01*
X122440945Y-115095229D01*
X122474632Y-115059390D01*
X122532378Y-115038002D01*
X122570654Y-115036405D01*
X122570654Y-115134827D01*
X122547055Y-115138000D01*
X122519149Y-115165947D01*
X122518901Y-115205266D01*
X122542968Y-115238499D01*
X122568181Y-115248328D01*
X122610454Y-115238404D01*
X122630600Y-115204762D01*
X122621225Y-115163369D01*
X122612452Y-115152714D01*
X122570654Y-115134827D01*
X122570654Y-115036405D01*
X122597159Y-115035298D01*
X122636907Y-115046469D01*
X122698986Y-115094697D01*
X122728596Y-115157112D01*
X122728308Y-115224149D01*
G36*
X122100543Y-114969996D02*
G01*
X122069372Y-115018461D01*
X122008787Y-115053653D01*
X121936834Y-115060871D01*
X121870778Y-115040021D01*
X121845916Y-115019667D01*
X121803112Y-114987521D01*
X121768553Y-114977334D01*
X121749488Y-114981555D01*
X121737835Y-114999665D01*
X121731822Y-115039828D01*
X121729676Y-115110212D01*
X121729500Y-115157250D01*
X121729500Y-115337167D01*
X121602500Y-115337167D01*
X121602500Y-115096015D01*
X121603417Y-114988762D01*
X121606794Y-114916697D01*
X121613569Y-114872703D01*
X121624680Y-114849661D01*
X121635981Y-114842015D01*
X121679653Y-114833144D01*
X121739803Y-114829181D01*
X121743326Y-114829167D01*
X121802857Y-114820426D01*
X121847036Y-114799208D01*
X121848909Y-114797449D01*
X121913713Y-114757241D01*
X121957523Y-114754468D01*
X121957523Y-114856603D01*
X121919028Y-114864160D01*
X121899144Y-114894624D01*
X121898833Y-114899994D01*
X121913776Y-114938306D01*
X121928341Y-114954306D01*
X121959199Y-114966189D01*
X121993353Y-114943290D01*
X122016865Y-114912728D01*
X122008012Y-114887656D01*
X121997236Y-114876165D01*
X121957523Y-114856603D01*
X121957523Y-114754468D01*
X121982257Y-114752902D01*
X122044222Y-114780368D01*
X122089290Y-114835575D01*
X122106414Y-114898855D01*
X122100543Y-114969996D01*
G37*
X122100543Y-114969996D02*
X122069372Y-115018461D01*
X122008787Y-115053653D01*
X121936834Y-115060871D01*
X121870778Y-115040021D01*
X121845916Y-115019667D01*
X121803112Y-114987521D01*
X121768553Y-114977334D01*
X121749488Y-114981555D01*
X121737835Y-114999665D01*
X121731822Y-115039828D01*
X121729676Y-115110212D01*
X121729500Y-115157250D01*
X121729500Y-115337167D01*
X121602500Y-115337167D01*
X121602500Y-115096015D01*
X121603417Y-114988762D01*
X121606794Y-114916697D01*
X121613569Y-114872703D01*
X121624680Y-114849661D01*
X121635981Y-114842015D01*
X121679653Y-114833144D01*
X121739803Y-114829181D01*
X121743326Y-114829167D01*
X121802857Y-114820426D01*
X121847036Y-114799208D01*
X121848909Y-114797449D01*
X121913713Y-114757241D01*
X121957523Y-114754468D01*
X121957523Y-114856603D01*
X121919028Y-114864160D01*
X121899144Y-114894624D01*
X121898833Y-114899994D01*
X121913776Y-114938306D01*
X121928341Y-114954306D01*
X121959199Y-114966189D01*
X121993353Y-114943290D01*
X122016865Y-114912728D01*
X122008012Y-114887656D01*
X121997236Y-114876165D01*
X121957523Y-114856603D01*
X121957523Y-114754468D01*
X121982257Y-114752902D01*
X122044222Y-114780368D01*
X122089290Y-114835575D01*
X122106414Y-114898855D01*
X122100543Y-114969996D01*
G36*
X121348500Y-115337167D02*
G01*
X121348500Y-115157250D01*
X121345557Y-115058163D01*
X121335251Y-114998215D01*
X121315365Y-114974523D01*
X121283684Y-114984208D01*
X121242666Y-115019667D01*
X121178719Y-115056832D01*
X121105339Y-115060651D01*
X121037817Y-115032012D01*
X121011369Y-115006229D01*
X120978032Y-114950752D01*
X120972454Y-114893609D01*
X120982146Y-114844754D01*
X121008166Y-114809068D01*
X121057845Y-114773661D01*
X121113834Y-114749315D01*
X121124781Y-114747539D01*
X121124781Y-114853518D01*
X121104070Y-114858377D01*
X121076418Y-114886787D01*
X121081032Y-114928257D01*
X121097079Y-114950279D01*
X121134593Y-114965465D01*
X121167530Y-114948005D01*
X121179166Y-114912818D01*
X121163868Y-114867756D01*
X121124781Y-114853518D01*
X121124781Y-114747539D01*
X121143511Y-114744500D01*
X121180232Y-114756816D01*
X121226812Y-114786469D01*
X121227276Y-114786834D01*
X121287815Y-114817728D01*
X121347938Y-114829167D01*
X121408642Y-114831909D01*
X121450160Y-114844603D01*
X121476106Y-114873954D01*
X121490092Y-114926665D01*
X121495733Y-115009441D01*
X121496666Y-115105078D01*
X121496666Y-115337167D01*
X121348500Y-115337167D01*
G37*
X121348500Y-115337167D02*
X121348500Y-115157250D01*
X121345557Y-115058163D01*
X121335251Y-114998215D01*
X121315365Y-114974523D01*
X121283684Y-114984208D01*
X121242666Y-115019667D01*
X121178719Y-115056832D01*
X121105339Y-115060651D01*
X121037817Y-115032012D01*
X121011369Y-115006229D01*
X120978032Y-114950752D01*
X120972454Y-114893609D01*
X120982146Y-114844754D01*
X121008166Y-114809068D01*
X121057845Y-114773661D01*
X121113834Y-114749315D01*
X121124781Y-114747539D01*
X121124781Y-114853518D01*
X121104070Y-114858377D01*
X121076418Y-114886787D01*
X121081032Y-114928257D01*
X121097079Y-114950279D01*
X121134593Y-114965465D01*
X121167530Y-114948005D01*
X121179166Y-114912818D01*
X121163868Y-114867756D01*
X121124781Y-114853518D01*
X121124781Y-114747539D01*
X121143511Y-114744500D01*
X121180232Y-114756816D01*
X121226812Y-114786469D01*
X121227276Y-114786834D01*
X121287815Y-114817728D01*
X121347938Y-114829167D01*
X121408642Y-114831909D01*
X121450160Y-114844603D01*
X121476106Y-114873954D01*
X121490092Y-114926665D01*
X121495733Y-115009441D01*
X121496666Y-115105078D01*
X121496666Y-115337167D01*
X121348500Y-115337167D01*
G36*
X121190910Y-115337167D02*
G01*
X121139364Y-115332589D01*
X121118324Y-115314641D01*
X121115666Y-115294834D01*
X121112921Y-115276084D01*
X121099736Y-115263868D01*
X121068691Y-115256796D01*
X121012365Y-115253480D01*
X120923335Y-115252531D01*
X120889489Y-115252500D01*
X120786755Y-115253331D01*
X120717079Y-115256854D01*
X120671201Y-115264613D01*
X120639861Y-115278152D01*
X120614495Y-115298361D01*
X120544732Y-115338563D01*
X120469611Y-115340636D01*
X120400509Y-115305157D01*
X120382067Y-115286598D01*
X120344725Y-115234565D01*
X120336247Y-115190088D01*
X120347516Y-115146667D01*
X120389032Y-115085191D01*
X120451654Y-115048052D01*
X120506525Y-115040492D01*
X120506525Y-115130776D01*
X120476640Y-115141401D01*
X120471145Y-115145785D01*
X120444029Y-115175302D01*
X120438333Y-115189000D01*
X120452727Y-115214155D01*
X120471145Y-115232215D01*
X120502316Y-115247718D01*
X120533296Y-115229944D01*
X120539181Y-115224224D01*
X120562912Y-115194467D01*
X120554478Y-115169997D01*
X120539181Y-115153777D01*
X120506525Y-115130776D01*
X120506525Y-115040492D01*
X120522615Y-115038275D01*
X120589148Y-115058888D01*
X120617739Y-115082603D01*
X120636947Y-115099395D01*
X120664029Y-115111318D01*
X120706309Y-115119408D01*
X120771111Y-115124701D01*
X120865758Y-115128234D01*
X120954395Y-115130228D01*
X121253250Y-115136084D01*
X121259701Y-115236625D01*
X121266153Y-115337167D01*
X121190910Y-115337167D01*
G37*
X121190910Y-115337167D02*
X121139364Y-115332589D01*
X121118324Y-115314641D01*
X121115666Y-115294834D01*
X121112921Y-115276084D01*
X121099736Y-115263868D01*
X121068691Y-115256796D01*
X121012365Y-115253480D01*
X120923335Y-115252531D01*
X120889489Y-115252500D01*
X120786755Y-115253331D01*
X120717079Y-115256854D01*
X120671201Y-115264613D01*
X120639861Y-115278152D01*
X120614495Y-115298361D01*
X120544732Y-115338563D01*
X120469611Y-115340636D01*
X120400509Y-115305157D01*
X120382067Y-115286598D01*
X120344725Y-115234565D01*
X120336247Y-115190088D01*
X120347516Y-115146667D01*
X120389032Y-115085191D01*
X120451654Y-115048052D01*
X120506525Y-115040492D01*
X120506525Y-115130776D01*
X120476640Y-115141401D01*
X120471145Y-115145785D01*
X120444029Y-115175302D01*
X120438333Y-115189000D01*
X120452727Y-115214155D01*
X120471145Y-115232215D01*
X120502316Y-115247718D01*
X120533296Y-115229944D01*
X120539181Y-115224224D01*
X120562912Y-115194467D01*
X120554478Y-115169997D01*
X120539181Y-115153777D01*
X120506525Y-115130776D01*
X120506525Y-115040492D01*
X120522615Y-115038275D01*
X120589148Y-115058888D01*
X120617739Y-115082603D01*
X120636947Y-115099395D01*
X120664029Y-115111318D01*
X120706309Y-115119408D01*
X120771111Y-115124701D01*
X120865758Y-115128234D01*
X120954395Y-115130228D01*
X121253250Y-115136084D01*
X121259701Y-115236625D01*
X121266153Y-115337167D01*
X121190910Y-115337167D01*
G36*
X123481041Y-117170566D02*
G01*
X123242916Y-117235229D01*
X123209151Y-117339240D01*
X123175386Y-117443250D01*
X123351308Y-117635420D01*
X123527230Y-117827589D01*
X123432181Y-117989961D01*
X123388299Y-118062169D01*
X123351379Y-118117866D01*
X123327076Y-118148737D01*
X123321774Y-118152315D01*
X123296321Y-118147097D01*
X123238854Y-118132945D01*
X123158197Y-118112091D01*
X123073583Y-118089573D01*
X122840750Y-118026850D01*
X122678010Y-118188696D01*
X122742818Y-118429806D01*
X122771414Y-118534673D01*
X122788111Y-118607480D01*
X122789301Y-118657683D01*
X122771376Y-118694735D01*
X122730728Y-118728092D01*
X122663750Y-118767208D01*
X122600677Y-118802285D01*
X122466437Y-118877823D01*
X122283177Y-118698458D01*
X122099916Y-118519094D01*
X121992887Y-118549348D01*
X121885857Y-118579601D01*
X121757189Y-119051917D01*
X121557748Y-119057916D01*
X121358306Y-119063915D01*
X121294137Y-118825083D01*
X121229967Y-118586250D01*
X121125192Y-118552280D01*
X121020416Y-118518310D01*
X120828644Y-118693524D01*
X120636871Y-118868738D01*
X120474102Y-118774399D01*
X120401728Y-118729646D01*
X120346258Y-118689995D01*
X120316007Y-118661636D01*
X120312828Y-118654321D01*
X120318779Y-118624318D01*
X120333719Y-118563140D01*
X120355236Y-118480381D01*
X120375180Y-118406476D01*
X120401631Y-118308756D01*
X120417457Y-118243275D01*
X120423291Y-118201462D01*
X120419769Y-118174748D01*
X120407524Y-118154563D01*
X120394852Y-118140528D01*
X120360965Y-118088128D01*
X120357153Y-118041757D01*
X120384226Y-118012290D01*
X120385273Y-118011876D01*
X120421824Y-118017174D01*
X120470553Y-118046129D01*
X120518777Y-118088137D01*
X120553813Y-118132591D01*
X120563805Y-118161156D01*
X120559134Y-118197985D01*
X120545321Y-118264806D01*
X120524723Y-118350874D01*
X120508345Y-118413799D01*
X120486547Y-118502190D01*
X120472581Y-118573840D01*
X120467924Y-118620015D01*
X120471303Y-118632636D01*
X120501515Y-118647719D01*
X120548825Y-118675574D01*
X120554750Y-118679269D01*
X120618250Y-118719134D01*
X120790216Y-118549972D01*
X120962182Y-118380809D01*
X121138476Y-118425390D01*
X121219965Y-118447362D01*
X121284905Y-118467425D01*
X121322900Y-118482266D01*
X121328053Y-118485777D01*
X121340125Y-118513317D01*
X121358115Y-118568974D01*
X121374855Y-118628584D01*
X121397543Y-118714519D01*
X121419893Y-118799137D01*
X121431463Y-118842918D01*
X121452481Y-118901893D01*
X121481558Y-118931567D01*
X121514795Y-118942301D01*
X121593922Y-118947592D01*
X121646479Y-118923242D01*
X121679222Y-118865714D01*
X121682729Y-118854397D01*
X121700211Y-118794050D01*
X121724287Y-118711262D01*
X121749062Y-118626300D01*
X121793001Y-118475850D01*
X121974354Y-118427114D01*
X122155708Y-118378378D01*
X122328895Y-118550421D01*
X122502083Y-118722465D01*
X122576166Y-118676897D01*
X122624428Y-118646980D01*
X122654830Y-118627700D01*
X122658560Y-118625173D01*
X122656924Y-118603522D01*
X122646224Y-118549334D01*
X122628260Y-118470988D01*
X122606844Y-118384687D01*
X122546817Y-118150356D01*
X122808503Y-117888670D01*
X123042113Y-117949418D01*
X123135100Y-117972786D01*
X123211652Y-117990485D01*
X123263388Y-118000683D01*
X123281859Y-118001875D01*
X123295821Y-117980230D01*
X123323231Y-117936256D01*
X123333563Y-117919500D01*
X123379132Y-117845417D01*
X123207898Y-117673043D01*
X123036664Y-117500670D01*
X123084805Y-117318438D01*
X123132945Y-117136207D01*
X123272598Y-117095101D01*
X123363161Y-117069188D01*
X123454656Y-117044185D01*
X123512791Y-117029151D01*
X123613333Y-117004308D01*
X123613333Y-116806930D01*
X123375566Y-116742110D01*
X123137798Y-116677291D01*
X123112034Y-116588303D01*
X123096251Y-116506110D01*
X123106279Y-116457151D01*
X123142238Y-116441012D01*
X123154946Y-116442006D01*
X123196623Y-116468500D01*
X123217704Y-116513341D01*
X123236558Y-116556146D01*
X123270974Y-116582991D01*
X123334157Y-116604131D01*
X123334828Y-116604308D01*
X123408707Y-116624507D01*
X123500952Y-116650646D01*
X123576291Y-116672573D01*
X123719166Y-116714793D01*
X123719166Y-117105904D01*
X123481041Y-117170566D01*
G37*
X123481041Y-117170566D02*
X123242916Y-117235229D01*
X123209151Y-117339240D01*
X123175386Y-117443250D01*
X123351308Y-117635420D01*
X123527230Y-117827589D01*
X123432181Y-117989961D01*
X123388299Y-118062169D01*
X123351379Y-118117866D01*
X123327076Y-118148737D01*
X123321774Y-118152315D01*
X123296321Y-118147097D01*
X123238854Y-118132945D01*
X123158197Y-118112091D01*
X123073583Y-118089573D01*
X122840750Y-118026850D01*
X122678010Y-118188696D01*
X122742818Y-118429806D01*
X122771414Y-118534673D01*
X122788111Y-118607480D01*
X122789301Y-118657683D01*
X122771376Y-118694735D01*
X122730728Y-118728092D01*
X122663750Y-118767208D01*
X122600677Y-118802285D01*
X122466437Y-118877823D01*
X122283177Y-118698458D01*
X122099916Y-118519094D01*
X121992887Y-118549348D01*
X121885857Y-118579601D01*
X121757189Y-119051917D01*
X121557748Y-119057916D01*
X121358306Y-119063915D01*
X121294137Y-118825083D01*
X121229967Y-118586250D01*
X121125192Y-118552280D01*
X121020416Y-118518310D01*
X120828644Y-118693524D01*
X120636871Y-118868738D01*
X120474102Y-118774399D01*
X120401728Y-118729646D01*
X120346258Y-118689995D01*
X120316007Y-118661636D01*
X120312828Y-118654321D01*
X120318779Y-118624318D01*
X120333719Y-118563140D01*
X120355236Y-118480381D01*
X120375180Y-118406476D01*
X120401631Y-118308756D01*
X120417457Y-118243275D01*
X120423291Y-118201462D01*
X120419769Y-118174748D01*
X120407524Y-118154563D01*
X120394852Y-118140528D01*
X120360965Y-118088128D01*
X120357153Y-118041757D01*
X120384226Y-118012290D01*
X120385273Y-118011876D01*
X120421824Y-118017174D01*
X120470553Y-118046129D01*
X120518777Y-118088137D01*
X120553813Y-118132591D01*
X120563805Y-118161156D01*
X120559134Y-118197985D01*
X120545321Y-118264806D01*
X120524723Y-118350874D01*
X120508345Y-118413799D01*
X120486547Y-118502190D01*
X120472581Y-118573840D01*
X120467924Y-118620015D01*
X120471303Y-118632636D01*
X120501515Y-118647719D01*
X120548825Y-118675574D01*
X120554750Y-118679269D01*
X120618250Y-118719134D01*
X120790216Y-118549972D01*
X120962182Y-118380809D01*
X121138476Y-118425390D01*
X121219965Y-118447362D01*
X121284905Y-118467425D01*
X121322900Y-118482266D01*
X121328053Y-118485777D01*
X121340125Y-118513317D01*
X121358115Y-118568974D01*
X121374855Y-118628584D01*
X121397543Y-118714519D01*
X121419893Y-118799137D01*
X121431463Y-118842918D01*
X121452481Y-118901893D01*
X121481558Y-118931567D01*
X121514795Y-118942301D01*
X121593922Y-118947592D01*
X121646479Y-118923242D01*
X121679222Y-118865714D01*
X121682729Y-118854397D01*
X121700211Y-118794050D01*
X121724287Y-118711262D01*
X121749062Y-118626300D01*
X121793001Y-118475850D01*
X121974354Y-118427114D01*
X122155708Y-118378378D01*
X122328895Y-118550421D01*
X122502083Y-118722465D01*
X122576166Y-118676897D01*
X122624428Y-118646980D01*
X122654830Y-118627700D01*
X122658560Y-118625173D01*
X122656924Y-118603522D01*
X122646224Y-118549334D01*
X122628260Y-118470988D01*
X122606844Y-118384687D01*
X122546817Y-118150356D01*
X122808503Y-117888670D01*
X123042113Y-117949418D01*
X123135100Y-117972786D01*
X123211652Y-117990485D01*
X123263388Y-118000683D01*
X123281859Y-118001875D01*
X123295821Y-117980230D01*
X123323231Y-117936256D01*
X123333563Y-117919500D01*
X123379132Y-117845417D01*
X123207898Y-117673043D01*
X123036664Y-117500670D01*
X123084805Y-117318438D01*
X123132945Y-117136207D01*
X123272598Y-117095101D01*
X123363161Y-117069188D01*
X123454656Y-117044185D01*
X123512791Y-117029151D01*
X123613333Y-117004308D01*
X123613333Y-116806930D01*
X123375566Y-116742110D01*
X123137798Y-116677291D01*
X123112034Y-116588303D01*
X123096251Y-116506110D01*
X123106279Y-116457151D01*
X123142238Y-116441012D01*
X123154946Y-116442006D01*
X123196623Y-116468500D01*
X123217704Y-116513341D01*
X123236558Y-116556146D01*
X123270974Y-116582991D01*
X123334157Y-116604131D01*
X123334828Y-116604308D01*
X123408707Y-116624507D01*
X123500952Y-116650646D01*
X123576291Y-116672573D01*
X123719166Y-116714793D01*
X123719166Y-117105904D01*
X123481041Y-117170566D01*
G36*
X122851312Y-124817756D02*
G01*
X122851243Y-125325105D01*
X122851115Y-125793215D01*
X122850919Y-126223634D01*
X122850645Y-126617909D01*
X122850282Y-126977587D01*
X122849823Y-127304215D01*
X122849255Y-127599340D01*
X122848570Y-127864511D01*
X122847758Y-128101274D01*
X122846809Y-128311176D01*
X122845712Y-128495766D01*
X122844459Y-128656589D01*
X122843039Y-128795193D01*
X122841442Y-128913126D01*
X122839659Y-129011936D01*
X122837680Y-129093168D01*
X122835494Y-129158370D01*
X122833093Y-129209091D01*
X122830466Y-129246876D01*
X122827603Y-129273274D01*
X122824495Y-129289831D01*
X122821131Y-129298096D01*
X122819314Y-129299616D01*
X122777562Y-129297801D01*
X122755814Y-129285776D01*
X122752353Y-129279298D01*
X122749151Y-129264795D01*
X122746198Y-129240715D01*
X122743484Y-129205508D01*
X122740998Y-129157624D01*
X122738733Y-129095513D01*
X122736677Y-129017623D01*
X122734821Y-128922405D01*
X122733156Y-128808307D01*
X122731670Y-128673780D01*
X122730356Y-128517273D01*
X122729202Y-128337236D01*
X122728199Y-128132117D01*
X122727338Y-127900367D01*
X122726608Y-127640435D01*
X122726000Y-127350770D01*
X122725504Y-127029823D01*
X122725110Y-126676042D01*
X122724809Y-126287877D01*
X122724590Y-125863778D01*
X122724445Y-125402194D01*
X122724362Y-124901575D01*
X122724334Y-124360370D01*
X122724333Y-124288619D01*
X122724333Y-119317587D01*
X122851333Y-119251913D01*
X122851333Y-124269621D01*
X122851312Y-124817756D01*
G37*
X122851312Y-124817756D02*
X122851243Y-125325105D01*
X122851115Y-125793215D01*
X122850919Y-126223634D01*
X122850645Y-126617909D01*
X122850282Y-126977587D01*
X122849823Y-127304215D01*
X122849255Y-127599340D01*
X122848570Y-127864511D01*
X122847758Y-128101274D01*
X122846809Y-128311176D01*
X122845712Y-128495766D01*
X122844459Y-128656589D01*
X122843039Y-128795193D01*
X122841442Y-128913126D01*
X122839659Y-129011936D01*
X122837680Y-129093168D01*
X122835494Y-129158370D01*
X122833093Y-129209091D01*
X122830466Y-129246876D01*
X122827603Y-129273274D01*
X122824495Y-129289831D01*
X122821131Y-129298096D01*
X122819314Y-129299616D01*
X122777562Y-129297801D01*
X122755814Y-129285776D01*
X122752353Y-129279298D01*
X122749151Y-129264795D01*
X122746198Y-129240715D01*
X122743484Y-129205508D01*
X122740998Y-129157624D01*
X122738733Y-129095513D01*
X122736677Y-129017623D01*
X122734821Y-128922405D01*
X122733156Y-128808307D01*
X122731670Y-128673780D01*
X122730356Y-128517273D01*
X122729202Y-128337236D01*
X122728199Y-128132117D01*
X122727338Y-127900367D01*
X122726608Y-127640435D01*
X122726000Y-127350770D01*
X122725504Y-127029823D01*
X122725110Y-126676042D01*
X122724809Y-126287877D01*
X122724590Y-125863778D01*
X122724445Y-125402194D01*
X122724362Y-124901575D01*
X122724334Y-124360370D01*
X122724333Y-124288619D01*
X122724333Y-119317587D01*
X122851333Y-119251913D01*
X122851333Y-124269621D01*
X122851312Y-124817756D01*
G36*
X122020698Y-127898577D02*
G01*
X122001215Y-127928124D01*
X121961272Y-127963848D01*
X121894752Y-128011613D01*
X121837890Y-128049577D01*
X121649947Y-128173268D01*
X121820439Y-128290426D01*
X121912544Y-128355517D01*
X121973598Y-128404659D01*
X122008651Y-128444011D01*
X122022754Y-128479732D01*
X122020957Y-128517982D01*
X122017963Y-128531307D01*
X122000355Y-128569601D01*
X121969514Y-128585615D01*
X121921491Y-128578186D01*
X121852335Y-128546146D01*
X121758097Y-128488332D01*
X121670748Y-128428870D01*
X121443750Y-128270240D01*
X121283941Y-128270120D01*
X121193816Y-128266622D01*
X121128541Y-128257119D01*
X121098733Y-128244600D01*
X121080265Y-128205884D01*
X121073491Y-128152150D01*
X121080082Y-128105748D01*
X121087444Y-128093611D01*
X121114031Y-128086843D01*
X121171422Y-128081847D01*
X121248093Y-128079554D01*
X121262211Y-128079500D01*
X121422866Y-128079500D01*
X121660437Y-127920750D01*
X121751046Y-127862038D01*
X121831747Y-127813135D01*
X121894802Y-127778491D01*
X121932472Y-127762554D01*
X121936521Y-127762000D01*
X121990577Y-127780021D01*
X122021031Y-127829909D01*
X122025833Y-127869343D01*
X122020698Y-127898577D01*
G37*
X122020698Y-127898577D02*
X122001215Y-127928124D01*
X121961272Y-127963848D01*
X121894752Y-128011613D01*
X121837890Y-128049577D01*
X121649947Y-128173268D01*
X121820439Y-128290426D01*
X121912544Y-128355517D01*
X121973598Y-128404659D01*
X122008651Y-128444011D01*
X122022754Y-128479732D01*
X122020957Y-128517982D01*
X122017963Y-128531307D01*
X122000355Y-128569601D01*
X121969514Y-128585615D01*
X121921491Y-128578186D01*
X121852335Y-128546146D01*
X121758097Y-128488332D01*
X121670748Y-128428870D01*
X121443750Y-128270240D01*
X121283941Y-128270120D01*
X121193816Y-128266622D01*
X121128541Y-128257119D01*
X121098733Y-128244600D01*
X121080265Y-128205884D01*
X121073491Y-128152150D01*
X121080082Y-128105748D01*
X121087444Y-128093611D01*
X121114031Y-128086843D01*
X121171422Y-128081847D01*
X121248093Y-128079554D01*
X121262211Y-128079500D01*
X121422866Y-128079500D01*
X121660437Y-127920750D01*
X121751046Y-127862038D01*
X121831747Y-127813135D01*
X121894802Y-127778491D01*
X121932472Y-127762554D01*
X121936521Y-127762000D01*
X121990577Y-127780021D01*
X122021031Y-127829909D01*
X122025833Y-127869343D01*
X122020698Y-127898577D01*
G36*
X122022844Y-127170635D02*
G01*
X122010209Y-127195057D01*
X121982429Y-127212138D01*
X121934003Y-127223166D01*
X121859431Y-127229432D01*
X121753212Y-127232224D01*
X121619433Y-127232834D01*
X121263833Y-127232834D01*
X121263833Y-127440267D01*
X121261681Y-127550306D01*
X121253628Y-127624653D01*
X121237279Y-127669803D01*
X121210236Y-127692252D01*
X121170105Y-127698495D01*
X121168583Y-127698500D01*
X121120009Y-127687037D01*
X121098733Y-127673100D01*
X121087666Y-127641100D01*
X121079581Y-127576895D01*
X121074476Y-127490511D01*
X121072352Y-127391973D01*
X121073209Y-127291304D01*
X121077046Y-127198528D01*
X121083865Y-127123672D01*
X121093665Y-127076758D01*
X121098733Y-127067734D01*
X121123916Y-127058065D01*
X121179552Y-127050860D01*
X121268641Y-127045950D01*
X121394181Y-127043165D01*
X121549583Y-127042334D01*
X121703551Y-127042806D01*
X121820304Y-127044905D01*
X121904956Y-127049654D01*
X121962623Y-127058075D01*
X121998417Y-127071192D01*
X122017454Y-127090027D01*
X122024847Y-127115603D01*
X122025833Y-127137584D01*
X122022844Y-127170635D01*
G37*
X122022844Y-127170635D02*
X122010209Y-127195057D01*
X121982429Y-127212138D01*
X121934003Y-127223166D01*
X121859431Y-127229432D01*
X121753212Y-127232224D01*
X121619433Y-127232834D01*
X121263833Y-127232834D01*
X121263833Y-127440267D01*
X121261681Y-127550306D01*
X121253628Y-127624653D01*
X121237279Y-127669803D01*
X121210236Y-127692252D01*
X121170105Y-127698495D01*
X121168583Y-127698500D01*
X121120009Y-127687037D01*
X121098733Y-127673100D01*
X121087666Y-127641100D01*
X121079581Y-127576895D01*
X121074476Y-127490511D01*
X121072352Y-127391973D01*
X121073209Y-127291304D01*
X121077046Y-127198528D01*
X121083865Y-127123672D01*
X121093665Y-127076758D01*
X121098733Y-127067734D01*
X121123916Y-127058065D01*
X121179552Y-127050860D01*
X121268641Y-127045950D01*
X121394181Y-127043165D01*
X121549583Y-127042334D01*
X121703551Y-127042806D01*
X121820304Y-127044905D01*
X121904956Y-127049654D01*
X121962623Y-127058075D01*
X121998417Y-127071192D01*
X122017454Y-127090027D01*
X122024847Y-127115603D01*
X122025833Y-127137584D01*
X122022844Y-127170635D01*
G36*
X122046535Y-125035400D02*
G01*
X122038618Y-125186424D01*
X122013776Y-125302568D01*
X121969166Y-125388874D01*
X121901948Y-125450387D01*
X121809279Y-125492147D01*
X121785164Y-125499192D01*
X121672757Y-125510108D01*
X121564021Y-125485977D01*
X121468702Y-125431486D01*
X121396545Y-125351324D01*
X121371013Y-125299997D01*
X121359398Y-125248072D01*
X121351269Y-125171259D01*
X121348500Y-125093622D01*
X121348500Y-124946834D01*
X121236316Y-124946834D01*
X121149475Y-124939898D01*
X121097576Y-124916986D01*
X121075217Y-124874940D01*
X121073333Y-124851584D01*
X121084796Y-124803010D01*
X121098733Y-124781734D01*
X121123468Y-124772230D01*
X121178200Y-124765105D01*
X121265959Y-124760191D01*
X121389776Y-124757323D01*
X121552681Y-124756337D01*
X121563655Y-124756334D01*
X121718912Y-124756063D01*
X121836935Y-124757204D01*
X121856500Y-124758453D01*
X121856500Y-124946834D01*
X121539000Y-124946834D01*
X121539000Y-125084417D01*
X121542008Y-125167497D01*
X121552991Y-125221026D01*
X121574886Y-125257488D01*
X121581333Y-125264334D01*
X121641478Y-125298441D01*
X121696214Y-125306667D01*
X121771443Y-125289829D01*
X121822807Y-125238918D01*
X121850709Y-125153337D01*
X121856500Y-125070979D01*
X121856500Y-124946834D01*
X121856500Y-124758453D01*
X121922794Y-124762688D01*
X121981562Y-124775447D01*
X122018310Y-124798411D01*
X122038109Y-124834510D01*
X122046032Y-124886677D01*
X122047148Y-124957841D01*
X122046535Y-125035400D01*
G37*
X122046535Y-125035400D02*
X122038618Y-125186424D01*
X122013776Y-125302568D01*
X121969166Y-125388874D01*
X121901948Y-125450387D01*
X121809279Y-125492147D01*
X121785164Y-125499192D01*
X121672757Y-125510108D01*
X121564021Y-125485977D01*
X121468702Y-125431486D01*
X121396545Y-125351324D01*
X121371013Y-125299997D01*
X121359398Y-125248072D01*
X121351269Y-125171259D01*
X121348500Y-125093622D01*
X121348500Y-124946834D01*
X121236316Y-124946834D01*
X121149475Y-124939898D01*
X121097576Y-124916986D01*
X121075217Y-124874940D01*
X121073333Y-124851584D01*
X121084796Y-124803010D01*
X121098733Y-124781734D01*
X121123468Y-124772230D01*
X121178200Y-124765105D01*
X121265959Y-124760191D01*
X121389776Y-124757323D01*
X121552681Y-124756337D01*
X121563655Y-124756334D01*
X121718912Y-124756063D01*
X121836935Y-124757204D01*
X121856500Y-124758453D01*
X121856500Y-124946834D01*
X121539000Y-124946834D01*
X121539000Y-125084417D01*
X121542008Y-125167497D01*
X121552991Y-125221026D01*
X121574886Y-125257488D01*
X121581333Y-125264334D01*
X121641478Y-125298441D01*
X121696214Y-125306667D01*
X121771443Y-125289829D01*
X121822807Y-125238918D01*
X121850709Y-125153337D01*
X121856500Y-125070979D01*
X121856500Y-124946834D01*
X121856500Y-124758453D01*
X121922794Y-124762688D01*
X121981562Y-124775447D01*
X122018310Y-124798411D01*
X122038109Y-124834510D01*
X122046032Y-124886677D01*
X122047148Y-124957841D01*
X122046535Y-125035400D01*
G36*
X122017246Y-122874230D02*
G01*
X122004444Y-122947543D01*
X121982158Y-123001327D01*
X121948683Y-123043111D01*
X121924864Y-123063718D01*
X121861088Y-123092934D01*
X121777437Y-123105265D01*
X121693368Y-123099478D01*
X121640338Y-123081761D01*
X121602555Y-123069533D01*
X121579219Y-123088822D01*
X121577177Y-123092345D01*
X121531742Y-123137426D01*
X121459558Y-123171941D01*
X121376040Y-123189126D01*
X121354843Y-123189921D01*
X121257879Y-123171586D01*
X121172842Y-123122138D01*
X121112474Y-123049621D01*
X121103809Y-123031467D01*
X121090202Y-122977964D01*
X121080287Y-122897768D01*
X121074085Y-122800437D01*
X121071614Y-122695529D01*
X121072894Y-122592601D01*
X121077946Y-122501211D01*
X121086788Y-122430917D01*
X121099440Y-122391278D01*
X121102487Y-122387821D01*
X121131069Y-122378804D01*
X121193165Y-122372579D01*
X121291050Y-122369057D01*
X121426998Y-122368148D01*
X121475500Y-122368547D01*
X121475500Y-122555000D01*
X121263833Y-122555000D01*
X121263833Y-122741267D01*
X121266882Y-122844436D01*
X121275574Y-122916888D01*
X121289224Y-122952924D01*
X121289233Y-122952934D01*
X121328813Y-122972492D01*
X121369666Y-122978334D01*
X121416273Y-122972734D01*
X121447111Y-122951385D01*
X121465225Y-122907467D01*
X121473662Y-122834154D01*
X121475500Y-122741267D01*
X121475500Y-122555000D01*
X121475500Y-122368547D01*
X121573446Y-122369354D01*
X121835333Y-122372750D01*
X121835333Y-122555000D01*
X121666000Y-122555000D01*
X121666000Y-122711158D01*
X121669209Y-122805137D01*
X121679608Y-122863903D01*
X121697475Y-122893439D01*
X121743223Y-122909250D01*
X121782142Y-122906211D01*
X121808596Y-122897291D01*
X121824411Y-122880700D01*
X121832317Y-122847083D01*
X121835044Y-122787081D01*
X121835333Y-122723930D01*
X121835333Y-122555000D01*
X121835333Y-122372750D01*
X122015250Y-122375084D01*
X122021229Y-122638914D01*
X122022272Y-122773863D01*
X122017246Y-122874230D01*
G37*
X122017246Y-122874230D02*
X122004444Y-122947543D01*
X121982158Y-123001327D01*
X121948683Y-123043111D01*
X121924864Y-123063718D01*
X121861088Y-123092934D01*
X121777437Y-123105265D01*
X121693368Y-123099478D01*
X121640338Y-123081761D01*
X121602555Y-123069533D01*
X121579219Y-123088822D01*
X121577177Y-123092345D01*
X121531742Y-123137426D01*
X121459558Y-123171941D01*
X121376040Y-123189126D01*
X121354843Y-123189921D01*
X121257879Y-123171586D01*
X121172842Y-123122138D01*
X121112474Y-123049621D01*
X121103809Y-123031467D01*
X121090202Y-122977964D01*
X121080287Y-122897768D01*
X121074085Y-122800437D01*
X121071614Y-122695529D01*
X121072894Y-122592601D01*
X121077946Y-122501211D01*
X121086788Y-122430917D01*
X121099440Y-122391278D01*
X121102487Y-122387821D01*
X121131069Y-122378804D01*
X121193165Y-122372579D01*
X121291050Y-122369057D01*
X121426998Y-122368148D01*
X121475500Y-122368547D01*
X121475500Y-122555000D01*
X121263833Y-122555000D01*
X121263833Y-122741267D01*
X121266882Y-122844436D01*
X121275574Y-122916888D01*
X121289224Y-122952924D01*
X121289233Y-122952934D01*
X121328813Y-122972492D01*
X121369666Y-122978334D01*
X121416273Y-122972734D01*
X121447111Y-122951385D01*
X121465225Y-122907467D01*
X121473662Y-122834154D01*
X121475500Y-122741267D01*
X121475500Y-122555000D01*
X121475500Y-122368547D01*
X121573446Y-122369354D01*
X121835333Y-122372750D01*
X121835333Y-122555000D01*
X121666000Y-122555000D01*
X121666000Y-122711158D01*
X121669209Y-122805137D01*
X121679608Y-122863903D01*
X121697475Y-122893439D01*
X121743223Y-122909250D01*
X121782142Y-122906211D01*
X121808596Y-122897291D01*
X121824411Y-122880700D01*
X121832317Y-122847083D01*
X121835044Y-122787081D01*
X121835333Y-122723930D01*
X121835333Y-122555000D01*
X121835333Y-122372750D01*
X122015250Y-122375084D01*
X122021229Y-122638914D01*
X122022272Y-122773863D01*
X122017246Y-122874230D01*
G36*
X122014903Y-120452437D02*
G01*
X122013051Y-120534372D01*
X122008473Y-120589920D01*
X121999951Y-120627051D01*
X121986265Y-120653740D01*
X121966196Y-120677957D01*
X121962333Y-120682111D01*
X121876079Y-120754844D01*
X121783692Y-120790014D01*
X121679682Y-120792665D01*
X121605093Y-120779790D01*
X121551300Y-120751999D01*
X121505553Y-120708443D01*
X121437731Y-120634436D01*
X121319295Y-120728391D01*
X121232549Y-120788370D01*
X121165923Y-120813519D01*
X121116383Y-120804451D01*
X121088253Y-120774985D01*
X121073325Y-120726305D01*
X121090652Y-120674529D01*
X121142619Y-120616146D01*
X121231612Y-120547647D01*
X121252328Y-120533584D01*
X121410629Y-120427750D01*
X121411314Y-120327209D01*
X121412000Y-120226667D01*
X121268066Y-120226667D01*
X121185852Y-120222954D01*
X121124865Y-120212967D01*
X121098733Y-120201267D01*
X121076125Y-120153791D01*
X121079072Y-120097790D01*
X121102487Y-120059488D01*
X121131069Y-120050471D01*
X121193165Y-120044246D01*
X121291050Y-120040723D01*
X121426998Y-120039815D01*
X121573446Y-120041021D01*
X121835333Y-120044416D01*
X121835333Y-120226667D01*
X121581333Y-120226667D01*
X121581333Y-120374834D01*
X121583805Y-120460008D01*
X121592986Y-120514959D01*
X121611525Y-120551601D01*
X121623666Y-120565334D01*
X121683258Y-120600707D01*
X121748617Y-120603287D01*
X121802071Y-120574405D01*
X121821440Y-120539850D01*
X121832066Y-120479305D01*
X121835333Y-120384842D01*
X121835333Y-120226667D01*
X121835333Y-120044416D01*
X122015250Y-120046750D01*
X122015250Y-120336142D01*
X122014903Y-120452437D01*
G37*
X122014903Y-120452437D02*
X122013051Y-120534372D01*
X122008473Y-120589920D01*
X121999951Y-120627051D01*
X121986265Y-120653740D01*
X121966196Y-120677957D01*
X121962333Y-120682111D01*
X121876079Y-120754844D01*
X121783692Y-120790014D01*
X121679682Y-120792665D01*
X121605093Y-120779790D01*
X121551300Y-120751999D01*
X121505553Y-120708443D01*
X121437731Y-120634436D01*
X121319295Y-120728391D01*
X121232549Y-120788370D01*
X121165923Y-120813519D01*
X121116383Y-120804451D01*
X121088253Y-120774985D01*
X121073325Y-120726305D01*
X121090652Y-120674529D01*
X121142619Y-120616146D01*
X121231612Y-120547647D01*
X121252328Y-120533584D01*
X121410629Y-120427750D01*
X121411314Y-120327209D01*
X121412000Y-120226667D01*
X121268066Y-120226667D01*
X121185852Y-120222954D01*
X121124865Y-120212967D01*
X121098733Y-120201267D01*
X121076125Y-120153791D01*
X121079072Y-120097790D01*
X121102487Y-120059488D01*
X121131069Y-120050471D01*
X121193165Y-120044246D01*
X121291050Y-120040723D01*
X121426998Y-120039815D01*
X121573446Y-120041021D01*
X121835333Y-120044416D01*
X121835333Y-120226667D01*
X121581333Y-120226667D01*
X121581333Y-120374834D01*
X121583805Y-120460008D01*
X121592986Y-120514959D01*
X121611525Y-120551601D01*
X121623666Y-120565334D01*
X121683258Y-120600707D01*
X121748617Y-120603287D01*
X121802071Y-120574405D01*
X121821440Y-120539850D01*
X121832066Y-120479305D01*
X121835333Y-120384842D01*
X121835333Y-120226667D01*
X121835333Y-120044416D01*
X122015250Y-120046750D01*
X122015250Y-120336142D01*
X122014903Y-120452437D01*
G36*
X122036694Y-126406497D02*
G01*
X121973567Y-126535477D01*
X121882826Y-126637365D01*
X121771176Y-126709849D01*
X121645326Y-126750617D01*
X121511982Y-126757360D01*
X121377851Y-126727766D01*
X121267223Y-126671647D01*
X121184128Y-126593547D01*
X121118956Y-126487120D01*
X121075553Y-126363964D01*
X121057769Y-126235678D01*
X121069453Y-126113860D01*
X121075176Y-126092876D01*
X121135527Y-125961540D01*
X121225927Y-125857564D01*
X121342086Y-125784869D01*
X121447709Y-125752423D01*
X121532131Y-125747204D01*
X121532131Y-125947992D01*
X121422277Y-125974020D01*
X121337877Y-126032630D01*
X121281855Y-126111351D01*
X121246847Y-126214669D01*
X121253968Y-126317411D01*
X121281859Y-126386497D01*
X121348049Y-126473840D01*
X121431010Y-126528874D01*
X121523262Y-126553372D01*
X121617329Y-126549108D01*
X121705731Y-126517854D01*
X121780992Y-126461383D01*
X121835633Y-126381468D01*
X121862176Y-126279882D01*
X121863555Y-126248584D01*
X121844817Y-126137500D01*
X121792507Y-126047137D01*
X121712484Y-125982808D01*
X121610607Y-125949828D01*
X121532131Y-125947992D01*
X121532131Y-125747204D01*
X121594050Y-125743376D01*
X121728146Y-125770307D01*
X121845663Y-125828400D01*
X121942263Y-125912842D01*
X122013613Y-126018819D01*
X122055378Y-126141515D01*
X122063221Y-126276117D01*
X122036694Y-126406497D01*
G37*
X122036694Y-126406497D02*
X121973567Y-126535477D01*
X121882826Y-126637365D01*
X121771176Y-126709849D01*
X121645326Y-126750617D01*
X121511982Y-126757360D01*
X121377851Y-126727766D01*
X121267223Y-126671647D01*
X121184128Y-126593547D01*
X121118956Y-126487120D01*
X121075553Y-126363964D01*
X121057769Y-126235678D01*
X121069453Y-126113860D01*
X121075176Y-126092876D01*
X121135527Y-125961540D01*
X121225927Y-125857564D01*
X121342086Y-125784869D01*
X121447709Y-125752423D01*
X121532131Y-125747204D01*
X121532131Y-125947992D01*
X121422277Y-125974020D01*
X121337877Y-126032630D01*
X121281855Y-126111351D01*
X121246847Y-126214669D01*
X121253968Y-126317411D01*
X121281859Y-126386497D01*
X121348049Y-126473840D01*
X121431010Y-126528874D01*
X121523262Y-126553372D01*
X121617329Y-126549108D01*
X121705731Y-126517854D01*
X121780992Y-126461383D01*
X121835633Y-126381468D01*
X121862176Y-126279882D01*
X121863555Y-126248584D01*
X121844817Y-126137500D01*
X121792507Y-126047137D01*
X121712484Y-125982808D01*
X121610607Y-125949828D01*
X121532131Y-125947992D01*
X121532131Y-125747204D01*
X121594050Y-125743376D01*
X121728146Y-125770307D01*
X121845663Y-125828400D01*
X121942263Y-125912842D01*
X122013613Y-126018819D01*
X122055378Y-126141515D01*
X122063221Y-126276117D01*
X122036694Y-126406497D01*
G36*
X122056245Y-124029749D02*
G01*
X122022906Y-124151991D01*
X121960390Y-124262998D01*
X121868663Y-124355752D01*
X121790782Y-124404224D01*
X121656709Y-124450354D01*
X121521716Y-124459636D01*
X121392586Y-124434778D01*
X121276101Y-124378489D01*
X121179041Y-124293478D01*
X121108188Y-124182451D01*
X121086083Y-124122783D01*
X121060151Y-124013346D01*
X121056003Y-123920298D01*
X121074053Y-123823483D01*
X121093534Y-123761500D01*
X121155559Y-123641009D01*
X121246002Y-123546825D01*
X121358251Y-123481487D01*
X121485694Y-123447533D01*
X121534179Y-123447522D01*
X121534179Y-123645949D01*
X121433538Y-123673565D01*
X121346775Y-123731279D01*
X121282037Y-123813007D01*
X121247470Y-123912667D01*
X121244008Y-123950609D01*
X121252329Y-124000964D01*
X121274841Y-124066677D01*
X121286272Y-124092212D01*
X121349600Y-124179445D01*
X121434855Y-124236054D01*
X121533035Y-124260319D01*
X121635135Y-124250521D01*
X121732155Y-124204939D01*
X121760365Y-124182771D01*
X121826205Y-124100076D01*
X121858107Y-124004505D01*
X121858086Y-123904941D01*
X121828155Y-123810265D01*
X121770331Y-123729359D01*
X121686626Y-123671106D01*
X121640550Y-123654513D01*
X121534179Y-123645949D01*
X121534179Y-123447522D01*
X121621718Y-123447500D01*
X121759713Y-123483925D01*
X121786447Y-123495565D01*
X121898494Y-123568743D01*
X121981530Y-123665767D01*
X122035523Y-123779620D01*
X122060439Y-123903286D01*
X122056245Y-124029749D01*
G37*
X122056245Y-124029749D02*
X122022906Y-124151991D01*
X121960390Y-124262998D01*
X121868663Y-124355752D01*
X121790782Y-124404224D01*
X121656709Y-124450354D01*
X121521716Y-124459636D01*
X121392586Y-124434778D01*
X121276101Y-124378489D01*
X121179041Y-124293478D01*
X121108188Y-124182451D01*
X121086083Y-124122783D01*
X121060151Y-124013346D01*
X121056003Y-123920298D01*
X121074053Y-123823483D01*
X121093534Y-123761500D01*
X121155559Y-123641009D01*
X121246002Y-123546825D01*
X121358251Y-123481487D01*
X121485694Y-123447533D01*
X121534179Y-123447522D01*
X121534179Y-123645949D01*
X121433538Y-123673565D01*
X121346775Y-123731279D01*
X121282037Y-123813007D01*
X121247470Y-123912667D01*
X121244008Y-123950609D01*
X121252329Y-124000964D01*
X121274841Y-124066677D01*
X121286272Y-124092212D01*
X121349600Y-124179445D01*
X121434855Y-124236054D01*
X121533035Y-124260319D01*
X121635135Y-124250521D01*
X121732155Y-124204939D01*
X121760365Y-124182771D01*
X121826205Y-124100076D01*
X121858107Y-124004505D01*
X121858086Y-123904941D01*
X121828155Y-123810265D01*
X121770331Y-123729359D01*
X121686626Y-123671106D01*
X121640550Y-123654513D01*
X121534179Y-123645949D01*
X121534179Y-123447522D01*
X121621718Y-123447500D01*
X121759713Y-123483925D01*
X121786447Y-123495565D01*
X121898494Y-123568743D01*
X121981530Y-123665767D01*
X122035523Y-123779620D01*
X122060439Y-123903286D01*
X122056245Y-124029749D01*
G36*
X122048741Y-121677071D02*
G01*
X121998327Y-121815058D01*
X121916891Y-121926041D01*
X121808162Y-122006782D01*
X121675869Y-122054039D01*
X121603381Y-122064005D01*
X121450787Y-122057453D01*
X121318237Y-122015367D01*
X121208526Y-121939192D01*
X121124444Y-121830371D01*
X121114122Y-121811140D01*
X121078321Y-121707026D01*
X121062028Y-121584603D01*
X121066789Y-121463893D01*
X121082008Y-121395528D01*
X121142983Y-121263538D01*
X121229194Y-121165227D01*
X121341420Y-121100053D01*
X121480440Y-121067475D01*
X121560166Y-121063241D01*
X121581240Y-121063744D01*
X121581240Y-121262037D01*
X121481236Y-121267168D01*
X121390694Y-121304432D01*
X121368485Y-121320992D01*
X121289284Y-121409242D01*
X121251354Y-121506504D01*
X121254483Y-121613748D01*
X121284839Y-121703955D01*
X121322967Y-121769204D01*
X121374860Y-121813210D01*
X121424900Y-121838539D01*
X121533188Y-121867071D01*
X121634719Y-121859275D01*
X121724063Y-121820852D01*
X121795791Y-121757501D01*
X121844476Y-121674923D01*
X121864687Y-121578818D01*
X121850998Y-121474885D01*
X121826995Y-121416342D01*
X121765222Y-121338932D01*
X121679603Y-121286728D01*
X121581240Y-121262037D01*
X121581240Y-121063744D01*
X121650613Y-121065404D01*
X121715673Y-121075090D01*
X121772129Y-121096087D01*
X121819198Y-121121698D01*
X121929024Y-121209471D01*
X122007731Y-121322057D01*
X122052600Y-121452878D01*
X122060910Y-121595354D01*
X122048741Y-121677071D01*
G37*
X122048741Y-121677071D02*
X121998327Y-121815058D01*
X121916891Y-121926041D01*
X121808162Y-122006782D01*
X121675869Y-122054039D01*
X121603381Y-122064005D01*
X121450787Y-122057453D01*
X121318237Y-122015367D01*
X121208526Y-121939192D01*
X121124444Y-121830371D01*
X121114122Y-121811140D01*
X121078321Y-121707026D01*
X121062028Y-121584603D01*
X121066789Y-121463893D01*
X121082008Y-121395528D01*
X121142983Y-121263538D01*
X121229194Y-121165227D01*
X121341420Y-121100053D01*
X121480440Y-121067475D01*
X121560166Y-121063241D01*
X121581240Y-121063744D01*
X121581240Y-121262037D01*
X121481236Y-121267168D01*
X121390694Y-121304432D01*
X121368485Y-121320992D01*
X121289284Y-121409242D01*
X121251354Y-121506504D01*
X121254483Y-121613748D01*
X121284839Y-121703955D01*
X121322967Y-121769204D01*
X121374860Y-121813210D01*
X121424900Y-121838539D01*
X121533188Y-121867071D01*
X121634719Y-121859275D01*
X121724063Y-121820852D01*
X121795791Y-121757501D01*
X121844476Y-121674923D01*
X121864687Y-121578818D01*
X121850998Y-121474885D01*
X121826995Y-121416342D01*
X121765222Y-121338932D01*
X121679603Y-121286728D01*
X121581240Y-121262037D01*
X121581240Y-121063744D01*
X121650613Y-121065404D01*
X121715673Y-121075090D01*
X121772129Y-121096087D01*
X121819198Y-121121698D01*
X121929024Y-121209471D01*
X122007731Y-121322057D01*
X122052600Y-121452878D01*
X122060910Y-121595354D01*
X122048741Y-121677071D01*
G36*
X120395997Y-124841979D02*
G01*
X120395978Y-125342854D01*
X120395931Y-125804591D01*
X120395841Y-126228786D01*
X120395695Y-126617036D01*
X120395481Y-126970940D01*
X120395183Y-127292093D01*
X120394790Y-127582094D01*
X120394286Y-127842539D01*
X120393660Y-128075026D01*
X120392897Y-128281152D01*
X120391983Y-128462514D01*
X120390907Y-128620709D01*
X120389653Y-128757336D01*
X120388208Y-128873990D01*
X120386560Y-128972269D01*
X120384694Y-129053771D01*
X120382597Y-129120092D01*
X120380256Y-129172830D01*
X120377657Y-129213582D01*
X120374787Y-129243945D01*
X120371632Y-129265517D01*
X120368178Y-129279894D01*
X120364413Y-129288675D01*
X120360322Y-129293456D01*
X120355893Y-129295834D01*
X120353856Y-129296523D01*
X120309823Y-129301801D01*
X120290356Y-129296701D01*
X120287674Y-129274073D01*
X120285172Y-129209597D01*
X120282851Y-129103237D01*
X120280710Y-128954961D01*
X120278749Y-128764735D01*
X120276968Y-128532525D01*
X120275367Y-128258298D01*
X120273946Y-127942021D01*
X120272704Y-127583661D01*
X120271642Y-127183182D01*
X120270759Y-126740553D01*
X120270055Y-126255739D01*
X120269530Y-125728708D01*
X120269184Y-125159425D01*
X120269017Y-124547857D01*
X120269000Y-124267707D01*
X120269000Y-119251913D01*
X120396000Y-119317587D01*
X120396000Y-124300367D01*
X120395997Y-124841979D01*
G37*
X120395997Y-124841979D02*
X120395978Y-125342854D01*
X120395931Y-125804591D01*
X120395841Y-126228786D01*
X120395695Y-126617036D01*
X120395481Y-126970940D01*
X120395183Y-127292093D01*
X120394790Y-127582094D01*
X120394286Y-127842539D01*
X120393660Y-128075026D01*
X120392897Y-128281152D01*
X120391983Y-128462514D01*
X120390907Y-128620709D01*
X120389653Y-128757336D01*
X120388208Y-128873990D01*
X120386560Y-128972269D01*
X120384694Y-129053771D01*
X120382597Y-129120092D01*
X120380256Y-129172830D01*
X120377657Y-129213582D01*
X120374787Y-129243945D01*
X120371632Y-129265517D01*
X120368178Y-129279894D01*
X120364413Y-129288675D01*
X120360322Y-129293456D01*
X120355893Y-129295834D01*
X120353856Y-129296523D01*
X120309823Y-129301801D01*
X120290356Y-129296701D01*
X120287674Y-129274073D01*
X120285172Y-129209597D01*
X120282851Y-129103237D01*
X120280710Y-128954961D01*
X120278749Y-128764735D01*
X120276968Y-128532525D01*
X120275367Y-128258298D01*
X120273946Y-127942021D01*
X120272704Y-127583661D01*
X120271642Y-127183182D01*
X120270759Y-126740553D01*
X120270055Y-126255739D01*
X120269530Y-125728708D01*
X120269184Y-125159425D01*
X120269017Y-124547857D01*
X120269000Y-124267707D01*
X120269000Y-119251913D01*
X120396000Y-119317587D01*
X120396000Y-124300367D01*
X120395997Y-124841979D01*
G36*
X123938103Y-117053789D02*
G01*
X123935966Y-117170054D01*
X123931602Y-117260593D01*
X123924353Y-117333707D01*
X123913562Y-117397694D01*
X123898570Y-117460853D01*
X123892850Y-117481989D01*
X123785049Y-117798140D01*
X123644184Y-118088876D01*
X123471721Y-118352748D01*
X123269123Y-118588310D01*
X123037855Y-118794113D01*
X122779380Y-118968710D01*
X122495163Y-119110652D01*
X122186669Y-119218494D01*
X122117695Y-119236989D01*
X122041776Y-119254872D01*
X121970351Y-119267661D01*
X121893951Y-119276130D01*
X121803108Y-119281051D01*
X121688354Y-119283199D01*
X121549583Y-119283377D01*
X121407350Y-119282378D01*
X121297721Y-119279773D01*
X121210972Y-119274609D01*
X121137379Y-119265932D01*
X121067219Y-119252789D01*
X120990766Y-119234225D01*
X120956916Y-119225249D01*
X120656700Y-119123289D01*
X120376009Y-118985449D01*
X120117567Y-118814461D01*
X119884098Y-118613057D01*
X119678324Y-118383970D01*
X119502971Y-118129930D01*
X119360760Y-117853670D01*
X119254416Y-117557923D01*
X119239086Y-117502037D01*
X119208694Y-117351295D01*
X119187295Y-117173760D01*
X119175394Y-116983042D01*
X119173499Y-116792751D01*
X119182115Y-116616498D01*
X119200796Y-116472870D01*
X119277914Y-116173215D01*
X119392033Y-115887487D01*
X119469646Y-115747023D01*
X119469646Y-116035667D01*
X119415227Y-116210292D01*
X119336705Y-116524973D01*
X119308020Y-116713000D01*
X119304387Y-116784769D01*
X119305247Y-116885229D01*
X119309876Y-117001060D01*
X119317551Y-117118944D01*
X119327547Y-117225560D01*
X119339141Y-117307590D01*
X119340795Y-117316080D01*
X119359946Y-117400025D01*
X119384276Y-117493027D01*
X119410438Y-117583713D01*
X119435083Y-117660711D01*
X119454866Y-117712648D01*
X119460936Y-117724278D01*
X119477713Y-117728627D01*
X119515279Y-117717183D01*
X119577196Y-117688253D01*
X119667027Y-117640142D01*
X119788336Y-117571158D01*
X119811967Y-117557453D01*
X119931240Y-117487535D01*
X120018143Y-117434749D01*
X120077308Y-117395656D01*
X120113364Y-117366815D01*
X120130942Y-117344789D01*
X120134671Y-117326136D01*
X120133297Y-117318759D01*
X120091631Y-117095697D01*
X120083185Y-116864409D01*
X120106815Y-116634117D01*
X120161377Y-116414046D01*
X120245729Y-116213418D01*
X120277289Y-116157375D01*
X120350578Y-116035667D01*
X119469646Y-116035667D01*
X119469646Y-115747023D01*
X119540208Y-115619319D01*
X119719497Y-115372342D01*
X119926954Y-115150188D01*
X120159637Y-114956487D01*
X120414602Y-114794872D01*
X120651179Y-114683622D01*
X120795010Y-114628717D01*
X120920753Y-114587657D01*
X121039181Y-114558575D01*
X121161064Y-114539603D01*
X121297174Y-114528874D01*
X121458284Y-114524519D01*
X121495852Y-114524409D01*
X121495852Y-114644495D01*
X121207467Y-114672234D01*
X120923194Y-114738512D01*
X120647981Y-114841633D01*
X120386776Y-114979897D01*
X120144527Y-115151607D01*
X120017574Y-115263084D01*
X119861331Y-115411250D01*
X121192290Y-115421834D01*
X121560166Y-115424759D01*
X121560166Y-115841630D01*
X121347418Y-115861572D01*
X121149759Y-115919679D01*
X120970796Y-116013366D01*
X120814135Y-116140052D01*
X120683384Y-116297154D01*
X120582149Y-116482090D01*
X120550192Y-116564834D01*
X120513123Y-116722359D01*
X120500355Y-116897102D01*
X120511839Y-117072263D01*
X120547527Y-117231040D01*
X120552136Y-117244553D01*
X120642658Y-117442425D01*
X120762958Y-117611886D01*
X120909958Y-117750738D01*
X121080581Y-117856784D01*
X121271750Y-117927825D01*
X121480385Y-117961665D01*
X121560166Y-117964317D01*
X121771242Y-117944636D01*
X121966822Y-117887889D01*
X122143455Y-117797521D01*
X122297689Y-117676976D01*
X122426073Y-117529699D01*
X122525156Y-117359134D01*
X122591486Y-117168726D01*
X122621612Y-116961920D01*
X122623091Y-116903500D01*
X122603346Y-116693061D01*
X122546434Y-116497919D01*
X122455837Y-116321555D01*
X122335038Y-116167446D01*
X122187520Y-116039072D01*
X122016764Y-115939913D01*
X121826255Y-115873448D01*
X121619475Y-115843156D01*
X121560166Y-115841630D01*
X121560166Y-115424759D01*
X122523250Y-115432417D01*
X122642955Y-115488537D01*
X122781317Y-115575225D01*
X122899452Y-115692405D01*
X122981431Y-115819000D01*
X122996325Y-115850547D01*
X123007994Y-115881842D01*
X123016905Y-115918453D01*
X123023523Y-115965948D01*
X123028314Y-116029894D01*
X123031746Y-116115859D01*
X123034285Y-116229410D01*
X123036395Y-116376117D01*
X123037756Y-116491573D01*
X123039244Y-116699322D01*
X123037979Y-116870907D01*
X123033133Y-117012451D01*
X123023878Y-117130078D01*
X123009387Y-117229914D01*
X122988835Y-117318083D01*
X122961393Y-117400709D01*
X122926235Y-117483917D01*
X122894954Y-117549084D01*
X122769587Y-117763155D01*
X122621819Y-117943209D01*
X122447421Y-118093460D01*
X122242164Y-118218125D01*
X122205750Y-118236184D01*
X121973679Y-118325470D01*
X121735120Y-118374422D01*
X121494505Y-118383609D01*
X121256269Y-118353599D01*
X121024844Y-118284957D01*
X120804663Y-118178253D01*
X120600160Y-118034053D01*
X120595390Y-118030060D01*
X120445530Y-117904086D01*
X120114529Y-118094374D01*
X119994296Y-118164269D01*
X119907060Y-118217156D01*
X119848549Y-118256106D01*
X119814493Y-118284188D01*
X119800621Y-118304476D01*
X119802089Y-118319039D01*
X119824406Y-118347348D01*
X119870265Y-118397060D01*
X119932419Y-118460528D01*
X119986616Y-118513761D01*
X120221759Y-118713241D01*
X120473838Y-118875981D01*
X120739355Y-119002031D01*
X121014808Y-119091444D01*
X121296696Y-119144269D01*
X121581519Y-119160558D01*
X121865776Y-119140363D01*
X122145966Y-119083734D01*
X122418588Y-118990722D01*
X122680142Y-118861379D01*
X122927126Y-118695757D01*
X123156040Y-118493905D01*
X123182295Y-118467079D01*
X123380843Y-118231749D01*
X123543650Y-117976822D01*
X123669744Y-117705896D01*
X123758152Y-117422571D01*
X123807903Y-117130443D01*
X123818022Y-116833113D01*
X123787539Y-116534179D01*
X123751051Y-116362188D01*
X123659633Y-116074590D01*
X123536693Y-115812723D01*
X123379110Y-115570927D01*
X123197230Y-115357532D01*
X122967625Y-115144274D01*
X122722653Y-114969908D01*
X122460020Y-114833298D01*
X122177432Y-114733308D01*
X121872596Y-114668800D01*
X121783402Y-114656995D01*
X121495852Y-114644495D01*
X121495852Y-114524409D01*
X121570750Y-114524187D01*
X121720312Y-114525248D01*
X121836077Y-114527940D01*
X121926573Y-114532967D01*
X122000325Y-114541031D01*
X122065861Y-114552834D01*
X122131707Y-114569080D01*
X122138655Y-114570980D01*
X122455753Y-114678791D01*
X122747008Y-114819825D01*
X123011226Y-114992886D01*
X123247210Y-115196779D01*
X123453764Y-115430308D01*
X123629692Y-115692275D01*
X123773797Y-115981487D01*
X123884883Y-116296745D01*
X123892850Y-116325012D01*
X123909306Y-116389637D01*
X123921354Y-116452465D01*
X123929653Y-116521795D01*
X123934858Y-116605926D01*
X123937628Y-116713157D01*
X123938620Y-116851789D01*
X123938669Y-116903500D01*
X123938103Y-117053789D01*
G37*
X123938103Y-117053789D02*
X123935966Y-117170054D01*
X123931602Y-117260593D01*
X123924353Y-117333707D01*
X123913562Y-117397694D01*
X123898570Y-117460853D01*
X123892850Y-117481989D01*
X123785049Y-117798140D01*
X123644184Y-118088876D01*
X123471721Y-118352748D01*
X123269123Y-118588310D01*
X123037855Y-118794113D01*
X122779380Y-118968710D01*
X122495163Y-119110652D01*
X122186669Y-119218494D01*
X122117695Y-119236989D01*
X122041776Y-119254872D01*
X121970351Y-119267661D01*
X121893951Y-119276130D01*
X121803108Y-119281051D01*
X121688354Y-119283199D01*
X121549583Y-119283377D01*
X121407350Y-119282378D01*
X121297721Y-119279773D01*
X121210972Y-119274609D01*
X121137379Y-119265932D01*
X121067219Y-119252789D01*
X120990766Y-119234225D01*
X120956916Y-119225249D01*
X120656700Y-119123289D01*
X120376009Y-118985449D01*
X120117567Y-118814461D01*
X119884098Y-118613057D01*
X119678324Y-118383970D01*
X119502971Y-118129930D01*
X119360760Y-117853670D01*
X119254416Y-117557923D01*
X119239086Y-117502037D01*
X119208694Y-117351295D01*
X119187295Y-117173760D01*
X119175394Y-116983042D01*
X119173499Y-116792751D01*
X119182115Y-116616498D01*
X119200796Y-116472870D01*
X119277914Y-116173215D01*
X119392033Y-115887487D01*
X119469646Y-115747023D01*
X119469646Y-116035667D01*
X119415227Y-116210292D01*
X119336705Y-116524973D01*
X119308020Y-116713000D01*
X119304387Y-116784769D01*
X119305247Y-116885229D01*
X119309876Y-117001060D01*
X119317551Y-117118944D01*
X119327547Y-117225560D01*
X119339141Y-117307590D01*
X119340795Y-117316080D01*
X119359946Y-117400025D01*
X119384276Y-117493027D01*
X119410438Y-117583713D01*
X119435083Y-117660711D01*
X119454866Y-117712648D01*
X119460936Y-117724278D01*
X119477713Y-117728627D01*
X119515279Y-117717183D01*
X119577196Y-117688253D01*
X119667027Y-117640142D01*
X119788336Y-117571158D01*
X119811967Y-117557453D01*
X119931240Y-117487535D01*
X120018143Y-117434749D01*
X120077308Y-117395656D01*
X120113364Y-117366815D01*
X120130942Y-117344789D01*
X120134671Y-117326136D01*
X120133297Y-117318759D01*
X120091631Y-117095697D01*
X120083185Y-116864409D01*
X120106815Y-116634117D01*
X120161377Y-116414046D01*
X120245729Y-116213418D01*
X120277289Y-116157375D01*
X120350578Y-116035667D01*
X119469646Y-116035667D01*
X119469646Y-115747023D01*
X119540208Y-115619319D01*
X119719497Y-115372342D01*
X119926954Y-115150188D01*
X120159637Y-114956487D01*
X120414602Y-114794872D01*
X120651179Y-114683622D01*
X120795010Y-114628717D01*
X120920753Y-114587657D01*
X121039181Y-114558575D01*
X121161064Y-114539603D01*
X121297174Y-114528874D01*
X121458284Y-114524519D01*
X121495852Y-114524409D01*
X121495852Y-114644495D01*
X121207467Y-114672234D01*
X120923194Y-114738512D01*
X120647981Y-114841633D01*
X120386776Y-114979897D01*
X120144527Y-115151607D01*
X120017574Y-115263084D01*
X119861331Y-115411250D01*
X121192290Y-115421834D01*
X121560166Y-115424759D01*
X121560166Y-115841630D01*
X121347418Y-115861572D01*
X121149759Y-115919679D01*
X120970796Y-116013366D01*
X120814135Y-116140052D01*
X120683384Y-116297154D01*
X120582149Y-116482090D01*
X120550192Y-116564834D01*
X120513123Y-116722359D01*
X120500355Y-116897102D01*
X120511839Y-117072263D01*
X120547527Y-117231040D01*
X120552136Y-117244553D01*
X120642658Y-117442425D01*
X120762958Y-117611886D01*
X120909958Y-117750738D01*
X121080581Y-117856784D01*
X121271750Y-117927825D01*
X121480385Y-117961665D01*
X121560166Y-117964317D01*
X121771242Y-117944636D01*
X121966822Y-117887889D01*
X122143455Y-117797521D01*
X122297689Y-117676976D01*
X122426073Y-117529699D01*
X122525156Y-117359134D01*
X122591486Y-117168726D01*
X122621612Y-116961920D01*
X122623091Y-116903500D01*
X122603346Y-116693061D01*
X122546434Y-116497919D01*
X122455837Y-116321555D01*
X122335038Y-116167446D01*
X122187520Y-116039072D01*
X122016764Y-115939913D01*
X121826255Y-115873448D01*
X121619475Y-115843156D01*
X121560166Y-115841630D01*
X121560166Y-115424759D01*
X122523250Y-115432417D01*
X122642955Y-115488537D01*
X122781317Y-115575225D01*
X122899452Y-115692405D01*
X122981431Y-115819000D01*
X122996325Y-115850547D01*
X123007994Y-115881842D01*
X123016905Y-115918453D01*
X123023523Y-115965948D01*
X123028314Y-116029894D01*
X123031746Y-116115859D01*
X123034285Y-116229410D01*
X123036395Y-116376117D01*
X123037756Y-116491573D01*
X123039244Y-116699322D01*
X123037979Y-116870907D01*
X123033133Y-117012451D01*
X123023878Y-117130078D01*
X123009387Y-117229914D01*
X122988835Y-117318083D01*
X122961393Y-117400709D01*
X122926235Y-117483917D01*
X122894954Y-117549084D01*
X122769587Y-117763155D01*
X122621819Y-117943209D01*
X122447421Y-118093460D01*
X122242164Y-118218125D01*
X122205750Y-118236184D01*
X121973679Y-118325470D01*
X121735120Y-118374422D01*
X121494505Y-118383609D01*
X121256269Y-118353599D01*
X121024844Y-118284957D01*
X120804663Y-118178253D01*
X120600160Y-118034053D01*
X120595390Y-118030060D01*
X120445530Y-117904086D01*
X120114529Y-118094374D01*
X119994296Y-118164269D01*
X119907060Y-118217156D01*
X119848549Y-118256106D01*
X119814493Y-118284188D01*
X119800621Y-118304476D01*
X119802089Y-118319039D01*
X119824406Y-118347348D01*
X119870265Y-118397060D01*
X119932419Y-118460528D01*
X119986616Y-118513761D01*
X120221759Y-118713241D01*
X120473838Y-118875981D01*
X120739355Y-119002031D01*
X121014808Y-119091444D01*
X121296696Y-119144269D01*
X121581519Y-119160558D01*
X121865776Y-119140363D01*
X122145966Y-119083734D01*
X122418588Y-118990722D01*
X122680142Y-118861379D01*
X122927126Y-118695757D01*
X123156040Y-118493905D01*
X123182295Y-118467079D01*
X123380843Y-118231749D01*
X123543650Y-117976822D01*
X123669744Y-117705896D01*
X123758152Y-117422571D01*
X123807903Y-117130443D01*
X123818022Y-116833113D01*
X123787539Y-116534179D01*
X123751051Y-116362188D01*
X123659633Y-116074590D01*
X123536693Y-115812723D01*
X123379110Y-115570927D01*
X123197230Y-115357532D01*
X122967625Y-115144274D01*
X122722653Y-114969908D01*
X122460020Y-114833298D01*
X122177432Y-114733308D01*
X121872596Y-114668800D01*
X121783402Y-114656995D01*
X121495852Y-114644495D01*
X121495852Y-114524409D01*
X121570750Y-114524187D01*
X121720312Y-114525248D01*
X121836077Y-114527940D01*
X121926573Y-114532967D01*
X122000325Y-114541031D01*
X122065861Y-114552834D01*
X122131707Y-114569080D01*
X122138655Y-114570980D01*
X122455753Y-114678791D01*
X122747008Y-114819825D01*
X123011226Y-114992886D01*
X123247210Y-115196779D01*
X123453764Y-115430308D01*
X123629692Y-115692275D01*
X123773797Y-115981487D01*
X123884883Y-116296745D01*
X123892850Y-116325012D01*
X123909306Y-116389637D01*
X123921354Y-116452465D01*
X123929653Y-116521795D01*
X123934858Y-116605926D01*
X123937628Y-116713157D01*
X123938620Y-116851789D01*
X123938669Y-116903500D01*
X123938103Y-117053789D01*
D12*
%TO.C,RJ45*%
X133942000Y-136839000D02*
X133942000Y-116399000D01*
X133942000Y-116399000D02*
X131282000Y-116399000D01*
X131282000Y-116399000D02*
X131282000Y-136839000D01*
X131282000Y-136839000D02*
X133942000Y-136839000D01*
X131282000Y-135889000D02*
X125282000Y-135889000D01*
X125282000Y-135889000D02*
X125282000Y-135129000D01*
X125282000Y-135129000D02*
X131282000Y-135129000D01*
X131282000Y-135829000D02*
X125282000Y-135829000D01*
X131282000Y-135709000D02*
X125282000Y-135709000D01*
X131282000Y-135589000D02*
X125282000Y-135589000D01*
X131282000Y-135469000D02*
X125282000Y-135469000D01*
X131282000Y-135349000D02*
X125282000Y-135349000D01*
X131282000Y-135229000D02*
X125282000Y-135229000D01*
X134272000Y-135889000D02*
X133942000Y-135889000D01*
X134272000Y-135129000D02*
X133942000Y-135129000D01*
X133942000Y-134239000D02*
X131282000Y-134239000D01*
X131282000Y-133349000D02*
X125282000Y-133349000D01*
X125282000Y-133349000D02*
X125282000Y-132589000D01*
X125282000Y-132589000D02*
X131282000Y-132589000D01*
X134339071Y-133349000D02*
X133942000Y-133349000D01*
X134339071Y-132589000D02*
X133942000Y-132589000D01*
X133942000Y-131699000D02*
X131282000Y-131699000D01*
X131282000Y-130809000D02*
X125282000Y-130809000D01*
X125282000Y-130809000D02*
X125282000Y-130049000D01*
X125282000Y-130049000D02*
X131282000Y-130049000D01*
X134339071Y-130809000D02*
X133942000Y-130809000D01*
X134339071Y-130049000D02*
X133942000Y-130049000D01*
X133942000Y-129159000D02*
X131282000Y-129159000D01*
X131282000Y-128269000D02*
X125282000Y-128269000D01*
X125282000Y-128269000D02*
X125282000Y-127509000D01*
X125282000Y-127509000D02*
X131282000Y-127509000D01*
X134339071Y-128269000D02*
X133942000Y-128269000D01*
X134339071Y-127509000D02*
X133942000Y-127509000D01*
X133942000Y-126619000D02*
X131282000Y-126619000D01*
X131282000Y-125729000D02*
X125282000Y-125729000D01*
X125282000Y-125729000D02*
X125282000Y-124969000D01*
X125282000Y-124969000D02*
X131282000Y-124969000D01*
X134339071Y-125729000D02*
X133942000Y-125729000D01*
X134339071Y-124969000D02*
X133942000Y-124969000D01*
X133942000Y-124079000D02*
X131282000Y-124079000D01*
X131282000Y-123189000D02*
X125282000Y-123189000D01*
X125282000Y-123189000D02*
X125282000Y-122429000D01*
X125282000Y-122429000D02*
X131282000Y-122429000D01*
X134339071Y-123189000D02*
X133942000Y-123189000D01*
X134339071Y-122429000D02*
X133942000Y-122429000D01*
X133942000Y-121539000D02*
X131282000Y-121539000D01*
X131282000Y-120649000D02*
X125282000Y-120649000D01*
X125282000Y-120649000D02*
X125282000Y-119889000D01*
X125282000Y-119889000D02*
X131282000Y-119889000D01*
X134339071Y-120649000D02*
X133942000Y-120649000D01*
X134339071Y-119889000D02*
X133942000Y-119889000D01*
X133942000Y-118999000D02*
X131282000Y-118999000D01*
X131282000Y-118109000D02*
X125282000Y-118109000D01*
X125282000Y-118109000D02*
X125282000Y-117349000D01*
X125282000Y-117349000D02*
X131282000Y-117349000D01*
X134339071Y-118109000D02*
X133942000Y-118109000D01*
X134339071Y-117349000D02*
X133942000Y-117349000D01*
X136652000Y-135509000D02*
X136652000Y-136779000D01*
X136652000Y-136779000D02*
X135382000Y-136779000D01*
%TO.C,S1*%
X121623000Y-136839000D02*
X121623000Y-129099000D01*
X121623000Y-129099000D02*
X118963000Y-129099000D01*
X118963000Y-129099000D02*
X118963000Y-136839000D01*
X118963000Y-136839000D02*
X121623000Y-136839000D01*
X118963000Y-135889000D02*
X112963000Y-135889000D01*
X112963000Y-135889000D02*
X112963000Y-135129000D01*
X112963000Y-135129000D02*
X118963000Y-135129000D01*
X118963000Y-135829000D02*
X112963000Y-135829000D01*
X118963000Y-135709000D02*
X112963000Y-135709000D01*
X118963000Y-135589000D02*
X112963000Y-135589000D01*
X118963000Y-135469000D02*
X112963000Y-135469000D01*
X118963000Y-135349000D02*
X112963000Y-135349000D01*
X118963000Y-135229000D02*
X112963000Y-135229000D01*
X121953000Y-135889000D02*
X121623000Y-135889000D01*
X121953000Y-135129000D02*
X121623000Y-135129000D01*
X121623000Y-134239000D02*
X118963000Y-134239000D01*
X118963000Y-133349000D02*
X112963000Y-133349000D01*
X112963000Y-133349000D02*
X112963000Y-132589000D01*
X112963000Y-132589000D02*
X118963000Y-132589000D01*
X122020071Y-133349000D02*
X121623000Y-133349000D01*
X122020071Y-132589000D02*
X121623000Y-132589000D01*
X121623000Y-131699000D02*
X118963000Y-131699000D01*
X118963000Y-130809000D02*
X112963000Y-130809000D01*
X112963000Y-130809000D02*
X112963000Y-130049000D01*
X112963000Y-130049000D02*
X118963000Y-130049000D01*
X122020071Y-130809000D02*
X121623000Y-130809000D01*
X122020071Y-130049000D02*
X121623000Y-130049000D01*
X124333000Y-135509000D02*
X124333000Y-136779000D01*
X124333000Y-136779000D02*
X123063000Y-136779000D01*
%TO.C,S2*%
X140910000Y-137220000D02*
X143570000Y-137220000D01*
X140910000Y-132080000D02*
X140910000Y-137220000D01*
X143570000Y-132080000D02*
X143570000Y-137220000D01*
X140910000Y-132080000D02*
X143570000Y-132080000D01*
X140910000Y-130810000D02*
X140910000Y-129480000D01*
X140910000Y-129480000D02*
X142240000Y-129480000D01*
%TO.C,RJ45*%
D10*
X131945190Y-138247380D02*
X131611857Y-137771190D01*
X131373761Y-138247380D02*
X131373761Y-137247380D01*
X131754714Y-137247380D01*
X131849952Y-137295000D01*
X131897571Y-137342619D01*
X131945190Y-137437857D01*
X131945190Y-137580714D01*
X131897571Y-137675952D01*
X131849952Y-137723571D01*
X131754714Y-137771190D01*
X131373761Y-137771190D01*
X132659476Y-137247380D02*
X132659476Y-137961666D01*
X132611857Y-138104523D01*
X132516619Y-138199761D01*
X132373761Y-138247380D01*
X132278523Y-138247380D01*
X133564238Y-137580714D02*
X133564238Y-138247380D01*
X133326142Y-137199761D02*
X133088047Y-137914047D01*
X133707095Y-137914047D01*
X134564238Y-137247380D02*
X134088047Y-137247380D01*
X134040428Y-137723571D01*
X134088047Y-137675952D01*
X134183285Y-137628333D01*
X134421380Y-137628333D01*
X134516619Y-137675952D01*
X134564238Y-137723571D01*
X134611857Y-137818809D01*
X134611857Y-138056904D01*
X134564238Y-138152142D01*
X134516619Y-138199761D01*
X134421380Y-138247380D01*
X134183285Y-138247380D01*
X134088047Y-138199761D01*
X134040428Y-138152142D01*
%TO.C,S1*%
X121158095Y-138453761D02*
X121300952Y-138501380D01*
X121539047Y-138501380D01*
X121634285Y-138453761D01*
X121681904Y-138406142D01*
X121729523Y-138310904D01*
X121729523Y-138215666D01*
X121681904Y-138120428D01*
X121634285Y-138072809D01*
X121539047Y-138025190D01*
X121348571Y-137977571D01*
X121253333Y-137929952D01*
X121205714Y-137882333D01*
X121158095Y-137787095D01*
X121158095Y-137691857D01*
X121205714Y-137596619D01*
X121253333Y-137549000D01*
X121348571Y-137501380D01*
X121586666Y-137501380D01*
X121729523Y-137549000D01*
X122681904Y-138501380D02*
X122110476Y-138501380D01*
X122396190Y-138501380D02*
X122396190Y-137501380D01*
X122300952Y-137644238D01*
X122205714Y-137739476D01*
X122110476Y-137787095D01*
%TO.C,S2*%
X141478095Y-128293761D02*
X141620952Y-128341380D01*
X141859047Y-128341380D01*
X141954285Y-128293761D01*
X142001904Y-128246142D01*
X142049523Y-128150904D01*
X142049523Y-128055666D01*
X142001904Y-127960428D01*
X141954285Y-127912809D01*
X141859047Y-127865190D01*
X141668571Y-127817571D01*
X141573333Y-127769952D01*
X141525714Y-127722333D01*
X141478095Y-127627095D01*
X141478095Y-127531857D01*
X141525714Y-127436619D01*
X141573333Y-127389000D01*
X141668571Y-127341380D01*
X141906666Y-127341380D01*
X142049523Y-127389000D01*
X142430476Y-127436619D02*
X142478095Y-127389000D01*
X142573333Y-127341380D01*
X142811428Y-127341380D01*
X142906666Y-127389000D01*
X142954285Y-127436619D01*
X143001904Y-127531857D01*
X143001904Y-127627095D01*
X142954285Y-127769952D01*
X142382857Y-128341380D01*
X143001904Y-128341380D01*
%TD*%
M02*
