%TF.GenerationSoftware,KiCad,Pcbnew,5.1.9-73d0e3b20d~88~ubuntu20.04.1*%
%TF.CreationDate,2021-04-09T16:28:33+02:00*%
%TF.ProjectId,pcb_port_gobelet,7063625f-706f-4727-945f-676f62656c65,rev?*%
%TF.SameCoordinates,Original*%
%TF.FileFunction,Legend,Top*%
%TF.FilePolarity,Positive*%
%FSLAX46Y46*%
G04 Gerber Fmt 4.6, Leading zero omitted, Abs format (unit mm)*
G04 Created by KiCad (PCBNEW 5.1.9-73d0e3b20d~88~ubuntu20.04.1) date 2021-04-09 16:28:33*
%MOMM*%
%LPD*%
G01*
G04 APERTURE LIST*
%ADD10C,0.150000*%
%ADD11C,0.010000*%
%ADD12C,0.120000*%
G04 APERTURE END LIST*
D10*
X141732095Y-128532000D02*
X141636857Y-128484380D01*
X141494000Y-128484380D01*
X141351142Y-128532000D01*
X141255904Y-128627238D01*
X141208285Y-128722476D01*
X141160666Y-128912952D01*
X141160666Y-129055809D01*
X141208285Y-129246285D01*
X141255904Y-129341523D01*
X141351142Y-129436761D01*
X141494000Y-129484380D01*
X141589238Y-129484380D01*
X141732095Y-129436761D01*
X141779714Y-129389142D01*
X141779714Y-129055809D01*
X141589238Y-129055809D01*
X142208285Y-129484380D02*
X142208285Y-128484380D01*
X142779714Y-129484380D01*
X142779714Y-128484380D01*
X143255904Y-129484380D02*
X143255904Y-128484380D01*
X143494000Y-128484380D01*
X143636857Y-128532000D01*
X143732095Y-128627238D01*
X143779714Y-128722476D01*
X143827333Y-128912952D01*
X143827333Y-129055809D01*
X143779714Y-129246285D01*
X143732095Y-129341523D01*
X143636857Y-129436761D01*
X143494000Y-129484380D01*
X143255904Y-129484380D01*
X137414095Y-135136000D02*
X137318857Y-135088380D01*
X137176000Y-135088380D01*
X137033142Y-135136000D01*
X136937904Y-135231238D01*
X136890285Y-135326476D01*
X136842666Y-135516952D01*
X136842666Y-135659809D01*
X136890285Y-135850285D01*
X136937904Y-135945523D01*
X137033142Y-136040761D01*
X137176000Y-136088380D01*
X137271238Y-136088380D01*
X137414095Y-136040761D01*
X137461714Y-135993142D01*
X137461714Y-135659809D01*
X137271238Y-135659809D01*
X137890285Y-136088380D02*
X137890285Y-135088380D01*
X138461714Y-136088380D01*
X138461714Y-135088380D01*
X138937904Y-136088380D02*
X138937904Y-135088380D01*
X139176000Y-135088380D01*
X139318857Y-135136000D01*
X139414095Y-135231238D01*
X139461714Y-135326476D01*
X139509333Y-135516952D01*
X139509333Y-135659809D01*
X139461714Y-135850285D01*
X139414095Y-135945523D01*
X139318857Y-136040761D01*
X139176000Y-136088380D01*
X138937904Y-136088380D01*
X125095095Y-135390000D02*
X124999857Y-135342380D01*
X124857000Y-135342380D01*
X124714142Y-135390000D01*
X124618904Y-135485238D01*
X124571285Y-135580476D01*
X124523666Y-135770952D01*
X124523666Y-135913809D01*
X124571285Y-136104285D01*
X124618904Y-136199523D01*
X124714142Y-136294761D01*
X124857000Y-136342380D01*
X124952238Y-136342380D01*
X125095095Y-136294761D01*
X125142714Y-136247142D01*
X125142714Y-135913809D01*
X124952238Y-135913809D01*
X125571285Y-136342380D02*
X125571285Y-135342380D01*
X126142714Y-136342380D01*
X126142714Y-135342380D01*
X126618904Y-136342380D02*
X126618904Y-135342380D01*
X126857000Y-135342380D01*
X126999857Y-135390000D01*
X127095095Y-135485238D01*
X127142714Y-135580476D01*
X127190333Y-135770952D01*
X127190333Y-135913809D01*
X127142714Y-136104285D01*
X127095095Y-136199523D01*
X126999857Y-136294761D01*
X126857000Y-136342380D01*
X126618904Y-136342380D01*
D11*
%TO.C,REF\u002A\u002A*%
G36*
X124319103Y-125689789D02*
G01*
X124316966Y-125806054D01*
X124312602Y-125896593D01*
X124305353Y-125969707D01*
X124294562Y-126033694D01*
X124279570Y-126096853D01*
X124273850Y-126117989D01*
X124166049Y-126434140D01*
X124025184Y-126724876D01*
X123852721Y-126988748D01*
X123650123Y-127224310D01*
X123418855Y-127430113D01*
X123160380Y-127604710D01*
X122876163Y-127746652D01*
X122567669Y-127854494D01*
X122498695Y-127872989D01*
X122422776Y-127890872D01*
X122351351Y-127903661D01*
X122274951Y-127912130D01*
X122184108Y-127917051D01*
X122069354Y-127919199D01*
X121930583Y-127919377D01*
X121788350Y-127918378D01*
X121678721Y-127915773D01*
X121591972Y-127910609D01*
X121518379Y-127901932D01*
X121448219Y-127888789D01*
X121371766Y-127870225D01*
X121337916Y-127861249D01*
X121037700Y-127759289D01*
X120757009Y-127621449D01*
X120498567Y-127450461D01*
X120265098Y-127249057D01*
X120059324Y-127019970D01*
X119883971Y-126765930D01*
X119741760Y-126489670D01*
X119635416Y-126193923D01*
X119620086Y-126138037D01*
X119589694Y-125987295D01*
X119568295Y-125809760D01*
X119556394Y-125619042D01*
X119554499Y-125428751D01*
X119563115Y-125252498D01*
X119581796Y-125108870D01*
X119658914Y-124809215D01*
X119773033Y-124523487D01*
X119850646Y-124383023D01*
X119850646Y-124671667D01*
X119796227Y-124846292D01*
X119717705Y-125160973D01*
X119689020Y-125349000D01*
X119685387Y-125420769D01*
X119686247Y-125521229D01*
X119690876Y-125637060D01*
X119698551Y-125754944D01*
X119708547Y-125861560D01*
X119720141Y-125943590D01*
X119721795Y-125952080D01*
X119740946Y-126036025D01*
X119765276Y-126129027D01*
X119791438Y-126219713D01*
X119816083Y-126296711D01*
X119835866Y-126348648D01*
X119841936Y-126360278D01*
X119858713Y-126364627D01*
X119896279Y-126353183D01*
X119958196Y-126324253D01*
X120048027Y-126276142D01*
X120169336Y-126207158D01*
X120192967Y-126193453D01*
X120312240Y-126123535D01*
X120399143Y-126070749D01*
X120458308Y-126031656D01*
X120494364Y-126002815D01*
X120511942Y-125980789D01*
X120515671Y-125962136D01*
X120514297Y-125954759D01*
X120472631Y-125731697D01*
X120464185Y-125500409D01*
X120487815Y-125270117D01*
X120542377Y-125050046D01*
X120626729Y-124849418D01*
X120658289Y-124793375D01*
X120731578Y-124671667D01*
X119850646Y-124671667D01*
X119850646Y-124383023D01*
X119921208Y-124255319D01*
X120100497Y-124008342D01*
X120307954Y-123786188D01*
X120540637Y-123592487D01*
X120795602Y-123430872D01*
X121032179Y-123319622D01*
X121176010Y-123264717D01*
X121301753Y-123223657D01*
X121420181Y-123194575D01*
X121542064Y-123175603D01*
X121678174Y-123164874D01*
X121839284Y-123160519D01*
X121876852Y-123160409D01*
X121876852Y-123280495D01*
X121588467Y-123308234D01*
X121304194Y-123374512D01*
X121028981Y-123477633D01*
X120767776Y-123615897D01*
X120525527Y-123787607D01*
X120398574Y-123899084D01*
X120242331Y-124047250D01*
X121573290Y-124057834D01*
X121941166Y-124060759D01*
X121941166Y-124477630D01*
X121728418Y-124497572D01*
X121530759Y-124555679D01*
X121351796Y-124649366D01*
X121195135Y-124776052D01*
X121064384Y-124933154D01*
X120963149Y-125118090D01*
X120931192Y-125200834D01*
X120894123Y-125358359D01*
X120881355Y-125533102D01*
X120892839Y-125708263D01*
X120928527Y-125867040D01*
X120933136Y-125880553D01*
X121023658Y-126078425D01*
X121143958Y-126247886D01*
X121290958Y-126386738D01*
X121461581Y-126492784D01*
X121652750Y-126563825D01*
X121861385Y-126597665D01*
X121941166Y-126600317D01*
X122152242Y-126580636D01*
X122347822Y-126523889D01*
X122524455Y-126433521D01*
X122678689Y-126312976D01*
X122807073Y-126165699D01*
X122906156Y-125995134D01*
X122972486Y-125804726D01*
X123002612Y-125597920D01*
X123004091Y-125539500D01*
X122984346Y-125329061D01*
X122927434Y-125133919D01*
X122836837Y-124957555D01*
X122716038Y-124803446D01*
X122568520Y-124675072D01*
X122397764Y-124575913D01*
X122207255Y-124509448D01*
X122000475Y-124479156D01*
X121941166Y-124477630D01*
X121941166Y-124060759D01*
X122904250Y-124068417D01*
X123023955Y-124124537D01*
X123162317Y-124211225D01*
X123280452Y-124328405D01*
X123362431Y-124455000D01*
X123377325Y-124486547D01*
X123388994Y-124517842D01*
X123397905Y-124554453D01*
X123404523Y-124601948D01*
X123409314Y-124665894D01*
X123412746Y-124751859D01*
X123415285Y-124865410D01*
X123417395Y-125012117D01*
X123418756Y-125127573D01*
X123420244Y-125335322D01*
X123418979Y-125506907D01*
X123414133Y-125648451D01*
X123404878Y-125766078D01*
X123390387Y-125865914D01*
X123369835Y-125954083D01*
X123342393Y-126036709D01*
X123307235Y-126119917D01*
X123275954Y-126185084D01*
X123150587Y-126399155D01*
X123002819Y-126579209D01*
X122828421Y-126729460D01*
X122623164Y-126854125D01*
X122586750Y-126872184D01*
X122354679Y-126961470D01*
X122116120Y-127010422D01*
X121875505Y-127019609D01*
X121637269Y-126989599D01*
X121405844Y-126920957D01*
X121185663Y-126814253D01*
X120981160Y-126670053D01*
X120976390Y-126666060D01*
X120826530Y-126540086D01*
X120495529Y-126730374D01*
X120375296Y-126800269D01*
X120288060Y-126853156D01*
X120229549Y-126892106D01*
X120195493Y-126920188D01*
X120181621Y-126940476D01*
X120183089Y-126955039D01*
X120205406Y-126983348D01*
X120251265Y-127033060D01*
X120313419Y-127096528D01*
X120367616Y-127149761D01*
X120602759Y-127349241D01*
X120854838Y-127511981D01*
X121120355Y-127638031D01*
X121395808Y-127727444D01*
X121677696Y-127780269D01*
X121962519Y-127796558D01*
X122246776Y-127776363D01*
X122526966Y-127719734D01*
X122799588Y-127626722D01*
X123061142Y-127497379D01*
X123308126Y-127331757D01*
X123537040Y-127129905D01*
X123563295Y-127103079D01*
X123761843Y-126867749D01*
X123924650Y-126612822D01*
X124050744Y-126341896D01*
X124139152Y-126058571D01*
X124188903Y-125766443D01*
X124199022Y-125469113D01*
X124168539Y-125170179D01*
X124132051Y-124998188D01*
X124040633Y-124710590D01*
X123917693Y-124448723D01*
X123760110Y-124206927D01*
X123578230Y-123993532D01*
X123348625Y-123780274D01*
X123103653Y-123605908D01*
X122841020Y-123469298D01*
X122558432Y-123369308D01*
X122253596Y-123304800D01*
X122164402Y-123292995D01*
X121876852Y-123280495D01*
X121876852Y-123160409D01*
X121951750Y-123160187D01*
X122101312Y-123161248D01*
X122217077Y-123163940D01*
X122307573Y-123168967D01*
X122381325Y-123177031D01*
X122446861Y-123188834D01*
X122512707Y-123205080D01*
X122519655Y-123206980D01*
X122836753Y-123314791D01*
X123128008Y-123455825D01*
X123392226Y-123628886D01*
X123628210Y-123832779D01*
X123834764Y-124066308D01*
X124010692Y-124328275D01*
X124154797Y-124617487D01*
X124265883Y-124932745D01*
X124273850Y-124961012D01*
X124290306Y-125025637D01*
X124302354Y-125088465D01*
X124310653Y-125157795D01*
X124315858Y-125241926D01*
X124318628Y-125349157D01*
X124319620Y-125487789D01*
X124319669Y-125539500D01*
X124319103Y-125689789D01*
G37*
X124319103Y-125689789D02*
X124316966Y-125806054D01*
X124312602Y-125896593D01*
X124305353Y-125969707D01*
X124294562Y-126033694D01*
X124279570Y-126096853D01*
X124273850Y-126117989D01*
X124166049Y-126434140D01*
X124025184Y-126724876D01*
X123852721Y-126988748D01*
X123650123Y-127224310D01*
X123418855Y-127430113D01*
X123160380Y-127604710D01*
X122876163Y-127746652D01*
X122567669Y-127854494D01*
X122498695Y-127872989D01*
X122422776Y-127890872D01*
X122351351Y-127903661D01*
X122274951Y-127912130D01*
X122184108Y-127917051D01*
X122069354Y-127919199D01*
X121930583Y-127919377D01*
X121788350Y-127918378D01*
X121678721Y-127915773D01*
X121591972Y-127910609D01*
X121518379Y-127901932D01*
X121448219Y-127888789D01*
X121371766Y-127870225D01*
X121337916Y-127861249D01*
X121037700Y-127759289D01*
X120757009Y-127621449D01*
X120498567Y-127450461D01*
X120265098Y-127249057D01*
X120059324Y-127019970D01*
X119883971Y-126765930D01*
X119741760Y-126489670D01*
X119635416Y-126193923D01*
X119620086Y-126138037D01*
X119589694Y-125987295D01*
X119568295Y-125809760D01*
X119556394Y-125619042D01*
X119554499Y-125428751D01*
X119563115Y-125252498D01*
X119581796Y-125108870D01*
X119658914Y-124809215D01*
X119773033Y-124523487D01*
X119850646Y-124383023D01*
X119850646Y-124671667D01*
X119796227Y-124846292D01*
X119717705Y-125160973D01*
X119689020Y-125349000D01*
X119685387Y-125420769D01*
X119686247Y-125521229D01*
X119690876Y-125637060D01*
X119698551Y-125754944D01*
X119708547Y-125861560D01*
X119720141Y-125943590D01*
X119721795Y-125952080D01*
X119740946Y-126036025D01*
X119765276Y-126129027D01*
X119791438Y-126219713D01*
X119816083Y-126296711D01*
X119835866Y-126348648D01*
X119841936Y-126360278D01*
X119858713Y-126364627D01*
X119896279Y-126353183D01*
X119958196Y-126324253D01*
X120048027Y-126276142D01*
X120169336Y-126207158D01*
X120192967Y-126193453D01*
X120312240Y-126123535D01*
X120399143Y-126070749D01*
X120458308Y-126031656D01*
X120494364Y-126002815D01*
X120511942Y-125980789D01*
X120515671Y-125962136D01*
X120514297Y-125954759D01*
X120472631Y-125731697D01*
X120464185Y-125500409D01*
X120487815Y-125270117D01*
X120542377Y-125050046D01*
X120626729Y-124849418D01*
X120658289Y-124793375D01*
X120731578Y-124671667D01*
X119850646Y-124671667D01*
X119850646Y-124383023D01*
X119921208Y-124255319D01*
X120100497Y-124008342D01*
X120307954Y-123786188D01*
X120540637Y-123592487D01*
X120795602Y-123430872D01*
X121032179Y-123319622D01*
X121176010Y-123264717D01*
X121301753Y-123223657D01*
X121420181Y-123194575D01*
X121542064Y-123175603D01*
X121678174Y-123164874D01*
X121839284Y-123160519D01*
X121876852Y-123160409D01*
X121876852Y-123280495D01*
X121588467Y-123308234D01*
X121304194Y-123374512D01*
X121028981Y-123477633D01*
X120767776Y-123615897D01*
X120525527Y-123787607D01*
X120398574Y-123899084D01*
X120242331Y-124047250D01*
X121573290Y-124057834D01*
X121941166Y-124060759D01*
X121941166Y-124477630D01*
X121728418Y-124497572D01*
X121530759Y-124555679D01*
X121351796Y-124649366D01*
X121195135Y-124776052D01*
X121064384Y-124933154D01*
X120963149Y-125118090D01*
X120931192Y-125200834D01*
X120894123Y-125358359D01*
X120881355Y-125533102D01*
X120892839Y-125708263D01*
X120928527Y-125867040D01*
X120933136Y-125880553D01*
X121023658Y-126078425D01*
X121143958Y-126247886D01*
X121290958Y-126386738D01*
X121461581Y-126492784D01*
X121652750Y-126563825D01*
X121861385Y-126597665D01*
X121941166Y-126600317D01*
X122152242Y-126580636D01*
X122347822Y-126523889D01*
X122524455Y-126433521D01*
X122678689Y-126312976D01*
X122807073Y-126165699D01*
X122906156Y-125995134D01*
X122972486Y-125804726D01*
X123002612Y-125597920D01*
X123004091Y-125539500D01*
X122984346Y-125329061D01*
X122927434Y-125133919D01*
X122836837Y-124957555D01*
X122716038Y-124803446D01*
X122568520Y-124675072D01*
X122397764Y-124575913D01*
X122207255Y-124509448D01*
X122000475Y-124479156D01*
X121941166Y-124477630D01*
X121941166Y-124060759D01*
X122904250Y-124068417D01*
X123023955Y-124124537D01*
X123162317Y-124211225D01*
X123280452Y-124328405D01*
X123362431Y-124455000D01*
X123377325Y-124486547D01*
X123388994Y-124517842D01*
X123397905Y-124554453D01*
X123404523Y-124601948D01*
X123409314Y-124665894D01*
X123412746Y-124751859D01*
X123415285Y-124865410D01*
X123417395Y-125012117D01*
X123418756Y-125127573D01*
X123420244Y-125335322D01*
X123418979Y-125506907D01*
X123414133Y-125648451D01*
X123404878Y-125766078D01*
X123390387Y-125865914D01*
X123369835Y-125954083D01*
X123342393Y-126036709D01*
X123307235Y-126119917D01*
X123275954Y-126185084D01*
X123150587Y-126399155D01*
X123002819Y-126579209D01*
X122828421Y-126729460D01*
X122623164Y-126854125D01*
X122586750Y-126872184D01*
X122354679Y-126961470D01*
X122116120Y-127010422D01*
X121875505Y-127019609D01*
X121637269Y-126989599D01*
X121405844Y-126920957D01*
X121185663Y-126814253D01*
X120981160Y-126670053D01*
X120976390Y-126666060D01*
X120826530Y-126540086D01*
X120495529Y-126730374D01*
X120375296Y-126800269D01*
X120288060Y-126853156D01*
X120229549Y-126892106D01*
X120195493Y-126920188D01*
X120181621Y-126940476D01*
X120183089Y-126955039D01*
X120205406Y-126983348D01*
X120251265Y-127033060D01*
X120313419Y-127096528D01*
X120367616Y-127149761D01*
X120602759Y-127349241D01*
X120854838Y-127511981D01*
X121120355Y-127638031D01*
X121395808Y-127727444D01*
X121677696Y-127780269D01*
X121962519Y-127796558D01*
X122246776Y-127776363D01*
X122526966Y-127719734D01*
X122799588Y-127626722D01*
X123061142Y-127497379D01*
X123308126Y-127331757D01*
X123537040Y-127129905D01*
X123563295Y-127103079D01*
X123761843Y-126867749D01*
X123924650Y-126612822D01*
X124050744Y-126341896D01*
X124139152Y-126058571D01*
X124188903Y-125766443D01*
X124199022Y-125469113D01*
X124168539Y-125170179D01*
X124132051Y-124998188D01*
X124040633Y-124710590D01*
X123917693Y-124448723D01*
X123760110Y-124206927D01*
X123578230Y-123993532D01*
X123348625Y-123780274D01*
X123103653Y-123605908D01*
X122841020Y-123469298D01*
X122558432Y-123369308D01*
X122253596Y-123304800D01*
X122164402Y-123292995D01*
X121876852Y-123280495D01*
X121876852Y-123160409D01*
X121951750Y-123160187D01*
X122101312Y-123161248D01*
X122217077Y-123163940D01*
X122307573Y-123168967D01*
X122381325Y-123177031D01*
X122446861Y-123188834D01*
X122512707Y-123205080D01*
X122519655Y-123206980D01*
X122836753Y-123314791D01*
X123128008Y-123455825D01*
X123392226Y-123628886D01*
X123628210Y-123832779D01*
X123834764Y-124066308D01*
X124010692Y-124328275D01*
X124154797Y-124617487D01*
X124265883Y-124932745D01*
X124273850Y-124961012D01*
X124290306Y-125025637D01*
X124302354Y-125088465D01*
X124310653Y-125157795D01*
X124315858Y-125241926D01*
X124318628Y-125349157D01*
X124319620Y-125487789D01*
X124319669Y-125539500D01*
X124319103Y-125689789D01*
G36*
X120776997Y-133477979D02*
G01*
X120776978Y-133978854D01*
X120776931Y-134440591D01*
X120776841Y-134864786D01*
X120776695Y-135253036D01*
X120776481Y-135606940D01*
X120776183Y-135928093D01*
X120775790Y-136218094D01*
X120775286Y-136478539D01*
X120774660Y-136711026D01*
X120773897Y-136917152D01*
X120772983Y-137098514D01*
X120771907Y-137256709D01*
X120770653Y-137393336D01*
X120769208Y-137509990D01*
X120767560Y-137608269D01*
X120765694Y-137689771D01*
X120763597Y-137756092D01*
X120761256Y-137808830D01*
X120758657Y-137849582D01*
X120755787Y-137879945D01*
X120752632Y-137901517D01*
X120749178Y-137915894D01*
X120745413Y-137924675D01*
X120741322Y-137929456D01*
X120736893Y-137931834D01*
X120734856Y-137932523D01*
X120690823Y-137937801D01*
X120671356Y-137932701D01*
X120668674Y-137910073D01*
X120666172Y-137845597D01*
X120663851Y-137739237D01*
X120661710Y-137590961D01*
X120659749Y-137400735D01*
X120657968Y-137168525D01*
X120656367Y-136894298D01*
X120654946Y-136578021D01*
X120653704Y-136219661D01*
X120652642Y-135819182D01*
X120651759Y-135376553D01*
X120651055Y-134891739D01*
X120650530Y-134364708D01*
X120650184Y-133795425D01*
X120650017Y-133183857D01*
X120650000Y-132903707D01*
X120650000Y-127887913D01*
X120777000Y-127953587D01*
X120777000Y-132936367D01*
X120776997Y-133477979D01*
G37*
X120776997Y-133477979D02*
X120776978Y-133978854D01*
X120776931Y-134440591D01*
X120776841Y-134864786D01*
X120776695Y-135253036D01*
X120776481Y-135606940D01*
X120776183Y-135928093D01*
X120775790Y-136218094D01*
X120775286Y-136478539D01*
X120774660Y-136711026D01*
X120773897Y-136917152D01*
X120772983Y-137098514D01*
X120771907Y-137256709D01*
X120770653Y-137393336D01*
X120769208Y-137509990D01*
X120767560Y-137608269D01*
X120765694Y-137689771D01*
X120763597Y-137756092D01*
X120761256Y-137808830D01*
X120758657Y-137849582D01*
X120755787Y-137879945D01*
X120752632Y-137901517D01*
X120749178Y-137915894D01*
X120745413Y-137924675D01*
X120741322Y-137929456D01*
X120736893Y-137931834D01*
X120734856Y-137932523D01*
X120690823Y-137937801D01*
X120671356Y-137932701D01*
X120668674Y-137910073D01*
X120666172Y-137845597D01*
X120663851Y-137739237D01*
X120661710Y-137590961D01*
X120659749Y-137400735D01*
X120657968Y-137168525D01*
X120656367Y-136894298D01*
X120654946Y-136578021D01*
X120653704Y-136219661D01*
X120652642Y-135819182D01*
X120651759Y-135376553D01*
X120651055Y-134891739D01*
X120650530Y-134364708D01*
X120650184Y-133795425D01*
X120650017Y-133183857D01*
X120650000Y-132903707D01*
X120650000Y-127887913D01*
X120777000Y-127953587D01*
X120777000Y-132936367D01*
X120776997Y-133477979D01*
G36*
X122429741Y-130313071D02*
G01*
X122379327Y-130451058D01*
X122297891Y-130562041D01*
X122189162Y-130642782D01*
X122056869Y-130690039D01*
X121984381Y-130700005D01*
X121831787Y-130693453D01*
X121699237Y-130651367D01*
X121589526Y-130575192D01*
X121505444Y-130466371D01*
X121495122Y-130447140D01*
X121459321Y-130343026D01*
X121443028Y-130220603D01*
X121447789Y-130099893D01*
X121463008Y-130031528D01*
X121523983Y-129899538D01*
X121610194Y-129801227D01*
X121722420Y-129736053D01*
X121861440Y-129703475D01*
X121941166Y-129699241D01*
X121962240Y-129699744D01*
X121962240Y-129898037D01*
X121862236Y-129903168D01*
X121771694Y-129940432D01*
X121749485Y-129956992D01*
X121670284Y-130045242D01*
X121632354Y-130142504D01*
X121635483Y-130249748D01*
X121665839Y-130339955D01*
X121703967Y-130405204D01*
X121755860Y-130449210D01*
X121805900Y-130474539D01*
X121914188Y-130503071D01*
X122015719Y-130495275D01*
X122105063Y-130456852D01*
X122176791Y-130393501D01*
X122225476Y-130310923D01*
X122245687Y-130214818D01*
X122231998Y-130110885D01*
X122207995Y-130052342D01*
X122146222Y-129974932D01*
X122060603Y-129922728D01*
X121962240Y-129898037D01*
X121962240Y-129699744D01*
X122031613Y-129701404D01*
X122096673Y-129711090D01*
X122153129Y-129732087D01*
X122200198Y-129757698D01*
X122310024Y-129845471D01*
X122388731Y-129958057D01*
X122433600Y-130088878D01*
X122441910Y-130231354D01*
X122429741Y-130313071D01*
G37*
X122429741Y-130313071D02*
X122379327Y-130451058D01*
X122297891Y-130562041D01*
X122189162Y-130642782D01*
X122056869Y-130690039D01*
X121984381Y-130700005D01*
X121831787Y-130693453D01*
X121699237Y-130651367D01*
X121589526Y-130575192D01*
X121505444Y-130466371D01*
X121495122Y-130447140D01*
X121459321Y-130343026D01*
X121443028Y-130220603D01*
X121447789Y-130099893D01*
X121463008Y-130031528D01*
X121523983Y-129899538D01*
X121610194Y-129801227D01*
X121722420Y-129736053D01*
X121861440Y-129703475D01*
X121941166Y-129699241D01*
X121962240Y-129699744D01*
X121962240Y-129898037D01*
X121862236Y-129903168D01*
X121771694Y-129940432D01*
X121749485Y-129956992D01*
X121670284Y-130045242D01*
X121632354Y-130142504D01*
X121635483Y-130249748D01*
X121665839Y-130339955D01*
X121703967Y-130405204D01*
X121755860Y-130449210D01*
X121805900Y-130474539D01*
X121914188Y-130503071D01*
X122015719Y-130495275D01*
X122105063Y-130456852D01*
X122176791Y-130393501D01*
X122225476Y-130310923D01*
X122245687Y-130214818D01*
X122231998Y-130110885D01*
X122207995Y-130052342D01*
X122146222Y-129974932D01*
X122060603Y-129922728D01*
X121962240Y-129898037D01*
X121962240Y-129699744D01*
X122031613Y-129701404D01*
X122096673Y-129711090D01*
X122153129Y-129732087D01*
X122200198Y-129757698D01*
X122310024Y-129845471D01*
X122388731Y-129958057D01*
X122433600Y-130088878D01*
X122441910Y-130231354D01*
X122429741Y-130313071D01*
G36*
X122437245Y-132665749D02*
G01*
X122403906Y-132787991D01*
X122341390Y-132898998D01*
X122249663Y-132991752D01*
X122171782Y-133040224D01*
X122037709Y-133086354D01*
X121902716Y-133095636D01*
X121773586Y-133070778D01*
X121657101Y-133014489D01*
X121560041Y-132929478D01*
X121489188Y-132818451D01*
X121467083Y-132758783D01*
X121441151Y-132649346D01*
X121437003Y-132556298D01*
X121455053Y-132459483D01*
X121474534Y-132397500D01*
X121536559Y-132277009D01*
X121627002Y-132182825D01*
X121739251Y-132117487D01*
X121866694Y-132083533D01*
X121915179Y-132083522D01*
X121915179Y-132281949D01*
X121814538Y-132309565D01*
X121727775Y-132367279D01*
X121663037Y-132449007D01*
X121628470Y-132548667D01*
X121625008Y-132586609D01*
X121633329Y-132636964D01*
X121655841Y-132702677D01*
X121667272Y-132728212D01*
X121730600Y-132815445D01*
X121815855Y-132872054D01*
X121914035Y-132896319D01*
X122016135Y-132886521D01*
X122113155Y-132840939D01*
X122141365Y-132818771D01*
X122207205Y-132736076D01*
X122239107Y-132640505D01*
X122239086Y-132540941D01*
X122209155Y-132446265D01*
X122151331Y-132365359D01*
X122067626Y-132307106D01*
X122021550Y-132290513D01*
X121915179Y-132281949D01*
X121915179Y-132083522D01*
X122002718Y-132083500D01*
X122140713Y-132119925D01*
X122167447Y-132131565D01*
X122279494Y-132204743D01*
X122362530Y-132301767D01*
X122416523Y-132415620D01*
X122441439Y-132539286D01*
X122437245Y-132665749D01*
G37*
X122437245Y-132665749D02*
X122403906Y-132787991D01*
X122341390Y-132898998D01*
X122249663Y-132991752D01*
X122171782Y-133040224D01*
X122037709Y-133086354D01*
X121902716Y-133095636D01*
X121773586Y-133070778D01*
X121657101Y-133014489D01*
X121560041Y-132929478D01*
X121489188Y-132818451D01*
X121467083Y-132758783D01*
X121441151Y-132649346D01*
X121437003Y-132556298D01*
X121455053Y-132459483D01*
X121474534Y-132397500D01*
X121536559Y-132277009D01*
X121627002Y-132182825D01*
X121739251Y-132117487D01*
X121866694Y-132083533D01*
X121915179Y-132083522D01*
X121915179Y-132281949D01*
X121814538Y-132309565D01*
X121727775Y-132367279D01*
X121663037Y-132449007D01*
X121628470Y-132548667D01*
X121625008Y-132586609D01*
X121633329Y-132636964D01*
X121655841Y-132702677D01*
X121667272Y-132728212D01*
X121730600Y-132815445D01*
X121815855Y-132872054D01*
X121914035Y-132896319D01*
X122016135Y-132886521D01*
X122113155Y-132840939D01*
X122141365Y-132818771D01*
X122207205Y-132736076D01*
X122239107Y-132640505D01*
X122239086Y-132540941D01*
X122209155Y-132446265D01*
X122151331Y-132365359D01*
X122067626Y-132307106D01*
X122021550Y-132290513D01*
X121915179Y-132281949D01*
X121915179Y-132083522D01*
X122002718Y-132083500D01*
X122140713Y-132119925D01*
X122167447Y-132131565D01*
X122279494Y-132204743D01*
X122362530Y-132301767D01*
X122416523Y-132415620D01*
X122441439Y-132539286D01*
X122437245Y-132665749D01*
G36*
X122417694Y-135042497D02*
G01*
X122354567Y-135171477D01*
X122263826Y-135273365D01*
X122152176Y-135345849D01*
X122026326Y-135386617D01*
X121892982Y-135393360D01*
X121758851Y-135363766D01*
X121648223Y-135307647D01*
X121565128Y-135229547D01*
X121499956Y-135123120D01*
X121456553Y-134999964D01*
X121438769Y-134871678D01*
X121450453Y-134749860D01*
X121456176Y-134728876D01*
X121516527Y-134597540D01*
X121606927Y-134493564D01*
X121723086Y-134420869D01*
X121828709Y-134388423D01*
X121913131Y-134383204D01*
X121913131Y-134583992D01*
X121803277Y-134610020D01*
X121718877Y-134668630D01*
X121662855Y-134747351D01*
X121627847Y-134850669D01*
X121634968Y-134953411D01*
X121662859Y-135022497D01*
X121729049Y-135109840D01*
X121812010Y-135164874D01*
X121904262Y-135189372D01*
X121998329Y-135185108D01*
X122086731Y-135153854D01*
X122161992Y-135097383D01*
X122216633Y-135017468D01*
X122243176Y-134915882D01*
X122244555Y-134884584D01*
X122225817Y-134773500D01*
X122173507Y-134683137D01*
X122093484Y-134618808D01*
X121991607Y-134585828D01*
X121913131Y-134583992D01*
X121913131Y-134383204D01*
X121975050Y-134379376D01*
X122109146Y-134406307D01*
X122226663Y-134464400D01*
X122323263Y-134548842D01*
X122394613Y-134654819D01*
X122436378Y-134777515D01*
X122444221Y-134912117D01*
X122417694Y-135042497D01*
G37*
X122417694Y-135042497D02*
X122354567Y-135171477D01*
X122263826Y-135273365D01*
X122152176Y-135345849D01*
X122026326Y-135386617D01*
X121892982Y-135393360D01*
X121758851Y-135363766D01*
X121648223Y-135307647D01*
X121565128Y-135229547D01*
X121499956Y-135123120D01*
X121456553Y-134999964D01*
X121438769Y-134871678D01*
X121450453Y-134749860D01*
X121456176Y-134728876D01*
X121516527Y-134597540D01*
X121606927Y-134493564D01*
X121723086Y-134420869D01*
X121828709Y-134388423D01*
X121913131Y-134383204D01*
X121913131Y-134583992D01*
X121803277Y-134610020D01*
X121718877Y-134668630D01*
X121662855Y-134747351D01*
X121627847Y-134850669D01*
X121634968Y-134953411D01*
X121662859Y-135022497D01*
X121729049Y-135109840D01*
X121812010Y-135164874D01*
X121904262Y-135189372D01*
X121998329Y-135185108D01*
X122086731Y-135153854D01*
X122161992Y-135097383D01*
X122216633Y-135017468D01*
X122243176Y-134915882D01*
X122244555Y-134884584D01*
X122225817Y-134773500D01*
X122173507Y-134683137D01*
X122093484Y-134618808D01*
X121991607Y-134585828D01*
X121913131Y-134583992D01*
X121913131Y-134383204D01*
X121975050Y-134379376D01*
X122109146Y-134406307D01*
X122226663Y-134464400D01*
X122323263Y-134548842D01*
X122394613Y-134654819D01*
X122436378Y-134777515D01*
X122444221Y-134912117D01*
X122417694Y-135042497D01*
G36*
X122395903Y-129088437D02*
G01*
X122394051Y-129170372D01*
X122389473Y-129225920D01*
X122380951Y-129263051D01*
X122367265Y-129289740D01*
X122347196Y-129313957D01*
X122343333Y-129318111D01*
X122257079Y-129390844D01*
X122164692Y-129426014D01*
X122060682Y-129428665D01*
X121986093Y-129415790D01*
X121932300Y-129387999D01*
X121886553Y-129344443D01*
X121818731Y-129270436D01*
X121700295Y-129364391D01*
X121613549Y-129424370D01*
X121546923Y-129449519D01*
X121497383Y-129440451D01*
X121469253Y-129410985D01*
X121454325Y-129362305D01*
X121471652Y-129310529D01*
X121523619Y-129252146D01*
X121612612Y-129183647D01*
X121633328Y-129169584D01*
X121791629Y-129063750D01*
X121792314Y-128963209D01*
X121793000Y-128862667D01*
X121649066Y-128862667D01*
X121566852Y-128858954D01*
X121505865Y-128848967D01*
X121479733Y-128837267D01*
X121457125Y-128789791D01*
X121460072Y-128733790D01*
X121483487Y-128695488D01*
X121512069Y-128686471D01*
X121574165Y-128680246D01*
X121672050Y-128676723D01*
X121807998Y-128675815D01*
X121954446Y-128677021D01*
X122216333Y-128680416D01*
X122216333Y-128862667D01*
X121962333Y-128862667D01*
X121962333Y-129010834D01*
X121964805Y-129096008D01*
X121973986Y-129150959D01*
X121992525Y-129187601D01*
X122004666Y-129201334D01*
X122064258Y-129236707D01*
X122129617Y-129239287D01*
X122183071Y-129210405D01*
X122202440Y-129175850D01*
X122213066Y-129115305D01*
X122216333Y-129020842D01*
X122216333Y-128862667D01*
X122216333Y-128680416D01*
X122396250Y-128682750D01*
X122396250Y-128972142D01*
X122395903Y-129088437D01*
G37*
X122395903Y-129088437D02*
X122394051Y-129170372D01*
X122389473Y-129225920D01*
X122380951Y-129263051D01*
X122367265Y-129289740D01*
X122347196Y-129313957D01*
X122343333Y-129318111D01*
X122257079Y-129390844D01*
X122164692Y-129426014D01*
X122060682Y-129428665D01*
X121986093Y-129415790D01*
X121932300Y-129387999D01*
X121886553Y-129344443D01*
X121818731Y-129270436D01*
X121700295Y-129364391D01*
X121613549Y-129424370D01*
X121546923Y-129449519D01*
X121497383Y-129440451D01*
X121469253Y-129410985D01*
X121454325Y-129362305D01*
X121471652Y-129310529D01*
X121523619Y-129252146D01*
X121612612Y-129183647D01*
X121633328Y-129169584D01*
X121791629Y-129063750D01*
X121792314Y-128963209D01*
X121793000Y-128862667D01*
X121649066Y-128862667D01*
X121566852Y-128858954D01*
X121505865Y-128848967D01*
X121479733Y-128837267D01*
X121457125Y-128789791D01*
X121460072Y-128733790D01*
X121483487Y-128695488D01*
X121512069Y-128686471D01*
X121574165Y-128680246D01*
X121672050Y-128676723D01*
X121807998Y-128675815D01*
X121954446Y-128677021D01*
X122216333Y-128680416D01*
X122216333Y-128862667D01*
X121962333Y-128862667D01*
X121962333Y-129010834D01*
X121964805Y-129096008D01*
X121973986Y-129150959D01*
X121992525Y-129187601D01*
X122004666Y-129201334D01*
X122064258Y-129236707D01*
X122129617Y-129239287D01*
X122183071Y-129210405D01*
X122202440Y-129175850D01*
X122213066Y-129115305D01*
X122216333Y-129020842D01*
X122216333Y-128862667D01*
X122216333Y-128680416D01*
X122396250Y-128682750D01*
X122396250Y-128972142D01*
X122395903Y-129088437D01*
G36*
X122398246Y-131510230D02*
G01*
X122385444Y-131583543D01*
X122363158Y-131637327D01*
X122329683Y-131679111D01*
X122305864Y-131699718D01*
X122242088Y-131728934D01*
X122158437Y-131741265D01*
X122074368Y-131735478D01*
X122021338Y-131717761D01*
X121983555Y-131705533D01*
X121960219Y-131724822D01*
X121958177Y-131728345D01*
X121912742Y-131773426D01*
X121840558Y-131807941D01*
X121757040Y-131825126D01*
X121735843Y-131825921D01*
X121638879Y-131807586D01*
X121553842Y-131758138D01*
X121493474Y-131685621D01*
X121484809Y-131667467D01*
X121471202Y-131613964D01*
X121461287Y-131533768D01*
X121455085Y-131436437D01*
X121452614Y-131331529D01*
X121453894Y-131228601D01*
X121458946Y-131137211D01*
X121467788Y-131066917D01*
X121480440Y-131027278D01*
X121483487Y-131023821D01*
X121512069Y-131014804D01*
X121574165Y-131008579D01*
X121672050Y-131005057D01*
X121807998Y-131004148D01*
X121856500Y-131004547D01*
X121856500Y-131191000D01*
X121644833Y-131191000D01*
X121644833Y-131377267D01*
X121647882Y-131480436D01*
X121656574Y-131552888D01*
X121670224Y-131588924D01*
X121670233Y-131588934D01*
X121709813Y-131608492D01*
X121750666Y-131614334D01*
X121797273Y-131608734D01*
X121828111Y-131587385D01*
X121846225Y-131543467D01*
X121854662Y-131470154D01*
X121856500Y-131377267D01*
X121856500Y-131191000D01*
X121856500Y-131004547D01*
X121954446Y-131005354D01*
X122216333Y-131008750D01*
X122216333Y-131191000D01*
X122047000Y-131191000D01*
X122047000Y-131347158D01*
X122050209Y-131441137D01*
X122060608Y-131499903D01*
X122078475Y-131529439D01*
X122124223Y-131545250D01*
X122163142Y-131542211D01*
X122189596Y-131533291D01*
X122205411Y-131516700D01*
X122213317Y-131483083D01*
X122216044Y-131423081D01*
X122216333Y-131359930D01*
X122216333Y-131191000D01*
X122216333Y-131008750D01*
X122396250Y-131011084D01*
X122402229Y-131274914D01*
X122403272Y-131409863D01*
X122398246Y-131510230D01*
G37*
X122398246Y-131510230D02*
X122385444Y-131583543D01*
X122363158Y-131637327D01*
X122329683Y-131679111D01*
X122305864Y-131699718D01*
X122242088Y-131728934D01*
X122158437Y-131741265D01*
X122074368Y-131735478D01*
X122021338Y-131717761D01*
X121983555Y-131705533D01*
X121960219Y-131724822D01*
X121958177Y-131728345D01*
X121912742Y-131773426D01*
X121840558Y-131807941D01*
X121757040Y-131825126D01*
X121735843Y-131825921D01*
X121638879Y-131807586D01*
X121553842Y-131758138D01*
X121493474Y-131685621D01*
X121484809Y-131667467D01*
X121471202Y-131613964D01*
X121461287Y-131533768D01*
X121455085Y-131436437D01*
X121452614Y-131331529D01*
X121453894Y-131228601D01*
X121458946Y-131137211D01*
X121467788Y-131066917D01*
X121480440Y-131027278D01*
X121483487Y-131023821D01*
X121512069Y-131014804D01*
X121574165Y-131008579D01*
X121672050Y-131005057D01*
X121807998Y-131004148D01*
X121856500Y-131004547D01*
X121856500Y-131191000D01*
X121644833Y-131191000D01*
X121644833Y-131377267D01*
X121647882Y-131480436D01*
X121656574Y-131552888D01*
X121670224Y-131588924D01*
X121670233Y-131588934D01*
X121709813Y-131608492D01*
X121750666Y-131614334D01*
X121797273Y-131608734D01*
X121828111Y-131587385D01*
X121846225Y-131543467D01*
X121854662Y-131470154D01*
X121856500Y-131377267D01*
X121856500Y-131191000D01*
X121856500Y-131004547D01*
X121954446Y-131005354D01*
X122216333Y-131008750D01*
X122216333Y-131191000D01*
X122047000Y-131191000D01*
X122047000Y-131347158D01*
X122050209Y-131441137D01*
X122060608Y-131499903D01*
X122078475Y-131529439D01*
X122124223Y-131545250D01*
X122163142Y-131542211D01*
X122189596Y-131533291D01*
X122205411Y-131516700D01*
X122213317Y-131483083D01*
X122216044Y-131423081D01*
X122216333Y-131359930D01*
X122216333Y-131191000D01*
X122216333Y-131008750D01*
X122396250Y-131011084D01*
X122402229Y-131274914D01*
X122403272Y-131409863D01*
X122398246Y-131510230D01*
G36*
X122427535Y-133671400D02*
G01*
X122419618Y-133822424D01*
X122394776Y-133938568D01*
X122350166Y-134024874D01*
X122282948Y-134086387D01*
X122190279Y-134128147D01*
X122166164Y-134135192D01*
X122053757Y-134146108D01*
X121945021Y-134121977D01*
X121849702Y-134067486D01*
X121777545Y-133987324D01*
X121752013Y-133935997D01*
X121740398Y-133884072D01*
X121732269Y-133807259D01*
X121729500Y-133729622D01*
X121729500Y-133582834D01*
X121617316Y-133582834D01*
X121530475Y-133575898D01*
X121478576Y-133552986D01*
X121456217Y-133510940D01*
X121454333Y-133487584D01*
X121465796Y-133439010D01*
X121479733Y-133417734D01*
X121504468Y-133408230D01*
X121559200Y-133401105D01*
X121646959Y-133396191D01*
X121770776Y-133393323D01*
X121933681Y-133392337D01*
X121944655Y-133392334D01*
X122099912Y-133392063D01*
X122217935Y-133393204D01*
X122237500Y-133394453D01*
X122237500Y-133582834D01*
X121920000Y-133582834D01*
X121920000Y-133720417D01*
X121923008Y-133803497D01*
X121933991Y-133857026D01*
X121955886Y-133893488D01*
X121962333Y-133900334D01*
X122022478Y-133934441D01*
X122077214Y-133942667D01*
X122152443Y-133925829D01*
X122203807Y-133874918D01*
X122231709Y-133789337D01*
X122237500Y-133706979D01*
X122237500Y-133582834D01*
X122237500Y-133394453D01*
X122303794Y-133398688D01*
X122362562Y-133411447D01*
X122399310Y-133434411D01*
X122419109Y-133470510D01*
X122427032Y-133522677D01*
X122428148Y-133593841D01*
X122427535Y-133671400D01*
G37*
X122427535Y-133671400D02*
X122419618Y-133822424D01*
X122394776Y-133938568D01*
X122350166Y-134024874D01*
X122282948Y-134086387D01*
X122190279Y-134128147D01*
X122166164Y-134135192D01*
X122053757Y-134146108D01*
X121945021Y-134121977D01*
X121849702Y-134067486D01*
X121777545Y-133987324D01*
X121752013Y-133935997D01*
X121740398Y-133884072D01*
X121732269Y-133807259D01*
X121729500Y-133729622D01*
X121729500Y-133582834D01*
X121617316Y-133582834D01*
X121530475Y-133575898D01*
X121478576Y-133552986D01*
X121456217Y-133510940D01*
X121454333Y-133487584D01*
X121465796Y-133439010D01*
X121479733Y-133417734D01*
X121504468Y-133408230D01*
X121559200Y-133401105D01*
X121646959Y-133396191D01*
X121770776Y-133393323D01*
X121933681Y-133392337D01*
X121944655Y-133392334D01*
X122099912Y-133392063D01*
X122217935Y-133393204D01*
X122237500Y-133394453D01*
X122237500Y-133582834D01*
X121920000Y-133582834D01*
X121920000Y-133720417D01*
X121923008Y-133803497D01*
X121933991Y-133857026D01*
X121955886Y-133893488D01*
X121962333Y-133900334D01*
X122022478Y-133934441D01*
X122077214Y-133942667D01*
X122152443Y-133925829D01*
X122203807Y-133874918D01*
X122231709Y-133789337D01*
X122237500Y-133706979D01*
X122237500Y-133582834D01*
X122237500Y-133394453D01*
X122303794Y-133398688D01*
X122362562Y-133411447D01*
X122399310Y-133434411D01*
X122419109Y-133470510D01*
X122427032Y-133522677D01*
X122428148Y-133593841D01*
X122427535Y-133671400D01*
G36*
X122403844Y-135806635D02*
G01*
X122391209Y-135831057D01*
X122363429Y-135848138D01*
X122315003Y-135859166D01*
X122240431Y-135865432D01*
X122134212Y-135868224D01*
X122000433Y-135868834D01*
X121644833Y-135868834D01*
X121644833Y-136076267D01*
X121642681Y-136186306D01*
X121634628Y-136260653D01*
X121618279Y-136305803D01*
X121591236Y-136328252D01*
X121551105Y-136334495D01*
X121549583Y-136334500D01*
X121501009Y-136323037D01*
X121479733Y-136309100D01*
X121468666Y-136277100D01*
X121460581Y-136212895D01*
X121455476Y-136126511D01*
X121453352Y-136027973D01*
X121454209Y-135927304D01*
X121458046Y-135834528D01*
X121464865Y-135759672D01*
X121474665Y-135712758D01*
X121479733Y-135703734D01*
X121504916Y-135694065D01*
X121560552Y-135686860D01*
X121649641Y-135681950D01*
X121775181Y-135679165D01*
X121930583Y-135678334D01*
X122084551Y-135678806D01*
X122201304Y-135680905D01*
X122285956Y-135685654D01*
X122343623Y-135694075D01*
X122379417Y-135707192D01*
X122398454Y-135726027D01*
X122405847Y-135751603D01*
X122406833Y-135773584D01*
X122403844Y-135806635D01*
G37*
X122403844Y-135806635D02*
X122391209Y-135831057D01*
X122363429Y-135848138D01*
X122315003Y-135859166D01*
X122240431Y-135865432D01*
X122134212Y-135868224D01*
X122000433Y-135868834D01*
X121644833Y-135868834D01*
X121644833Y-136076267D01*
X121642681Y-136186306D01*
X121634628Y-136260653D01*
X121618279Y-136305803D01*
X121591236Y-136328252D01*
X121551105Y-136334495D01*
X121549583Y-136334500D01*
X121501009Y-136323037D01*
X121479733Y-136309100D01*
X121468666Y-136277100D01*
X121460581Y-136212895D01*
X121455476Y-136126511D01*
X121453352Y-136027973D01*
X121454209Y-135927304D01*
X121458046Y-135834528D01*
X121464865Y-135759672D01*
X121474665Y-135712758D01*
X121479733Y-135703734D01*
X121504916Y-135694065D01*
X121560552Y-135686860D01*
X121649641Y-135681950D01*
X121775181Y-135679165D01*
X121930583Y-135678334D01*
X122084551Y-135678806D01*
X122201304Y-135680905D01*
X122285956Y-135685654D01*
X122343623Y-135694075D01*
X122379417Y-135707192D01*
X122398454Y-135726027D01*
X122405847Y-135751603D01*
X122406833Y-135773584D01*
X122403844Y-135806635D01*
G36*
X122401698Y-136534577D02*
G01*
X122382215Y-136564124D01*
X122342272Y-136599848D01*
X122275752Y-136647613D01*
X122218890Y-136685577D01*
X122030947Y-136809268D01*
X122201439Y-136926426D01*
X122293544Y-136991517D01*
X122354598Y-137040659D01*
X122389651Y-137080011D01*
X122403754Y-137115732D01*
X122401957Y-137153982D01*
X122398963Y-137167307D01*
X122381355Y-137205601D01*
X122350514Y-137221615D01*
X122302491Y-137214186D01*
X122233335Y-137182146D01*
X122139097Y-137124332D01*
X122051748Y-137064870D01*
X121824750Y-136906240D01*
X121664941Y-136906120D01*
X121574816Y-136902622D01*
X121509541Y-136893119D01*
X121479733Y-136880600D01*
X121461265Y-136841884D01*
X121454491Y-136788150D01*
X121461082Y-136741748D01*
X121468444Y-136729611D01*
X121495031Y-136722843D01*
X121552422Y-136717847D01*
X121629093Y-136715554D01*
X121643211Y-136715500D01*
X121803866Y-136715500D01*
X122041437Y-136556750D01*
X122132046Y-136498038D01*
X122212747Y-136449135D01*
X122275802Y-136414491D01*
X122313472Y-136398554D01*
X122317521Y-136398000D01*
X122371577Y-136416021D01*
X122402031Y-136465909D01*
X122406833Y-136505343D01*
X122401698Y-136534577D01*
G37*
X122401698Y-136534577D02*
X122382215Y-136564124D01*
X122342272Y-136599848D01*
X122275752Y-136647613D01*
X122218890Y-136685577D01*
X122030947Y-136809268D01*
X122201439Y-136926426D01*
X122293544Y-136991517D01*
X122354598Y-137040659D01*
X122389651Y-137080011D01*
X122403754Y-137115732D01*
X122401957Y-137153982D01*
X122398963Y-137167307D01*
X122381355Y-137205601D01*
X122350514Y-137221615D01*
X122302491Y-137214186D01*
X122233335Y-137182146D01*
X122139097Y-137124332D01*
X122051748Y-137064870D01*
X121824750Y-136906240D01*
X121664941Y-136906120D01*
X121574816Y-136902622D01*
X121509541Y-136893119D01*
X121479733Y-136880600D01*
X121461265Y-136841884D01*
X121454491Y-136788150D01*
X121461082Y-136741748D01*
X121468444Y-136729611D01*
X121495031Y-136722843D01*
X121552422Y-136717847D01*
X121629093Y-136715554D01*
X121643211Y-136715500D01*
X121803866Y-136715500D01*
X122041437Y-136556750D01*
X122132046Y-136498038D01*
X122212747Y-136449135D01*
X122275802Y-136414491D01*
X122313472Y-136398554D01*
X122317521Y-136398000D01*
X122371577Y-136416021D01*
X122402031Y-136465909D01*
X122406833Y-136505343D01*
X122401698Y-136534577D01*
G36*
X123232312Y-133453756D02*
G01*
X123232243Y-133961105D01*
X123232115Y-134429215D01*
X123231919Y-134859634D01*
X123231645Y-135253909D01*
X123231282Y-135613587D01*
X123230823Y-135940215D01*
X123230255Y-136235340D01*
X123229570Y-136500511D01*
X123228758Y-136737274D01*
X123227809Y-136947176D01*
X123226712Y-137131766D01*
X123225459Y-137292589D01*
X123224039Y-137431193D01*
X123222442Y-137549126D01*
X123220659Y-137647936D01*
X123218680Y-137729168D01*
X123216494Y-137794370D01*
X123214093Y-137845091D01*
X123211466Y-137882876D01*
X123208603Y-137909274D01*
X123205495Y-137925831D01*
X123202131Y-137934096D01*
X123200314Y-137935616D01*
X123158562Y-137933801D01*
X123136814Y-137921776D01*
X123133353Y-137915298D01*
X123130151Y-137900795D01*
X123127198Y-137876715D01*
X123124484Y-137841508D01*
X123121998Y-137793624D01*
X123119733Y-137731513D01*
X123117677Y-137653623D01*
X123115821Y-137558405D01*
X123114156Y-137444307D01*
X123112670Y-137309780D01*
X123111356Y-137153273D01*
X123110202Y-136973236D01*
X123109199Y-136768117D01*
X123108338Y-136536367D01*
X123107608Y-136276435D01*
X123107000Y-135986770D01*
X123106504Y-135665823D01*
X123106110Y-135312042D01*
X123105809Y-134923877D01*
X123105590Y-134499778D01*
X123105445Y-134038194D01*
X123105362Y-133537575D01*
X123105334Y-132996370D01*
X123105333Y-132924619D01*
X123105333Y-127953587D01*
X123232333Y-127887913D01*
X123232333Y-132905621D01*
X123232312Y-133453756D01*
G37*
X123232312Y-133453756D02*
X123232243Y-133961105D01*
X123232115Y-134429215D01*
X123231919Y-134859634D01*
X123231645Y-135253909D01*
X123231282Y-135613587D01*
X123230823Y-135940215D01*
X123230255Y-136235340D01*
X123229570Y-136500511D01*
X123228758Y-136737274D01*
X123227809Y-136947176D01*
X123226712Y-137131766D01*
X123225459Y-137292589D01*
X123224039Y-137431193D01*
X123222442Y-137549126D01*
X123220659Y-137647936D01*
X123218680Y-137729168D01*
X123216494Y-137794370D01*
X123214093Y-137845091D01*
X123211466Y-137882876D01*
X123208603Y-137909274D01*
X123205495Y-137925831D01*
X123202131Y-137934096D01*
X123200314Y-137935616D01*
X123158562Y-137933801D01*
X123136814Y-137921776D01*
X123133353Y-137915298D01*
X123130151Y-137900795D01*
X123127198Y-137876715D01*
X123124484Y-137841508D01*
X123121998Y-137793624D01*
X123119733Y-137731513D01*
X123117677Y-137653623D01*
X123115821Y-137558405D01*
X123114156Y-137444307D01*
X123112670Y-137309780D01*
X123111356Y-137153273D01*
X123110202Y-136973236D01*
X123109199Y-136768117D01*
X123108338Y-136536367D01*
X123107608Y-136276435D01*
X123107000Y-135986770D01*
X123106504Y-135665823D01*
X123106110Y-135312042D01*
X123105809Y-134923877D01*
X123105590Y-134499778D01*
X123105445Y-134038194D01*
X123105362Y-133537575D01*
X123105334Y-132996370D01*
X123105333Y-132924619D01*
X123105333Y-127953587D01*
X123232333Y-127887913D01*
X123232333Y-132905621D01*
X123232312Y-133453756D01*
G36*
X123862041Y-125806566D02*
G01*
X123623916Y-125871229D01*
X123590151Y-125975240D01*
X123556386Y-126079250D01*
X123732308Y-126271420D01*
X123908230Y-126463589D01*
X123813181Y-126625961D01*
X123769299Y-126698169D01*
X123732379Y-126753866D01*
X123708076Y-126784737D01*
X123702774Y-126788315D01*
X123677321Y-126783097D01*
X123619854Y-126768945D01*
X123539197Y-126748091D01*
X123454583Y-126725573D01*
X123221750Y-126662850D01*
X123059010Y-126824696D01*
X123123818Y-127065806D01*
X123152414Y-127170673D01*
X123169111Y-127243480D01*
X123170301Y-127293683D01*
X123152376Y-127330735D01*
X123111728Y-127364092D01*
X123044750Y-127403208D01*
X122981677Y-127438285D01*
X122847437Y-127513823D01*
X122664177Y-127334458D01*
X122480916Y-127155094D01*
X122373887Y-127185348D01*
X122266857Y-127215601D01*
X122138189Y-127687917D01*
X121938748Y-127693916D01*
X121739306Y-127699915D01*
X121675137Y-127461083D01*
X121610967Y-127222250D01*
X121506192Y-127188280D01*
X121401416Y-127154310D01*
X121209644Y-127329524D01*
X121017871Y-127504738D01*
X120855102Y-127410399D01*
X120782728Y-127365646D01*
X120727258Y-127325995D01*
X120697007Y-127297636D01*
X120693828Y-127290321D01*
X120699779Y-127260318D01*
X120714719Y-127199140D01*
X120736236Y-127116381D01*
X120756180Y-127042476D01*
X120782631Y-126944756D01*
X120798457Y-126879275D01*
X120804291Y-126837462D01*
X120800769Y-126810748D01*
X120788524Y-126790563D01*
X120775852Y-126776528D01*
X120741965Y-126724128D01*
X120738153Y-126677757D01*
X120765226Y-126648290D01*
X120766273Y-126647876D01*
X120802824Y-126653174D01*
X120851553Y-126682129D01*
X120899777Y-126724137D01*
X120934813Y-126768591D01*
X120944805Y-126797156D01*
X120940134Y-126833985D01*
X120926321Y-126900806D01*
X120905723Y-126986874D01*
X120889345Y-127049799D01*
X120867547Y-127138190D01*
X120853581Y-127209840D01*
X120848924Y-127256015D01*
X120852303Y-127268636D01*
X120882515Y-127283719D01*
X120929825Y-127311574D01*
X120935750Y-127315269D01*
X120999250Y-127355134D01*
X121171216Y-127185972D01*
X121343182Y-127016809D01*
X121519476Y-127061390D01*
X121600965Y-127083362D01*
X121665905Y-127103425D01*
X121703900Y-127118266D01*
X121709053Y-127121777D01*
X121721125Y-127149317D01*
X121739115Y-127204974D01*
X121755855Y-127264584D01*
X121778543Y-127350519D01*
X121800893Y-127435137D01*
X121812463Y-127478918D01*
X121833481Y-127537893D01*
X121862558Y-127567567D01*
X121895795Y-127578301D01*
X121974922Y-127583592D01*
X122027479Y-127559242D01*
X122060222Y-127501714D01*
X122063729Y-127490397D01*
X122081211Y-127430050D01*
X122105287Y-127347262D01*
X122130062Y-127262300D01*
X122174001Y-127111850D01*
X122355354Y-127063114D01*
X122536708Y-127014378D01*
X122709895Y-127186421D01*
X122883083Y-127358465D01*
X122957166Y-127312897D01*
X123005428Y-127282980D01*
X123035830Y-127263700D01*
X123039560Y-127261173D01*
X123037924Y-127239522D01*
X123027224Y-127185334D01*
X123009260Y-127106988D01*
X122987844Y-127020687D01*
X122927817Y-126786356D01*
X123189503Y-126524670D01*
X123423113Y-126585418D01*
X123516100Y-126608786D01*
X123592652Y-126626485D01*
X123644388Y-126636683D01*
X123662859Y-126637875D01*
X123676821Y-126616230D01*
X123704231Y-126572256D01*
X123714563Y-126555500D01*
X123760132Y-126481417D01*
X123588898Y-126309043D01*
X123417664Y-126136670D01*
X123465805Y-125954438D01*
X123513945Y-125772207D01*
X123653598Y-125731101D01*
X123744161Y-125705188D01*
X123835656Y-125680185D01*
X123893791Y-125665151D01*
X123994333Y-125640308D01*
X123994333Y-125442930D01*
X123756566Y-125378110D01*
X123518798Y-125313291D01*
X123493034Y-125224303D01*
X123477251Y-125142110D01*
X123487279Y-125093151D01*
X123523238Y-125077012D01*
X123535946Y-125078006D01*
X123577623Y-125104500D01*
X123598704Y-125149341D01*
X123617558Y-125192146D01*
X123651974Y-125218991D01*
X123715157Y-125240131D01*
X123715828Y-125240308D01*
X123789707Y-125260507D01*
X123881952Y-125286646D01*
X123957291Y-125308573D01*
X124100166Y-125350793D01*
X124100166Y-125741904D01*
X123862041Y-125806566D01*
G37*
X123862041Y-125806566D02*
X123623916Y-125871229D01*
X123590151Y-125975240D01*
X123556386Y-126079250D01*
X123732308Y-126271420D01*
X123908230Y-126463589D01*
X123813181Y-126625961D01*
X123769299Y-126698169D01*
X123732379Y-126753866D01*
X123708076Y-126784737D01*
X123702774Y-126788315D01*
X123677321Y-126783097D01*
X123619854Y-126768945D01*
X123539197Y-126748091D01*
X123454583Y-126725573D01*
X123221750Y-126662850D01*
X123059010Y-126824696D01*
X123123818Y-127065806D01*
X123152414Y-127170673D01*
X123169111Y-127243480D01*
X123170301Y-127293683D01*
X123152376Y-127330735D01*
X123111728Y-127364092D01*
X123044750Y-127403208D01*
X122981677Y-127438285D01*
X122847437Y-127513823D01*
X122664177Y-127334458D01*
X122480916Y-127155094D01*
X122373887Y-127185348D01*
X122266857Y-127215601D01*
X122138189Y-127687917D01*
X121938748Y-127693916D01*
X121739306Y-127699915D01*
X121675137Y-127461083D01*
X121610967Y-127222250D01*
X121506192Y-127188280D01*
X121401416Y-127154310D01*
X121209644Y-127329524D01*
X121017871Y-127504738D01*
X120855102Y-127410399D01*
X120782728Y-127365646D01*
X120727258Y-127325995D01*
X120697007Y-127297636D01*
X120693828Y-127290321D01*
X120699779Y-127260318D01*
X120714719Y-127199140D01*
X120736236Y-127116381D01*
X120756180Y-127042476D01*
X120782631Y-126944756D01*
X120798457Y-126879275D01*
X120804291Y-126837462D01*
X120800769Y-126810748D01*
X120788524Y-126790563D01*
X120775852Y-126776528D01*
X120741965Y-126724128D01*
X120738153Y-126677757D01*
X120765226Y-126648290D01*
X120766273Y-126647876D01*
X120802824Y-126653174D01*
X120851553Y-126682129D01*
X120899777Y-126724137D01*
X120934813Y-126768591D01*
X120944805Y-126797156D01*
X120940134Y-126833985D01*
X120926321Y-126900806D01*
X120905723Y-126986874D01*
X120889345Y-127049799D01*
X120867547Y-127138190D01*
X120853581Y-127209840D01*
X120848924Y-127256015D01*
X120852303Y-127268636D01*
X120882515Y-127283719D01*
X120929825Y-127311574D01*
X120935750Y-127315269D01*
X120999250Y-127355134D01*
X121171216Y-127185972D01*
X121343182Y-127016809D01*
X121519476Y-127061390D01*
X121600965Y-127083362D01*
X121665905Y-127103425D01*
X121703900Y-127118266D01*
X121709053Y-127121777D01*
X121721125Y-127149317D01*
X121739115Y-127204974D01*
X121755855Y-127264584D01*
X121778543Y-127350519D01*
X121800893Y-127435137D01*
X121812463Y-127478918D01*
X121833481Y-127537893D01*
X121862558Y-127567567D01*
X121895795Y-127578301D01*
X121974922Y-127583592D01*
X122027479Y-127559242D01*
X122060222Y-127501714D01*
X122063729Y-127490397D01*
X122081211Y-127430050D01*
X122105287Y-127347262D01*
X122130062Y-127262300D01*
X122174001Y-127111850D01*
X122355354Y-127063114D01*
X122536708Y-127014378D01*
X122709895Y-127186421D01*
X122883083Y-127358465D01*
X122957166Y-127312897D01*
X123005428Y-127282980D01*
X123035830Y-127263700D01*
X123039560Y-127261173D01*
X123037924Y-127239522D01*
X123027224Y-127185334D01*
X123009260Y-127106988D01*
X122987844Y-127020687D01*
X122927817Y-126786356D01*
X123189503Y-126524670D01*
X123423113Y-126585418D01*
X123516100Y-126608786D01*
X123592652Y-126626485D01*
X123644388Y-126636683D01*
X123662859Y-126637875D01*
X123676821Y-126616230D01*
X123704231Y-126572256D01*
X123714563Y-126555500D01*
X123760132Y-126481417D01*
X123588898Y-126309043D01*
X123417664Y-126136670D01*
X123465805Y-125954438D01*
X123513945Y-125772207D01*
X123653598Y-125731101D01*
X123744161Y-125705188D01*
X123835656Y-125680185D01*
X123893791Y-125665151D01*
X123994333Y-125640308D01*
X123994333Y-125442930D01*
X123756566Y-125378110D01*
X123518798Y-125313291D01*
X123493034Y-125224303D01*
X123477251Y-125142110D01*
X123487279Y-125093151D01*
X123523238Y-125077012D01*
X123535946Y-125078006D01*
X123577623Y-125104500D01*
X123598704Y-125149341D01*
X123617558Y-125192146D01*
X123651974Y-125218991D01*
X123715157Y-125240131D01*
X123715828Y-125240308D01*
X123789707Y-125260507D01*
X123881952Y-125286646D01*
X123957291Y-125308573D01*
X124100166Y-125350793D01*
X124100166Y-125741904D01*
X123862041Y-125806566D01*
G36*
X121571910Y-123973167D02*
G01*
X121520364Y-123968589D01*
X121499324Y-123950641D01*
X121496666Y-123930834D01*
X121493921Y-123912084D01*
X121480736Y-123899868D01*
X121449691Y-123892796D01*
X121393365Y-123889480D01*
X121304335Y-123888531D01*
X121270489Y-123888500D01*
X121167755Y-123889331D01*
X121098079Y-123892854D01*
X121052201Y-123900613D01*
X121020861Y-123914152D01*
X120995495Y-123934361D01*
X120925732Y-123974563D01*
X120850611Y-123976636D01*
X120781509Y-123941157D01*
X120763067Y-123922598D01*
X120725725Y-123870565D01*
X120717247Y-123826088D01*
X120728516Y-123782667D01*
X120770032Y-123721191D01*
X120832654Y-123684052D01*
X120887525Y-123676492D01*
X120887525Y-123766776D01*
X120857640Y-123777401D01*
X120852145Y-123781785D01*
X120825029Y-123811302D01*
X120819333Y-123825000D01*
X120833727Y-123850155D01*
X120852145Y-123868215D01*
X120883316Y-123883718D01*
X120914296Y-123865944D01*
X120920181Y-123860224D01*
X120943912Y-123830467D01*
X120935478Y-123805997D01*
X120920181Y-123789777D01*
X120887525Y-123766776D01*
X120887525Y-123676492D01*
X120903615Y-123674275D01*
X120970148Y-123694888D01*
X120998739Y-123718603D01*
X121017947Y-123735395D01*
X121045029Y-123747318D01*
X121087309Y-123755408D01*
X121152111Y-123760701D01*
X121246758Y-123764234D01*
X121335395Y-123766228D01*
X121634250Y-123772084D01*
X121640701Y-123872625D01*
X121647153Y-123973167D01*
X121571910Y-123973167D01*
G37*
X121571910Y-123973167D02*
X121520364Y-123968589D01*
X121499324Y-123950641D01*
X121496666Y-123930834D01*
X121493921Y-123912084D01*
X121480736Y-123899868D01*
X121449691Y-123892796D01*
X121393365Y-123889480D01*
X121304335Y-123888531D01*
X121270489Y-123888500D01*
X121167755Y-123889331D01*
X121098079Y-123892854D01*
X121052201Y-123900613D01*
X121020861Y-123914152D01*
X120995495Y-123934361D01*
X120925732Y-123974563D01*
X120850611Y-123976636D01*
X120781509Y-123941157D01*
X120763067Y-123922598D01*
X120725725Y-123870565D01*
X120717247Y-123826088D01*
X120728516Y-123782667D01*
X120770032Y-123721191D01*
X120832654Y-123684052D01*
X120887525Y-123676492D01*
X120887525Y-123766776D01*
X120857640Y-123777401D01*
X120852145Y-123781785D01*
X120825029Y-123811302D01*
X120819333Y-123825000D01*
X120833727Y-123850155D01*
X120852145Y-123868215D01*
X120883316Y-123883718D01*
X120914296Y-123865944D01*
X120920181Y-123860224D01*
X120943912Y-123830467D01*
X120935478Y-123805997D01*
X120920181Y-123789777D01*
X120887525Y-123766776D01*
X120887525Y-123676492D01*
X120903615Y-123674275D01*
X120970148Y-123694888D01*
X120998739Y-123718603D01*
X121017947Y-123735395D01*
X121045029Y-123747318D01*
X121087309Y-123755408D01*
X121152111Y-123760701D01*
X121246758Y-123764234D01*
X121335395Y-123766228D01*
X121634250Y-123772084D01*
X121640701Y-123872625D01*
X121647153Y-123973167D01*
X121571910Y-123973167D01*
G36*
X121729500Y-123973167D02*
G01*
X121729500Y-123793250D01*
X121726557Y-123694163D01*
X121716251Y-123634215D01*
X121696365Y-123610523D01*
X121664684Y-123620208D01*
X121623666Y-123655667D01*
X121559719Y-123692832D01*
X121486339Y-123696651D01*
X121418817Y-123668012D01*
X121392369Y-123642229D01*
X121359032Y-123586752D01*
X121353454Y-123529609D01*
X121363146Y-123480754D01*
X121389166Y-123445068D01*
X121438845Y-123409661D01*
X121494834Y-123385315D01*
X121505781Y-123383539D01*
X121505781Y-123489518D01*
X121485070Y-123494377D01*
X121457418Y-123522787D01*
X121462032Y-123564257D01*
X121478079Y-123586279D01*
X121515593Y-123601465D01*
X121548530Y-123584005D01*
X121560166Y-123548818D01*
X121544868Y-123503756D01*
X121505781Y-123489518D01*
X121505781Y-123383539D01*
X121524511Y-123380500D01*
X121561232Y-123392816D01*
X121607812Y-123422469D01*
X121608276Y-123422834D01*
X121668815Y-123453728D01*
X121728938Y-123465167D01*
X121789642Y-123467909D01*
X121831160Y-123480603D01*
X121857106Y-123509954D01*
X121871092Y-123562665D01*
X121876733Y-123645441D01*
X121877666Y-123741078D01*
X121877666Y-123973167D01*
X121729500Y-123973167D01*
G37*
X121729500Y-123973167D02*
X121729500Y-123793250D01*
X121726557Y-123694163D01*
X121716251Y-123634215D01*
X121696365Y-123610523D01*
X121664684Y-123620208D01*
X121623666Y-123655667D01*
X121559719Y-123692832D01*
X121486339Y-123696651D01*
X121418817Y-123668012D01*
X121392369Y-123642229D01*
X121359032Y-123586752D01*
X121353454Y-123529609D01*
X121363146Y-123480754D01*
X121389166Y-123445068D01*
X121438845Y-123409661D01*
X121494834Y-123385315D01*
X121505781Y-123383539D01*
X121505781Y-123489518D01*
X121485070Y-123494377D01*
X121457418Y-123522787D01*
X121462032Y-123564257D01*
X121478079Y-123586279D01*
X121515593Y-123601465D01*
X121548530Y-123584005D01*
X121560166Y-123548818D01*
X121544868Y-123503756D01*
X121505781Y-123489518D01*
X121505781Y-123383539D01*
X121524511Y-123380500D01*
X121561232Y-123392816D01*
X121607812Y-123422469D01*
X121608276Y-123422834D01*
X121668815Y-123453728D01*
X121728938Y-123465167D01*
X121789642Y-123467909D01*
X121831160Y-123480603D01*
X121857106Y-123509954D01*
X121871092Y-123562665D01*
X121876733Y-123645441D01*
X121877666Y-123741078D01*
X121877666Y-123973167D01*
X121729500Y-123973167D01*
G36*
X122481543Y-123605996D02*
G01*
X122450372Y-123654461D01*
X122389787Y-123689653D01*
X122317834Y-123696871D01*
X122251778Y-123676021D01*
X122226916Y-123655667D01*
X122184112Y-123623521D01*
X122149553Y-123613334D01*
X122130488Y-123617555D01*
X122118835Y-123635665D01*
X122112822Y-123675828D01*
X122110676Y-123746212D01*
X122110500Y-123793250D01*
X122110500Y-123973167D01*
X121983500Y-123973167D01*
X121983500Y-123732015D01*
X121984417Y-123624762D01*
X121987794Y-123552697D01*
X121994569Y-123508703D01*
X122005680Y-123485661D01*
X122016981Y-123478015D01*
X122060653Y-123469144D01*
X122120803Y-123465181D01*
X122124326Y-123465167D01*
X122183857Y-123456426D01*
X122228036Y-123435208D01*
X122229909Y-123433449D01*
X122294713Y-123393241D01*
X122338523Y-123390468D01*
X122338523Y-123492603D01*
X122300028Y-123500160D01*
X122280144Y-123530624D01*
X122279833Y-123535994D01*
X122294776Y-123574306D01*
X122309341Y-123590306D01*
X122340199Y-123602189D01*
X122374353Y-123579290D01*
X122397865Y-123548728D01*
X122389012Y-123523656D01*
X122378236Y-123512165D01*
X122338523Y-123492603D01*
X122338523Y-123390468D01*
X122363257Y-123388902D01*
X122425222Y-123416368D01*
X122470290Y-123471575D01*
X122487414Y-123534855D01*
X122481543Y-123605996D01*
G37*
X122481543Y-123605996D02*
X122450372Y-123654461D01*
X122389787Y-123689653D01*
X122317834Y-123696871D01*
X122251778Y-123676021D01*
X122226916Y-123655667D01*
X122184112Y-123623521D01*
X122149553Y-123613334D01*
X122130488Y-123617555D01*
X122118835Y-123635665D01*
X122112822Y-123675828D01*
X122110676Y-123746212D01*
X122110500Y-123793250D01*
X122110500Y-123973167D01*
X121983500Y-123973167D01*
X121983500Y-123732015D01*
X121984417Y-123624762D01*
X121987794Y-123552697D01*
X121994569Y-123508703D01*
X122005680Y-123485661D01*
X122016981Y-123478015D01*
X122060653Y-123469144D01*
X122120803Y-123465181D01*
X122124326Y-123465167D01*
X122183857Y-123456426D01*
X122228036Y-123435208D01*
X122229909Y-123433449D01*
X122294713Y-123393241D01*
X122338523Y-123390468D01*
X122338523Y-123492603D01*
X122300028Y-123500160D01*
X122280144Y-123530624D01*
X122279833Y-123535994D01*
X122294776Y-123574306D01*
X122309341Y-123590306D01*
X122340199Y-123602189D01*
X122374353Y-123579290D01*
X122397865Y-123548728D01*
X122389012Y-123523656D01*
X122378236Y-123512165D01*
X122338523Y-123492603D01*
X122338523Y-123390468D01*
X122363257Y-123388902D01*
X122425222Y-123416368D01*
X122470290Y-123471575D01*
X122487414Y-123534855D01*
X122481543Y-123605996D01*
G36*
X123109308Y-123860149D02*
G01*
X123081696Y-123922242D01*
X123029331Y-123969826D01*
X122954786Y-123993336D01*
X122934042Y-123994334D01*
X122890857Y-123980013D01*
X122842675Y-123945160D01*
X122838826Y-123941417D01*
X122812248Y-123917614D01*
X122783444Y-123902262D01*
X122742877Y-123893523D01*
X122681010Y-123889555D01*
X122588308Y-123888518D01*
X122564621Y-123888500D01*
X122465725Y-123889035D01*
X122401659Y-123891597D01*
X122364921Y-123897620D01*
X122348012Y-123908540D01*
X122343431Y-123925790D01*
X122343333Y-123930834D01*
X122333354Y-123961820D01*
X122296225Y-123972730D01*
X122279833Y-123973167D01*
X122240256Y-123970229D01*
X122221875Y-123953620D01*
X122216593Y-123911644D01*
X122216333Y-123881445D01*
X122219335Y-123822048D01*
X122226872Y-123782179D01*
X122230444Y-123775611D01*
X122255742Y-123770402D01*
X122315097Y-123766061D01*
X122400232Y-123762980D01*
X122502874Y-123761553D01*
X122527442Y-123761500D01*
X122646760Y-123760619D01*
X122729855Y-123757559D01*
X122782811Y-123751694D01*
X122811711Y-123742399D01*
X122821945Y-123731229D01*
X122855632Y-123695390D01*
X122913378Y-123674002D01*
X122951654Y-123672405D01*
X122951654Y-123770827D01*
X122928055Y-123774000D01*
X122900149Y-123801947D01*
X122899901Y-123841266D01*
X122923968Y-123874499D01*
X122949181Y-123884328D01*
X122991454Y-123874404D01*
X123011600Y-123840762D01*
X123002225Y-123799369D01*
X122993452Y-123788714D01*
X122951654Y-123770827D01*
X122951654Y-123672405D01*
X122978159Y-123671298D01*
X123017907Y-123682469D01*
X123079986Y-123730697D01*
X123109596Y-123793112D01*
X123109308Y-123860149D01*
G37*
X123109308Y-123860149D02*
X123081696Y-123922242D01*
X123029331Y-123969826D01*
X122954786Y-123993336D01*
X122934042Y-123994334D01*
X122890857Y-123980013D01*
X122842675Y-123945160D01*
X122838826Y-123941417D01*
X122812248Y-123917614D01*
X122783444Y-123902262D01*
X122742877Y-123893523D01*
X122681010Y-123889555D01*
X122588308Y-123888518D01*
X122564621Y-123888500D01*
X122465725Y-123889035D01*
X122401659Y-123891597D01*
X122364921Y-123897620D01*
X122348012Y-123908540D01*
X122343431Y-123925790D01*
X122343333Y-123930834D01*
X122333354Y-123961820D01*
X122296225Y-123972730D01*
X122279833Y-123973167D01*
X122240256Y-123970229D01*
X122221875Y-123953620D01*
X122216593Y-123911644D01*
X122216333Y-123881445D01*
X122219335Y-123822048D01*
X122226872Y-123782179D01*
X122230444Y-123775611D01*
X122255742Y-123770402D01*
X122315097Y-123766061D01*
X122400232Y-123762980D01*
X122502874Y-123761553D01*
X122527442Y-123761500D01*
X122646760Y-123760619D01*
X122729855Y-123757559D01*
X122782811Y-123751694D01*
X122811711Y-123742399D01*
X122821945Y-123731229D01*
X122855632Y-123695390D01*
X122913378Y-123674002D01*
X122951654Y-123672405D01*
X122951654Y-123770827D01*
X122928055Y-123774000D01*
X122900149Y-123801947D01*
X122899901Y-123841266D01*
X122923968Y-123874499D01*
X122949181Y-123884328D01*
X122991454Y-123874404D01*
X123011600Y-123840762D01*
X123002225Y-123799369D01*
X122993452Y-123788714D01*
X122951654Y-123770827D01*
X122951654Y-123672405D01*
X122978159Y-123671298D01*
X123017907Y-123682469D01*
X123079986Y-123730697D01*
X123109596Y-123793112D01*
X123109308Y-123860149D01*
G36*
X122887989Y-125759639D02*
G01*
X122882387Y-125782177D01*
X122814141Y-125965300D01*
X122713047Y-126127372D01*
X122584100Y-126265124D01*
X122432297Y-126375286D01*
X122262635Y-126454591D01*
X122080110Y-126499769D01*
X121889720Y-126507551D01*
X121791167Y-126496062D01*
X121617218Y-126452213D01*
X121465753Y-126381437D01*
X121325132Y-126277625D01*
X121262226Y-126218441D01*
X121129092Y-126058655D01*
X121036294Y-125886258D01*
X120984060Y-125702012D01*
X120972616Y-125506680D01*
X120996344Y-125326803D01*
X121052764Y-125158002D01*
X121144195Y-124996873D01*
X121263512Y-124852398D01*
X121403591Y-124733560D01*
X121521292Y-124665091D01*
X121706896Y-124598617D01*
X121891890Y-124571013D01*
X122001744Y-124576004D01*
X122001744Y-124994538D01*
X121851559Y-124997258D01*
X121720066Y-125036070D01*
X121600859Y-125112972D01*
X121588652Y-125123462D01*
X121486691Y-125238504D01*
X121420074Y-125370424D01*
X121391971Y-125512542D01*
X121391247Y-125539500D01*
X121411948Y-125685811D01*
X121440905Y-125762557D01*
X121505130Y-125864759D01*
X121593536Y-125957655D01*
X121693887Y-126030261D01*
X121781846Y-126068507D01*
X121928467Y-126088867D01*
X122075141Y-126071320D01*
X122212187Y-126018341D01*
X122329922Y-125932410D01*
X122335627Y-125926795D01*
X122403683Y-125850775D01*
X122447116Y-125777924D01*
X122470882Y-125694999D01*
X122479937Y-125588757D01*
X122480551Y-125539500D01*
X122475871Y-125421383D01*
X122458434Y-125331488D01*
X122423145Y-125256403D01*
X122364909Y-125182716D01*
X122332044Y-125148622D01*
X122234995Y-125067478D01*
X122132861Y-125018909D01*
X122009198Y-124995243D01*
X122001744Y-124994538D01*
X122001744Y-124576004D01*
X122072546Y-124579221D01*
X122245135Y-124620179D01*
X122405929Y-124690828D01*
X122551197Y-124788107D01*
X122677213Y-124908955D01*
X122780247Y-125050314D01*
X122856570Y-125209122D01*
X122902454Y-125382319D01*
X122914170Y-125566845D01*
X122887989Y-125759639D01*
G37*
X122887989Y-125759639D02*
X122882387Y-125782177D01*
X122814141Y-125965300D01*
X122713047Y-126127372D01*
X122584100Y-126265124D01*
X122432297Y-126375286D01*
X122262635Y-126454591D01*
X122080110Y-126499769D01*
X121889720Y-126507551D01*
X121791167Y-126496062D01*
X121617218Y-126452213D01*
X121465753Y-126381437D01*
X121325132Y-126277625D01*
X121262226Y-126218441D01*
X121129092Y-126058655D01*
X121036294Y-125886258D01*
X120984060Y-125702012D01*
X120972616Y-125506680D01*
X120996344Y-125326803D01*
X121052764Y-125158002D01*
X121144195Y-124996873D01*
X121263512Y-124852398D01*
X121403591Y-124733560D01*
X121521292Y-124665091D01*
X121706896Y-124598617D01*
X121891890Y-124571013D01*
X122001744Y-124576004D01*
X122001744Y-124994538D01*
X121851559Y-124997258D01*
X121720066Y-125036070D01*
X121600859Y-125112972D01*
X121588652Y-125123462D01*
X121486691Y-125238504D01*
X121420074Y-125370424D01*
X121391971Y-125512542D01*
X121391247Y-125539500D01*
X121411948Y-125685811D01*
X121440905Y-125762557D01*
X121505130Y-125864759D01*
X121593536Y-125957655D01*
X121693887Y-126030261D01*
X121781846Y-126068507D01*
X121928467Y-126088867D01*
X122075141Y-126071320D01*
X122212187Y-126018341D01*
X122329922Y-125932410D01*
X122335627Y-125926795D01*
X122403683Y-125850775D01*
X122447116Y-125777924D01*
X122470882Y-125694999D01*
X122479937Y-125588757D01*
X122480551Y-125539500D01*
X122475871Y-125421383D01*
X122458434Y-125331488D01*
X122423145Y-125256403D01*
X122364909Y-125182716D01*
X122332044Y-125148622D01*
X122234995Y-125067478D01*
X122132861Y-125018909D01*
X122009198Y-124995243D01*
X122001744Y-124994538D01*
X122001744Y-124576004D01*
X122072546Y-124579221D01*
X122245135Y-124620179D01*
X122405929Y-124690828D01*
X122551197Y-124788107D01*
X122677213Y-124908955D01*
X122780247Y-125050314D01*
X122856570Y-125209122D01*
X122902454Y-125382319D01*
X122914170Y-125566845D01*
X122887989Y-125759639D01*
D12*
%TO.C,RJ45*%
X136652000Y-136779000D02*
X135382000Y-136779000D01*
X136652000Y-135509000D02*
X136652000Y-136779000D01*
X134339071Y-117349000D02*
X133942000Y-117349000D01*
X134339071Y-118109000D02*
X133942000Y-118109000D01*
X125282000Y-117349000D02*
X131282000Y-117349000D01*
X125282000Y-118109000D02*
X125282000Y-117349000D01*
X131282000Y-118109000D02*
X125282000Y-118109000D01*
X133942000Y-118999000D02*
X131282000Y-118999000D01*
X134339071Y-119889000D02*
X133942000Y-119889000D01*
X134339071Y-120649000D02*
X133942000Y-120649000D01*
X125282000Y-119889000D02*
X131282000Y-119889000D01*
X125282000Y-120649000D02*
X125282000Y-119889000D01*
X131282000Y-120649000D02*
X125282000Y-120649000D01*
X133942000Y-121539000D02*
X131282000Y-121539000D01*
X134339071Y-122429000D02*
X133942000Y-122429000D01*
X134339071Y-123189000D02*
X133942000Y-123189000D01*
X125282000Y-122429000D02*
X131282000Y-122429000D01*
X125282000Y-123189000D02*
X125282000Y-122429000D01*
X131282000Y-123189000D02*
X125282000Y-123189000D01*
X133942000Y-124079000D02*
X131282000Y-124079000D01*
X134339071Y-124969000D02*
X133942000Y-124969000D01*
X134339071Y-125729000D02*
X133942000Y-125729000D01*
X125282000Y-124969000D02*
X131282000Y-124969000D01*
X125282000Y-125729000D02*
X125282000Y-124969000D01*
X131282000Y-125729000D02*
X125282000Y-125729000D01*
X133942000Y-126619000D02*
X131282000Y-126619000D01*
X134339071Y-127509000D02*
X133942000Y-127509000D01*
X134339071Y-128269000D02*
X133942000Y-128269000D01*
X125282000Y-127509000D02*
X131282000Y-127509000D01*
X125282000Y-128269000D02*
X125282000Y-127509000D01*
X131282000Y-128269000D02*
X125282000Y-128269000D01*
X133942000Y-129159000D02*
X131282000Y-129159000D01*
X134339071Y-130049000D02*
X133942000Y-130049000D01*
X134339071Y-130809000D02*
X133942000Y-130809000D01*
X125282000Y-130049000D02*
X131282000Y-130049000D01*
X125282000Y-130809000D02*
X125282000Y-130049000D01*
X131282000Y-130809000D02*
X125282000Y-130809000D01*
X133942000Y-131699000D02*
X131282000Y-131699000D01*
X134339071Y-132589000D02*
X133942000Y-132589000D01*
X134339071Y-133349000D02*
X133942000Y-133349000D01*
X125282000Y-132589000D02*
X131282000Y-132589000D01*
X125282000Y-133349000D02*
X125282000Y-132589000D01*
X131282000Y-133349000D02*
X125282000Y-133349000D01*
X133942000Y-134239000D02*
X131282000Y-134239000D01*
X134272000Y-135129000D02*
X133942000Y-135129000D01*
X134272000Y-135889000D02*
X133942000Y-135889000D01*
X131282000Y-135229000D02*
X125282000Y-135229000D01*
X131282000Y-135349000D02*
X125282000Y-135349000D01*
X131282000Y-135469000D02*
X125282000Y-135469000D01*
X131282000Y-135589000D02*
X125282000Y-135589000D01*
X131282000Y-135709000D02*
X125282000Y-135709000D01*
X131282000Y-135829000D02*
X125282000Y-135829000D01*
X125282000Y-135129000D02*
X131282000Y-135129000D01*
X125282000Y-135889000D02*
X125282000Y-135129000D01*
X131282000Y-135889000D02*
X125282000Y-135889000D01*
X131282000Y-136839000D02*
X133942000Y-136839000D01*
X131282000Y-116399000D02*
X131282000Y-136839000D01*
X133942000Y-116399000D02*
X131282000Y-116399000D01*
X133942000Y-136839000D02*
X133942000Y-116399000D01*
%TO.C,S2*%
X140910000Y-129480000D02*
X142240000Y-129480000D01*
X140910000Y-130810000D02*
X140910000Y-129480000D01*
X140910000Y-132080000D02*
X143570000Y-132080000D01*
X143570000Y-132080000D02*
X143570000Y-137220000D01*
X140910000Y-132080000D02*
X140910000Y-137220000D01*
X140910000Y-137220000D02*
X143570000Y-137220000D01*
%TO.C,RJ45*%
D10*
X131945190Y-138247380D02*
X131611857Y-137771190D01*
X131373761Y-138247380D02*
X131373761Y-137247380D01*
X131754714Y-137247380D01*
X131849952Y-137295000D01*
X131897571Y-137342619D01*
X131945190Y-137437857D01*
X131945190Y-137580714D01*
X131897571Y-137675952D01*
X131849952Y-137723571D01*
X131754714Y-137771190D01*
X131373761Y-137771190D01*
X132659476Y-137247380D02*
X132659476Y-137961666D01*
X132611857Y-138104523D01*
X132516619Y-138199761D01*
X132373761Y-138247380D01*
X132278523Y-138247380D01*
X133564238Y-137580714D02*
X133564238Y-138247380D01*
X133326142Y-137199761D02*
X133088047Y-137914047D01*
X133707095Y-137914047D01*
X134564238Y-137247380D02*
X134088047Y-137247380D01*
X134040428Y-137723571D01*
X134088047Y-137675952D01*
X134183285Y-137628333D01*
X134421380Y-137628333D01*
X134516619Y-137675952D01*
X134564238Y-137723571D01*
X134611857Y-137818809D01*
X134611857Y-138056904D01*
X134564238Y-138152142D01*
X134516619Y-138199761D01*
X134421380Y-138247380D01*
X134183285Y-138247380D01*
X134088047Y-138199761D01*
X134040428Y-138152142D01*
%TO.C,S2*%
X141478095Y-128293761D02*
X141620952Y-128341380D01*
X141859047Y-128341380D01*
X141954285Y-128293761D01*
X142001904Y-128246142D01*
X142049523Y-128150904D01*
X142049523Y-128055666D01*
X142001904Y-127960428D01*
X141954285Y-127912809D01*
X141859047Y-127865190D01*
X141668571Y-127817571D01*
X141573333Y-127769952D01*
X141525714Y-127722333D01*
X141478095Y-127627095D01*
X141478095Y-127531857D01*
X141525714Y-127436619D01*
X141573333Y-127389000D01*
X141668571Y-127341380D01*
X141906666Y-127341380D01*
X142049523Y-127389000D01*
X142430476Y-127436619D02*
X142478095Y-127389000D01*
X142573333Y-127341380D01*
X142811428Y-127341380D01*
X142906666Y-127389000D01*
X142954285Y-127436619D01*
X143001904Y-127531857D01*
X143001904Y-127627095D01*
X142954285Y-127769952D01*
X142382857Y-128341380D01*
X143001904Y-128341380D01*
%TD*%
M02*
